<svg width="33" height="33" viewBox="0 0 33 33" fill="none" xmlns="http://www.w3.org/2000/svg">
<g clip-path="url(#clip0_145_1314)">
<path d="M18.98 25.2158H6.68C5.19988 25.2158 4 24.016 4 22.5358V9.13581C4 7.65569 5.19988 6.45581 6.68 6.45581H10.4104C11.0308 6.45581 11.6321 6.67108 12.1115 7.06491L15.3184 9.69921C15.7979 10.093 16.3992 10.3083 17.0196 10.3083H25.44C26.9202 10.3083 28.12 11.5082 28.12 12.9883" stroke="#5C5F77" stroke-width="2" stroke-linecap="round"/>
<path d="M27.12 25.5358C29.3402 25.5358 31.14 23.736 31.14 21.5158C31.14 19.2957 29.3402 17.4958 27.12 17.4958C24.8998 17.4958 23.1 19.2957 23.1 21.5158C23.1 23.736 24.8998 25.5358 27.12 25.5358Z" stroke="#40A02B" stroke-width="2"/>
</g>
<defs>
<clipPath id="clip0_145_1314">
<rect width="32.16" height="32.16" fill="white" transform="translate(0.319946 0.0759277)"/>
</clipPath>
</defs>
</svg>
