<svg width="33" height="33" viewBox="0 0 33 33" fill="none" xmlns="http://www.w3.org/2000/svg">
<g clip-path="url(#clip0_145_1367)">
<path d="M17.4799 25.2158H7.67994C6.19982 25.2158 4.99994 24.016 4.99994 22.5358V9.13581C4.99994 7.65569 6.19982 6.45581 7.67994 6.45581H11.4103C12.0308 6.45581 12.632 6.67108 13.1114 7.06491L16.3184 9.69921C16.7978 10.093 17.3991 10.3083 18.0195 10.3083H26.4399C27.9201 10.3083 29.1199 11.5082 29.1199 12.9883" stroke="#5C5F77" stroke-width="2" stroke-linecap="round"/>
<path d="M22.3617 18.281L19.8228 20.8199L22.3617 23.3589" stroke="#7F849C" stroke-width="1.25" stroke-linecap="round" stroke-linejoin="round"/>
<path d="M29.3791 18.281L31.918 20.8199L29.3791 23.3589" stroke="#7F849C" stroke-width="1.25" stroke-linecap="round" stroke-linejoin="round"/>
<path d="M24.0367 25.0516L27.7041 16.5884" stroke="#7F849C" stroke-width="1.25" stroke-linecap="round" stroke-linejoin="round"/>
</g>
<defs>
<clipPath id="clip0_145_1367">
<rect width="32.16" height="32.16" fill="white" transform="translate(0.799988 0.23584)"/>
</clipPath>
</defs>
</svg>
