<svg width="33" height="33" viewBox="0 0 33 33" fill="none" xmlns="http://www.w3.org/2000/svg">
<path d="M17 25.2158H5.68C4.19988 25.2158 3 24.016 3 22.5358V9.13581C3 7.65569 4.19988 6.45581 5.68 6.45581H9.4104C10.0308 6.45581 10.6321 6.67108 11.1115 7.06491L14.3184 9.69921C14.7979 10.093 15.3992 10.3083 16.0196 10.3083H22.82C24.3002 10.3083 25.5 11.5082 25.5 12.9883" stroke="#5C5F77" stroke-width="2" stroke-linecap="round"/>
<path d="M26.7423 17.6186C27.5917 16.916 27.9682 12.7628 28.3361 11.2699C28.4664 10.7413 28.7413 10.4094 29.042 10.2011C29.513 9.87493 29.8196 10.5064 29.9911 11.053V11.053C30.0942 11.3813 30.5834 11.6872 30.9222 11.8649C31.1048 11.9607 31.1976 12.1774 31.1244 12.3702V12.3702C31.0618 12.5353 30.8879 12.6353 30.7226 12.6974C30.5633 12.7572 30.37 12.8898 30.2249 13.1797C29.9856 13.6582 30.258 17.5827 30.3708 19.0647C30.3989 19.434 30.3268 19.8016 30.1675 20.136C29.6789 21.1621 28.6376 23.4817 28.6376 24.6144C28.6376 25.4057 28.8378 26.1285 29.0242 26.6299C29.1446 26.9536 28.9108 27.3352 28.5655 27.3352V27.3352C28.4323 27.3352 28.306 27.2764 28.2219 27.1731C27.8577 26.7254 26.8577 25.4589 26.6171 24.7612V24.7612C26.3118 23.876 25.6388 23.0012 24.7025 23.0066C24.3095 23.0089 23.8881 23.0196 23.4818 23.0456C22.0919 23.1344 21.1646 24.3293 20.9974 24.9977C20.8847 25.4479 20.8164 26.3521 20.7838 26.8944C20.769 27.141 20.5657 27.3352 20.3187 27.3352V27.3352C20.119 27.3352 19.9423 27.2057 19.8773 27.0169C19.4564 25.7939 19.15 25.2955 19.3385 24.6144C19.903 22.5723 19.7922 21.414 19.6614 20.8982V20.8982C19.4659 20.1268 18.8659 19.2301 19.5852 18.8895C19.9839 18.7008 20.5503 18.6001 21.4255 18.5797C23.3294 18.5355 25.8927 18.3214 26.7423 17.6186Z" fill="#FE640B"/>
<path d="M21.7979 24.5291C21.7979 24.5291 21.9986 26.388 23.066 27.3353H23.9805C23.066 26.2992 22.9664 23.5989 22.9664 23.5989C22.501 23.7504 21.8571 24.2926 21.7979 24.5291Z" fill="#DF8E1D"/>
</svg>
