<svg width="33" height="33" viewBox="0 0 33 33" fill="none" xmlns="http://www.w3.org/2000/svg">
<g clip-path="url(#clip0_145_1439)">
<path d="M17 25.2158H5.68C4.19988 25.2158 3 24.016 3 22.5358V9.13581C3 7.65569 4.19988 6.45581 5.68 6.45581H9.4104C10.0308 6.45581 10.6321 6.67108 11.1115 7.06491L14.3184 9.69921C14.7979 10.093 15.3992 10.3083 16.0196 10.3083H24.44C25.9202 10.3083 27.12 11.5082 27.12 12.9883" stroke="#5C5F77" stroke-width="2" stroke-linecap="round"/>
<path fill-rule="evenodd" clip-rule="evenodd" d="M25.78 20.5069C24.9578 20.5069 24.2911 21.1736 24.2911 21.9958C24.2911 22.818 24.9578 23.4847 25.78 23.4847C26.6022 23.4847 27.2689 22.818 27.2689 21.9958C27.2689 21.1736 26.6022 20.5069 25.78 20.5069ZM22.8022 21.9958C22.8022 20.3512 24.1354 19.0181 25.78 19.0181C27.4246 19.0181 28.7577 20.3512 28.7577 21.9958C28.7577 23.6404 27.4246 24.9736 25.78 24.9736C24.1354 24.9736 22.8022 23.6404 22.8022 21.9958Z" fill="#8839EF"/>
<path fill-rule="evenodd" clip-rule="evenodd" d="M25.78 16.7848C22.9019 16.7848 20.5688 19.1178 20.5688 21.9959C20.5688 24.874 22.9019 27.207 25.78 27.207C28.658 27.207 30.9911 24.874 30.9911 21.9959C30.9911 19.1178 28.658 16.7848 25.78 16.7848ZM19.08 21.9959C19.08 18.2956 22.0797 15.2959 25.78 15.2959C29.4802 15.2959 32.48 18.2956 32.48 21.9959C32.48 25.6962 29.4802 28.6959 25.78 28.6959C22.0797 28.6959 19.08 25.6962 19.08 21.9959Z" fill="#8839EF"/>
</g>
<defs>
<clipPath id="clip0_145_1439">
<rect width="32.16" height="32.16" fill="white" transform="translate(0.319946 0.555908)"/>
</clipPath>
</defs>
</svg>
