<svg width="34" height="33" viewBox="0 0 34 33" fill="none" xmlns="http://www.w3.org/2000/svg">
<g clip-path="url(#clip0_145_1453)">
<path d="M27.76 27.356C30.7203 27.356 33.12 24.9562 33.12 21.996C33.12 19.0357 30.7203 16.636 27.76 16.636C24.7998 16.636 22.4 19.0357 22.4 21.996C22.4 24.9562 24.7998 27.356 27.76 27.356Z" fill="#DF8E1D"/>
<path d="M20.0001 25.76H8.68006C7.19994 25.76 6.00006 24.5602 6.00006 23.08V9.68C6.00006 8.19988 7.19994 7 8.68006 7H12.4105C13.0309 7 13.6321 7.21527 14.1116 7.6091L17.3185 10.2434C17.798 10.6372 18.3992 10.8525 19.0196 10.8525H25.8201C27.3002 10.8525 28.5001 12.0524 28.5001 13.5325" stroke="#5C5F77" stroke-width="2" stroke-linecap="round"/>
</g>
<defs>
<clipPath id="clip0_145_1453">
<rect width="32.16" height="32.16" fill="white" transform="translate(0.960022 0.555908)"/>
</clipPath>
</defs>
</svg>
