<svg width="33" height="34" viewBox="0 0 33 34" fill="none" xmlns="http://www.w3.org/2000/svg">
<g clip-path="url(#clip0_145_1298)">
<path d="M15.0397 26.2158H4.70008C3.21996 26.2158 2.02008 25.016 2.02008 23.5358V10.1358C2.02008 8.65569 3.21996 7.45581 4.70008 7.45581H8.43048C9.05093 7.45581 9.65216 7.67108 10.1316 8.06491L13.3385 10.6992C13.818 11.093 14.4192 11.3083 15.0397 11.3083H23.4601C24.9402 11.3083 26.1401 12.5082 26.1401 13.9883" stroke="#5C5F77" stroke-width="2" stroke-linecap="round"/>
<path d="M20.7354 19.4038L17.86 22.2792L20.7354 25.1546" stroke="#7F849C" stroke-width="1.5" stroke-linecap="round" stroke-linejoin="round"/>
<path d="M28.6826 19.4038L31.558 22.2792L28.6826 25.1546" stroke="#7F849C" stroke-width="1.5" stroke-linecap="round" stroke-linejoin="round"/>
<path d="M22.6323 27.0714L26.7856 17.4868" stroke="#7F849C" stroke-width="1.5" stroke-linecap="round" stroke-linejoin="round"/>
</g>
<defs>
<clipPath id="clip0_145_1298">
<rect width="32.16" height="32.16" fill="white" transform="translate(0.440002 0.915771)"/>
</clipPath>
</defs>
</svg>
