<svg width="33" height="33" viewBox="0 0 33 33" fill="none" xmlns="http://www.w3.org/2000/svg">
<path d="M27.321 23.7255C27.7855 23.1241 28.712 22.6063 28.6867 21.8469V21.8469C28.6723 21.412 28.3099 21.064 27.8751 21.064H27.8462C27.3967 21.0786 27.0489 21.4555 27.0635 21.9048V21.9048C27.0871 22.2601 27.1926 22.6606 26.9933 22.9557C26.5099 23.6718 25.839 24.2327 24.9183 24.7167C24.15 25.1226 23.3529 25.2676 22.5557 25.1662C21.9035 25.0792 21.3962 24.7892 21.0773 24.3109C20.6135 23.6007 20.57 22.8324 20.9614 22.0642C21.1809 21.6251 21.5019 21.278 21.7626 21.0525C21.8697 20.9598 21.9247 20.8347 21.8868 20.6982V20.6982C21.8213 20.4625 21.5301 20.3325 21.3474 20.4952C19.6897 21.9726 19.9193 23.8142 20.5121 24.7167C20.9903 25.4415 21.9614 25.8908 23.0341 25.8908C23.3239 25.8908 23.6138 25.8619 23.9036 25.7894C25.3343 25.51 26.4978 24.791 27.321 23.7255ZM30.513 20.8902C29.4116 19.6001 27.7881 18.8899 25.9329 18.8899V18.8899C25.7908 18.8899 25.666 18.8037 25.5677 18.7011C25.4214 18.5485 25.2138 18.4551 24.9908 18.4551H24.9617C24.5125 18.4695 24.1646 18.8463 24.1791 19.2958C24.1936 19.7306 24.5559 20.0785 24.9908 20.0785H25.0197C25.2457 20.0682 25.4498 19.9633 25.5909 19.805C25.696 19.687 25.8327 19.5856 25.9908 19.5856V19.5856C27.0924 19.5856 28.136 19.9045 29.0782 20.5278C29.8028 21.0061 30.3246 21.6294 30.6145 22.3831C30.8609 22.9919 30.8464 23.5862 30.5855 24.0935C30.1796 24.8617 29.4985 25.2821 28.5998 25.2821C28.1416 25.2821 27.7013 25.1734 27.3938 25.0634C27.2617 25.0161 27.1294 25.0242 27.0218 25.1142V25.1142C26.8147 25.2874 26.8322 25.6382 27.0884 25.7236C27.5288 25.8704 27.97 25.9489 28.3969 25.9489C29.7884 25.9489 30.8175 25.1806 31.2088 24.4124C31.6291 23.5717 31.6002 22.1222 30.513 20.8902ZM23.15 22.9339C23.1645 23.3687 23.5268 23.7166 23.9616 23.7166H23.9907C24.44 23.7021 24.7879 23.3253 24.7733 22.8758C24.7588 22.441 24.3965 22.0932 23.9616 22.0932H23.9327V22.0932C23.8744 22.0932 23.8079 22.0691 23.7787 22.0187C23.2225 21.0576 22.9932 20.0147 23.0775 18.8899C23.1355 18.0202 23.4254 17.2665 23.9327 16.6431C24.3531 16.1068 25.1647 15.8459 25.7154 15.8315C27.1044 15.8052 27.7707 17.3663 27.918 18.2338C27.943 18.3812 28.0273 18.5019 28.1708 18.5435V18.5435C28.4013 18.6105 28.652 18.4366 28.6134 18.1998C28.2846 16.1801 26.9461 15.1357 25.6575 15.1357C24.3531 15.1357 23.15 16.0779 22.6716 17.4694C22.0649 19.1579 22.3705 20.7865 23.0422 22.1255C23.1626 22.3655 23.1257 22.6664 23.15 22.9339V22.9339Z" fill="#FE640B" stroke="#FE640B" stroke-width="0.25"/>
<path d="M17.5 25.2158H5.68C4.19988 25.2158 3 24.016 3 22.5358V9.13581C3 7.65569 4.19988 6.45581 5.68 6.45581H9.4104C10.0308 6.45581 10.6321 6.67108 11.1115 7.06491L14.3184 9.69921C14.7979 10.093 15.3992 10.3083 16.0196 10.3083H24.44C25.9202 10.3083 27.12 11.5082 27.12 12.9883" stroke="#5C5F77" stroke-width="2" stroke-linecap="round"/>
</svg>
