<svg width="33" height="34" viewBox="0 0 33 34" fill="none" xmlns="http://www.w3.org/2000/svg">
<g clip-path="url(#clip0_145_1255)">
<path d="M25.9788 21.2751C27.336 21.2751 28.4362 20.1749 28.4362 18.8177C28.4362 17.4605 27.336 16.3604 25.9788 16.3604C24.6217 16.3604 23.5215 17.4605 23.5215 18.8177C23.5215 20.1749 24.6217 21.2751 25.9788 21.2751Z" fill="#8839EF"/>
<path d="M22.255 27.7157C23.6121 27.7157 24.7123 26.6155 24.7123 25.2584C24.7123 23.9012 23.6121 22.801 22.255 22.801C20.8978 22.801 19.7976 23.9012 19.7976 25.2584C19.7976 26.6155 20.8978 27.7157 22.255 27.7157Z" fill="#8839EF"/>
<path d="M17.5 26.2158H4.70002C3.2199 26.2158 2.02002 25.016 2.02002 23.5358V10.1358C2.02002 8.65569 3.2199 7.45581 4.70002 7.45581H8.43042C9.05087 7.45581 9.6521 7.67108 10.1315 8.06491L13.3385 10.6992C13.8179 11.093 14.4192 11.3083 15.0396 11.3083H23.46C24.9402 11.3083 26.14 12.5082 26.14 13.9883" stroke="#5C5F77" stroke-width="2" stroke-linecap="round"/>
<path d="M29.7027 27.7157C31.0599 27.7157 32.1601 26.6155 32.1601 25.2584C32.1601 23.9012 31.0599 22.801 29.7027 22.801C28.3456 22.801 27.2454 23.9012 27.2454 25.2584C27.2454 26.6155 28.3456 27.7157 29.7027 27.7157Z" fill="#8839EF"/>
</g>
<defs>
<clipPath id="clip0_145_1255">
<rect width="32.16" height="32.16" fill="white" transform="translate(0 0.915771)"/>
</clipPath>
</defs>
</svg>
