<svg width="33" height="33" viewBox="0 0 33 33" fill="none" xmlns="http://www.w3.org/2000/svg">
<g clip-path="url(#clip0_145_1338)">
<path d="M17 25.2158H5.68C4.19988 25.2158 3 24.016 3 22.5358V9.13581C3 7.65569 4.19988 6.45581 5.68 6.45581H9.4104C10.0308 6.45581 10.6321 6.67108 11.1115 7.06491L14.3184 9.69921C14.7979 10.093 15.3992 10.3083 16.0196 10.3083H24.44C25.9202 10.3083 27.12 11.5082 27.12 12.9883" stroke="#5C5F77" stroke-width="2" stroke-linecap="round"/>
<path d="M25.2615 16.156C24.4683 16.156 23.8257 16.7987 23.8257 17.5917V17.5917C23.8257 18.0675 23.44 18.4532 22.9642 18.4532H21.5285C20.894 18.4532 20.38 18.9672 20.38 19.6017V21.3245C20.38 21.6416 20.6373 21.8988 20.9543 21.8988H21.1596C21.9107 21.8988 22.5941 22.4394 22.6693 23.1866C22.7554 24.0462 22.0833 24.7703 21.2415 24.7703H20.9543C20.6373 24.7703 20.38 25.0276 20.38 25.3445V27.0675C20.38 27.702 20.894 28.216 21.5285 28.216H23.2515C23.5684 28.216 23.8257 27.9587 23.8257 27.6417V27.4364C23.8257 26.6853 24.3662 26.0019 25.1134 25.9267C25.973 25.8406 26.6972 26.5127 26.6972 27.3545V27.6417C26.6972 27.9587 26.9544 28.216 27.2715 28.216H28.9943C29.6288 28.216 30.1428 27.702 30.1428 27.0675V25.6318C30.1428 25.156 30.5285 24.7703 31.0043 24.7703V24.7703C31.7973 24.7703 32.44 24.1277 32.44 23.3345C32.44 22.5415 31.7973 21.8988 31.0043 21.8988V21.8988C30.5285 21.8988 30.1428 21.5131 30.1428 21.0374V19.6017C30.1428 18.9672 29.6288 18.4532 28.9943 18.4532H27.5587C27.0829 18.4532 26.6972 18.0675 26.6972 17.5917V17.5917C26.6972 16.7987 26.0545 16.156 25.2615 16.156Z" fill="#179299"/>
</g>
<defs>
<clipPath id="clip0_145_1338">
<rect width="32.16" height="32.16" fill="white" transform="translate(0.280029 0.0759277)"/>
</clipPath>
</defs>
</svg>
