<svg width="33" height="33" viewBox="0 0 33 33" fill="none" xmlns="http://www.w3.org/2000/svg">
<g clip-path="url(#clip0_145_1225)">
<path d="M32.3976 17.8367C32.5442 17.9072 32.6335 18.0594 32.6235 18.2217L32.2558 24.2227C32.2302 24.6402 31.662 24.7433 31.4913 24.3615L27.9753 16.4927C27.8233 16.1525 28.1781 15.8076 28.5139 15.969L32.3976 17.8367ZM29.3096 27.8457C29.3822 28.0285 29.3111 28.237 29.1418 28.3373L26.144 30.1149C26.0182 30.1895 25.8618 30.1895 25.736 30.1149L22.7381 28.3373C22.5689 28.237 22.4978 28.0285 22.5704 27.8457L23.0551 26.6249C23.1156 26.4725 23.263 26.3725 23.4269 26.3725H28.4531C28.617 26.3725 28.7644 26.4725 28.8249 26.6249L29.3096 27.8457ZM25.5681 20.3654C25.7015 20.0284 26.1785 20.0284 26.3119 20.3654L27.5552 23.5063C27.6591 23.7688 27.4656 24.0535 27.1832 24.0535H24.6967C24.4144 24.0535 24.2209 23.7688 24.3248 23.5063L25.5681 20.3654ZM20.3846 24.361C20.2138 24.7428 19.6455 24.6394 19.6202 24.2219L19.2563 18.2215C19.2464 18.0593 19.3357 17.9072 19.4822 17.8368L23.3655 15.9693C23.7014 15.8078 24.0562 16.1529 23.904 16.4931L20.3846 24.361Z" fill="#D20F39"/>
<path d="M16.5 26.2158H6.70002C5.2199 26.2158 4.02002 25.016 4.02002 23.5358V10.1358C4.02002 8.65569 5.2199 7.45581 6.70002 7.45581H10.4304C11.0509 7.45581 11.6521 7.67108 12.1315 8.06491L15.3385 10.6992C15.8179 11.093 16.4192 11.3083 17.0396 11.3083H25.46C26.9402 11.3083 28.14 12.5082 28.14 13.9883" stroke="#5C5F77" stroke-width="2" stroke-linecap="round"/>
</g>
<defs>
<clipPath id="clip0_145_1225">
<rect width="32.16" height="32.16" fill="white" transform="translate(0.47998 0.755859)"/>
</clipPath>
</defs>
</svg>
