<svg width="33" height="33" viewBox="0 0 33 33" fill="none" xmlns="http://www.w3.org/2000/svg">
<path d="M18.5 25.2158H6.68C5.19988 25.2158 4 24.016 4 22.5358V9.13581C4 7.65569 5.19988 6.45581 6.68 6.45581H10.4104C11.0308 6.45581 11.6321 6.67108 12.1115 7.06491L15.3184 9.69921C15.7979 10.093 16.3992 10.3083 17.0196 10.3083H25.44C26.9202 10.3083 28.12 11.5082 28.12 12.9883" stroke="#5C5F77" stroke-width="2" stroke-linecap="round"/>
<path fill-rule="evenodd" clip-rule="evenodd" d="M20.4819 24.0029C20.348 23.7918 20.346 23.523 20.4767 23.3099L25.3942 15.2884C25.6677 14.8423 26.3282 14.8813 26.5473 15.3565L31.0396 25.1017C31.2063 25.4632 31.0144 25.8886 30.6331 26.0031L23.6447 28.0996C23.3636 28.1839 23.0606 28.0708 22.9034 27.8229L20.4819 24.0029ZM25.9616 17.6338C26.0089 17.3979 26.3322 17.3638 26.4277 17.5848L29.5265 24.7553C29.5848 24.8903 29.5123 25.0459 29.3713 25.088L24.543 26.5293C24.3655 26.5823 24.1954 26.4273 24.232 26.2456L25.9616 17.6338Z" fill="#179299"/>
</svg>
