<svg width="33" height="33" viewBox="0 0 33 33" fill="none" xmlns="http://www.w3.org/2000/svg">
<g clip-path="url(#clip0_145_1249)">
<path d="M27.24 26.2158C29.4602 26.2158 31.26 24.416 31.26 22.1958C31.26 19.9756 29.4602 18.1758 27.24 18.1758C25.0198 18.1758 23.22 19.9756 23.22 22.1958C23.22 24.416 25.0198 26.2158 27.24 26.2158Z" stroke="#1E66F5" stroke-width="2"/>
<path d="M20.0001 26.2158H5.70008C4.21996 26.2158 3.02008 25.016 3.02008 23.5358V10.1358C3.02008 8.65569 4.21996 7.45581 5.70008 7.45581H9.43048C10.0509 7.45581 10.6522 7.67108 11.1316 8.06491L14.3385 10.6992C14.818 11.093 15.4192 11.3083 16.0397 11.3083H24.4601C25.9402 11.3083 27.1401 12.5082 27.1401 13.9883" stroke="#5C5F77" stroke-width="2" stroke-linecap="round"/>
</g>
<defs>
<clipPath id="clip0_145_1249">
<rect width="32.16" height="32.16" fill="white" transform="translate(0.440002 0.755859)"/>
</clipPath>
</defs>
</svg>
