<svg width="33" height="33" viewBox="0 0 33 33" fill="none" xmlns="http://www.w3.org/2000/svg">
<g clip-path="url(#clip0_145_1241)">
<path d="M26.92 27.5559C29.8802 27.5559 32.28 25.1562 32.28 22.1959C32.28 19.2357 29.8802 16.8359 26.92 16.8359C23.9598 16.8359 21.56 19.2357 21.56 22.1959C21.56 25.1562 23.9598 27.5559 26.92 27.5559Z" fill="#1E66F5"/>
<path d="M20 26.2158H5.70002C4.2199 26.2158 3.02002 25.016 3.02002 23.5358V10.1358C3.02002 8.65569 4.2199 7.45581 5.70002 7.45581H9.43042C10.0509 7.45581 10.6521 7.67108 11.1315 8.06491L14.3385 10.6992C14.8179 11.093 15.4192 11.3083 16.0396 11.3083H24.46C25.9402 11.3083 27.14 12.5082 27.14 13.9883" stroke="#5C5F77" stroke-width="2" stroke-linecap="round"/>
</g>
<defs>
<clipPath id="clip0_145_1241">
<rect width="32.16" height="32.16" fill="white" transform="translate(0.119995 0.755859)"/>
</clipPath>
</defs>
</svg>
