<svg width="33" height="33" viewBox="0 0 33 33" fill="none" xmlns="http://www.w3.org/2000/svg">
<g clip-path="url(#clip0_145_1408)">
<path d="M19.56 19.9933V16.4758H23.0775M27.7675 16.4758H31.285V19.9933" stroke="#40A02B" stroke-width="1.7" stroke-linecap="round" stroke-linejoin="round"/>
<path d="M19.56 16.4758L24.7353 21.6512C25.1753 22.091 25.4224 22.6873 25.4225 23.3092M25.4225 23.3092V27.1958M25.4225 23.3092C25.4226 22.6873 25.6697 22.091 26.1095 21.6512L31.285 16.4758" stroke="#40A02B" stroke-width="1.7" stroke-linecap="round" stroke-linejoin="round"/>
<path d="M18.4999 25.2158H5.67994C4.19982 25.2158 2.99994 24.016 2.99994 22.5358V9.13581C2.99994 7.65569 4.19982 6.45581 5.67994 6.45581H9.41034C10.0308 6.45581 10.632 6.67108 11.1114 7.06491L14.3184 9.69921C14.7978 10.093 15.3991 10.3083 16.0195 10.3083H24.4399C25.9201 10.3083 27.1199 11.5082 27.1199 12.9883" stroke="#5C5F77" stroke-width="2" stroke-linecap="round"/>
</g>
<defs>
<clipPath id="clip0_145_1408">
<rect width="32.16" height="32.16" fill="white" transform="translate(0.799988 0.395752)"/>
</clipPath>
</defs>
</svg>
