<svg width="33" height="33" viewBox="0 0 33 33" fill="none" xmlns="http://www.w3.org/2000/svg">
<g clip-path="url(#clip0_145_1349)">
<path d="M19 25.2158H3.70002C2.2199 25.2158 1.02002 24.016 1.02002 22.5358V9.13581C1.02002 7.65569 2.2199 6.45581 3.70002 6.45581H7.43042C8.05087 6.45581 8.6521 6.67108 9.13152 7.06491L12.3385 9.69921C12.8179 10.093 13.4192 10.3083 14.0396 10.3083H22.46C23.9402 10.3083 25.14 11.5082 25.14 12.9883" stroke="#5C5F77" stroke-width="2" stroke-linecap="round"/>
<path d="M26.96 27.0359C29.9202 27.0359 32.32 24.6362 32.32 21.6759C32.32 18.7157 29.9202 16.3159 26.96 16.3159C23.9997 16.3159 21.6 18.7157 21.6 21.6759C21.6 24.6362 23.9997 27.0359 26.96 27.0359Z" fill="#FE640B"/>
</g>
<defs>
<clipPath id="clip0_145_1349">
<rect width="32.16" height="32.16" fill="white" transform="translate(0.160034 0.23584)"/>
</clipPath>
</defs>
</svg>
