<svg width="33" height="34" viewBox="0 0 33 34" fill="none" xmlns="http://www.w3.org/2000/svg">
<path d="M12 26.2158H5.70002C4.2199 26.2158 3.02002 25.016 3.02002 23.5358V10.1358C3.02002 8.65569 4.2199 7.45581 5.70002 7.45581H9.43042C10.0509 7.45581 10.6521 7.67108 11.1315 8.06491L14.3385 10.6992C14.8179 11.093 15.4192 11.3083 16.0396 11.3083H24.46C25.9402 11.3083 27.14 12.5082 27.14 13.9883" stroke="#5C5F77" stroke-width="2" stroke-linecap="round"/>
<path d="M19.1728 20.5523C19.3838 20.1842 19.2543 19.7175 18.8841 19.5106C18.515 19.3044 18.0462 19.4345 17.8359 19.8012L15.9043 23.1719C15.6934 23.54 15.8228 24.0067 16.1931 24.2136C16.5621 24.4198 17.031 24.2898 17.2412 23.9229L19.1728 20.5523ZM24.0065 17.9677C24.2174 17.5997 24.088 17.1329 23.7176 16.926C23.3485 16.7199 22.8797 16.8499 22.6694 17.2166L20.7378 20.5874C20.5269 20.9555 20.6564 21.4222 21.0267 21.6291C21.3958 21.8352 21.8646 21.7052 22.0747 21.3385L24.0065 17.9677ZM31.753 17.9678C31.9639 17.5999 31.8345 17.133 31.4643 16.9261C31.0952 16.72 30.6264 16.85 30.4161 17.2168L28.4845 20.5875C28.2736 20.9555 28.403 21.4224 28.7733 21.6293C29.1423 21.8353 29.6112 21.7054 29.8214 21.3386L31.753 17.9678ZM26.9186 20.5523C27.1295 20.1842 27 19.7175 26.6297 19.5106C26.2606 19.3044 25.7918 19.4345 25.5815 19.8012L23.6499 23.1719C23.439 23.54 23.5684 24.0067 23.9387 24.2136C24.3079 24.4198 24.7767 24.2898 24.9868 23.9229L26.9186 20.5523Z" fill="#40A02B" stroke="#40A02B" stroke-width="0.25"/>
</svg>
