<svg width="33" height="34" viewBox="0 0 33 34" fill="none" xmlns="http://www.w3.org/2000/svg">
<g clip-path="url(#clip0_145_1303)">
<path d="M20 26.2158H4.70002C3.2199 26.2158 2.02002 25.016 2.02002 23.5358V10.1358C2.02002 8.65569 3.2199 7.45581 4.70002 7.45581H8.43042C9.05087 7.45581 9.6521 7.67108 10.1315 8.06491L13.3385 10.6992C13.8179 11.093 14.4192 11.3083 15.0396 11.3083H23.46C24.9402 11.3083 26.14 12.5082 26.14 13.9883" stroke="#5C5F77" stroke-width="2" stroke-linecap="round"/>
<path d="M27.4 26.3757C29.6202 26.3757 31.42 24.5759 31.42 22.3557C31.42 20.1355 29.6202 18.3357 27.4 18.3357C25.1798 18.3357 23.38 20.1355 23.38 22.3557C23.38 24.5759 25.1798 26.3757 27.4 26.3757Z" stroke="#7F849C" stroke-width="2"/>
</g>
<defs>
<clipPath id="clip0_145_1303">
<rect width="32.16" height="32.16" fill="white" transform="translate(0.599976 0.915771)"/>
</clipPath>
</defs>
</svg>
