<svg width="33" height="33" viewBox="0 0 33 33" fill="none" xmlns="http://www.w3.org/2000/svg">
<g clip-path="url(#clip0_145_1447)">
<path d="M18 25.76H6.68C5.19988 25.76 4 24.5602 4 23.08V9.68C4 8.19988 5.19988 7 6.68 7H10.4104C11.0308 7 11.6321 7.21527 12.1115 7.6091L15.3184 10.2434C15.7979 10.6372 16.3992 10.8525 17.0196 10.8525H23.82C25.3002 10.8525 26.5 12.0524 26.5 13.5325" stroke="#5C5F77" stroke-width="2" stroke-linecap="round"/>
<path d="M32.7175 19.6823L32.7164 19.6772V19.6772C32.5428 18.85 31.8129 18.8483 31.2053 19.4358C30.9409 19.6915 30.6815 19.9525 30.5156 20.1448C30.3505 20.3365 30.1125 20.4444 29.8599 20.4444C29.3801 20.4444 28.9916 20.0559 28.9916 19.5761C28.9916 19.3235 29.0995 19.0855 29.2912 18.9204C29.4826 18.7554 29.742 18.4977 29.9964 18.2347C30.5865 17.6246 30.5852 16.8914 29.7553 16.7137V16.7137L29.7518 16.713C29.5036 16.6618 29.2473 16.636 28.9916 16.636C26.8912 16.636 25.1832 18.3606 25.1832 20.48C25.1832 20.5145 25.1837 20.5491 25.1848 20.5836C25.1987 21.0304 25.0858 21.4867 24.767 21.7998L21.3359 25.1695C20.5413 25.975 20.5413 27.2844 21.3366 28.0899C21.7239 28.4802 22.2399 28.6961 22.7908 28.6961C23.3411 28.6961 23.8578 28.4802 24.238 28.0957L27.7331 24.6616C28.0219 24.378 28.4283 24.25 28.833 24.2525C28.8859 24.2528 28.9388 24.2528 28.9916 24.2528C31.1269 24.2528 32.8 22.5956 32.8 20.48C32.8 20.2131 32.7723 19.9442 32.7175 19.6823Z" fill="#8839EF"/>
</g>
<defs>
<clipPath id="clip0_145_1447">
<rect width="32.16" height="32.16" fill="white" transform="translate(0.640015 0.555908)"/>
</clipPath>
</defs>
</svg>
