<svg width="33" height="33" viewBox="0 0 33 33" fill="none" xmlns="http://www.w3.org/2000/svg">
<g clip-path="url(#clip0_145_1341)">
<path d="M20.0001 16.34C20.0001 15.5999 20.6 15 21.3401 15H30.7201C31.4601 15 32.0601 15.5999 32.0601 16.34V25.72C32.0601 26.4601 31.4601 27.06 30.7201 27.06H21.3401C20.6 27.06 20.0001 26.4601 20.0001 25.72V16.34ZM22.0964 19.1421C21.5442 19.1421 21.0964 19.5898 21.0964 20.1421V24.9636C21.0964 25.5159 21.5442 25.9636 22.0964 25.9636H29.9637C30.516 25.9636 30.9637 25.5159 30.9637 24.9636V20.1421C30.9637 19.5898 30.516 19.1421 29.9637 19.1421H22.0964ZM29.989 18.0457C30.5273 18.0457 30.9637 17.6093 30.9637 17.071V17.071C30.9637 16.5328 30.5273 16.0964 29.989 16.0964H22.0711C21.5328 16.0964 21.0964 16.5328 21.0964 17.071V17.071C21.0964 17.6093 21.5328 18.0457 22.0711 18.0457H29.989ZM22.741 21.0311C22.741 20.7277 22.9869 20.4818 23.2903 20.4818C23.5937 20.4818 23.8396 20.7277 23.8396 21.0311C23.8396 21.3344 23.5937 21.5803 23.2903 21.5803C22.9869 21.5803 22.741 21.3344 22.741 21.0311ZM24.9337 21.0311C24.9337 20.7277 25.1796 20.4818 25.4829 20.4818C25.7863 20.4818 26.0322 20.7277 26.0322 21.0311C26.0322 21.3344 25.7863 21.5803 25.4829 21.5803C25.1796 21.5803 24.9337 21.3344 24.9337 21.0311ZM27.1264 21.0311C27.1264 20.7277 27.3723 20.4818 27.6757 20.4818C27.9791 20.4818 28.225 20.7277 28.225 21.0311C28.225 21.3344 27.9791 21.5803 27.6757 21.5803C27.3723 21.5803 27.1264 21.3344 27.1264 21.0311Z" fill="#D20F39"/>
<path d="M17.0001 24.2158H5.68006C4.19994 24.2158 3.00006 23.016 3.00006 21.5358V8.13581C3.00006 6.65569 4.19994 5.45581 5.68006 5.45581H9.41046C10.0309 5.45581 10.6321 5.67108 11.1116 6.06491L14.3185 8.69921C14.798 9.09304 15.3992 9.30831 16.0196 9.30831H24.4401C25.9202 9.30831 27.1201 10.5082 27.1201 11.9883" stroke="#5C5F77" stroke-width="2" stroke-linecap="round"/>
</g>
<defs>
<clipPath id="clip0_145_1341">
<rect width="32.16" height="32.16" fill="white" transform="translate(0.440002 0.0759277)"/>
</clipPath>
</defs>
</svg>
