<svg width="33" height="33" viewBox="0 0 33 33" fill="none" xmlns="http://www.w3.org/2000/svg">
<path d="M18.9999 25.76H7.67994C6.19982 25.76 4.99994 24.5602 4.99994 23.08V9.68C4.99994 8.19988 6.19982 7 7.67994 7H11.4103C12.0308 7 12.632 7.21527 13.1114 7.6091L16.3184 10.2434C16.7978 10.6372 17.3991 10.8525 18.0195 10.8525H24.8199C26.3001 10.8525 27.4999 12.0524 27.4999 13.5325" stroke="#5C5F77" stroke-width="2" stroke-linecap="round"/>
<path d="M25.1868 19.0648C25.9514 17.7055 27.9085 17.7055 28.6731 19.0648L31.2834 23.7053C32.0333 25.0385 31.0699 26.6858 29.5403 26.6858H24.3197C22.79 26.6858 21.8266 25.0385 22.5765 23.7053L25.1868 19.0648Z" fill="#5C5F77"/>
</svg>
