<svg width="33" height="33" viewBox="0 0 33 33" fill="none" xmlns="http://www.w3.org/2000/svg">
<path fill-rule="evenodd" clip-rule="evenodd" d="M6.69993 6.16016C4.47975 6.16016 2.67993 7.95998 2.67993 10.1802V23.5802C2.67993 25.8004 4.47975 27.6002 6.69993 27.6002H16.0799V24.9202H6.69993C5.95988 24.9202 5.35993 24.3202 5.35993 23.5802V10.1802C5.35993 9.4401 5.95988 8.84016 6.69993 8.84016H10.4303C10.7406 8.84016 11.0412 8.9478 11.2809 9.1447L14.4879 11.779C15.2071 12.3697 16.1089 12.6927 17.0395 12.6927H25.4599C26.2 12.6927 26.7999 13.2926 26.7999 14.0327V14.2002H29.4799V14.0327C29.4799 11.8125 27.6802 10.0127 25.4599 10.0127H17.0395C16.7293 10.0127 16.4287 9.90501 16.189 9.70811L12.982 7.07379C12.2628 6.48307 11.361 6.16016 10.4303 6.16016H6.69993Z" fill="#6C7086"/>
<path d="M21.5616 18.8452L19.0227 21.3841L21.5616 23.9231" stroke="#F9E2AF" stroke-width="1.25" stroke-linecap="round" stroke-linejoin="round"/>
<path d="M28.5791 18.8452L31.118 21.3841L28.5791 23.9231" stroke="#F9E2AF" stroke-width="1.25" stroke-linecap="round" stroke-linejoin="round"/>
<path d="M23.2366 25.6158L26.904 17.1526" stroke="#F9E2AF" stroke-width="1.25" stroke-linecap="round" stroke-linejoin="round"/>
</svg>
