<svg width="33" height="33" viewBox="0 0 33 33" fill="none" xmlns="http://www.w3.org/2000/svg">
<path fill-rule="evenodd" clip-rule="evenodd" d="M7.49998 5.68018C5.2798 5.68018 3.47998 7.48 3.47998 9.70018V23.1002C3.47998 25.3204 5.2798 27.1202 7.49998 27.1202H18.22V24.4402H7.49998C6.75993 24.4402 6.15998 23.8403 6.15998 23.1002V9.70018C6.15998 8.96012 6.75993 8.36018 7.49998 8.36018H11.2304C11.5406 8.36018 11.8412 8.46782 12.0809 8.66472L15.2879 11.299C16.0071 11.8898 16.9089 12.2127 17.8396 12.2127H26.26C27.0001 12.2127 27.6 12.8126 27.6 13.5527V13.7202H30.28V13.5527C30.28 11.3325 28.4802 9.53268 26.26 9.53268H17.8396C17.5293 9.53268 17.2288 9.42503 16.9891 9.22813L13.782 6.59381C13.0629 6.00309 12.1611 5.68018 11.2304 5.68018H7.49998Z" fill="#6C7086"/>
<path d="M31.1801 18.8251C31.5923 19.162 31.4557 19.7369 31.0933 20.1269C30.6694 20.5832 30.2189 21.3083 30.2189 22.344C30.2189 23.6475 30.8975 24.4515 31.462 24.8941C31.8548 25.2021 32.1052 25.6979 31.9032 26.1543C31.7395 26.524 31.5052 26.9808 31.1894 27.4415C30.5553 28.3541 29.8931 29.2651 28.8858 29.2651C27.8784 29.2651 27.6192 28.6799 26.4562 28.6799C25.323 28.6799 24.9201 29.2844 23.9987 29.2844C23.0773 29.2844 22.4344 28.44 21.6951 27.4031C20.8388 26.1853 20.147 24.2936 20.147 22.4981C20.147 19.6183 22.0195 18.091 23.8624 18.091C24.8415 18.091 25.6579 18.7339 26.2726 18.7339C26.8577 18.7339 27.7702 18.0525 28.8843 18.0525C29.2229 18.0525 30.2655 18.0773 31.1801 18.8251ZM28.3554 16.8333C28.8161 16.2867 29.142 15.5282 29.142 14.7697C29.142 14.596 28.9873 14.4742 28.8163 14.5046C28.139 14.6248 27.4028 15.052 26.9347 15.5948C26.5125 16.0748 26.1185 16.8333 26.1185 17.6022C26.1185 17.6248 26.1193 17.6475 26.1206 17.6696C26.1276 17.7926 26.2249 17.8895 26.3481 17.8895C27.0206 17.8895 27.8666 17.4392 28.3554 16.8333Z" fill="#9399B2"/>
</svg>
