<svg width="33" height="33" viewBox="0 0 33 33" fill="none" xmlns="http://www.w3.org/2000/svg">
<g clip-path="url(#clip0_2_1190)">
<path fill-rule="evenodd" clip-rule="evenodd" d="M7.13987 5.84009C4.91969 5.84009 3.11987 7.63991 3.11987 9.86009V23.2601C3.11987 25.4803 4.91969 27.2801 7.13987 27.2801H19.1999V24.6001H7.13987C6.39982 24.6001 5.79987 24.0002 5.79987 23.2601V9.86009C5.79987 9.12003 6.39982 8.52009 7.13987 8.52009H10.8703C11.1805 8.52009 11.4811 8.62773 11.7208 8.82463L14.9278 11.4589C15.647 12.0497 16.5488 12.3726 17.4794 12.3726H25.8999C26.64 12.3726 27.2399 12.9725 27.2399 13.7126V13.8801H29.9199V13.7126C29.9199 11.4924 28.1201 9.69259 25.8999 9.69259H17.4794C17.1692 9.69259 16.8687 9.58495 16.6289 9.38805L13.4219 6.75373C12.7028 6.163 11.8009 5.84009 10.8703 5.84009H7.13987Z" fill="#6C7086"/>
<path d="M27.2399 27.2801C30.2001 27.2801 32.5999 24.8803 32.5999 21.9201C32.5999 18.9598 30.2001 16.5601 27.2399 16.5601C24.2796 16.5601 21.8799 18.9598 21.8799 21.9201C21.8799 24.8803 24.2796 27.2801 27.2399 27.2801Z" fill="#8839ef"/>
</g>
<defs>
<clipPath id="clip0_2_1190">
<rect width="32.16" height="32.16" fill="white" transform="translate(0.439941 0.47998)"/>
</clipPath>
</defs>
</svg>
