<svg width="33" height="33" viewBox="0 0 33 33" fill="none" xmlns="http://www.w3.org/2000/svg">
<g clip-path="url(#clip0_2_1102)">
<path fill-rule="evenodd" clip-rule="evenodd" d="M6.97996 5.52002C4.75978 5.52002 2.95996 7.31984 2.95996 9.54002V22.94C2.95996 25.1603 4.75978 26.96 6.97996 26.96H19.04V24.28H6.97996C6.23991 24.28 5.63996 23.6801 5.63996 22.94V9.54002C5.63996 8.79996 6.23991 8.20002 6.97996 8.20002H10.7104C11.0206 8.20002 11.3212 8.30766 11.5609 8.50456L14.7679 11.1389C15.4871 11.7296 16.3889 12.0525 17.3195 12.0525H25.74C26.48 12.0525 27.08 12.6525 27.08 13.3925V13.56H29.76V13.3925C29.76 11.1723 27.9602 9.37252 25.74 9.37252H17.3195C17.0093 9.37252 16.7088 9.26488 16.469 9.06798L13.262 6.43366C12.5429 5.84293 11.641 5.52002 10.7104 5.52002H6.97996Z" fill="#6C7086"/>
<path d="M27.08 26.96C30.0402 26.96 32.44 24.5602 32.44 21.6C32.44 18.6397 30.0402 16.24 27.08 16.24C24.1197 16.24 21.72 18.6397 21.72 21.6C21.72 24.5602 24.1197 26.96 27.08 26.96Z" fill="#7F849C"/>
</g>
<defs>
<clipPath id="clip0_2_1102">
<rect width="32.16" height="32.16" fill="white" transform="translate(0.280029 0.159912)"/>
</clipPath>
</defs>
</svg>
