<svg width="33" height="33" viewBox="0 0 33 33" fill="none" xmlns="http://www.w3.org/2000/svg">
<g clip-path="url(#clip0_145_1383)">
<path d="M18.5001 25.2158H6.68006C5.19994 25.2158 4.00006 24.016 4.00006 22.5358V9.13581C4.00006 7.65569 5.19994 6.45581 6.68006 6.45581H10.4105C11.0309 6.45581 11.6321 6.67108 12.1116 7.06491L15.3185 9.69921C15.798 10.093 16.3992 10.3083 17.0196 10.3083H25.4401C26.9202 10.3083 28.1201 11.5082 28.1201 12.9883" stroke="#5C5F77" stroke-width="2" stroke-linecap="round"/>
<path d="M27.24 27.0359C30.2003 27.0359 32.6 24.6362 32.6 21.6759C32.6 18.7157 30.2003 16.3159 27.24 16.3159C24.2798 16.3159 21.88 18.7157 21.88 21.6759C21.88 24.6362 24.2798 27.0359 27.24 27.0359Z" fill="#8839EF"/>
</g>
<defs>
<clipPath id="clip0_145_1383">
<rect width="32.16" height="32.16" fill="white" transform="translate(0.440002 0.23584)"/>
</clipPath>
</defs>
</svg>
