<svg width="33" height="33" viewBox="0 0 33 33" fill="none" xmlns="http://www.w3.org/2000/svg">
<g clip-path="url(#clip0_145_1397)">
<path d="M15 25.2158H5.68C4.19988 25.2158 3 24.016 3 22.5358V9.13581C3 7.65569 4.19988 6.45581 5.68 6.45581H9.4104C10.0308 6.45581 10.6321 6.67108 11.1115 7.06491L14.3184 9.69921C14.7979 10.093 15.3992 10.3083 16.0196 10.3083H24.44C25.9202 10.3083 27.12 11.5082 27.12 12.9883" stroke="#5C5F77" stroke-width="2" stroke-linecap="round"/>
<path d="M20.6154 18.8838L17.74 21.7592L20.6154 24.6345" stroke="#D20F39" stroke-width="1.5" stroke-linecap="round" stroke-linejoin="round"/>
<path d="M28.5626 18.8838L31.4379 21.7592L28.5626 24.6345" stroke="#D20F39" stroke-width="1.5" stroke-linecap="round" stroke-linejoin="round"/>
<path d="M22.5122 26.5514L26.6655 16.9668" stroke="#D20F39" stroke-width="1.5" stroke-linecap="round" stroke-linejoin="round"/>
</g>
<defs>
<clipPath id="clip0_145_1397">
<rect width="32.16" height="32.16" fill="white" transform="translate(0.319946 0.395752)"/>
</clipPath>
</defs>
</svg>
