<svg width="33" height="33" viewBox="0 0 33 33" fill="none" xmlns="http://www.w3.org/2000/svg">
<g clip-path="url(#clip0_145_1222)">
<path fill-rule="evenodd" clip-rule="evenodd" d="M31.276 16.9838L30.5988 17.6612C30.1836 18.0765 30.2203 18.7557 30.6049 19.1996C31.6307 20.3835 32.2523 21.9268 32.2523 23.6126V24.9113C32.2523 25.3152 31.9248 25.6424 31.521 25.6424H19.6202C19.3281 25.6424 18.7565 25.6424 18.7565 24.9113V23.6128C18.7565 21.9269 19.378 20.3836 20.4039 19.1997C20.7886 18.7557 20.8253 18.0765 20.41 17.6611L19.7328 16.9838C19.4474 16.6984 19.4474 16.2354 19.7328 15.9498C20.0183 15.6642 20.4813 15.6642 20.767 15.9498L21.9099 17.0927C22.2173 17.4001 22.6857 17.4664 23.0916 17.3105C23.8412 17.0225 24.6547 16.8646 25.5043 16.8646C26.354 16.8646 27.1676 17.0225 27.9172 17.3105C28.323 17.4664 28.7914 17.4001 29.0988 17.0927L30.2417 15.9498C30.5276 15.6642 30.9904 15.6642 31.276 15.9498C31.5614 16.2354 31.5614 16.6984 31.276 16.9838ZM20.2188 23.6126V23.6126C20.2188 23.9259 20.4728 24.1799 20.7862 24.1799H30.2226C30.5359 24.1799 30.7899 23.9259 30.7899 23.6126V23.6126C30.7899 20.6981 28.4188 18.3271 25.5043 18.3271C22.5899 18.3271 20.2188 20.6981 20.2188 23.6126ZM23.5549 22.1209C23.8982 22.1209 24.1764 21.8428 24.1764 21.4995C24.1764 21.1559 23.8982 20.8777 23.5549 20.8777C23.2114 20.8777 22.9333 21.1559 22.9333 21.4995C22.9333 21.8428 23.2114 22.1209 23.5549 22.1209ZM28.1735 21.3998C28.1735 21.7434 27.895 22.0216 27.5518 22.0216C27.2085 22.0216 26.9301 21.7434 26.9301 21.3998C26.9301 21.0565 27.2085 20.7785 27.5518 20.7785C27.895 20.7785 28.1735 21.0565 28.1735 21.3998Z" fill="#40A02B"/>
<path d="M16 26.2158C12.0506 26.2158 10.6494 26.2158 6.70002 26.2158C5.2199 26.2158 4.02002 25.016 4.02002 23.5358V10.1358C4.02002 8.65569 5.2199 7.45581 6.70002 7.45581H10.4304C11.0509 7.45581 11.6521 7.67108 12.1315 8.06491L15.3385 10.6992C15.8179 11.093 16.4192 11.3083 17.0396 11.3083H25.46C26.9402 11.3083 28.14 12.5082 28.14 13.9883" stroke="#5C5F77" stroke-width="2" stroke-linecap="round"/>
</g>
<defs>
<clipPath id="clip0_145_1222">
<rect width="32.16" height="32.16" fill="white" transform="translate(0.319946 0.755859)"/>
</clipPath>
</defs>
</svg>
