<svg width="33" height="33" viewBox="0 0 33 33" fill="none" xmlns="http://www.w3.org/2000/svg">
<path fill-rule="evenodd" clip-rule="evenodd" d="M25.4482 17.613C25.4482 16.3802 26.4532 15.3799 27.6913 15.3799C27.9853 15.3792 28.2765 15.4364 28.5484 15.5482C28.8203 15.6601 29.0674 15.8244 29.2758 16.0318C29.4841 16.2391 29.6496 16.4855 29.7627 16.7567C29.8758 17.0281 29.9345 17.319 29.9352 17.613C29.9352 18.8465 28.9302 19.8468 27.6913 19.8468C27.3943 19.8472 27.1 19.7885 26.8258 19.6742C26.5517 19.5598 26.3028 19.3921 26.0941 19.1808L22.9886 21.2953C23.075 21.7261 23.0327 22.1729 22.8667 22.5797L26.2716 24.8175C26.6727 24.4904 27.1745 24.3122 27.692 24.313C27.986 24.3123 28.2772 24.3697 28.5489 24.4816C28.8208 24.5935 29.0679 24.7579 29.2762 24.9653C29.4845 25.1727 29.6499 25.4192 29.763 25.6905C29.8761 25.9619 29.9345 26.2528 29.9352 26.5468C29.9352 27.7796 28.9302 28.7799 27.6913 28.7799C27.0977 28.7811 26.5281 28.5466 26.1073 28.1278C25.6867 27.7091 25.4497 27.1404 25.4482 26.5468C25.4476 26.2336 25.5137 25.9239 25.6418 25.6383L22.2637 23.4199C21.8546 23.7757 21.3305 23.971 20.7883 23.97C20.4943 23.9706 20.2031 23.9134 19.9313 23.8015C19.6594 23.6896 19.4123 23.5253 19.2039 23.3178C18.9955 23.1103 18.8302 22.8639 18.7172 22.5926C18.6041 22.3212 18.5457 22.0302 18.5452 21.7362C18.5458 21.4423 18.6043 21.1513 18.7174 20.8801C18.8305 20.6087 18.9958 20.3623 19.2042 20.155C19.4124 19.9475 19.6596 19.7833 19.9314 19.6714C20.2031 19.5596 20.4945 19.5024 20.7883 19.5031C21.5012 19.5031 22.135 19.8334 22.5457 20.3479L25.556 18.2984C25.4845 18.077 25.448 17.8458 25.4482 17.613Z" fill="#8839ef" stroke="#8839ef" stroke-width="0.5"/>
<path fill-rule="evenodd" clip-rule="evenodd" d="M6.82005 6C4.59987 6 2.80005 7.79982 2.80005 10.02V23.42C2.80005 25.6402 4.59987 27.44 6.82005 27.44H17.54V24.76H6.82005C6.07999 24.76 5.48005 24.1601 5.48005 23.42V10.02C5.48005 9.27994 6.07999 8.68 6.82005 8.68H10.5504C10.8607 8.68 11.1613 8.78764 11.401 8.98454L14.608 11.6189C15.3272 12.2096 16.229 12.5325 17.1596 12.5325H25.58C26.3201 12.5325 26.92 13.1324 26.92 13.8725V14.04H29.6V13.8725C29.6 11.6523 27.8003 9.8525 25.58 9.8525H17.1596C16.8494 9.8525 16.5489 9.74486 16.3091 9.54796L13.1021 6.91364C12.383 6.32291 11.4811 6 10.5504 6H6.82005Z" fill="#6C7086"/>
</svg>
