<svg width="33" height="34" viewBox="0 0 33 34" fill="none" xmlns="http://www.w3.org/2000/svg">
<path d="M27.2509 25.5897C27.7155 24.9884 28.642 24.4706 28.6167 23.7111V23.7111C28.6022 23.2763 28.2399 22.9283 27.805 22.9283H27.7761C27.3267 22.9429 26.9788 23.3197 26.9934 23.769V23.769C27.0171 24.1244 27.1225 24.5248 26.9232 24.82C26.4398 25.5361 25.769 26.097 24.8482 26.581C24.08 26.9869 23.2828 27.1319 22.4856 27.0304C21.8335 26.9435 21.3261 26.6535 21.0072 26.1751C20.5434 25.4649 20.4999 24.6967 20.8913 23.9285C21.1109 23.4893 21.4318 23.1423 21.6925 22.9168C21.7996 22.824 21.8547 22.699 21.8167 22.5625V22.5625C21.7512 22.3267 21.46 22.1967 21.2773 22.3595C19.6196 23.8369 19.8492 25.6785 20.442 26.581C20.9203 27.3058 21.8914 27.7551 22.964 27.7551C23.2539 27.7551 23.5437 27.7262 23.8336 27.6537C25.2643 27.3743 26.4277 26.6553 27.2509 25.5897ZM30.443 22.7545C29.3415 21.4643 27.7181 20.7541 25.8628 20.7541V20.7541C25.7207 20.7541 25.596 20.668 25.4976 20.5654C25.3513 20.4127 25.1437 20.3193 24.9207 20.3193H24.8916C24.4424 20.3338 24.0946 20.7106 24.1091 21.16C24.1235 21.5949 24.4859 21.9427 24.9207 21.9427H24.9496C25.1756 21.9325 25.3798 21.8275 25.5208 21.6693C25.626 21.5512 25.7626 21.4499 25.9207 21.4499V21.4499C27.0223 21.4499 28.0659 21.7688 29.0081 22.392C29.7328 22.8704 30.2546 23.4936 30.5444 24.2474C30.7908 24.8562 30.7764 25.4504 30.5155 25.9578C30.1096 26.726 29.4285 27.1463 28.5297 27.1463C28.0715 27.1463 27.6313 27.0377 27.3238 26.9277C27.1916 26.8804 27.0593 26.8884 26.9517 26.9785V26.9785C26.7446 27.1517 26.7621 27.5025 27.0183 27.5879C27.4587 27.7347 27.8999 27.8131 28.3268 27.8131C29.7183 27.8131 30.7474 27.0449 31.1387 26.2767C31.5591 25.436 31.5301 23.9865 30.443 22.7545ZM23.0799 24.7981C23.0944 25.233 23.4567 25.5808 23.8916 25.5808H23.9206C24.37 25.5664 24.7178 25.1895 24.7032 24.7401C24.6887 24.3053 24.3264 23.9574 23.8916 23.9574H23.8626V23.9574C23.8043 23.9574 23.7378 23.9334 23.7086 23.8829C23.1524 22.9219 22.9231 21.879 23.0074 20.7541C23.0655 19.8845 23.3553 19.1307 23.8626 18.5074C24.283 17.9711 25.0946 17.7102 25.6454 17.6957C27.0343 17.6694 27.7006 19.2306 27.8479 20.0981C27.8729 20.2454 27.9573 20.3661 28.1008 20.4078V20.4078C28.3312 20.4747 28.5819 20.3009 28.5433 20.0641C28.2145 18.0443 26.8761 17 25.5875 17C24.283 17 23.0799 17.9422 22.6016 19.3336C21.9948 21.0222 22.3005 22.6508 22.9722 23.9897C23.0926 24.2298 23.0557 24.5307 23.0799 24.7981V24.7981Z" fill="#DF8E1D" stroke="#DF8E1D" stroke-width="0.25"/>
<path d="M17.4999 26.2158H5.69996C4.21983 26.2158 3.01996 25.016 3.01996 23.5358V10.1358C3.01996 8.65569 4.21983 7.45581 5.69996 7.45581H9.43036C10.0508 7.45581 10.652 7.67108 11.1315 8.06491L14.3384 10.6992C14.8179 11.093 15.4191 11.3083 16.0395 11.3083H24.46C25.9401 11.3083 27.14 12.5082 27.14 13.9883" stroke="#5C5F77" stroke-width="2" stroke-linecap="round"/>
</svg>
