<svg width="33" height="33" viewBox="0 0 33 33" fill="none" xmlns="http://www.w3.org/2000/svg">
<g clip-path="url(#clip0_2_1268)">
<path fill-rule="evenodd" clip-rule="evenodd" d="M6.97996 6.16016C4.75978 6.16016 2.95996 7.95998 2.95996 10.1802V23.5802C2.95996 25.8004 4.75978 27.6002 6.97996 27.6002H17.7V24.9202H6.97996C6.23991 24.9202 5.63996 24.3202 5.63996 23.5802V10.1802C5.63996 9.4401 6.23991 8.84016 6.97996 8.84016H10.7104C11.0206 8.84016 11.3212 8.9478 11.5609 9.1447L14.7679 11.779C15.4871 12.3697 16.3889 12.6927 17.3195 12.6927H25.74C26.48 12.6927 27.08 13.2926 27.08 14.0327V14.2002H29.76V14.0327C29.76 11.8125 27.9602 10.0127 25.74 10.0127H17.3195C17.0093 10.0127 16.7088 9.90501 16.469 9.70811L13.262 7.07379C12.5429 6.48307 11.641 6.16016 10.7104 6.16016H6.97996Z" fill="#6C7086"/>
<path d="M27.0801 26.26C29.3002 26.26 31.1001 24.4602 31.1001 22.24C31.1001 20.0198 29.3002 18.22 27.0801 18.22C24.8599 18.22 23.0601 20.0198 23.0601 22.24C23.0601 24.4602 24.8599 26.26 27.0801 26.26Z" stroke="#F9E2AF" stroke-width="2"/>
</g>
<defs>
<clipPath id="clip0_2_1268">
<rect width="32.16" height="32.16" fill="white" transform="translate(0.280029 0.800049)"/>
</clipPath>
</defs>
</svg>
