<svg width="33" height="33" viewBox="0 0 33 33" fill="none" xmlns="http://www.w3.org/2000/svg">
<g clip-path="url(#clip0_2_1124)">
<path d="M32.4436 16.2037C32.5657 16.0773 32.6332 15.9081 32.6316 15.7324C32.6301 15.5567 32.5596 15.3887 32.4354 15.2644C32.3112 15.1401 32.1432 15.0697 31.9675 15.0681C31.7918 15.0667 31.6226 15.1342 31.4962 15.2563L30.2922 16.4603C29.7462 16.1207 29.1014 15.976 28.4626 16.0494C27.8239 16.123 27.2287 16.4103 26.774 16.8649L26.0585 17.5812C25.8387 17.8009 25.7153 18.0991 25.7153 18.41C25.7153 18.7207 25.8387 19.0189 26.0585 19.2388L28.4604 21.6414C28.5694 21.7502 28.6985 21.8366 28.8409 21.8956C28.9832 21.9544 29.1355 21.9848 29.2896 21.9848C29.4436 21.9848 29.5961 21.9544 29.7383 21.8956C29.8806 21.8366 30.0099 21.7502 30.1187 21.6414L30.8342 20.9258C31.2888 20.4712 31.5762 19.8762 31.6498 19.2377C31.7233 18.599 31.5787 17.9544 31.2396 17.4083L32.4436 16.2037ZM25.0736 21.5637C25.1957 21.4373 25.2632 21.2681 25.2616 21.0924C25.2601 20.9167 25.1896 20.7487 25.0654 20.6244C24.9412 20.5001 24.7732 20.4297 24.5975 20.4281C24.4218 20.4267 24.2526 20.4942 24.1262 20.6163L23.1413 21.6012L22.945 21.4049C22.8508 21.3107 22.7231 21.2579 22.5899 21.2579C22.4567 21.2579 22.329 21.3107 22.2348 21.4049L21.0455 22.5941C20.591 23.0486 20.3036 23.6436 20.23 24.2822C20.1565 24.9208 20.301 25.5656 20.6402 26.1116L19.4362 27.3163C19.3723 27.378 19.3212 27.452 19.2861 27.5338C19.251 27.6155 19.2325 27.7034 19.2317 27.7924C19.2309 27.8812 19.2479 27.9695 19.2816 28.0518C19.3152 28.1342 19.365 28.209 19.4279 28.272C19.4909 28.3348 19.5656 28.3845 19.6479 28.4183C19.7303 28.4519 19.8185 28.4689 19.9075 28.4681C19.9965 28.4673 20.0844 28.4488 20.1661 28.4137C20.2478 28.3786 20.3218 28.3276 20.3836 28.2637L21.5882 27.0597C22.1343 27.3988 22.779 27.5434 23.4176 27.4697C24.0563 27.3961 24.6512 27.1087 25.1057 26.6543L26.295 25.4651C26.3891 25.3707 26.442 25.243 26.442 25.11C26.442 24.9768 26.3891 24.8491 26.295 24.7549L26.0987 24.5586L27.0836 23.5737C27.2057 23.4473 27.2732 23.2781 27.2716 23.1024C27.2701 22.9267 27.1996 22.7587 27.0754 22.6344C26.9512 22.5101 26.7832 22.4397 26.6075 22.4381C26.4318 22.4367 26.2626 22.5042 26.1362 22.6263L25.1513 23.6112L24.0887 22.5486L25.0736 21.5637Z" fill="#F9E2AF"/>
<path fill-rule="evenodd" clip-rule="evenodd" d="M7.17991 5.68018C4.95973 5.68018 3.15991 7.48 3.15991 9.70018V23.1002C3.15991 25.3204 4.95973 27.1202 7.17991 27.1202H17.8999V24.4402H7.17991C6.43986 24.4402 5.83991 23.8403 5.83991 23.1002V9.70018C5.83991 8.96012 6.43986 8.36018 7.17991 8.36018H10.9103C11.2205 8.36018 11.5212 8.46782 11.7609 8.66472L14.9679 11.299C15.687 11.8898 16.5889 12.2127 17.5195 12.2127H25.9399C26.68 12.2127 27.2799 12.8126 27.2799 13.5527V13.7202H29.9599V13.5527C29.9599 11.3325 28.1602 9.53268 25.9399 9.53268H17.5195C17.2093 9.53268 16.9087 9.42503 16.669 9.22813L13.462 6.59381C12.7428 6.00309 11.841 5.68018 10.9103 5.68018H7.17991Z" fill="#6C7086"/>
</g>
<defs>
<clipPath id="clip0_2_1124">
<rect width="32.16" height="32.16" fill="white" transform="translate(0.47998 0.320068)"/>
</clipPath>
</defs>
</svg>
