<svg width="33" height="34" viewBox="0 0 33 34" fill="none" xmlns="http://www.w3.org/2000/svg">
<g clip-path="url(#clip0_145_1295)">
<path d="M19 26.2158H4.70002C3.2199 26.2158 2.02002 25.016 2.02002 23.5358V10.1358C2.02002 8.65569 3.2199 7.45581 4.70002 7.45581H8.43042C9.05087 7.45581 9.6521 7.67108 10.1315 8.06491L13.3385 10.6992C13.8179 11.093 14.4192 11.3083 15.0396 11.3083H23.46C24.9402 11.3083 26.14 12.5082 26.14 13.9883" stroke="#5C5F77" stroke-width="2" stroke-linecap="round"/>
<path d="M27.08 27.7158C30.0403 27.7158 32.44 25.3161 32.44 22.3558C32.44 19.3956 30.0403 16.9958 27.08 16.9958C24.1198 16.9958 21.72 19.3956 21.72 22.3558C21.72 25.3161 24.1198 27.7158 27.08 27.7158Z" fill="#7F849C"/>
</g>
<defs>
<clipPath id="clip0_145_1295">
<rect width="32.16" height="32.16" fill="white" transform="translate(0.280029 0.915771)"/>
</clipPath>
</defs>
</svg>
