<svg width="34" height="33" viewBox="0 0 34 33" fill="none" xmlns="http://www.w3.org/2000/svg">
<g clip-path="url(#clip0_2_1133)">
<path fill-rule="evenodd" clip-rule="evenodd" d="M7.65989 5.68018C5.43971 5.68018 3.63989 7.48 3.63989 9.70018V23.1002C3.63989 25.3204 5.43971 27.1202 7.65989 27.1202H18.3799V24.4402H7.65989C6.91984 24.4402 6.31989 23.8403 6.31989 23.1002V9.70018C6.31989 8.96012 6.91984 8.36018 7.65989 8.36018H11.3903C11.7005 8.36018 12.0011 8.46782 12.2408 8.66472L15.4478 11.299C16.167 11.8898 17.0688 12.2127 17.9995 12.2127H26.4199C27.16 12.2127 27.7599 12.8126 27.7599 13.5527V13.7202H30.4399V13.5527C30.4399 11.3325 28.6401 9.53268 26.4199 9.53268H17.9995C17.6893 9.53268 17.3887 9.42503 17.149 9.22813L13.9419 6.59381C13.2228 6.00309 12.321 5.68018 11.3903 5.68018H7.65989Z" fill="#6C7086"/>
<path fill-rule="evenodd" clip-rule="evenodd" d="M19.72 18.1195C19.72 17.17 20.4898 16.4001 21.4393 16.4001H24.4996C25.4491 16.4001 26.219 17.17 26.219 18.1195V26.3372C26.219 27.2867 25.4491 28.0565 24.4996 28.0565H21.4393C20.4898 28.0565 19.72 27.2867 19.72 26.3372V18.1195ZM27.9618 18.1195C27.9618 17.17 28.7316 16.4001 29.6811 16.4001H31.4006C32.3501 16.4001 33.12 17.17 33.12 18.1195V19.839C33.12 20.7885 32.3501 21.5583 31.4006 21.5583H29.6811C28.7316 21.5583 27.9618 20.7885 27.9618 19.839V18.1195ZM29.3018 22.8983C28.5617 22.8983 27.9618 23.4983 27.9618 24.2383V26.7165C27.9618 27.4566 28.5617 28.0565 29.3018 28.0565H31.78C32.5201 28.0565 33.12 27.4566 33.12 26.7165V24.2383C33.12 23.4983 32.5201 22.8983 31.78 22.8983H29.3018Z" fill="#89DCEB"/>
</g>
<defs>
<clipPath id="clip0_2_1133">
<rect width="32.16" height="32.16" fill="white" transform="translate(0.959961 0.320068)"/>
</clipPath>
</defs>
</svg>
