<svg width="33" height="33" viewBox="0 0 33 33" fill="none" xmlns="http://www.w3.org/2000/svg">
<path d="M25.9712 27.6928C25.6547 28.0618 25.012 27.8607 25.0043 27.3893L24.8933 20.4966H29.8975C30.8042 20.4966 31.3094 21.4673 30.7458 22.1225L25.9712 27.6928Z" fill="url(#paint0_linear_2_1241)"/>
<path d="M25.9712 27.6928C25.6547 28.0618 25.012 27.8607 25.0043 27.3893L24.8933 20.4966H29.8975C30.8042 20.4966 31.3094 21.4673 30.7458 22.1225L25.9712 27.6928Z" fill="url(#paint1_linear_2_1241)"/>
<path d="M23.936 16.6041C24.2525 16.235 24.8933 16.4367 24.9011 16.9081L24.9497 23.8004H20.0078C19.1011 23.8004 18.596 22.83 19.1596 22.1743L23.936 16.6041Z" fill="#3ECF8E"/>
<path fill-rule="evenodd" clip-rule="evenodd" d="M6.85984 6.16016C4.63966 6.16016 2.83984 7.95998 2.83984 10.1802V23.5802C2.83984 25.8004 4.63966 27.6002 6.85984 27.6002H17.5798V24.9202H6.85984C6.11979 24.9202 5.51984 24.3202 5.51984 23.5802V10.1802C5.51984 9.4401 6.11979 8.84016 6.85984 8.84016H10.5902C10.9005 8.84016 11.2011 8.9478 11.4408 9.1447L14.6478 11.779C15.367 12.3697 16.2688 12.6927 17.1994 12.6927H25.6198C26.3599 12.6927 26.9598 13.2926 26.9598 14.0327V14.2002H29.6398V14.0327C29.6398 11.8125 27.8401 10.0127 25.6198 10.0127H17.1994C16.8892 10.0127 16.5886 9.90501 16.3489 9.70811L13.1419 7.07379C12.4227 6.48307 11.5209 6.16016 10.5902 6.16016H6.85984Z" fill="#6C7086"/>
<defs>
<linearGradient id="paint0_linear_2_1241" x1="24.8936" y1="22.0251" x2="29.2333" y2="23.9906" gradientUnits="userSpaceOnUse">
<stop stop-color="#249361"/>
<stop offset="1" stop-color="#3ECF8E"/>
</linearGradient>
<linearGradient id="paint1_linear_2_1241" x1="22.9216" y1="19.5249" x2="24.7172" y2="23.1754" gradientUnits="userSpaceOnUse">
<stop stop-opacity="0.2"/>
<stop offset="1" stop-opacity="0"/>
</linearGradient>
</defs>
</svg>
