<svg width="34" height="33" viewBox="0 0 34 33" fill="none" xmlns="http://www.w3.org/2000/svg">
<g clip-path="url(#clip0_2_1260)">
<path fill-rule="evenodd" clip-rule="evenodd" d="M7.65989 6.16016C5.43971 6.16016 3.63989 7.95998 3.63989 10.1802V23.5802C3.63989 25.8004 5.43971 27.6002 7.65989 27.6002H19.7199V24.9202H7.65989C6.91984 24.9202 6.31989 24.3202 6.31989 23.5802V10.1802C6.31989 9.4401 6.91984 8.84016 7.65989 8.84016H11.3903C11.7005 8.84016 12.0011 8.9478 12.2408 9.1447L15.4478 11.779C16.167 12.3697 17.0688 12.6927 17.9995 12.6927H26.4199C27.16 12.6927 27.7599 13.2926 27.7599 14.0327V14.2002H30.4399V14.0327C30.4399 11.8125 28.6401 10.0127 26.4199 10.0127H17.9995C17.6893 10.0127 17.3887 9.90501 17.149 9.70811L13.9419 7.07379C13.2228 6.48307 12.321 6.16016 11.3903 6.16016H7.65989Z" fill="#6C7086"/>
<path d="M27.7599 27.6001C30.7201 27.6001 33.1199 25.2004 33.1199 22.2401C33.1199 19.2799 30.7201 16.8801 27.7599 16.8801C24.7997 16.8801 22.3999 19.2799 22.3999 22.2401C22.3999 25.2004 24.7997 27.6001 27.7599 27.6001Z" fill="#df8e1d"/>
</g>
<defs>
<clipPath id="clip0_2_1260">
<rect width="32.16" height="32.16" fill="white" transform="translate(0.959961 0.800049)"/>
</clipPath>
</defs>
</svg>
