<svg width="33" height="34" viewBox="0 0 33 34" fill="none" xmlns="http://www.w3.org/2000/svg">
<g clip-path="url(#clip0_145_1260)">
<path d="M28.635 20.3408C28.635 19.7885 28.1873 19.3408 27.635 19.3408H23.605C23.0527 19.3408 22.605 19.7885 22.605 20.3408V24.3708C22.605 24.9231 23.0527 25.3708 23.605 25.3708H27.635C28.1873 25.3708 28.635 24.9231 28.635 24.3708V20.3408Z" fill="#04A5E5"/>
<path fill-rule="evenodd" clip-rule="evenodd" d="M23.1075 15.8232C23.2409 15.8232 23.3686 15.8762 23.4629 15.9704C23.5571 16.0647 23.61 16.1924 23.61 16.3257V16.3257C23.61 16.6033 23.835 16.8282 24.1125 16.8282H24.615C24.8925 16.8282 25.1175 16.6033 25.1175 16.3257V16.3257C25.1175 16.1924 25.1705 16.0647 25.2647 15.9704C25.359 15.8762 25.4867 15.8232 25.62 15.8232C25.7534 15.8232 25.8811 15.8762 25.9754 15.9704C26.0696 16.0647 26.1225 16.1924 26.1225 16.3257V16.3257C26.1225 16.6033 26.3475 16.8282 26.625 16.8282H27.1275C27.405 16.8282 27.63 16.6033 27.63 16.3257V16.3257C27.63 16.1924 27.683 16.0647 27.7772 15.9704C27.8715 15.8762 27.9992 15.8232 28.1325 15.8232C28.2659 15.8232 28.3936 15.8762 28.4879 15.9704C28.5821 16.0647 28.635 16.1924 28.635 16.3257V16.3257C28.635 16.6033 28.86 16.8282 29.1375 16.8282V16.8282C29.6706 16.8282 30.1819 17.04 30.5589 17.4169C30.9358 17.7938 31.1475 18.3052 31.1475 18.8382V18.8382C31.1475 19.1158 31.3725 19.3407 31.65 19.3407V19.3407C31.7834 19.3407 31.9111 19.3937 32.0054 19.4879C32.0996 19.5822 32.1525 19.7099 32.1525 19.8432C32.1525 19.9766 32.0996 20.1043 32.0054 20.1986C31.9111 20.2928 31.7834 20.3457 31.65 20.3457V20.3457C31.3725 20.3457 31.1475 20.5707 31.1475 20.8482V21.3507C31.1475 21.6283 31.3725 21.8532 31.65 21.8532V21.8532C31.7834 21.8532 31.9111 21.9062 32.0054 22.0004C32.0996 22.0947 32.1525 22.2224 32.1525 22.3557C32.1525 22.4891 32.0996 22.6168 32.0054 22.7111C31.9111 22.8053 31.7834 22.8582 31.65 22.8582V22.8582C31.3725 22.8582 31.1475 23.0832 31.1475 23.3607V23.8632C31.1475 24.1408 31.3725 24.3657 31.65 24.3657V24.3657C31.7834 24.3657 31.9111 24.4187 32.0054 24.5129C32.0996 24.6072 32.1525 24.7349 32.1525 24.8682C32.1525 25.0016 32.0996 25.1293 32.0054 25.2236C31.9111 25.3178 31.7834 25.3707 31.65 25.3707V25.3707C31.3725 25.3707 31.1475 25.5957 31.1475 25.8732V25.8732C31.1475 26.4063 30.9358 26.9176 30.5589 27.2946C30.1819 27.6715 29.6706 27.8832 29.1375 27.8832V27.8832C28.86 27.8832 28.635 28.1082 28.635 28.3857V28.3857C28.635 28.5191 28.5821 28.6468 28.4879 28.7411C28.3936 28.8353 28.2659 28.8882 28.1325 28.8882C27.9992 28.8882 27.8715 28.8353 27.7772 28.7411C27.683 28.6468 27.63 28.5191 27.63 28.3857V28.3857C27.63 28.1082 27.405 27.8832 27.1275 27.8832H26.625C26.3475 27.8832 26.1225 28.1082 26.1225 28.3857V28.3857C26.1225 28.5191 26.0696 28.6468 25.9754 28.7411C25.8811 28.8353 25.7534 28.8882 25.62 28.8882C25.4867 28.8882 25.359 28.8353 25.2647 28.7411C25.1705 28.6468 25.1175 28.5191 25.1175 28.3857V28.3857C25.1175 28.1082 24.8925 27.8832 24.615 27.8832H24.1125C23.835 27.8832 23.61 28.1082 23.61 28.3857V28.3857C23.61 28.5191 23.5571 28.6468 23.4629 28.7411C23.3686 28.8353 23.2409 28.8882 23.1075 28.8882C22.9742 28.8882 22.8465 28.8353 22.7522 28.7411C22.658 28.6468 22.605 28.5191 22.605 28.3857V28.3857C22.605 28.1082 22.38 27.8832 22.1025 27.8832V27.8832C21.5695 27.8832 21.0581 27.6715 20.6812 27.2946C20.3042 26.9176 20.0925 26.4063 20.0925 25.8732V25.8732C20.0925 25.5957 19.8675 25.3707 19.59 25.3707V25.3707C19.4567 25.3707 19.329 25.3178 19.2347 25.2236C19.1405 25.1293 19.0875 25.0016 19.0875 24.8682C19.0875 24.7349 19.1405 24.6072 19.2347 24.5129C19.329 24.4187 19.4567 24.3657 19.59 24.3657V24.3657C19.8675 24.3657 20.0925 24.1408 20.0925 23.8632V23.3607C20.0925 23.0832 19.8675 22.8582 19.59 22.8582V22.8582C19.4567 22.8582 19.329 22.8053 19.2347 22.7111C19.1405 22.6168 19.0875 22.4891 19.0875 22.3557C19.0875 22.2224 19.1405 22.0947 19.2347 22.0004C19.329 21.9062 19.4567 21.8532 19.59 21.8532V21.8532C19.8675 21.8532 20.0925 21.6283 20.0925 21.3507V20.8482C20.0925 20.5707 19.8675 20.3457 19.59 20.3457V20.3457C19.4567 20.3457 19.329 20.2928 19.2347 20.1986C19.1405 20.1043 19.0875 19.9766 19.0875 19.8432C19.0875 19.7099 19.1405 19.5822 19.2347 19.4879C19.329 19.3937 19.4567 19.3407 19.59 19.3407V19.3407C19.8675 19.3407 20.0925 19.1158 20.0925 18.8382V18.8382C20.0925 18.3052 20.3042 17.7938 20.6812 17.4169C21.0581 17.04 21.5695 16.8282 22.1025 16.8282V16.8282C22.38 16.8282 22.605 16.6033 22.605 16.3257V16.3257C22.605 16.1924 22.658 16.0647 22.7522 15.9704C22.8465 15.8762 22.9742 15.8232 23.1075 15.8232ZM21.6 18.8382C21.6 18.7049 21.653 18.5772 21.7472 18.4829C21.8415 18.3887 21.9692 18.3357 22.1025 18.3357H29.1375C29.2709 18.3357 29.3986 18.3887 29.4929 18.4829C29.5871 18.5772 29.64 18.7049 29.64 18.8382V25.8732C29.64 26.0066 29.5871 26.1343 29.4929 26.2286C29.3986 26.3228 29.2709 26.3757 29.1375 26.3757H22.1025C21.9692 26.3757 21.8415 26.3228 21.7472 26.2286C21.653 26.1343 21.6 26.0066 21.6 25.8732V18.8382Z" fill="#04A5E5"/>
<path d="M16.5 26.2158H5.70002C4.2199 26.2158 3.02002 25.016 3.02002 23.5358V10.1358C3.02002 8.65569 4.2199 7.45581 5.70002 7.45581H9.43042C10.0509 7.45581 10.6521 7.67108 11.1315 8.06491L14.3385 10.6992C14.8179 11.093 15.4192 11.3083 16.0396 11.3083H24.46C25.9402 11.3083 27.14 12.5082 27.14 13.9883" stroke="#5C5F77" stroke-width="2" stroke-linecap="round"/>
</g>
<defs>
<clipPath id="clip0_145_1260">
<rect width="32.16" height="32.16" fill="white" transform="translate(0.160034 0.915771)"/>
</clipPath>
</defs>
</svg>
