<svg width="33" height="34" viewBox="0 0 33 34" fill="none" xmlns="http://www.w3.org/2000/svg">
<path d="M27.321 25.5856C27.7855 24.9842 28.712 24.4665 28.6867 23.707V23.707C28.6723 23.2721 28.3099 22.9241 27.8751 22.9241H27.8462C27.3967 22.9388 27.0489 23.3156 27.0635 23.7649V23.7649C27.0871 24.1202 27.1926 24.5207 26.9933 24.8158C26.5099 25.5319 25.839 26.0928 24.9183 26.5768C24.15 26.9827 23.3529 27.1277 22.5557 27.0263C21.9035 26.9393 21.3962 26.6493 21.0773 26.171C20.6135 25.4608 20.57 24.6925 20.9614 23.9243C21.1809 23.4852 21.5019 23.1381 21.7626 22.9126C21.8697 22.8199 21.9247 22.6949 21.8868 22.5583V22.5583C21.8213 22.3226 21.5301 22.1926 21.3474 22.3554C19.6897 23.8327 19.9193 25.6743 20.5121 26.5768C20.9903 27.3017 21.9614 27.751 23.0341 27.751C23.3239 27.751 23.6138 27.722 23.9036 27.6495C25.3343 27.3701 26.4978 26.6511 27.321 25.5856ZM30.513 22.7503C29.4116 21.4602 27.7881 20.75 25.9329 20.75V20.75C25.7908 20.75 25.666 20.6638 25.5677 20.5612C25.4214 20.4086 25.2138 20.3152 24.9908 20.3152H24.9617C24.5125 20.3296 24.1646 20.7064 24.1791 21.1559C24.1936 21.5907 24.5559 21.9386 24.9908 21.9386H25.0197C25.2457 21.9283 25.4498 21.8234 25.5909 21.6651C25.696 21.5471 25.8327 21.4457 25.9908 21.4457V21.4457C27.0924 21.4457 28.136 21.7646 29.0782 22.3879C29.8028 22.8663 30.3246 23.4895 30.6145 24.2432C30.8609 24.852 30.8464 25.4463 30.5855 25.9536C30.1796 26.7218 29.4985 27.1422 28.5998 27.1422C28.1416 27.1422 27.7013 27.0335 27.3938 26.9235C27.2617 26.8762 27.1294 26.8843 27.0218 26.9743V26.9743C26.8147 27.1475 26.8322 27.4983 27.0884 27.5837C27.5288 27.7306 27.97 27.809 28.3969 27.809C29.7884 27.809 30.8175 27.0408 31.2088 26.2725C31.6291 25.4318 31.6002 23.9823 30.513 22.7503ZM23.15 24.794C23.1645 25.2288 23.5268 25.5767 23.9616 25.5767H23.9907C24.44 25.5622 24.7879 25.1854 24.7733 24.736C24.7588 24.3011 24.3965 23.9533 23.9616 23.9533H23.9327V23.9533C23.8744 23.9533 23.8079 23.9293 23.7787 23.8788C23.2225 22.9177 22.9932 21.8748 23.0775 20.75C23.1355 19.8803 23.4254 19.1266 23.9327 18.5032C24.3531 17.9669 25.1647 17.706 25.7154 17.6916C27.1044 17.6653 27.7707 19.2264 27.918 20.094C27.943 20.2413 28.0273 20.362 28.1708 20.4037V20.4037C28.4013 20.4706 28.652 20.2967 28.6134 20.0599C28.2846 18.0402 26.9461 16.9958 25.6575 16.9958C24.3531 16.9958 23.15 17.938 22.6716 19.3295C22.0649 21.0181 22.3705 22.6466 23.0422 23.9856C23.1626 24.2256 23.1257 24.5266 23.15 24.794V24.794Z" fill="#40A02B" stroke="#40A02B" stroke-width="0.25"/>
<path d="M17.5 26.2158H5.70002C4.2199 26.2158 3.02002 25.016 3.02002 23.5358V10.1358C3.02002 8.65569 4.2199 7.45581 5.70002 7.45581H9.43042C10.0509 7.45581 10.6521 7.67108 11.1315 8.06491L14.3385 10.6992C14.8179 11.093 15.4192 11.3083 16.0396 11.3083H24.46C25.9402 11.3083 27.14 12.5082 27.14 13.9883" stroke="#5C5F77" stroke-width="2" stroke-linecap="round"/>
</svg>
