<svg width="33" height="33" viewBox="0 0 33 33" fill="none" xmlns="http://www.w3.org/2000/svg">
<g clip-path="url(#clip0_145_1317)">
<path d="M32.4436 15.9595C32.5657 15.8332 32.6333 15.6639 32.6316 15.4882C32.6302 15.3126 32.5597 15.1445 32.4355 15.0203C32.3113 14.896 32.1432 14.8256 31.9675 14.824C31.7919 14.8225 31.6226 14.8901 31.4963 15.0121L30.8535 15.6549C30.5248 15.9836 30.016 16.0231 29.5689 15.8957C29.2121 15.794 28.8363 15.7623 28.4626 15.8053C27.824 15.8788 27.2288 16.1661 26.7741 16.6208L26.0585 17.337C25.8388 17.5568 25.7154 17.8549 25.7154 18.1658C25.7154 18.4766 25.8388 18.7747 26.0585 18.9946L28.4605 21.3972C28.5694 21.506 28.6986 21.5925 28.8409 21.6514C28.9832 21.7103 29.1356 21.7407 29.2897 21.7407C29.4436 21.7407 29.5961 21.7103 29.7383 21.6514C29.8806 21.5925 30.0099 21.506 30.1187 21.3972L30.8343 20.6817C31.2888 20.227 31.5763 19.6321 31.6498 18.9935C31.6929 18.6198 31.6612 18.2439 31.5595 17.887C31.4323 17.4403 31.4719 16.9318 31.8002 16.6033L32.4436 15.9595ZM25.0736 21.3195C25.1957 21.1932 25.2633 21.0239 25.2616 20.8482C25.2602 20.6726 25.1897 20.5045 25.0655 20.3803C24.9413 20.256 24.7732 20.1856 24.5975 20.184C24.4219 20.1825 24.2526 20.2501 24.1263 20.3721L23.3377 21.1607C23.2293 21.2691 23.0535 21.2691 22.9451 21.1607V21.1607C22.8508 21.0665 22.7231 21.0137 22.59 21.0137C22.4568 21.0137 22.3291 21.0665 22.2349 21.1607L21.0456 22.35C20.5911 22.8045 20.3036 23.3995 20.2301 24.0381C20.187 24.4118 20.2187 24.7877 20.3204 25.1446C20.4476 25.5914 20.408 26.0998 20.0797 26.4284L19.4363 27.0721C19.3723 27.1339 19.3213 27.2079 19.2862 27.2896C19.2511 27.3714 19.2326 27.4593 19.2318 27.5482C19.231 27.6371 19.248 27.7254 19.2816 27.8077C19.3153 27.8901 19.3651 27.9648 19.428 28.0278C19.4909 28.0907 19.5657 28.1404 19.648 28.1742C19.7304 28.2078 19.8186 28.2248 19.9075 28.224C19.9965 28.2232 20.0844 28.2047 20.1662 28.1696C20.2479 28.1345 20.3219 28.0834 20.3836 28.0195L21.0274 27.3761C21.356 27.0477 21.8644 27.0082 22.3111 27.1354C22.6681 27.2371 23.0439 27.2687 23.4177 27.2256C24.0563 27.152 24.6513 26.8646 25.1058 26.4102L26.2951 25.2209C26.3891 25.1266 26.4421 24.9989 26.4421 24.8658C26.4421 24.7326 26.3891 24.6049 26.2951 24.5107V24.5107C26.1866 24.4023 26.1866 24.2265 26.2951 24.1181L27.0836 23.3295C27.2057 23.2032 27.2733 23.0339 27.2716 22.8582C27.2702 22.6826 27.1997 22.5145 27.0755 22.3903C26.9513 22.266 26.7832 22.1956 26.6075 22.194C26.4319 22.1925 26.2626 22.2601 26.1363 22.3821L25.6827 22.8357C25.3892 23.1292 24.9135 23.1292 24.6201 22.8357V22.8357C24.3266 22.5423 24.3266 22.0665 24.6201 21.7731L25.0736 21.3195Z" fill="#DF8E1D"/>
<path d="M17.98 25.2158H5.68C4.19988 25.2158 3 24.016 3 22.5358V9.13581C3 7.65569 4.19988 6.45581 5.68 6.45581H9.4104C10.0308 6.45581 10.6321 6.67108 11.1115 7.06491L14.3184 9.69921C14.7979 10.093 15.3992 10.3083 16.0196 10.3083H24.44C25.9202 10.3083 27.12 11.5082 27.12 12.9883" stroke="#5C5F77" stroke-width="2" stroke-linecap="round"/>
</g>
<defs>
<clipPath id="clip0_145_1317">
<rect width="32.16" height="32.16" fill="white" transform="translate(0.47998 0.0759277)"/>
</clipPath>
</defs>
</svg>
