<svg width="33" height="33" viewBox="0 0 33 33" fill="none" xmlns="http://www.w3.org/2000/svg">
<path fill-rule="evenodd" clip-rule="evenodd" d="M7.49998 6.16016C5.2798 6.16016 3.47998 7.95998 3.47998 10.1802V23.5802C3.47998 25.8004 5.2798 27.6002 7.49998 27.6002H18.22V24.9202H7.49998C6.75993 24.9202 6.15998 24.3202 6.15998 23.5802V10.1802C6.15998 9.4401 6.75993 8.84016 7.49998 8.84016H11.2304C11.5406 8.84016 11.8412 8.9478 12.0809 9.1447L15.2879 11.779C16.0071 12.3697 16.9089 12.6927 17.8396 12.6927H26.26C27.0001 12.6927 27.6 13.2926 27.6 14.0327V14.2002H30.28V14.0327C30.28 11.8125 28.4802 10.0127 26.26 10.0127H17.8396C17.5293 10.0127 17.2288 9.90501 16.9891 9.70811L13.782 7.07379C13.0629 6.48307 12.1611 6.16016 11.2304 6.16016H7.49998Z" fill="#6C7086"/>
<path d="M25.187 19.3089C25.9516 17.9496 27.9087 17.9496 28.6733 19.3089L31.2836 23.9494C32.0335 25.2826 31.0701 26.93 29.5405 26.93H24.3198C22.7902 26.93 21.8268 25.2826 22.5767 23.9494L25.187 19.3089Z" fill="#6C7086"/>
</svg>
