<svg width="33" height="33" viewBox="0 0 33 33" fill="none" xmlns="http://www.w3.org/2000/svg">
<path d="M17.0395 26.2158H6.69996C5.21983 26.2158 4.01996 25.016 4.01996 23.5358V10.1358C4.01996 8.65569 5.21983 7.45581 6.69996 7.45581H10.4304C11.0508 7.45581 11.652 7.67108 12.1315 8.06491L15.3384 10.6992C15.8179 11.093 16.4191 11.3083 17.0395 11.3083H25.46C26.9401 11.3083 28.14 12.5082 28.14 13.9883" stroke="#5C5F77" stroke-width="2" stroke-linecap="round"/>
<path d="M28.94 27.5558C30.4201 27.5558 31.62 26.3559 31.62 24.8758C31.62 23.3957 30.4201 22.1958 28.94 22.1958C27.4599 22.1958 26.26 23.3957 26.26 24.8758C26.26 26.3559 27.4599 27.5558 28.94 27.5558Z" fill="#1E66F5"/>
<path d="M23.58 15.4958H20.9C20.1599 15.4958 19.56 16.0958 19.56 16.8358V19.5158C19.56 20.2559 20.1599 20.8558 20.9 20.8558H23.58C24.3201 20.8558 24.92 20.2559 24.92 19.5158V16.8358C24.92 16.0958 24.3201 15.4958 23.58 15.4958Z" fill="#179299"/>
<path d="M21.7203 23.7659C21.9513 23.3659 22.5286 23.3659 22.7596 23.7659L24.0413 25.986C24.2723 26.386 23.9836 26.886 23.5217 26.886H20.9582C20.4963 26.886 20.2076 26.386 20.4386 25.986L21.7203 23.7659Z" fill="#04A5E5"/>
<path d="M28.012 16.6633C28.3308 15.802 29.5491 15.802 29.8679 16.6633C29.968 16.9342 30.1816 17.1478 30.4524 17.2479C31.3138 17.5666 31.3138 18.785 30.4524 19.1038C30.1816 19.2039 29.968 19.4175 29.8679 19.6883C29.5491 20.5496 28.3308 20.5496 28.012 19.6883C27.9119 19.4175 27.6983 19.2039 27.4275 19.1038C26.5662 18.785 26.5662 17.5666 27.4275 17.2479C27.6983 17.1478 27.9119 16.9342 28.012 16.6633Z" fill="#8839EF"/>
</svg>
