<svg width="33" height="33" viewBox="0 0 33 33" fill="none" xmlns="http://www.w3.org/2000/svg">
<g clip-path="url(#clip0_2_1113)">
<path fill-rule="evenodd" clip-rule="evenodd" d="M6.69993 5.68018C4.47975 5.68018 2.67993 7.48 2.67993 9.70018V23.1002C2.67993 25.3204 4.47975 27.1202 6.69993 27.1202H18.7599V24.4402H6.69993C5.95988 24.4402 5.35993 23.8403 5.35993 23.1002V9.70018C5.35993 8.96012 5.95988 8.36018 6.69993 8.36018H10.4303C10.7406 8.36018 11.0412 8.46782 11.2809 8.66472L14.4879 11.299C15.2071 11.8898 16.1089 12.2127 17.0395 12.2127H25.4599C26.2 12.2127 26.7999 12.8126 26.7999 13.5527V13.7202H29.4799V13.5527C29.4799 11.3325 27.6802 9.53268 25.4599 9.53268H17.0395C16.7293 9.53268 16.4287 9.42503 16.189 9.22813L12.982 6.59381C12.2628 6.00309 11.361 5.68018 10.4303 5.68018H6.69993Z" fill="#6C7086"/>
<path d="M26.7999 27.1201C29.7602 27.1201 32.1599 24.7204 32.1599 21.7601C32.1599 18.7999 29.7602 16.4001 26.7999 16.4001C23.8397 16.4001 21.4399 18.7999 21.4399 21.7601C21.4399 24.7204 23.8397 27.1201 26.7999 27.1201Z" fill="#40a02b"/>
</g>
<defs>
<clipPath id="clip0_2_1113">
<rect width="32.16" height="32.16" fill="white" transform="translate(0 0.320068)"/>
</clipPath>
</defs>
</svg>
