<svg width="33" height="33" viewBox="0 0 33 33" fill="none" xmlns="http://www.w3.org/2000/svg">
<path d="M28.122 22.4517C28.5424 22.4082 28.8612 22.0459 28.8467 21.611C28.8322 21.1762 28.4699 20.8282 28.0351 20.8282H28.0061C27.5567 20.8428 27.2088 21.2196 27.2234 21.6689C27.2379 21.8864 27.3249 22.0748 27.4553 22.2053C26.9625 23.1764 26.2088 23.8866 25.0782 24.4809C24.31 24.8868 23.5129 25.0318 22.7157 24.9303C22.0635 24.8434 21.5562 24.5534 21.2373 24.075C20.7735 23.3648 20.7299 22.5966 21.1214 21.8284C21.3967 21.2776 21.8316 20.8717 22.1069 20.6687C22.0489 20.4803 21.9619 20.1615 21.9185 19.9296C19.8169 21.4516 20.0342 23.5098 20.6721 24.4809C21.1503 25.2057 22.1214 25.655 23.1941 25.655C23.4839 25.655 23.7737 25.6261 24.0636 25.5536C25.919 25.1912 27.3249 24.0896 28.122 22.4517ZM30.673 20.6544C29.5715 19.3642 27.9481 18.654 26.0929 18.654H25.8609C25.7306 18.3931 25.455 18.2192 25.1507 18.2192H25.1217C24.6725 18.2337 24.3246 18.6105 24.3391 19.0599C24.3536 19.4948 24.7159 19.8426 25.1507 19.8426H25.1797C25.4986 19.8282 25.774 19.6251 25.8899 19.3498H26.1508C27.2524 19.3498 28.296 19.6687 29.2381 20.2919C29.9628 20.7703 30.4846 21.3935 30.7744 22.1473C31.0209 22.7561 31.0064 23.3503 30.7455 23.8577C30.3396 24.6259 29.6585 25.0462 28.7598 25.0462C28.1801 25.0462 27.6292 24.8723 27.3394 24.7418C27.1799 24.8868 26.8901 25.1187 26.687 25.2637C27.3104 25.5536 27.9481 25.713 28.5569 25.713C29.9483 25.713 30.9775 24.9448 31.3687 24.1766C31.7891 23.3359 31.7601 21.8864 30.673 20.6544ZM23.31 22.698C23.3244 23.1329 23.6868 23.4807 24.1216 23.4807H24.1507C24.6 23.4663 24.9479 23.0894 24.9332 22.64C24.9188 22.2052 24.5564 21.8573 24.1216 21.8573H24.0927C24.0636 21.8573 24.0202 21.8573 23.9912 21.8718C23.3969 20.8862 23.1505 19.8137 23.2375 18.654C23.2955 17.7844 23.5853 17.0306 24.0927 16.4073C24.513 15.871 25.3247 15.6101 25.8754 15.5956C27.4118 15.5666 28.064 17.4799 28.1076 18.2482C28.296 18.2916 28.6149 18.3931 28.8322 18.4656C28.6583 16.1174 27.2088 14.8999 25.8175 14.8999C24.513 14.8999 23.31 15.8421 22.8316 17.2335C22.1649 19.0889 22.5998 20.8717 23.4114 22.2777C23.3389 22.3791 23.2955 22.5386 23.31 22.698Z" fill="#df8e1d" stroke="#df8e1d" stroke-width="0.25"/>
<path fill-rule="evenodd" clip-rule="evenodd" d="M7.49998 5.52002C5.2798 5.52002 3.47998 7.31984 3.47998 9.54002V22.94C3.47998 25.1603 5.2798 26.96 7.49998 26.96H18.22V24.28H7.49998C6.75993 24.28 6.15998 23.6801 6.15998 22.94V9.54002C6.15998 8.79996 6.75993 8.20002 7.49998 8.20002H11.2304C11.5406 8.20002 11.8412 8.30766 12.0809 8.50456L15.2879 11.1389C16.0071 11.7296 16.9089 12.0525 17.8396 12.0525H26.26C27.0001 12.0525 27.6 12.6525 27.6 13.3925V13.56H30.28V13.3925C30.28 11.1723 28.4802 9.37252 26.26 9.37252H17.8396C17.5293 9.37252 17.2288 9.26488 16.9891 9.06798L13.782 6.43366C13.0629 5.84293 12.1611 5.52002 11.2304 5.52002H7.49998Z" fill="#6C7086"/>
</svg>
