<svg width="33" height="33" viewBox="0 0 33 33" fill="none" xmlns="http://www.w3.org/2000/svg">
<g clip-path="url(#clip0_2_1048)">
<path fill-rule="evenodd" clip-rule="evenodd" d="M6.82005 5.36011C4.59987 5.36011 2.80005 7.15993 2.80005 9.38011V22.7801C2.80005 25.0004 4.59987 26.8001 6.82005 26.8001H18.88V24.1201H6.82005C6.07999 24.1201 5.48005 23.5202 5.48005 22.7801V9.38011C5.48005 8.64005 6.07999 8.04011 6.82005 8.04011H10.5504C10.8607 8.04011 11.1613 8.14775 11.401 8.34465L14.608 10.979C15.3272 11.5697 16.229 11.8926 17.1596 11.8926H25.58C26.3201 11.8926 26.92 12.4926 26.92 13.2326V13.4001H29.6V13.2326C29.6 11.0124 27.8003 9.21261 25.58 9.21261H17.1596C16.8494 9.21261 16.5489 9.10496 16.3091 8.90807L13.1021 6.27375C12.383 5.68302 11.4811 5.36011 10.5504 5.36011H6.82005Z" fill="#6C7086"/>
<path d="M26.9201 26.8001C29.8803 26.8001 32.2801 24.4003 32.2801 21.4401C32.2801 18.4798 29.8803 16.0801 26.9201 16.0801C23.9598 16.0801 21.5601 18.4798 21.5601 21.4401C21.5601 24.4003 23.9598 26.8001 26.9201 26.8001Z" fill="#1e66f5"/>
</g>
<defs>
<clipPath id="clip0_2_1048">
<rect width="32.16" height="32.16" fill="white" transform="translate(0.120117)"/>
</clipPath>
</defs>
</svg>
