<svg width="34" height="33" viewBox="0 0 34 33" fill="none" xmlns="http://www.w3.org/2000/svg">
<path fill-rule="evenodd" clip-rule="evenodd" d="M7.65989 5.84009C5.43971 5.84009 3.63989 7.63991 3.63989 9.86009V23.2601C3.63989 25.4803 5.43971 27.2801 7.65989 27.2801H17.0399V24.6001H7.65989C6.91984 24.6001 6.31989 24.0002 6.31989 23.2601V9.86009C6.31989 9.12003 6.91984 8.52009 7.65989 8.52009H11.3903C11.7005 8.52009 12.0011 8.62773 12.2408 8.82463L15.4478 11.4589C16.167 12.0497 17.0688 12.3726 17.9995 12.3726H26.4199C27.16 12.3726 27.7599 12.9725 27.7599 13.7126V13.8801H30.4399V13.7126C30.4399 11.4924 28.6401 9.69259 26.4199 9.69259H17.9995C17.6893 9.69259 17.3887 9.58495 17.149 9.38805L13.9419 6.75373C13.2228 6.163 12.321 5.84009 11.3903 5.84009H7.65989Z" fill="#6C7086"/>
<path d="M22.5216 18.5251L19.9827 21.064L22.5216 23.6031" stroke="#df8e1d" stroke-width="1.25" stroke-linecap="round" stroke-linejoin="round"/>
<path d="M29.5391 18.5251L32.078 21.064L29.5391 23.6031" stroke="#df8e1d" stroke-width="1.25" stroke-linecap="round" stroke-linejoin="round"/>
<path d="M24.1965 25.2957L27.864 16.8325" stroke="#df8e1d" stroke-width="1.25" stroke-linecap="round" stroke-linejoin="round"/>
</svg>
