<svg width="33" height="33" viewBox="0 0 33 33" fill="none" xmlns="http://www.w3.org/2000/svg">
<g clip-path="url(#clip0_2_1151)">
<path d="M25.8473 16.4001C25.0836 16.4001 24.4648 17.019 24.4648 17.7828V18.6122H22.2528C21.6416 18.6122 21.1467 19.1072 21.1467 19.7183V21.3773C21.1467 21.6826 21.3945 21.9303 21.6997 21.9303H21.8974C22.6207 21.9303 23.2788 22.4508 23.3512 23.1704C23.4341 23.9982 22.787 24.6954 21.9762 24.6954H21.6997C21.3945 24.6954 21.1467 24.9432 21.1467 25.2484V26.9075C21.1467 27.5187 21.6416 28.0135 22.2528 28.0135H23.9118C24.2171 28.0135 24.4648 27.7658 24.4648 27.4605V27.2629C24.4648 26.5395 24.9853 25.8815 25.7047 25.8091C26.5327 25.7261 27.2299 26.3732 27.2299 27.1841V27.4605C27.2299 27.7658 27.4777 28.0135 27.7829 28.0135H29.442C30.053 28.0135 30.548 27.5187 30.548 26.9075V24.6954H31.3775C32.1413 24.6954 32.7601 24.0766 32.7601 23.3129C32.7601 22.5491 32.1413 21.9303 31.3775 21.9303H30.548V19.7183C30.548 19.1072 30.053 18.6122 29.442 18.6122H27.2299V17.7828C27.2299 17.019 26.6111 16.4001 25.8473 16.4001Z" fill="#04a5e5"/>
<path fill-rule="evenodd" clip-rule="evenodd" d="M7.30003 5.68018C5.07985 5.68018 3.28003 7.48 3.28003 9.70018V23.1002C3.28003 25.3204 5.07985 27.1202 7.30003 27.1202H18.02V24.4402H7.30003C6.55997 24.4402 5.96003 23.8403 5.96003 23.1002V9.70018C5.96003 8.96012 6.55997 8.36018 7.30003 8.36018H11.0304C11.3407 8.36018 11.6413 8.46782 11.881 8.66472L15.088 11.299C15.8072 11.8898 16.709 12.2127 17.6396 12.2127H26.06C26.8001 12.2127 27.4 12.8126 27.4 13.5527V13.7202H30.08V13.5527C30.08 11.3325 28.2803 9.53268 26.06 9.53268H17.6396C17.3294 9.53268 17.0288 9.42503 16.7891 9.22813L13.5821 6.59381C12.8629 6.00309 11.9611 5.68018 11.0304 5.68018H7.30003Z" fill="#6C7086"/>
</g>
<defs>
<clipPath id="clip0_2_1151">
<rect width="32.16" height="32.16" fill="white" transform="translate(0.600098 0.320068)"/>
</clipPath>
</defs>
</svg>
