<svg width="33" height="33" viewBox="0 0 33 33" fill="none" xmlns="http://www.w3.org/2000/svg">
<path d="M27.9619 22.9317C28.3823 22.8882 28.701 22.5258 28.6866 22.091C28.6721 21.6562 28.3098 21.3082 27.8749 21.3082H27.846C27.3965 21.3228 27.0487 21.6996 27.0633 22.1489C27.0778 22.3664 27.1647 22.5548 27.2951 22.6853C26.8024 23.6564 26.0486 24.3666 24.9181 24.9609C24.1499 25.3668 23.3527 25.5118 22.5555 25.4103C21.9033 25.3234 21.396 25.0334 21.0771 24.555C20.6133 23.8448 20.5698 23.0766 20.9612 22.3084C21.2366 21.7576 21.6714 21.3517 21.9468 21.1487C21.8887 20.9603 21.8018 20.6415 21.7584 20.4096C19.6567 21.9315 19.8741 23.9898 20.5119 24.9609C20.9901 25.6857 21.9612 26.135 23.0339 26.135C23.3238 26.135 23.6136 26.106 23.9034 26.0336C25.7588 25.6712 27.1647 24.5696 27.9619 22.9317ZM30.5129 21.1344C29.4114 19.8442 27.788 19.134 25.9327 19.134H25.7008C25.5704 18.8731 25.2949 18.6992 24.9906 18.6992H24.9615C24.5123 18.7137 24.1645 19.0905 24.1789 19.5399C24.1934 19.9747 24.5557 20.3226 24.9906 20.3226H25.0195C25.3384 20.3081 25.6138 20.1051 25.7297 19.8298H25.9906C27.0922 19.8298 28.1358 20.1487 29.078 20.7719C29.8026 21.2503 30.3244 21.8735 30.6143 22.6273C30.8607 23.236 30.8462 23.8303 30.5853 24.3376C30.1795 25.1059 29.4983 25.5262 28.5996 25.5262C28.0199 25.5262 27.469 25.3523 27.1792 25.2218C27.0197 25.3668 26.7299 25.5987 26.5269 25.7437C27.1503 26.0336 27.788 26.193 28.3967 26.193C29.7882 26.193 30.8173 25.4248 31.2086 24.6566C31.6289 23.8159 31.6 22.3664 30.5129 21.1344ZM23.1498 23.178C23.1643 23.6128 23.5266 23.9607 23.9615 23.9607H23.9905C24.4398 23.9462 24.7877 23.5694 24.7731 23.12C24.7586 22.6852 24.3963 22.3373 23.9615 22.3373H23.9325C23.9034 22.3373 23.86 22.3373 23.8311 22.3518C23.2368 21.3662 22.9904 20.2937 23.0773 19.134C23.1353 18.2644 23.4252 17.5106 23.9325 16.8872C24.3529 16.351 25.1645 16.0901 25.7152 16.0756C27.2517 16.0465 27.9039 17.9599 27.9474 18.7281C28.1358 18.7716 28.4547 18.8731 28.6721 18.9456C28.4982 16.5974 27.0487 15.3799 25.6574 15.3799C24.3529 15.3799 23.1498 16.322 22.6714 17.7135C22.0048 19.5689 22.4396 21.3517 23.2513 22.7577C23.1788 22.8591 23.1353 23.0186 23.1498 23.178Z" fill="#fe640b" stroke="#fe640b" stroke-width="0.25"/>
<path fill-rule="evenodd" clip-rule="evenodd" d="M7.33982 6C5.11965 6 3.31982 7.79982 3.31982 10.02V23.42C3.31982 25.6402 5.11965 27.44 7.33982 27.44H18.0598V24.76H7.33982C6.59977 24.76 5.99982 24.1601 5.99982 23.42V10.02C5.99982 9.27994 6.59977 8.68 7.33982 8.68H11.0702C11.3804 8.68 11.6811 8.78764 11.9208 8.98454L15.1278 11.6189C15.8469 12.2096 16.7488 12.5325 17.6794 12.5325H26.0998C26.8399 12.5325 27.4398 13.1324 27.4398 13.8725V14.04H30.1198V13.8725C30.1198 11.6523 28.3201 9.8525 26.0998 9.8525H17.6794C17.3692 9.8525 17.0686 9.74486 16.8289 9.54796L13.6219 6.91364C12.9027 6.32291 12.0009 6 11.0702 6H7.33982Z" fill="#6C7086"/>
</svg>
