<svg width="33" height="33" viewBox="0 0 33 33" fill="none" xmlns="http://www.w3.org/2000/svg">
<g clip-path="url(#clip0_2_1215)">
<path d="M19.5601 20.2375V16.72H23.0776M27.7676 16.72H31.2851V20.2375" stroke="#40a02b" stroke-width="1.7" stroke-linecap="round" stroke-linejoin="round"/>
<path d="M19.5601 16.72L24.7354 21.8953C25.1753 22.3351 25.4224 22.9314 25.4226 23.5533M25.4226 23.5533V27.44M25.4226 23.5533C25.4227 22.9314 25.6698 22.3351 26.1096 21.8953L31.2851 16.72" stroke="#40a02b" stroke-width="1.7" stroke-linecap="round" stroke-linejoin="round"/>
<path fill-rule="evenodd" clip-rule="evenodd" d="M7.49998 6C5.2798 6 3.47998 7.79982 3.47998 10.02V23.42C3.47998 25.6402 5.2798 27.44 7.49998 27.44H18.22V24.76H7.49998C6.75993 24.76 6.15998 24.1601 6.15998 23.42V10.02C6.15998 9.27994 6.75993 8.68 7.49998 8.68H11.2304C11.5406 8.68 11.8412 8.78764 12.0809 8.98454L15.2879 11.6189C16.0071 12.2096 16.9089 12.5325 17.8396 12.5325H26.26C27.0001 12.5325 27.6 13.1324 27.6 13.8725V14.04H30.28V13.8725C30.28 11.6523 28.4802 9.8525 26.26 9.8525H17.8396C17.5293 9.8525 17.2288 9.74486 16.9891 9.54796L13.782 6.91364C13.0629 6.32291 12.1611 6 11.2304 6H7.49998Z" fill="#6C7086"/>
</g>
<defs>
<clipPath id="clip0_2_1215">
<rect width="32.16" height="32.16" fill="white" transform="translate(0.800049 0.639893)"/>
</clipPath>
</defs>
</svg>
