<svg width="33" height="33" viewBox="0 0 33 33" fill="none" xmlns="http://www.w3.org/2000/svg">
<g clip-path="url(#clip0_2_1032)">
<path d="M32.64 17.1974L32.1561 25.0934L27.5299 14.74L32.64 17.1974ZM29.4356 27.4073L25.94 29.48L22.4443 27.4073L23.1553 25.6166H28.7246L29.4356 27.4073ZM25.94 18.6699L27.7718 23.2976H24.1082L25.94 18.6699ZM19.7189 25.0934L19.24 17.1974L24.3501 14.74L19.7189 25.0934Z" fill="#d20f39"/>
<path fill-rule="evenodd" clip-rule="evenodd" d="M7.17991 5.36011C4.95973 5.36011 3.15991 7.15993 3.15991 9.38011V22.7801C3.15991 25.0004 4.95973 26.8001 7.17991 26.8001H17.8999V24.1201H7.17991C6.43986 24.1201 5.83991 23.5202 5.83991 22.7801V9.38011C5.83991 8.64005 6.43986 8.04011 7.17991 8.04011H10.9103C11.2205 8.04011 11.5212 8.14775 11.7609 8.34465L14.9679 10.979C15.687 11.5697 16.5889 11.8926 17.5195 11.8926H25.9399C26.68 11.8926 27.2799 12.4926 27.2799 13.2326V13.4001H29.9599V13.2326C29.9599 11.0124 28.1602 9.21261 25.9399 9.21261H17.5195C17.2093 9.21261 16.9087 9.10496 16.669 8.90807L13.462 6.27375C12.7428 5.68302 11.841 5.36011 10.9103 5.36011H7.17991Z" fill="#6C7086"/>
</g>
<defs>
<clipPath id="clip0_2_1032">
<rect width="32.16" height="32.16" fill="white" transform="translate(0.47998)"/>
</clipPath>
</defs>
</svg>
