<svg width="34" height="33" viewBox="0 0 34 33" fill="none" xmlns="http://www.w3.org/2000/svg">
<path fill-rule="evenodd" clip-rule="evenodd" d="M21.9534 20.707H29.3979C30.6314 20.707 31.6313 21.7069 31.6313 22.9404V26.6627C31.6313 27.8961 30.6314 28.896 29.3979 28.896H21.9534C20.7199 28.896 19.72 27.8961 19.72 26.6627V22.9404C19.72 21.7069 20.7199 20.707 21.9534 20.707ZM21.9534 22.1959C21.5423 22.1959 21.2089 22.5293 21.2089 22.9404V26.6627C21.2089 27.0739 21.5423 27.4072 21.9534 27.4072H29.3979C29.8092 27.4072 30.1424 27.0739 30.1424 26.6627V22.9404C30.1424 22.5293 29.8092 22.1959 29.3979 22.1959H21.9534Z" fill="#6C6F85"/>
<path fill-rule="evenodd" clip-rule="evenodd" d="M28.8536 16.9339C28.1729 15.9514 26.9268 15.5518 25.9386 15.5018C24.8958 15.449 23.5559 15.7517 22.6868 16.8665C22.3184 17.3391 22.1634 17.9142 22.0835 18.3455C21.9966 18.8149 21.9624 19.3284 21.955 19.8252C21.9505 20.1305 21.9559 20.4449 21.9685 20.7594C21.9841 21.1494 22.3096 21.4513 22.6998 21.4513V21.4513C23.1317 21.4513 23.4706 21.0843 23.4544 20.6527C23.4085 19.4313 23.4833 18.2666 23.861 17.7819C24.8033 16.5733 27.0017 16.8754 27.6299 17.7819C27.8917 18.1597 27.9352 19.3775 27.897 20.6693C27.8844 21.0947 28.222 21.4513 28.6477 21.4513V21.4513C29.0443 21.4513 29.3723 21.14 29.3844 20.7435C29.3955 20.379 29.4006 20.0167 29.3967 19.6723C29.3913 19.2001 29.369 18.7261 29.3136 18.3106C29.2693 17.9776 29.1741 17.3963 28.8536 16.9339Z" fill="#6C6F85"/>
<path d="M17.5001 26.2158H6.70008C5.21996 26.2158 4.02008 25.016 4.02008 23.5358V10.1358C4.02008 8.65569 5.21996 7.45581 6.70008 7.45581H10.4305C11.0509 7.45581 11.6522 7.67108 12.1316 8.06491L15.3385 10.6992C15.818 11.093 16.4192 11.3083 17.0397 11.3083H25.4601C26.9402 11.3083 28.1401 12.5082 28.1401 13.9883" stroke="#5C5F77" stroke-width="2" stroke-linecap="round"/>
</svg>
