<svg width="33" height="33" viewBox="0 0 33 33" fill="none" xmlns="http://www.w3.org/2000/svg">
<path d="M17.0396 26.2158H6.70002C5.2199 26.2158 4.02002 25.016 4.02002 23.5358V10.1358C4.02002 8.65569 5.2199 7.45581 6.70002 7.45581H10.4304C11.0509 7.45581 11.6521 7.67108 12.1315 8.06491L15.3385 10.6992C15.8179 11.093 16.4192 11.3083 17.0396 11.3083H25.46C26.9402 11.3083 28.14 12.5082 28.14 13.9883" stroke="#5C5F77" stroke-width="2" stroke-linecap="round"/>
<path fill-rule="evenodd" clip-rule="evenodd" d="M22.08 16.8359C21.3399 16.8359 20.74 17.4359 20.74 18.1759V20.2604C20.74 21.0004 21.3399 21.6004 22.08 21.6004H24.1645C24.9044 21.6004 25.5045 21.0004 25.5045 20.2604V18.1759C25.5045 17.4359 24.9044 16.8359 24.1645 16.8359H22.08ZM22.08 22.7914C21.3399 22.7914 20.74 23.3915 20.74 24.1314V26.2159C20.74 26.956 21.3399 27.5559 22.08 27.5559H24.1645C24.9044 27.5559 25.5045 26.956 25.5045 26.2159V24.1314C25.5045 23.3915 24.9044 22.7914 24.1645 22.7914H22.08ZM26.6955 18.1759C26.6955 17.4359 27.2955 16.8359 28.0355 16.8359H30.12C30.8601 16.8359 31.46 17.4359 31.46 18.1759V20.2604C31.46 21.0004 30.8601 21.6004 30.12 21.6004H28.0355C27.2955 21.6004 26.6955 21.0004 26.6955 20.2604V18.1759ZM28.0355 22.7914C27.2955 22.7914 26.6955 23.3915 26.6955 24.1314V26.2159C26.6955 26.956 27.2955 27.5559 28.0355 27.5559H30.12C30.8601 27.5559 31.46 26.956 31.46 26.2159V24.1314C31.46 23.3915 30.8601 22.7914 30.12 22.7914H28.0355Z" fill="#D20F39"/>
</svg>
