<svg width="33" height="33" viewBox="0 0 33 33" fill="none" xmlns="http://www.w3.org/2000/svg">
<path d="M26.9076 23.9976C27.3195 23.4425 28.1362 23.0052 28.2033 22.3172C28.2069 22.2811 28.2081 22.2443 28.2068 22.207C28.1924 21.7721 27.83 21.4241 27.3952 21.4241H27.3662C26.9168 21.4387 26.5689 21.8156 26.5836 22.2649V22.2649C26.6072 22.6202 26.7126 23.0207 26.5134 23.3158C26.0299 24.0319 25.3591 24.5928 24.4383 25.0768C23.6701 25.4827 22.873 25.6277 22.0758 25.5263C21.4236 25.4393 20.9163 25.1493 20.5974 24.671C20.1336 23.9608 20.09 23.1925 20.4815 22.4243C20.701 21.9852 21.022 21.6381 21.2826 21.4126C21.3898 21.3199 21.4448 21.1949 21.4069 21.0583V21.0583C21.3414 20.8226 21.0502 20.6926 20.8675 20.8554C19.2098 22.3327 19.4394 24.1743 20.0322 25.0768C20.5104 25.8017 21.4815 26.251 22.5542 26.251C22.844 26.251 23.1339 26.222 23.4237 26.1495C24.8934 25.8625 26.0811 25.1116 26.9076 23.9976ZM30.0331 21.2503C28.9316 19.9602 27.3082 19.25 25.453 19.25V19.25C25.3108 19.25 25.1861 19.1638 25.0877 19.0612C24.9414 18.9086 24.7339 18.8152 24.5108 18.8152H24.4818C24.0326 18.8296 23.6847 19.2064 23.6992 19.6559C23.7137 20.0907 24.076 20.4386 24.5108 20.4386H24.5398C24.7658 20.4283 24.9699 20.3234 25.1109 20.1651C25.2161 20.0471 25.3528 19.9457 25.5109 19.9457V19.9457C26.6125 19.9457 27.6561 20.2646 28.5982 20.8879C29.3229 21.3663 29.8447 21.9895 30.1346 22.7432C30.381 23.352 30.3665 23.9463 30.1056 24.4536C29.6997 25.2218 29.0186 25.6422 28.1199 25.6422C27.6616 25.6422 27.2214 25.5335 26.9139 25.4235C26.7818 25.3762 26.6495 25.3843 26.5418 25.4743V25.4743C26.3347 25.6475 26.3523 25.9983 26.6084 26.0837C27.0489 26.2306 27.4901 26.309 27.917 26.309C29.3084 26.309 30.3376 25.5408 30.7288 24.7725C31.1492 23.9318 31.1203 22.4823 30.0331 21.2503ZM22.6701 23.294C22.6846 23.7288 23.0469 24.0767 23.4817 24.0767H23.5108C23.9601 24.0622 24.308 23.6854 24.2934 23.236C24.2789 22.8011 23.9165 22.4533 23.4817 22.4533H23.4528V22.4533C23.3944 22.4533 23.328 22.4293 23.2988 22.3788C22.7426 21.4177 22.5132 20.3748 22.5976 19.25C22.6556 18.3803 22.9455 17.6266 23.4528 17.0032C23.8731 16.4669 24.6848 16.206 25.2355 16.1916C26.6245 16.1653 27.2908 17.7264 27.4381 18.594C27.4631 18.7413 27.5474 18.862 27.6909 18.9037V18.9037C27.9213 18.9706 28.172 18.7967 28.1335 18.5599C27.8047 16.5402 26.4662 15.4958 25.1776 15.4958C23.8731 15.4958 22.6701 16.438 22.1917 17.8295C21.585 19.5181 21.8906 21.1466 22.5623 22.4856C22.6827 22.7256 22.6458 23.0266 22.6701 23.294V23.294Z" fill="#8839EF" stroke="#8839EF" stroke-width="0.25"/>
<path d="M17.0396 26.2158H6.70002C5.2199 26.2158 4.02002 25.016 4.02002 23.5358V10.1358C4.02002 8.65569 5.2199 7.45581 6.70002 7.45581H10.4304C11.0509 7.45581 11.6521 7.67108 12.1315 8.06491L15.3385 10.6992C15.8179 11.093 16.4192 11.3083 17.0396 11.3083H25.46C26.9402 11.3083 28.14 12.5082 28.14 13.9883" stroke="#5C5F77" stroke-width="2" stroke-linecap="round"/>
</svg>
