<svg width="33" height="33" viewBox="0 0 33 33" fill="none" xmlns="http://www.w3.org/2000/svg">
<g clip-path="url(#clip0_2_1233)">
<path fill-rule="evenodd" clip-rule="evenodd" d="M7.30003 6C5.07985 6 3.28003 7.79982 3.28003 10.02V23.42C3.28003 25.6402 5.07985 27.44 7.30003 27.44H19.36V24.76H7.30003C6.55997 24.76 5.96003 24.1601 5.96003 23.42V10.02C5.96003 9.27994 6.55997 8.68 7.30003 8.68H11.0304C11.3407 8.68 11.6413 8.78764 11.881 8.98454L15.088 11.6189C15.8072 12.2096 16.709 12.5325 17.6396 12.5325H26.06C26.8001 12.5325 27.4 13.1324 27.4 13.8725V14.04H30.08V13.8725C30.08 11.6523 28.2803 9.8525 26.06 9.8525H17.6396C17.3294 9.8525 17.0288 9.74486 16.7891 9.54796L13.5821 6.91364C12.8629 6.32291 11.9611 6 11.0304 6H7.30003Z" fill="#6C7086"/>
<path d="M27.4001 26.0998C29.6203 26.0998 31.4201 24.3 31.4201 22.0798C31.4201 19.8596 29.6203 18.0598 27.4001 18.0598C25.1799 18.0598 23.3801 19.8596 23.3801 22.0798C23.3801 24.3 25.1799 26.0998 27.4001 26.0998Z" stroke="#04a5e5" stroke-width="2"/>
</g>
<defs>
<clipPath id="clip0_2_1233">
<rect width="32.16" height="32.16" fill="white" transform="translate(0.600098 0.639893)"/>
</clipPath>
</defs>
</svg>
