<svg width="33" height="33" viewBox="0 0 33 33" fill="none" xmlns="http://www.w3.org/2000/svg">
<path d="M17.9999 25.2158H5.67994C4.19982 25.2158 2.99994 24.016 2.99994 22.5358V9.13581C2.99994 7.65569 4.19982 6.45581 5.67994 6.45581H9.41034C10.0308 6.45581 10.632 6.67108 11.1114 7.06491L14.3184 9.69921C14.7978 10.093 15.3991 10.3083 16.0195 10.3083H24.4399C25.9201 10.3083 27.1199 11.5082 27.1199 12.9883" stroke="#5C5F77" stroke-width="2" stroke-linecap="round"/>
<path d="M29.454 17.8462C31.0359 18.0655 30.5167 19.9838 30.2615 21.5603C30.2341 21.7299 30.2189 21.9096 30.2189 22.0999C30.2189 22.663 30.3455 23.1329 30.5349 23.5208C31.1247 24.7283 31.9492 26.089 31.1893 27.1974V27.1974C30.5552 28.1099 29.893 29.021 28.8857 29.021C27.8783 29.021 27.6192 28.4358 26.4562 28.4358C25.3229 28.4358 24.92 29.0403 23.9986 29.0403C23.0772 29.0403 22.4343 28.1958 21.695 27.1589C20.8388 25.9411 20.1469 24.0494 20.1469 22.254C20.1469 19.3742 22.0194 17.8469 23.8623 17.8469C24.8415 17.8469 25.6578 18.4898 26.2726 18.4898C26.8576 18.4898 27.7702 17.8084 28.8842 17.8084C29.0014 17.8084 29.2028 17.8114 29.454 17.8462ZM28.3553 16.5891C28.816 16.0425 29.1419 15.2841 29.1419 14.5255V14.5255C29.1419 14.3519 28.9872 14.2301 28.8162 14.2604C28.139 14.3806 27.4027 14.8079 26.9347 15.3507C26.5124 15.8307 26.1185 16.5891 26.1185 17.358C26.1185 17.3807 26.1192 17.4034 26.1205 17.4255C26.1275 17.5485 26.2248 17.6453 26.348 17.6453V17.6453C27.0206 17.6453 27.8665 17.1951 28.3553 16.5891Z" fill="#6C6F85"/>
</svg>
