<svg width="33" height="33" viewBox="0 0 33 33" fill="none" xmlns="http://www.w3.org/2000/svg">
<path d="M27.9619 23.7918C28.3823 23.7483 28.701 23.3859 28.6866 22.9511C28.6721 22.5163 28.3098 22.1683 27.8749 22.1683H27.846C27.3965 22.1829 27.0487 22.5597 27.0633 23.009C27.0778 23.2265 27.1647 23.4149 27.2951 23.5454C26.8024 24.5165 26.0486 25.2267 24.9181 25.821C24.1499 26.2269 23.3527 26.3719 22.5555 26.2704C21.9033 26.1835 21.396 25.8935 21.0771 25.4151C20.6133 24.7049 20.5698 23.9367 20.9612 23.1685C21.2366 22.6177 21.6714 22.2118 21.9468 22.0088C21.8887 21.8204 21.8018 21.5016 21.7584 21.2697C19.6567 22.7917 19.8741 24.8499 20.5119 25.821C20.9901 26.5458 21.9612 26.9951 23.0339 26.9951C23.3238 26.9951 23.6136 26.9662 23.9034 26.8937C25.7588 26.5313 27.1647 25.4297 27.9619 23.7918ZM30.5129 21.9945C29.4114 20.7043 27.788 19.9941 25.9327 19.9941H25.7008C25.5704 19.7332 25.2949 19.5593 24.9906 19.5593H24.9615C24.5123 19.5738 24.1645 19.9506 24.1789 20.4C24.1934 20.8348 24.5557 21.1827 24.9906 21.1827H25.0195C25.3384 21.1682 25.6138 20.9652 25.7297 20.6899H25.9906C27.0922 20.6899 28.1358 21.0088 29.078 21.632C29.8026 22.1104 30.3244 22.7336 30.6143 23.4874C30.8607 24.0961 30.8462 24.6904 30.5853 25.1978C30.1795 25.966 29.4983 26.3863 28.5996 26.3863C28.0199 26.3863 27.469 26.2124 27.1792 26.0819C27.0197 26.2269 26.7299 26.4588 26.5269 26.6038C27.1503 26.8937 27.788 27.0531 28.3967 27.0531C29.7882 27.0531 30.8173 26.2849 31.2086 25.5167C31.6289 24.676 31.6 23.2265 30.5129 21.9945ZM23.1498 24.0381C23.1643 24.4729 23.5266 24.8208 23.9615 24.8208H23.9905C24.4398 24.8063 24.7877 24.4295 24.7731 23.9801C24.7586 23.5453 24.3963 23.1974 23.9615 23.1974H23.9325C23.9034 23.1974 23.86 23.1974 23.8311 23.2119C23.2368 22.2263 22.9904 21.1538 23.0773 19.9941C23.1353 19.1245 23.4252 18.3707 23.9325 17.7474C24.3529 17.2111 25.1645 16.9502 25.7152 16.9357C27.2517 16.9066 27.9039 18.82 27.9474 19.5882C28.1358 19.6317 28.4547 19.7332 28.6721 19.8057C28.4982 17.4575 27.0487 16.24 25.6574 16.24C24.3529 16.24 23.1498 17.1821 22.6714 18.5736C22.0048 20.429 22.4396 22.2118 23.2513 23.6178C23.1788 23.7192 23.1353 23.8787 23.1498 24.0381Z" fill="#40a02b" stroke="#40a02b" stroke-width="0.25"/>
<path fill-rule="evenodd" clip-rule="evenodd" d="M7.33982 5.52002C5.11965 5.52002 3.31982 7.31984 3.31982 9.54002V22.94C3.31982 25.1603 5.11965 26.96 7.33982 26.96H18.0598V24.28H7.33982C6.59977 24.28 5.99982 23.6801 5.99982 22.94V9.54002C5.99982 8.79996 6.59977 8.20002 7.33982 8.20002H11.0702C11.3804 8.20002 11.6811 8.30766 11.9208 8.50456L15.1278 11.1389C15.8469 11.7296 16.7488 12.0525 17.6794 12.0525H26.0998C26.8399 12.0525 27.4398 12.6525 27.4398 13.3925V13.56H30.1198V13.3925C30.1198 11.1723 28.3201 9.37252 26.0998 9.37252H17.6794C17.3692 9.37252 17.0686 9.26488 16.8289 9.06798L13.6219 6.43366C12.9027 5.84293 12.0009 5.52002 11.0702 5.52002H7.33982Z" fill="#6C7086"/>
</svg>
