<svg width="33" height="33" viewBox="0 0 33 33" fill="none" xmlns="http://www.w3.org/2000/svg">
<g clip-path="url(#clip0_2_1201)">
<path fill-rule="evenodd" clip-rule="evenodd" d="M6.85984 6C4.63966 6 2.83984 7.79982 2.83984 10.02V23.42C2.83984 25.6402 4.63966 27.44 6.85984 27.44H18.9198V24.76H6.85984C6.11979 24.76 5.51984 24.1601 5.51984 23.42V10.02C5.51984 9.27994 6.11979 8.68 6.85984 8.68H10.5902C10.9005 8.68 11.2011 8.78764 11.4408 8.98454L14.6478 11.6189C15.367 12.2096 16.2688 12.5325 17.1994 12.5325H25.6198C26.3599 12.5325 26.9598 13.1324 26.9598 13.8725V14.04H29.6398V13.8725C29.6398 11.6523 27.8401 9.8525 25.6198 9.8525H17.1994C16.8892 9.8525 16.5886 9.74486 16.3489 9.54796L13.1419 6.91364C12.4227 6.32291 11.5209 6 10.5902 6H6.85984Z" fill="#6C7086"/>
<path d="M26.9599 27.44C29.9201 27.44 32.3199 25.0402 32.3199 22.08C32.3199 19.1197 29.9201 16.72 26.9599 16.72C23.9996 16.72 21.5999 19.1197 21.5999 22.08C21.5999 25.0402 23.9996 27.44 26.9599 27.44Z" fill="#d20f39"/>
</g>
<defs>
<clipPath id="clip0_2_1201">
<rect width="32.16" height="32.16" fill="white" transform="translate(0.159912 0.639893)"/>
</clipPath>
</defs>
</svg>
