<svg width="33" height="33" viewBox="0 0 33 33" fill="none" xmlns="http://www.w3.org/2000/svg">
<g clip-path="url(#clip0_2_1059)">
<path fill-rule="evenodd" clip-rule="evenodd" d="M7.30003 5.36011C5.07985 5.36011 3.28003 7.15993 3.28003 9.38011V22.7801C3.28003 25.0004 5.07985 26.8001 7.30003 26.8001H18.02V24.1201H7.30003C6.55997 24.1201 5.96003 23.5202 5.96003 22.7801V9.38011C5.96003 8.64005 6.55997 8.04011 7.30003 8.04011H11.0304C11.3407 8.04011 11.6413 8.14775 11.881 8.34465L15.088 10.979C15.8072 11.5697 16.709 11.8926 17.6396 11.8926H26.06C26.8001 11.8926 27.4 12.4926 27.4 13.2326V13.4001H30.08V13.2326C30.08 11.0124 28.2803 9.21261 26.06 9.21261H17.6396C17.3294 9.21261 17.0288 9.10496 16.7891 8.90807L13.5821 6.27375C12.8629 5.68302 11.9611 5.36011 11.0304 5.36011H7.30003Z" fill="#6C7086"/>
<path d="M23.0752 17.962C23.4323 19.2452 22.69 20.5791 21.4403 20.8999L20.7775 21.07C20.7266 21.4086 20.7002 21.756 20.7002 22.1101C20.7002 22.4806 20.7291 22.8436 20.7849 23.197L21.3967 23.3498C22.6589 23.6653 23.4091 25.0129 23.0417 26.3047L22.8303 27.0477C23.3286 27.5016 23.8962 27.8702 24.514 28.1323L25.0737 27.5218C25.9681 26.5459 27.4681 26.5461 28.3624 27.5223L28.9282 28.1401C29.5447 27.8808 30.112 27.5156 30.6103 27.0657L30.3857 26.2583C30.0286 24.975 30.771 23.641 32.0206 23.3204L32.6829 23.1502C32.7338 22.8116 32.7602 22.4642 32.7602 22.1101C32.7602 21.7397 32.7313 21.3766 32.6755 21.0231L32.0641 20.8703C30.8021 20.555 30.0519 19.2074 30.4193 17.9155L30.6304 17.173C30.1323 16.719 29.5646 16.3504 28.9467 16.0881L28.3874 16.6984C27.4928 17.6744 25.9928 17.674 25.0985 16.6978L24.5326 16.0801C23.9161 16.3392 23.3488 16.7042 22.8505 17.1544L23.0752 17.962ZM26.7302 23.8757C25.8219 23.8757 25.0856 23.0852 25.0856 22.1101C25.0856 21.1351 25.8219 20.3446 26.7302 20.3446C27.6384 20.3446 28.3748 21.1351 28.3748 22.1101C28.3748 23.0852 27.6384 23.8757 26.7302 23.8757Z" fill="#89DCEB"/>
</g>
<defs>
<clipPath id="clip0_2_1059">
<rect width="32.16" height="32.16" fill="white" transform="translate(0.600098)"/>
</clipPath>
</defs>
</svg>
