<svg width="39" height="37" viewBox="0 0 39 37" fill="none" xmlns="http://www.w3.org/2000/svg">
<g clip-path="url(#clip0_2_1215)" filter="url(#filter0_d_2_1215)">
<path d="M21.5601 19.9933V16.4758H25.0776M29.7676 16.4758H33.2851V19.9933" stroke="#A6E3A1" stroke-width="1.7" stroke-linecap="round" stroke-linejoin="round"/>
<path d="M21.5601 16.4758L26.7354 21.6512C27.1753 22.091 27.4224 22.6873 27.4226 23.3092M27.4226 23.3092V27.1958M27.4226 23.3092C27.4227 22.6873 27.6698 22.091 28.1096 21.6512L33.2851 16.4758" stroke="#A6E3A1" stroke-width="1.7" stroke-linecap="round" stroke-linejoin="round"/>
<path d="M20.5 25.2158H7.68C6.19988 25.2158 5 24.016 5 22.5358V9.13581C5 7.65569 6.19988 6.45581 7.68 6.45581H11.4104C12.0308 6.45581 12.6321 6.67108 13.1115 7.06491L16.3184 9.69921C16.7979 10.093 17.3992 10.3083 18.0196 10.3083H26.44C27.9202 10.3083 29.12 11.5082 29.12 12.9883" stroke="#6C7086" stroke-width="2" stroke-linecap="round"/>
</g>
<defs>
<filter id="filter0_d_2_1215" x="-1.19995" y="0.395752" width="40.16" height="40.1599" filterUnits="userSpaceOnUse" color-interpolation-filters="sRGB">
<feFlood flood-opacity="0" result="BackgroundImageFix"/>
<feColorMatrix in="SourceAlpha" type="matrix" values="0 0 0 0 0 0 0 0 0 0 0 0 0 0 0 0 0 0 127 0" result="hardAlpha"/>
<feOffset dy="4"/>
<feGaussianBlur stdDeviation="2"/>
<feComposite in2="hardAlpha" operator="out"/>
<feColorMatrix type="matrix" values="0 0 0 0 0 0 0 0 0 0 0 0 0 0 0 0 0 0 0.25 0"/>
<feBlend mode="normal" in2="BackgroundImageFix" result="effect1_dropShadow_2_1215"/>
<feBlend mode="normal" in="SourceGraphic" in2="effect1_dropShadow_2_1215" result="shape"/>
</filter>
<clipPath id="clip0_2_1215">
<rect width="32.16" height="32.16" fill="white" transform="translate(2.80005 0.395752)"/>
</clipPath>
</defs>
</svg>
