<svg width="38" height="36" viewBox="0 0 38 36" fill="none" xmlns="http://www.w3.org/2000/svg">
<g filter="url(#filter0_d_2_1250)">
<path d="M19 25.2158H7.68C6.19988 25.2158 5 24.016 5 22.5358V9.13581C5 7.65569 6.19988 6.45581 7.68 6.45581H11.4104C12.0308 6.45581 12.6321 6.67108 13.1115 7.06491L16.3184 9.69921C16.7979 10.093 17.3992 10.3083 18.0196 10.3083H24.82C26.3002 10.3083 27.5 11.5082 27.5 12.9883" stroke="#6C7086" stroke-width="2" stroke-linecap="round"/>
<path d="M28.7422 17.6186C29.5916 16.916 29.9682 12.7628 30.336 11.2699C30.4663 10.7413 30.7412 10.4094 31.0419 10.2011C31.5129 9.87493 31.8195 10.5064 31.991 11.053C32.0941 11.3813 32.5833 11.6872 32.9221 11.8649C33.1047 11.9607 33.1975 12.1774 33.1244 12.3702C33.0618 12.5353 32.8879 12.6353 32.7226 12.6974C32.5632 12.7572 32.3699 12.8898 32.2249 13.1797C31.9855 13.6582 32.2579 17.5827 32.3708 19.0647C32.3989 19.434 32.3267 19.8016 32.1675 20.136C31.6788 21.1621 30.6375 23.4817 30.6375 24.6144C30.6375 25.4057 30.8378 26.1285 31.0242 26.6299C31.1445 26.9536 30.9108 27.3352 30.5654 27.3352C30.4322 27.3352 30.3059 27.2764 30.2218 27.1731C29.8576 26.7254 28.8577 25.4589 28.617 24.7612C28.3118 23.876 27.6388 23.0012 26.7024 23.0066C26.3094 23.0089 25.888 23.0196 25.4817 23.0456C24.0919 23.1344 23.1646 24.3293 22.9974 24.9977C22.8846 25.4479 22.8163 26.3521 22.7838 26.8944C22.769 27.141 22.5656 27.3352 22.3186 27.3352C22.1189 27.3352 21.9422 27.2057 21.8773 27.0169C21.4564 25.7939 21.1499 25.2955 21.3384 24.6144C21.903 22.5723 21.7922 21.414 21.6614 20.8982C21.4658 20.1268 20.8659 19.2301 21.5852 18.8895C21.9838 18.7008 22.5503 18.6001 23.4255 18.5797C25.3294 18.5355 27.8926 18.3214 28.7422 17.6186Z" fill="#FAB387"/>
<path d="M23.7979 24.5291C23.7979 24.5291 23.9986 26.388 25.0659 27.3353H25.9804C25.0659 26.2992 24.9663 23.5989 24.9663 23.5989C24.5009 23.7504 23.8571 24.2926 23.7979 24.5291Z" fill="#F9E2AF"/>
</g>
<defs>
<filter id="filter0_d_2_1250" x="-1.52002" y="0.555908" width="40.16" height="40.1599" filterUnits="userSpaceOnUse" color-interpolation-filters="sRGB">
<feFlood flood-opacity="0" result="BackgroundImageFix"/>
<feColorMatrix in="SourceAlpha" type="matrix" values="0 0 0 0 0 0 0 0 0 0 0 0 0 0 0 0 0 0 127 0" result="hardAlpha"/>
<feOffset dy="4"/>
<feGaussianBlur stdDeviation="2"/>
<feComposite in2="hardAlpha" operator="out"/>
<feColorMatrix type="matrix" values="0 0 0 0 0 0 0 0 0 0 0 0 0 0 0 0 0 0 0.25 0"/>
<feBlend mode="normal" in2="BackgroundImageFix" result="effect1_dropShadow_2_1250"/>
<feBlend mode="normal" in="SourceGraphic" in2="effect1_dropShadow_2_1250" result="shape"/>
</filter>
</defs>
</svg>
