<svg width="37" height="35" viewBox="0 0 37 35" fill="none" xmlns="http://www.w3.org/2000/svg">
<g clip-path="url(#clip0_2_1174)" filter="url(#filter0_d_2_1174)">
<path d="M17.48 25.2158H7.68C6.19988 25.2158 5 24.016 5 22.5358V9.13581C5 7.65569 6.19988 6.45581 7.68 6.45581H11.4104C12.0308 6.45581 12.6321 6.67108 13.1115 7.06491L16.3184 9.69921C16.7979 10.093 17.3992 10.3083 18.0196 10.3083H26.44C27.9202 10.3083 29.12 11.5082 29.12 12.9883" stroke="#6C7086" stroke-width="2" stroke-linecap="round"/>
<path d="M22.3618 18.281L19.8229 20.8199L22.3618 23.3589" stroke="#7F849C" stroke-width="1.25" stroke-linecap="round" stroke-linejoin="round"/>
<path d="M29.3792 18.281L31.918 20.8199L29.3792 23.3589" stroke="#7F849C" stroke-width="1.25" stroke-linecap="round" stroke-linejoin="round"/>
<path d="M24.0367 25.0516L27.7042 16.5884" stroke="#7F849C" stroke-width="1.25" stroke-linecap="round" stroke-linejoin="round"/>
</g>
<defs>
<filter id="filter0_d_2_1174" x="-3.19995" y="0.23584" width="40.16" height="40.1599" filterUnits="userSpaceOnUse" color-interpolation-filters="sRGB">
<feFlood flood-opacity="0" result="BackgroundImageFix"/>
<feColorMatrix in="SourceAlpha" type="matrix" values="0 0 0 0 0 0 0 0 0 0 0 0 0 0 0 0 0 0 127 0" result="hardAlpha"/>
<feOffset dy="4"/>
<feGaussianBlur stdDeviation="2"/>
<feComposite in2="hardAlpha" operator="out"/>
<feColorMatrix type="matrix" values="0 0 0 0 0 0 0 0 0 0 0 0 0 0 0 0 0 0 0.25 0"/>
<feBlend mode="normal" in2="BackgroundImageFix" result="effect1_dropShadow_2_1174"/>
<feBlend mode="normal" in="SourceGraphic" in2="effect1_dropShadow_2_1174" result="shape"/>
</filter>
<clipPath id="clip0_2_1174">
<rect width="32.16" height="32.16" fill="white" transform="translate(0.800049 0.23584)"/>
</clipPath>
</defs>
</svg>
