<svg width="37" height="36" viewBox="0 0 37 36" fill="none" xmlns="http://www.w3.org/2000/svg">
<g filter="url(#filter0_d_2_1038)">
<path d="M18.0396 26.2158H7.70002C6.2199 26.2158 5.02002 25.016 5.02002 23.5358V10.1358C5.02002 8.65569 6.2199 7.45581 7.70002 7.45581H11.4304C12.0509 7.45581 12.6521 7.67108 13.1315 8.06491L16.3385 10.6992C16.8179 11.093 17.4192 11.3083 18.0396 11.3083H26.46C27.9402 11.3083 29.14 12.5082 29.14 13.9883" stroke="#6C7086" stroke-width="2" stroke-linecap="round"/>
<path d="M29.94 27.5558C31.4201 27.5558 32.62 26.3559 32.62 24.8758C32.62 23.3957 31.4201 22.1958 29.94 22.1958C28.4599 22.1958 27.26 23.3957 27.26 24.8758C27.26 26.3559 28.4599 27.5558 29.94 27.5558Z" fill="#89B4FA"/>
<path d="M24.5801 15.4958H21.9001C21.16 15.4958 20.5601 16.0958 20.5601 16.8358V19.5158C20.5601 20.2559 21.16 20.8558 21.9001 20.8558H24.5801C25.3201 20.8558 25.9201 20.2559 25.9201 19.5158V16.8358C25.9201 16.0958 25.3201 15.4958 24.5801 15.4958Z" fill="#94E2D5"/>
<path d="M22.7205 23.7659C22.9514 23.3659 23.5288 23.3659 23.7597 23.7659L25.0415 25.986C25.2724 26.386 24.9837 26.886 24.5218 26.886H21.9583C21.4964 26.886 21.2078 26.386 21.4387 25.986L22.7205 23.7659Z" fill="#74C7EC"/>
<path d="M29.0121 16.6633C29.3309 15.802 30.5493 15.802 30.868 16.6633C30.9681 16.9342 31.1817 17.1478 31.4525 17.2479C32.3139 17.5666 32.3139 18.785 31.4525 19.1038C31.1817 19.2039 30.9681 19.4175 30.868 19.6883C30.5493 20.5496 29.3309 20.5496 29.0121 19.6883C28.912 19.4175 28.6984 19.2039 28.4276 19.1038C27.5663 18.785 27.5663 17.5666 28.4276 17.2479C28.6984 17.1478 28.912 16.9342 29.0121 16.6633Z" fill="#CBA6F7"/>
</g>
<defs>
<filter id="filter0_d_2_1038" x="-2.19995" y="0.755859" width="40.16" height="40.1599" filterUnits="userSpaceOnUse" color-interpolation-filters="sRGB">
<feFlood flood-opacity="0" result="BackgroundImageFix"/>
<feColorMatrix in="SourceAlpha" type="matrix" values="0 0 0 0 0 0 0 0 0 0 0 0 0 0 0 0 0 0 127 0" result="hardAlpha"/>
<feOffset dy="4"/>
<feGaussianBlur stdDeviation="2"/>
<feComposite in2="hardAlpha" operator="out"/>
<feColorMatrix type="matrix" values="0 0 0 0 0 0 0 0 0 0 0 0 0 0 0 0 0 0 0.25 0"/>
<feBlend mode="normal" in2="BackgroundImageFix" result="effect1_dropShadow_2_1038"/>
<feBlend mode="normal" in="SourceGraphic" in2="effect1_dropShadow_2_1038" result="shape"/>
</filter>
</defs>
</svg>
