<svg width="38" height="36" viewBox="0 0 38 36" fill="none" xmlns="http://www.w3.org/2000/svg">
<g clip-path="url(#clip0_2_1028)" filter="url(#filter0_d_2_1028)">
<path fill-rule="evenodd" clip-rule="evenodd" d="M32.276 16.9838L31.5988 17.6612C31.1836 18.0765 31.2203 18.7557 31.6049 19.1996C32.6307 20.3835 33.2523 21.9268 33.2523 23.6126V24.9113C33.2523 25.3152 32.9248 25.6424 32.521 25.6424H20.6202C20.3281 25.6424 19.7565 25.6424 19.7565 24.9113V23.6128C19.7565 21.9269 20.378 20.3836 21.4039 19.1997C21.7886 18.7557 21.8253 18.0765 21.41 17.6611L20.7328 16.9838C20.4474 16.6984 20.4474 16.2354 20.7328 15.9498C21.0183 15.6642 21.4813 15.6642 21.767 15.9498L22.9099 17.0927C23.2173 17.4001 23.6857 17.4664 24.0916 17.3105C24.8412 17.0225 25.6547 16.8646 26.5043 16.8646C27.354 16.8646 28.1676 17.0225 28.9172 17.3105C29.323 17.4664 29.7914 17.4001 30.0988 17.0927L31.2417 15.9498C31.5276 15.6642 31.9904 15.6642 32.276 15.9498C32.5614 16.2354 32.5614 16.6984 32.276 16.9838ZM21.2188 23.6126V23.6126C21.2188 23.9259 21.4728 24.1799 21.7862 24.1799H31.2226C31.5359 24.1799 31.7899 23.9259 31.7899 23.6126V23.6126C31.7899 20.6981 29.4188 18.3271 26.5043 18.3271C23.5899 18.3271 21.2188 20.6981 21.2188 23.6126ZM24.5549 22.1209C24.8982 22.1209 25.1764 21.8428 25.1764 21.4995C25.1764 21.1559 24.8982 20.8777 24.5549 20.8777C24.2114 20.8777 23.9333 21.1559 23.9333 21.4995C23.9333 21.8428 24.2114 22.1209 24.5549 22.1209ZM29.1735 21.3998C29.1735 21.7434 28.895 22.0216 28.5518 22.0216C28.2085 22.0216 27.9301 21.7434 27.9301 21.3998C27.9301 21.0565 28.2085 20.7785 28.5518 20.7785C28.895 20.7785 29.1735 21.0565 29.1735 21.3998Z" fill="#A6E3A1"/>
<path d="M17 26.2158C13.0506 26.2158 11.6494 26.2158 7.70002 26.2158C6.2199 26.2158 5.02002 25.016 5.02002 23.5358V10.1358C5.02002 8.65569 6.2199 7.45581 7.70002 7.45581H11.4304C12.0509 7.45581 12.6521 7.67108 13.1315 8.06491L16.3385 10.6992C16.8179 11.093 17.4192 11.3083 18.0396 11.3083H26.46C27.9402 11.3083 29.14 12.5082 29.14 13.9883" stroke="#6C7086" stroke-width="2" stroke-linecap="round"/>
</g>
<defs>
<filter id="filter0_d_2_1028" x="-2.68005" y="0.755859" width="40.16" height="40.1599" filterUnits="userSpaceOnUse" color-interpolation-filters="sRGB">
<feFlood flood-opacity="0" result="BackgroundImageFix"/>
<feColorMatrix in="SourceAlpha" type="matrix" values="0 0 0 0 0 0 0 0 0 0 0 0 0 0 0 0 0 0 127 0" result="hardAlpha"/>
<feOffset dy="4"/>
<feGaussianBlur stdDeviation="2"/>
<feComposite in2="hardAlpha" operator="out"/>
<feColorMatrix type="matrix" values="0 0 0 0 0 0 0 0 0 0 0 0 0 0 0 0 0 0 0.25 0"/>
<feBlend mode="normal" in2="BackgroundImageFix" result="effect1_dropShadow_2_1028"/>
<feBlend mode="normal" in="SourceGraphic" in2="effect1_dropShadow_2_1028" result="shape"/>
</filter>
<clipPath id="clip0_2_1028">
<rect width="32.16" height="32.16" fill="white" transform="translate(1.31995 0.755859)"/>
</clipPath>
</defs>
</svg>
