<svg width="38" height="36" viewBox="0 0 38 36" fill="none" xmlns="http://www.w3.org/2000/svg">
<g filter="url(#filter0_d_2_1078)">
<path d="M29.321 25.5856C29.7856 24.9842 30.7121 24.4665 30.6868 23.707V23.707C30.6723 23.2721 30.31 22.9241 29.8752 22.9241H29.8462C29.3968 22.9388 29.0489 23.3156 29.0635 23.7649V23.7649C29.0872 24.1202 29.1926 24.5207 28.9933 24.8158C28.5099 25.5319 27.8391 26.0928 26.9183 26.5768C26.1501 26.9827 25.3529 27.1277 24.5558 27.0263C23.9036 26.9393 23.3963 26.6493 23.0774 26.171C22.6136 25.4608 22.57 24.6925 22.9614 23.9243C23.181 23.4852 23.502 23.1381 23.7626 22.9126C23.8698 22.8199 23.9248 22.6949 23.8869 22.5583V22.5583C23.8214 22.3226 23.5301 22.1926 23.3475 22.3554C21.6897 23.8327 21.9193 25.6743 22.5121 26.5768C22.9904 27.3017 23.9615 27.751 25.0342 27.751C25.324 27.751 25.6138 27.722 25.9037 27.6495C27.3344 27.3701 28.4979 26.6511 29.321 25.5856ZM32.5131 22.7503C31.4116 21.4602 29.7882 20.75 27.933 20.75V20.75C27.7908 20.75 27.6661 20.6638 27.5677 20.5612C27.4214 20.4086 27.2139 20.3152 26.9908 20.3152H26.9617C26.5126 20.3296 26.1647 20.7064 26.1792 21.1559C26.1937 21.5907 26.556 21.9386 26.9908 21.9386H27.0198C27.2458 21.9283 27.4499 21.8234 27.5909 21.6651C27.6961 21.5471 27.8328 21.4457 27.9909 21.4457V21.4457C29.0925 21.4457 30.1361 21.7646 31.0782 22.3879C31.8029 22.8663 32.3247 23.4895 32.6145 24.2432C32.861 24.852 32.8465 25.4463 32.5856 25.9536C32.1797 26.7218 31.4986 27.1422 30.5998 27.1422C30.1416 27.1422 29.7014 27.0335 29.3939 26.9235C29.2617 26.8762 29.1295 26.8843 29.0218 26.9743V26.9743C28.8147 27.1475 28.8323 27.4983 29.0884 27.5837C29.5289 27.7306 29.97 27.809 30.397 27.809C31.7884 27.809 32.8175 27.0408 33.2088 26.2725C33.6292 25.4318 33.6002 23.9823 32.5131 22.7503ZM25.1501 24.794C25.1645 25.2288 25.5269 25.5767 25.9617 25.5767H25.9908C26.4401 25.5622 26.7879 25.1854 26.7733 24.736C26.7589 24.3011 26.3965 23.9533 25.9617 23.9533H25.9328V23.9533C25.8744 23.9533 25.808 23.9293 25.7788 23.8788C25.2225 22.9177 24.9932 21.8748 25.0776 20.75C25.1356 19.8803 25.4254 19.1266 25.9328 18.5032C26.3531 17.9669 27.1648 17.706 27.7155 17.6916C29.1044 17.6653 29.7708 19.2264 29.9181 20.094C29.9431 20.2413 30.0274 20.362 30.1709 20.4037V20.4037C30.4013 20.4706 30.652 20.2967 30.6135 20.0599C30.2846 18.0402 28.9462 16.9958 27.6576 16.9958C26.3531 16.9958 25.1501 17.938 24.6717 19.3295C24.065 21.0181 24.3706 22.6466 25.0423 23.9856C25.1627 24.2256 25.1258 24.5266 25.1501 24.794V24.794Z" fill="#A6E3A1" stroke="#A6E3A1" stroke-width="0.25"/>
<path d="M19.5 26.2158H7.70002C6.2199 26.2158 5.02002 25.016 5.02002 23.5358V10.1358C5.02002 8.65569 6.2199 7.45581 7.70002 7.45581H11.4304C12.0509 7.45581 12.6521 7.67108 13.1315 8.06491L16.3385 10.6992C16.8179 11.093 17.4192 11.3083 18.0396 11.3083H26.46C27.9402 11.3083 29.14 12.5082 29.14 13.9883" stroke="#6C7086" stroke-width="2" stroke-linecap="round"/>
</g>
<defs>
<filter id="filter0_d_2_1078" x="-1.35999" y="0.915771" width="40.16" height="40.1599" filterUnits="userSpaceOnUse" color-interpolation-filters="sRGB">
<feFlood flood-opacity="0" result="BackgroundImageFix"/>
<feColorMatrix in="SourceAlpha" type="matrix" values="0 0 0 0 0 0 0 0 0 0 0 0 0 0 0 0 0 0 127 0" result="hardAlpha"/>
<feOffset dy="4"/>
<feGaussianBlur stdDeviation="2"/>
<feComposite in2="hardAlpha" operator="out"/>
<feColorMatrix type="matrix" values="0 0 0 0 0 0 0 0 0 0 0 0 0 0 0 0 0 0 0.25 0"/>
<feBlend mode="normal" in2="BackgroundImageFix" result="effect1_dropShadow_2_1078"/>
<feBlend mode="normal" in="SourceGraphic" in2="effect1_dropShadow_2_1078" result="shape"/>
</filter>
</defs>
</svg>
