<svg width="33" height="33" viewBox="0 0 33 33" fill="none" xmlns="http://www.w3.org/2000/svg">
<path fill-rule="evenodd" clip-rule="evenodd" d="M6.97996 5.84009C4.75978 5.84009 2.95996 7.63991 2.95996 9.86009V23.2601C2.95996 25.4803 4.75978 27.2801 6.97996 27.2801H17.7V24.6001H6.97996C6.23991 24.6001 5.63996 24.0002 5.63996 23.2601V9.86009C5.63996 9.12003 6.23991 8.52009 6.97996 8.52009H10.7104C11.0206 8.52009 11.3212 8.62773 11.5609 8.82463L14.7679 11.4589C15.4871 12.0497 16.3889 12.3726 17.3195 12.3726H25.74C26.48 12.3726 27.08 12.9725 27.08 13.7126V13.8801H29.76V13.7126C29.76 11.4924 27.9602 9.69259 25.74 9.69259H17.3195C17.0093 9.69259 16.7088 9.58495 16.469 9.38805L13.262 6.75373C12.5429 6.163 11.641 5.84009 10.7104 5.84009H6.97996Z" fill="#6C7086"/>
<path fill-rule="evenodd" clip-rule="evenodd" d="M20.482 24.247C20.3481 24.0359 20.3461 23.7671 20.4767 23.5541L25.3943 15.5326C25.6678 15.0865 26.3282 15.1255 26.5473 15.6006L31.0397 25.3458C31.2064 25.7073 31.0145 26.1328 30.6331 26.2472L23.6448 28.3438C23.3636 28.4281 23.0606 28.315 22.9035 28.0671L20.482 24.247ZM25.9616 17.878C26.0089 17.642 26.3323 17.608 26.4278 17.8289L29.5266 24.9994C29.5848 25.1345 29.5123 25.29 29.3714 25.3321L24.5431 26.7734C24.3655 26.8265 24.1955 26.6715 24.2321 26.4897L25.9616 17.878Z" fill="#94E2D5"/>
</svg>
