<svg width="39" height="37" viewBox="0 0 39 37" fill="none" xmlns="http://www.w3.org/2000/svg">
<g clip-path="url(#clip0_2_1124)" filter="url(#filter0_d_2_1124)">
<path d="M34.4437 15.9595C34.5658 15.8332 34.6333 15.6639 34.6317 15.4882C34.6302 15.3126 34.5597 15.1445 34.4355 15.0203C34.3113 14.896 34.1433 14.8256 33.9676 14.824C33.7919 14.8225 33.6227 14.8901 33.4963 15.0121L32.8535 15.6549C32.5249 15.9836 32.016 16.0231 31.569 15.8957C31.2122 15.794 30.8364 15.7623 30.4627 15.8053C29.8241 15.8788 29.2288 16.1661 28.7742 16.6208L28.0586 17.337C27.8388 17.5568 27.7154 17.8549 27.7154 18.1658C27.7154 18.4766 27.8388 18.7747 28.0586 18.9946L30.4606 21.3972C30.5695 21.506 30.6987 21.5925 30.841 21.6514C30.9833 21.7103 31.1356 21.7407 31.2897 21.7407C31.4437 21.7407 31.5962 21.7103 31.7384 21.6514C31.8807 21.5925 32.01 21.506 32.1188 21.3972L32.8344 20.6817C33.2889 20.227 33.5763 19.6321 33.6499 18.9935C33.6929 18.6198 33.6613 18.2439 33.5596 17.887C33.4324 17.4403 33.4719 16.9318 33.8003 16.6033L34.4437 15.9595ZM27.0737 21.3195C27.1958 21.1932 27.2633 21.0239 27.2617 20.8482C27.2602 20.6726 27.1897 20.5045 27.0655 20.3803C26.9413 20.256 26.7733 20.1856 26.5976 20.184C26.4219 20.1825 26.2527 20.2501 26.1263 20.3721L25.3377 21.1607C25.2293 21.2691 25.0535 21.2691 24.9451 21.1607V21.1607C24.8509 21.0665 24.7232 21.0137 24.59 21.0137C24.4568 21.0137 24.3291 21.0665 24.2349 21.1607L23.0457 22.35C22.5911 22.8045 22.3037 23.3995 22.2301 24.0381C22.1871 24.4118 22.2188 24.7877 22.3204 25.1446C22.4477 25.5914 22.4081 26.0998 22.0797 26.4284L21.4363 27.0721C21.3724 27.1339 21.3214 27.2079 21.2862 27.2896C21.2511 27.3714 21.2326 27.4593 21.2318 27.5482C21.231 27.6371 21.2481 27.7254 21.2817 27.8077C21.3153 27.8901 21.3652 27.9648 21.428 28.0278C21.491 28.0907 21.5658 28.1404 21.648 28.1742C21.7305 28.2078 21.8186 28.2248 21.9076 28.224C21.9966 28.2232 22.0845 28.2047 22.1662 28.1696C22.248 28.1345 22.3219 28.0834 22.3837 28.0195L23.0275 27.3761C23.356 27.0477 23.8645 27.0082 24.3112 27.1354C24.6681 27.2371 25.044 27.2687 25.4177 27.2256C26.0564 27.152 26.6513 26.8646 27.1059 26.4102L28.2951 25.2209C28.3892 25.1266 28.4421 24.9989 28.4421 24.8658C28.4421 24.7326 28.3892 24.6049 28.2951 24.5107V24.5107C28.1867 24.4023 28.1867 24.2265 28.2951 24.1181L29.0837 23.3295C29.2058 23.2032 29.2733 23.0339 29.2717 22.8582C29.2702 22.6826 29.1997 22.5145 29.0755 22.3903C28.9513 22.266 28.7833 22.1956 28.6076 22.194C28.4319 22.1925 28.2627 22.2601 28.1363 22.3821L27.6827 22.8357C27.3893 23.1292 26.9135 23.1292 26.6201 22.8357V22.8357C26.3267 22.5423 26.3267 22.0665 26.6201 21.7731L27.0737 21.3195Z" fill="#F9E2AF"/>
<path d="M19.98 25.2158H7.68C6.19988 25.2158 5 24.016 5 22.5358V9.13581C5 7.65569 6.19988 6.45581 7.68 6.45581H11.4104C12.0308 6.45581 12.6321 6.67108 13.1115 7.06491L16.3184 9.69921C16.7979 10.093 17.3992 10.3083 18.0196 10.3083H26.44C27.9202 10.3083 29.12 11.5082 29.12 12.9883" stroke="#6C7086" stroke-width="2" stroke-linecap="round"/>
</g>
<defs>
<filter id="filter0_d_2_1124" x="-1.52002" y="0.0759277" width="40.16" height="40.1599" filterUnits="userSpaceOnUse" color-interpolation-filters="sRGB">
<feFlood flood-opacity="0" result="BackgroundImageFix"/>
<feColorMatrix in="SourceAlpha" type="matrix" values="0 0 0 0 0 0 0 0 0 0 0 0 0 0 0 0 0 0 127 0" result="hardAlpha"/>
<feOffset dy="4"/>
<feGaussianBlur stdDeviation="2"/>
<feComposite in2="hardAlpha" operator="out"/>
<feColorMatrix type="matrix" values="0 0 0 0 0 0 0 0 0 0 0 0 0 0 0 0 0 0 0.25 0"/>
<feBlend mode="normal" in2="BackgroundImageFix" result="effect1_dropShadow_2_1124"/>
<feBlend mode="normal" in="SourceGraphic" in2="effect1_dropShadow_2_1124" result="shape"/>
</filter>
<clipPath id="clip0_2_1124">
<rect width="32.16" height="32.16" fill="white" transform="translate(2.47998 0.0759277)"/>
</clipPath>
</defs>
</svg>
