<svg width="33" height="33" viewBox="0 0 33 33" fill="none" xmlns="http://www.w3.org/2000/svg">
<g clip-path="url(#clip0_2_1110)">
<path fill-rule="evenodd" clip-rule="evenodd" d="M7.30003 5.52002C5.07985 5.52002 3.28003 7.31984 3.28003 9.54002V22.94C3.28003 25.1603 5.07985 26.96 7.30003 26.96H19.36V24.28H7.30003C6.55997 24.28 5.96003 23.6801 5.96003 22.94V9.54002C5.96003 8.79996 6.55997 8.20002 7.30003 8.20002H11.0304C11.3407 8.20002 11.6413 8.30766 11.881 8.50456L15.088 11.1389C15.8072 11.7296 16.709 12.0525 17.6396 12.0525H26.06C26.8001 12.0525 27.4 12.6525 27.4 13.3925V13.56H30.08V13.3925C30.08 11.1723 28.2803 9.37252 26.06 9.37252H17.6396C17.3294 9.37252 17.0288 9.26488 16.7891 9.06798L13.5821 6.43366C12.8629 5.84293 11.9611 5.52002 11.0304 5.52002H7.30003Z" fill="#6C7086"/>
<path d="M27.4001 25.6198C29.6203 25.6198 31.4201 23.82 31.4201 21.5998C31.4201 19.3796 29.6203 17.5798 27.4001 17.5798C25.1799 17.5798 23.3801 19.3796 23.3801 21.5998C23.3801 23.82 25.1799 25.6198 27.4001 25.6198Z" stroke="#7F849C" stroke-width="2"/>
</g>
<defs>
<clipPath id="clip0_2_1110">
<rect width="32.16" height="32.16" fill="white" transform="translate(0.600098 0.159912)"/>
</clipPath>
</defs>
</svg>
