<svg width="33" height="33" viewBox="0 0 33 33" fill="none" xmlns="http://www.w3.org/2000/svg">
<path fill-rule="evenodd" clip-rule="evenodd" d="M6.69993 6C4.47975 6 2.67993 7.79982 2.67993 10.02V23.42C2.67993 25.6402 4.47975 27.44 6.69993 27.44H17.4199V24.76H6.69993C5.95988 24.76 5.35993 24.1601 5.35993 23.42V10.02C5.35993 9.27994 5.95988 8.68 6.69993 8.68H10.4303C10.7406 8.68 11.0412 8.78764 11.2809 8.98454L14.4879 11.6189C15.2071 12.2096 16.1089 12.5325 17.0395 12.5325H25.4599C26.2 12.5325 26.7999 13.1324 26.7999 13.8725V14.04H29.4799V13.8725C29.4799 11.6523 27.6802 9.8525 25.4599 9.8525H17.0395C16.7293 9.8525 16.4287 9.74486 16.189 9.54796L12.982 6.91364C12.2628 6.32291 11.361 6 10.4303 6H6.69993Z" fill="#6C7086"/>
<path d="M26.8 26.0998C29.0202 26.0998 30.82 24.3 30.82 22.0798C30.82 19.8596 29.0202 18.0598 26.8 18.0598C24.5798 18.0598 22.78 19.8596 22.78 22.0798C22.78 24.3 24.5798 26.0998 26.8 26.0998Z" stroke="#CBA6F7" stroke-width="2"/>
</svg>
