<svg width="38" height="37" viewBox="0 0 38 37" fill="none" xmlns="http://www.w3.org/2000/svg">
<g clip-path="url(#clip0_2_1254)" filter="url(#filter0_d_2_1254)">
<path d="M19 25.76H7.68C6.19988 25.76 5 24.5602 5 23.08V9.68C5 8.19988 6.19988 7 7.68 7H11.4104C12.0308 7 12.6321 7.21527 13.1115 7.6091L16.3184 10.2434C16.7979 10.6372 17.3992 10.8525 18.0196 10.8525H24.82C26.3002 10.8525 27.5 12.0524 27.5 13.5325" stroke="#6C7086" stroke-width="2" stroke-linecap="round"/>
<path d="M33.7174 19.6823L33.7164 19.6772V19.6772C33.5427 18.85 32.8129 18.8483 32.2052 19.4358C31.9408 19.6915 31.6814 19.9525 31.5155 20.1448C31.3505 20.3365 31.1125 20.4444 30.8599 20.4444C30.38 20.4444 29.9916 20.0559 29.9916 19.5761C29.9916 19.3235 30.0994 19.0855 30.2912 18.9204C30.4826 18.7554 30.742 18.4977 30.9964 18.2347C31.5865 17.6246 31.5852 16.8914 30.7552 16.7137V16.7137L30.7517 16.713C30.5036 16.6618 30.2472 16.636 29.9916 16.636C27.8911 16.636 26.1831 18.3606 26.1831 20.48C26.1831 20.5145 26.1837 20.5491 26.1848 20.5836C26.1987 21.0304 26.0857 21.4867 25.7669 21.7998L22.3359 25.1695C21.5413 25.975 21.5413 27.2844 22.3365 28.0899C22.7238 28.4802 23.2398 28.6961 23.7907 28.6961C24.341 28.6961 24.8578 28.4802 25.2379 28.0957L28.733 24.6616C29.0218 24.378 29.4282 24.25 29.8329 24.2525C29.8858 24.2528 29.9388 24.2528 29.9916 24.2528C32.1269 24.2528 33.8 22.5956 33.8 20.48C33.8 20.2131 33.7722 19.9442 33.7174 19.6823Z" fill="#CBA6F7"/>
</g>
<defs>
<filter id="filter0_d_2_1254" x="-2.35999" y="0.555908" width="40.16" height="40.1599" filterUnits="userSpaceOnUse" color-interpolation-filters="sRGB">
<feFlood flood-opacity="0" result="BackgroundImageFix"/>
<feColorMatrix in="SourceAlpha" type="matrix" values="0 0 0 0 0 0 0 0 0 0 0 0 0 0 0 0 0 0 127 0" result="hardAlpha"/>
<feOffset dy="4"/>
<feGaussianBlur stdDeviation="2"/>
<feComposite in2="hardAlpha" operator="out"/>
<feColorMatrix type="matrix" values="0 0 0 0 0 0 0 0 0 0 0 0 0 0 0 0 0 0 0.25 0"/>
<feBlend mode="normal" in2="BackgroundImageFix" result="effect1_dropShadow_2_1254"/>
<feBlend mode="normal" in="SourceGraphic" in2="effect1_dropShadow_2_1254" result="shape"/>
</filter>
<clipPath id="clip0_2_1254">
<rect width="32.16" height="32.16" fill="white" transform="translate(1.64001 0.555908)"/>
</clipPath>
</defs>
</svg>
