<svg width="33" height="33" viewBox="0 0 33 33" fill="none" xmlns="http://www.w3.org/2000/svg">
<g clip-path="url(#clip0_2_1145)">
<path fill-rule="evenodd" clip-rule="evenodd" d="M6.97996 5.68018C4.75978 5.68018 2.95996 7.48 2.95996 9.70018V23.1002C2.95996 25.3204 4.75978 27.1202 6.97996 27.1202H17.7V24.4402H6.97996C6.23991 24.4402 5.63996 23.8403 5.63996 23.1002V9.70018C5.63996 8.96012 6.23991 8.36018 6.97996 8.36018H10.7104C11.0206 8.36018 11.3212 8.46782 11.5609 8.66472L14.7679 11.299C15.4871 11.8898 16.3889 12.2127 17.3195 12.2127H25.74C26.48 12.2127 27.08 12.8126 27.08 13.5527V13.7202H29.76V13.5527C29.76 11.3325 27.9602 9.53268 25.74 9.53268H17.3195C17.0093 9.53268 16.7088 9.42503 16.469 9.22813L13.262 6.59381C12.5429 6.00309 11.641 5.68018 10.7104 5.68018H6.97996Z" fill="#6C7086"/>
<path d="M25.2616 16.4001C24.4685 16.4001 23.8258 17.0428 23.8258 17.8358V18.6973H21.5286C20.8942 18.6973 20.3801 19.2113 20.3801 19.8458V21.5687C20.3801 21.8857 20.6374 22.143 20.9545 22.143H21.1597C21.9108 22.143 22.5942 22.6835 22.6694 23.4307C22.7555 24.2903 22.0834 25.0145 21.2416 25.0145H20.9545C20.6374 25.0145 20.3801 25.2717 20.3801 25.5887V27.3116C20.3801 27.9461 20.8942 28.4601 21.5286 28.4601H23.2516C23.5685 28.4601 23.8258 28.2029 23.8258 27.8858V27.6805C23.8258 26.9295 24.3664 26.2461 25.1135 26.1709C25.9732 26.0847 26.6973 26.7569 26.6973 27.5987V27.8858C26.6973 28.2029 26.9546 28.4601 27.2716 28.4601H28.9945C29.6289 28.4601 30.143 27.9461 30.143 27.3116V25.0145H31.0045C31.7975 25.0145 32.4401 24.3718 32.4401 23.5787C32.4401 22.7856 31.7975 22.143 31.0045 22.143H30.143V19.8458C30.143 19.2113 29.6289 18.6973 28.9945 18.6973H26.6973V17.8358C26.6973 17.0428 26.0546 16.4001 25.2616 16.4001Z" fill="#94E2D5"/>
</g>
<defs>
<clipPath id="clip0_2_1145">
<rect width="32.16" height="32.16" fill="white" transform="translate(0.280029 0.320068)"/>
</clipPath>
</defs>
</svg>
