<svg width="39" height="36" viewBox="0 0 39 36" fill="none" xmlns="http://www.w3.org/2000/svg">
<g clip-path="url(#clip0_2_1048)" filter="url(#filter0_d_2_1048)">
<path d="M28.9199 27.5559C31.8802 27.5559 34.2799 25.1562 34.2799 22.1959C34.2799 19.2357 31.8802 16.8359 28.9199 16.8359C25.9597 16.8359 23.5599 19.2357 23.5599 22.1959C23.5599 25.1562 25.9597 27.5559 28.9199 27.5559Z" fill="#89B4FA"/>
<path d="M22 26.2158H7.70002C6.2199 26.2158 5.02002 25.016 5.02002 23.5358V10.1358C5.02002 8.65569 6.2199 7.45581 7.70002 7.45581H11.4304C12.0509 7.45581 12.6521 7.67108 13.1315 8.06491L16.3385 10.6992C16.8179 11.093 17.4192 11.3083 18.0396 11.3083H26.46C27.9402 11.3083 29.14 12.5082 29.14 13.9883" stroke="#6C7086" stroke-width="2" stroke-linecap="round"/>
</g>
<defs>
<filter id="filter0_d_2_1048" x="-1.88" y="0.755859" width="40.16" height="40.1599" filterUnits="userSpaceOnUse" color-interpolation-filters="sRGB">
<feFlood flood-opacity="0" result="BackgroundImageFix"/>
<feColorMatrix in="SourceAlpha" type="matrix" values="0 0 0 0 0 0 0 0 0 0 0 0 0 0 0 0 0 0 127 0" result="hardAlpha"/>
<feOffset dy="4"/>
<feGaussianBlur stdDeviation="2"/>
<feComposite in2="hardAlpha" operator="out"/>
<feColorMatrix type="matrix" values="0 0 0 0 0 0 0 0 0 0 0 0 0 0 0 0 0 0 0.25 0"/>
<feBlend mode="normal" in2="BackgroundImageFix" result="effect1_dropShadow_2_1048"/>
<feBlend mode="normal" in="SourceGraphic" in2="effect1_dropShadow_2_1048" result="shape"/>
</filter>
<clipPath id="clip0_2_1048">
<rect width="32.16" height="32.16" fill="white" transform="translate(2.12 0.755859)"/>
</clipPath>
</defs>
</svg>
