<svg width="37" height="36" viewBox="0 0 37 36" fill="none" xmlns="http://www.w3.org/2000/svg">
<g filter="url(#filter0_d_2_1025)">
<path d="M27.9076 23.9976C28.3195 23.4425 29.1362 23.0052 29.2033 22.3172C29.2069 22.2811 29.2081 22.2443 29.2068 22.207C29.1924 21.7721 28.83 21.4241 28.3952 21.4241H28.3662C27.9168 21.4387 27.5689 21.8156 27.5836 22.2649V22.2649C27.6072 22.6202 27.7126 23.0207 27.5134 23.3158C27.0299 24.0319 26.3591 24.5928 25.4383 25.0768C24.6701 25.4827 23.873 25.6277 23.0758 25.5263C22.4236 25.4393 21.9163 25.1493 21.5974 24.671C21.1336 23.9608 21.09 23.1925 21.4815 22.4243C21.701 21.9852 22.022 21.6381 22.2826 21.4126C22.3898 21.3199 22.4448 21.1949 22.4069 21.0583V21.0583C22.3414 20.8226 22.0502 20.6926 21.8675 20.8554C20.2098 22.3327 20.4394 24.1743 21.0322 25.0768C21.5104 25.8017 22.4815 26.251 23.5542 26.251C23.844 26.251 24.1339 26.222 24.4237 26.1495C25.8934 25.8625 27.0811 25.1116 27.9076 23.9976ZM31.0331 21.2503C29.9316 19.9602 28.3082 19.25 26.453 19.25V19.25C26.3108 19.25 26.1861 19.1638 26.0877 19.0612C25.9414 18.9086 25.7339 18.8152 25.5108 18.8152H25.4818C25.0326 18.8296 24.6847 19.2064 24.6992 19.6559C24.7137 20.0907 25.076 20.4386 25.5108 20.4386H25.5398C25.7658 20.4283 25.9699 20.3234 26.1109 20.1651C26.2161 20.0471 26.3528 19.9457 26.5109 19.9457V19.9457C27.6125 19.9457 28.6561 20.2646 29.5982 20.8879C30.3229 21.3663 30.8447 21.9895 31.1346 22.7432C31.381 23.352 31.3665 23.9463 31.1056 24.4536C30.6997 25.2218 30.0186 25.6422 29.1199 25.6422C28.6616 25.6422 28.2214 25.5335 27.9139 25.4235C27.7818 25.3762 27.6495 25.3843 27.5418 25.4743V25.4743C27.3347 25.6475 27.3523 25.9983 27.6084 26.0837C28.0489 26.2306 28.4901 26.309 28.917 26.309C30.3084 26.309 31.3376 25.5408 31.7288 24.7725C32.1492 23.9318 32.1203 22.4823 31.0331 21.2503ZM23.6701 23.294C23.6846 23.7288 24.0469 24.0767 24.4817 24.0767H24.5108C24.9601 24.0622 25.308 23.6854 25.2934 23.236C25.2789 22.8011 24.9165 22.4533 24.4817 22.4533H24.4528V22.4533C24.3944 22.4533 24.328 22.4293 24.2988 22.3788C23.7426 21.4177 23.5132 20.3748 23.5976 19.25C23.6556 18.3803 23.9455 17.6266 24.4528 17.0032C24.8731 16.4669 25.6848 16.206 26.2355 16.1916C27.6245 16.1653 28.2908 17.7264 28.4381 18.594C28.4631 18.7413 28.5474 18.862 28.6909 18.9037V18.9037C28.9213 18.9706 29.172 18.7967 29.1335 18.5599C28.8047 16.5402 27.4662 15.4958 26.1776 15.4958C24.8731 15.4958 23.6701 16.438 23.1917 17.8295C22.585 19.5181 22.8906 21.1466 23.5623 22.4856C23.6827 22.7256 23.6458 23.0266 23.6701 23.294V23.294Z" fill="#CBA6F7" stroke="#CBA6F7" stroke-width="0.25"/>
<path d="M18.0396 26.2158H7.70002C6.2199 26.2158 5.02002 25.016 5.02002 23.5358V10.1358C5.02002 8.65569 6.2199 7.45581 7.70002 7.45581H11.4304C12.0509 7.45581 12.6521 7.67108 13.1315 8.06491L16.3385 10.6992C16.8179 11.093 17.4192 11.3083 18.0396 11.3083H26.46C27.9402 11.3083 29.14 12.5082 29.14 13.9883" stroke="#6C7086" stroke-width="2" stroke-linecap="round"/>
</g>
<defs>
<filter id="filter0_d_2_1025" x="-2.83997" y="0.755859" width="40.16" height="40.1599" filterUnits="userSpaceOnUse" color-interpolation-filters="sRGB">
<feFlood flood-opacity="0" result="BackgroundImageFix"/>
<feColorMatrix in="SourceAlpha" type="matrix" values="0 0 0 0 0 0 0 0 0 0 0 0 0 0 0 0 0 0 127 0" result="hardAlpha"/>
<feOffset dy="4"/>
<feGaussianBlur stdDeviation="2"/>
<feComposite in2="hardAlpha" operator="out"/>
<feColorMatrix type="matrix" values="0 0 0 0 0 0 0 0 0 0 0 0 0 0 0 0 0 0 0.25 0"/>
<feBlend mode="normal" in2="BackgroundImageFix" result="effect1_dropShadow_2_1025"/>
<feBlend mode="normal" in="SourceGraphic" in2="effect1_dropShadow_2_1025" result="shape"/>
</filter>
</defs>
</svg>
