<svg width="33" height="33" viewBox="0 0 33 33" fill="none" xmlns="http://www.w3.org/2000/svg">
<g clip-path="url(#clip0_2_1056)">
<path fill-rule="evenodd" clip-rule="evenodd" d="M7.13987 5.36011C4.91969 5.36011 3.11987 7.15993 3.11987 9.38011V22.7801C3.11987 25.0004 4.91969 26.8001 7.13987 26.8001H19.1999V24.1201H7.13987C6.39982 24.1201 5.79987 23.5202 5.79987 22.7801V9.38011C5.79987 8.64005 6.39982 8.04011 7.13987 8.04011H10.8703C11.1805 8.04011 11.4811 8.14775 11.7208 8.34465L14.9278 10.979C15.647 11.5697 16.5488 11.8926 17.4794 11.8926H25.8999C26.64 11.8926 27.2399 12.4926 27.2399 13.2326V13.4001H29.9199V13.2326C29.9199 11.0124 28.1201 9.21261 25.8999 9.21261H17.4794C17.1692 9.21261 16.8687 9.10496 16.6289 8.90807L13.4219 6.27375C12.7028 5.68302 11.8009 5.36011 10.8703 5.36011H7.13987Z" fill="#6C7086"/>
<path d="M27.24 25.4599C29.4602 25.4599 31.26 23.6601 31.26 21.4399C31.26 19.2197 29.4602 17.4199 27.24 17.4199C25.0198 17.4199 23.22 19.2197 23.22 21.4399C23.22 23.6601 25.0198 25.4599 27.24 25.4599Z" stroke="#89B4FA" stroke-width="2"/>
</g>
<defs>
<clipPath id="clip0_2_1056">
<rect width="32.16" height="32.16" fill="white" transform="translate(0.439941)"/>
</clipPath>
</defs>
</svg>
