<svg width="34" height="33" viewBox="0 0 34 33" fill="none" xmlns="http://www.w3.org/2000/svg">
<path d="M28.282 22.9317C28.7023 22.8882 29.0211 22.5258 29.0066 22.091C28.9922 21.6562 28.6298 21.3082 28.195 21.3082H28.1661C27.7166 21.3228 27.3688 21.6996 27.3834 22.1489C27.3978 22.3664 27.4848 22.5548 27.6152 22.6853C27.1225 23.6564 26.3687 24.3666 25.2381 24.9609C24.4699 25.3668 23.6728 25.5118 22.8756 25.4103C22.2234 25.3234 21.7161 25.0334 21.3972 24.555C20.9334 23.8448 20.8899 23.0766 21.2813 22.3084C21.5566 21.7576 21.9915 21.3517 22.2668 21.1487C22.2088 20.9603 22.1218 20.6415 22.0784 20.4096C19.9768 21.9315 20.1941 23.9898 20.832 24.9609C21.3102 25.6857 22.2813 26.135 23.354 26.135C23.6438 26.135 23.9337 26.106 24.2235 26.0336C26.0789 25.6712 27.4848 24.5696 28.282 22.9317ZM30.8329 21.1344C29.7314 19.8442 28.108 19.134 26.2528 19.134H26.0208C25.8905 18.8731 25.615 18.6992 25.3106 18.6992H25.2816C24.8324 18.7137 24.4845 19.0905 24.499 19.5399C24.5135 19.9747 24.8758 20.3226 25.3106 20.3226H25.3396C25.6585 20.3081 25.9339 20.1051 26.0498 19.8298H26.3107C27.4123 19.8298 28.4559 20.1487 29.398 20.7719C30.1227 21.2503 30.6445 21.8735 30.9344 22.6273C31.1808 23.236 31.1663 23.8303 30.9054 24.3376C30.4995 25.1059 29.8184 25.5262 28.9197 25.5262C28.34 25.5262 27.7891 25.3523 27.4993 25.2218C27.3398 25.3668 27.05 25.5987 26.847 25.7437C27.4703 26.0336 28.108 26.193 28.7168 26.193C30.1082 26.193 31.1374 25.4248 31.5286 24.6566C31.949 23.8159 31.9201 22.3664 30.8329 21.1344ZM23.4699 23.178C23.4844 23.6128 23.8467 23.9607 24.2815 23.9607H24.3106C24.7599 23.9462 25.1078 23.5694 25.0932 23.12C25.0787 22.6852 24.7164 22.3373 24.2815 22.3373H24.2526C24.2235 22.3373 24.1801 22.3373 24.1511 22.3518C23.5569 21.3662 23.3104 20.2937 23.3974 19.134C23.4554 18.2644 23.7453 17.5106 24.2526 16.8872C24.6729 16.351 25.4846 16.0901 26.0353 16.0756C27.5718 16.0465 28.2239 17.9599 28.2675 18.7281C28.4559 18.7716 28.7748 18.8731 28.9922 18.9456C28.8182 16.5974 27.3688 15.3799 25.9774 15.3799C24.6729 15.3799 23.4699 16.322 22.9915 17.7135C22.3249 19.5689 22.7597 21.3517 23.5713 22.7577C23.4988 22.8591 23.4554 23.0186 23.4699 23.178Z" fill="#F38BA8" stroke="#F38BA8" stroke-width="0.25"/>
<path fill-rule="evenodd" clip-rule="evenodd" d="M7.65989 6C5.43971 6 3.63989 7.79982 3.63989 10.02V23.42C3.63989 25.6402 5.43971 27.44 7.65989 27.44H18.3799V24.76H7.65989C6.91984 24.76 6.31989 24.1601 6.31989 23.42V10.02C6.31989 9.27994 6.91984 8.68 7.65989 8.68H11.3903C11.7005 8.68 12.0011 8.78764 12.2408 8.98454L15.4478 11.6189C16.167 12.2096 17.0688 12.5325 17.9995 12.5325H26.4199C27.16 12.5325 27.7599 13.1324 27.7599 13.8725V14.04H30.4399V13.8725C30.4399 11.6523 28.6401 9.8525 26.4199 9.8525H17.9995C17.6893 9.8525 17.3887 9.74486 17.149 9.54796L13.9419 6.91364C13.2228 6.32291 12.321 6 11.3903 6H7.65989Z" fill="#6C7086"/>
</svg>
