<svg width="33" height="33" viewBox="0 0 33 33" fill="none" xmlns="http://www.w3.org/2000/svg">
<path fill-rule="evenodd" clip-rule="evenodd" d="M7.33982 5.36011C5.11965 5.36011 3.31982 7.15993 3.31982 9.38011V22.7801C3.31982 25.0004 5.11965 26.8001 7.33982 26.8001H18.0598V24.1201H7.33982C6.59977 24.1201 5.99982 23.5202 5.99982 22.7801V9.38011C5.99982 8.64005 6.59977 8.04011 7.33982 8.04011H11.0702C11.3804 8.04011 11.6811 8.14775 11.9208 8.34465L15.1278 10.979C15.8469 11.5697 16.7488 11.8926 17.6794 11.8926H26.0998C26.8399 11.8926 27.4398 12.4926 27.4398 13.2326V13.4001H30.1198V13.2326C30.1198 11.0124 28.3201 9.21261 26.0998 9.21261H17.6794C17.3692 9.21261 17.0686 9.10496 16.8289 8.90807L13.6219 6.27375C12.9027 5.68302 12.0009 5.36011 11.0702 5.36011H7.33982Z" fill="#6C7086"/>
<path fill-rule="evenodd" clip-rule="evenodd" d="M22.08 16.0801C21.3399 16.0801 20.74 16.68 20.74 17.4201V19.5046C20.74 20.2445 21.3399 20.8446 22.08 20.8446H24.1645C24.9044 20.8446 25.5045 20.2445 25.5045 19.5046V17.4201C25.5045 16.68 24.9044 16.0801 24.1645 16.0801H22.08ZM22.08 22.0356C21.3399 22.0356 20.74 22.6356 20.74 23.3756V25.4601C20.74 26.2002 21.3399 26.8001 22.08 26.8001H24.1645C24.9044 26.8001 25.5045 26.2002 25.5045 25.4601V23.3756C25.5045 22.6356 24.9044 22.0356 24.1645 22.0356H22.08ZM26.6955 17.4201C26.6955 16.68 27.2955 16.0801 28.0355 16.0801H30.12C30.8601 16.0801 31.46 16.68 31.46 17.4201V19.5046C31.46 20.2445 30.8601 20.8446 30.12 20.8446H28.0355C27.2955 20.8446 26.6955 20.2445 26.6955 19.5046V17.4201ZM28.0355 22.0356C27.2955 22.0356 26.6955 22.6356 26.6955 23.3756V25.4601C26.6955 26.2002 27.2955 26.8001 28.0355 26.8001H30.12C30.8601 26.8001 31.46 26.2002 31.46 25.4601V23.3756C31.46 22.6356 30.8601 22.0356 30.12 22.0356H28.0355Z" fill="#F38BA8"/>
</svg>
