<svg width="33" height="33" viewBox="0 0 33 33" fill="none" xmlns="http://www.w3.org/2000/svg">
<g clip-path="url(#clip0_2_1254)">
<path fill-rule="evenodd" clip-rule="evenodd" d="M7.33982 6.16016C5.11965 6.16016 3.31982 7.95998 3.31982 10.1802V23.5802C3.31982 25.8004 5.11965 27.6002 7.33982 27.6002H18.0598V24.9202H7.33982C6.59977 24.9202 5.99982 24.3202 5.99982 23.5802V10.1802C5.99982 9.4401 6.59977 8.84016 7.33982 8.84016H11.0702C11.3804 8.84016 11.6811 8.9478 11.9208 9.1447L15.1278 11.779C15.8469 12.3697 16.7488 12.6927 17.6794 12.6927H26.0998C26.8399 12.6927 27.4398 13.2926 27.4398 14.0327V14.2002H30.1198V14.0327C30.1198 11.8125 28.3201 10.0127 26.0998 10.0127H17.6794C17.3692 10.0127 17.0686 9.90501 16.8289 9.70811L13.6219 7.07379C12.9027 6.48307 12.0009 6.16016 11.0702 6.16016H7.33982Z" fill="#6C7086"/>
<path d="M32.7174 19.9265L32.7164 19.9214C32.7044 19.8646 32.4742 18.7844 32.1652 18.7844C31.9272 18.7844 30.9776 19.8533 30.5155 20.3889C30.3505 20.5807 30.1125 20.6885 29.8599 20.6885C29.38 20.6885 28.9916 20.3001 28.9916 19.8202C28.9916 19.5676 29.0994 19.3296 29.2912 19.1646C29.8269 18.7025 30.8957 17.7529 30.8957 17.5149C30.8957 17.2039 29.799 16.9672 29.7552 16.9578L29.7517 16.9572C29.5036 16.906 29.2472 16.8801 28.9916 16.8801C26.8911 16.8801 25.1831 18.6047 25.1831 20.7242C25.1831 20.7586 25.1837 20.7932 25.1848 20.8278C25.1987 21.2745 25.0857 21.7308 24.7669 22.044L21.3359 25.4136C20.5413 26.2191 20.5413 27.5286 21.3365 28.334C21.7238 28.7244 22.2398 28.9403 22.7907 28.9403C23.341 28.9403 23.8578 28.7244 24.2379 28.3398L27.733 24.9058C28.0218 24.6221 28.4282 24.4941 28.8329 24.4967C28.8858 24.497 28.9388 24.497 28.9916 24.497C31.1269 24.497 32.8 22.8398 32.8 20.7242C32.8 20.4573 32.7722 20.1883 32.7174 19.9265Z" fill="#CBA6F7"/>
</g>
<defs>
<clipPath id="clip0_2_1254">
<rect width="32.16" height="32.16" fill="white" transform="translate(0.639893 0.800049)"/>
</clipPath>
</defs>
</svg>
