<svg width="39" height="37" viewBox="0 0 39 37" fill="none" xmlns="http://www.w3.org/2000/svg">
<g clip-path="url(#clip0_2_1067)" filter="url(#filter0_d_2_1067)">
<path d="M30.635 20.3408C30.635 19.7885 30.1873 19.3408 29.635 19.3408H25.605C25.0527 19.3408 24.605 19.7885 24.605 20.3408V24.3708C24.605 24.9231 25.0527 25.3708 25.605 25.3708H29.635C30.1873 25.3708 30.635 24.9231 30.635 24.3708V20.3408Z" fill="#89DCEB"/>
<path fill-rule="evenodd" clip-rule="evenodd" d="M25.1075 15.8232C25.2409 15.8232 25.3686 15.8762 25.4629 15.9704C25.5571 16.0647 25.61 16.1924 25.61 16.3257V16.3257C25.61 16.6033 25.835 16.8282 26.1125 16.8282H26.615C26.8925 16.8282 27.1175 16.6033 27.1175 16.3257V16.3257C27.1175 16.1924 27.1705 16.0647 27.2647 15.9704C27.359 15.8762 27.4867 15.8232 27.62 15.8232C27.7534 15.8232 27.8811 15.8762 27.9754 15.9704C28.0696 16.0647 28.1225 16.1924 28.1225 16.3257V16.3257C28.1225 16.6033 28.3475 16.8282 28.625 16.8282H29.1275C29.405 16.8282 29.63 16.6033 29.63 16.3257V16.3257C29.63 16.1924 29.683 16.0647 29.7772 15.9704C29.8715 15.8762 29.9992 15.8232 30.1325 15.8232C30.2659 15.8232 30.3936 15.8762 30.4879 15.9704C30.5821 16.0647 30.635 16.1924 30.635 16.3257V16.3257C30.635 16.6033 30.86 16.8282 31.1375 16.8282V16.8282C31.6706 16.8282 32.1819 17.04 32.5589 17.4169C32.9358 17.7938 33.1475 18.3052 33.1475 18.8382V18.8382C33.1475 19.1158 33.3725 19.3407 33.65 19.3407V19.3407C33.7834 19.3407 33.9111 19.3937 34.0054 19.4879C34.0996 19.5822 34.1525 19.7099 34.1525 19.8432C34.1525 19.9766 34.0996 20.1043 34.0054 20.1986C33.9111 20.2928 33.7834 20.3457 33.65 20.3457V20.3457C33.3725 20.3457 33.1475 20.5707 33.1475 20.8482V21.3507C33.1475 21.6283 33.3725 21.8532 33.65 21.8532V21.8532C33.7834 21.8532 33.9111 21.9062 34.0054 22.0004C34.0996 22.0947 34.1525 22.2224 34.1525 22.3557C34.1525 22.4891 34.0996 22.6168 34.0054 22.7111C33.9111 22.8053 33.7834 22.8582 33.65 22.8582V22.8582C33.3725 22.8582 33.1475 23.0832 33.1475 23.3607V23.8632C33.1475 24.1408 33.3725 24.3657 33.65 24.3657V24.3657C33.7834 24.3657 33.9111 24.4187 34.0054 24.5129C34.0996 24.6072 34.1525 24.7349 34.1525 24.8682C34.1525 25.0016 34.0996 25.1293 34.0054 25.2236C33.9111 25.3178 33.7834 25.3707 33.65 25.3707V25.3707C33.3725 25.3707 33.1475 25.5957 33.1475 25.8732V25.8732C33.1475 26.4063 32.9358 26.9176 32.5589 27.2946C32.1819 27.6715 31.6706 27.8832 31.1375 27.8832V27.8832C30.86 27.8832 30.635 28.1082 30.635 28.3857V28.3857C30.635 28.5191 30.5821 28.6468 30.4879 28.7411C30.3936 28.8353 30.2659 28.8882 30.1325 28.8882C29.9992 28.8882 29.8715 28.8353 29.7772 28.7411C29.683 28.6468 29.63 28.5191 29.63 28.3857V28.3857C29.63 28.1082 29.405 27.8832 29.1275 27.8832H28.625C28.3475 27.8832 28.1225 28.1082 28.1225 28.3857V28.3857C28.1225 28.5191 28.0696 28.6468 27.9754 28.7411C27.8811 28.8353 27.7534 28.8882 27.62 28.8882C27.4867 28.8882 27.359 28.8353 27.2647 28.7411C27.1705 28.6468 27.1175 28.5191 27.1175 28.3857V28.3857C27.1175 28.1082 26.8925 27.8832 26.615 27.8832H26.1125C25.835 27.8832 25.61 28.1082 25.61 28.3857V28.3857C25.61 28.5191 25.5571 28.6468 25.4629 28.7411C25.3686 28.8353 25.2409 28.8882 25.1075 28.8882C24.9742 28.8882 24.8465 28.8353 24.7522 28.7411C24.658 28.6468 24.605 28.5191 24.605 28.3857V28.3857C24.605 28.1082 24.38 27.8832 24.1025 27.8832V27.8832C23.5695 27.8832 23.0581 27.6715 22.6812 27.2946C22.3042 26.9176 22.0925 26.4063 22.0925 25.8732V25.8732C22.0925 25.5957 21.8675 25.3707 21.59 25.3707V25.3707C21.4567 25.3707 21.329 25.3178 21.2347 25.2236C21.1405 25.1293 21.0875 25.0016 21.0875 24.8682C21.0875 24.7349 21.1405 24.6072 21.2347 24.5129C21.329 24.4187 21.4567 24.3657 21.59 24.3657V24.3657C21.8675 24.3657 22.0925 24.1408 22.0925 23.8632V23.3607C22.0925 23.0832 21.8675 22.8582 21.59 22.8582V22.8582C21.4567 22.8582 21.329 22.8053 21.2347 22.7111C21.1405 22.6168 21.0875 22.4891 21.0875 22.3557C21.0875 22.2224 21.1405 22.0947 21.2347 22.0004C21.329 21.9062 21.4567 21.8532 21.59 21.8532V21.8532C21.8675 21.8532 22.0925 21.6283 22.0925 21.3507V20.8482C22.0925 20.5707 21.8675 20.3457 21.59 20.3457V20.3457C21.4567 20.3457 21.329 20.2928 21.2347 20.1986C21.1405 20.1043 21.0875 19.9766 21.0875 19.8432C21.0875 19.7099 21.1405 19.5822 21.2347 19.4879C21.329 19.3937 21.4567 19.3407 21.59 19.3407V19.3407C21.8675 19.3407 22.0925 19.1158 22.0925 18.8382V18.8382C22.0925 18.3052 22.3042 17.7938 22.6812 17.4169C23.0581 17.04 23.5695 16.8282 24.1025 16.8282V16.8282C24.38 16.8282 24.605 16.6033 24.605 16.3257V16.3257C24.605 16.1924 24.658 16.0647 24.7522 15.9704C24.8465 15.8762 24.9742 15.8232 25.1075 15.8232ZM23.6 18.8382C23.6 18.7049 23.653 18.5772 23.7472 18.4829C23.8415 18.3887 23.9692 18.3357 24.1025 18.3357H31.1375C31.2709 18.3357 31.3986 18.3887 31.4929 18.4829C31.5871 18.5772 31.64 18.7049 31.64 18.8382V25.8732C31.64 26.0066 31.5871 26.1343 31.4929 26.2286C31.3986 26.3228 31.2709 26.3757 31.1375 26.3757H24.1025C23.9692 26.3757 23.8415 26.3228 23.7472 26.2286C23.653 26.1343 23.6 26.0066 23.6 25.8732V18.8382Z" fill="#89DCEB"/>
<path d="M18.5 26.2158H7.70002C6.2199 26.2158 5.02002 25.016 5.02002 23.5358V10.1358C5.02002 8.65569 6.2199 7.45581 7.70002 7.45581H11.4304C12.0509 7.45581 12.6521 7.67108 13.1315 8.06491L16.3385 10.6992C16.8179 11.093 17.4192 11.3083 18.0396 11.3083H26.46C27.9402 11.3083 29.14 12.5082 29.14 13.9883" stroke="#6C7086" stroke-width="2" stroke-linecap="round"/>
</g>
<defs>
<filter id="filter0_d_2_1067" x="-1.83997" y="0.915771" width="40.16" height="40.1599" filterUnits="userSpaceOnUse" color-interpolation-filters="sRGB">
<feFlood flood-opacity="0" result="BackgroundImageFix"/>
<feColorMatrix in="SourceAlpha" type="matrix" values="0 0 0 0 0 0 0 0 0 0 0 0 0 0 0 0 0 0 127 0" result="hardAlpha"/>
<feOffset dy="4"/>
<feGaussianBlur stdDeviation="2"/>
<feComposite in2="hardAlpha" operator="out"/>
<feColorMatrix type="matrix" values="0 0 0 0 0 0 0 0 0 0 0 0 0 0 0 0 0 0 0.25 0"/>
<feBlend mode="normal" in2="BackgroundImageFix" result="effect1_dropShadow_2_1067"/>
<feBlend mode="normal" in="SourceGraphic" in2="effect1_dropShadow_2_1067" result="shape"/>
</filter>
<clipPath id="clip0_2_1067">
<rect width="32.16" height="32.16" fill="white" transform="translate(2.16003 0.915771)"/>
</clipPath>
</defs>
</svg>
