<svg width="40" height="36" viewBox="0 0 40 36" fill="none" xmlns="http://www.w3.org/2000/svg">
<g clip-path="url(#clip0_2_1102)" filter="url(#filter0_d_2_1102)">
<path d="M22 26.2158H7.70002C6.2199 26.2158 5.02002 25.016 5.02002 23.5358V10.1358C5.02002 8.65569 6.2199 7.45581 7.70002 7.45581H11.4304C12.0509 7.45581 12.6521 7.67108 13.1315 8.06491L16.3385 10.6992C16.8179 11.093 17.4192 11.3083 18.0396 11.3083H26.46C27.9402 11.3083 29.14 12.5082 29.14 13.9883" stroke="#6C7086" stroke-width="2" stroke-linecap="round"/>
<path d="M30.08 27.7158C33.0402 27.7158 35.44 25.3161 35.44 22.3558C35.44 19.3956 33.0402 16.9958 30.08 16.9958C27.1197 16.9958 24.72 19.3956 24.72 22.3558C24.72 25.3161 27.1197 27.7158 30.08 27.7158Z" fill="#7F849C"/>
</g>
<defs>
<filter id="filter0_d_2_1102" x="-0.719971" y="0.915771" width="40.16" height="40.1599" filterUnits="userSpaceOnUse" color-interpolation-filters="sRGB">
<feFlood flood-opacity="0" result="BackgroundImageFix"/>
<feColorMatrix in="SourceAlpha" type="matrix" values="0 0 0 0 0 0 0 0 0 0 0 0 0 0 0 0 0 0 127 0" result="hardAlpha"/>
<feOffset dy="4"/>
<feGaussianBlur stdDeviation="2"/>
<feComposite in2="hardAlpha" operator="out"/>
<feColorMatrix type="matrix" values="0 0 0 0 0 0 0 0 0 0 0 0 0 0 0 0 0 0 0.25 0"/>
<feBlend mode="normal" in2="BackgroundImageFix" result="effect1_dropShadow_2_1102"/>
<feBlend mode="normal" in="SourceGraphic" in2="effect1_dropShadow_2_1102" result="shape"/>
</filter>
<clipPath id="clip0_2_1102">
<rect width="32.16" height="32.16" fill="white" transform="translate(3.28003 0.915771)"/>
</clipPath>
</defs>
</svg>
