<svg width="39" height="36" viewBox="0 0 39 36" fill="none" xmlns="http://www.w3.org/2000/svg">
<g clip-path="url(#clip0_2_1148)" filter="url(#filter0_d_2_1148)">
<path d="M22 16.34C22 15.5999 22.5999 15 23.34 15H32.72C33.4601 15 34.06 15.5999 34.06 16.34V25.72C34.06 26.4601 33.4601 27.06 32.72 27.06H23.34C22.5999 27.06 22 26.4601 22 25.72V16.34ZM24.0964 19.1421C23.5441 19.1421 23.0964 19.5898 23.0964 20.1421V24.9636C23.0964 25.5159 23.5441 25.9636 24.0964 25.9636H31.9636C32.5159 25.9636 32.9636 25.5159 32.9636 24.9636V20.1421C32.9636 19.5898 32.5159 19.1421 31.9636 19.1421H24.0964ZM31.989 18.0457C32.5272 18.0457 32.9636 17.6093 32.9636 17.071V17.071C32.9636 16.5328 32.5272 16.0964 31.989 16.0964H24.071C23.5328 16.0964 23.0964 16.5328 23.0964 17.071V17.071C23.0964 17.6093 23.5328 18.0457 24.071 18.0457H31.989ZM24.741 21.0311C24.741 20.7277 24.9869 20.4818 25.2902 20.4818C25.5936 20.4818 25.8395 20.7277 25.8395 21.0311C25.8395 21.3344 25.5936 21.5803 25.2902 21.5803C24.9869 21.5803 24.741 21.3344 24.741 21.0311ZM26.9336 21.0311C26.9336 20.7277 27.1795 20.4818 27.4829 20.4818C27.7863 20.4818 28.0321 20.7277 28.0321 21.0311C28.0321 21.3344 27.7863 21.5803 27.4829 21.5803C27.1795 21.5803 26.9336 21.3344 26.9336 21.0311ZM29.1264 21.0311C29.1264 20.7277 29.3723 20.4818 29.6757 20.4818C29.979 20.4818 30.2249 20.7277 30.2249 21.0311C30.2249 21.3344 29.979 21.5803 29.6757 21.5803C29.3723 21.5803 29.1264 21.3344 29.1264 21.0311Z" fill="#F38BA8"/>
<path d="M19 24.2158H7.68C6.19988 24.2158 5 23.016 5 21.5358V8.13581C5 6.65569 6.19988 5.45581 7.68 5.45581H11.4104C12.0308 5.45581 12.6321 5.67108 13.1115 6.06491L16.3184 8.69921C16.7979 9.09304 17.3992 9.30831 18.0196 9.30831H26.44C27.9202 9.30831 29.12 10.5082 29.12 11.9883" stroke="#6C7086" stroke-width="2" stroke-linecap="round"/>
</g>
<defs>
<filter id="filter0_d_2_1148" x="-1.56006" y="0.0759277" width="40.16" height="40.1599" filterUnits="userSpaceOnUse" color-interpolation-filters="sRGB">
<feFlood flood-opacity="0" result="BackgroundImageFix"/>
<feColorMatrix in="SourceAlpha" type="matrix" values="0 0 0 0 0 0 0 0 0 0 0 0 0 0 0 0 0 0 127 0" result="hardAlpha"/>
<feOffset dy="4"/>
<feGaussianBlur stdDeviation="2"/>
<feComposite in2="hardAlpha" operator="out"/>
<feColorMatrix type="matrix" values="0 0 0 0 0 0 0 0 0 0 0 0 0 0 0 0 0 0 0.25 0"/>
<feBlend mode="normal" in2="BackgroundImageFix" result="effect1_dropShadow_2_1148"/>
<feBlend mode="normal" in="SourceGraphic" in2="effect1_dropShadow_2_1148" result="shape"/>
</filter>
<clipPath id="clip0_2_1148">
<rect width="32.16" height="32.16" fill="white" transform="translate(2.43994 0.0759277)"/>
</clipPath>
</defs>
</svg>
