<svg width="33" height="33" viewBox="0 0 33 33" fill="none" xmlns="http://www.w3.org/2000/svg">
<path d="M19.3999 16.4001C19.3999 15.66 19.9998 15.0601 20.7399 15.0601H30.1199C30.86 15.0601 31.4599 15.66 31.4599 16.4001V25.7801C31.4599 26.5201 30.86 27.1201 30.1199 27.1201H20.7399C19.9998 27.1201 19.3999 26.5201 19.3999 25.7801V16.4001ZM22.4963 19.2021C21.3917 19.2021 20.4963 20.0976 20.4963 21.2021V24.0237C20.4963 25.1282 21.3917 26.0237 22.4963 26.0237H28.3635C29.4681 26.0237 30.3635 25.1282 30.3635 24.0237V21.2021C30.3635 20.0976 29.4681 19.2021 28.3635 19.2021H22.4963ZM29.3889 18.1057C29.9271 18.1057 30.3635 17.6694 30.3635 17.1311C30.3635 16.5928 29.9271 16.1564 29.3889 16.1564H21.4709C20.9327 16.1564 20.4963 16.5928 20.4963 17.1311C20.4963 17.6694 20.9327 18.1057 21.4709 18.1057H29.3889ZM22.1409 21.0911C22.1409 20.7878 22.3868 20.5419 22.6901 20.5419C22.9935 20.5419 23.2394 20.7878 23.2394 21.0911C23.2394 21.3945 22.9935 21.6404 22.6901 21.6404C22.3868 21.6404 22.1409 21.3945 22.1409 21.0911ZM24.3335 21.0911C24.3335 20.7878 24.5794 20.5419 24.8828 20.5419C25.1862 20.5419 25.432 20.7878 25.432 21.0911C25.432 21.3945 25.1862 21.6404 24.8828 21.6404C24.5794 21.6404 24.3335 21.3945 24.3335 21.0911ZM26.5263 21.0911C26.5263 20.7878 26.7722 20.5419 27.0756 20.5419C27.3789 20.5419 27.6248 20.7878 27.6248 21.0911C27.6248 21.3945 27.3789 21.6404 27.0756 21.6404C26.7722 21.6404 26.5263 21.3945 26.5263 21.0911Z" fill="#89B4FA" stroke="#89B4FA" stroke-width="0.5"/>
<path fill-rule="evenodd" clip-rule="evenodd" d="M7.33982 5.68018C5.11965 5.68018 3.31982 7.48 3.31982 9.70018V23.1002C3.31982 25.3204 5.11965 27.1202 7.33982 27.1202H18.0598V24.4402H7.33982C6.59977 24.4402 5.99982 23.8403 5.99982 23.1002V9.70018C5.99982 8.96012 6.59977 8.36018 7.33982 8.36018H11.0702C11.3804 8.36018 11.6811 8.46782 11.9208 8.66472L15.1278 11.299C15.8469 11.8898 16.7488 12.2127 17.6794 12.2127H26.0998C26.8399 12.2127 27.4398 12.8126 27.4398 13.5527V13.7202H30.1198V13.5527C30.1198 11.3325 28.3201 9.53268 26.0998 9.53268H17.6794C17.3692 9.53268 17.0686 9.42503 16.8289 9.22813L13.6219 6.59381C12.9027 6.00309 12.0009 5.68018 11.0702 5.68018H7.33982Z" fill="#6C7086"/>
</svg>
