<svg width="33" height="33" viewBox="0 0 33 33" fill="none" xmlns="http://www.w3.org/2000/svg">
<path fill-rule="evenodd" clip-rule="evenodd" d="M7.17991 5.52002C4.95973 5.52002 3.15991 7.31984 3.15991 9.54002V22.94C3.15991 25.1603 4.95973 26.96 7.17991 26.96H14.4808V24.28H7.17991C6.43986 24.28 5.83991 23.6801 5.83991 22.94V9.54002C5.83991 8.79996 6.43986 8.20002 7.17991 8.20002H10.9103C11.2205 8.20002 11.5212 8.30766 11.7609 8.50456L14.9679 11.1389C15.687 11.7296 16.5889 12.0525 17.5195 12.0525H25.9399C26.68 12.0525 27.2799 12.6525 27.2799 13.3925V13.56H29.9599V13.3925C29.9599 11.1723 28.1602 9.37252 25.9399 9.37252H17.5195C17.2093 9.37252 16.9087 9.26488 16.669 9.06798L13.462 6.43366C12.7428 5.84293 11.841 5.52002 10.9103 5.52002H7.17991Z" fill="#6C7086"/>
<path d="M19.173 19.7964C19.3839 19.4283 19.2544 18.9616 18.8842 18.7547C18.5152 18.5485 18.0463 18.6786 17.836 19.0454L15.9044 22.416C15.6935 22.7841 15.823 23.2508 16.1932 23.4577C16.5622 23.6639 17.0311 23.534 17.2413 23.1671L19.173 19.7964ZM24.0066 17.2118C24.2175 16.8439 24.0881 16.377 23.7177 16.1701C23.3487 15.964 22.8798 16.094 22.6696 16.4608L20.7379 19.8315C20.527 20.1996 20.6565 20.6664 21.0268 20.8733C21.3959 21.0794 21.8648 20.9494 22.0749 20.5826L24.0066 17.2118ZM31.7531 17.212C31.9641 16.844 31.8346 16.3772 31.4644 16.1703C31.0953 15.9642 30.6265 16.0942 30.4162 16.4609L28.4846 19.8317C28.2737 20.1996 28.4031 20.6665 28.7734 20.8734C29.1424 21.0795 29.6113 20.9495 29.8215 20.5827L31.7531 17.212ZM26.9187 19.7964C27.1296 19.4283 27.0002 18.9616 26.6298 18.7547C26.2608 18.5485 25.7919 18.6786 25.5816 19.0454L23.65 22.416C23.4391 22.7841 23.5686 23.2508 23.9388 23.4577C24.308 23.6639 24.7768 23.534 24.987 23.1671L26.9187 19.7964Z" fill="#A6E3A1" stroke="#A6E3A1" stroke-width="0.25"/>
</svg>
