<svg width="38" height="36" viewBox="0 0 38 36" fill="none" xmlns="http://www.w3.org/2000/svg">
<g filter="url(#filter0_d_2_1075)">
<path d="M14 26.2158H7.70002C6.2199 26.2158 5.02002 25.016 5.02002 23.5358V10.1358C5.02002 8.65569 6.2199 7.45581 7.70002 7.45581H11.4304C12.0509 7.45581 12.6521 7.67108 13.1315 8.06491L16.3385 10.6992C16.8179 11.093 17.4192 11.3083 18.0396 11.3083H26.46C27.9402 11.3083 29.14 12.5082 29.14 13.9883" stroke="#6C7086" stroke-width="2" stroke-linecap="round"/>
<path d="M21.1728 20.5523C21.3838 20.1842 21.2543 19.7175 20.8841 19.5106C20.515 19.3044 20.0462 19.4345 19.8359 19.8012L17.9043 23.1719C17.6934 23.54 17.8228 24.0067 18.1931 24.2136C18.5621 24.4198 19.031 24.2898 19.2412 23.9229L21.1728 20.5523ZM26.0065 17.9677C26.2174 17.5997 26.088 17.1329 25.7176 16.926C25.3485 16.7199 24.8797 16.8499 24.6694 17.2166L22.7378 20.5874C22.5269 20.9555 22.6564 21.4222 23.0267 21.6291C23.3958 21.8352 23.8646 21.7052 24.0747 21.3385L26.0065 17.9677ZM33.753 17.9678C33.9639 17.5999 33.8345 17.133 33.4643 16.9261C33.0952 16.72 32.6264 16.85 32.4161 17.2168L30.4845 20.5875C30.2736 20.9555 30.403 21.4224 30.7733 21.6293C31.1423 21.8353 31.6112 21.7054 31.8214 21.3386L33.753 17.9678ZM28.9186 20.5523C29.1295 20.1842 29 19.7175 28.6297 19.5106C28.2606 19.3044 27.7918 19.4345 27.5815 19.8012L25.6499 23.1719C25.439 23.54 25.5684 24.0067 25.9387 24.2136C26.3079 24.4198 26.7767 24.2898 26.9868 23.9229L28.9186 20.5523Z" fill="#A6E3A1" stroke="#A6E3A1" stroke-width="0.25"/>
</g>
<defs>
<filter id="filter0_d_2_1075" x="-1.52002" y="0.915771" width="40.16" height="40.1599" filterUnits="userSpaceOnUse" color-interpolation-filters="sRGB">
<feFlood flood-opacity="0" result="BackgroundImageFix"/>
<feColorMatrix in="SourceAlpha" type="matrix" values="0 0 0 0 0 0 0 0 0 0 0 0 0 0 0 0 0 0 127 0" result="hardAlpha"/>
<feOffset dy="4"/>
<feGaussianBlur stdDeviation="2"/>
<feComposite in2="hardAlpha" operator="out"/>
<feColorMatrix type="matrix" values="0 0 0 0 0 0 0 0 0 0 0 0 0 0 0 0 0 0 0.25 0"/>
<feBlend mode="normal" in2="BackgroundImageFix" result="effect1_dropShadow_2_1075"/>
<feBlend mode="normal" in="SourceGraphic" in2="effect1_dropShadow_2_1075" result="shape"/>
</filter>
</defs>
</svg>
