<svg width="38" height="36" viewBox="0 0 38 36" fill="none" xmlns="http://www.w3.org/2000/svg">
<g filter="url(#filter0_d_2_1081)">
<path d="M29.251 25.5897C29.7155 24.9884 30.642 24.4706 30.6167 23.7111V23.7111C30.6023 23.2763 30.2399 22.9283 29.8051 22.9283H29.7762C29.3267 22.9429 28.9789 23.3197 28.9935 23.769V23.769C29.0171 24.1244 29.1226 24.5248 28.9233 24.82C28.4398 25.5361 27.769 26.097 26.8483 26.581C26.08 26.9869 25.2829 27.1319 24.4857 27.0304C23.8335 26.9435 23.3262 26.6535 23.0073 26.1751C22.5435 25.4649 22.5 24.6967 22.8914 23.9285C23.1109 23.4893 23.4319 23.1423 23.6925 22.9168C23.7997 22.824 23.8547 22.699 23.8168 22.5625V22.5625C23.7513 22.3267 23.4601 22.1967 23.2774 22.3595C21.6197 23.8369 21.8493 25.6785 22.4421 26.581C22.9203 27.3058 23.8914 27.7551 24.9641 27.7551C25.2539 27.7551 25.5438 27.7262 25.8336 27.6537C27.2643 27.3743 28.4278 26.6553 29.251 25.5897ZM32.443 22.7545C31.3415 21.4643 29.7181 20.7541 27.8629 20.7541V20.7541C27.7208 20.7541 27.596 20.668 27.4976 20.5654C27.3514 20.4127 27.1438 20.3193 26.9208 20.3193H26.8917C26.4425 20.3338 26.0946 20.7106 26.1091 21.16C26.1236 21.5949 26.4859 21.9427 26.9208 21.9427H26.9497C27.1757 21.9325 27.3798 21.8275 27.5209 21.6693C27.626 21.5512 27.7627 21.4499 27.9208 21.4499V21.4499C29.0224 21.4499 30.066 21.7688 31.0082 22.392C31.7328 22.8704 32.2546 23.4936 32.5445 24.2474C32.7909 24.8562 32.7764 25.4504 32.5155 25.9578C32.1096 26.726 31.4285 27.1463 30.5298 27.1463C30.0716 27.1463 29.6313 27.0377 29.3238 26.9277C29.1917 26.8804 29.0594 26.8884 28.9518 26.9785V26.9785C28.7446 27.1517 28.7622 27.5025 29.0183 27.5879C29.4588 27.7347 29.9 27.8131 30.3269 27.8131C31.7184 27.8131 32.7475 27.0449 33.1388 26.2767C33.5591 25.436 33.5302 23.9865 32.443 22.7545ZM25.08 24.7981C25.0945 25.233 25.4568 25.5808 25.8916 25.5808H25.9207C26.37 25.5664 26.7179 25.1895 26.7033 24.7401C26.6888 24.3053 26.3265 23.9574 25.8916 23.9574H25.8627V23.9574C25.8043 23.9574 25.7379 23.9334 25.7087 23.8829C25.1525 22.9219 24.9231 21.879 25.0075 20.7541C25.0655 19.8845 25.3554 19.1307 25.8627 18.5074C26.283 17.9711 27.0947 17.7102 27.6454 17.6957C29.0344 17.6694 29.7007 19.2306 29.848 20.0981C29.873 20.2454 29.9573 20.3661 30.1008 20.4078V20.4078C30.3312 20.4747 30.582 20.3009 30.5434 20.0641C30.2146 18.0443 28.8761 17 27.5875 17C26.283 17 25.08 17.9422 24.6016 19.3336C23.9949 21.0222 24.3005 22.6508 24.9722 23.9897C25.0926 24.2298 25.0557 24.5307 25.08 24.7981V24.7981Z" fill="#F9E2AF" stroke="#F9E2AF" stroke-width="0.25"/>
<path d="M19.5 26.2158H7.70002C6.2199 26.2158 5.02002 25.016 5.02002 23.5358V10.1358C5.02002 8.65569 6.2199 7.45581 7.70002 7.45581H11.4304C12.0509 7.45581 12.6521 7.67108 13.1315 8.06491L16.3385 10.6992C16.8179 11.093 17.4192 11.3083 18.0396 11.3083H26.46C27.9402 11.3083 29.14 12.5082 29.14 13.9883" stroke="#6C7086" stroke-width="2" stroke-linecap="round"/>
</g>
<defs>
<filter id="filter0_d_2_1081" x="-1.19995" y="0.915771" width="40.16" height="40.1599" filterUnits="userSpaceOnUse" color-interpolation-filters="sRGB">
<feFlood flood-opacity="0" result="BackgroundImageFix"/>
<feColorMatrix in="SourceAlpha" type="matrix" values="0 0 0 0 0 0 0 0 0 0 0 0 0 0 0 0 0 0 127 0" result="hardAlpha"/>
<feOffset dy="4"/>
<feGaussianBlur stdDeviation="2"/>
<feComposite in2="hardAlpha" operator="out"/>
<feColorMatrix type="matrix" values="0 0 0 0 0 0 0 0 0 0 0 0 0 0 0 0 0 0 0.25 0"/>
<feBlend mode="normal" in2="BackgroundImageFix" result="effect1_dropShadow_2_1081"/>
<feBlend mode="normal" in="SourceGraphic" in2="effect1_dropShadow_2_1081" result="shape"/>
</filter>
</defs>
</svg>
