<svg width="33" height="33" viewBox="0 0 33 33" fill="none" xmlns="http://www.w3.org/2000/svg">
<g clip-path="url(#clip0_2_1246)">
<path fill-rule="evenodd" clip-rule="evenodd" d="M7.02 6.16016C4.79982 6.16016 3 7.95998 3 10.1802V23.5802C3 25.8004 4.79982 27.6002 7.02 27.6002H17.74V24.9202H7.02C6.27994 24.9202 5.68 24.3202 5.68 23.5802V10.1802C5.68 9.4401 6.27994 8.84016 7.02 8.84016H10.7504C11.0606 8.84016 11.3612 8.9478 11.601 9.1447L14.8079 11.779C15.5271 12.3697 16.4289 12.6927 17.3596 12.6927H25.78C26.5201 12.6927 27.12 13.2926 27.12 14.0327V14.2002H29.8V14.0327C29.8 11.8125 28.0002 10.0127 25.78 10.0127H17.3596C17.0494 10.0127 16.7488 9.90501 16.5091 9.70811L13.3021 7.07379C12.5829 6.48307 11.6811 6.16016 10.7504 6.16016H7.02Z" fill="#6C7086"/>
<path fill-rule="evenodd" clip-rule="evenodd" d="M25.78 20.7511C24.9578 20.7511 24.2911 21.4177 24.2911 22.24C24.2911 23.0622 24.9578 23.7288 25.78 23.7288C26.6022 23.7288 27.2689 23.0622 27.2689 22.24C27.2689 21.4177 26.6022 20.7511 25.78 20.7511ZM22.8022 22.24C22.8022 20.5954 24.1354 19.2622 25.78 19.2622C27.4246 19.2622 28.7577 20.5954 28.7577 22.24C28.7577 23.8845 27.4246 25.2177 25.78 25.2177C24.1354 25.2177 22.8022 23.8845 22.8022 22.24Z" fill="#CBA6F7"/>
<path fill-rule="evenodd" clip-rule="evenodd" d="M25.7801 17.0289C22.902 17.0289 20.569 19.362 20.569 22.24C20.569 25.1181 22.902 27.4512 25.7801 27.4512C28.6581 27.4512 30.9912 25.1181 30.9912 22.24C30.9912 19.362 28.6581 17.0289 25.7801 17.0289ZM19.0801 22.24C19.0801 18.5398 22.0798 15.54 25.7801 15.54C29.4804 15.54 32.4801 18.5398 32.4801 22.24C32.4801 25.9403 29.4804 28.94 25.7801 28.94C22.0798 28.94 19.0801 25.9403 19.0801 22.24Z" fill="#CBA6F7"/>
</g>
<defs>
<clipPath id="clip0_2_1246">
<rect width="32.16" height="32.16" fill="white" transform="translate(0.320068 0.800049)"/>
</clipPath>
</defs>
</svg>
