<svg width="33" height="33" viewBox="0 0 33 33" fill="none" xmlns="http://www.w3.org/2000/svg">
<g clip-path="url(#clip0_2_1209)">
<path fill-rule="evenodd" clip-rule="evenodd" d="M7.17991 6C4.95973 6 3.15991 7.79982 3.15991 10.02V23.42C3.15991 25.6402 4.95973 27.44 7.17991 27.44H17.8999V24.76H7.17991C6.43986 24.76 5.83991 24.1601 5.83991 23.42V10.02C5.83991 9.27994 6.43986 8.68 7.17991 8.68H10.9103C11.2205 8.68 11.5212 8.78764 11.7609 8.98454L14.9679 11.6189C15.687 12.2096 16.5889 12.5325 17.5195 12.5325H25.9399C26.68 12.5325 27.2799 13.1324 27.2799 13.8725V14.04H29.9599V13.8725C29.9599 11.6523 28.1602 9.8525 25.9399 9.8525H17.5195C17.2093 9.8525 16.9087 9.74486 16.669 9.54796L13.462 6.91364C12.7428 6.32291 11.841 6 10.9103 6H7.17991Z" fill="#6C7086"/>
<path d="M27.28 26.0998C29.5002 26.0998 31.3 24.3 31.3 22.0798C31.3 19.8596 29.5002 18.0598 27.28 18.0598C25.0598 18.0598 23.26 19.8596 23.26 22.0798C23.26 24.3 25.0598 26.0998 27.28 26.0998Z" stroke="#F38BA8" stroke-width="2"/>
</g>
<defs>
<clipPath id="clip0_2_1209">
<rect width="32.16" height="32.16" fill="white" transform="translate(0.47998 0.639893)"/>
</clipPath>
</defs>
</svg>
