<svg width="33" height="33" viewBox="0 0 33 33" fill="none" xmlns="http://www.w3.org/2000/svg">
<g clip-path="url(#clip0_2_1062)">
<path fill-rule="evenodd" clip-rule="evenodd" d="M6.69993 5.52002C4.47975 5.52002 2.67993 7.31984 2.67993 9.54002V22.94C2.67993 25.1603 4.47975 26.96 6.69993 26.96H17.4199V24.28H6.69993C5.95988 24.28 5.35993 23.6801 5.35993 22.94V9.54002C5.35993 8.79996 5.95988 8.20002 6.69993 8.20002H10.4303C10.7406 8.20002 11.0412 8.30766 11.2809 8.50456L14.4879 11.1389C15.2071 11.7296 16.1089 12.0525 17.0395 12.0525H25.4599C26.2 12.0525 26.7999 12.6525 26.7999 13.3925V13.56H29.4799V13.3925C29.4799 11.1723 27.6802 9.37252 25.4599 9.37252H17.0395C16.7293 9.37252 16.4287 9.26488 16.189 9.06798L12.982 6.43366C12.2628 5.84293 11.361 5.52002 10.4303 5.52002H6.69993Z" fill="#6C7086"/>
<path d="M25.9788 20.5192C27.336 20.5192 28.4362 19.419 28.4362 18.0619C28.4362 16.7047 27.336 15.6045 25.9788 15.6045C24.6217 15.6045 23.5215 16.7047 23.5215 18.0619C23.5215 19.419 24.6217 20.5192 25.9788 20.5192Z" fill="#CBA6F7"/>
<path d="M22.255 26.9599C23.6121 26.9599 24.7123 25.8597 24.7123 24.5025C24.7123 23.1454 23.6121 22.0452 22.255 22.0452C20.8978 22.0452 19.7976 23.1454 19.7976 24.5025C19.7976 25.8597 20.8978 26.9599 22.255 26.9599Z" fill="#CBA6F7"/>
<path d="M29.7027 26.9599C31.0599 26.9599 32.1601 25.8597 32.1601 24.5025C32.1601 23.1454 31.0599 22.0452 29.7027 22.0452C28.3456 22.0452 27.2454 23.1454 27.2454 24.5025C27.2454 25.8597 28.3456 26.9599 29.7027 26.9599Z" fill="#CBA6F7"/>
</g>
<defs>
<clipPath id="clip0_2_1062">
<rect width="32.16" height="32.16" fill="white" transform="translate(0 0.159912)"/>
</clipPath>
</defs>
</svg>
