<svg width="33" height="33" viewBox="0 0 33 33" fill="none" xmlns="http://www.w3.org/2000/svg">
<g clip-path="url(#clip0_2_1156)">
<path fill-rule="evenodd" clip-rule="evenodd" d="M6.85984 5.84009C4.63966 5.84009 2.83984 7.63991 2.83984 9.86009V23.2601C2.83984 25.4803 4.63966 27.2801 6.85984 27.2801H18.9198V24.6001H6.85984C6.11979 24.6001 5.51984 24.0002 5.51984 23.2601V9.86009C5.51984 9.12003 6.11979 8.52009 6.85984 8.52009H10.5902C10.9005 8.52009 11.2011 8.62773 11.4408 8.82463L14.6478 11.4589C15.367 12.0497 16.2688 12.3726 17.1994 12.3726H25.6198C26.3599 12.3726 26.9598 12.9725 26.9598 13.7126V13.8801H29.6398V13.7126C29.6398 11.4924 27.8401 9.69259 25.6198 9.69259H17.1994C16.8892 9.69259 16.5886 9.58495 16.3489 9.38805L13.1419 6.75373C12.4227 6.163 11.5209 5.84009 10.5902 5.84009H6.85984Z" fill="#6C7086"/>
<path d="M26.9599 27.2801C29.9201 27.2801 32.3199 24.8803 32.3199 21.9201C32.3199 18.9598 29.9201 16.5601 26.9599 16.5601C23.9996 16.5601 21.5999 18.9598 21.5999 21.9201C21.5999 24.8803 23.9996 27.2801 26.9599 27.2801Z" fill="#FAB387"/>
</g>
<defs>
<clipPath id="clip0_2_1156">
<rect width="32.16" height="32.16" fill="white" transform="translate(0.159912 0.47998)"/>
</clipPath>
</defs>
</svg>
