<svg width="33" height="33" viewBox="0 0 33 33" fill="none" xmlns="http://www.w3.org/2000/svg">
<g clip-path="url(#clip0_2_1204)">
<path fill-rule="evenodd" clip-rule="evenodd" d="M7.02 6C4.79982 6 3 7.79982 3 10.02V23.42C3 25.6402 4.79982 27.44 7.02 27.44H13.72V24.76H7.02C6.27994 24.76 5.68 24.1601 5.68 23.42V10.02C5.68 9.27994 6.27994 8.68 7.02 8.68H10.7504C11.0606 8.68 11.3612 8.78764 11.601 8.98454L14.8079 11.6189C15.5271 12.2096 16.4289 12.5325 17.3596 12.5325H25.78C26.5201 12.5325 27.12 13.1324 27.12 13.8725V14.04H29.8V13.8725C29.8 11.6523 28.0002 9.8525 25.78 9.8525H17.3596C17.0494 9.8525 16.7488 9.74486 16.5091 9.54796L13.3021 6.91364C12.5829 6.32291 11.6811 6 10.7504 6H7.02Z" fill="#6C7086"/>
<path d="M20.6154 19.1279L17.74 22.0033L20.6154 24.8787" stroke="#F38BA8" stroke-width="1.5" stroke-linecap="round" stroke-linejoin="round"/>
<path d="M28.5627 19.1279L31.4381 22.0033L28.5627 24.8787" stroke="#F38BA8" stroke-width="1.5" stroke-linecap="round" stroke-linejoin="round"/>
<path d="M22.5125 26.7956L26.6658 17.2109" stroke="#F38BA8" stroke-width="1.5" stroke-linecap="round" stroke-linejoin="round"/>
</g>
<defs>
<clipPath id="clip0_2_1204">
<rect width="32.16" height="32.16" fill="white" transform="translate(0.320068 0.639893)"/>
</clipPath>
</defs>
</svg>
