<svg width="39" height="36" viewBox="0 0 39 36" fill="none" xmlns="http://www.w3.org/2000/svg">
<g clip-path="url(#clip0_2_1151)" filter="url(#filter0_d_2_1151)">
<path d="M27.8472 16.156C27.0835 16.156 26.4647 16.7748 26.4647 17.5386V17.5386C26.4647 17.9967 26.0934 18.3681 25.6353 18.3681H24.2526C23.6415 18.3681 23.1466 18.8631 23.1466 19.4741V21.1332C23.1466 21.4384 23.3944 21.6862 23.6996 21.6862H23.8973C24.6206 21.6862 25.2787 22.2066 25.351 22.9262C25.434 23.7541 24.7869 24.4513 23.9761 24.4513H23.6996C23.3944 24.4513 23.1466 24.699 23.1466 25.0043V26.6633C23.1466 27.2745 23.6415 27.7694 24.2526 27.7694H25.9117C26.2169 27.7694 26.4647 27.5216 26.4647 27.2164V27.0187C26.4647 26.2954 26.9852 25.6373 27.7046 25.565C28.5326 25.482 29.2298 26.1291 29.2298 26.9399V27.2164C29.2298 27.5216 29.4776 27.7694 29.7828 27.7694H31.4419C32.0529 27.7694 32.5479 27.2745 32.5479 26.6633V25.2807C32.5479 24.8226 32.9193 24.4513 33.3774 24.4513V24.4513C34.1412 24.4513 34.76 23.8325 34.76 23.0688C34.76 22.305 34.1412 21.6862 33.3774 21.6862V21.6862C32.9193 21.6862 32.5479 21.3148 32.5479 20.8567V19.4741C32.5479 18.8631 32.0529 18.3681 31.4419 18.3681H30.0593C29.6012 18.3681 29.2298 17.9967 29.2298 17.5386V17.5386C29.2298 16.7748 28.611 16.156 27.8472 16.156Z" fill="#89DCEB"/>
<path d="M20 24.2158H7.68C6.19988 24.2158 5 23.016 5 21.5358V8.13581C5 6.65569 6.19988 5.45581 7.68 5.45581H11.4104C12.0308 5.45581 12.6321 5.67108 13.1115 6.06491L16.3184 8.69921C16.7979 9.09304 17.3992 9.30831 18.0196 9.30831H26.44C27.9202 9.30831 29.12 10.5082 29.12 11.9883" stroke="#6C7086" stroke-width="2" stroke-linecap="round"/>
</g>
<defs>
<filter id="filter0_d_2_1151" x="-1.40002" y="0.0759277" width="40.16" height="40.1599" filterUnits="userSpaceOnUse" color-interpolation-filters="sRGB">
<feFlood flood-opacity="0" result="BackgroundImageFix"/>
<feColorMatrix in="SourceAlpha" type="matrix" values="0 0 0 0 0 0 0 0 0 0 0 0 0 0 0 0 0 0 127 0" result="hardAlpha"/>
<feOffset dy="4"/>
<feGaussianBlur stdDeviation="2"/>
<feComposite in2="hardAlpha" operator="out"/>
<feColorMatrix type="matrix" values="0 0 0 0 0 0 0 0 0 0 0 0 0 0 0 0 0 0 0.25 0"/>
<feBlend mode="normal" in2="BackgroundImageFix" result="effect1_dropShadow_2_1151"/>
<feBlend mode="normal" in="SourceGraphic" in2="effect1_dropShadow_2_1151" result="shape"/>
</filter>
<clipPath id="clip0_2_1151">
<rect width="32.16" height="32.16" fill="white" transform="translate(2.59998 0.0759277)"/>
</clipPath>
</defs>
</svg>
