<svg width="33" height="33" viewBox="0 0 33 33" fill="none" xmlns="http://www.w3.org/2000/svg">
<path d="M19.2 16.4001C19.2 15.66 19.7999 15.0601 20.54 15.0601H29.92C30.66 15.0601 31.26 15.66 31.26 16.4001V25.7801C31.26 26.5201 30.66 27.1201 29.92 27.1201H20.54C19.7999 27.1201 19.2 26.5201 19.2 25.7801V16.4001ZM22.2963 19.2021C21.1918 19.2021 20.2963 20.0976 20.2963 21.2021V24.0237C20.2963 25.1282 21.1918 26.0237 22.2963 26.0237H28.1636C29.2681 26.0237 30.1636 25.1282 30.1636 24.0237V21.2021C30.1636 20.0976 29.2681 19.2021 28.1636 19.2021H22.2963ZM29.1889 18.1057C29.7272 18.1057 30.1636 17.6694 30.1636 17.1311C30.1636 16.5928 29.7272 16.1564 29.1889 16.1564H21.271C20.7327 16.1564 20.2963 16.5928 20.2963 17.1311C20.2963 17.6694 20.7327 18.1057 21.271 18.1057H29.1889ZM21.9409 21.0911C21.9409 20.7878 22.1868 20.5419 22.4902 20.5419C22.7936 20.5419 23.0395 20.7878 23.0395 21.0911C23.0395 21.3945 22.7936 21.6404 22.4902 21.6404C22.1868 21.6404 21.9409 21.3945 21.9409 21.0911ZM24.1336 21.0911C24.1336 20.7878 24.3795 20.5419 24.6828 20.5419C24.9862 20.5419 25.2321 20.7878 25.2321 21.0911C25.2321 21.3945 24.9862 21.6404 24.6828 21.6404C24.3795 21.6404 24.1336 21.3945 24.1336 21.0911ZM26.3263 21.0911C26.3263 20.7878 26.5722 20.5419 26.8756 20.5419C27.179 20.5419 27.4249 20.7878 27.4249 21.0911C27.4249 21.3945 27.179 21.6404 26.8756 21.6404C26.5722 21.6404 26.3263 21.3945 26.3263 21.0911Z" fill="#F38BA8" stroke="#F38BA8" stroke-width="0.5"/>
<path fill-rule="evenodd" clip-rule="evenodd" d="M7.13987 5.68018C4.91969 5.68018 3.11987 7.48 3.11987 9.70018V23.1002C3.11987 25.3204 4.91969 27.1202 7.13987 27.1202H17.8599V24.4402H7.13987C6.39982 24.4402 5.79987 23.8403 5.79987 23.1002V9.70018C5.79987 8.96012 6.39982 8.36018 7.13987 8.36018H10.8703C11.1805 8.36018 11.4811 8.46782 11.7208 8.66472L14.9278 11.299C15.647 11.8898 16.5488 12.2127 17.4794 12.2127H25.8999C26.64 12.2127 27.2399 12.8126 27.2399 13.5527V13.7202H29.9199V13.5527C29.9199 11.3325 28.1201 9.53268 25.8999 9.53268H17.4794C17.1692 9.53268 16.8687 9.42503 16.6289 9.22813L13.4219 6.59381C12.7028 6.00309 11.8009 5.68018 10.8703 5.68018H7.13987Z" fill="#6C7086"/>
</svg>
