<svg width="33" height="33" viewBox="0 0 33 33" fill="none" xmlns="http://www.w3.org/2000/svg">
<g clip-path="url(#clip0_2_1067)">
<path d="M28.635 18.585H22.605V24.615H28.635V18.585Z" fill="#89DCEB"/>
<path fill-rule="evenodd" clip-rule="evenodd" d="M23.1074 15.0674C23.2407 15.0674 23.3684 15.1203 23.4628 15.2145C23.557 15.3089 23.6099 15.4366 23.6099 15.5699C23.6099 15.8474 23.8349 16.0724 24.1124 16.0724H24.6149C24.8924 16.0724 25.1174 15.8474 25.1174 15.5699C25.1174 15.4366 25.1703 15.3089 25.2645 15.2145C25.3589 15.1203 25.4866 15.0674 25.6199 15.0674C25.7532 15.0674 25.8809 15.1203 25.9753 15.2145C26.0695 15.3089 26.1224 15.4366 26.1224 15.5699C26.1224 15.8474 26.3474 16.0724 26.6249 16.0724H27.1274C27.4049 16.0724 27.6299 15.8474 27.6299 15.5699C27.6299 15.4366 27.6828 15.3089 27.777 15.2145C27.8714 15.1203 27.9991 15.0674 28.1324 15.0674C28.2657 15.0674 28.3934 15.1203 28.4878 15.2145C28.582 15.3089 28.6349 15.4366 28.6349 15.5699C28.6349 15.8474 28.8599 16.0724 29.1374 16.0724C29.6705 16.0724 30.1818 16.2841 30.5587 16.661C30.9357 17.038 31.1474 17.5493 31.1474 18.0824C31.1474 18.3599 31.3724 18.5849 31.6499 18.5849C31.7832 18.5849 31.9109 18.6378 32.0053 18.732C32.0995 18.8264 32.1524 18.9541 32.1524 19.0874C32.1524 19.2207 32.0995 19.3484 32.0053 19.4427C31.9109 19.537 31.7832 19.5899 31.6499 19.5899C31.3724 19.5899 31.1474 19.8149 31.1474 20.0924V20.5949C31.1474 20.8724 31.3724 21.0974 31.6499 21.0974C31.7832 21.0974 31.9109 21.1503 32.0053 21.2445C32.0995 21.3389 32.1524 21.4666 32.1524 21.5999C32.1524 21.7332 32.0995 21.8609 32.0053 21.9552C31.9109 22.0495 31.7832 22.1024 31.6499 22.1024C31.3724 22.1024 31.1474 22.3274 31.1474 22.6049V23.1074C31.1474 23.3849 31.3724 23.6099 31.6499 23.6099C31.7832 23.6099 31.9109 23.6628 32.0053 23.757C32.0995 23.8514 32.1524 23.9791 32.1524 24.1124C32.1524 24.2457 32.0995 24.3734 32.0053 24.4677C31.9109 24.562 31.7832 24.6149 31.6499 24.6149C31.3724 24.6149 31.1474 24.8399 31.1474 25.1174C31.1474 25.6504 30.9357 26.1618 30.5587 26.5387C30.1818 26.9157 29.6705 27.1274 29.1374 27.1274C28.8599 27.1274 28.6349 27.3524 28.6349 27.6299C28.6349 27.7632 28.582 27.8909 28.4878 27.9852C28.3934 28.0795 28.2657 28.1324 28.1324 28.1324C27.9991 28.1324 27.8714 28.0795 27.777 27.9852C27.6828 27.8909 27.6299 27.7632 27.6299 27.6299C27.6299 27.3524 27.4049 27.1274 27.1274 27.1274H26.6249C26.3474 27.1274 26.1224 27.3524 26.1224 27.6299C26.1224 27.7632 26.0695 27.8909 25.9753 27.9852C25.8809 28.0795 25.7532 28.1324 25.6199 28.1324C25.4866 28.1324 25.3589 28.0795 25.2645 27.9852C25.1703 27.8909 25.1174 27.7632 25.1174 27.6299C25.1174 27.3524 24.8924 27.1274 24.6149 27.1274H24.1124C23.8349 27.1274 23.6099 27.3524 23.6099 27.6299C23.6099 27.7632 23.557 27.8909 23.4628 27.9852C23.3684 28.0795 23.2407 28.1324 23.1074 28.1324C22.9741 28.1324 22.8464 28.0795 22.752 27.9852C22.6578 27.8909 22.6049 27.7632 22.6049 27.6299C22.6049 27.3524 22.3799 27.1274 22.1024 27.1274C21.5694 27.1274 21.058 26.9157 20.6811 26.5387C20.3041 26.1618 20.0924 25.6504 20.0924 25.1174C20.0924 24.8399 19.8674 24.6149 19.5899 24.6149C19.4566 24.6149 19.3289 24.562 19.2345 24.4677C19.1403 24.3734 19.0874 24.2457 19.0874 24.1124C19.0874 23.9791 19.1403 23.8514 19.2345 23.757C19.3289 23.6628 19.4566 23.6099 19.5899 23.6099C19.8674 23.6099 20.0924 23.3849 20.0924 23.1074V22.6049C20.0924 22.3274 19.8674 22.1024 19.5899 22.1024C19.4566 22.1024 19.3289 22.0495 19.2345 21.9552C19.1403 21.8609 19.0874 21.7332 19.0874 21.5999C19.0874 21.4666 19.1403 21.3389 19.2345 21.2445C19.3289 21.1503 19.4566 21.0974 19.5899 21.0974C19.8674 21.0974 20.0924 20.8724 20.0924 20.5949V20.0924C20.0924 19.8149 19.8674 19.5899 19.5899 19.5899C19.4566 19.5899 19.3289 19.537 19.2345 19.4427C19.1403 19.3484 19.0874 19.2207 19.0874 19.0874C19.0874 18.9541 19.1403 18.8264 19.2345 18.732C19.3289 18.6378 19.4566 18.5849 19.5899 18.5849C19.8674 18.5849 20.0924 18.3599 20.0924 18.0824C20.0924 17.5493 20.3041 17.038 20.6811 16.661C21.058 16.2841 21.5694 16.0724 22.1024 16.0724C22.3799 16.0724 22.6049 15.8474 22.6049 15.5699C22.6049 15.4366 22.6578 15.3089 22.752 15.2145C22.8464 15.1203 22.9741 15.0674 23.1074 15.0674ZM21.5999 18.0824C21.5999 17.9491 21.6528 17.8214 21.747 17.727C21.8414 17.6328 21.9691 17.5799 22.1024 17.5799H29.1374C29.2707 17.5799 29.3984 17.6328 29.4928 17.727C29.587 17.8214 29.6399 17.9491 29.6399 18.0824V25.1174C29.6399 25.2507 29.587 25.3784 29.4928 25.4727C29.3984 25.567 29.2707 25.6199 29.1374 25.6199H22.1024C21.9691 25.6199 21.8414 25.567 21.747 25.4727C21.6528 25.3784 21.5999 25.2507 21.5999 25.1174V18.0824Z" fill="#89DCEB"/>
<path fill-rule="evenodd" clip-rule="evenodd" d="M6.85984 5.52002C4.63966 5.52002 2.83984 7.31984 2.83984 9.54002V22.94C2.83984 25.1603 4.63966 26.96 6.85984 26.96H17.5798V24.28H6.85984C6.11979 24.28 5.51984 23.6801 5.51984 22.94V9.54002C5.51984 8.79996 6.11979 8.20002 6.85984 8.20002H10.5902C10.9005 8.20002 11.2011 8.30766 11.4408 8.50456L14.6478 11.1389C15.367 11.7296 16.2688 12.0525 17.1994 12.0525H25.6198C26.3599 12.0525 26.9598 12.6525 26.9598 13.3925V13.56H29.6398V13.3925C29.6398 11.1723 27.8401 9.37252 25.6198 9.37252H17.1994C16.8892 9.37252 16.5886 9.26488 16.3489 9.06798L13.1419 6.43366C12.4227 5.84293 11.5209 5.52002 10.5902 5.52002H6.85984Z" fill="#6C7086"/>
</g>
<defs>
<clipPath id="clip0_2_1067">
<rect width="32.16" height="32.16" fill="white" transform="translate(0.159912 0.159912)"/>
</clipPath>
</defs>
</svg>
