<svg width="33" height="33" viewBox="0 0 33 33" fill="none" xmlns="http://www.w3.org/2000/svg">
<g clip-path="url(#clip0_2_1028)">
<path fill-rule="evenodd" clip-rule="evenodd" d="M7.02 5.36011C4.79982 5.36011 3 7.15993 3 9.38011V22.7801C3 25.0004 4.79982 26.8001 7.02 26.8001H17.74V24.1201H7.02C6.27994 24.1201 5.68 23.5202 5.68 22.7801V9.38011C5.68 8.64005 6.27994 8.04011 7.02 8.04011H10.7504C11.0606 8.04011 11.3612 8.14775 11.601 8.34465L14.8079 10.979C15.5271 11.5697 16.4289 11.8926 17.3596 11.8926H25.78C26.5201 11.8926 27.12 12.4926 27.12 13.2326V13.4001H29.8V13.2326C29.8 11.0124 28.0002 9.21261 25.78 9.21261H17.3596C17.0494 9.21261 16.7488 9.10496 16.5091 8.90807L13.3021 6.27375C12.5829 5.68302 11.6811 5.36011 10.7504 5.36011H7.02Z" fill="#6C7086"/>
<path fill-rule="evenodd" clip-rule="evenodd" d="M31.2761 16.228L29.8261 17.6784C31.308 18.9172 32.2524 20.7788 32.2524 22.8567V24.1554C32.2524 24.5593 31.9249 24.8865 31.5212 24.8865H19.6204C19.3282 24.8865 18.7566 24.8865 18.7566 24.1554V22.857C18.7566 20.7788 19.701 18.9172 21.1832 17.6784L19.7329 16.228C19.4475 15.9426 19.4475 15.4796 19.7329 15.1939C20.0185 14.9083 20.4814 14.9083 20.7671 15.1939L22.426 16.8528C23.3496 16.3774 24.3964 16.1087 25.5044 16.1087C26.6126 16.1087 27.6594 16.3774 28.5829 16.8528L30.2419 15.1939C30.5277 14.9083 30.9905 14.9083 31.2761 15.1939C31.5615 15.4796 31.5615 15.9426 31.2761 16.228ZM20.2189 22.8567V23.424H30.7901V22.8567C30.7901 19.9422 28.4189 17.5712 25.5044 17.5712C22.5901 17.5712 20.2189 19.9422 20.2189 22.8567ZM23.555 21.365C23.8983 21.365 24.1765 21.087 24.1765 20.7436C24.1765 20.4001 23.8983 20.1219 23.555 20.1219C23.2116 20.1219 22.9334 20.4001 22.9334 20.7436C22.9334 21.087 23.2116 21.365 23.555 21.365ZM28.1736 20.6439C28.1736 20.9875 27.8951 21.2657 27.5519 21.2657C27.2086 21.2657 26.9302 20.9875 26.9302 20.6439C26.9302 20.3006 27.2086 20.0226 27.5519 20.0226C27.8951 20.0226 28.1736 20.3006 28.1736 20.6439Z" fill="#A6E3A1"/>
<path d="M29.8261 17.6783L29.684 17.5362C29.644 17.5762 29.6227 17.631 29.6253 17.6873C29.6278 17.7437 29.6538 17.7963 29.6971 17.8325L29.8261 17.6783ZM21.1833 17.6783L21.3122 17.8325C21.3556 17.7963 21.3816 17.7437 21.3841 17.6873C21.3867 17.631 21.3654 17.576 21.3254 17.5362L21.1833 17.6783ZM22.4261 16.8527L22.2841 16.9948C22.3459 17.0565 22.4405 17.0714 22.5182 17.0313L22.4261 16.8527ZM28.583 16.8527L28.491 17.0313C28.5687 17.0714 28.6633 17.0565 28.7251 16.9948L28.583 16.8527ZM20.219 23.4239H20.018C20.018 23.5349 20.1081 23.6249 20.219 23.6249V23.4239ZM30.7901 23.4239V23.6249C30.9011 23.6249 30.9911 23.5349 30.9911 23.4239H30.7901ZM29.9682 17.8205L31.4183 16.37L31.1341 16.0858L29.684 17.5362L29.9682 17.8205ZM32.4535 22.8566C32.4535 20.7163 31.4805 18.7993 29.955 17.5241L29.6971 17.8325C31.1356 19.0349 32.0515 20.8408 32.0515 22.8566H32.4535ZM32.4535 24.1553V22.8566H32.0515V24.1553H32.4535ZM31.5212 25.0874C32.0359 25.0874 32.4535 24.6703 32.4535 24.1553H32.0515C32.0515 24.4481 31.814 24.6854 31.5212 24.6854V25.0874ZM19.6204 25.0874H31.5212V24.6854H19.6204V25.0874ZM18.5557 24.1553C18.5557 24.364 18.5965 24.5371 18.6756 24.677C18.7555 24.8182 18.8673 24.9128 18.9878 24.9742C19.217 25.0909 19.482 25.0874 19.6204 25.0874V24.6854C19.4667 24.6854 19.2999 24.6821 19.1702 24.616C19.1112 24.5859 19.0619 24.5434 19.0255 24.4791C18.9882 24.4131 18.9577 24.3121 18.9577 24.1553H18.5557ZM18.5557 22.8569V24.1553H18.9577V22.8569H18.5557ZM21.0545 17.5241C19.5286 18.7993 18.5557 20.7163 18.5557 22.8569H18.9577C18.9577 20.8408 19.8736 19.0349 21.3122 17.8325L21.0545 17.5241ZM19.5908 16.37L21.0412 17.8205L21.3254 17.5362L19.875 16.0858L19.5908 16.37ZM19.5908 15.0516C19.2271 15.4157 19.2269 16.0061 19.5908 16.37L19.875 16.0858C19.6681 15.8789 19.6681 15.5431 19.8752 15.3358L19.5908 15.0516ZM20.9094 15.0516C20.5452 14.6875 19.9549 14.6875 19.5908 15.0516L19.8752 15.3358C20.0823 15.1288 20.4179 15.1288 20.6252 15.336L20.9094 15.0516ZM22.5683 16.7105L20.9094 15.0516L20.6252 15.336L22.2841 16.9948L22.5683 16.7105ZM25.5045 15.9076C24.3636 15.9076 23.2853 16.1843 22.3342 16.674L22.5182 17.0313C23.414 16.5702 24.4293 16.3096 25.5045 16.3096V15.9076ZM28.6749 16.674C27.7237 16.1843 26.6455 15.9076 25.5045 15.9076V16.3096C26.5799 16.3096 27.5952 16.5702 28.491 17.0313L28.6749 16.674ZM30.0998 15.0516L28.4408 16.7105L28.7251 16.9948L30.384 15.3358L30.0998 15.0516ZM31.4183 15.0518C31.0542 14.6877 30.4641 14.6877 30.0998 15.0516L30.384 15.3358C30.5913 15.1287 30.9271 15.1288 31.1341 15.3358L31.4183 15.0518ZM31.4183 16.37C31.7823 16.0061 31.7821 15.4158 31.4183 15.0518L31.1341 15.3358C31.3411 15.5431 31.341 15.8789 31.1341 16.0858L31.4183 16.37ZM20.42 23.4239V22.8566H20.018V23.4239H20.42ZM30.7901 23.2229H20.219V23.6249H30.7901V23.2229ZM30.5891 22.8566V23.4239H30.9911V22.8566H30.5891ZM25.5045 17.7721C28.3079 17.7721 30.5891 20.0532 30.5891 22.8566H30.9911C30.9911 19.8311 28.53 17.3701 25.5045 17.3701V17.7721ZM20.42 22.8566C20.42 20.0532 22.7011 17.7721 25.5045 17.7721V17.3701C22.4792 17.3701 20.018 19.8311 20.018 22.8566H20.42ZM23.9756 20.7435C23.9756 20.9758 23.7874 21.1639 23.5551 21.1639V21.5659C24.0095 21.5659 24.3776 21.1978 24.3776 20.7435H23.9756ZM23.5551 20.3228C23.7874 20.3228 23.9756 20.5109 23.9756 20.7435H24.3776C24.3776 20.289 24.0095 19.9208 23.5551 19.9208V20.3228ZM23.1344 20.7435C23.1344 20.5109 23.3227 20.3228 23.5551 20.3228V19.9208C23.1005 19.9208 22.7324 20.289 22.7324 20.7435H23.1344ZM23.5551 21.1639C23.3226 21.1639 23.1344 20.9758 23.1344 20.7435H22.7324C22.7324 21.1978 23.1007 21.5659 23.5551 21.5659V21.1639ZM27.552 21.4666C28.0061 21.4666 28.3746 21.0985 28.3746 20.6438H27.9726C27.9726 20.8763 27.7842 21.0646 27.552 21.0646V21.4666ZM26.7293 20.6438C26.7293 21.0985 27.0978 21.4666 27.552 21.4666V21.0646C27.3197 21.0646 27.1313 20.8763 27.1313 20.6438H26.7293ZM27.552 19.8215C27.0978 19.8215 26.7293 20.1895 26.7293 20.6438H27.1313C27.1313 20.4118 27.3195 20.2235 27.552 20.2235V19.8215ZM28.3746 20.6438C28.3746 20.1895 28.0061 19.8215 27.552 19.8215V20.2235C27.7844 20.2235 27.9726 20.4118 27.9726 20.6438H28.3746Z" fill="#A6E3A1"/>
</g>
<defs>
<clipPath id="clip0_2_1028">
<rect width="32.16" height="32.16" fill="white" transform="translate(0.320068)"/>
</clipPath>
</defs>
</svg>
