<svg width="33" height="33" viewBox="0 0 33 33" fill="none" xmlns="http://www.w3.org/2000/svg">
<path fill-rule="evenodd" clip-rule="evenodd" d="M6.82005 5.84009C4.59987 5.84009 2.80005 7.63991 2.80005 9.86009V23.2601C2.80005 25.4803 4.59987 27.2801 6.82005 27.2801H17.54V24.6001H6.82005C6.07999 24.6001 5.48005 24.0002 5.48005 23.2601V9.86009C5.48005 9.12003 6.07999 8.52009 6.82005 8.52009H10.5504C10.8607 8.52009 11.1613 8.62773 11.401 8.82463L14.608 11.4589C15.3272 12.0497 16.229 12.3726 17.1596 12.3726H25.58C26.3201 12.3726 26.92 12.9725 26.92 13.7126V13.8801H29.6V13.7126C29.6 11.4924 27.8003 9.69259 25.58 9.69259H17.1596C16.8494 9.69259 16.5489 9.58495 16.3091 9.38805L13.1021 6.75373C12.383 6.163 11.4811 5.84009 10.5504 5.84009H6.82005Z" fill="#6C7086"/>
<path d="M26.9201 25.9399C29.1403 25.9399 30.9401 24.1401 30.9401 21.9199C30.9401 19.6997 29.1403 17.8999 26.9201 17.8999C24.7 17.8999 22.9001 19.6997 22.9001 21.9199C22.9001 24.1401 24.7 25.9399 26.9201 25.9399Z" stroke="#FAB387" stroke-width="2"/>
</svg>
