<svg width="40" height="35" viewBox="0 0 40 35" fill="none" xmlns="http://www.w3.org/2000/svg">
<g clip-path="url(#clip0_2_1136)" filter="url(#filter0_d_2_1136)">
<mask id="mask0_2_1136" style="mask-type:luminance" maskUnits="userSpaceOnUse" x="3" y="0" width="33" height="33">
<path d="M3.12 0.0759277H35.28V32.2359H3.12V0.0759277Z" fill="white"/>
</mask>
<g mask="url(#mask0_2_1136)">
<path d="M22.6237 19.7726C22.3572 19.6086 22.014 19.8003 22.014 20.1133V24.8178C22.014 25.8643 22.8623 26.7139 23.9088 26.7139H33.3853C34.4318 26.7139 35.28 25.8643 35.28 24.8178V20.1133C35.28 19.8003 34.9369 19.6086 34.6704 19.7726L29.64 22.8681C29.0316 23.2433 28.2625 23.2433 27.6541 22.8681L22.6237 19.7726Z" fill="#F38BA8" fill-opacity="0.7"/>
<path d="M35.0937 18.3025C35.2097 18.2292 35.2832 18.1011 35.2674 17.9647C35.1584 17.0219 34.3574 16.29 33.3853 16.29H23.9088C22.9367 16.29 22.1357 17.0219 22.0267 17.9647C22.0109 18.1011 22.0844 18.2292 22.2004 18.3025L28.1499 22.0614C28.4554 22.249 28.8387 22.249 29.1442 22.0614L35.0937 18.3025Z" fill="#F38BA8"/>
</g>
<path d="M19 25.2158H7.68C6.19988 25.2158 5 24.016 5 22.5358V9.13581C5 7.65569 6.19988 6.45581 7.68 6.45581H11.4104C12.0308 6.45581 12.6321 6.67108 13.1115 7.06491L16.3184 9.69921C16.7979 10.093 17.3992 10.3083 18.0196 10.3083H26.44C27.9202 10.3083 29.12 11.5082 29.12 12.9883" stroke="#6C7086" stroke-width="2" stroke-linecap="round"/>
</g>
<defs>
<filter id="filter0_d_2_1136" x="-0.880005" y="0.0759277" width="40.16" height="40.1599" filterUnits="userSpaceOnUse" color-interpolation-filters="sRGB">
<feFlood flood-opacity="0" result="BackgroundImageFix"/>
<feColorMatrix in="SourceAlpha" type="matrix" values="0 0 0 0 0 0 0 0 0 0 0 0 0 0 0 0 0 0 127 0" result="hardAlpha"/>
<feOffset dy="4"/>
<feGaussianBlur stdDeviation="2"/>
<feComposite in2="hardAlpha" operator="out"/>
<feColorMatrix type="matrix" values="0 0 0 0 0 0 0 0 0 0 0 0 0 0 0 0 0 0 0.25 0"/>
<feBlend mode="normal" in2="BackgroundImageFix" result="effect1_dropShadow_2_1136"/>
<feBlend mode="normal" in="SourceGraphic" in2="effect1_dropShadow_2_1136" result="shape"/>
</filter>
<clipPath id="clip0_2_1136">
<rect width="32.16" height="32.16" fill="white" transform="translate(3.12 0.0759277)"/>
</clipPath>
</defs>
</svg>
