<svg width="33" height="33" viewBox="0 0 33 33" fill="none" xmlns="http://www.w3.org/2000/svg">
<path d="M27.4819 22.2918C27.9023 22.2483 28.2211 21.8859 28.2066 21.4511C28.1921 21.0163 27.8298 20.6683 27.3949 20.6683H27.366C26.9166 20.6829 26.5687 21.0597 26.5833 21.509C26.5978 21.7265 26.6847 21.9149 26.8151 22.0454C26.3224 23.0165 25.5687 23.7267 24.4381 24.321C23.6699 24.7269 22.8727 24.8719 22.0755 24.7704C21.4234 24.6835 20.916 24.3935 20.5971 23.9151C20.1334 23.2049 20.0898 22.4367 20.4812 21.6685C20.7566 21.1177 21.1914 20.7118 21.4668 20.5088C21.4088 20.3204 21.3218 20.0016 21.2784 19.7697C19.1767 21.2917 19.3941 23.3499 20.0319 24.321C20.5102 25.0458 21.4813 25.4951 22.5539 25.4951C22.8438 25.4951 23.1336 25.4662 23.4235 25.3937C25.2788 25.0313 26.6847 23.9297 27.4819 22.2918ZM30.0329 20.4945C28.9314 19.2043 27.308 18.4941 25.4527 18.4941H25.2208C25.0904 18.2332 24.8149 18.0593 24.5106 18.0593H24.4815C24.0323 18.0738 23.6845 18.4506 23.699 18.9C23.7134 19.3348 24.0758 19.6827 24.5106 19.6827H24.5395C24.8585 19.6682 25.1338 19.4652 25.2497 19.1899H25.5106C26.6123 19.1899 27.6558 19.5088 28.598 20.132C29.3227 20.6104 29.8445 21.2336 30.1343 21.9874C30.3807 22.5961 30.3663 23.1904 30.1054 23.6978C29.6995 24.466 29.0184 24.8863 28.1196 24.8863C27.5399 24.8863 26.9891 24.7124 26.6992 24.5819C26.5398 24.7269 26.2499 24.9588 26.0469 25.1038C26.6703 25.3937 27.308 25.5531 27.9167 25.5531C29.3082 25.5531 30.3373 24.7849 30.7286 24.0167C31.149 23.176 31.12 21.7265 30.0329 20.4945ZM22.6698 22.5381C22.6843 22.9729 23.0466 23.3208 23.4815 23.3208H23.5106C23.9599 23.3063 24.3077 22.9295 24.2931 22.4801C24.2786 22.0453 23.9163 21.6974 23.4815 21.6974H23.4525C23.4235 21.6974 23.38 21.6974 23.3511 21.7119C22.7568 20.7263 22.5104 19.6538 22.5973 18.4941C22.6554 17.6245 22.9452 16.8707 23.4525 16.2474C23.8729 15.7111 24.6845 15.4502 25.2353 15.4357C26.7717 15.4066 27.4239 17.32 27.4674 18.0882C27.6558 18.1317 27.9748 18.2332 28.1921 18.3057C28.0182 15.9575 26.5687 14.74 25.1774 14.74C23.8729 14.74 22.6698 15.6821 22.1915 17.0736C21.5248 18.929 21.9596 20.7118 22.7713 22.1178C22.6988 22.2192 22.6554 22.3787 22.6698 22.5381Z" fill="#CBA6F7" stroke="#CBA6F7" stroke-width="0.25"/>
<path fill-rule="evenodd" clip-rule="evenodd" d="M6.85984 5.36011C4.63966 5.36011 2.83984 7.15993 2.83984 9.38011V22.7801C2.83984 25.0004 4.63966 26.8001 6.85984 26.8001H17.5798V24.1201H6.85984C6.11979 24.1201 5.51984 23.5202 5.51984 22.7801V9.38011C5.51984 8.64005 6.11979 8.04011 6.85984 8.04011H10.5902C10.9005 8.04011 11.2011 8.14775 11.4408 8.34465L14.6478 10.979C15.367 11.5697 16.2688 11.8926 17.1994 11.8926H25.6198C26.3599 11.8926 26.9598 12.4926 26.9598 13.2326V13.4001H29.6398V13.2326C29.6398 11.0124 27.8401 9.21261 25.6198 9.21261H17.1994C16.8892 9.21261 16.5886 9.10496 16.3489 8.90807L13.1419 6.27375C12.4227 5.68302 11.5209 5.36011 10.5902 5.36011H6.85984Z" fill="#6C7086"/>
</svg>
