<svg width="33" height="33" viewBox="0 0 33 33" fill="none" xmlns="http://www.w3.org/2000/svg">
<g clip-path="url(#clip0_2_1121)">
<path fill-rule="evenodd" clip-rule="evenodd" d="M7.02 5.68018C4.79982 5.68018 3 7.48 3 9.70018V23.1002C3 25.3204 4.79982 27.1202 7.02 27.1202H19.08V24.4402H7.02C6.27994 24.4402 5.68 23.8403 5.68 23.1002V9.70018C5.68 8.96012 6.27994 8.36018 7.02 8.36018H10.7504C11.0606 8.36018 11.3612 8.46782 11.601 8.66472L14.8079 11.299C15.5271 11.8898 16.4289 12.2127 17.3596 12.2127H25.78C26.5201 12.2127 27.12 12.8126 27.12 13.5527V13.7202H29.8V13.5527C29.8 11.3325 28.0002 9.53268 25.78 9.53268H17.3596C17.0494 9.53268 16.7488 9.42503 16.5091 9.22813L13.3021 6.59381C12.5829 6.00309 11.6811 5.68018 10.7504 5.68018H7.02Z" fill="#6C7086"/>
<path d="M27.1201 25.78C29.3403 25.78 31.1401 23.9802 31.1401 21.76C31.1401 19.5398 29.3403 17.74 27.1201 17.74C24.8999 17.74 23.1001 19.5398 23.1001 21.76C23.1001 23.9802 24.8999 25.78 27.1201 25.78Z" stroke="#A6E3A1" stroke-width="2"/>
</g>
<defs>
<clipPath id="clip0_2_1121">
<rect width="32.16" height="32.16" fill="white" transform="translate(0.320068 0.320068)"/>
</clipPath>
</defs>
</svg>
