<svg width="38" height="37" viewBox="0 0 38 37" fill="none" xmlns="http://www.w3.org/2000/svg">
<g filter="url(#filter0_d_2_1099)">
<path fill-rule="evenodd" clip-rule="evenodd" d="M27.91 16.2188C24.5784 16.2188 21.88 19.0345 21.88 22.5109C21.88 25.0968 23.3689 27.3096 25.5014 28.2797C25.8288 28.4287 26.3567 28.5935 26.4131 28.2382C26.4161 28.2193 26.4175 28.2004 26.4175 28.1817V28.1817C26.4175 27.5737 25.8375 27.1695 25.2461 27.0281C24.6658 26.8893 24.4632 26.5076 24.3825 26.2705C24.3145 26.0896 24.0207 25.5311 23.7643 25.3817C23.5533 25.2637 23.2518 24.9727 23.7568 24.9648C24.2317 24.957 24.5709 25.4211 24.684 25.6097C25.151 26.4288 25.8581 26.3449 26.2672 26.2003C26.3774 26.1613 26.4544 26.0141 26.4834 25.9009V25.9009C26.5565 25.6148 26.3664 25.2268 26.0811 25.1506C25.011 24.8646 24.081 24.1409 24.081 22.1805C24.081 21.8637 24.131 21.5721 24.223 21.3066C24.4146 20.7534 24.5894 20.4017 24.5777 19.8164V19.8164C24.5681 19.3403 25.0485 18.7708 25.4912 18.9461C25.5352 18.9635 25.5813 18.9831 25.6296 19.005C26.1557 19.2435 26.7387 19.3524 27.3128 19.2885C27.5156 19.2659 27.7203 19.2547 27.925 19.2547C28.1258 19.2547 28.3267 19.2655 28.5257 19.2872C29.1068 19.3507 29.6965 19.238 30.2293 18.9976C30.2769 18.9761 30.3223 18.957 30.3657 18.9399C30.8052 18.7672 31.2804 19.3361 31.2725 19.8081V19.8081C31.2627 20.3982 31.4391 20.7549 31.6305 21.3132C31.7203 21.5753 31.7692 21.864 31.7692 22.1805C31.7692 23.844 31.1002 24.6153 30.2454 24.9857C29.7927 25.1818 29.425 25.9581 29.425 26.4514V26.4514C29.425 27.2929 29.4175 27.9693 29.4175 28.1817C29.4175 28.3468 29.5305 28.5435 29.832 28.4806C31.0291 28.0589 32.0692 27.2561 32.8062 26.1853C33.5431 25.1143 33.9396 23.8293 33.94 22.5109C33.94 19.0345 31.2415 16.2188 27.91 16.2188Z" fill="#BAC2DE"/>
<path d="M20 26.2158H7.70002C6.2199 26.2158 5.02002 25.016 5.02002 23.5358V10.1358C5.02002 8.65569 6.2199 7.45581 7.70002 7.45581H11.4304C12.0509 7.45581 12.6521 7.67108 13.1315 8.06491L16.3385 10.6992C16.8179 11.093 17.4192 11.3083 18.0396 11.3083H26.46C27.9402 11.3083 29.14 12.5082 29.14 13.9883" stroke="#6C7086" stroke-width="2" stroke-linecap="round"/>
</g>
<defs>
<filter id="filter0_d_2_1099" x="-0.880005" y="0.915771" width="40.16" height="40.1599" filterUnits="userSpaceOnUse" color-interpolation-filters="sRGB">
<feFlood flood-opacity="0" result="BackgroundImageFix"/>
<feColorMatrix in="SourceAlpha" type="matrix" values="0 0 0 0 0 0 0 0 0 0 0 0 0 0 0 0 0 0 127 0" result="hardAlpha"/>
<feOffset dy="4"/>
<feGaussianBlur stdDeviation="2"/>
<feComposite in2="hardAlpha" operator="out"/>
<feColorMatrix type="matrix" values="0 0 0 0 0 0 0 0 0 0 0 0 0 0 0 0 0 0 0.25 0"/>
<feBlend mode="normal" in2="BackgroundImageFix" result="effect1_dropShadow_2_1099"/>
<feBlend mode="normal" in="SourceGraphic" in2="effect1_dropShadow_2_1099" result="shape"/>
</filter>
</defs>
</svg>
