<svg width="33" height="33" viewBox="0 0 33 33" fill="none" xmlns="http://www.w3.org/2000/svg">
<path fill-rule="evenodd" clip-rule="evenodd" d="M24.9101 15.4629C21.5785 15.4629 18.8801 18.2786 18.8801 21.755C18.8801 24.3409 20.3691 26.5538 22.5015 27.5238C22.8289 27.6728 23.3568 27.8376 23.4132 27.4824C23.4162 27.4635 23.4176 27.4445 23.4176 27.4259C23.4176 26.8178 22.8376 26.4137 22.2462 26.2722C21.6659 26.1335 21.4634 25.7517 21.3826 25.5146C21.3146 25.3337 21.0208 24.7752 20.7644 24.6258C20.5534 24.5079 20.2519 24.2168 20.7569 24.2089C21.2318 24.2012 21.571 24.6652 21.6841 24.8539C22.1512 25.673 22.8583 25.589 23.2673 25.4444C23.3775 25.4055 23.4546 25.2583 23.4835 25.1451C23.5566 24.8589 23.3665 24.471 23.0812 24.3947C22.0111 24.1087 21.0811 23.385 21.0811 21.4247C21.0811 21.1078 21.1312 20.8163 21.2231 20.5508C21.4147 19.9976 21.5896 19.6458 21.5778 19.0605C21.5682 18.5845 22.0486 18.0149 22.4913 18.1902C22.5353 18.2077 22.5815 18.2272 22.6297 18.2491C23.1558 18.4876 23.7389 18.5966 24.3129 18.5327C24.5157 18.5101 24.7204 18.4988 24.9251 18.4988C25.126 18.4988 25.3268 18.5097 25.5258 18.5314C26.107 18.5949 26.6966 18.4822 27.2295 18.2417C27.277 18.2203 27.3225 18.2011 27.3659 18.1841C27.8053 18.0113 28.2805 18.5802 28.2726 19.0523C28.2628 19.6423 28.4392 19.9991 28.6306 20.5573C28.7204 20.8195 28.7693 21.1081 28.7693 21.4247C28.7693 23.0882 28.1004 23.8595 27.2455 24.2298C26.7928 24.4259 26.4251 25.2022 26.4251 25.6955C26.4251 26.5371 26.4176 27.2135 26.4176 27.4259C26.4176 27.591 26.5306 27.7877 26.8321 27.7247C28.0292 27.303 29.0694 26.5002 29.8064 25.4294C30.5432 24.3585 30.9397 23.0734 30.9401 21.755C30.9401 18.2786 28.2416 15.4629 24.9101 15.4629Z" fill="#9399B2"/>
<path fill-rule="evenodd" clip-rule="evenodd" d="M6.82005 5.52002C4.59987 5.52002 2.80005 7.31984 2.80005 9.54002V22.94C2.80005 25.1603 4.59987 26.96 6.82005 26.96H17.54V24.28H6.82005C6.07999 24.28 5.48005 23.6801 5.48005 22.94V9.54002C5.48005 8.79996 6.07999 8.20002 6.82005 8.20002H10.5504C10.8607 8.20002 11.1613 8.30766 11.401 8.50456L14.608 11.1389C15.3272 11.7296 16.229 12.0525 17.1596 12.0525H25.58C26.3201 12.0525 26.92 12.6525 26.92 13.3925V13.56H29.6V13.3925C29.6 11.1723 27.8003 9.37252 25.58 9.37252H17.1596C16.8494 9.37252 16.5489 9.26488 16.3091 9.06798L13.1021 6.43366C12.383 5.84293 11.4811 5.52002 10.5504 5.52002H6.82005Z" fill="#6C7086"/>
</svg>
