<svg width="33" height="33" viewBox="0 0 33 33" fill="none" xmlns="http://www.w3.org/2000/svg">
<path fill-rule="evenodd" clip-rule="evenodd" d="M7.02 5.52002C4.79982 5.52002 3 7.31984 3 9.54002V22.94C3 25.1603 4.79982 26.96 7.02 26.96H17.74V24.28H7.02C6.27994 24.28 5.68 23.6801 5.68 22.94V9.54002C5.68 8.79996 6.27994 8.20002 7.02 8.20002H10.7504C11.0606 8.20002 11.3612 8.30766 11.601 8.50456L14.8079 11.1389C15.5271 11.7296 16.4289 12.0525 17.3596 12.0525H25.78C26.5201 12.0525 27.12 12.6525 27.12 13.3925V13.56H29.8V13.3925C29.8 11.1723 28.0002 9.37252 25.78 9.37252H17.3596C17.0494 9.37252 16.7488 9.26488 16.5091 9.06798L13.3021 6.43366C12.5829 5.84293 11.6811 5.52002 10.7504 5.52002H7.02Z" fill="#6C7086"/>
<path d="M25.7804 20.7604C26.7288 20.7604 27.6216 20.6108 28.3049 20.3422C28.6443 20.2089 28.97 20.0315 29.2234 19.7962C29.4779 19.5598 29.7136 19.2099 29.7136 18.7589C29.7136 18.3078 29.4779 17.958 29.2234 17.7216C28.97 17.4863 28.6443 17.3089 28.3049 17.1754C27.6216 16.907 26.7288 16.7573 25.7804 16.7573C24.8323 16.7573 23.9394 16.907 23.256 17.1754C22.9166 17.3089 22.591 17.4863 22.3376 17.7216C22.0831 17.958 21.8474 18.3078 21.8474 18.7589C21.8474 19.2099 22.0831 19.5598 22.3376 19.7962C22.591 20.0315 22.9166 20.2089 23.256 20.3422C23.9394 20.6108 24.8323 20.7604 25.7804 20.7604Z" stroke="#F38BA8" stroke-width="1.12188"/>
<path d="M21.8521 25.9399V19.0049L22.5065 20.4402L22.8537 21.4472L25.6085 21.5745L29.4374 20.0512L29.7079 19.0049V25.9399C29.7079 26.8294 28.9867 27.5506 28.0973 27.5506H23.4627C22.5732 27.5506 21.8521 26.8294 21.8521 25.9399Z" fill="#F38BA8" stroke="#F38BA8" stroke-width="1.12188" stroke-linejoin="round"/>
</svg>
