<svg width="33" height="33" viewBox="0 0 33 33" fill="none" xmlns="http://www.w3.org/2000/svg">
<path fill-rule="evenodd" clip-rule="evenodd" d="M3.15991 10.1802C3.15991 7.95998 4.95973 6.16016 7.17991 6.16016H10.9103C11.841 6.16016 12.7428 6.48307 13.462 7.07379L16.669 9.70811C16.9087 9.90501 17.2093 10.0127 17.5195 10.0127H25.9399C26.0588 10.0127 26.1764 10.0178 26.2927 10.0279V12.7396C26.1803 12.709 26.062 12.6927 25.9399 12.6927H17.5195C16.5889 12.6927 15.687 12.3697 14.9679 11.779L11.7609 9.1447C11.5212 8.9478 11.2205 8.84016 10.9103 8.84016H7.17991C6.43986 8.84016 5.83991 9.4401 5.83991 10.1802V23.5802C5.83991 24.3202 6.43986 24.9202 7.17991 24.9202H17.8999V27.6002H7.17991C4.95973 27.6002 3.15991 25.8004 3.15991 23.5802V10.1802Z" fill="#6C7086"/>
<path d="M26.7423 17.8627C27.5917 17.1601 27.9683 13.007 28.3361 11.5141C28.4664 10.9855 28.7413 10.6535 29.0421 10.4452C29.513 10.1191 29.8196 10.7505 29.9912 11.2971C30.0942 11.6254 30.5834 11.9314 30.9222 12.1091C31.1048 12.2048 31.1976 12.4215 31.1245 12.6143C31.0619 12.7794 30.888 12.8795 30.7227 12.9415C30.5633 13.0013 30.37 13.1339 30.225 13.4239C29.9856 13.9023 30.2581 17.8269 30.3709 19.3089C30.399 19.6782 30.3269 20.0457 30.1676 20.3801C29.679 21.4062 28.6376 23.7258 28.6376 24.8586C28.6376 25.6499 28.8379 26.3726 29.0243 26.874C29.1447 27.1977 28.9109 27.5793 28.5655 27.5793C28.4323 27.5793 28.306 27.5206 28.222 27.4172C27.8577 26.9695 26.8578 25.703 26.6172 25.0053C26.3119 24.1201 25.6389 23.2454 24.7025 23.2507C24.3095 23.253 23.8881 23.2638 23.4818 23.2897C22.092 23.3785 21.1647 24.5734 20.9975 25.2418C20.8847 25.6921 20.8165 26.5962 20.7839 27.1386C20.7691 27.3851 20.5657 27.5793 20.3187 27.5793C20.119 27.5793 19.9424 27.4499 19.8774 27.261C19.4565 26.038 19.15 25.5396 19.3386 24.8586C19.9031 22.8164 19.7923 21.6581 19.6615 21.1424C19.4659 20.3709 18.866 19.4742 19.5853 19.1337C19.984 18.9449 20.5504 18.8442 21.4256 18.8239C23.3295 18.7797 25.8928 18.5655 26.7423 17.8627Z" fill="#FAB387"/>
<path d="M21.7979 24.7732C21.7979 24.7732 21.9986 26.6321 23.0659 27.5795H23.9804C23.0659 26.5434 22.9663 23.843 22.9663 23.843C22.5009 23.9946 21.8571 24.5367 21.7979 24.7732Z" fill="#FAB387"/>
</svg>
