<svg width="34" height="33" viewBox="0 0 34 33" fill="none" xmlns="http://www.w3.org/2000/svg">
<path fill-rule="evenodd" clip-rule="evenodd" d="M21.9533 19.9512H29.3979C30.6313 19.9512 31.6312 20.9511 31.6312 22.1845V25.9068C31.6312 27.1403 30.6313 28.1402 29.3979 28.1402H21.9533C20.7199 28.1402 19.72 27.1403 19.72 25.9068V22.1845C19.72 20.9511 20.7199 19.9512 21.9533 19.9512ZM21.9533 21.44C21.5422 21.44 21.2088 21.7734 21.2088 22.1845V25.9068C21.2088 26.318 21.5422 26.6513 21.9533 26.6513H29.3979C29.8091 26.6513 30.1424 26.318 30.1424 25.9068V22.1845C30.1424 21.7734 29.8091 21.44 29.3979 21.44H21.9533Z" fill="#6C7086"/>
<path fill-rule="evenodd" clip-rule="evenodd" d="M28.8535 16.178C28.1728 15.1955 26.9268 14.7959 25.9385 14.7459C24.8957 14.6931 23.5559 14.9959 22.6867 16.1106C22.3184 16.5832 22.1633 17.1583 22.0835 17.5897C21.9965 18.0591 21.9623 18.5726 21.955 19.0693C21.9471 19.5997 21.9693 20.1577 22.0068 20.6954H23.4996C23.3902 19.2142 23.4011 17.6161 23.861 17.0261C24.8033 15.8174 27.0017 16.1196 27.6299 17.0261C27.9442 17.4798 27.9438 19.1453 27.865 20.6954H29.3559C29.385 20.1007 29.4031 19.4842 29.3966 18.9164C29.3913 18.4442 29.3689 17.9702 29.3136 17.5547C29.2692 17.2217 29.1741 16.6404 28.8535 16.178Z" fill="#6C7086"/>
<path fill-rule="evenodd" clip-rule="evenodd" d="M7.65989 5.36011C5.43971 5.36011 3.63989 7.15993 3.63989 9.38011V22.7801C3.63989 25.0004 5.43971 26.8001 7.65989 26.8001H18.3799V24.1201H7.65989C6.91984 24.1201 6.31989 23.5202 6.31989 22.7801V9.38011C6.31989 8.64005 6.91984 8.04011 7.65989 8.04011H11.3903C11.7005 8.04011 12.0011 8.14775 12.2408 8.34465L15.4478 10.979C16.167 11.5697 17.0688 11.8926 17.9995 11.8926H26.4199C27.16 11.8926 27.7599 12.4926 27.7599 13.2326V13.4001H30.4399V13.2326C30.4399 11.0124 28.6401 9.21261 26.4199 9.21261H17.9995C17.6893 9.21261 17.3887 9.10496 17.149 8.90807L13.9419 6.27375C13.2228 5.68302 12.321 5.36011 11.3903 5.36011H7.65989Z" fill="#6C7086"/>
</svg>
