<svg width="33" height="33" viewBox="0 0 33 33" fill="none" xmlns="http://www.w3.org/2000/svg">
<path fill-rule="evenodd" clip-rule="evenodd" d="M7.49998 5.36011C5.2798 5.36011 3.47998 7.15993 3.47998 9.38011V22.7801C3.47998 25.0004 5.2798 26.8001 7.49998 26.8001H18.22V24.1201H7.49998C6.75993 24.1201 6.15998 23.5202 6.15998 22.7801V9.38011C6.15998 8.64005 6.75993 8.04011 7.49998 8.04011H11.2304C11.5406 8.04011 11.8412 8.14775 12.0809 8.34465L15.2879 10.979C16.0071 11.5697 16.9089 11.8926 17.8396 11.8926H26.26C27.0001 11.8926 27.6 12.4926 27.6 13.2326V13.4001H30.28V13.2326C30.28 11.0124 28.4802 9.21261 26.26 9.21261H17.8396C17.5293 9.21261 17.2288 9.10496 16.9891 8.90807L13.782 6.27375C13.0629 5.68302 12.1611 5.36011 11.2304 5.36011H7.49998Z" fill="#6C7086"/>
<path d="M28.94 26.7999C30.4201 26.7999 31.62 25.6001 31.62 24.1199C31.62 22.6398 30.4201 21.4399 28.94 21.4399C27.4599 21.4399 26.26 22.6398 26.26 24.1199C26.26 25.6001 27.4599 26.7999 28.94 26.7999Z" fill="#89B4FA"/>
<path d="M23.5801 14.74H20.9001C20.16 14.74 19.5601 15.3399 19.5601 16.08V18.76C19.5601 19.5001 20.16 20.1 20.9001 20.1H23.5801C24.3201 20.1 24.9201 19.5001 24.9201 18.76V16.08C24.9201 15.3399 24.3201 14.74 23.5801 14.74Z" fill="#94E2D5"/>
<path d="M22.24 22.1101L24.561 26.1301H19.9189L22.24 22.1101Z" fill="#74C7EC"/>
<path d="M28.012 15.9075C28.3308 15.0461 29.5491 15.0461 29.8679 15.9075C29.968 16.1783 30.1816 16.3919 30.4524 16.492C31.3138 16.8108 31.3138 18.0291 30.4524 18.3479C30.1816 18.448 29.968 18.6616 29.8679 18.9324C29.5491 19.7938 28.3308 19.7938 28.012 18.9324C27.9119 18.6616 27.6983 18.448 27.4275 18.3479C26.5662 18.0291 26.5662 16.8108 27.4275 16.492C27.6983 16.3919 27.9119 16.1783 28.012 15.9075Z" fill="#CBA6F7"/>
</svg>
