<svg width="33" height="33" viewBox="0 0 33 33" fill="none" xmlns="http://www.w3.org/2000/svg">
<path fill-rule="evenodd" clip-rule="evenodd" d="M6.82005 6.16016C4.59987 6.16016 2.80005 7.95998 2.80005 10.1802V23.5802C2.80005 25.8004 4.59987 27.6002 6.82005 27.6002H13.52V24.9202H6.82005C6.07999 24.9202 5.48005 24.3202 5.48005 23.5802V10.1802C5.48005 9.4401 6.07999 8.84016 6.82005 8.84016H10.5504C10.8607 8.84016 11.1613 8.9478 11.401 9.1447L14.608 11.779C15.3272 12.3697 16.229 12.6927 17.1596 12.6927H25.58C26.3201 12.6927 26.92 13.2926 26.92 14.0327V14.2002H29.6V14.0327C29.6 11.8125 27.8003 10.0127 25.58 10.0127H17.1596C16.8494 10.0127 16.5489 9.90501 16.3091 9.70811L13.1021 7.07379C12.383 6.48307 11.4811 6.16016 10.5504 6.16016H6.82005Z" fill="#6C7086"/>
<path d="M20.4154 19.2881L17.54 22.1635L20.4154 25.0388" stroke="#F9E2AF" stroke-width="1.5" stroke-linecap="round" stroke-linejoin="round"/>
<path d="M28.3628 19.2881L31.2382 22.1635L28.3628 25.0388" stroke="#F9E2AF" stroke-width="1.5" stroke-linecap="round" stroke-linejoin="round"/>
<path d="M22.3125 26.9557L26.4658 17.3711" stroke="#F9E2AF" stroke-width="1.5" stroke-linecap="round" stroke-linejoin="round"/>
</svg>
