<svg width="38" height="37" viewBox="0 0 38 37" fill="none" xmlns="http://www.w3.org/2000/svg">
<g filter="url(#filter0_d_2_1222)">
<path fill-rule="evenodd" clip-rule="evenodd" d="M28.4481 17.3689C28.4481 16.1361 29.4531 15.1357 30.6912 15.1357C30.9852 15.1351 31.2764 15.1923 31.5483 15.3041C31.8202 15.4159 32.0673 15.5802 32.2756 15.7877C32.484 15.995 32.6495 16.2414 32.7626 16.5126C32.8757 16.7839 32.9344 17.0749 32.935 17.3689C32.935 18.6023 31.93 19.6026 30.6912 19.6026C30.3941 19.603 30.0999 19.5443 29.8257 19.43V19.43C29.3508 19.2318 28.785 19.147 28.3596 19.4366L26.4713 20.7224C26.1787 20.9217 26.0501 21.2792 26.0277 21.6325V21.6325C26.0011 22.0527 26.1203 22.5023 26.4721 22.7336L27.9868 23.7291C28.7515 24.2316 29.7769 24.0674 30.6919 24.0689V24.0689C30.9859 24.0682 31.2771 24.1255 31.5488 24.2374C31.8207 24.3493 32.0678 24.5137 32.276 24.7212C32.4844 24.9286 32.6498 25.175 32.7629 25.4464C32.876 25.7177 32.9344 26.0086 32.935 26.3026C32.935 27.5354 31.93 28.5357 30.6912 28.5357C30.0976 28.537 29.528 28.3025 29.1072 27.8837C28.6866 27.465 28.4495 26.8963 28.4481 26.3026V26.3026C28.4471 25.7633 28.3102 25.1764 27.8594 24.8804L26.6083 24.0589C25.8131 23.5366 24.7396 23.7277 23.7882 23.7258V23.7258C23.4942 23.7265 23.203 23.6693 22.9311 23.5574C22.6593 23.4455 22.4122 23.2812 22.2038 23.0736C21.9954 22.8662 21.8301 22.6198 21.7171 22.3484C21.604 22.0771 21.5456 21.786 21.545 21.492C21.5457 21.1982 21.6041 20.9071 21.7172 20.6359C21.8303 20.3646 21.9957 20.1181 22.2041 19.9108C22.4123 19.7034 22.6595 19.5391 22.9313 19.4272C23.203 19.3155 23.4943 19.2583 23.7882 19.2589V19.2589C24.9245 19.2589 26.2713 19.6097 27.2105 18.9703L27.98 18.4464C28.3214 18.2139 28.4478 17.7818 28.4481 17.3689V17.3689Z" fill="#CBA6F7" stroke="#CBA6F7" stroke-width="0.5"/>
<path d="M20 25.2158H7.68C6.19988 25.2158 5 24.016 5 22.5358V9.13581C5 7.65569 6.19988 6.45581 7.68 6.45581H11.4104C12.0308 6.45581 12.6321 6.67108 13.1115 7.06491L16.3184 9.69921C16.7979 10.093 17.3992 10.3083 18.0196 10.3083H26.44C27.9202 10.3083 29.12 11.5082 29.12 12.9883" stroke="#6C7086" stroke-width="2" stroke-linecap="round"/>
</g>
<defs>
<filter id="filter0_d_2_1222" x="-0.880005" y="0.395752" width="40.16" height="40.1599" filterUnits="userSpaceOnUse" color-interpolation-filters="sRGB">
<feFlood flood-opacity="0" result="BackgroundImageFix"/>
<feColorMatrix in="SourceAlpha" type="matrix" values="0 0 0 0 0 0 0 0 0 0 0 0 0 0 0 0 0 0 127 0" result="hardAlpha"/>
<feOffset dy="4"/>
<feGaussianBlur stdDeviation="2"/>
<feComposite in2="hardAlpha" operator="out"/>
<feColorMatrix type="matrix" values="0 0 0 0 0 0 0 0 0 0 0 0 0 0 0 0 0 0 0.25 0"/>
<feBlend mode="normal" in2="BackgroundImageFix" result="effect1_dropShadow_2_1222"/>
<feBlend mode="normal" in="SourceGraphic" in2="effect1_dropShadow_2_1222" result="shape"/>
</filter>
</defs>
</svg>
