<svg width="33" height="33" viewBox="0 0 33 33" fill="none" xmlns="http://www.w3.org/2000/svg">
<g clip-path="url(#clip0_2_1136)">
<mask id="mask0_2_1136" style="mask-type:luminance" maskUnits="userSpaceOnUse" x="0" y="0" width="33" height="33">
<path d="M0.120117 0.320068H32.2801V32.4801H0.120117V0.320068Z" fill="white"/>
</mask>
<g mask="url(#mask0_2_1136)">
<path fill-rule="evenodd" clip-rule="evenodd" d="M6.82005 5.68018C4.59967 5.68018 2.80005 7.4798 2.80005 9.70018V23.1002C2.80005 25.3206 4.59967 27.1202 6.82005 27.1202H17.54V24.4402H6.82005C6.08037 24.4402 5.48005 23.8399 5.48005 23.1002V9.70018C5.48005 8.9605 6.08037 8.36018 6.82005 8.36018H10.5506C10.8601 8.36018 11.1616 8.46738 11.4015 8.66436L14.6081 11.2988C15.3277 11.8897 16.2295 12.2127 17.1595 12.2127H25.58C26.3197 12.2127 26.92 12.813 26.92 13.5527V13.7202H29.6V13.5527C29.6 11.3323 27.8004 9.53268 25.58 9.53268H17.1595C16.8499 9.53268 16.5484 9.42548 16.3086 9.2285L13.102 6.59406C12.3824 6.00312 11.4806 5.68018 10.5506 5.68018H6.82005Z" fill="#6C7086"/>
<path d="M19.0142 19.6416V25.0619C19.0142 26.1084 19.8624 26.958 20.9089 26.958H30.3854C31.4319 26.958 32.2802 26.1084 32.2802 25.0619V19.6416L26.6401 23.1122C26.0317 23.4874 25.2626 23.4874 24.6542 23.1122L19.0142 19.6416Z" fill="#F38BA8"/>
<path d="M32.2802 18.5294V18.4289C32.2802 17.3824 31.4319 16.5342 30.3854 16.5342H20.9089C19.8624 16.5342 19.0142 17.3824 19.0142 18.4289V18.5294L25.15 22.3056C25.4555 22.4932 25.8388 22.4932 26.1443 22.3056L32.2802 18.5294Z" fill="#F38BA8"/>
</g>
</g>
<defs>
<clipPath id="clip0_2_1136">
<rect width="32.16" height="32.16" fill="white" transform="translate(0.120117 0.320068)"/>
</clipPath>
</defs>
</svg>
