<svg width="34" height="33" viewBox="0 0 34 33" fill="none" xmlns="http://www.w3.org/2000/svg">
<path d="M7.28188 8.93258C7.28188 6.95929 8.88155 5.35962 10.8548 5.35962C11.5126 5.35962 12.0458 5.89284 12.0458 6.55061C12.0458 7.20836 11.5126 7.74159 10.8548 7.74159C10.1971 7.74159 9.66385 8.27482 9.66385 8.93258V13.6232C9.66385 14.562 9.298 15.4317 8.68664 16.0785C9.298 16.7252 9.66385 17.5949 9.66385 18.5338V23.2244C9.66385 23.8822 10.1971 24.4154 10.8548 24.4154C11.5126 24.4154 12.0458 24.9486 12.0458 25.6064C12.0458 26.2641 11.5126 26.7974 10.8548 26.7974C8.88155 26.7974 7.28188 25.1977 7.28188 23.2244V18.5338C7.28188 17.9872 6.90993 17.5109 6.37975 17.3783L5.80203 17.2338C5.27185 17.1015 4.8999 16.625 4.8999 16.0785C4.8999 15.532 5.27185 15.0555 5.80203 14.9231L6.37975 14.7787C6.90993 14.646 7.28188 14.1697 7.28188 13.6232V8.93258ZM26.3376 8.93258C26.3376 6.95929 24.738 5.35962 22.7646 5.35962C22.1069 5.35962 21.5736 5.89284 21.5736 6.55061C21.5736 7.20836 22.1069 7.74159 22.7646 7.74159C23.4225 7.74159 23.9556 8.27482 23.9556 8.93258V13.6232C23.9556 14.562 24.3215 15.4317 24.9329 16.0785C24.3215 16.7252 23.9556 17.5949 23.9556 18.5338V23.2244C23.9556 23.8822 23.4225 24.4154 22.7646 24.4154C22.1069 24.4154 21.5736 24.9486 21.5736 25.6064C21.5736 26.2641 22.1069 26.7974 22.7646 26.7974C24.738 26.7974 26.3376 25.1977 26.3376 23.2244V18.5338C26.3376 17.9872 26.7096 17.5109 27.2398 17.3783L27.8174 17.2338C28.3477 17.1015 28.7196 16.625 28.7196 16.0785C28.7196 15.532 28.3477 15.0555 27.8174 14.9231L27.2398 14.7787C26.7096 14.646 26.3376 14.1697 26.3376 13.6232V8.93258Z" fill="#D20F39"/>
</svg>
