<svg width="33" height="33" viewBox="0 0 33 33" fill="none" xmlns="http://www.w3.org/2000/svg">
<path d="M6.81105 8.93258C6.81105 6.95929 8.41072 5.35962 10.384 5.35962C11.0418 5.35962 11.575 5.89284 11.575 6.55061C11.575 7.20836 11.0418 7.74159 10.384 7.74159C9.72625 7.74159 9.19302 8.27482 9.19302 8.93258V13.6232C9.19302 14.562 8.82718 15.4317 8.21581 16.0785C8.82718 16.7252 9.19302 17.5949 9.19302 18.5338V23.2244C9.19302 23.8822 9.72625 24.4154 10.384 24.4154C11.0418 24.4154 11.575 24.9486 11.575 25.6064C11.575 26.2641 11.0418 26.7974 10.384 26.7974C8.41072 26.7974 6.81105 25.1977 6.81105 23.2244V18.5338C6.81105 17.9872 6.43911 17.5109 5.90892 17.3783L5.3312 17.2338C4.80102 17.1015 4.42908 16.625 4.42908 16.0785C4.42908 15.532 4.80102 15.0555 5.3312 14.9231L5.90892 14.7787C6.43911 14.646 6.81105 14.1697 6.81105 13.6232V8.93258ZM25.8668 8.93258C25.8668 6.95929 24.2672 5.35962 22.2938 5.35962C21.6361 5.35962 21.1028 5.89284 21.1028 6.55061C21.1028 7.20836 21.6361 7.74159 22.2938 7.74159C22.9517 7.74159 23.4848 8.27482 23.4848 8.93258V13.6232C23.4848 14.562 23.8507 15.4317 24.4621 16.0785C23.8507 16.7252 23.4848 17.5949 23.4848 18.5338V23.2244C23.4848 23.8822 22.9517 24.4154 22.2938 24.4154C21.6361 24.4154 21.1028 24.9486 21.1028 25.6064C21.1028 26.2641 21.6361 26.7974 22.2938 26.7974C24.2672 26.7974 25.8668 25.1977 25.8668 23.2244V18.5338C25.8668 17.9872 26.2388 17.5109 26.7689 17.3783L27.3466 17.2338C27.8769 17.1015 28.2488 16.625 28.2488 16.0785C28.2488 15.532 27.8769 15.0555 27.3466 14.9231L26.7689 14.7787C26.2388 14.646 25.8668 14.1697 25.8668 13.6232V8.93258Z" fill="#40A02B"/>
</svg>
