<svg width="33" height="33" viewBox="0 0 33 33" fill="none" xmlns="http://www.w3.org/2000/svg">
<path d="M26.975 11.1987C26.9206 11.141 26.863 11.0834 26.8054 11.0291C26.7476 10.9748 26.6934 10.9138 26.6357 10.8595C26.5781 10.8052 26.5237 10.7442 26.4661 10.6899C26.4085 10.6356 26.3542 10.5746 26.2965 10.5203C26.2389 10.466 26.1846 10.405 26.1269 10.3507C26.0693 10.2964 26.015 10.2354 25.9574 10.1811C25.8996 10.1268 25.8454 10.0657 25.7878 10.0115C27.4702 11.665 28.4341 13.9145 28.4708 16.2733C28.4708 21.8939 22.7654 26.4664 15.7506 26.4664C11.8226 26.4664 8.30844 25.0315 5.97131 22.7826L6.14091 22.9522L6.31051 23.1218L6.48011 23.2915L6.64972 23.461L6.81932 23.6306L6.98892 23.8002L7.15853 23.9698C9.49226 26.3138 13.0845 27.8233 17.1075 27.8233C24.1222 27.8233 29.8277 23.2507 29.8277 17.647C29.8277 15.2522 28.7965 12.9829 26.975 11.1987Z" fill="#11111B"/>
<path d="M27.6215 16.2737C27.6215 21.4331 22.3062 25.6154 15.7493 25.6154C9.1925 25.6154 3.87714 21.4331 3.87714 16.2737C3.87714 13.075 5.91238 10.2494 9.03985 8.57372C12.1673 6.89803 14.1144 5.18164 15.7493 5.18164C17.3843 5.18164 18.7818 6.58257 22.4588 8.57372C25.5863 10.2494 27.6215 13.075 27.6215 16.2737Z" fill="#FBF0DF"/>
<path d="M27.6218 16.2736C27.62 15.6108 27.5288 14.9513 27.3503 14.313C26.4243 25.6085 12.6458 26.1512 7.22867 22.7727C9.66383 24.6602 12.6689 25.6627 15.7496 25.6152C22.2962 25.6152 27.6218 21.426 27.6218 16.2736Z" fill="#F6DECE"/>
<path d="M11.1802 7.95296C12.6965 7.0439 14.7113 5.33768 16.6923 5.33429C16.3876 5.23578 16.0697 5.18431 15.7493 5.18164C14.9285 5.18164 14.0533 5.60565 12.9509 6.24336C12.5676 6.46723 12.1707 6.71485 11.7501 6.97266C10.9598 7.46111 10.0541 8.01402 9.03646 8.56693C5.80723 10.3138 3.87714 13.1937 3.87714 16.2737C3.87714 16.4094 3.87714 16.5451 3.87714 16.6774C5.93273 9.41495 9.66739 8.86204 11.1802 7.95296Z" fill="#FFFEFC"/>
<path fill-rule="evenodd" clip-rule="evenodd" d="M14.7731 6.03922C14.7778 6.84017 14.6096 7.6327 14.28 8.36271C13.9504 9.0927 13.4672 9.74299 12.8633 10.2691C12.7683 10.3539 12.8429 10.5168 12.9651 10.4693C14.1083 10.0249 15.6516 8.69521 15.0003 6.01209C14.9731 5.85945 14.7731 5.90016 14.7731 6.03922ZM15.543 6.03922C15.9581 6.71642 16.2217 7.47537 16.3161 8.26403C16.4103 9.05268 16.333 9.85239 16.0891 10.6083C16.0485 10.7271 16.1943 10.8288 16.2757 10.7305C17.0186 9.78068 17.6665 7.89468 15.7261 5.85945C15.6278 5.77125 15.4752 5.90694 15.543 6.02566V6.03922ZM16.4793 5.98157C17.1292 6.44171 17.6729 7.03589 18.0737 7.72402C18.4746 8.41216 18.7231 9.17825 18.8029 9.97063C18.7994 9.99918 18.807 10.028 18.8243 10.051C18.8414 10.074 18.8669 10.0896 18.8953 10.0944C18.9236 10.0992 18.9528 10.0929 18.9766 10.0768C19.0003 10.0607 19.0171 10.036 19.0233 10.0079C19.3353 8.82412 19.159 6.80583 16.5911 5.75769C16.4556 5.70341 16.3673 5.88658 16.4793 5.96799V5.98157ZM10.2175 9.50931C10.9906 9.27833 11.7065 8.88712 12.3184 8.36111C12.9303 7.83513 13.4245 7.18615 13.769 6.45645C13.8301 6.33434 14.0234 6.38182 13.9929 6.51751C13.406 9.23116 11.442 9.79763 10.2209 9.72301C10.092 9.7264 10.0954 9.54662 10.2175 9.50931Z" fill="#CCBEA7"/>
<path d="M15.7491 26.4668C8.73437 26.4668 3.02893 21.8942 3.02893 16.2735C3.02893 12.8815 5.12522 9.71671 8.63601 7.82054C9.65362 7.27781 10.5254 6.73168 11.3022 6.25341C11.7296 5.98882 12.1332 5.7412 12.5233 5.51055C13.7139 4.80499 14.7315 4.3335 15.7491 4.3335C16.7668 4.3335 17.6555 4.74054 18.7681 5.3986C19.1072 5.59196 19.4465 5.80226 19.8094 6.03292C20.6541 6.5553 21.6073 7.14552 22.8623 7.82054C26.3731 9.71671 28.4694 12.8781 28.4694 16.2735C28.4694 21.8942 22.764 26.4668 15.7491 26.4668ZM15.7491 5.18152C14.9282 5.18152 14.0532 5.60552 12.9507 6.24324C12.5674 6.4671 12.1705 6.71473 11.7499 6.97252C10.9596 7.46098 10.0539 8.01389 9.03627 8.56679C5.80703 10.3137 3.87694 13.1936 3.87694 16.2735C3.87694 21.4261 9.20247 25.6188 15.7491 25.6188C22.2958 25.6188 27.6214 21.4261 27.6214 16.2735C27.6214 13.1936 25.6913 10.3137 22.4586 8.57359C21.1765 7.89516 20.1758 7.25746 19.3652 6.75544C18.9954 6.52816 18.6561 6.31785 18.3475 6.13129C17.3197 5.52072 16.5701 5.18152 15.7491 5.18152Z" fill="#11111B"/>
<path d="M18.1408 18.7499C17.9883 19.374 17.6414 19.9336 17.1502 20.3476C16.7815 20.7051 16.304 20.9295 15.7935 20.9852C15.2675 20.9383 14.7733 20.7134 14.3925 20.3476C13.9063 19.9316 13.5643 19.3723 13.4156 18.7499C13.4107 18.713 13.4143 18.6753 13.4261 18.6401C13.4379 18.6047 13.4577 18.5725 13.4839 18.546C13.5101 18.5195 13.542 18.4992 13.5772 18.4871C13.6124 18.4747 13.65 18.4707 13.687 18.4751H17.8728C17.9095 18.4712 17.9466 18.4757 17.9815 18.4883C18.0162 18.5007 18.0477 18.5211 18.0734 18.5475C18.0992 18.5739 18.1187 18.6059 18.1303 18.641C18.142 18.676 18.1456 18.7132 18.1408 18.7499Z" fill="#B71422"/>
<path d="M14.3934 20.3743C14.7735 20.7403 15.2659 20.9675 15.791 21.0189C16.3149 20.9667 16.8059 20.7397 17.1851 20.3743C17.3064 20.2613 17.4197 20.1401 17.5242 20.0115C17.3153 19.7743 17.0601 19.5826 16.7742 19.4478C16.4884 19.313 16.1781 19.2382 15.8621 19.2278C15.5242 19.2358 15.1933 19.3259 14.8978 19.4901C14.6024 19.6544 14.3513 19.8881 14.1661 20.1708C14.2441 20.2421 14.312 20.3099 14.3934 20.3743Z" fill="#FF6164"/>
<path d="M14.4474 20.1061C14.6157 19.8888 14.8309 19.7124 15.077 19.5902C15.3233 19.468 15.5939 19.4031 15.8687 19.4007C16.3767 19.4156 16.8607 19.6202 17.2256 19.9739C17.3036 19.8891 17.3782 19.8009 17.4495 19.7128C17.0179 19.3017 16.4475 19.068 15.8517 19.0581C15.5333 19.0608 15.2194 19.1339 14.9327 19.2723C14.646 19.4108 14.3933 19.6109 14.1931 19.8585C14.2732 19.9458 14.3582 20.0284 14.4474 20.1061Z" fill="#11111B"/>
<path d="M15.7794 21.189C15.2142 21.1396 14.6822 20.9005 14.27 20.5106C13.7449 20.0666 13.3753 19.4663 13.215 18.7976C13.2035 18.7381 13.2055 18.6768 13.2207 18.6181C13.236 18.5594 13.2642 18.5049 13.3032 18.4585C13.3497 18.4024 13.4084 18.3575 13.4748 18.3276C13.5413 18.2976 13.6137 18.2831 13.6865 18.2854H17.8723C17.9451 18.2839 18.0173 18.2987 18.0836 18.3285C18.1499 18.3585 18.2086 18.4029 18.2556 18.4585C18.2942 18.505 18.322 18.5597 18.3367 18.6183C18.3513 18.6772 18.3526 18.7384 18.3404 18.7976C18.1802 19.4663 17.8105 20.0666 17.2854 20.5106C16.8741 20.8997 16.3435 21.1388 15.7794 21.189ZM13.6865 18.6789C13.6323 18.6789 13.6187 18.7026 13.6153 18.7095C13.7587 19.2893 14.083 19.8085 14.5413 20.1917C14.8764 20.522 15.3121 20.7309 15.7794 20.7854C16.2454 20.7314 16.6808 20.5252 17.0175 20.1986C17.4744 19.8147 17.7975 19.2956 17.9401 18.7163C17.9327 18.7054 17.9225 18.6969 17.9105 18.6914C17.8986 18.686 17.8853 18.684 17.8723 18.6857L13.6865 18.6789Z" fill="#11111B"/>
<path d="M20.9118 18.959C22.0077 18.959 22.8962 18.4366 22.8962 17.7921C22.8962 17.1478 22.0077 16.6252 20.9118 16.6252C19.8158 16.6252 18.9274 17.1478 18.9274 17.7921C18.9274 18.4366 19.8158 18.959 20.9118 18.959Z" fill="#FEBBD0"/>
<path d="M10.6451 18.959C11.7411 18.959 12.6295 18.4366 12.6295 17.7921C12.6295 17.1478 11.7411 16.6252 10.6451 16.6252C9.5492 16.6252 8.66077 17.1478 8.66077 17.7921C8.66077 18.4366 9.5492 18.959 10.6451 18.959Z" fill="#FEBBD0"/>
<path fill-rule="evenodd" clip-rule="evenodd" d="M11.5772 17.3243C11.947 17.325 12.3087 17.2159 12.6165 17.0109C12.9243 16.8059 13.1644 16.5142 13.3064 16.1728C13.4483 15.8313 13.4858 15.4555 13.4141 15.0926C13.3424 14.7299 13.1646 14.3966 12.9034 14.1348C12.6421 13.8731 12.3091 13.6948 11.9465 13.6224C11.5838 13.5499 11.2078 13.5868 10.8661 13.7281C10.5244 13.8695 10.2323 14.109 10.0268 14.4165C9.82126 14.7239 9.71156 15.0854 9.71155 15.4552C9.71155 15.9503 9.908 16.4253 10.2578 16.7756C10.6076 17.126 11.0821 17.3234 11.5772 17.3243ZM19.9793 17.3243C20.3495 17.327 20.7122 17.2197 21.0214 17.0159C21.3305 16.8122 21.5721 16.5212 21.7157 16.1799C21.8592 15.8387 21.8982 15.4624 21.8276 15.0989C21.757 14.7356 21.5801 14.4013 21.3193 14.1385C21.0584 13.8758 20.7254 13.6964 20.3625 13.6232C19.9996 13.5499 19.6231 13.5861 19.2808 13.7272C18.9385 13.8683 18.6459 14.1078 18.4398 14.4155C18.2339 14.7231 18.1238 15.085 18.1238 15.4552C18.1229 15.9488 18.3177 16.4227 18.6656 16.7731C19.0132 17.1233 19.4857 17.3216 19.9793 17.3243Z" fill="#11111B"/>
<path fill-rule="evenodd" clip-rule="evenodd" d="M11.0002 15.5756C11.1392 15.5763 11.2753 15.5357 11.3912 15.4589C11.5071 15.3823 11.5977 15.2728 11.6513 15.1446C11.705 15.0164 11.7194 14.875 11.6927 14.7386C11.666 14.6022 11.5994 14.4768 11.5013 14.3782C11.4032 14.2797 11.2781 14.2124 11.1418 14.1851C11.0055 14.1578 10.8642 14.1714 10.7357 14.2245C10.6072 14.2776 10.4973 14.3675 10.42 14.4831C10.3427 14.5986 10.3015 14.7345 10.3015 14.8735C10.3014 15.0591 10.375 15.2372 10.5059 15.3687C10.6368 15.5005 10.8146 15.5748 11.0002 15.5756ZM19.4024 15.5756C19.5413 15.5763 19.6774 15.5357 19.7933 15.4589C19.9092 15.3823 19.9998 15.2728 20.0534 15.1446C20.1071 15.0164 20.1215 14.875 20.0948 14.7386C20.0681 14.6022 20.0015 14.4768 19.9035 14.3782C19.8054 14.2797 19.6802 14.2124 19.544 14.1851C19.4077 14.1578 19.2664 14.1714 19.1379 14.2245C19.0094 14.2776 18.8995 14.3675 18.8222 14.4831C18.7449 14.5986 18.7036 14.7345 18.7036 14.8735C18.7036 15.058 18.7761 15.235 18.9057 15.3665C19.0351 15.4978 19.2112 15.5729 19.3955 15.5756H19.4024Z" fill="#CDD6F4"/>
</svg>
