<svg width="33" height="33" viewBox="0 0 33 33" fill="none" xmlns="http://www.w3.org/2000/svg">
<path d="M22.9462 11.5683C23.2836 12.4654 22.5144 13.3149 21.556 13.3149H21.3634C20.6701 13.3149 20.1235 12.7758 19.7948 12.1653V12.1653C19.6146 11.8253 19.3832 11.536 19.1006 11.2975C18.818 11.0589 18.4916 10.8762 18.1212 10.7493C17.7558 10.6225 17.3587 10.559 16.93 10.559C16.1553 10.559 15.4805 10.7595 14.9056 11.1604C14.3306 11.5563 13.8848 12.1349 13.5681 12.8962C13.2515 13.6524 13.0931 14.571 13.0931 15.652C13.0931 16.7635 13.2515 17.6973 13.5681 18.4535C13.8897 19.2097 14.338 19.7808 14.9129 20.1664C15.4879 20.5521 16.1529 20.745 16.908 20.745C17.332 20.745 17.7242 20.6866 18.0847 20.5699C18.4501 20.4532 18.7741 20.2832 19.0567 20.0598C19.3393 19.8314 19.5732 19.5549 19.7583 19.2301V19.2301C20.1042 18.6389 20.6538 18.1209 21.3387 18.1242L21.5304 18.1251C22.5033 18.1297 23.2677 18.9955 22.8803 19.8879C22.8342 19.9941 22.785 20.0996 22.7328 20.2044C22.4063 20.8643 21.9654 21.4556 21.41 21.9783C20.8594 22.496 20.2016 22.907 19.4367 23.2116C18.6767 23.5109 17.8168 23.6607 16.8568 23.6607C15.522 23.6607 14.3282 23.346 13.2758 22.7166C12.2283 22.0873 11.4 21.1763 10.791 19.9837C10.1868 18.791 9.88477 17.3472 9.88477 15.652C9.88477 13.9518 10.1917 12.5054 10.8056 11.3127C11.4195 10.12 12.2527 9.21155 13.3051 8.58729C14.3575 7.95796 15.5414 7.64331 16.8568 7.64331C17.7242 7.64331 18.5281 7.77018 19.2686 8.02395C20.0141 8.27771 20.6743 8.6482 21.2492 9.13542C21.8241 9.61757 22.2918 10.2088 22.6524 10.9092C22.7622 11.1197 22.8602 11.3394 22.9462 11.5683Z" fill="#1E66F5"/>
</svg>
