<svg width="34" height="33" viewBox="0 0 34 33" fill="none" xmlns="http://www.w3.org/2000/svg">
<path d="M12.5296 26.9725C12.0657 26.9725 11.6018 26.8623 11.1959 26.6651L16.7743 16.6044C16.9482 16.2913 16.9482 15.9086 16.7743 15.5955L11.1959 5.54043C11.6106 5.3351 12.0669 5.22796 12.5296 5.22729H17.0526L22.6775 15.3693C22.8013 15.5928 22.8662 15.8443 22.8662 16.0999C22.8662 16.3556 22.8013 16.6069 22.6775 16.8305L17.0526 26.9725H12.5296Z" fill="#DF8E1D"/>
<path fill-rule="evenodd" clip-rule="evenodd" d="M28.7075 14.5922L24.1845 6.73497C23.92 6.27686 23.5396 5.89639 23.0817 5.63176C22.6236 5.36712 22.1041 5.22763 21.5751 5.22729H17.0521L22.6769 15.3693C22.8007 15.5928 22.8657 15.8443 22.8657 16.0999C22.8657 16.3556 22.8007 16.6069 22.6769 16.8305L17.0521 26.9725H21.5751C22.1041 26.9722 22.6236 26.8327 23.0817 26.568C23.5396 26.3033 23.92 25.923 24.1845 25.4649L28.7075 17.6075C29.2468 16.6798 29.2468 15.52 28.7075 14.5922ZM11.1955 5.54043L11.4815 6.05652H11.4854L14.0368 10.6665L11.4274 15.3634C11.3025 15.5878 11.2369 15.8403 11.2369 16.097C11.2369 16.3537 11.3025 16.6063 11.4274 16.8305L14.0368 21.5391L11.1955 26.6651C10.6608 26.4001 10.2168 25.9823 9.91974 25.4649L5.39674 17.6075C5.13321 17.1488 4.99454 16.6289 4.99454 16.0999C4.99454 15.5708 5.13321 15.0509 5.39674 14.5922L8.60272 9.02286C8.57596 9.06745 8.54909 9.1128 8.5221 9.15892L8.66722 8.90948L9.89171 6.78366L9.91974 6.73497L9.92215 6.73079C10.217 6.21902 10.6557 5.80508 11.1839 5.54043L11.1864 5.5449L11.1955 5.54043Z" fill="#FE640B"/>
</svg>
