<svg width="33" height="33" viewBox="0 0 33 33" fill="none" xmlns="http://www.w3.org/2000/svg">
<g clip-path="url(#clip0_145_488)">
<mask id="mask0_145_488" style="mask-type:luminance" maskUnits="userSpaceOnUse" x="1" y="0" width="32" height="33">
<path d="M32.0259 0.15625H1.15552V32.3129H32.0259V0.15625Z" fill="white"/>
</mask>
<g mask="url(#mask0_145_488)">
<path d="M22.8277 19.1614C22.4353 19.1614 22.1171 18.8433 22.1171 18.4508V14.0167C22.1171 13.6243 22.4353 13.3062 22.8277 13.3062V13.3062C23.2202 13.3062 23.5383 13.6243 23.5383 14.0167V18.4508C23.5383 18.8433 23.2202 19.1614 22.8277 19.1614V19.1614ZM20.7574 16.974C20.3486 16.974 20.0172 16.6426 20.0172 16.2338V16.2338C20.0172 15.825 20.3486 15.4936 20.7574 15.4936H24.8981C25.3069 15.4936 25.6383 15.825 25.6383 16.2338V16.2338C25.6383 16.6426 25.3069 16.974 24.898 16.974H20.7574Z" fill="#1E66F5"/>
<path d="M29.216 19.1614C28.8235 19.1614 28.5054 18.8433 28.5054 18.4509V14.0167C28.5054 13.6243 28.8235 13.3062 29.216 13.3062V13.3062C29.6084 13.3062 29.9265 13.6243 29.9265 14.0167V18.4509C29.9265 18.8433 29.6084 19.1614 29.216 19.1614V19.1614ZM27.1455 16.974C26.7367 16.974 26.4053 16.6426 26.4053 16.2338V16.2338C26.4053 15.825 26.7367 15.4936 27.1455 15.4936H31.2862C31.695 15.4936 32.0264 15.825 32.0264 16.2338V16.2338C32.0264 16.6426 31.695 16.974 31.2862 16.974H27.1455Z" fill="#1E66F5"/>
<path d="M19.0941 11.724C19.4315 12.6212 18.6623 13.4706 17.7038 13.4706H17.5114C16.818 13.4706 16.2713 12.9317 15.9428 12.3211V12.3211C15.7624 11.9811 15.531 11.6918 15.2485 11.4532C14.9659 11.2147 14.6394 11.032 14.2691 10.9051C13.9037 10.7782 13.5066 10.7148 13.0779 10.7148C12.3032 10.7148 11.6284 10.9152 11.0535 11.3162C10.4785 11.7121 10.0327 12.2906 9.71605 13.0519C9.39935 13.8081 9.24101 14.7267 9.24101 15.8077C9.24101 16.9193 9.39935 17.853 9.71605 18.6093C10.0376 19.3655 10.4859 19.9365 11.0608 20.3221C11.6357 20.7079 12.3008 20.9008 13.056 20.9008C13.4798 20.9008 13.872 20.8424 14.2326 20.7257C14.598 20.609 14.922 20.439 15.2046 20.2156C15.4872 19.9872 15.721 19.7106 15.9062 19.3858V19.3858C16.252 18.7946 16.8018 18.2767 17.4867 18.2799L17.6783 18.2809C18.6512 18.2855 19.4156 19.1513 19.0282 20.0437C18.9821 20.1498 18.933 20.2553 18.8807 20.3602C18.5543 21.0201 18.1133 21.6113 17.5578 22.134C17.0073 22.6517 16.3496 23.0628 15.5847 23.3674C14.8245 23.6667 13.9646 23.8165 13.0048 23.8165C11.6698 23.8165 10.4761 23.5017 9.42371 22.8724C8.37619 22.2431 7.54791 21.3321 6.93888 20.1395C6.33473 18.9468 6.03265 17.5029 6.03265 15.8077C6.03265 14.1076 6.33961 12.6611 6.9535 11.4684C7.5674 10.2758 8.40055 9.36731 9.45295 8.74306C10.5053 8.11372 11.6893 7.79907 13.0048 7.79907C13.872 7.79907 14.6759 7.92594 15.4166 8.17971C16.162 8.43347 16.8222 8.80397 17.397 9.29118C17.972 9.77333 18.4398 10.3646 18.8003 11.065C18.9101 11.2755 19.0081 11.4952 19.0941 11.724Z" fill="#1E66F5"/>
</g>
</g>
<defs>
<clipPath id="clip0_145_488">
<rect width="32.1566" height="32.1566" fill="white" transform="translate(0.722656 0.156494)"/>
</clipPath>
</defs>
</svg>
