<svg width="34" height="33" viewBox="0 0 34 33" fill="none" xmlns="http://www.w3.org/2000/svg">
<path d="M15.7281 3.97081C14.7183 3.60036 13.5875 3.79884 12.7642 4.49102L5.41884 10.6668C4.59928 11.3559 4.2091 12.4295 4.39503 13.484L6.0601 22.9271C6.24616 23.9822 6.98084 24.8581 7.98756 25.2249L16.9865 28.5035C17.9946 28.8708 19.1221 28.6717 19.9435 27.9815L27.2698 21.8252C28.0897 21.1361 28.4802 20.0622 28.2942 19.0075L26.6285 9.56048C26.4429 8.50765 25.711 7.63316 24.7073 7.26495L15.7281 3.97081Z" fill="#9CA0B0"/>
<path d="M5.20809 13.1067C4.71326 12.517 5.04237 11.6127 5.80048 11.4791L15.2411 9.81444C15.9992 9.68076 16.6178 10.4179 16.3545 11.1413L13.0758 20.1493C12.8125 20.8727 11.8649 21.0398 11.3701 20.4501L5.20809 13.1067Z" fill="#11111B"/>
</svg>
