<svg width="33" height="33" viewBox="0 0 33 33" fill="none" xmlns="http://www.w3.org/2000/svg">
<path d="M15.4715 12.5966C15.8017 13.4082 15.0988 14.1891 14.2226 14.1891H14.0148C13.4048 14.1891 12.9232 13.7154 12.6249 13.1833V13.1833C12.4605 12.8858 12.2496 12.6327 11.992 12.4239C11.7345 12.2152 11.4369 12.0554 11.0994 11.9443C10.7664 11.8333 10.4044 11.7778 10.0136 11.7778C9.30756 11.7778 8.6925 11.9532 8.16848 12.304C7.64446 12.6504 7.23814 13.1567 6.94948 13.8228C6.66083 14.4844 6.51651 15.2882 6.51651 16.2342C6.51651 17.2068 6.66083 18.0238 6.94948 18.6856C7.24257 19.3472 7.65114 19.8468 8.17514 20.1843C8.69916 20.5218 9.30534 20.6905 9.99367 20.6905C10.38 20.6905 10.7375 20.6395 11.0661 20.5374C11.3992 20.4351 11.6945 20.2864 11.9521 20.0911C12.2096 19.8912 12.4228 19.6492 12.5915 19.365V19.365C12.9054 18.8497 13.3907 18.3944 13.9941 18.3971L14.1979 18.3981C15.0879 18.4021 15.7846 19.1981 15.4077 20.0043C15.3744 20.0757 15.3393 20.1468 15.3026 20.2176C15.0051 20.7949 14.6032 21.3122 14.097 21.7696C13.5952 22.2227 12.9957 22.5823 12.2984 22.8488C11.6057 23.1108 10.8219 23.2418 9.94704 23.2418C8.73025 23.2418 7.64225 22.9664 6.68304 22.4157C5.72825 21.8652 4.97332 21.068 4.41822 20.0243C3.86755 18.9809 3.59222 17.7174 3.59222 16.2342C3.59222 14.7465 3.872 13.4809 4.43154 12.4373C4.99108 11.3937 5.75047 10.5988 6.70967 10.0525C7.66889 9.50189 8.74801 9.22656 9.94704 9.22656C10.7375 9.22656 11.4702 9.33758 12.1452 9.55962C12.8247 9.78167 13.4264 10.1058 13.9504 10.5322C14.4744 10.954 14.9008 11.4714 15.2294 12.0842C15.3188 12.2486 15.3995 12.4194 15.4715 12.5966Z" fill="#179299"/>
<path d="M17.9366 11.4946C17.4116 10.5641 18.084 9.41284 19.1524 9.41284V9.41284C19.6694 9.41284 20.1441 9.69861 20.386 10.1555L23.0725 15.2291C23.0916 15.2653 23.1293 15.288 23.1702 15.288V15.288C23.2112 15.288 23.2488 15.2653 23.268 15.2291L25.9543 10.1556C26.1962 9.69863 26.6709 9.41284 27.188 9.41284V9.41284C28.2564 9.41284 28.9288 10.5642 28.4038 11.4947L24.9896 17.5461C24.7358 17.996 24.6024 18.5037 24.6024 19.0202V21.6228C24.6024 22.4138 23.9612 23.055 23.1702 23.055V23.055C22.3793 23.055 21.7381 22.4138 21.7381 21.6228V19.0202C21.7381 18.5037 21.6047 17.996 21.3509 17.5461L17.9366 11.4946Z" fill="#179299"/>
</svg>
