<svg width="33" height="33" viewBox="0 0 33 33" fill="none" xmlns="http://www.w3.org/2000/svg">
<path fill-rule="evenodd" clip-rule="evenodd" d="M19.2715 4.96786L21.4744 7.2625C22.1031 7.91739 21.6042 9.00368 20.6977 8.9535L12.5547 8.50271C11.5395 8.44651 11.2462 7.08713 12.148 6.61737L16.2264 4.49268C16.5583 4.28523 17.0724 4.17529 17.5967 4.17529C18.206 4.17529 18.9261 4.60615 19.2715 4.96786ZM8.91394 21.1525C8.91394 22.4256 9.06713 22.7377 9.6748 23.3743L10.2842 24.0089L14.1014 27.9853C14.29 28.1817 14.5505 28.2927 14.8228 28.2927H22.9933C23.5456 28.2927 23.9933 27.845 23.9933 27.2928L23.9934 24.3748C23.9934 24.1386 23.9098 23.9099 23.7573 23.7295L17.292 16.0762L10.5942 9.86054C9.95425 9.26668 8.91394 9.72052 8.91394 10.5935V21.1525Z" fill="#04A5E5"/>
<path fill-rule="evenodd" clip-rule="evenodd" d="M10.5381 9.9916C9.9279 9.35599 10.3784 8.29907 11.2595 8.29907H21.099C21.9382 8.29907 22.5458 8.37709 23.2301 9.09165L27.8264 13.8795C28.0052 14.0658 28.105 14.3139 28.105 14.5721V23.0067C28.105 23.559 27.6573 24.0067 27.105 24.0067H24.4189C24.1467 24.0067 23.8861 23.8957 23.6976 23.6993L10.5381 9.9916ZM5.7132 19.2478L7.81895 21.4413C8.45987 22.109 9.58572 21.6227 9.53907 20.6984L9.11823 12.3615C9.06554 11.3177 7.6488 11.0442 7.21133 11.9934L5.25701 16.2336C5.12595 16.5208 4.95233 17.0226 4.95233 17.3435C4.95233 18.0367 5.2434 18.7461 5.7132 19.2478Z" fill="#6C6F85"/>
</svg>
