<svg width="34" height="33" viewBox="0 0 34 33" fill="none" xmlns="http://www.w3.org/2000/svg">
<mask id="mask0_145_525" style="mask-type:alpha" maskUnits="userSpaceOnUse" x="5" y="4" width="24" height="25">
<path d="M16.9357 19.7217C16.8003 19.0456 16.2062 18.5639 15.5176 18.5291C13.9953 18.4521 12.483 18.227 11.0027 17.857L10.9159 17.8353L9.06974 17.2199C8.85404 17.148 8.64372 17.0609 8.44036 16.9592C7.69245 16.5852 7.05508 16.0226 6.59125 15.3268L6.42344 15.0751C6.04551 14.5082 5.76786 13.8806 5.60261 13.2196L5.50899 12.8451C5.26079 11.8523 5.30084 10.8093 5.62445 9.83848C5.77569 9.38477 5.98674 8.95324 6.25203 8.5553L6.48711 8.20269C7.02449 7.39661 7.70437 6.68078 8.4794 6.09952C9.59608 5.262 10.9112 4.69489 12.2881 4.46542L13.7918 4.21479C14.2849 4.13261 14.7839 4.09131 15.2838 4.09131H15.8087C16.8724 4.09131 17.9215 4.33897 18.8729 4.81467L19.9364 5.34641C21.1484 5.95244 22.2549 6.74992 23.2131 7.70814L23.4066 7.90162C24.2367 8.73169 24.9275 9.69015 25.4525 10.7401C25.8866 11.6084 26.203 12.5307 26.3934 13.4826L26.8299 15.6652L28.7748 23.4447C28.912 23.9935 28.7189 24.5749 28.2648 24.9123C26.0574 26.5524 23.6018 27.8328 20.9893 28.7037L20.4294 28.8903C19.604 29.1654 18.7241 28.655 18.5533 27.8018L16.9357 19.7217Z" fill="#A6E3A1"/>
</mask>
<g mask="url(#mask0_145_525)">
<circle cx="16.5229" cy="8.65791" r="2.89346" stroke="#40A02B" stroke-width="2.89346"/>
<circle cx="16.5229" cy="8.65791" r="4.3402" stroke="#40A02B" stroke-width="5.78693"/>
<circle cx="16.5229" cy="8.65791" r="5.78693" stroke="#40A02B" stroke-width="8.68039"/>
<circle cx="16.5229" cy="8.65791" r="6.51029" stroke="#40A02B" stroke-width="10.1271"/>
<circle cx="16.5229" cy="8.65791" r="7.95702" stroke="#40A02B" stroke-width="13.0206"/>
<circle cx="16.5229" cy="8.65791" r="9.40376" stroke="#40A02B" stroke-width="15.914"/>
<circle cx="16.5229" cy="8.65791" r="10.8505" stroke="#40A02B" stroke-width="18.8075"/>
<circle cx="16.5229" cy="8.65791" r="11.5739" stroke="#40A02B" stroke-width="20.2542"/>
</g>
</svg>
