<svg width="33" height="33" viewBox="0 0 33 33" fill="none" xmlns="http://www.w3.org/2000/svg">
<path fill-rule="evenodd" clip-rule="evenodd" d="M18.3123 9.55811C20.1133 11.5969 20.1549 13.7691 18.4377 16.125C16.5655 18.6934 16.2946 19.2013 16.2946 20.1404C16.2946 21.2723 16.9757 22.2654 18.4817 23.3297L19.289 23.9001C19.4578 24.0193 19.6594 24.0833 19.8661 24.0833H23.8841C26.9541 24.0833 28.2992 24.0046 28.492 23.813C28.6871 23.6189 28.764 22.133 28.764 18.5519V13.9918C28.764 13.7169 28.6508 13.4541 28.4511 13.2653L27.4603 12.3281C25.2032 10.1931 22.8621 9.19262 19.3598 8.86657L18.695 8.80465C18.2851 8.76647 18.0397 9.24953 18.3123 9.55811V9.55811ZM15.3231 11.0917C13.4987 13.727 10.2025 15.2801 6.40814 15.2915C5.36161 15.2947 5.06733 15.3792 4.87779 15.7312C4.56946 16.304 4.56946 23.0748 4.87779 23.6476C5.10021 24.0604 5.40787 24.0833 10.7035 24.0833H15.282C15.6631 24.0833 15.8585 23.6266 15.5953 23.351V23.351C14.4536 22.1551 14.1035 21.2541 14.2103 19.7863C14.3081 18.4439 14.3795 18.3072 16.4611 15.4841C17.7315 13.7615 17.8809 12.453 16.9652 11.0703C16.6166 10.5437 16.2567 10.1127 16.166 10.1127C16.0751 10.1127 15.6958 10.5532 15.3231 11.0917Z" fill="#FE640B"/>
</svg>
