<svg width="33" height="33" viewBox="0 0 33 33" fill="none" xmlns="http://www.w3.org/2000/svg">
<path d="M23.3159 15.5871L16.5951 4.84659C16.4023 4.52512 16.0163 4.33203 15.6304 4.33203C15.2445 4.33203 14.891 4.52485 14.6657 4.84659L7.9452 15.5871C7.9452 15.5871 7.9452 15.6191 7.91309 15.6191C6.40177 18.1917 6.43389 21.343 7.9452 23.9797C9.52095 26.7452 12.4791 28.4495 15.5983 28.4495C18.7173 28.4495 21.6759 26.745 23.2513 23.9797C24.7626 21.343 24.7947 18.2238 23.2834 15.6191C23.3157 15.6194 23.3159 15.6194 23.3159 15.5871ZM21.3542 22.8545C20.1645 24.9124 17.978 26.1988 15.6304 26.1988C13.283 26.1988 11.0964 24.9127 9.90656 22.8545C8.78117 20.9251 8.78119 18.642 9.84238 16.7768L15.6303 7.57971L21.3863 16.7768C22.4798 18.642 22.4478 20.9251 21.3542 22.8545Z" fill="#8839EF"/>
</svg>
