<svg width="33" height="33" viewBox="0 0 33 33" fill="none" xmlns="http://www.w3.org/2000/svg">
<path d="M15.5423 10.5224L12.0423 12.4315C11.3998 12.7819 11 13.4554 11 14.1873V18.3127C11 19.0446 11.3998 19.7181 12.0423 20.0685L15.5423 21.9776C16.1393 22.3032 16.8607 22.3032 17.4577 21.9776L20.9577 20.0685C21.6002 19.7181 22 19.0446 22 18.3127V14.1873C22 13.4554 21.6002 12.7819 20.9577 12.4315L17.4577 10.5224C16.8607 10.1968 16.1393 10.1968 15.5423 10.5224Z" fill="#7287FD"/>
<mask id="mask0_145_608" style="mask-type:alpha" maskUnits="userSpaceOnUse" x="3" y="4" width="27" height="24">
<path d="M8.06809 6.55698L3.92694 13.9519C3.04533 15.5262 3.08031 17.4534 4.01848 18.9946L8.03897 25.5997C8.94626 27.0903 10.565 28 12.31 28H20.69C22.435 28 24.0537 27.0903 24.961 25.5997L28.9815 18.9946C29.9197 17.4534 29.9547 15.5262 29.0731 13.9519L24.9319 6.55698C24.0477 4.97795 22.3791 4 20.5694 4H12.4306C10.6209 4 8.95235 4.97795 8.06809 6.55698Z" fill="#7287FD"/>
</mask>
<g mask="url(#mask0_145_608)">
<path d="M7.91848 6.16735L12.4607 3.68978C14.9785 2.31642 18.0216 2.31642 20.5395 3.68978L25.0817 6.16735C27.7917 7.64554 29.4779 10.4859 29.4779 13.5729V18.9268C29.4779 22.0138 27.7917 24.8542 25.0817 26.3324L20.5395 28.8099C18.0216 30.1833 14.9785 30.1833 12.4607 28.8099L7.91848 26.3324M7.91848 6.16735L7.91848 26.3324M7.91848 6.16735C5.20846 7.64554 3.52231 10.4859 3.52231 13.5729V18.9268C3.52231 22.0138 5.20846 24.8542 7.91848 26.3324M7.91848 6.16735L10.715 21.2055L7.91848 26.3324" stroke="#1E66F5" stroke-width="11.68"/>
</g>
</svg>
