<svg width="33" height="33" viewBox="0 0 33 33" fill="none" xmlns="http://www.w3.org/2000/svg">
<g clip-path="url(#clip0_145_668)">
<mask id="mask0_145_668" style="mask-type:luminance" maskUnits="userSpaceOnUse" x="0" y="0" width="33" height="33">
<path d="M32.194 0.313477H0.0373535V32.4701H32.194V0.313477Z" fill="white"/>
</mask>
<g mask="url(#mask0_145_668)">
<path d="M18.0024 24.4927C18.0024 24.8251 17.733 25.0946 17.4006 25.0946H10.2433C9.91089 25.0946 9.64142 24.8251 9.64142 24.4927C9.64142 24.1603 9.91113 23.8938 10.2431 23.8769C10.6486 23.8564 10.9627 23.8131 11.1854 23.7468C11.5081 23.6422 11.6695 23.4023 11.6695 23.0272C11.6695 22.7655 11.6172 22.4994 11.5125 22.229L11.012 20.9777C10.8085 20.4691 10.3158 20.1355 9.76797 20.1355H5.84642C5.2879 20.1355 4.78797 20.482 4.59187 21.0049L4.4861 21.287C4.24186 21.9325 4.11974 22.3992 4.11974 22.687C4.11974 23.2103 4.32036 23.5418 4.72162 23.6814C4.97231 23.7668 5.24745 23.826 5.54704 23.8592C5.87743 23.8958 6.14785 24.1603 6.14785 24.4927C6.14785 24.8251 5.87836 25.0946 5.54595 25.0946H0.639243C0.306829 25.0946 0.0373535 24.8251 0.0373535 24.4927C0.0373535 24.1603 0.309448 23.9 0.636065 23.8382C0.874289 23.793 1.08906 23.7191 1.28039 23.616C1.62058 23.4329 1.94334 23.0883 2.24864 22.5823C2.56268 22.0677 2.89851 21.3436 3.25615 20.4103L8.14955 7.59485C8.28363 7.2437 8.62053 7.01172 8.99641 7.01172C9.36963 7.01172 9.70471 7.24046 9.84064 7.58805L15.0191 20.829C15.4117 21.806 15.6996 22.469 15.8828 22.8179C16.0659 23.1581 16.3189 23.424 16.6417 23.616C16.8439 23.7307 17.0974 23.8095 17.4022 23.8524C17.7314 23.8988 18.0024 24.1603 18.0024 24.4927ZM8.23358 18.8533C9.17918 18.8533 9.82724 17.9002 9.47959 17.0207L9.03409 15.8939C8.58348 14.7541 6.96572 14.7675 6.53406 15.9145L6.10999 17.0415C5.78028 17.9176 6.42785 18.8533 7.36399 18.8533H8.23358Z" fill="#4C4F69"/>
<path d="M32.2916 22.3327C32.5589 22.3327 32.7794 22.5503 32.7498 22.816C32.6989 23.2755 32.5723 23.6815 32.3701 24.0338C32.0996 24.496 31.7332 24.8406 31.2709 25.0675C30.8173 25.2854 30.3027 25.3945 29.7269 25.3945C28.9942 25.3945 28.3836 25.2245 27.8951 24.8842C27.3169 24.4712 26.351 24.1707 25.7323 24.52C24.6999 25.103 23.6631 25.3945 22.6221 25.3945C21.6799 25.3945 20.908 25.1677 20.3061 24.7141C19.7041 24.2517 19.4032 23.6456 19.4032 22.8954C19.4032 22.276 19.5647 21.7178 19.8874 21.2206C20.2101 20.7147 20.6812 20.2654 21.3004 19.8728C21.9286 19.4802 22.6743 19.1358 23.538 18.8391C24.2354 18.5926 25.0723 18.3375 26.0485 18.0738C26.4723 17.9594 26.7699 17.5771 26.7699 17.1382C26.7699 16.5189 26.6216 16.0347 26.3249 15.6858C26.0371 15.3282 25.5006 15.1493 24.7156 15.1493C24.0439 15.1493 23.5597 15.2889 23.2632 15.568C22.9666 15.8472 22.7703 16.2702 22.6743 16.8372C22.6045 17.2385 22.4738 17.57 22.2819 17.8317C22.0986 18.0846 21.7104 18.2111 21.1173 18.2111C20.751 18.2111 20.4282 18.1064 20.1491 17.8971C19.8699 17.6878 19.7304 17.378 19.7304 16.968C19.7304 16.1569 20.1708 15.4502 21.0519 14.8484C21.9329 14.2465 23.285 13.9456 25.108 13.9456C27.0271 13.9456 28.3443 14.2683 29.0597 14.9137C29.7836 15.5593 30.1456 16.4228 30.1456 17.5045V21.6393C30.1456 22.1626 30.1588 22.5465 30.1849 22.7906C30.211 23.0349 30.2808 23.2225 30.3942 23.3534C30.5164 23.4754 30.704 23.5365 30.9569 23.5365C31.1836 23.5365 31.3799 23.4188 31.5457 23.1832C31.6297 23.0699 31.6935 22.9454 31.737 22.8098C31.8187 22.5552 32.0241 22.3327 32.2916 22.3327ZM26.2601 22.8237C26.5907 22.5906 26.7699 22.2023 26.7699 21.7977V21.0207C26.7699 20.1151 25.8833 19.4576 25.0547 19.823C24.3573 20.1306 23.8736 20.435 23.6034 20.7364C23.1586 21.2336 22.936 21.7221 22.936 22.2019C22.936 22.6032 23.0582 22.926 23.3025 23.1701C23.5467 23.4143 23.8912 23.5365 24.3362 23.5365C24.8158 23.5365 25.239 23.4362 25.6053 23.2356C25.8163 23.12 26.0346 22.9828 26.2601 22.8237Z" fill="#4C4F69"/>
</g>
</g>
<defs>
<clipPath id="clip0_145_668">
<rect width="32.1566" height="32.1566" fill="white" transform="translate(0.0358887 0.313232)"/>
</clipPath>
</defs>
</svg>
