<svg width="33" height="33" viewBox="0 0 33 33" fill="none" xmlns="http://www.w3.org/2000/svg">
<g clip-path="url(#clip0_145_675)">
<mask id="mask0_145_675" style="mask-type:luminance" maskUnits="userSpaceOnUse" x="-4" y="1" width="33" height="33">
<path d="M28.6567 1H-3.49988V33.1566H28.6567V1Z" fill="white"/>
</mask>
<g mask="url(#mask0_145_675)">
<path d="M5.96238 24.4468C5.05212 24.4468 4.31421 23.7089 4.31421 22.7986V11.8557C4.31421 10.1989 5.65735 8.85571 7.31421 8.85571H13.2783C14.0288 8.85571 14.6372 9.46411 14.6372 10.2146V10.2146C14.6372 10.9651 14.0288 11.5735 13.2783 11.5735H9.4681C8.44221 11.5735 7.61055 12.4051 7.61055 13.431V13.431C7.61055 14.4569 8.44221 15.2886 9.4681 15.2886H12.5932C13.3437 15.2886 13.9521 15.897 13.9521 16.6475V16.6475C13.9521 17.398 13.3437 18.0064 12.5932 18.0064H10.6106C8.9537 18.0064 7.61055 19.3495 7.61055 21.0064V22.7986C7.61055 23.7089 6.87264 24.4468 5.96238 24.4468V24.4468Z" fill="#179299"/>
<path d="M23.6637 23.0664L25.6286 11.0898H27.4999L25.535 23.0664H23.6637ZM18.3011 20.0956L18.6111 18.2244H27.9678L27.6579 20.0956H18.3011ZM19.4532 23.0664L21.4181 11.0898H23.2894L21.3245 23.0664H19.4532ZM18.9854 15.9319L19.3011 14.0606H28.6579L28.342 15.9319H18.9854Z" fill="#179299"/>
</g>
</g>
<defs>
<clipPath id="clip0_145_675">
<rect width="32.1566" height="32.1566" fill="white" transform="translate(0.192505 0.313232)"/>
</clipPath>
</defs>
</svg>
