<svg width="33" height="33" viewBox="0 0 33 33" fill="none" xmlns="http://www.w3.org/2000/svg">
<path fill-rule="evenodd" clip-rule="evenodd" d="M4.36932 16.3912C4.36932 9.75895 9.79575 4.33252 16.428 4.33252C23.0603 4.33252 28.4868 9.75895 28.4868 16.3912C28.4868 23.0235 23.0603 28.45 16.428 28.45C9.79575 28.45 4.36932 23.0235 4.36932 16.3912ZM6.88543 14.2515C7.86566 9.8818 11.7866 6.58139 16.428 6.58139C19.7277 6.58139 22.5823 8.1882 24.363 10.5937V10.5937C24.4671 10.7344 24.4453 10.9315 24.3131 11.0461L23.0212 12.1656C22.8736 12.2935 22.6485 12.2686 22.5324 12.1116V12.1116C21.1264 10.2097 18.8975 8.97386 16.428 8.97386C15.6943 8.97386 14.9822 9.08118 14.3083 9.28105C10.3472 10.4558 11.3699 15.5973 14.2914 18.5188L17.5187 21.7461C18.4802 22.7076 19.967 23.0705 21.0319 22.225C21.6359 21.7454 22.1637 21.1721 22.5953 20.5298C23.2385 19.5729 22.4181 18.4487 21.265 18.4487H20.7344C20.0737 18.4487 19.5381 17.9132 19.5381 17.2525V17.2525C19.5381 16.5918 20.0737 16.0563 20.7344 16.0563H25.903C26.088 16.0563 26.238 16.2062 26.238 16.3912V16.3912C26.238 21.0313 22.939 24.9496 18.6625 26.0188V26.0188C18.5483 26.0473 18.4275 26.0138 18.3443 25.9306L6.97538 14.5616C6.89425 14.4805 6.8603 14.3634 6.88543 14.2515V14.2515ZM6.61816 16.4779C6.61816 16.1795 6.97894 16.0301 7.18995 16.2411L16.4925 25.5426C16.7035 25.7536 16.554 26.1145 16.2556 26.1145V26.1145C13.8415 26.1145 11.3438 25.1314 9.47251 23.2602C7.6024 21.39 6.61816 18.9796 6.61816 16.4779V16.4779Z" fill="#8839EF"/>
</svg>
