<svg width="33" height="33" viewBox="0 0 33 33" fill="none" xmlns="http://www.w3.org/2000/svg">
<path d="M14.9247 5.46091C15.4812 4.47495 16.9033 4.47495 17.4599 5.46091L20.3762 10.6286C20.737 11.2681 21.3585 11.7188 22.0784 11.8639L27.9003 13.0372C29.0119 13.2612 29.4499 14.6111 28.6837 15.4435L24.6642 19.8107C24.4184 20.0776 24.233 20.3943 24.1209 20.7393C24.0086 21.0845 23.972 21.4496 24.0137 21.81L24.6955 27.7028C24.8255 28.8256 23.6764 29.6617 22.6447 29.1901L17.244 26.7214C16.914 26.5705 16.5552 26.4924 16.1924 26.4924C15.8294 26.4924 15.4707 26.5705 15.1406 26.7214L9.74 29.1901C8.70831 29.6616 7.55928 28.8256 7.68911 27.7028L8.371 21.81C8.4554 21.0807 8.21791 20.3509 7.72062 19.8107L3.70094 15.4435C2.9348 14.6112 3.37281 13.2612 4.48431 13.0372L10.3063 11.8639C11.0263 11.7188 11.6477 11.2681 12.0085 10.6286L14.9247 5.46091Z" fill="#D20F39"/>
<circle cx="12.5" cy="16.2441" r="1.25" fill="black" stroke="black" stroke-width="0.5"/>
<circle cx="20.5" cy="16.2441" r="1.25" fill="black" stroke="black" stroke-width="0.5"/>
<path d="M15.1322 21.2441V21.2441C15.6059 22.6293 17.5441 22.6854 18.0971 21.3301L18.1322 21.2441" stroke="black" stroke-linecap="round"/>
</svg>
