<svg width="33" height="33" viewBox="0 0 33 33" fill="none" xmlns="http://www.w3.org/2000/svg">
<path d="M4.64501 26.0716C3.84618 26.0716 3.36982 25.1812 3.81313 24.5167L8.71083 17.1749C8.93498 16.8389 8.93499 16.4011 8.71084 16.0651L3.81308 8.72291C3.36978 8.05837 3.84615 7.16797 4.64497 7.16797H6.96973C7.30398 7.16797 7.61613 7.33497 7.80162 7.61303L13.4398 16.0651C13.6639 16.4011 13.6639 16.8389 13.4398 17.1749L7.80162 25.6266C7.61613 25.9046 7.30398 26.0716 6.96974 26.0716H4.64501Z" fill="#8839EF"/>
<path d="M10.9499 26.0714C10.1511 26.0714 9.67469 25.181 10.118 24.5164L15.0157 17.1747C15.2398 16.8387 15.2398 16.4008 15.0157 16.0648L10.1179 8.72266C9.67465 8.05812 10.151 7.16772 10.9498 7.16772H13.2745C13.6088 7.16772 13.9209 7.33473 14.1064 7.6128L25.3822 24.5165C25.8255 25.181 25.3492 26.0714 24.5504 26.0714H22.2261C21.8919 26.0714 21.5797 25.9044 21.3942 25.6263L18.5824 21.4112C18.1866 20.8178 17.3146 20.8178 16.9187 21.4111L14.1063 25.6264C13.9208 25.9044 13.6087 26.0714 13.2745 26.0714H10.9499Z" fill="#8839EF"/>
<path d="M24.8534 20.5595C24.5192 20.5595 24.2071 20.3925 24.0216 20.1144L23.2539 18.9636C22.8107 18.2991 23.287 17.4087 24.0859 17.4087H28.5729C29.1251 17.4087 29.5729 17.8564 29.5729 18.4087V19.5597C29.5729 20.112 29.1251 20.5597 28.5728 20.5597L24.8534 20.5595ZM21.7009 15.834C21.3667 15.834 21.0545 15.6669 20.869 15.3889L20.1014 14.238C19.6581 13.5735 20.1345 12.6831 20.9333 12.6831H28.5729C29.1251 12.6831 29.5729 13.1308 29.5729 13.6831V14.834C29.5729 15.3862 29.1251 15.834 28.5729 15.834H21.7009Z" fill="#8839EF"/>
</svg>
