<svg width="33" height="33" viewBox="0 0 33 33" fill="none" xmlns="http://www.w3.org/2000/svg">
<path d="M16.3317 28.6057C22.9916 28.6057 28.3905 23.2069 28.3905 16.547C28.3905 9.88716 22.9916 4.48828 16.3317 4.48828C9.67189 4.48828 4.27301 9.88716 4.27301 16.547C4.27301 23.2069 9.67189 28.6057 16.3317 28.6057ZM16.3317 5.99562C17.3219 5.99562 18.4522 6.88533 19.3792 8.87184C19.5478 9.23306 19.705 9.622 19.8492 10.0356C20.0644 10.6529 19.5844 11.2713 18.9307 11.2713H13.7328C13.079 11.2713 12.599 10.6529 12.8142 10.0356C12.9584 9.62201 13.1157 9.23307 13.2842 8.87184C14.2113 6.88533 15.3416 5.99562 16.3317 5.99562ZM11.9183 8.2344C11.5986 8.91941 11.3196 9.68174 11.0874 10.5054C10.9616 10.9516 10.5617 11.2713 10.0981 11.2713H8.92566C8.15549 11.2713 7.68978 10.4431 8.17906 9.84835C9.00019 8.85014 10.0011 8.00538 11.1322 7.36358C11.6469 7.07152 12.1686 7.69812 11.9183 8.2344V8.2344ZM9.4211 12.7787C10.0361 12.7787 10.5041 13.3285 10.439 13.94C10.3493 14.781 10.3024 15.6536 10.3024 16.547C10.3024 17.4404 10.3493 18.313 10.439 19.154C10.5041 19.7655 10.0361 20.3154 9.4211 20.3154H7.16133C6.74688 20.3154 6.37093 20.061 6.24861 19.665C5.94424 18.6796 5.78035 17.6324 5.78035 16.547C5.78035 15.4616 5.94424 14.4144 6.24861 13.429C6.37093 13.033 6.74688 12.7787 7.16133 12.7787H9.4211ZM10.0981 21.8227C10.5617 21.8227 10.9616 22.1424 11.0874 22.5886C11.3196 23.4123 11.5986 24.1746 11.9183 24.8596V24.8596C12.1686 25.3959 11.6469 26.0225 11.1322 25.7305C10.001 25.0887 9.00016 24.2439 8.17903 23.2457C7.68976 22.6509 8.15547 21.8227 8.92564 21.8227H10.0981ZM12.8142 23.0584C12.599 22.4411 13.079 21.8227 13.7328 21.8227H18.9307C19.5844 21.8227 20.0644 22.4411 19.8492 23.0584C19.705 23.472 19.5478 23.8609 19.3792 24.2221C18.4522 26.2087 17.3219 27.0984 16.3317 27.0984C15.3416 27.0984 14.2113 26.2087 13.2842 24.2221C13.1157 23.8609 12.9584 23.472 12.8142 23.0584ZM20.6682 19.4815C20.6056 19.9646 20.1869 20.3154 19.6998 20.3154H12.9637C12.4766 20.3154 12.0579 19.9647 11.9953 19.4816C11.8748 18.5517 11.8097 17.5677 11.8097 16.547C11.8097 15.5264 11.8748 14.5423 11.9953 13.6125C12.0579 13.1294 12.4766 12.7787 12.9637 12.7787H19.6998C20.1869 12.7787 20.6056 13.1294 20.6682 13.6125C20.7887 14.5423 20.8538 15.5264 20.8538 16.547C20.8538 17.5677 20.7887 18.5517 20.6682 19.4815ZM21.5761 22.5886C21.7019 22.1424 22.1017 21.8227 22.5654 21.8227H23.7378C24.508 21.8227 24.9737 22.6509 24.4844 23.2457C23.6633 24.2439 22.6624 25.0887 21.5313 25.7305C21.0166 26.0225 20.4949 25.3959 20.7452 24.8596V24.8596C21.0648 24.1746 21.3439 23.4123 21.5761 22.5886ZM26.4148 19.665C26.2925 20.061 25.9166 20.3154 25.5021 20.3154H23.2424C22.6275 20.3154 22.1594 19.7655 22.2246 19.154C22.3142 18.313 22.3611 17.4404 22.3611 16.547C22.3611 15.6536 22.3142 14.781 22.2246 13.94C22.1594 13.3285 22.6275 12.7787 23.2424 12.7787H25.5021C25.9166 12.7787 26.2925 13.033 26.4148 13.429C26.7192 14.4144 26.8831 15.4616 26.8831 16.547C26.8831 17.6324 26.7192 18.6796 26.4148 19.665ZM20.7452 8.2344C20.4949 7.69812 21.0165 7.07151 21.5313 7.36359C22.6624 8.00539 23.6632 8.85013 24.4844 9.84832C24.9737 10.4431 24.508 11.2713 23.7378 11.2713H22.5654C22.1017 11.2713 21.7019 10.9516 21.5761 10.5054C21.3439 9.68173 21.0648 8.9194 20.7452 8.2344V8.2344Z" fill="#1E66F5"/>
</svg>
