<svg width="33" height="33" viewBox="0 0 33 33" fill="none" xmlns="http://www.w3.org/2000/svg">
<path d="M17.3733 20.5198C17.5107 20.1511 17.419 19.736 17.1391 19.4594L14.8476 17.195C14.8294 17.1769 14.8294 17.1475 14.8475 17.1294V17.1294C16.582 15.1955 17.8633 12.9988 18.6831 10.6711C18.8287 10.2575 19.2135 9.97092 19.652 9.97092H21.1266C21.6788 9.97092 22.1266 9.5232 22.1266 8.97092V8.77843C22.1266 8.22614 21.6788 7.77843 21.1266 7.77843H15.4528C14.9005 7.77843 14.4528 7.33071 14.4528 6.77843V6.58594C14.4528 6.03365 14.0051 5.58594 13.4528 5.58594H13.2603C12.7081 5.58594 12.2603 6.03365 12.2603 6.58594V6.77843C12.2603 7.33071 11.8126 7.77843 11.2603 7.77843H5.58661C5.03432 7.77843 4.58661 8.22614 4.58661 8.77843V8.97092C4.58661 9.5232 5.03432 9.97092 5.58661 9.97092H15.4236C16.1121 9.97092 16.5931 10.6506 16.3137 11.2798C15.7358 12.5813 14.9876 13.8304 14.072 14.9882C13.704 15.4534 13.0085 15.454 12.6404 14.9888C12.0644 14.2608 11.5551 13.4952 11.1126 12.7022C10.9297 12.3746 10.5883 12.1634 10.2131 12.1634H10.1753C9.45042 12.1634 8.9704 12.9095 9.32021 13.5444C9.87555 14.5523 10.5293 15.5209 11.2772 16.4372C11.6151 16.8512 11.5991 17.4576 11.2186 17.8329L7.03562 21.9584C6.64047 22.3481 6.63827 22.985 7.03071 23.3775L7.16825 23.515C7.55878 23.9055 8.19194 23.9055 8.58246 23.515L12.6495 19.448C13.04 19.0575 13.6732 19.0575 14.0637 19.448L15.6652 21.0495C16.1801 21.5645 17.0551 21.3739 17.3094 20.6915L17.3733 20.5198ZM24.0143 15.0048C23.8679 14.6145 23.4948 14.3559 23.078 14.3559H22.2714C21.8546 14.3559 21.4815 14.6145 21.3351 15.0048L17.152 26.1598C16.9068 26.8136 17.3901 27.5109 18.0883 27.5109H18.1438C18.5612 27.5109 18.9347 27.2517 19.0806 26.8607L19.8228 24.8724C19.9688 24.4813 20.3423 24.2221 20.7597 24.2221H24.5809C24.9972 24.2221 25.37 24.48 25.5167 24.8696L26.2676 26.8634C26.4144 27.253 26.7871 27.5109 27.2035 27.5109H27.2611C27.9593 27.5109 28.4425 26.8136 28.1974 26.1598L24.0143 15.0048ZM22.3406 22.0297C21.6427 22.0297 21.1594 21.3329 21.404 20.6793L21.7381 19.7862C22.0621 18.9201 23.2872 18.9201 23.6113 19.7862L23.9454 20.6793C24.19 21.3329 23.7067 22.0297 23.0088 22.0297H22.3406Z" fill="#8839EF"/>
</svg>
