<svg width="33" height="33" viewBox="0 0 33 33" fill="none" xmlns="http://www.w3.org/2000/svg">
<path fill-rule="evenodd" clip-rule="evenodd" d="M16.1143 6.36457C10.4904 6.36457 5.93135 10.9236 5.93135 16.5475C5.93135 22.1714 10.4904 26.7304 16.1143 26.7304C21.7382 26.7304 26.2972 22.1714 26.2972 16.5475C26.2972 16.2548 26.2849 15.9649 26.2608 15.6786C26.2487 15.537 26.234 15.3962 26.2163 15.2563C26.1489 14.7223 26.04 14.2016 25.8934 13.6974C25.8894 13.6838 25.8991 13.6701 25.9132 13.6693V13.6693C26.0512 13.6612 26.1873 13.6458 26.3211 13.6234C26.9403 13.5198 27.5091 13.2675 27.9897 12.9045C28.3643 12.6215 28.9676 12.7243 29.0855 13.1788V13.1788C29.3645 14.2561 29.5129 15.3852 29.5129 16.5475C29.5129 23.9473 23.5141 29.9461 16.1143 29.9461C8.71445 29.9461 2.7157 23.9473 2.7157 16.5475C2.7157 9.14767 8.71445 3.14893 16.1143 3.14893C18.8017 3.14893 21.3054 3.94117 23.4029 5.30328C23.8425 5.58875 24.383 5.66117 24.9071 5.66117V5.66117C26.5258 5.66117 27.838 6.9734 27.838 8.59211C27.838 10.2108 26.5258 11.5231 24.9071 11.5231C23.2884 11.5231 21.9762 10.2108 21.9762 8.59211V8.59211C21.9762 8.37154 21.8864 8.15426 21.7022 8.03304C20.0977 6.97756 18.1782 6.36457 16.1143 6.36457ZM16.1143 22.4094C19.3441 22.4094 21.9762 19.7823 21.9762 16.5475C21.9762 13.3177 19.3491 10.6857 16.1143 10.6857C12.8795 10.6857 10.2524 13.3177 10.2524 16.5475C10.2524 19.7774 12.8845 22.4094 16.1143 22.4094Z" fill="#1E66F5"/>
</svg>
