<svg width="33" height="33" viewBox="0 0 33 33" fill="none" xmlns="http://www.w3.org/2000/svg">
<path d="M5.4566 27.277V6.60184C5.4566 5.65029 6.22799 4.87891 7.17953 4.87891H25.2552C26.7826 4.87891 27.5547 6.71932 26.4844 7.8091L18.7242 15.7104C18.0575 16.3892 18.0672 17.4799 18.7459 18.1467L26.7883 26.048C27.8885 27.1289 27.1232 28.9999 25.5808 28.9999H7.17953C6.22799 28.9999 5.4566 28.2285 5.4566 27.277Z" fill="url(#paint0_linear_145_1491)"/>
<mask id="mask0_145_1491" style="mask-type:alpha" maskUnits="userSpaceOnUse" x="5" y="4" width="23" height="25">
<path d="M5.4566 27.277V6.60184C5.4566 5.65029 6.22799 4.87891 7.17953 4.87891H25.2552C26.7826 4.87891 27.5547 6.71932 26.4844 7.8091L18.7242 15.7104C18.0575 16.3892 18.0672 17.4799 18.7459 18.1467L26.7883 26.048C27.8885 27.1289 27.1232 28.9999 25.5808 28.9999H7.17953C6.22799 28.9999 5.4566 28.2285 5.4566 27.277Z" fill="#D9D9D9"/>
</mask>
<g mask="url(#mask0_145_1491)">
<path d="M30.2236 4.23291L5.45652 29H3.30286L3.73359 19.5239L18.3785 4.23291H30.2236Z" fill="url(#paint1_linear_145_1491)"/>
</g>
<defs>
<linearGradient id="paint0_linear_145_1491" x1="5.4566" y1="17.0022" x2="29.793" y2="16.8766" gradientUnits="userSpaceOnUse">
<stop stop-color="#1E66F5"/>
<stop offset="1" stop-color="#8839EF"/>
</linearGradient>
<linearGradient id="paint1_linear_145_1491" x1="22.9012" y1="4.87901" x2="5.67188" y2="22.7544" gradientUnits="userSpaceOnUse">
<stop stop-color="#FE640B"/>
<stop offset="1" stop-color="#EA76CB"/>
</linearGradient>
</defs>
</svg>
