<svg width="33" height="33" viewBox="0 0 33 33" fill="none" xmlns="http://www.w3.org/2000/svg">
<path d="M17.8052 13.4902C18.6931 13.7499 19.7609 13.8063 20.4151 13.1522V13.1522C21.0691 12.4982 21.0761 11.4143 20.281 10.9418C17.71 9.41406 14.3365 9.75611 12.1248 11.968C9.50835 14.5842 9.50835 18.8261 12.1248 21.4424C14.3365 23.6543 17.7098 23.9963 20.2808 22.4687C21.076 21.9961 21.0691 20.9122 20.4149 20.2581V20.2581C19.7608 19.604 18.6931 19.6603 17.8052 19.9199C16.6684 20.2522 15.39 19.9702 14.4935 19.0737C13.1856 17.7657 13.1856 15.6447 14.4935 14.3366C15.39 13.4398 16.6684 13.1577 17.8052 13.4902Z" fill="#4C4F69"/>
<path d="M16.8612 3.30591C9.46135 3.30591 3.46265 9.30453 3.46265 16.7045C3.46265 24.1044 9.46127 30.1031 16.8612 30.1031C24.2611 30.1031 30.2598 24.1044 30.2598 16.7045C30.2598 9.30461 24.2611 3.30591 16.8612 3.30591ZM16.8612 26.7533C11.311 26.7533 6.81247 22.2545 6.81247 16.7045C6.81247 11.1546 11.3113 6.65573 16.8612 6.65573C22.4112 6.65573 26.91 11.1546 26.91 16.7045C26.91 22.2545 22.4112 26.7533 16.8612 26.7533Z" fill="#6C6F85"/>
</svg>
