<svg width="33" height="33" viewBox="0 0 33 33" fill="none" xmlns="http://www.w3.org/2000/svg">
<path fill-rule="evenodd" clip-rule="evenodd" d="M9.47655 14.0247H22.8751C25.0951 14.0247 26.8947 15.8243 26.8947 18.0443V24.7436C26.8947 26.9635 25.0951 28.7632 22.8751 28.7632H9.47655C7.25659 28.7632 5.45697 26.9635 5.45697 24.7436V18.0443C5.45697 15.8243 7.2566 14.0247 9.47655 14.0247ZM9.47655 16.7044C8.73657 16.7044 8.13669 17.3043 8.13669 18.0443V24.7436C8.13669 25.4834 8.73657 26.0834 9.47655 26.0834H22.8751C23.6151 26.0834 24.215 25.4834 24.215 24.7436V18.0443C24.215 17.3043 23.6151 16.7044 22.8751 16.7044H9.47655Z" fill="#4C4F69"/>
<path fill-rule="evenodd" clip-rule="evenodd" d="M21.8949 7.23401C20.6696 5.4658 18.427 4.74657 16.6483 4.65651C14.7716 4.56149 12.36 5.10642 10.7959 7.11276C10.1328 7.96335 9.85391 8.99827 9.7101 9.77467C9.55361 10.6196 9.49211 11.5438 9.4788 12.4377C9.4646 13.3921 9.50469 14.3965 9.57211 15.3644H12.2587C12.0619 12.6983 12.0815 9.82217 12.9093 8.76031C14.605 6.58506 18.5618 7.12887 19.6924 8.76031C20.2583 9.57703 20.2576 12.5744 20.1157 15.3644H22.7988C22.8513 14.294 22.8838 13.1845 22.8722 12.1625C22.8626 11.3127 22.8223 10.4596 22.7227 9.71186C22.6429 9.11234 22.4716 8.06629 21.8949 7.23401Z" fill="#4C4F69"/>
</svg>
