<svg width="33" height="33" viewBox="0 0 33 33" fill="none" xmlns="http://www.w3.org/2000/svg">
<path fill-rule="evenodd" clip-rule="evenodd" d="M14.4464 11.1634C15.0014 12.1247 14.672 13.3539 13.7108 13.9088L5.58835 18.5984C4.62708 19.1533 3.39792 18.824 2.84294 17.8628C2.28794 16.9014 2.61729 15.6722 3.57856 15.1173L11.701 10.4278C12.6623 9.87281 13.8915 10.2022 14.4464 11.1634Z" fill="#D20F39"/>
<path fill-rule="evenodd" clip-rule="evenodd" d="M2.84284 15.8583C3.39782 14.897 4.62699 14.5676 5.58826 15.1226L13.7107 19.8121C14.672 20.3671 15.0013 21.5963 14.4463 22.5576C13.8914 23.5188 12.6622 23.8482 11.7009 23.2932L3.57847 18.6037C2.6172 18.0487 2.28785 16.8195 2.84284 15.8583Z" fill="#1E66F5"/>
<path fill-rule="evenodd" clip-rule="evenodd" d="M30.3242 15.8583C29.7692 14.897 28.54 14.5676 27.5788 15.1226L19.4563 19.8121C18.4951 20.3671 18.1658 21.5963 18.7208 22.5576C19.2757 23.5188 20.5049 23.8482 21.4661 23.2932L29.5886 18.6037C30.5498 18.0487 30.8793 16.8195 30.3242 15.8583Z" fill="#DF8E1D"/>
<path fill-rule="evenodd" clip-rule="evenodd" d="M18.7208 11.1634C18.1658 12.1247 18.4952 13.3539 19.4564 13.9088L27.5789 18.5984C28.5401 19.1533 29.7693 18.824 30.3242 17.8628C30.8792 16.9014 30.5499 15.6722 29.5886 15.1173L21.4662 10.4278C20.5049 9.87281 19.2758 10.2022 18.7208 11.1634Z" fill="#179299"/>
</svg>
