<svg width="33" height="33" viewBox="0 0 33 33" fill="none" xmlns="http://www.w3.org/2000/svg">
<path fill-rule="evenodd" clip-rule="evenodd" d="M25.7538 13.1317C25.7543 13.336 25.7549 13.5464 25.7648 13.7625C25.7799 14.0293 25.834 14.3042 25.8897 14.5867C25.9865 15.0792 26.0878 15.5941 25.9948 16.1259C25.9146 16.6473 25.8584 17.1686 25.8032 17.6807C25.7433 18.237 25.6845 18.7823 25.5974 19.305C25.5349 19.712 25.243 20.0825 24.9535 20.4503C24.6627 20.8198 24.374 21.1866 24.3216 21.5848C24.0496 23.7181 21.9163 24.7011 16.8968 24.7011V24.8684H16.8759V24.7011C11.8562 24.7011 9.63923 23.7181 9.34642 21.5848C9.29447 21.2004 8.98959 20.8365 8.68051 20.4677C8.36745 20.0942 8.05009 19.7155 7.98695 19.305C7.89983 18.7823 7.84106 18.237 7.78112 17.6807C7.72594 17.1686 7.66976 16.6473 7.58956 16.1259C7.49668 15.5952 7.59738 15.0898 7.69413 14.6042C7.74989 14.3243 7.80432 14.0511 7.81963 13.7834C7.83103 13.6162 7.83897 13.4531 7.84673 13.2939C7.88167 12.5771 7.91276 11.9392 8.23793 11.3573C9.24184 9.62136 11.8771 8.61743 16.8968 8.61743C21.9163 8.61743 24.4261 9.62136 25.4301 11.3364C25.7502 11.8645 25.7518 12.4661 25.7538 13.1317ZM17.3324 16.2838C17.4219 16.2607 17.4594 16.106 17.4161 15.9382C17.3728 15.7705 17.2653 15.6531 17.1757 15.6761C17.0862 15.6993 17.0487 15.8539 17.092 16.0217C17.1353 16.1896 17.2429 16.3068 17.3324 16.2838ZM17.1812 16.6624C17.0152 16.6955 16.8968 16.7192 16.8968 16.7534C16.9084 16.8004 16.9137 16.8737 16.9196 16.9586C16.9243 17.025 16.9293 17.0984 16.9386 17.1717C16.9386 17.2616 16.9398 17.3828 16.9413 17.5212C16.9464 18.0238 16.9537 18.7512 16.9126 19.0129C17.8335 19.0449 19.2184 20.2667 19.2184 21.7939V21.8777C19.1975 20.3927 17.4406 19.1796 16.8759 19.1796C16.3111 19.1796 14.5543 20.3927 14.5334 21.8777V21.7939C14.5334 20.2929 15.908 19.0547 16.8289 19.0133C16.7712 18.6983 16.7712 17.6334 16.7712 17.1717C16.7712 17.0832 16.7789 16.9718 16.7849 16.8837C16.7889 16.8261 16.7921 16.7782 16.7921 16.7534C16.7921 16.7 15.9443 16.48 15.6913 16.4156C15.9027 16.468 16.5247 16.6135 16.6457 16.5442C16.7712 16.4606 16.834 16.2097 16.834 16.2097C16.834 16.2097 16.8758 16.4606 17.0431 16.5442C17.2105 16.6489 17.9844 16.3979 17.9844 16.3979C17.7615 16.5464 17.4216 16.6143 17.1812 16.6624ZM15.621 16.3979C15.621 16.3979 15.6471 16.4047 15.6913 16.4156L15.621 16.3979ZM16.5101 16.0305C16.4588 16.196 16.3456 16.308 16.2573 16.2807C16.1691 16.2532 16.1391 16.0968 16.1906 15.9314C16.2419 15.7659 16.355 15.654 16.4432 15.6814C16.5315 15.7087 16.5614 15.865 16.5101 16.0305ZM14.868 17.8618C14.868 17.9543 14.7931 18.0292 14.7006 18.0292C14.6083 18.0292 14.5333 17.9543 14.5333 17.8618C14.5333 17.7694 14.6083 17.6945 14.7006 17.6945C14.7931 17.6945 14.868 17.7694 14.868 17.8618ZM13.9059 18.8658C13.9059 18.9582 13.831 19.0331 13.7386 19.0331C13.6462 19.0331 13.5713 18.9582 13.5713 18.8658C13.5713 18.7735 13.6462 18.6984 13.7386 18.6984C13.831 18.6984 13.9059 18.7735 13.9059 18.8658ZM13.4248 18.0292C13.5173 18.0292 13.5922 17.9543 13.5922 17.862C13.5922 17.7695 13.5173 17.6946 13.4248 17.6946C13.3324 17.6946 13.2575 17.7695 13.2575 17.862C13.2575 17.9543 13.3324 18.0292 13.4248 18.0292ZM18.9464 17.862C18.9464 17.9543 18.8715 18.0292 18.779 18.0292C18.6867 18.0292 18.6118 17.9543 18.6118 17.862C18.6118 17.7695 18.6867 17.6946 18.779 17.6946C18.8715 17.6946 18.9464 17.7695 18.9464 17.862ZM19.7412 19.0331C19.8336 19.0331 19.9085 18.9582 19.9085 18.8658C19.9085 18.7735 19.8336 18.6984 19.7412 18.6984C19.6487 18.6984 19.5738 18.7735 19.5738 18.8658C19.5738 18.9582 19.6487 19.0331 19.7412 19.0331ZM20.2222 17.8618C20.2222 17.9543 20.1473 18.0292 20.055 18.0292C19.9625 18.0292 19.8876 17.9543 19.8876 17.8618C19.8876 17.7694 19.9625 17.6945 20.055 17.6945C20.1473 17.6945 20.2222 17.7694 20.2222 17.8618Z" fill="#FED7AA"/>
<path fill-rule="evenodd" clip-rule="evenodd" d="M24.4476 15.2692C24.4476 16.2858 23.6235 17.1098 22.607 17.1098C21.5905 17.1098 20.7665 16.2858 20.7665 15.2692C20.7665 14.2527 21.5905 13.4287 22.607 13.4287C23.6235 13.4287 24.4476 14.2527 24.4476 15.2692ZM22.607 14.4535C22.607 14.7192 22.3916 14.9345 22.126 14.9345C21.8603 14.9345 21.6449 14.7192 21.6449 14.4535C21.6449 14.1878 21.8603 13.9725 22.126 13.9725C22.3916 13.9725 22.607 14.1878 22.607 14.4535Z" fill="#18181B"/>
<path d="M19.8038 15.1851C19.8038 15.1851 21.4562 16.3144 22.3555 17.4229C23.2549 18.5314 23.234 18.7405 23.234 18.7405L22.5857 19.0334C22.5857 19.0334 21.6653 17.2973 20.5359 16.649C19.3855 16.0006 19.2601 15.4569 19.2601 15.4569L19.8038 15.1851Z" fill="#FED7AA"/>
<path fill-rule="evenodd" clip-rule="evenodd" d="M12.9226 15.2692C12.9226 16.2858 12.0986 17.1098 11.0821 17.1098C10.0656 17.1098 9.24158 16.2858 9.24158 15.2692C9.24158 14.2527 10.0656 13.4287 11.0821 13.4287C12.0986 13.4287 12.9226 14.2527 12.9226 15.2692ZM12.0442 14.4535C12.0442 14.7192 11.8288 14.9345 11.5632 14.9345C11.2975 14.9345 11.0821 14.7192 11.0821 14.4535C11.0821 14.1878 11.2975 13.9725 11.5632 13.9725C11.8288 13.9725 12.0442 14.1878 12.0442 14.4535Z" fill="#18181B"/>
<path d="M13.7596 15.1851C13.7596 15.1851 12.1073 16.3144 11.2079 17.4229C10.3086 18.5314 10.3295 18.7405 10.3295 18.7405L10.9779 19.0334C10.9779 19.0334 11.8981 17.2973 13.0275 16.649C14.157 16.0006 14.3034 15.4569 14.3034 15.4569L13.7596 15.1851Z" fill="#FED7AA"/>
<path d="M22.0006 9.16209C22.0006 9.16209 24.4268 11.1909 25.1378 13.5333C25.8489 15.8759 25.5561 18.7202 26.0999 19.0758C26.8738 19.5777 27.7522 16.5869 28.0451 16.2733C28.5052 15.7712 30.0319 14.4954 30.1366 14.2653C30.2411 14.0353 27.0411 10.5425 25.6398 9.85229C23.9456 9.05751 21.8541 8.99477 22.0006 9.16209Z" fill="#713F12"/>
<path d="M11.4794 9.16209C11.4794 9.16209 9.05328 11.1909 8.34216 13.5333C7.63105 15.8759 7.92386 18.7202 7.38008 19.0758C6.60622 19.5777 5.72778 16.5869 5.43498 16.2733C4.97485 15.7712 3.44805 14.4954 3.34348 14.2653C3.2389 14.0353 6.4389 10.5425 7.8402 9.85229C9.53432 9.05751 11.6258 8.99477 11.4794 9.16209Z" fill="#713F12"/>
<path fill-rule="evenodd" clip-rule="evenodd" d="M21.7285 18.0507C21.0111 17.169 19.9843 16.3301 18.64 15.9229C18.499 15.4747 17.8337 14.9971 16.8971 14.9971C15.9836 15.0131 15.328 15.4712 15.1655 15.9009C13.7849 16.2994 12.7334 17.1529 12.003 18.0507C11.032 19.2353 11.0347 19.7528 11.04 20.7916C11.0404 20.8717 11.0409 20.9548 11.0409 21.0416C11.0409 24.3715 11.9305 24.4555 12.8074 24.5383C13.0871 24.5647 13.3656 24.5911 13.6134 24.7226C14.4541 25.143 15.3221 25.1173 16.206 25.091C16.4216 25.0846 16.638 25.0782 16.8553 25.0782H16.8762C17.0807 25.0782 17.2831 25.083 17.4838 25.0877C18.3912 25.1092 19.2616 25.1299 20.118 24.7017C20.3665 24.5749 20.6459 24.5551 20.9263 24.5353C21.8026 24.4732 22.6905 24.4102 22.6905 21.0834L22.6936 20.9183C22.7149 19.8181 22.7255 19.2672 21.7285 18.0507ZM17.3327 16.2844C17.4222 16.2614 17.4597 16.1066 17.4164 15.9389C17.3732 15.7711 17.2656 15.6537 17.1761 15.6768C17.0866 15.7 17.0491 15.8546 17.0923 16.0223C17.1356 16.1902 17.2432 16.3075 17.3327 16.2844ZM17.1816 16.663C17.0156 16.6961 16.8971 16.7199 16.8971 16.754C16.9088 16.8011 16.914 16.8743 16.9199 16.9593C16.9246 17.0256 16.9297 17.099 16.9389 17.1723C16.9389 17.2622 16.9401 17.3835 16.9416 17.5219C16.9467 18.0245 16.9541 18.7519 16.9129 19.0136C17.8338 19.0456 19.2187 20.2674 19.2187 21.7946V21.8783C19.1978 20.3934 17.441 19.1802 16.8762 19.1802C16.3115 19.1802 14.5546 20.3934 14.5337 21.8783V21.7946C14.5337 20.2935 15.9083 19.0554 16.8292 19.014C16.7716 18.699 16.7716 17.634 16.7716 17.1723C16.7716 17.0839 16.7792 16.9724 16.7852 16.8844C16.7893 16.8268 16.7925 16.7788 16.7925 16.754C16.7925 16.7007 15.9446 16.4807 15.6916 16.4162C15.9031 16.4686 16.525 16.6141 16.646 16.5449C16.7716 16.4613 16.8343 16.2103 16.8343 16.2103C16.8343 16.2103 16.8761 16.4613 17.0434 16.5449C17.2108 16.6495 17.9847 16.3986 17.9847 16.3986C17.7619 16.547 17.4219 16.6149 17.1816 16.663ZM15.6213 16.3986C15.6213 16.3986 15.6474 16.4054 15.6916 16.4162L15.6213 16.3986ZM16.5104 16.0312C16.4591 16.1966 16.3459 16.3087 16.2576 16.2813C16.1694 16.2539 16.1394 16.0975 16.1909 15.932C16.2422 15.7666 16.3553 15.6547 16.4436 15.682C16.5319 15.7093 16.5617 15.8657 16.5104 16.0312ZM14.8683 17.8625C14.8683 17.9549 14.7934 18.0298 14.7009 18.0298C14.6086 18.0298 14.5336 17.9549 14.5336 17.8625C14.5336 17.77 14.6086 17.6951 14.7009 17.6951C14.7934 17.6951 14.8683 17.77 14.8683 17.8625ZM13.9062 18.8664C13.9062 18.9589 13.8313 19.0338 13.7389 19.0338C13.6465 19.0338 13.5716 18.9589 13.5716 18.8664C13.5716 18.7741 13.6465 18.6991 13.7389 18.6991C13.8313 18.6991 13.9062 18.7741 13.9062 18.8664ZM13.4252 18.0298C13.5176 18.0298 13.5925 17.9549 13.5925 17.8626C13.5925 17.7702 13.5176 17.6953 13.4252 17.6953C13.3328 17.6953 13.2578 17.7702 13.2578 17.8626C13.2578 17.9549 13.3328 18.0298 13.4252 18.0298ZM18.9467 17.8626C18.9467 17.9549 18.8718 18.0298 18.7793 18.0298C18.687 18.0298 18.6121 17.9549 18.6121 17.8626C18.6121 17.7702 18.687 17.6953 18.7793 17.6953C18.8718 17.6953 18.9467 17.7702 18.9467 17.8626ZM19.7415 19.0338C19.8339 19.0338 19.9088 18.9589 19.9088 18.8664C19.9088 18.7741 19.8339 18.6991 19.7415 18.6991C19.649 18.6991 19.5741 18.7741 19.5741 18.8664C19.5741 18.9589 19.649 19.0338 19.7415 19.0338ZM20.2225 17.8625C20.2225 17.9549 20.1476 18.0298 20.0553 18.0298C19.9628 18.0298 19.8879 17.9549 19.8879 17.8625C19.8879 17.77 19.9628 17.6951 20.0553 17.6951C20.1476 17.6951 20.2225 17.77 20.2225 17.8625Z" fill="#713F12"/>
<path d="M22.126 14.9335C22.3915 14.9335 22.607 14.7182 22.607 14.4525C22.607 14.1868 22.3915 13.9714 22.126 13.9714C21.8603 13.9714 21.6448 14.1868 21.6448 14.4525C21.6448 14.7182 21.8603 14.9335 22.126 14.9335Z" fill="#CDD6F4"/>
<path d="M11.5639 14.9335C11.8295 14.9335 12.0449 14.7182 12.0449 14.4525C12.0449 14.1868 11.8295 13.9714 11.5639 13.9714C11.2982 13.9714 11.0828 14.1868 11.0828 14.4525C11.0828 14.7182 11.2982 14.9335 11.5639 14.9335Z" fill="#CDD6F4"/>
</svg>
