<svg width="33" height="34" viewBox="0 0 33 34" fill="none" xmlns="http://www.w3.org/2000/svg">
<path fill-rule="evenodd" clip-rule="evenodd" d="M26.6044 17.6065C26.6044 18.3304 27.4398 18.5975 27.713 17.9272C27.9898 17.2481 28.1376 16.5332 28.1376 15.7953C28.1376 11.335 22.7388 7.71924 16.0789 7.71924C9.41903 7.71924 4.02014 11.335 4.02014 15.7953C4.02014 19.0375 6.87274 21.8333 10.9887 23.1188C11.8306 23.3817 12.6403 22.7161 12.6403 21.8342V21.8342C12.6403 21.2735 12.3004 20.7758 11.8071 20.5093C9.93607 19.4985 8.75899 18.031 8.75899 16.3978C8.75899 13.3486 12.8626 10.8767 17.9247 10.8767C22.9866 10.8767 26.7224 12.5679 26.7224 16.3978C26.7224 16.7643 26.6883 17.1113 26.6219 17.439C26.6108 17.4942 26.6044 17.5502 26.6044 17.6065V17.6065Z" fill="#7F849C"/>
<path fill-rule="evenodd" clip-rule="evenodd" d="M23.5795 19.9327C23.3426 20.0244 23.3126 20.5474 23.5393 20.6621V20.6621C23.6864 20.7366 23.941 20.8852 24.1245 21.0801C24.2492 21.2125 24.3295 21.346 24.3671 21.4156C24.3846 21.448 24.4015 21.4806 24.4203 21.5123L26.3733 24.805C26.7685 25.4715 26.2884 26.3148 25.5136 26.3152L23.2203 26.3162C22.8506 26.3163 22.511 26.1125 22.3372 25.7862L20.4544 22.2507C20.4485 22.2396 20.4426 22.2289 20.4362 22.2181C20.3709 22.1075 19.9771 21.4503 19.7264 21.2473C19.498 21.0624 19.4006 20.9965 19.1747 20.9965C19.1532 20.9965 19.1171 20.9965 19.0706 20.9965C18.5183 20.9965 18.0702 21.4443 18.0703 21.9967L18.0708 25.3138C18.0709 25.866 17.6234 26.3138 17.0712 26.314L14.9575 26.3148C14.4051 26.315 13.9572 25.8673 13.9572 25.3148V13.7334C13.9572 13.1811 14.4049 12.7334 14.9572 12.7334H22.2092C22.2152 12.7334 22.2197 12.7334 22.2257 12.7336C22.412 12.7393 25.9808 12.8947 25.9808 16.3811C25.9808 18.5786 24.6258 19.5275 23.5795 19.9327ZM20.6232 15.679C20.605 15.679 20.5869 15.6795 20.5686 15.6795L19.1057 15.6786C18.5534 15.6782 18.1054 16.1257 18.1051 16.6781L18.1049 16.9865C18.1047 17.5391 18.5526 17.9872 19.1053 17.987L20.5946 17.9865C20.5955 17.9865 20.5957 17.9865 20.5966 17.9865C20.6264 17.9862 21.7499 17.9674 21.7499 16.8117C21.7499 15.7263 20.7975 15.6786 20.6232 15.679Z" fill="#1E66F5"/>
</svg>
