<svg width="33" height="34" viewBox="0 0 33 34" fill="none" xmlns="http://www.w3.org/2000/svg">
<path d="M16.2346 20.6353C17.2114 20.6353 18.0434 20.2736 18.779 19.5621C19.4905 18.8265 19.8522 17.9945 19.8522 17.0177C19.8522 16.041 19.4905 15.2089 18.779 14.4733C18.0434 13.7619 17.2114 13.4001 16.2346 13.4001C15.2579 13.4001 14.4258 13.7619 13.6902 14.4733C12.9788 15.2089 12.617 16.041 12.617 17.0177C12.617 17.9945 12.9788 18.8265 13.6902 19.5621C14.4258 20.2736 15.2579 20.6353 16.2346 20.6353ZM16.2346 4.95898C19.5508 4.95898 22.3846 6.16486 24.736 8.51631C27.0875 10.8678 28.2934 13.7016 28.2934 17.0177V18.7662C28.2934 19.9721 27.8713 20.9971 27.0875 21.8412C26.2434 22.6491 25.2787 23.0471 24.0728 23.0471C23.8403 23.0471 23.6143 23.0315 23.395 23.0004C21.5875 22.7437 19.3391 22.5236 17.5548 22.91C17.1327 23.0014 16.6928 23.0471 16.2346 23.0471C14.5826 23.0471 13.1597 22.4441 11.9658 21.2865C10.8082 20.0927 10.2053 18.6818 10.2053 17.0177C10.2053 15.3657 10.8082 13.9427 11.9658 12.7489C13.1597 11.5913 14.5826 10.9883 16.2346 10.9883C17.8987 10.9883 19.3096 11.5913 20.5034 12.7489C21.6611 13.9427 22.264 15.3657 22.264 17.0177V18.7662C22.264 19.2606 22.4569 19.6947 22.8187 20.0686C23.1805 20.4424 23.6025 20.6353 24.0728 20.6353C24.5793 20.6353 25.0013 20.4424 25.3631 20.0686C25.7248 19.6947 25.8816 19.2606 25.8816 18.7662V17.0177C25.8816 14.3768 24.9531 12.1098 23.0478 10.2045C21.1425 8.29925 18.8755 7.37073 16.2346 7.37073C13.5938 7.37073 11.3267 8.29925 9.42145 10.2045C7.51617 12.1098 6.58765 14.3768 6.58765 17.0177C6.58765 19.6586 7.51617 21.9256 9.42145 23.8309C11.3267 25.7362 13.5938 26.6647 16.2346 26.6647H21.0581C21.7241 26.6647 22.264 27.2046 22.264 27.8706V27.8706C22.264 28.5365 21.7241 29.0764 21.0581 29.0764H16.2346C12.9185 29.0764 10.0847 27.8706 7.73323 25.5191C5.38178 23.1677 4.1759 20.3339 4.1759 17.0177C4.1759 13.7016 5.38178 10.8678 7.73323 8.51631C10.0847 6.16486 12.9185 4.95898 16.2346 4.95898Z" fill="#179299"/>
</svg>
