<svg width="33" height="34" viewBox="0 0 33 34" fill="none" xmlns="http://www.w3.org/2000/svg">
<path d="M20.1609 22.3986C20.7312 21.5323 21.8239 20.969 22.314 20.0549C22.4543 19.7931 22.5296 19.4905 22.5188 19.1691C22.4883 18.2485 21.7209 17.5119 20.8002 17.5119H20.7389C19.7874 17.5425 19.0509 18.3406 19.0815 19.2919V19.2919C19.1317 20.0442 19.355 20.8921 18.9331 21.5171C17.9094 23.0336 16.489 24.2213 14.5394 25.246C12.9128 26.1054 11.2249 26.4124 9.53691 26.1976C8.15581 26.0134 7.08164 25.3996 6.40635 24.3867C5.42433 22.8828 5.33228 21.2562 6.16094 19.6295C6.62588 18.6997 7.30535 17.9649 7.85726 17.4874C8.08424 17.2911 8.20082 17.0263 8.12051 16.7371V16.7371C7.98185 16.2378 7.36515 15.9626 6.9783 16.3074C3.46819 19.4355 3.95447 23.335 5.20952 25.246C6.22227 26.7807 8.27856 27.7322 10.5497 27.7322C11.1634 27.7322 11.7772 27.6708 12.3911 27.5174C15.7441 26.8624 18.4041 25.0671 20.1609 22.3986ZM26.3859 17.1435C24.0535 14.412 20.6161 12.9081 16.6878 12.9081V12.9081C16.3868 12.9081 16.1227 12.7258 15.9145 12.5085C15.6047 12.1852 15.1652 11.9873 14.6928 11.9873H14.6315C13.6802 12.018 12.9436 12.816 12.9742 13.7675C13.0049 14.6882 13.7722 15.4249 14.6928 15.4249H14.7542C15.2327 15.403 15.665 15.1809 15.9636 14.8458C16.1863 14.5958 16.4757 14.3813 16.8105 14.3813V14.3813C19.143 14.3813 21.3527 15.0564 23.3477 16.3762C24.8821 17.3891 25.987 18.7089 26.6007 20.3048C27.1224 21.5939 27.0918 22.8521 26.5393 23.9264C25.6801 25.553 24.2376 26.4431 22.3349 26.4431C21.3644 26.4431 20.4323 26.2129 19.7812 25.98C19.5014 25.8799 19.2213 25.897 18.9934 26.0876V26.0876C18.5548 26.4543 18.592 27.1971 19.1343 27.3779C20.0669 27.6888 21.0011 27.8549 21.9052 27.8549C24.8514 27.8549 27.0304 26.2282 27.8591 24.6016C28.7492 22.8214 28.6877 19.7524 26.3859 17.1435ZM10.7952 21.471C10.8259 22.3917 11.5931 23.1283 12.5138 23.1283H12.5752C13.5267 23.0977 14.2631 22.2996 14.2325 21.3483C14.2019 20.4274 13.4345 19.6909 12.5138 19.6909H12.4525V19.6909C12.329 19.6909 12.1882 19.64 12.1264 19.5331C10.9487 17.498 10.4631 15.2897 10.6418 12.908C10.7645 11.0665 11.3783 9.47054 12.4525 8.15078C13.3425 7.01519 15.0612 6.46275 16.2274 6.43213C19.1683 6.3766 20.5792 9.68208 20.891 11.519C20.944 11.8309 21.1226 12.0866 21.4264 12.1748V12.1748C21.9144 12.3164 22.4453 11.9482 22.3636 11.4467C21.6673 7.17037 18.8333 4.95898 16.1046 4.95898C13.3425 4.95898 10.7952 6.95395 9.78232 9.90033C8.49749 13.4757 9.14464 16.9241 10.567 19.7593C10.822 20.2676 10.7437 20.9047 10.7952 21.471V21.471Z" fill="#FE640B"/>
</svg>
