<svg width="33" height="34" viewBox="0 0 33 34" fill="none" xmlns="http://www.w3.org/2000/svg">
<path d="M20.0041 22.3986C20.5744 21.5323 21.6671 20.969 22.1572 20.0549C22.2975 19.7931 22.3728 19.4905 22.362 19.1691C22.3315 18.2485 21.5641 17.5119 20.6434 17.5119H20.5821C19.6306 17.5425 18.8941 18.3406 18.9247 19.2919V19.2919C18.9749 20.0442 19.1982 20.8921 18.7763 21.5171C17.7526 23.0336 16.3322 24.2213 14.3826 25.246C12.756 26.1054 11.0681 26.4124 9.38011 26.1976C7.99902 26.0134 6.92484 25.3996 6.24955 24.3867C5.26753 22.8828 5.17548 21.2562 6.00414 19.6295C6.46908 18.6997 7.14855 17.9649 7.70046 17.4874C7.92744 17.2911 8.04402 17.0263 7.96371 16.7371V16.7371C7.82506 16.2378 7.20835 15.9626 6.8215 16.3074C3.31139 19.4355 3.79767 23.335 5.05272 25.246C6.06547 26.7807 8.12176 27.7322 10.3929 27.7322C11.0066 27.7322 11.6204 27.6708 12.2343 27.5174C15.5873 26.8624 18.2473 25.0671 20.0041 22.3986ZM26.2291 17.1435C23.8967 14.412 20.4593 12.9081 16.531 12.9081V12.9081C16.23 12.9081 15.9659 12.7258 15.7577 12.5085C15.4479 12.1852 15.0084 11.9873 14.536 11.9873H14.4747C13.5234 12.018 12.7868 12.816 12.8174 13.7675C12.8481 14.6882 13.6154 15.4249 14.536 15.4249H14.5974C15.0759 15.403 15.5082 15.1809 15.8068 14.8458C16.0295 14.5958 16.3189 14.3813 16.6537 14.3813V14.3813C18.9862 14.3813 21.1959 15.0564 23.1909 16.3762C24.7253 17.3891 25.8302 18.7089 26.4439 20.3048C26.9656 21.5939 26.935 22.8521 26.3825 23.9264C25.5233 25.553 24.0808 26.4431 22.1781 26.4431C21.2076 26.4431 20.2755 26.2129 19.6244 25.98C19.3446 25.8799 19.0645 25.897 18.8366 26.0876V26.0876C18.398 26.4543 18.4352 27.1971 18.9775 27.3779C19.9101 27.6888 20.8443 27.8549 21.7484 27.8549C24.6946 27.8549 26.8736 26.2282 27.7023 24.6016C28.5924 22.8214 28.5309 19.7524 26.2291 17.1435ZM10.6384 21.471C10.6691 22.3917 11.4363 23.1283 12.357 23.1283H12.4184C13.3699 23.0977 14.1063 22.2996 14.0757 21.3483C14.0451 20.4274 13.2777 19.6909 12.357 19.6909H12.2957V19.6909C12.1722 19.6909 12.0314 19.64 11.9696 19.5331C10.7919 17.498 10.3063 15.2897 10.485 12.908C10.6077 11.0665 11.2215 9.47054 12.2957 8.15078C13.1857 7.01519 14.9044 6.46275 16.0706 6.43213C19.0115 6.3766 20.4224 9.68208 20.7342 11.519C20.7872 11.8309 20.9658 12.0866 21.2696 12.1748V12.1748C21.7576 12.3164 22.2885 11.9482 22.2068 11.4467C21.5105 7.17037 18.6765 4.95898 15.9478 4.95898C13.1857 4.95898 10.6384 6.95395 9.62552 9.90033C8.34069 13.4757 8.98784 16.9241 10.4102 19.7593C10.6652 20.2676 10.5869 20.9047 10.6384 21.471V21.471Z" fill="#DF8E1D"/>
</svg>
