<svg width="33" height="34" viewBox="0 0 33 34" fill="none" xmlns="http://www.w3.org/2000/svg">
<path d="M20.3168 22.3986C20.8871 21.5323 21.9797 20.969 22.4698 20.0549C22.6102 19.7931 22.6854 19.4905 22.6746 19.1691C22.6441 18.2485 21.8768 17.5119 20.956 17.5119H20.8948C19.9432 17.5425 19.2067 18.3406 19.2374 19.2919V19.2919C19.2875 20.0442 19.5108 20.8921 19.0889 21.5171C18.0652 23.0336 16.6449 24.2213 14.6952 25.246C13.0686 26.1054 11.3807 26.4124 9.69274 26.1976C8.31164 26.0134 7.23746 25.3996 6.56217 24.3867C5.58015 22.8828 5.4881 21.2562 6.31676 19.6295C6.78171 18.6997 7.46117 17.9649 8.01309 17.4874C8.24007 17.2911 8.35664 17.0263 8.27633 16.7371V16.7371C8.13768 16.2378 7.52097 15.9626 7.13413 16.3074C3.62401 19.4355 4.1103 23.335 5.36534 25.246C6.37809 26.7807 8.43438 27.7322 10.7055 27.7322C11.3192 27.7322 11.933 27.6708 12.5469 27.5174C15.9 26.8624 18.5599 25.0671 20.3168 22.3986ZM26.5417 17.1435C24.2093 14.412 20.7719 12.9081 16.8436 12.9081V12.9081C16.5426 12.9081 16.2785 12.7258 16.0703 12.5085C15.7605 12.1852 15.3211 11.9873 14.8487 11.9873H14.7873C13.836 12.018 13.0994 12.816 13.13 13.7675C13.1607 14.6882 13.928 15.4249 14.8487 15.4249H14.91C15.3885 15.403 15.8208 15.1809 16.1194 14.8458C16.3421 14.5958 16.6316 14.3813 16.9663 14.3813V14.3813C19.2989 14.3813 21.5086 15.0564 23.5035 16.3762C25.0379 17.3891 26.1429 18.7089 26.7565 20.3048C27.2783 21.5939 27.2476 22.8521 26.6952 23.9264C25.8359 25.553 24.3934 26.4431 22.4907 26.4431C21.5202 26.4431 20.5881 26.2129 19.937 25.98C19.6572 25.8799 19.3772 25.897 19.1492 26.0876V26.0876C18.7106 26.4543 18.7478 27.1971 19.2901 27.3779C20.2228 27.6888 21.1569 27.8549 22.061 27.8549C25.0072 27.8549 27.1862 26.2282 28.0149 24.6016C28.905 22.8214 28.8435 19.7524 26.5417 17.1435ZM10.951 21.471C10.9817 22.3917 11.7489 23.1283 12.6696 23.1283H12.7311C13.6825 23.0977 14.419 22.2996 14.3883 21.3483C14.3577 20.4274 13.5903 19.6909 12.6696 19.6909H12.6083V19.6909C12.4848 19.6909 12.3441 19.64 12.2822 19.5331C11.1045 17.498 10.619 15.2897 10.7976 12.908C10.9203 11.0665 11.5341 9.47054 12.6083 8.15078C13.4983 7.01519 15.217 6.46275 16.3832 6.43213C19.3241 6.3766 20.735 9.68208 21.0469 11.519C21.0998 11.8309 21.2784 12.0866 21.5823 12.1748V12.1748C22.0702 12.3164 22.6011 11.9482 22.5194 11.4467C21.8231 7.17037 18.9891 4.95898 16.2605 4.95898C13.4983 4.95898 10.951 6.95395 9.93815 9.90033C8.65332 13.4757 9.30047 16.9241 10.7228 19.7593C10.9778 20.2676 10.8995 20.9047 10.951 21.471V21.471Z" fill="#D20F39"/>
</svg>
