<svg width="33" height="34" viewBox="0 0 33 34" fill="none" xmlns="http://www.w3.org/2000/svg">
<path d="M13.3349 8.55106C13.4972 8.89126 13.3559 9.2995 13.0157 9.46175C12.9947 9.47221 12.9738 9.48269 12.9529 9.49315C9.50901 10.7231 7.05435 13.9053 7.05435 17.6369C7.05435 18.0185 6.74504 18.3279 6.36349 18.3279H3.86172C3.48305 18.3279 3.17609 18.0209 3.17609 17.6422C3.17609 12.3508 6.61471 7.83926 11.4665 6.04406C11.791 5.92369 12.1573 6.07023 12.3091 6.39473L13.3349 8.55106ZM3.17609 20.9709C3.17609 20.2309 3.77597 19.631 4.51594 19.631H5.71449C6.45448 19.631 7.05435 20.2309 7.05435 20.9709V28.7275C7.05435 29.4675 6.45448 30.0673 5.71449 30.0673H4.51594C3.77597 30.0673 3.17609 29.4675 3.17609 28.7275V20.9709ZM29.052 17.6422C29.052 18.0209 28.7451 18.3279 28.3664 18.3279H25.8594C25.4808 18.3279 25.1738 18.0209 25.1738 17.6422C25.1738 13.9053 22.7192 10.7231 19.2754 9.49315C19.1079 9.43034 18.9665 9.30473 18.888 9.14248C18.8209 8.99375 18.8064 8.82302 18.8529 8.66256C18.8613 8.63351 18.8682 8.60333 18.8796 8.57527C18.8859 8.55935 18.8918 8.54326 18.8991 8.52777L19.9138 6.38949C20.0656 6.07023 20.4321 5.92369 20.7564 6.04406C25.6134 7.83926 29.052 12.3508 29.052 17.6422ZM25.1738 20.9709C25.1738 20.2309 25.7737 19.631 26.5137 19.631H27.7123C28.4522 19.631 29.052 20.2309 29.052 20.9709V28.7275C29.052 29.4675 28.4522 30.0673 27.7123 30.0673H26.5137C25.7737 30.0673 25.1738 29.4675 25.1738 28.7275V20.9709Z" fill="#7F849C"/>
<path d="M18.5783 4.14462C18.793 4.17601 18.9814 4.30163 19.0808 4.49528C19.1856 4.68894 19.1908 4.91922 19.1018 5.11811L18.9133 5.50541L17.474 8.5515C17.3537 8.80272 17.092 8.9545 16.8145 8.9388C16.5844 8.92833 16.3488 8.92309 16.1133 8.92309C15.8777 8.92309 15.6422 8.92833 15.412 8.9388C15.1345 8.9545 14.8728 8.80272 14.7525 8.5515L13.3132 5.50541L13.1247 5.11811C12.9677 4.77268 13.109 4.36444 13.4544 4.20218C13.5121 4.17601 13.5801 4.15509 13.6482 4.14462C15.2863 3.91957 16.9402 3.91957 18.5783 4.14462ZM23.8751 17.6426V30.0625H19.9967V17.6426C19.9967 15.5805 18.254 13.9109 16.1133 13.9109C13.9726 13.9109 12.2298 15.5805 12.2298 17.6426V30.0625H8.3515V17.6426C8.3515 13.5236 11.8268 10.1844 16.1133 10.1844C20.3997 10.1844 23.8751 13.5236 23.8751 17.6426Z" fill="#DF8E1D"/>
</svg>
