<svg width="33" height="34" viewBox="0 0 33 34" fill="none" xmlns="http://www.w3.org/2000/svg">
<path d="M26.4091 18.0376C25.4721 18.0429 24.6608 18.2719 23.9803 18.6128C23.7291 18.1068 23.4779 17.6647 23.4359 17.3345C23.3889 16.9511 23.3313 16.7166 23.3889 16.2586C23.4464 15.8005 23.7082 15.1507 23.7082 15.0975C23.703 15.0495 23.6506 14.8152 23.1114 14.8098C22.5723 14.8045 22.1064 14.9164 22.0541 15.0601C22.0017 15.204 21.8971 15.5342 21.829 15.875C21.7348 16.3757 20.7507 18.1494 20.1907 19.0816C20.0075 18.7193 19.8505 18.3997 19.8191 18.1441C19.772 17.7606 19.7143 17.5263 19.772 17.0682C19.8296 16.6101 20.0912 15.9602 20.0912 15.9071C20.086 15.8591 20.0336 15.6247 19.4946 15.6194C18.9554 15.6142 18.4896 15.7259 18.4372 15.8698C18.3849 16.0136 18.3273 16.3544 18.2121 16.6847C18.1022 17.015 16.7937 19.9763 16.4534 20.7486C16.2807 21.1428 16.1289 21.457 16.019 21.6702C15.909 21.8832 16.0138 21.6861 16.0033 21.7074C15.909 21.8885 15.8568 21.9897 15.8568 21.9897V21.995C15.7835 22.1282 15.7049 22.256 15.6682 22.256C15.6421 22.256 15.5897 21.8992 15.6787 21.4092C15.8724 20.3811 16.3435 18.778 16.3383 18.7193C16.3383 18.6928 16.4273 18.4104 16.0347 18.2665C15.6526 18.1228 15.5164 18.3625 15.4851 18.3625C15.4537 18.3625 15.4275 18.4477 15.4275 18.4477C15.4275 18.4477 15.8515 16.6421 14.6162 16.6421C13.8415 16.6421 12.7737 17.4996 12.2451 18.2826C11.9101 18.469 11.1982 18.8632 10.4445 19.2839C10.1566 19.4437 9.85823 19.6142 9.57558 19.7687L9.518 19.7047C8.02099 18.0802 5.25207 16.9298 5.36722 14.7459C5.4091 13.9523 5.68128 11.859 10.6852 9.32373C14.7837 7.24647 18.0656 7.81637 18.6362 9.08404C19.4474 10.895 16.8827 14.2612 12.6219 14.7459C10.9993 14.9323 10.1461 14.2932 9.93151 14.0535C9.70644 13.8032 9.67504 13.7925 9.59128 13.8404C9.45519 13.915 9.53895 14.1387 9.59128 14.2719C9.71691 14.6074 10.2403 15.204 11.1302 15.5023C11.9101 15.7633 13.8153 15.9071 16.1184 15.0016C18.699 13.9843 20.7141 11.1613 20.1226 8.80175C19.5207 6.39958 15.6055 5.61128 11.9048 6.94819C9.7012 7.74713 7.31437 8.99349 5.59753 10.6287C3.55616 12.5674 3.23163 14.2612 3.36772 14.9643C3.84404 17.4729 7.24109 19.1081 8.60201 20.3172C8.53396 20.3546 8.47115 20.3918 8.41357 20.4237C7.73311 20.7647 5.14215 22.1442 4.49309 23.6036C3.7603 25.2547 4.60825 26.4425 5.17355 26.6023C6.9218 27.0977 8.71192 26.2082 9.68026 24.7434C10.6434 23.2787 10.5282 21.3772 10.0833 20.5089L10.0676 20.477L10.6015 20.1575C10.947 19.9497 11.2872 19.7579 11.5855 19.5929C11.418 20.0562 11.2977 20.6049 11.2348 21.4038C11.1616 22.3412 11.5384 23.5556 12.0357 24.035C12.2555 24.2427 12.5172 24.2481 12.6795 24.2481C13.2553 24.2481 13.517 23.7633 13.8049 23.1828C14.1608 22.4744 14.4748 21.6541 14.4748 21.6541C14.4748 21.6541 14.0822 23.8752 15.1553 23.8752C15.5479 23.8752 15.9405 23.3585 16.1184 23.0923V23.0975C16.1184 23.0975 16.1289 23.0816 16.1498 23.0443C16.1917 22.9804 16.2126 22.9431 16.2126 22.9431V22.9325C16.3697 22.6555 16.7204 22.0216 17.2438 20.9724C17.9191 19.6195 18.5681 17.9257 18.5681 17.9257C18.5681 17.9257 18.6309 18.3412 18.8245 19.0229C18.9398 19.4278 19.191 19.8698 19.3846 20.3013C19.2276 20.525 19.1334 20.6528 19.1334 20.6528L19.1386 20.6581C19.0129 20.8286 18.8717 21.0096 18.7251 21.1908C18.1912 21.8406 17.5526 22.5809 17.4689 22.7939C17.3695 23.0443 17.3904 23.2307 17.584 23.3798C17.7253 23.4864 17.9765 23.5077 18.2436 23.4864C18.7251 23.4545 19.0601 23.3319 19.2276 23.2574C19.4892 23.1615 19.7876 23.0177 20.0756 22.8046C20.5989 22.4105 20.9182 21.8512 20.8868 21.1056C20.8712 20.6954 20.7403 20.2907 20.578 19.9071C20.6252 19.8379 20.6722 19.7687 20.7194 19.694C21.5463 18.4636 22.1849 17.1108 22.1849 17.1108C22.1849 17.1108 22.2477 17.5263 22.4415 18.208C22.5409 18.5542 22.7397 18.9325 22.9178 19.3052C22.1431 19.9497 21.6563 20.6954 21.4888 21.1854C21.18 22.0909 21.4208 22.501 21.8762 22.597C22.0803 22.6396 22.3734 22.5436 22.5933 22.4477C22.8654 22.3573 23.1952 22.2028 23.4988 21.9737C24.0223 21.5796 24.5247 21.0309 24.4986 20.2907C24.4828 19.9497 24.3938 19.6142 24.2735 19.2946C24.933 19.0177 25.7862 18.8578 26.8696 18.991C29.1989 19.268 29.6596 20.7486 29.5705 21.3666C29.4815 21.9844 28.9947 22.3252 28.8325 22.4318C28.6702 22.5329 28.6178 22.5703 28.6336 22.6448C28.6545 22.7567 28.7278 22.7513 28.8692 22.73C29.0628 22.6981 30.094 22.2241 30.1359 21.0843C30.1986 19.6195 28.8325 18.0216 26.4091 18.0376ZM8.44498 24.2001C7.67554 25.0576 6.59205 25.3825 6.13143 25.1056C5.63417 24.8127 5.82783 23.5503 6.77525 22.6396C7.35101 22.0855 8.09951 21.5743 8.59153 21.2601C8.70145 21.1908 8.86895 21.0895 9.06785 20.967C9.09926 20.9457 9.1202 20.9351 9.1202 20.9351C9.15683 20.9138 9.19872 20.8872 9.24059 20.8605C9.59128 22.1602 9.25629 23.3 8.44498 24.2001ZM14.0718 20.3066C13.8049 20.9724 13.2396 22.6822 12.8994 22.5862C12.6062 22.5064 12.4283 21.2121 12.8418 19.9337C13.0511 19.2893 13.4961 18.5223 13.7578 18.2239C14.1818 17.7447 14.6423 17.5848 14.7575 17.7819C14.8937 18.0376 14.2393 19.8911 14.0718 20.3066ZM18.7147 22.5649C18.5994 22.6235 18.4948 22.6661 18.4476 22.6342C18.4111 22.6129 18.4948 22.5329 18.4948 22.5329C18.4948 22.5329 19.0758 21.8992 19.3061 21.6063C19.437 21.4357 19.594 21.2388 19.7615 21.015V21.0789C19.7615 21.8458 19.0392 22.3573 18.7147 22.5649ZM22.2949 21.7341C22.2112 21.6702 22.2216 21.4731 22.5042 20.8552C22.6142 20.6102 22.8654 20.2001 23.2998 19.8113C23.3522 19.971 23.3837 20.1255 23.3783 20.2694C23.3731 21.228 22.7032 21.5848 22.2949 21.7341Z" fill="#D20F39"/>
</svg>
