<svg width="33" height="34" viewBox="0 0 33 34" fill="none" xmlns="http://www.w3.org/2000/svg">
<path d="M11.6472 11.6676C12.0752 11.6676 12.4558 11.3952 12.5938 10.9901L13.3109 8.88497C13.5319 8.23625 13.0497 7.5625 12.3644 7.5625H5.52499C4.97271 7.5625 4.52499 8.01022 4.52499 8.5625V10.6676C4.52499 11.2199 4.97271 11.6676 5.52499 11.6676H11.6472ZM27.6425 11.6676C28.1948 11.6676 28.6425 11.2199 28.6425 10.6676V8.5625C28.6425 8.01022 28.1948 7.5625 27.6425 7.5625H18.8969C18.4633 7.5625 18.0791 7.84193 17.9455 8.25444L17.2639 10.3595C17.0547 11.0055 17.5363 11.6676 18.2153 11.6676H27.6425ZM9.22104 18.8515C9.66273 18.8515 10.0521 18.5617 10.1789 18.1386L10.8099 16.0336C11.0023 15.392 10.5218 14.7464 9.85205 14.7464H5.52499C4.97271 14.7464 4.52499 15.1941 4.52499 15.7464V17.8515C4.52499 18.4038 4.97271 18.8515 5.52499 18.8515H9.22104ZM27.6425 18.8515C28.1948 18.8515 28.6425 18.4038 28.6425 17.8515V15.7464C28.6425 15.1941 28.1948 14.7464 27.6425 14.7464H16.2625C15.8222 14.7464 15.4336 15.0345 15.3057 15.4559L14.6665 17.5609C14.4715 18.2032 14.9521 18.8515 15.6234 18.8515H27.6425ZM6.66513 26.5486C7.10779 26.5486 7.49779 26.2575 7.62377 25.8332L8.24872 23.7281C8.43902 23.0871 7.95874 22.4435 7.29007 22.4435H5.52499C4.97271 22.4435 4.52499 22.8912 4.52499 23.4435V25.5486C4.52499 26.1009 4.97271 26.5486 5.52499 26.5486H6.66513ZM27.6425 26.5486C28.1948 26.5486 28.6425 26.1009 28.6425 25.5486V23.4435C28.6425 22.8912 28.1948 22.4435 27.6425 22.4435H13.7768C13.3443 22.4435 12.9608 22.7215 12.8264 23.1326L12.1377 25.2377C11.9263 25.8842 12.408 26.5486 13.0882 26.5486H27.6425Z" fill="#D20F39"/>
</svg>
