<svg width="33" height="33" viewBox="0 0 33 33" fill="none" xmlns="http://www.w3.org/2000/svg">
<path d="M20.1924 24.4451C22.3577 21.855 22.6126 19.1801 20.9354 14.2124C19.8739 11.0705 18.1117 8.65027 19.4068 6.69716C20.7869 4.61669 23.7164 6.63355 21.275 9.41455L21.7633 9.75418C24.693 10.0939 26.1367 6.08137 23.9499 4.93502C18.1755 1.92044 13.1228 7.71616 15.3519 14.4247C16.3073 17.2694 17.6448 20.2841 16.5621 22.6831C15.6279 24.7424 13.8233 25.9525 12.6134 25.995C10.0871 26.1224 11.7643 20.3267 14.6727 18.883C14.9274 18.7559 15.2884 18.5859 14.9487 18.1613C11.361 17.758 9.2592 19.4138 8.04908 21.728C4.52493 28.4578 14.7364 30.9415 20.1924 24.4451Z" fill="#179299"/>
</svg>
