<svg width="33" height="33" viewBox="0 0 33 33" fill="none" xmlns="http://www.w3.org/2000/svg">
<path d="M5.78421 11.5985C5.7822 11.6012 5.72124 11.6079 5.64955 11.6166C5.57988 11.6233 5.49882 11.6346 5.46934 11.6413C5.44255 11.648 5.39565 11.6574 5.36417 11.6614C5.28779 11.6728 5.11696 11.7204 5.06069 11.7452C5.0359 11.7539 4.95283 11.7874 4.87378 11.8189C4.47852 11.9763 4.07388 12.2952 3.79318 12.675C3.73021 12.7608 3.66924 12.8419 3.66054 12.8553C3.55938 12.9879 3.34567 13.5091 3.30547 13.7201C3.23312 14.096 3.22441 14.5113 3.2827 14.788C3.37984 15.2509 3.51851 15.5611 3.78648 15.9182C3.85347 16.0079 4.33716 16.5117 4.86306 17.0356C5.5484 17.721 5.82709 18.0177 5.85857 18.0847C5.96844 18.3272 5.85388 18.622 5.60199 18.7346C5.52361 18.7681 5.44255 18.7748 5.00642 18.7768C4.73041 18.7768 4.45574 18.7882 4.40014 18.7995C3.90975 18.9054 3.55 19.3341 3.53459 19.8353C3.52119 20.2265 3.69872 20.5728 4.029 20.802C4.25342 20.9547 4.41555 20.9842 5.08279 20.9842C5.57988 20.9842 5.75942 20.9708 5.97045 20.9232C6.00194 20.9165 6.0562 20.9051 6.09238 20.8984C6.29671 20.8629 6.88557 20.5883 6.98204 20.4851C6.98874 20.4784 7.03162 20.4449 7.07851 20.4107C7.22724 20.2988 7.45434 20.065 7.59101 19.8781C7.8429 19.5345 8.04522 19.0199 8.09681 18.5972C8.11489 18.4398 8.1169 18.0378 8.09882 17.9454C8.09212 17.9139 8.07671 17.8261 8.06063 17.7478C7.99565 17.3833 7.78864 16.9365 7.55081 16.635C7.48114 16.5452 6.99544 16.0461 6.47424 15.5229C5.43585 14.4825 5.43384 14.4825 5.46063 14.2594C5.50083 13.9137 5.83848 13.7161 6.14597 13.8555C6.21766 13.887 7.03832 14.6956 9.44068 17.0959C11.1986 18.8558 12.6724 20.323 12.7153 20.3591C12.7582 20.3953 12.8727 20.4764 12.9712 20.5414C13.9178 21.1617 15.1378 21.1255 16.0616 20.4556C16.2056 20.3504 16.4883 20.0691 16.6009 19.921L16.6799 19.8152L16.9379 20.0717C17.165 20.2942 17.2259 20.3504 17.3318 20.4355C17.3452 20.4449 17.4189 20.4965 17.4979 20.5481C18.3923 21.1416 19.6511 21.1302 20.5474 20.5166C20.7049 20.4087 20.7565 20.3658 20.9253 20.2044C21.2984 19.8426 21.5858 19.2939 21.687 18.7433C21.7205 18.5724 21.7252 17.9769 21.6957 17.8328C21.689 17.8013 21.6783 17.7411 21.6709 17.6982C21.6126 17.3994 21.413 16.9659 21.1946 16.6732C21.1296 16.5834 20.6533 16.087 20.1361 15.5698C19.6196 15.0533 19.1721 14.5944 19.1426 14.5542C19.0729 14.4577 19.0555 14.2393 19.1044 14.1228C19.1493 14.0149 19.2371 13.9111 19.3268 13.8622C19.3898 13.826 19.4756 13.8213 20.0691 13.8146L20.7384 13.8079L20.7203 13.9271C20.6982 14.0685 20.7002 14.5991 20.7203 14.709C20.7297 14.7518 20.741 14.8168 20.7477 14.855C20.7766 15.0084 20.8576 15.2489 20.9407 15.4264C21.1477 15.8686 21.1209 15.8371 23.4087 18.1323C24.5771 19.3053 25.6155 20.3276 25.7146 20.404C26.0985 20.7028 26.4495 20.8602 26.9278 20.946C27.1349 20.9815 27.4966 20.9929 27.6695 20.9681C27.908 20.9326 28.0339 20.9051 28.1933 20.8535C29.1909 20.532 29.9191 19.6376 30.0296 18.6019C30.0852 18.076 29.9506 17.7096 29.6049 17.4396C29.2565 17.1703 28.7842 17.1408 28.389 17.3632C28.0654 17.5434 27.8564 17.8985 27.8356 18.2937C27.8182 18.6307 27.5596 18.831 27.24 18.7526C27.1349 18.7279 27.0538 18.6488 25.0782 16.6779C23.95 15.5517 22.9994 14.5857 22.9679 14.5341C22.862 14.3566 22.9029 14.0913 23.0577 13.9426C23.1789 13.826 23.2533 13.8106 23.7363 13.8106C24.2783 13.8106 24.4357 13.7791 24.6695 13.619C25.3749 13.1407 25.312 12.1069 24.5523 11.7157C24.3252 11.5985 24.3546 11.6012 21.8263 11.5985C19.3181 11.5985 19.1922 11.6032 18.9048 11.6795C18.8552 11.6909 18.7989 11.707 18.7808 11.709C18.7138 11.7244 18.4506 11.8283 18.3541 11.8772C18.0553 12.0279 17.6527 12.3562 17.4396 12.6215C17.2909 12.8077 17.0933 13.1788 17.0075 13.426C16.7288 14.2393 16.8441 15.0935 17.3244 15.813C17.4396 15.9858 17.6393 16.1995 18.4506 17.0128C18.9925 17.5568 19.4528 18.0311 19.4735 18.0693C19.5539 18.2268 19.5137 18.4713 19.3791 18.6153C19.2665 18.7366 19.1969 18.7634 18.9945 18.7634C18.8485 18.7634 18.7989 18.7547 18.736 18.7138C18.6931 18.687 17.1228 17.1294 15.2416 15.2509C12.6677 12.6777 11.7915 11.8149 11.693 11.7559C11.4498 11.6099 11.1463 11.565 10.8656 11.63C10.4724 11.7224 10.122 12.0889 10.0456 12.4841C9.99137 12.7655 10.059 13.0891 10.2205 13.3269C10.2546 13.3765 11.3172 14.453 12.5847 15.7205C14.6842 17.8221 14.8906 18.0331 14.9153 18.1256C14.9649 18.3031 14.9381 18.4398 14.8236 18.6019C14.711 18.7567 14.4162 18.815 14.23 18.7185C14.1871 18.6937 12.6925 17.2172 10.9085 15.4372C8.3353 12.864 7.63188 12.1739 7.49253 12.0822C7.02023 11.7673 6.5486 11.6146 6.00931 11.6012C5.88738 11.5985 5.78622 11.5965 5.78421 11.5985Z" fill="url(#paint0_linear_145_1109)"/>
<defs>
<linearGradient id="paint0_linear_145_1109" x1="3.24451" y1="16.2913" x2="30.0417" y2="16.2913" gradientUnits="userSpaceOnUse">
<stop stop-color="#DC8A78"/>
<stop offset="1" stop-color="#DD7878"/>
</linearGradient>
</defs>
</svg>
