<svg width="33" height="33" viewBox="0 0 33 33" fill="none" xmlns="http://www.w3.org/2000/svg">
<path d="M20.3134 20.1858L27.1377 16.249C27.4472 16.0705 27.638 15.7402 27.638 15.3828V9.22996C27.638 8.45992 26.8042 7.97882 26.1375 8.3642L20.3134 11.731" fill="#8839EF"/>
<path d="M12.1855 7.49588L19.0106 11.4413C19.3198 11.62 19.5102 11.9499 19.5102 12.307V18.4526C19.5102 19.2225 18.6768 19.7036 18.0101 19.3186L12.1855 15.9549M4.05652 11.2342L9.88113 14.5974C10.5478 14.9824 11.3812 14.5013 11.3812 13.7314V7.58196C11.3812 7.22472 11.1906 6.89461 10.8812 6.71597L4.05652 2.77515M12.1855 25.3428L18.0101 28.7061C18.6768 29.0911 19.5102 28.61 19.5102 27.8401V21.6906C19.5102 21.3333 19.3196 21.0032 19.0102 20.8246L12.1855 16.8843" fill="#8839EF"/>
</svg>
