<svg width="33" height="33" viewBox="0 0 33 33" fill="none" xmlns="http://www.w3.org/2000/svg">
<path fill-rule="evenodd" clip-rule="evenodd" d="M6.23994 5.91459C6.24261 5.3642 6.68954 4.91943 7.23993 4.91943H25.3033C25.8536 4.91943 26.3006 5.36419 26.3032 5.91457L26.3286 11.1242C26.3299 11.4068 26.1013 11.6365 25.8188 11.6365V11.6365C25.5628 11.6365 25.3479 11.4465 25.3053 11.1942C24.9416 9.03971 24.0638 7.56615 22.6715 6.77355C22.0184 6.40881 21.1131 6.17346 19.9556 6.0675C19.3954 6.01622 18.9308 6.47309 18.9308 7.03562V23.542C18.9308 24.7671 19.1448 25.5804 19.5732 25.9815C19.9552 26.3393 20.706 26.5376 21.8256 26.5763C22.059 26.5844 22.2488 26.7727 22.2488 27.0062V27.0062C22.2488 27.2397 22.0594 27.4291 21.8259 27.4291H10.7987C10.5652 27.4291 10.3758 27.2397 10.3758 27.0062V27.0062C10.3758 26.7727 10.5655 26.5845 10.7989 26.5756C11.8663 26.5349 12.5899 26.3341 12.97 25.9733C13.3983 25.5669 13.6124 24.7564 13.6124 23.542V7.03616C13.6124 6.47342 13.1475 6.01643 12.5872 6.0691C11.4521 6.17581 10.5469 6.41063 9.87164 6.77355C8.3818 7.58436 7.49824 9.05358 7.22101 11.1812C7.18754 11.4381 6.97297 11.6365 6.71394 11.6365V11.6365C6.43724 11.6365 6.21331 11.4115 6.21465 11.1348L6.23994 5.91459Z" fill="#1E66F5"/>
</svg>
