<svg width="33" height="33" viewBox="0 0 33 33" fill="none" xmlns="http://www.w3.org/2000/svg">
<path d="M25.8084 8.13452H7.05043C6.31045 8.13452 5.71057 8.7344 5.71057 9.47438C5.71057 10.2144 6.31045 10.8142 7.05043 10.8142H25.8084C26.5484 10.8142 27.1483 10.2144 27.1483 9.47438C27.1483 8.7344 26.5484 8.13452 25.8084 8.13452Z" fill="#5C5F77"/>
<path d="M20.449 14.8333H7.05043C6.31045 14.8333 5.71057 15.4331 5.71057 16.1731C5.71057 16.9131 6.31045 17.513 7.05043 17.513H20.449C21.189 17.513 21.7889 16.9131 21.7889 16.1731C21.7889 15.4331 21.189 14.8333 20.449 14.8333Z" fill="#5C5F77"/>
<path d="M25.8084 21.5334H7.05043C6.31045 21.5334 5.71057 22.1333 5.71057 22.8733C5.71057 23.6133 6.31045 24.2132 7.05043 24.2132H25.8084C26.5484 24.2132 27.1483 23.6133 27.1483 22.8733C27.1483 22.1333 26.5484 21.5334 25.8084 21.5334Z" fill="#5C5F77"/>
</svg>
