<svg width="33" height="33" viewBox="0 0 33 33" fill="none" xmlns="http://www.w3.org/2000/svg">
<path d="M24.9618 3.0489C21.666 3.00232 19.1375 16.0458 19.2073 21.3906C20.2991 17.7935 21.9624 15.5728 23.7172 15.1876C20.8067 18.2265 19.9572 23.5966 20.2536 28.7146C18.3863 29.1547 16.9755 29.3345 16.5156 28.9714L16.5308 27.0896C16.5884 27.3214 16.6735 27.4721 16.8017 27.4961C17.1329 23.2955 16.1295 19.639 12.541 18.7336C14.8144 18.6132 16.2006 19.6228 17.3135 22.076C17.3879 11.9789 20.7182 2.60041 24.9618 2.77737C25.6227 2.80495 26.2535 3.2437 26.8667 4.06835C26.3274 3.49241 25.5007 3.05649 24.9618 3.0489ZM9.58066 22.9079C8.68876 20.8919 6.88419 19.2498 5.50241 19.1347C7.57516 21.0155 9.19518 24.7113 9.21659 28.6279C8.80866 27.6632 8.86377 27.569 8.65929 27.0415C8.627 27.9242 8.83808 28.1745 8.83138 29.4839C10.003 29.6423 11.1074 29.6202 12.0416 29.1416C11.8339 26.1195 11.8598 23.3255 14.4386 23.0207C13.0948 22.9067 12.4701 23.182 11.5309 23.8499C11.2286 18.5821 10.2439 13.0475 9.21659 8.25361C9.42939 14.0115 9.59211 19.2913 9.58066 22.9079Z" fill="#40A02B"/>
</svg>
