<svg width="33" height="33" viewBox="0 0 33 33" fill="none" xmlns="http://www.w3.org/2000/svg">
<mask id="mask0_145_1146" style="mask-type:luminance" maskUnits="userSpaceOnUse" x="4" y="4" width="25" height="25">
<path d="M4.17676 4.271H28.2942V28.3884H4.17676V4.271Z" fill="#CDD6F4"/>
</mask>
<g mask="url(#mask0_145_1146)">
<path d="M19.515 26.1695L26.5573 6.68258C26.6538 6.34493 26.4609 6.10376 26.1232 6.10376L20.6244 6.63434C20.2868 6.68258 19.9009 6.97199 19.7562 7.30963L13.2928 25.9283C13.1481 26.2659 13.341 26.5553 13.7268 26.5553H19.0809C19.2739 26.5553 19.4186 26.4106 19.515 26.2177V26.1695Z" fill="#7F849C"/>
<g filter="url(#filter0_f_145_1146)">
<path d="M18.7434 26.216L15.801 17.8231L16.2351 17.5337L19.2257 26.1677L18.7434 26.216Z" fill="#F5E0DC"/>
</g>
<path d="M6.34628 6.10376L11.8451 6.63434C12.1827 6.68258 12.5686 6.97199 12.7133 7.30963L19.3215 26.2177C19.3697 26.4106 19.2732 26.5553 19.1285 26.5553H13.7262C13.3403 26.5553 13.0027 26.2659 12.858 25.9283L5.91216 6.68258C5.81569 6.34493 6.00863 6.10376 6.34628 6.10376Z" fill="#1E66F5"/>
</g>
<defs>
<filter id="filter0_f_145_1146" x="-13.5993" y="-11.8666" width="62.2253" height="67.483" filterUnits="userSpaceOnUse" color-interpolation-filters="sRGB">
<feFlood flood-opacity="0" result="BackgroundImageFix"/>
<feBlend mode="normal" in="SourceGraphic" in2="BackgroundImageFix" result="shape"/>
<feGaussianBlur stdDeviation="14.7002" result="effect1_foregroundBlur_145_1146"/>
</filter>
</defs>
</svg>
