<svg width="33" height="33" viewBox="0 0 33 33" fill="none" xmlns="http://www.w3.org/2000/svg">
<path d="M22.6174 11.0447L16.4674 20.514C16.4023 20.6144 16.3079 20.6895 16.1988 20.7281C16.0897 20.7667 15.9719 20.7665 15.863 20.7276C15.7541 20.6887 15.6602 20.613 15.5957 20.5125C15.531 20.4118 15.4991 20.2913 15.5049 20.1698L15.7511 14.9418L11.7775 14.0444C11.6925 14.0252 11.6134 13.9841 11.5471 13.9247C11.4808 13.8655 11.4293 13.7897 11.3972 13.7042C11.3652 13.6186 11.3535 13.526 11.3633 13.4345C11.373 13.343 11.4039 13.2555 11.4532 13.1796L17.6034 3.71024C17.6685 3.60978 17.7629 3.5346 17.872 3.49605C17.9811 3.4575 18.0989 3.45769 18.2078 3.49664C18.3166 3.53558 18.4105 3.61111 18.4751 3.7118C18.5398 3.81247 18.5717 3.93279 18.5659 4.05451L18.3197 9.28261L22.2933 10.1799C22.3781 10.1991 22.4572 10.2402 22.5236 10.2995C22.59 10.3589 22.6414 10.4347 22.6733 10.5202C22.7056 10.6057 22.7172 10.6983 22.7074 10.7898C22.6978 10.8813 22.6668 10.9688 22.6174 11.0447Z" fill="#DF8E1D"/>
<path d="M16.1722 29.1926C16.3358 29.1929 16.4978 29.1593 16.6489 29.0935C16.8002 29.0277 16.9373 28.9312 17.0528 28.8097L22.8639 22.7076C23.0964 22.4622 23.2267 22.13 23.2262 21.7839C23.2258 21.4377 23.0946 21.1056 22.8615 20.861C22.6285 20.6162 22.3123 20.4783 21.9828 20.4778C21.653 20.4775 21.3367 20.6142 21.103 20.8583L16.1722 26.0357L5.43067 14.7561C5.1965 14.5141 4.88078 14.3792 4.5523 14.3806C4.2238 14.382 3.90913 14.5196 3.67685 14.7636C3.44457 15.0075 3.31348 15.3378 3.31214 15.683C3.31081 16.0278 3.43933 16.3593 3.66971 16.6053L15.2919 28.8097C15.4074 28.9314 15.5446 29.0277 15.6956 29.0935C15.8468 29.1593 16.0087 29.1929 16.1722 29.1926Z" fill="#179299"/>
<path d="M16.1777 29.1926C16.014 29.1929 15.8521 29.1593 15.701 29.0935C15.5498 29.0277 15.4126 28.9312 15.2971 28.8097L9.486 22.7076C9.25353 22.4622 9.12322 22.13 9.12366 21.7839C9.1241 21.4377 9.25523 21.1056 9.48835 20.861C9.72145 20.6162 10.0375 20.4783 10.3672 20.4778C10.6968 20.4775 11.0132 20.6142 11.247 20.8583L16.1777 26.0357L26.9192 14.7561C27.1535 14.5141 27.4691 14.3792 27.7976 14.3806C28.1262 14.382 28.4408 14.5196 28.6729 14.7636C28.9054 15.0075 29.0366 15.3378 29.0379 15.683C29.039 16.0278 28.9105 16.3593 28.6801 16.6053L17.058 28.8097C16.9426 28.9314 16.8052 29.0277 16.6542 29.0935C16.5032 29.1593 16.3411 29.1929 16.1777 29.1926Z" fill="#179299"/>
</svg>
