<svg width="34" height="33" viewBox="0 0 34 33" fill="none" xmlns="http://www.w3.org/2000/svg">
<path fill-rule="evenodd" clip-rule="evenodd" d="M8.54961 27.8452C8.3144 27.8176 8.07919 27.7001 7.84396 27.5824C7.73896 27.5299 7.64934 27.4723 7.57509 27.4094C7.31721 27.1915 7.24483 26.9118 7.35794 26.5701C7.40228 26.4362 7.44481 26.2969 7.50787 26.1707V26.1707V26.1707C7.56091 26.0648 7.47824 25.9717 7.36124 25.9531C6.96345 25.8897 6.7493 25.6427 6.63402 25.2969C5.9882 23.6177 6.08696 22.311 7.28798 21.0187C7.38693 20.9123 7.47342 20.7939 7.54614 20.6681V20.6681C7.63748 20.5098 7.70952 20.3851 7.70952 20.1883C7.70952 18.4406 7.9784 16.8272 9.18835 15.3484C9.59167 14.8108 10.1294 14.2729 10.8016 13.8696C10.8907 13.8251 10.9503 13.7806 10.9852 13.7312C11.1478 13.5011 10.8418 13.2246 10.6856 12.9901C10.3112 12.4285 10.1067 11.8511 9.99498 11.1809C9.88743 10.6431 10.124 10.1054 10.3607 9.56762C10.3779 9.52842 10.3952 9.48921 10.4123 9.45001C10.4941 9.26252 10.6101 9.05148 10.7849 8.94503V8.94503C10.8903 8.88077 10.9978 8.8833 11.1135 8.8401C11.4294 8.72213 11.6995 8.51814 11.9557 8.32457C11.9572 8.32348 11.9586 8.3224 11.96 8.32132C12.1701 8.16259 12.3709 7.99097 12.5706 7.81932C13.4421 7.07019 14.4332 6.74441 15.6415 6.74441C15.9022 6.74441 16.0366 6.6179 16.0444 6.4876V6.4876C16.0449 6.4796 16.0457 6.4716 16.0477 6.46383C16.0596 6.41652 16.0727 6.36921 16.0868 6.3219C16.1583 6.08162 16.2566 5.84134 16.3819 5.60108C16.4794 5.41384 16.5933 5.2266 16.7234 5.03937C16.7644 4.98034 16.807 4.9213 16.8514 4.86227L17.2547 4.45896C17.4606 4.25306 17.7453 4.20483 17.9278 4.37465C17.931 4.37766 17.9342 4.38071 17.9373 4.38385V4.38385C18.0533 4.49886 18.1046 4.66352 18.1845 4.80593C18.4021 5.19353 18.5795 5.57639 18.7427 5.92857C18.7481 5.94005 18.7533 5.95149 18.7586 5.9629C18.8423 6.14333 18.9222 6.3154 19.0024 6.47554C19.0036 6.47799 19.0048 6.48042 19.006 6.48283C19.0077 6.48604 19.0093 6.48922 19.0109 6.49235V6.49235C19.1686 6.79432 19.5617 6.5281 19.8831 6.41501C20.0624 6.35189 20.1804 6.33469 20.2692 6.37772C20.4159 6.44876 20.4832 6.68398 20.6156 7.14773C20.6827 7.42945 20.7391 7.70984 20.7846 7.9889C20.8315 8.27646 20.8669 8.5626 20.8906 8.84732C21.0747 11.055 20.5577 13.1773 19.2713 15.2141C19.204 15.3484 19.1031 15.483 19.0024 15.6174C18.9015 15.7517 18.8007 15.8863 18.7335 16.0206C18.5991 16.2896 18.5991 16.4239 18.868 16.6929C20.0779 17.7684 20.8845 19.2472 21.1534 20.8605C21.1839 21.0739 21.2075 21.2942 21.2241 21.5184C21.2265 21.5509 21.2288 21.5835 21.231 21.6162C21.2623 22.0984 21.2619 22.5959 21.2299 23.0777C21.2269 23.1226 21.2237 23.1672 21.2201 23.2118C21.2038 23.4181 21.1815 23.6211 21.1534 23.8181C21.1199 23.9519 21.1031 24.0524 21.103 24.1259C21.1025 24.3476 21.2537 24.3224 21.5567 24.2214C21.7359 24.1702 21.9152 24.1141 22.0936 24.0531C22.1614 24.0299 22.2291 24.0061 22.2967 23.9814C22.6144 23.8657 22.9279 23.7342 23.232 23.5872C23.2533 23.5769 23.2745 23.5666 23.2958 23.5561C23.4179 23.496 23.5383 23.4333 23.6568 23.368C23.7408 23.3218 23.8237 23.2744 23.9057 23.2256C24.0212 23.1567 24.1346 23.0853 24.2455 23.0115C24.3609 22.9456 24.4742 22.8797 24.5862 22.8145C25.1586 22.4816 25.6976 22.1681 26.3023 21.973C26.5451 21.8946 26.7983 21.8354 27.0687 21.8015C27.2085 21.8015 27.3321 21.7854 27.4508 21.7698C27.4833 21.7657 27.5152 21.7614 27.547 21.7577C27.6253 21.7484 27.7027 21.7413 27.7827 21.7418C27.8951 21.7424 28.0125 21.7577 28.1442 21.8015C28.5475 21.936 28.8164 22.3393 28.8164 22.7426C28.8164 23.1459 28.5475 23.4148 28.1442 23.5492C27.9289 23.5923 27.7169 23.6456 27.5086 23.7084C27.4436 23.7279 27.379 23.7483 27.3147 23.7696C27.2322 23.7969 27.1502 23.8257 27.0687 23.8559C26.9446 23.9017 26.8219 23.9506 26.7005 24.0026C26.2399 24.1993 25.7976 24.4376 25.3738 24.704C25.3343 24.7288 25.2949 24.7538 25.2556 24.7793C25.0019 24.943 24.7548 25.1167 24.5143 25.2969C23.835 25.7725 23.0868 26.1795 22.3221 26.5176C22.2897 26.532 22.2574 26.5462 22.225 26.5602C21.873 26.713 21.5182 26.8511 21.1653 26.9749C20.9294 27.0576 20.6945 27.1338 20.462 27.2035C20.208 27.2797 19.9439 27.3109 19.7171 27.4482V27.4482C19.5964 27.5213 19.4853 27.6282 19.3642 27.7005C19.0013 27.9172 18.6316 27.9776 18.2143 28.0457C18.0792 28.0679 17.9389 28.0908 17.7925 28.1201C17.6779 28.1306 17.5643 28.141 17.4513 28.1513C16.1048 28.2746 14.8548 28.389 13.4904 28.389C13.4071 28.389 13.3238 28.389 13.2394 28.3878C13.2161 28.3875 13.1934 28.3954 13.175 28.4097C13.1501 28.429 13.1256 28.4468 13.1018 28.4629C13.0979 28.4655 13.0926 28.4645 13.0899 28.4605V28.4605C13.0882 28.4578 13.088 28.4544 13.0897 28.4516C13.0925 28.4467 13.0953 28.4417 13.0981 28.4368C13.1113 28.4135 13.0949 28.3845 13.068 28.3835C13.058 28.3831 13.0479 28.3827 13.0378 28.3823C12.7716 28.3708 12.4856 28.3394 12.146 28.2546C12.0398 28.2191 11.9335 28.1744 11.8322 28.1204C11.7538 28.0786 11.6784 28.0311 11.6082 27.9782C11.5061 27.9012 11.415 27.8123 11.342 27.7117C11.2836 27.6313 11.2367 27.5434 11.2049 27.4479C11.1089 27.0639 11.1501 26.7484 11.3284 26.5014C11.3386 26.4872 11.3494 26.4732 11.3605 26.4595V26.4595C11.4976 26.2907 11.7305 26.2501 11.9322 26.1689C11.9347 26.1679 11.9371 26.1669 11.9395 26.1659C11.9497 26.1618 11.9596 26.1578 11.9694 26.1536V26.1536C12.0119 26.136 12.0239 26.0378 11.9853 26.0126C11.8753 25.9406 11.7924 25.8609 11.7189 25.7555C11.7098 25.7425 11.7008 25.729 11.6919 25.7151C11.6309 25.6195 11.5872 25.465 11.4738 25.465V25.465C11.3604 25.465 11.3106 25.6166 11.2738 25.7239C11.2728 25.7266 11.2719 25.7293 11.271 25.7321C11.2707 25.733 11.2704 25.734 11.2701 25.7349C11.244 25.813 11.2245 25.891 11.2049 25.9691C11.1984 25.9951 11.1919 26.0211 11.1852 26.0471C11.1275 26.2697 11.0419 26.485 10.9598 26.6997C10.7831 27.1618 10.5601 27.484 10.267 27.6824C10.2199 27.7143 10.171 27.7429 10.1202 27.7685C10.0755 27.791 10.0293 27.811 9.98161 27.8287C9.77809 27.9041 9.54643 27.9363 9.2814 27.9288C9.11746 27.9242 8.94076 27.9044 8.75005 27.8701C8.68379 27.8582 8.61646 27.8531 8.54961 27.8452V27.8452ZM8.30636 30.513C7.50462 30.4304 6.85359 30.0884 6.67912 29.9966C6.66454 29.9889 6.6533 29.983 6.64557 29.9792C6.00723 29.66 5.16886 29.0394 4.79762 27.9257V27.9257C4.64746 27.4751 4.47598 27.0255 4.27287 26.5961C4.21005 26.4634 4.15818 26.3344 4.11524 26.2127C3.69268 25.0994 3.41788 23.8382 3.63622 22.4969C3.74593 21.8229 3.96732 21.2051 4.27528 20.6376C4.69631 19.8616 5.03619 19.0336 5.16346 18.16C5.37751 16.6907 5.89988 15.1538 7.07886 13.6952V13.6952C7.43334 13.2288 7.55975 12.6221 7.43419 12.0499C7.40562 11.9197 7.38018 11.7885 7.35759 11.6562C7.17103 10.6577 7.40217 9.80499 7.58335 9.28735C7.67801 9.01689 7.7845 8.76998 7.86133 8.59438C7.88226 8.54654 7.90091 8.50412 7.9178 8.4657C7.97287 8.34043 8.00922 8.25774 8.04469 8.16909C8.17946 7.83213 8.38127 7.52608 8.6379 7.26946C8.64017 7.26718 8.64335 7.26398 8.64734 7.25992C8.6997 7.20694 8.89492 7.00942 9.12656 6.83568C9.255 6.73935 9.52695 6.54582 9.91683 6.40047C10.0739 6.34191 10.2273 6.27187 10.361 6.17084V6.17084L10.3664 6.16677C10.419 6.1271 10.4889 6.07431 10.5691 6.0161C11.3119 5.31859 12.1236 4.82403 12.9944 4.50732C13.671 4.26121 14.2756 3.83045 14.7076 3.25444V3.25444C14.7837 3.153 14.8669 3.05709 14.9565 2.96743L15.3598 2.56412C15.9293 1.99461 16.8652 1.48421 18.0043 1.61078C19.1713 1.74044 20.0294 2.4789 20.4576 3.38282V3.38282C20.5755 3.58925 20.7791 3.72974 21.0068 3.79817C21.1197 3.83212 21.2347 3.87425 21.351 3.92595C22.4138 4.39829 22.8098 5.31727 22.919 5.57932C23.0353 5.85851 23.1273 6.18238 23.1787 6.36404C23.1835 6.3812 23.1881 6.39709 23.1922 6.41156C23.2032 6.44983 23.2133 6.48833 23.2225 6.52706C23.8912 9.33568 23.6953 12.0926 22.5632 14.7093C22.2055 15.5359 22.2764 16.4906 22.7097 17.2802V17.2802C23.4462 18.6223 25.1492 19.3587 26.6661 19.1517C26.6894 19.1485 26.7128 19.1455 26.7363 19.1425C26.8337 19.1303 26.9318 19.1235 27.03 19.1222C27.0311 19.122 27.0321 19.1219 27.0333 19.1218C27.0513 19.1196 27.0656 19.1177 27.0923 19.1142C27.104 19.1126 27.1179 19.1109 27.1354 19.1086C27.1827 19.1025 27.2568 19.0929 27.3398 19.0846C27.7259 19.046 28.3066 19.031 28.9915 19.2594C30.5462 19.7776 31.4961 21.2472 31.4961 22.7426C31.4961 24.687 30.0699 25.7319 28.9915 26.0914C28.8862 26.1265 28.7786 26.1551 28.6697 26.1769C27.858 26.3393 27.0162 26.7702 26.1222 27.4407C26.0988 27.4582 26.0751 27.4755 26.0511 27.4922C24.6555 28.4692 23.0752 29.1806 21.5934 29.6578C21.1918 29.7872 20.8113 29.9748 20.432 30.1597C19.5402 30.5945 18.6403 30.7068 18.3842 30.7389C18.3504 30.743 18.3279 30.7458 18.318 30.7478C18.2244 30.7665 18.13 30.7803 18.035 30.7888C17.9168 30.7996 17.7984 30.8104 17.6795 30.8214C16.3509 30.9432 14.9831 31.0687 13.4904 31.0687H13.4592C13.03 31.0689 12.3553 31.0691 11.4961 30.8542C11.4295 30.8376 11.3637 30.8184 11.2986 30.7967V30.7967C10.7891 30.627 10.2447 30.5595 9.70902 30.5972C9.20248 30.6328 8.72329 30.586 8.30636 30.513ZM13.0062 28.6247C13.0097 28.6234 13.0092 28.6235 13.0062 28.6247ZM21.3849 5.24804C21.39 5.2586 21.3948 5.2683 21.3992 5.27713C21.3986 5.27574 21.3939 5.26543 21.3849 5.24804ZM9.58662 11.4812C9.59214 11.4784 9.59766 11.4756 9.60321 11.4728L9.60145 11.4737C9.59797 11.4755 9.59299 11.478 9.58662 11.4812Z" fill="#1E66F5"/>
</svg>
