<svg width="33" height="33" viewBox="0 0 33 33" fill="none" xmlns="http://www.w3.org/2000/svg">
<path d="M26.9353 7.82516C27.16 7.92918 27.2978 8.16063 27.2821 8.40781L26.6354 18.5635C26.5958 19.1842 25.7543 19.3421 25.4924 18.7781L19.3089 5.46153C19.0735 4.95468 19.5979 4.42961 20.1051 4.66431L26.9353 7.82516ZM21.6584 24.2146C21.7736 24.4937 21.6634 24.815 21.4012 24.9646L16.2135 27.9246C16.0292 28.0298 15.8031 28.0298 15.6188 27.9246L10.4312 24.9646C10.1689 24.815 10.0587 24.4937 10.1739 24.2146L11.0282 22.1443C11.1209 21.9197 11.3399 21.7731 11.5828 21.7731H20.2495C20.4924 21.7731 20.7114 21.9196 20.8041 22.1442L21.6584 24.2146ZM15.3613 11.756C15.5652 11.2603 16.2672 11.2603 16.4711 11.756L18.69 17.1507C18.8524 17.5455 18.5621 17.9789 18.1351 17.9789H13.6972C13.2702 17.9789 12.9799 17.5455 13.1423 17.1507L15.3613 11.756ZM6.33291 18.7774C6.07071 19.3415 5.22914 19.183 5.19001 18.5622L4.54994 8.40755C4.53437 8.1605 4.67211 7.92924 4.89676 7.82528L11.7264 4.66474C12.2336 4.42999 12.7581 4.95532 12.5225 5.46217L6.33291 18.7774Z" fill="#DF8E1D"/>
</svg>
