<svg width="33" height="33" viewBox="0 0 33 33" fill="none" xmlns="http://www.w3.org/2000/svg">
<path fill-rule="evenodd" clip-rule="evenodd" d="M7.52358 18.6442C7.16422 19.8425 6.98568 20.4411 7.02945 21.0096C7.07091 21.5108 7.23448 21.9927 7.50516 22.4097C7.81154 22.8809 8.31144 23.2294 9.31354 23.9254L13.7354 27.0023C14.6282 27.6224 15.075 27.9338 15.5576 28.0552C15.9838 28.1633 16.4296 28.1633 16.8569 28.0588C17.3407 27.9385 17.7898 27.6297 18.686 27.0131L23.1562 23.9302C24.1675 23.2318 24.6744 22.8846 24.9854 22.4085C25.2579 21.9898 25.4214 21.5045 25.46 20.9999C25.5049 20.4266 25.3194 19.8245 24.9531 18.6178L21.037 5.75726C20.8468 5.13227 20.7524 4.82096 20.5704 4.58899C20.41 4.38523 20.2028 4.22725 19.968 4.12987C19.7031 4.01929 19.3897 4.01929 18.762 4.01929H13.6582C13.0282 4.01929 12.7114 4.01929 12.4454 4.13228C12.2097 4.22987 12.002 4.38875 11.8418 4.59381C11.6598 4.82698 11.5665 5.14068 11.3799 5.76807L7.52358 18.6442ZM18.9613 6.74883C19.111 6.94354 19.1893 7.20917 19.3426 7.73441L22.7048 19.2584C21.4417 18.575 20.0862 18.0968 18.6848 17.8401L16.4963 10.1202C16.4784 10.0593 16.4422 10.006 16.393 9.96819C16.344 9.93034 16.2845 9.90992 16.2234 9.90992C16.1623 9.90992 16.1028 9.93034 16.0538 9.96819C16.0046 10.006 15.9684 10.0593 15.9505 10.1202L13.7873 17.8341C12.3797 18.0903 11.0181 18.5702 9.75008 19.2572L13.1296 7.7332C13.2827 7.20556 13.3599 6.94235 13.5108 6.74764C13.6444 6.57576 13.8183 6.44235 14.0142 6.35942C14.2376 6.26567 14.5014 6.26567 15.0289 6.26567H17.442C17.9696 6.26567 18.2345 6.26567 18.458 6.35942C18.6538 6.44235 18.8265 6.57576 18.9613 6.74883ZM16.3547 20.6394C17.6286 20.6394 18.7355 20.3028 19.2895 19.8076C19.388 20.131 19.423 20.4719 19.3923 20.8098C19.3616 21.1476 19.2659 21.4756 19.1111 21.774C18.7563 22.459 18.2413 22.7992 17.7772 23.1056C17.1944 23.4915 16.6933 23.8245 16.6933 24.7163C16.6933 25.0106 16.7579 25.292 16.8742 25.5407C16.4816 25.3705 16.1462 25.0827 15.9103 24.7137C15.6743 24.3447 15.5484 23.911 15.5484 23.4674V23.4122C15.5484 22.7968 15.5496 22.0384 14.7169 22.0384C14.6011 22.0382 14.4864 22.0619 14.3795 22.1078C14.2726 22.1539 14.1753 22.2216 14.0934 22.3068C14.0114 22.3922 13.9464 22.4933 13.9019 22.6049C13.8576 22.7164 13.8347 22.8359 13.8344 22.9566C12.8992 21.9795 12.981 20.5733 12.981 20.5733C12.981 20.286 13.0086 19.8389 13.1319 19.4482C13.4797 20.1309 14.7905 20.6394 16.3547 20.6394Z" fill="#fe640b"/>
</svg>
