<svg width="33" height="33" viewBox="0 0 33 33" fill="none" xmlns="http://www.w3.org/2000/svg">
<path d="M7.48288 12.0579C7.48288 11.3179 6.883 10.718 6.14302 10.718C5.40304 10.718 4.80316 11.3179 4.80316 12.0579V20.097C4.80316 20.837 5.40304 21.4369 6.14302 21.4369C6.883 21.4369 7.48288 20.837 7.48288 20.097V12.0579Z" fill="#5C5F77"/>
<path d="M12.8422 9.37843C12.8422 8.63845 12.2423 8.03857 11.5023 8.03857C10.7624 8.03857 10.1625 8.63845 10.1625 9.37843V22.777C10.1625 23.517 10.7624 24.1169 11.5023 24.1169C12.2423 24.1169 12.8422 23.517 12.8422 22.777V9.37843Z" fill="#5C5F77"/>
<path d="M18.2007 5.35915C18.2007 4.61916 17.6008 4.01929 16.8608 4.01929C16.1208 4.01929 15.5209 4.61916 15.5209 5.35915V26.7969C15.5209 27.5369 16.1208 28.1367 16.8608 28.1367C17.6008 28.1367 18.2007 27.5369 18.2007 26.7969V5.35915Z" fill="#5C5F77"/>
<path d="M23.561 9.37843C23.561 8.63845 22.9611 8.03857 22.2211 8.03857C21.4812 8.03857 20.8813 8.63845 20.8813 9.37843V22.777C20.8813 23.517 21.4812 24.1169 22.2211 24.1169C22.9611 24.1169 23.561 23.517 23.561 22.777V9.37843Z" fill="#5C5F77"/>
<path d="M28.9204 12.0579C28.9204 11.3179 28.3205 10.718 27.5805 10.718C26.8405 10.718 26.2407 11.3179 26.2407 12.0579V20.097C26.2407 20.837 26.8405 21.4369 27.5805 21.4369C28.3205 21.4369 28.9204 20.837 28.9204 20.097V12.0579Z" fill="#5C5F77"/>
</svg>
