<svg width="33" height="33" viewBox="0 0 33 33" fill="none" xmlns="http://www.w3.org/2000/svg">
<path d="M24.8658 15.0193C24.8256 14.8049 24.236 14.068 23.0972 12.8085C23.0704 12.554 23.4857 12.2056 24.303 11.7366L26.6344 9.65986C27.1569 8.98993 27.4651 7.94484 27.5589 6.471L27.5321 6.12264C27.4383 5.07755 26.688 4.24683 25.2677 3.5903C24.4236 3.02756 22.9096 2.71939 20.739 2.6792C18.9302 2.82658 16.572 3.46972 13.6646 4.5952C12.8606 5.17134 11.9495 5.74748 10.9313 6.31022L10.9446 6.4978L11.226 6.39061C11.3332 6.37721 11.4002 6.4308 11.4136 6.53799L11.5878 6.4442L11.6816 6.4308L11.695 6.51119C11.695 6.60498 11.0652 7.10073 9.33682 8.32L9.25643 8.48079C8.84107 8.50758 8.43911 8.81575 8.03716 9.37849L8.14435 9.53927L8.47931 9.41869L8.72048 9.74025C9.14924 9.2981 9.60479 8.90954 10.1005 8.57458C10.3551 8.64157 10.4891 8.72196 10.6901 8.78895C12.0567 7.78406 13.41 7.04714 14.7632 6.59159L14.7766 6.77917C14.5087 7.14093 14.3479 7.34191 14.2675 7.34191L14.4015 7.65007C14.4149 7.90465 10.9848 17.0291 5.47803 26.9976L5.58522 27.2522C6.05417 27.145 6.36233 27.0244 6.59011 26.9038L6.60351 27.078L7.13945 27.0378L6.24175 29.396L6.42933 29.4764C7.19305 28.6189 7.76919 27.748 8.17114 26.9574C10.4087 26.3009 12.1103 25.6578 13.2894 25.028C14.4685 24.9208 15.3796 24.6127 15.9959 24.0901L17.2286 23.4604C18.9302 22.1473 20.2031 21.2228 21.074 20.6735C22.856 19.3604 24.0217 18.0876 24.5576 16.8549L24.8658 15.0193ZM20.2299 18.1144L17.8583 19.9768C16.1299 21.1157 15.1786 21.7186 15.058 21.7186C12.2845 23.2326 10.5561 24.0231 9.88616 24.0767L9.81917 24.0901C9.87276 23.782 11.1054 21.2496 13.5038 16.4931C14.5489 16.4127 16.2103 15.917 18.4746 15.0193L19.024 14.9791C20.1629 14.8719 21.0204 15.0997 21.5831 15.6356L21.6233 15.984C21.208 17.1899 20.7256 17.9134 20.2299 18.1144ZM21.6903 10.37C21.4491 10.6648 20.7792 11.1605 19.6805 11.8572C19.3188 11.8974 17.9789 12.42 15.6475 13.4383L15.2724 13.3713L15.259 13.2105C15.2322 12.8755 15.3796 12.4468 15.7145 11.9376C15.8887 10.9997 16.0897 10.437 16.3041 10.3298L18.2469 5.93506C18.2201 5.64029 18.6354 5.4661 19.4929 5.31872L19.7743 5.29192L19.7877 5.5331L21.3419 5.31872C22.8828 5.18473 23.6867 5.5063 23.7537 6.25662L23.9279 6.22982L23.8877 5.80107L24.0886 5.77427C24.5576 6.02885 24.7854 6.31022 24.8122 6.68538C24.839 6.92655 24.705 7.23472 24.4236 7.59648C24.303 7.60988 24.236 7.51609 24.2226 7.3553L24.0351 7.3687L23.9949 7.90465C23.2177 9.07032 22.6416 9.65986 22.2932 9.70006L21.6903 10.37Z" fill="#df8e1d"/>
</svg>
