<svg width="33" height="33" viewBox="0 0 33 33" fill="none" xmlns="http://www.w3.org/2000/svg">
<path d="M16.9444 5.35902C16.5595 4.69238 15.5973 4.69237 15.2124 5.35899L11.383 11.9909C10.9285 12.7781 11.6961 13.7793 12.5994 13.6783C14.1113 13.5092 15.6575 13.5947 17.1731 13.9523L18.2172 14.1989C18.7546 14.3258 19.0875 14.8642 18.9607 15.4016L17.5218 21.5029C17.395 22.0403 16.8567 22.3733 16.3193 22.2467L15.2718 22.0001C13.1485 21.4988 11.0962 22.3803 9.91582 23.9475C9.58366 24.3886 8.99242 24.6042 8.49545 24.3636L8.4283 24.3311C7.93114 24.0905 7.71791 23.4873 8.0253 23.0284C9.46952 20.8724 12.0337 19.5566 14.7634 19.8185C15.3132 19.8712 15.8522 19.5458 15.979 19.0082L16.4658 16.9442C16.5926 16.4066 16.2597 15.8634 15.713 15.7843C12.6272 15.3379 9.47214 16.1754 7.00487 18.1286C4.53689 20.0813 2.99705 22.96 2.72366 26.0667C2.67524 26.6169 3.12752 27.0655 3.67981 27.0655H27.7449C28.5147 27.0655 28.9958 26.2321 28.6109 25.5655L16.9444 5.35902Z" fill="#1E66F5"/>
</svg>
