<svg width="33" height="33" viewBox="0 0 33 33" fill="none" xmlns="http://www.w3.org/2000/svg">
<path d="M6.78188 8.93258C6.78188 6.95929 8.38155 5.35962 10.3548 5.35962C11.0126 5.35962 11.5458 5.89284 11.5458 6.55061C11.5458 7.20836 11.0126 7.74159 10.3548 7.74159C9.69707 7.74159 9.16385 8.27482 9.16385 8.93258V13.6232C9.16385 14.562 8.798 15.4317 8.18664 16.0785C8.798 16.7252 9.16385 17.5949 9.16385 18.5338V23.2244C9.16385 23.8822 9.69707 24.4154 10.3548 24.4154C11.0126 24.4154 11.5458 24.9486 11.5458 25.6063C11.5458 26.2641 11.0126 26.7974 10.3548 26.7974C8.38155 26.7974 6.78188 25.1977 6.78188 23.2244V18.5338C6.78188 17.9872 6.40993 17.5109 5.87975 17.3783L5.30203 17.2338C4.77185 17.1015 4.3999 16.625 4.3999 16.0785C4.3999 15.532 4.77185 15.0555 5.30203 14.9231L5.87975 14.7787C6.40993 14.646 6.78188 14.1697 6.78188 13.6232V8.93258ZM25.8376 8.93258C25.8376 6.95929 24.238 5.35962 22.2646 5.35962C21.6069 5.35962 21.0736 5.89284 21.0736 6.55061C21.0736 7.20836 21.6069 7.74159 22.2646 7.74159C22.9225 7.74159 23.4556 8.27482 23.4556 8.93258V13.6232C23.4556 14.562 23.8215 15.4317 24.4329 16.0785C23.8215 16.7252 23.4556 17.5949 23.4556 18.5338V23.2244C23.4556 23.8822 22.9225 24.4154 22.2646 24.4154C21.6069 24.4154 21.0736 24.9486 21.0736 25.6063C21.0736 26.2641 21.6069 26.7974 22.2646 26.7974C24.238 26.7974 25.8376 25.1977 25.8376 23.2244V18.5338C25.8376 17.9872 26.2096 17.5109 26.7398 17.3783L27.3174 17.2338C27.8477 17.1015 28.2196 16.625 28.2196 16.0785C28.2196 15.532 27.8477 15.0555 27.3174 14.9231L26.7398 14.7787C26.2096 14.646 25.8376 14.1697 25.8376 13.6232V8.93258Z" fill="#d20f39"/>
</svg>
