<svg width="33" height="33" viewBox="0 0 33 33" fill="none" xmlns="http://www.w3.org/2000/svg">
<path d="M6.93837 8.93258C6.93837 6.95929 8.53804 5.35962 10.5113 5.35962C11.1691 5.35962 11.7023 5.89284 11.7023 6.55061C11.7023 7.20836 11.1691 7.74159 10.5113 7.74159C9.85357 7.74159 9.32034 8.27482 9.32034 8.93258V13.6232C9.32034 14.562 8.95449 15.4317 8.34313 16.0785C8.95449 16.7252 9.32034 17.5949 9.32034 18.5338V23.2244C9.32034 23.8822 9.85357 24.4154 10.5113 24.4154C11.1691 24.4154 11.7023 24.9486 11.7023 25.6063C11.7023 26.2641 11.1691 26.7974 10.5113 26.7974C8.53804 26.7974 6.93837 25.1977 6.93837 23.2244V18.5338C6.93837 17.9872 6.56642 17.5109 6.03624 17.3783L5.45852 17.2338C4.92834 17.1015 4.5564 16.625 4.5564 16.0785C4.5564 15.532 4.92834 15.0555 5.45852 14.9231L6.03624 14.7787C6.56642 14.646 6.93837 14.1697 6.93837 13.6232V8.93258ZM25.9941 8.93258C25.9941 6.95929 24.3945 5.35962 22.4211 5.35962C21.7634 5.35962 21.2301 5.89284 21.2301 6.55061C21.2301 7.20836 21.7634 7.74159 22.4211 7.74159C23.079 7.74159 23.6121 8.27482 23.6121 8.93258V13.6232C23.6121 14.562 23.978 15.4317 24.5894 16.0785C23.978 16.7252 23.6121 17.5949 23.6121 18.5338V23.2244C23.6121 23.8822 23.079 24.4154 22.4211 24.4154C21.7634 24.4154 21.2301 24.9486 21.2301 25.6063C21.2301 26.2641 21.7634 26.7974 22.4211 26.7974C24.3945 26.7974 25.9941 25.1977 25.9941 23.2244V18.5338C25.9941 17.9872 26.3661 17.5109 26.8963 17.3783L27.4739 17.2338C28.0042 17.1015 28.3761 16.625 28.3761 16.0785C28.3761 15.532 28.0042 15.0555 27.4739 14.9231L26.8963 14.7787C26.3661 14.646 25.9941 14.1697 25.9941 13.6232V8.93258Z" fill="#89DCEB"/>
</svg>
