<svg width="34" height="33" viewBox="0 0 34 33" fill="none" xmlns="http://www.w3.org/2000/svg">
<path d="M7.31093 8.93258C7.31093 6.95929 8.9106 5.35962 10.8839 5.35962C11.5416 5.35962 12.0749 5.89284 12.0749 6.55061C12.0749 7.20836 11.5416 7.74159 10.8839 7.74159C10.2261 7.74159 9.6929 8.27482 9.6929 8.93258V13.6232C9.6929 14.562 9.32705 15.4317 8.71569 16.0785C9.32705 16.7252 9.6929 17.5949 9.6929 18.5338V23.2244C9.6929 23.8822 10.2261 24.4154 10.8839 24.4154C11.5416 24.4154 12.0749 24.9486 12.0749 25.6063C12.0749 26.2641 11.5416 26.7974 10.8839 26.7974C8.9106 26.7974 7.31093 25.1977 7.31093 23.2244V18.5338C7.31093 17.9872 6.93898 17.5109 6.4088 17.3783L5.83108 17.2338C5.3009 17.1015 4.92896 16.625 4.92896 16.0785C4.92896 15.532 5.3009 15.0555 5.83108 14.9231L6.4088 14.7787C6.93898 14.646 7.31093 14.1697 7.31093 13.6232V8.93258ZM26.3667 8.93258C26.3667 6.95929 24.767 5.35962 22.7937 5.35962C22.136 5.35962 21.6027 5.89284 21.6027 6.55061C21.6027 7.20836 22.136 7.74159 22.7937 7.74159C23.4516 7.74159 23.9847 8.27482 23.9847 8.93258V13.6232C23.9847 14.562 24.3506 15.4317 24.962 16.0785C24.3506 16.7252 23.9847 17.5949 23.9847 18.5338V23.2244C23.9847 23.8822 23.4516 24.4154 22.7937 24.4154C22.136 24.4154 21.6027 24.9486 21.6027 25.6063C21.6027 26.2641 22.136 26.7974 22.7937 26.7974C24.767 26.7974 26.3667 25.1977 26.3667 23.2244V18.5338C26.3667 17.9872 26.7386 17.5109 27.2688 17.3783L27.8464 17.2338C28.3767 17.1015 28.7487 16.625 28.7487 16.0785C28.7487 15.532 28.3767 15.0555 27.8464 14.9231L27.2688 14.7787C26.7386 14.646 26.3667 14.1697 26.3667 13.6232V8.93258Z" fill="#40a02b"/>
</svg>
