<svg width="33" height="33" viewBox="0 0 33 33" fill="none" xmlns="http://www.w3.org/2000/svg">
<path d="M6.62465 8.93258C6.62465 6.95929 8.22432 5.35962 10.1976 5.35962C10.8554 5.35962 11.3886 5.89284 11.3886 6.55061C11.3886 7.20836 10.8554 7.74159 10.1976 7.74159C9.53985 7.74159 9.00662 8.27482 9.00662 8.93258V13.6232C9.00662 14.562 8.64077 15.4317 8.02941 16.0785C8.64077 16.7252 9.00662 17.5949 9.00662 18.5338V23.2244C9.00662 23.8822 9.53985 24.4154 10.1976 24.4154C10.8554 24.4154 11.3886 24.9486 11.3886 25.6063C11.3886 26.2641 10.8554 26.7974 10.1976 26.7974C8.22432 26.7974 6.62465 25.1977 6.62465 23.2244V18.5338C6.62465 17.9872 6.2527 17.5109 5.72252 17.3783L5.1448 17.2338C4.61462 17.1015 4.24268 16.625 4.24268 16.0785C4.24268 15.532 4.61462 15.0555 5.1448 14.9231L5.72252 14.7787C6.2527 14.646 6.62465 14.1697 6.62465 13.6232V8.93258ZM25.6804 8.93258C25.6804 6.95929 24.0808 5.35962 22.1074 5.35962C21.4497 5.35962 20.9164 5.89284 20.9164 6.55061C20.9164 7.20836 21.4497 7.74159 22.1074 7.74159C22.7653 7.74159 23.2984 8.27482 23.2984 8.93258V13.6232C23.2984 14.562 23.6643 15.4317 24.2757 16.0785C23.6643 16.7252 23.2984 17.5949 23.2984 18.5338V23.2244C23.2984 23.8822 22.7653 24.4154 22.1074 24.4154C21.4497 24.4154 20.9164 24.9486 20.9164 25.6063C20.9164 26.2641 21.4497 26.7974 22.1074 26.7974C24.0808 26.7974 25.6804 25.1977 25.6804 23.2244V18.5338C25.6804 17.9872 26.0524 17.5109 26.5825 17.3783L27.1601 17.2338C27.6905 17.1015 28.0624 16.625 28.0624 16.0785C28.0624 15.532 27.6905 15.0555 27.1601 14.9231L26.5825 14.7787C26.0524 14.646 25.6804 14.1697 25.6804 13.6232V8.93258Z" fill="#8839ef"/>
</svg>
