<svg width="33" height="33" viewBox="0 0 33 33" fill="none" xmlns="http://www.w3.org/2000/svg">
<path d="M6.49879 8.93258C6.49879 6.95929 8.09846 5.35962 10.0717 5.35962C10.7295 5.35962 11.2627 5.89284 11.2627 6.55061C11.2627 7.20836 10.7295 7.74159 10.0717 7.74159C9.41399 7.74159 8.88077 8.27482 8.88077 8.93258V13.6232C8.88077 14.562 8.51492 15.4317 7.90356 16.0785C8.51492 16.7252 8.88077 17.5949 8.88077 18.5338V23.2244C8.88077 23.8822 9.41399 24.4154 10.0717 24.4154C10.7295 24.4154 11.2627 24.9486 11.2627 25.6064C11.2627 26.2641 10.7295 26.7974 10.0717 26.7974C8.09846 26.7974 6.49879 25.1977 6.49879 23.2244V18.5338C6.49879 17.9872 6.12685 17.5109 5.59667 17.3783L5.01895 17.2338C4.48877 17.1015 4.11682 16.625 4.11682 16.0785C4.11682 15.532 4.48877 15.0555 5.01895 14.9231L5.59667 14.7787C6.12685 14.646 6.49879 14.1697 6.49879 13.6232V8.93258ZM25.5546 8.93258C25.5546 6.95929 23.9549 5.35962 21.9816 5.35962C21.3238 5.35962 20.7906 5.89284 20.7906 6.55061C20.7906 7.20836 21.3238 7.74159 21.9816 7.74159C22.6394 7.74159 23.1726 8.27482 23.1726 8.93258V13.6232C23.1726 14.562 23.5385 15.4317 24.1498 16.0785C23.5385 16.7252 23.1726 17.5949 23.1726 18.5338V23.2244C23.1726 23.8822 22.6394 24.4154 21.9816 24.4154C21.3238 24.4154 20.7906 24.9486 20.7906 25.6064C20.7906 26.2641 21.3238 26.7974 21.9816 26.7974C23.9549 26.7974 25.5546 25.1977 25.5546 23.2244V18.5338C25.5546 17.9872 25.9265 17.5109 26.4567 17.3783L27.0343 17.2338C27.5646 17.1015 27.9366 16.625 27.9366 16.0785C27.9366 15.532 27.5646 15.0555 27.0343 14.9231L26.4567 14.7787C25.9265 14.646 25.5546 14.1697 25.5546 13.6232V8.93258Z" fill="#1E66F5"/>
</svg>
