<svg width="33" height="33" viewBox="0 0 33 33" fill="none" xmlns="http://www.w3.org/2000/svg">
<path d="M7.15443 8.93258C7.15443 6.95929 8.7541 5.35962 10.7274 5.35962C11.3851 5.35962 11.9184 5.89284 11.9184 6.55061C11.9184 7.20836 11.3851 7.74159 10.7274 7.74159C10.0696 7.74159 9.53641 8.27482 9.53641 8.93258V13.6232C9.53641 14.562 9.17056 15.4317 8.5592 16.0785C9.17056 16.7252 9.53641 17.5949 9.53641 18.5338V23.2244C9.53641 23.8822 10.0696 24.4154 10.7274 24.4154C11.3851 24.4154 11.9184 24.9486 11.9184 25.6063C11.9184 26.2641 11.3851 26.7974 10.7274 26.7974C8.7541 26.7974 7.15443 25.1977 7.15443 23.2244V18.5338C7.15443 17.9872 6.78249 17.5109 6.25231 17.3783L5.67459 17.2338C5.14441 17.1015 4.77246 16.625 4.77246 16.0785C4.77246 15.532 5.14441 15.0555 5.67459 14.9231L6.25231 14.7787C6.78249 14.646 7.15443 14.1697 7.15443 13.6232V8.93258ZM26.2102 8.93258C26.2102 6.95929 24.6105 5.35962 22.6372 5.35962C21.9795 5.35962 21.4462 5.89284 21.4462 6.55061C21.4462 7.20836 21.9795 7.74159 22.6372 7.74159C23.2951 7.74159 23.8282 8.27482 23.8282 8.93258V13.6232C23.8282 14.562 24.1941 15.4317 24.8055 16.0785C24.1941 16.7252 23.8282 17.5949 23.8282 18.5338V23.2244C23.8282 23.8822 23.2951 24.4154 22.6372 24.4154C21.9795 24.4154 21.4462 24.9486 21.4462 25.6063C21.4462 26.2641 21.9795 26.7974 22.6372 26.7974C24.6105 26.7974 26.2102 25.1977 26.2102 23.2244V18.5338C26.2102 17.9872 26.5821 17.5109 27.1123 17.3783L27.6899 17.2338C28.2202 17.1015 28.5922 16.625 28.5922 16.0785C28.5922 15.532 28.2202 15.0555 27.6899 14.9231L27.1123 14.7787C26.5821 14.646 26.2102 14.1697 26.2102 13.6232V8.93258Z" fill="#7F849C"/>
</svg>
