<svg width="33" height="33" viewBox="0 0 33 33" fill="none" xmlns="http://www.w3.org/2000/svg">
<path d="M7.09438 8.93331C7.09438 6.96002 8.69405 5.36035 10.6673 5.36035C11.3251 5.36035 11.8583 5.89357 11.8583 6.55134C11.8583 7.20909 11.3251 7.74232 10.6673 7.74232C10.0096 7.74232 9.47635 8.27555 9.47635 8.93331V13.6239C9.47635 14.5628 9.1105 15.4325 8.49914 16.0792C9.1105 16.726 9.47635 17.5957 9.47635 18.5345V23.2251C9.47635 23.883 10.0096 24.4161 10.6673 24.4161C11.3251 24.4161 11.8583 24.9493 11.8583 25.6071C11.8583 26.2648 11.3251 26.7981 10.6673 26.7981C8.69405 26.7981 7.09438 25.1984 7.09438 23.2251V18.5345C7.09438 17.988 6.72243 17.5117 6.19225 17.379L5.61453 17.2346C5.08435 17.1022 4.7124 16.6257 4.7124 16.0792C4.7124 15.5327 5.08435 15.0562 5.61453 14.9239L6.19225 14.7794C6.72243 14.6468 7.09438 14.1705 7.09438 13.6239V8.93331ZM26.1501 8.93331C26.1501 6.96002 24.5505 5.36035 22.5771 5.36035C21.9194 5.36035 21.3861 5.89357 21.3861 6.55134C21.3861 7.20909 21.9194 7.74232 22.5771 7.74232C23.235 7.74232 23.7681 8.27555 23.7681 8.93331V13.6239C23.7681 14.5628 24.134 15.4325 24.7454 16.0792C24.134 16.726 23.7681 17.5957 23.7681 18.5345V23.2251C23.7681 23.883 23.235 24.4161 22.5771 24.4161C21.9194 24.4161 21.3861 24.9493 21.3861 25.6071C21.3861 26.2648 21.9194 26.7981 22.5771 26.7981C24.5505 26.7981 26.1501 25.1984 26.1501 23.2251V18.5345C26.1501 17.988 26.5221 17.5117 27.0523 17.379L27.6299 17.2346C28.1602 17.1022 28.5321 16.6257 28.5321 16.0792C28.5321 15.5327 28.1602 15.0562 27.6299 14.9239L27.0523 14.7794C26.5221 14.6468 26.1501 14.1705 26.1501 13.6239V8.93331Z" fill="#df8e1d"/>
</svg>
