<svg width="33" height="33" viewBox="0 0 33 33" fill="none" xmlns="http://www.w3.org/2000/svg">
<path d="M22.4462 11.5683C22.7836 12.4654 22.0144 13.3149 21.056 13.3149H20.8634C20.1701 13.3149 19.6235 12.7758 19.2948 12.1653C19.1146 11.8253 18.8832 11.536 18.6006 11.2975C18.318 11.0589 17.9916 10.8762 17.6212 10.7493C17.2558 10.6225 16.8587 10.559 16.43 10.559C15.6553 10.559 14.9805 10.7595 14.4056 11.1604C13.8306 11.5563 13.3848 12.1349 13.0681 12.8962C12.7515 13.6524 12.5931 14.571 12.5931 15.652C12.5931 16.7635 12.7515 17.6973 13.0681 18.4535C13.3897 19.2097 13.838 19.7808 14.4129 20.1664C14.9879 20.5521 15.6529 20.745 16.408 20.745C16.832 20.745 17.2242 20.6866 17.5847 20.5699C17.9501 20.4532 18.2741 20.2832 18.5567 20.0598C18.8393 19.8314 19.0732 19.5549 19.2583 19.2301C19.6042 18.6389 20.1538 18.1209 20.8387 18.1242L21.0304 18.1251C22.0033 18.1297 22.7677 18.9955 22.3803 19.8879C22.3342 19.9941 22.285 20.0996 22.2328 20.2044C21.9063 20.8643 21.4654 21.4556 20.91 21.9783C20.3594 22.496 19.7016 22.907 18.9367 23.2116C18.1767 23.5109 17.3168 23.6607 16.3568 23.6607C15.022 23.6607 13.8282 23.346 12.7758 22.7167C11.7283 22.0873 10.9 21.1763 10.291 19.9837C9.68684 18.791 9.38477 17.3472 9.38477 15.652C9.38477 13.9518 9.69172 12.5054 10.3056 11.3127C10.9195 10.12 11.7527 9.21155 12.8051 8.58729C13.8575 7.95796 15.0414 7.64331 16.3568 7.64331C17.2242 7.64331 18.0281 7.77018 18.7686 8.02395C19.5141 8.27771 20.1743 8.6482 20.7492 9.13542C21.3241 9.61757 21.7918 10.2088 22.1524 10.9092C22.2622 11.1197 22.3602 11.3394 22.4462 11.5683Z" fill="#1e66f5"/>
</svg>
