<svg width="33" height="33" viewBox="0 0 33 33" fill="none" xmlns="http://www.w3.org/2000/svg">
<path d="M27.9485 4.86924C26.9982 3.919 25.4576 3.919 24.5074 4.86924L21.9239 7.45267C20.7526 8.62397 18.8537 8.62428 17.682 7.45336L15.2722 5.04518C14.3217 4.09525 12.7812 4.0952 11.8306 5.04506V5.04506C10.8794 5.9956 10.879 7.53738 11.8298 8.48839L16.3572 13.0167L19.8006 16.4602L24.3829 21.0425C25.3338 21.9934 26.8755 21.9934 27.8264 21.0425V21.0425C28.7773 20.0916 28.7773 18.5499 27.8264 17.599L25.3649 15.1376C24.1935 13.9662 24.1933 12.0671 25.3645 10.8954L27.9488 8.31C28.8987 7.3597 28.8986 5.81934 27.9485 4.86924V4.86924ZM9.15256 11.1679C8.20181 10.217 6.66016 10.2169 5.70931 11.1677V11.1677C4.75846 12.1186 4.75854 13.6602 5.7095 14.611L8.11603 17.017C9.28791 18.1886 9.28791 20.0885 8.11604 21.2601L5.53272 23.8429C4.58172 24.7937 4.58164 26.3354 5.53254 27.2863V27.2863C6.48337 28.2371 8.02496 28.2371 8.97579 27.2863L11.5586 24.7035C12.7302 23.5319 14.6299 23.532 15.8014 24.7037L18.2612 27.164C19.212 28.115 20.7538 28.1151 21.7047 27.1642V27.1642C22.6555 26.2134 22.6555 24.6718 21.7047 23.7209L13.6801 15.6964L9.15256 11.1679Z" fill="#1E66F5"/>
</svg>
