<svg width="33" height="33" viewBox="0 0 33 33" fill="none" xmlns="http://www.w3.org/2000/svg">
<path fill-rule="evenodd" clip-rule="evenodd" d="M18.1826 23.2987C18.7096 23.1034 19.2873 23.0634 19.8359 23.1856C20.2044 23.2677 20.6059 23.3323 21.05 23.3904C21.3534 23.429 21.6811 23.4486 22.0301 23.4486C23.1405 23.4449 23.9108 24.6633 23.0691 25.3875C21.0736 27.1045 18.517 28.1362 15.7282 28.1362C9.34685 28.1362 4.1731 22.7375 4.1731 16.0782C4.1731 16.0063 4.17253 15.9365 4.17197 15.8677C4.16913 15.5157 4.1665 15.1901 4.24052 14.7812C5.18714 11.4218 7.46091 10.1779 9.61488 10.1567C10.1676 10.1557 10.3565 10.8296 10.0178 11.2663C8.99807 12.5811 8.38675 14.2545 8.38675 16.0779C8.38725 20.3097 11.6738 23.7385 15.728 23.7385C16.5892 23.7385 17.4152 23.5832 18.1826 23.2987ZM13.1281 11.5974C12.6495 11.0733 11.8264 11.126 11.3433 11.646C10.2783 12.7923 9.62139 14.354 9.61828 16.0779C9.6201 17.0726 9.83948 18.0133 10.2293 18.8514C10.8412 20.1668 12.6381 19.6708 13.2774 18.3686C13.4122 18.0941 13.5568 17.8048 13.711 17.4964C13.9564 17.0054 14.2261 16.4657 14.519 15.86C14.747 15.3886 14.7785 14.8443 14.5897 14.356C14.5882 14.3521 14.5867 14.3482 14.5852 14.3442C14.1946 13.3221 13.631 12.135 13.1281 11.5974ZM15.4946 17.2025C15.4117 16.9006 14.9974 16.8691 14.8754 17.1575C14.4114 18.2546 13.8976 19.5895 13.7099 20.4446C13.6424 20.7493 13.6007 21.1267 13.6015 21.5452C13.6015 21.8611 13.8103 22.139 14.114 22.2259C14.628 22.373 15.1691 22.4522 15.728 22.4532C16.1927 22.4523 16.6448 22.3967 17.0794 22.2933C17.3456 22.23 17.4178 21.8998 17.2525 21.6818C16.5282 20.7179 16.0862 19.3581 15.4946 17.2025Z" fill="#40a02b"/>
<path fill-rule="evenodd" clip-rule="evenodd" d="M9.51514 8.09516C8.78692 8.08828 8.04486 7.04442 8.60844 6.58319C10.5702 4.97768 13.0415 4.01978 15.728 4.01978C22.1099 4.01978 27.2832 9.419 27.2832 16.0781C27.2832 16.5995 27.2479 17.1118 27.1864 17.6159C26.8722 18.9208 26.3057 19.791 25.6295 20.3854C24.5925 21.2955 23.2093 21.5902 21.9294 21.5896C21.5014 21.5919 21.307 21.0751 21.5603 20.73C22.5067 19.4404 23.0695 17.8279 23.0695 16.0779C23.069 11.8469 19.7824 8.41798 15.7278 8.41746C14.8252 8.41746 13.9613 8.58869 13.1629 8.90002C12.9191 8.99509 12.6453 8.96595 12.421 8.83109C11.9144 8.5338 10.8583 8.09922 9.51514 8.09516ZM19.7111 20.9066C19.4835 21.1112 19.1501 21.1948 18.8784 21.0538C18.6393 20.946 18.2882 20.5783 17.9691 20.0668C17.483 19.3033 17.0373 18.2557 16.7244 17.4094C16.4359 16.6336 16.2578 16.0327 16.2289 15.9353C16.2274 15.9302 16.2263 15.9265 16.2256 15.9242C16.225 15.9224 16.2244 15.9206 16.2238 15.9188C15.8368 14.3722 15.4411 12.9146 14.8484 11.6771C14.4412 10.827 14.7852 9.70412 15.7278 9.70222C19.1022 9.70922 21.8323 12.5576 21.8379 16.0779C21.8344 18.0099 21.0109 19.7382 19.7111 20.9066Z" fill="#1e66f5"/>
</svg>
