<svg width="33" height="33" viewBox="0 0 33 33" fill="none" xmlns="http://www.w3.org/2000/svg">
<path d="M16.779 6.25128C16.6927 5.2479 15.3448 4.98699 14.8903 5.88569L6.95413 21.5786C6.46171 22.5523 7.66255 23.4984 8.49404 22.7919L17.1476 15.4387C17.3942 15.2292 17.5241 14.9133 17.4964 14.5909L16.779 6.25128Z" fill="#1e66f5"/>
<path d="M22.8204 26.7309C23.9198 26.7309 24.2141 25.2148 23.1944 24.8035L12.721 20.579C12.3762 20.4399 11.9828 20.5036 11.6994 20.7442L6.72675 24.9688C6.01754 25.5713 6.44362 26.7309 7.3742 26.7309H22.8204Z" fill="#40a02b"/>
<path d="M26.3103 25.5381C27.1654 25.8836 27.9926 24.9857 27.5782 24.1617L19.3665 7.83102C18.8709 6.84547 17.3788 7.2705 17.477 8.36926L18.6833 21.8699C18.7167 22.2438 18.9567 22.5675 19.3048 22.7081L26.3103 25.5381Z" fill="#d20f39"/>
</svg>
