<svg width="33" height="33" viewBox="0 0 33 33" fill="none" xmlns="http://www.w3.org/2000/svg">
<path d="M24.7187 6.99976C25.9599 6.99976 26.9662 8.04791 26.9662 9.34089V15.442C26.9662 20.7706 22.8193 25.0903 17.7039 25.0903C13.0595 25.0903 9.21354 21.5296 8.54456 16.8861C8.49988 11.3555 8.49988 14.0352 8.49988 8.80882C8.73108 7.77218 9.62352 6.99976 10.689 6.99976H24.7187Z" stroke="#FE640B" stroke-width="2"/>
<mask id="mask0_145_476" style="mask-type:alpha" maskUnits="userSpaceOnUse" x="2" y="7" width="6" height="11">
<path d="M3.99998 8.19531H6.57251V16.2345H3.99998V8.19531Z" fill="#BAC2DE" stroke="#F38BA8" stroke-width="2.2969"/>
</mask>
<g mask="url(#mask0_145_476)">
<path d="M6.88525 16C5.2284 16 3.88525 14.6569 3.88525 13C3.88525 11.3431 5.2284 10 6.88525 10C8.54211 10 9.88525 11.3431 9.88525 13C9.88525 14.6569 8.54211 16 6.88525 16Z" stroke="#FE640B" stroke-width="2"/>
</g>
</svg>
