<svg width="33" height="33" viewBox="0 0 33 33" fill="none" xmlns="http://www.w3.org/2000/svg">
<path d="M25.2188 6.99976C26.4601 6.99976 27.4663 8.04791 27.4663 9.34089V15.442C27.4663 20.7706 23.3194 25.0903 18.2041 25.0903C13.5596 25.0903 9.71366 21.5296 9.04468 16.8861C9 11.3555 9 14.0352 9 8.80882C9.23121 7.77218 10.1236 6.99976 11.1892 6.99976H25.2188Z" stroke="#fe640b" stroke-width="3"/>
<mask id="mask0_2_299" style="mask-type:alpha" maskUnits="userSpaceOnUse" x="1" y="7" width="6" height="11">
<path d="M3.11473 8.19531H5.68726V16.2345H3.11473V8.19531Z" fill="#BAC2DE" stroke="#d20f39" stroke-width="2.2969"/>
</mask>
<g mask="url(#mask0_2_299)">
<path d="M6 16C4.34315 16 3 14.6569 3 13C3 11.3431 4.34315 10 6 10C7.65685 10 9 11.3431 9 13C9 14.6569 7.65685 16 6 16Z" stroke="#fe640b" stroke-width="2"/>
</g>
</svg>
