<svg width="33" height="33" viewBox="0 0 33 33" fill="none" xmlns="http://www.w3.org/2000/svg">
<path d="M18.4723 12.3357C18.8497 13.2633 18.0462 14.1557 17.0448 14.1557H16.8075C16.1102 14.1557 15.5597 13.6144 15.2189 13.0062V13.0062C15.031 12.6661 14.79 12.3768 14.4956 12.1383C14.2012 11.8998 13.8612 11.717 13.4755 11.5902C13.0948 11.4633 12.6812 11.3998 12.2346 11.3998C11.4276 11.3998 10.7247 11.6003 10.1258 12.0013C9.52695 12.3971 9.06257 12.9757 8.73268 13.737C8.4028 14.4932 8.23785 15.4119 8.23785 16.4929C8.23785 17.6043 8.4028 18.5381 8.73268 19.2944C9.06765 20.0506 9.53456 20.6215 10.1334 21.0072C10.7323 21.393 11.4251 21.5858 12.2117 21.5858C12.6533 21.5858 13.0618 21.5275 13.4374 21.4107C13.818 21.294 14.1555 21.1239 14.4499 20.9007C14.7443 20.6723 14.9879 20.3957 15.1808 20.0708V20.0708C15.5396 19.482 16.0941 18.9617 16.7836 18.9649L17.0166 18.9659C18.0337 18.9706 18.8299 19.8803 18.3993 20.8018C18.3612 20.8833 18.3212 20.9645 18.2792 21.0453C17.9392 21.705 17.4799 22.2963 16.9013 22.8191C16.3277 23.3367 15.6427 23.7479 14.8458 24.0523C14.0541 24.3518 13.1583 24.5016 12.1585 24.5016C10.7678 24.5016 9.52442 24.1869 8.42817 23.5575C7.33699 22.9282 6.47421 22.0172 5.83981 20.8245C5.21048 19.6319 4.89581 18.1879 4.89581 16.4929C4.89581 14.7926 5.21556 13.3462 5.85503 12.1535C6.49451 10.9608 7.36237 10.0524 8.45862 9.42811C9.55488 8.7988 10.7881 8.48413 12.1585 8.48413C13.0618 8.48413 13.8992 8.61102 14.6707 8.86477C15.4472 9.11853 16.1349 9.48902 16.7338 9.97624C17.3326 10.4584 17.8199 11.0497 18.1955 11.75C18.2976 11.9379 18.3899 12.1332 18.4723 12.3357Z" fill="#1E66F5"/>
<path d="M26.2989 12.5954C26.9716 12.5954 27.5169 13.1408 27.5169 13.8135V13.8135C27.5169 14.4862 26.9716 15.0315 26.2989 15.0315H21.5181C20.8454 15.0315 20.3 14.4862 20.3 13.8135V13.8135C20.3 13.1408 20.8454 12.5954 21.5181 12.5954H26.2989ZM23.5697 24.2888C22.6763 24.2888 21.952 23.5645 21.952 22.671V11.7504C21.952 10.9028 22.1169 10.1999 22.4469 9.64162C22.7819 9.08335 23.2386 8.66465 23.8172 8.3855C24.3957 8.10637 25.0529 7.9668 25.7889 7.9668C26.2863 7.9668 26.7405 8.00486 27.1515 8.08099V8.08099C27.6772 8.17715 27.9839 8.69259 27.8604 9.21246L27.6141 10.2499C27.5535 10.5049 27.2873 10.6572 27.0298 10.6085V10.6085C26.847 10.5729 26.6593 10.5552 26.4665 10.5552C25.9894 10.5552 25.6569 10.6668 25.4691 10.8901C25.2814 11.1084 25.1875 11.4154 25.1875 11.8113V22.671C25.1875 23.5645 24.4632 24.2888 23.5697 24.2888V24.2888Z" fill="#1E66F5"/>
</svg>
