<svg width="33" height="33" viewBox="0 0 33 33" fill="none" xmlns="http://www.w3.org/2000/svg">
<path d="M15.2282 3.97081C14.2185 3.60036 13.0876 3.79884 12.2644 4.49102L4.91896 10.6668C4.0994 11.3559 3.70922 12.4295 3.89515 13.484L5.56023 22.9271C5.74628 23.9822 6.48097 24.8581 7.48768 25.2249L16.4867 28.5035C17.4947 28.8708 18.6222 28.6717 19.4436 27.9815L26.7699 21.8252C27.5899 21.1361 27.9803 20.0622 27.7943 19.0075L26.1286 9.56048C25.943 8.50765 25.2111 7.63316 24.2075 7.26495L15.2282 3.97081Z" fill="#CDD6F4"/>
<path d="M4.70809 13.1067C4.21326 12.517 4.54237 11.6127 5.30048 11.4791L14.7411 9.81444C15.4992 9.68076 16.1178 10.4179 15.8545 11.1413L12.5758 20.1493C12.3125 20.8727 11.3649 21.0398 10.8701 20.4501L4.70809 13.1067Z" fill="#11111B"/>
</svg>
