<svg width="33" height="33" viewBox="0 0 33 33" fill="none" xmlns="http://www.w3.org/2000/svg">
<path d="M17.0323 11.6506C17.4097 12.5782 16.6063 13.4706 15.605 13.4706H15.3674C14.6703 13.4706 14.1199 12.9292 13.7789 12.3211V12.3211C13.5912 11.9811 13.3501 11.6918 13.0558 11.4532C12.7614 11.2147 12.4213 11.032 12.0356 10.9051C11.6549 10.7782 11.2413 10.7148 10.7948 10.7148C9.98774 10.7148 9.28483 10.9152 8.68595 11.3162C8.08707 11.7121 7.62269 12.2906 7.2928 13.0519C6.96292 13.8081 6.79797 14.7267 6.79797 15.8077C6.79797 16.9193 6.96292 17.853 7.2928 18.6093C7.62777 19.3655 8.09468 19.9365 8.69356 20.3221C9.29244 20.7079 9.98521 20.9008 10.7718 20.9008C11.2135 20.9008 11.622 20.8424 11.9975 20.7257C12.3782 20.609 12.7157 20.439 13.0101 20.2156C13.3044 19.9872 13.548 19.7106 13.7408 19.3858V19.3858C14.0997 18.797 14.6541 18.2766 15.3437 18.2797L15.5767 18.2808C16.5938 18.2855 17.3901 19.1953 16.9593 20.1167C16.9212 20.1982 16.8812 20.2794 16.8393 20.3602C16.4992 21.0201 16.0399 21.6113 15.4613 22.134C14.8879 22.6517 14.2027 23.0628 13.4059 23.3674C12.6141 23.6667 11.7185 23.8165 10.7185 23.8165C9.32797 23.8165 8.08454 23.5017 6.98829 22.8724C5.89711 22.2431 5.03433 21.3321 4.39993 20.1395C3.7706 18.9468 3.45593 17.5029 3.45593 15.8077C3.45593 14.1076 3.77568 12.6611 4.41515 11.4684C5.05464 10.2758 5.92249 9.36731 7.01874 8.74306C8.115 8.11372 9.34827 7.79907 10.7185 7.79907C11.622 7.79907 12.4594 7.92594 13.2307 8.17971C14.0073 8.43347 14.6951 8.80397 15.2939 9.29118C15.8928 9.77333 16.38 10.3646 16.7555 11.065C16.8576 11.2529 16.9499 11.4481 17.0323 11.6506Z" fill="#179299"/>
<path d="M25.286 22.2231C24.7164 22.2231 24.2826 21.7124 24.3748 21.1503L26.0368 11.0204C26.11 10.5742 26.4957 10.2466 26.9479 10.2466V10.2466C27.5175 10.2466 27.9513 10.7573 27.8591 11.3194L26.1972 21.4493C26.1239 21.8955 25.7382 22.2231 25.286 22.2231V22.2231ZM19.9396 19.2524C19.3619 19.2524 18.9222 18.7339 19.0166 18.1639V18.1639C19.0914 17.7123 19.4819 17.3811 19.9396 17.3811H27.3997C27.9774 17.3811 28.4171 17.8996 28.3227 18.4696V18.4696C28.2479 18.9212 27.8574 19.2524 27.3997 19.2524H19.9396ZM21.0755 22.2231C20.5059 22.2231 20.0721 21.7124 20.1643 21.1503L21.8263 11.0204C21.8995 10.5742 22.2852 10.2466 22.7374 10.2466V10.2466C23.307 10.2466 23.7408 10.7573 23.6486 11.3194L21.9867 21.4493C21.9134 21.8955 21.5277 22.2231 21.0755 22.2231V22.2231ZM20.6273 15.0886C20.0484 15.0886 19.6084 14.5682 19.7047 13.9974V13.9974C19.7806 13.547 20.1706 13.2173 20.6273 13.2173H28.0862C28.6652 13.2173 29.1052 13.7378 29.0088 14.3087V14.3087C28.9328 14.759 28.5429 15.0886 28.0862 15.0886H20.6273Z" fill="#179299"/>
</svg>
