<svg width="33" height="33" viewBox="0 0 33 33" fill="none" xmlns="http://www.w3.org/2000/svg">
<path d="M14.9716 12.5966C15.3018 13.4082 14.5988 14.1891 13.7226 14.1891H13.5149C12.9049 14.1891 12.4232 13.7154 12.1249 13.1833C11.9606 12.8858 11.7497 12.6327 11.4921 12.4239C11.2345 12.2152 10.937 12.0554 10.5995 11.9443C10.2664 11.8333 9.9045 11.7778 9.5137 11.7778C8.80763 11.7778 8.19256 11.9532 7.66854 12.304C7.14453 12.6504 6.7382 13.1567 6.44954 13.8228C6.1609 14.4844 6.01657 15.2882 6.01657 16.2342C6.01657 17.2068 6.1609 18.0238 6.44954 18.6856C6.74264 19.3472 7.1512 19.8468 7.6752 20.1843C8.19922 20.5218 8.8054 20.6905 9.49373 20.6905C9.88007 20.6905 10.2376 20.6395 10.5662 20.5374C10.8992 20.4351 11.1946 20.2864 11.4521 20.0911C11.7097 19.8912 11.9228 19.6492 12.0916 19.365C12.4055 18.8497 12.8908 18.3944 13.4942 18.3971L13.698 18.3981C14.5879 18.4021 15.2847 19.1981 14.9078 20.0043C14.8744 20.0757 14.8394 20.1468 14.8027 20.2176C14.5052 20.7949 14.1033 21.3122 13.5971 21.7696C13.0952 22.2227 12.4957 22.5823 11.7985 22.8488C11.1057 23.1108 10.3219 23.2418 9.4471 23.2418C8.23031 23.2418 7.14232 22.9664 6.1831 22.4157C5.22831 21.8652 4.47338 21.068 3.91828 20.0243C3.36761 18.9809 3.09229 17.7174 3.09229 16.2342C3.09229 14.7465 3.37206 13.4809 3.9316 12.4373C4.49114 11.3937 5.25053 10.5988 6.20973 10.0525C7.16895 9.50189 8.24807 9.22656 9.4471 9.22656C10.2376 9.22656 10.9703 9.33758 11.6453 9.55962C12.3248 9.78167 12.9265 10.1058 13.4505 10.5322C13.9745 10.954 14.4008 11.4714 14.7295 12.0842C14.8188 12.2486 14.8995 12.4194 14.9716 12.5966Z" fill="#179299"/>
<path d="M17.4368 11.4946C16.9118 10.5641 17.5841 9.41284 18.6525 9.41284C19.1695 9.41284 19.6442 9.69861 19.8861 10.1555L22.5726 15.2291C22.5918 15.2653 22.6294 15.288 22.6703 15.288C22.7113 15.288 22.7489 15.2653 22.7681 15.2291L25.4544 10.1556C25.6964 9.69863 26.1711 9.41284 26.6881 9.41284C27.7566 9.41284 28.4289 10.5642 27.9039 11.4947L24.4897 17.5461C24.2359 17.996 24.1025 18.5037 24.1025 19.0202V21.6228C24.1025 22.4138 23.4613 23.055 22.6703 23.055C21.8794 23.055 21.2382 22.4138 21.2382 21.6228V19.0202C21.2382 18.5037 21.1048 17.996 20.851 17.5461L17.4368 11.4946Z" fill="#179299"/>
</svg>
