<svg width="33" height="33" viewBox="0 0 33 33" fill="none" xmlns="http://www.w3.org/2000/svg">
<path fill-rule="evenodd" clip-rule="evenodd" d="M18.7714 4.96786L22.7323 9.09382L8.4155 8.30125L15.7263 4.49268C16.0582 4.28523 16.5723 4.17529 17.0966 4.17529C17.7059 4.17529 18.4259 4.60615 18.7714 4.96786ZM8.41382 21.1525C8.41382 22.4256 8.56701 22.7377 9.17468 23.3743L9.78405 24.0089L13.8965 28.2927H23.4932L23.4933 24.0089L16.7919 16.0762L8.41382 8.30127V21.1525Z" fill="#74C7EC"/>
<path fill-rule="evenodd" clip-rule="evenodd" d="M8.41331 8.29907H20.5991C21.4382 8.29907 22.0459 8.37709 22.7302 9.09165L27.6051 14.1698V24.0067H23.4928L8.41331 8.29907ZM5.21326 19.2478L9.17418 23.3738L8.41331 8.3008L4.75707 16.2336C4.62601 16.5208 4.45239 17.0226 4.45239 17.3435C4.45239 18.0367 4.74346 18.7461 5.21326 19.2478Z" fill="#7F849C"/>
</svg>
