<svg width="33" height="33" viewBox="0 0 33 33" fill="none" xmlns="http://www.w3.org/2000/svg">
<path d="M6.74976 8.99903C6.74976 8.1663 7.12997 7.43941 7.68338 6.85288C8.23226 6.27116 8.98425 5.78832 9.84484 5.40254C11.5681 4.63003 13.8853 4.17554 16.3967 4.17554C18.908 4.17554 21.2253 4.63003 22.9486 5.40254C23.8092 5.78832 24.5612 6.27116 25.1101 6.85288C25.6635 7.43941 26.0437 8.1663 26.0437 8.99903V23.4695C26.0437 24.3022 25.6635 25.0292 25.1101 25.6157C24.5612 26.1974 23.8092 26.6802 22.9486 27.0659C21.2253 27.8385 18.908 28.293 16.3967 28.293C13.8853 28.293 11.5681 27.8385 9.84484 27.0659C8.98425 26.6802 8.23226 26.1974 7.68338 25.6157C7.12997 25.0292 6.74976 24.3022 6.74976 23.4695V8.99903ZM8.55856 8.99903C8.55856 9.24854 8.66763 9.55263 8.99902 9.90385C9.33493 10.2599 9.86326 10.6215 10.5848 10.945C12.0257 11.5909 14.0797 12.0137 16.3967 12.0137C18.7138 12.0137 20.7678 11.5909 22.2086 10.945C22.9302 10.6215 23.4586 10.2599 23.7945 9.90385C24.1258 9.55263 24.2349 9.24854 24.2349 8.99903C24.2349 8.74952 24.1258 8.44542 23.7945 8.09421C23.4586 7.73818 22.9302 7.37651 22.2086 7.05308C20.7678 6.40716 18.7138 5.98435 16.3967 5.98435C14.0797 5.98435 12.0257 6.40716 10.5848 7.05308C9.86326 7.37651 9.33493 7.73818 8.99902 8.09421C8.66763 8.44542 8.55856 8.74952 8.55856 8.99903ZM24.2349 11.884C23.848 12.1498 23.4142 12.3868 22.9486 12.5955C21.2253 13.368 18.908 13.8225 16.3967 13.8225C13.8853 13.8225 11.5681 13.368 9.84484 12.5955C9.37932 12.3868 8.94558 12.1498 8.55856 11.884V23.4695C8.55856 23.719 8.66763 24.0231 8.99902 24.3743C9.33493 24.7303 9.86326 25.0921 10.5848 25.4154C12.0257 26.0615 14.0797 26.4842 16.3967 26.4842C18.7138 26.4842 20.7678 26.0615 22.2086 25.4154C22.9302 25.0921 23.4586 24.7303 23.7945 24.3743C24.1258 24.0231 24.2349 23.719 24.2349 23.4695V11.884Z" fill="#d20f39"/>
<path fill-rule="evenodd" clip-rule="evenodd" d="M9.70856 5.09639C11.4841 4.30045 13.8501 3.84009 16.3975 3.84009C18.9448 3.84009 21.3107 4.30045 23.0863 5.09639C23.9728 5.49374 24.7661 5.99899 25.3546 6.6225C25.9488 7.25235 26.3794 8.05755 26.3794 8.99854V23.469C26.3794 24.4101 25.9488 25.2153 25.3546 25.8451C24.7662 26.4686 23.9728 26.9739 23.0863 27.3712C21.3107 28.1671 18.9448 28.6275 16.3975 28.6275C13.8501 28.6275 11.4841 28.1671 9.70856 27.3712C8.82221 26.9739 8.0288 26.4686 7.44048 25.8451C6.84621 25.2153 6.41553 24.4101 6.41553 23.469V8.99854C6.41553 8.05755 6.84621 7.25235 7.44048 6.62252C8.0288 5.99899 8.82222 5.49373 9.70856 5.09639ZM9.24339 9.67348C9.53988 9.98772 10.0268 10.3269 10.7225 10.6388C12.1112 11.2613 14.1165 11.6783 16.3975 11.6783C18.6784 11.6783 20.6838 11.2613 22.0724 10.6388C22.7681 10.3269 23.2551 9.98772 23.5516 9.67348C23.8413 9.36651 23.9007 9.14075 23.9007 8.99854C23.9007 8.85633 23.8413 8.63058 23.5516 8.3236C23.2551 8.00937 22.7681 7.67014 22.0724 7.35826C20.6838 6.73578 18.6784 6.31883 16.3975 6.31883C14.1165 6.31883 12.1112 6.73578 10.7225 7.35826C10.0268 7.67014 9.53988 8.00937 9.24339 8.3236C8.95371 8.6306 8.89426 8.85636 8.89426 8.99854C8.89426 9.14073 8.95371 9.36648 9.24339 9.67348ZM23.7952 8.09372C24.1266 8.44494 24.2356 8.74903 24.2356 8.99854C24.2356 9.24805 24.1266 9.55215 23.7952 9.90336C23.4593 10.2594 22.9309 10.621 22.2094 10.9445C20.7685 11.5904 18.7145 12.0132 16.3975 12.0132C14.0805 12.0132 12.0264 11.5904 10.5855 10.9445C9.864 10.621 9.33567 10.2594 8.99975 9.90336C8.66837 9.55215 8.5593 9.24805 8.5593 8.99854C8.5593 8.74903 8.66837 8.44494 8.99975 8.09372C9.33567 7.7377 9.864 7.37603 10.5855 7.0526C12.0264 6.40668 14.0805 5.98386 16.3975 5.98386C18.7145 5.98386 20.7685 6.40668 22.2094 7.0526C22.9309 7.37603 23.4593 7.7377 23.7952 8.09372ZM9.84558 27.0655C8.98499 26.6797 8.23299 26.197 7.68412 25.6152C7.1307 25.0287 6.75049 24.3017 6.75049 23.469V8.99854C6.75049 8.16582 7.1307 7.43892 7.68412 6.8524C8.23299 6.27067 8.98499 5.78784 9.84558 5.40205C11.5689 4.62955 13.886 4.17505 16.3975 4.17505C18.9088 4.17505 21.2261 4.62955 22.9494 5.40205C23.81 5.78784 24.5619 6.27067 25.1108 6.8524C25.6642 7.43892 26.0445 8.16582 26.0445 8.99854V23.469C26.0445 24.3017 25.6642 25.0287 25.1108 25.6152C24.5619 26.197 23.81 26.6797 22.9494 27.0655C21.2261 27.838 18.9088 28.2925 16.3975 28.2925C13.886 28.2925 11.5689 27.838 9.84558 27.0655ZM9.24341 24.1439C9.53988 24.4582 10.0268 24.7973 10.7225 25.1093C12.1111 25.7318 14.1165 26.1487 16.3975 26.1487C18.6784 26.1487 20.6838 25.7318 22.0724 25.1093C22.7681 24.7973 23.2551 24.4582 23.5516 24.1439C23.8412 23.8371 23.9007 23.6112 23.9007 23.469V12.4883C23.6414 12.6367 23.3689 12.774 23.0863 12.9007C21.3107 13.6966 18.9448 14.157 16.3975 14.157C13.8501 14.157 11.4841 13.6966 9.70856 12.9007C9.42605 12.774 9.15349 12.6367 8.89426 12.4883V23.469C8.89426 23.6112 8.95375 23.8369 9.24341 24.1439ZM8.5593 11.8835C8.66743 11.9577 8.77918 12.0297 8.89426 12.0995C9.19114 12.2795 9.5101 12.4446 9.84558 12.595C11.5689 13.3675 13.886 13.822 16.3975 13.822C18.9088 13.822 21.2261 13.3675 22.9494 12.595C23.2849 12.4446 23.6038 12.2795 23.9007 12.0995C24.0158 12.0298 24.1275 11.9578 24.2356 11.8835V23.469C24.2356 23.7185 24.1266 24.0226 23.7952 24.3738C23.4593 24.7298 22.9309 25.0914 22.2094 25.4149C20.7685 26.061 18.7145 26.4837 16.3975 26.4837C14.0805 26.4837 12.0264 26.061 10.5855 25.4149C9.864 25.0914 9.33567 24.7298 8.99975 24.3738C8.66837 24.0226 8.5593 23.7185 8.5593 23.469V11.8835Z" fill="#d20f39"/>
</svg>
