<svg width="33" height="33" viewBox="0 0 33 33" fill="none" xmlns="http://www.w3.org/2000/svg">
<path d="M29.3454 14.2644C29.2727 14.2055 28.5942 13.6826 27.1635 13.6826V13.6826C26.5431 13.6852 25.9762 13.262 25.7192 12.6973C25.1694 11.489 24.1753 10.8905 24.1196 10.857V10.857C23.9035 10.7298 23.6235 10.7956 23.4826 11.0031V11.0031C23.1662 11.5031 22.9352 12.0542 22.7996 12.6331C22.711 13.0157 22.6716 13.3901 22.6809 13.7531C22.7089 14.8556 22.4052 16.103 21.3031 16.1454V16.1454H3.65132C3.19026 16.1459 2.81615 16.5263 2.81363 16.9969C2.79303 18.5754 3.05503 20.1445 3.58671 21.6269C4.19478 23.2546 5.09941 24.4536 6.27636 25.1873C7.59521 26.0118 9.73792 26.4829 12.1668 26.4829C13.264 26.4864 14.3593 26.3851 15.438 26.1803C16.9376 25.8992 18.3806 25.3642 19.7073 24.5972C20.8004 23.951 21.7842 23.129 22.6207 22.1627C23.9527 20.6238 24.7718 18.9181 25.3819 17.3774C25.4367 17.239 25.57 17.1476 25.7189 17.1476V17.1476C27.25 17.1476 28.1916 16.5222 28.7108 15.9981C29.0559 15.6638 29.3252 15.2567 29.5001 14.805L29.5019 14.7995C29.5667 14.6059 29.5043 14.3925 29.3454 14.2644V14.2644Z" fill="#1E66F5"/>
<path d="M5.28704 15.6178H7.65244C7.76652 15.6178 7.85897 15.5233 7.85897 15.4069V13.2562C7.85961 13.1397 7.76765 13.0448 7.65361 13.0442C7.65399 13.0442 7.65323 13.0442 7.65361 13.0442H5.28704C5.17296 13.0442 5.08051 13.1386 5.08051 13.255V15.4069C5.08051 15.5233 5.17296 15.6178 5.28704 15.6178Z" fill="#1E66F5"/>
<path d="M8.54721 15.6178H10.9126C11.0267 15.6178 11.1191 15.5233 11.1191 15.4069V13.2562C11.1198 13.1397 11.0278 13.0448 10.9137 13.0442C10.9141 13.0442 10.9134 13.0442 10.9137 13.0442H8.54717C8.43245 13.0442 8.33948 13.1391 8.33948 13.2562V15.4069C8.34015 15.5234 8.43293 15.6178 8.54721 15.6178Z" fill="#1E66F5"/>
<path d="M11.8565 15.6175H14.2219C14.3359 15.6175 14.4284 15.5231 14.4284 15.4066V13.2559C14.429 13.1395 14.3371 13.0446 14.223 13.0439C14.2232 13.0439 14.2226 13.0439 14.223 13.0439H11.8564C11.7424 13.0439 11.6499 13.1383 11.6499 13.2547V15.4066C11.6499 15.5231 11.7424 15.6175 11.8565 15.6175Z" fill="#1E66F5"/>
<path d="M15.1275 15.6175H17.4929C17.6072 15.6175 17.6999 15.5233 17.7006 15.4066V13.2559C17.7006 13.1388 17.6076 13.0439 17.4929 13.0439H15.1275C15.0133 13.0439 14.9209 13.1383 14.9209 13.2547V15.4066C14.9209 15.5231 15.0133 15.6175 15.1275 15.6175Z" fill="#1E66F5"/>
<path d="M8.54717 12.5242H10.9126C11.0268 12.5235 11.1191 12.4288 11.1191 12.3122V10.1615C11.1191 10.045 11.0266 9.95068 10.9126 9.95068H8.54717C8.43293 9.95068 8.34012 10.0448 8.33948 10.1615V12.3122C8.34012 12.429 8.43271 12.5235 8.54717 12.5242Z" fill="#1E66F5"/>
<path d="M11.8564 12.5242H14.2219C14.336 12.5235 14.4283 12.4288 14.4283 12.3122V10.1615C14.4283 10.045 14.3359 9.95068 14.2219 9.95068H11.8564C11.7424 9.95068 11.6499 10.0451 11.6499 10.1615V12.3122C11.6499 12.4288 11.7422 12.5235 11.8564 12.5242Z" fill="#1E66F5"/>
<path d="M15.1275 12.5242H17.4929C17.6073 12.5235 17.6999 12.429 17.7006 12.3122V10.1615C17.6999 10.0448 17.6072 9.95068 17.4929 9.95068H15.1275C15.0133 9.95068 14.9209 10.0451 14.9209 10.1615V12.3122C14.9209 12.4288 15.0132 12.5235 15.1275 12.5242Z" fill="#1E66F5"/>
<path d="M15.1275 9.4285H17.4929C17.6072 9.4285 17.6999 9.33428 17.7006 9.21769V7.06579C17.6999 6.94915 17.6072 6.85498 17.4929 6.85498H15.1275C15.0133 6.85498 14.9209 6.94935 14.9209 7.06579V9.21765C14.9209 9.33409 15.0133 9.4285 15.1275 9.4285Z" fill="#1E66F5"/>
<path d="M18.4254 15.6178H20.7907C20.905 15.6178 20.9978 15.5236 20.9984 15.4069V13.2562C20.9984 13.1391 20.9054 13.0442 20.7907 13.0442H18.4254C18.3113 13.0442 18.2188 13.1386 18.2188 13.255V15.4069C18.2188 15.5233 18.3113 15.6178 18.4254 15.6178Z" fill="#1E66F5"/>
</svg>
