<svg width="33" height="33" viewBox="0 0 33 33" fill="none" xmlns="http://www.w3.org/2000/svg">
<path d="M20.2545 5.00195H12.2153C11.4754 5.00195 10.8755 5.60183 10.8755 6.34181V11.7012C10.8755 12.4412 11.4754 13.0411 12.2153 13.0411H20.2545C20.9945 13.0411 21.5944 12.4412 21.5944 11.7012V6.34181C21.5944 5.60183 20.9945 5.00195 20.2545 5.00195Z" fill="#DF8E1D"/>
<path d="M13.5558 19.741H5.51662C4.77663 19.741 4.17676 20.3408 4.17676 21.0808V26.4403C4.17676 27.1802 4.77663 27.7801 5.51662 27.7801H13.5558C14.2957 27.7801 14.8956 27.1802 14.8956 26.4403V21.0808C14.8956 20.3408 14.2957 19.741 13.5558 19.741Z" fill="#DF8E1D"/>
<path d="M26.9547 19.7407H18.9155C18.1756 19.7407 17.5757 20.3406 17.5757 21.0806V26.44C17.5757 27.18 18.1756 27.7799 18.9155 27.7799H26.9547C27.6947 27.7799 28.2945 27.18 28.2945 26.44V21.0806C28.2945 20.3406 27.6947 19.7407 26.9547 19.7407Z" fill="#DF8E1D"/>
<path d="M9.01025 23.123L16.5897 9.99512" stroke="#DF8E1D" stroke-width="3.44535"/>
<path d="M23.4609 23.1226L15.8816 9.9947" stroke="#DF8E1D" stroke-width="3.44535"/>
</svg>
