<svg width="33" height="33" viewBox="0 0 33 33" fill="none" xmlns="http://www.w3.org/2000/svg">
<path d="M20.7547 5.00195H12.7156C11.9756 5.00195 11.3757 5.60183 11.3757 6.34181V11.7012C11.3757 12.4412 11.9756 13.0411 12.7156 13.0411H20.7547C21.4947 13.0411 22.0946 12.4412 22.0946 11.7012V6.34181C22.0946 5.60183 21.4947 5.00195 20.7547 5.00195Z" fill="#F9E2AF"/>
<path d="M14.056 19.741H6.01686C5.27688 19.741 4.677 20.3408 4.677 21.0808V26.4403C4.677 27.1802 5.27688 27.7801 6.01686 27.7801H14.056C14.796 27.7801 15.3959 27.1802 15.3959 26.4403V21.0808C15.3959 20.3408 14.796 19.741 14.056 19.741Z" fill="#F9E2AF"/>
<path d="M27.4547 19.7407H19.4155C18.6756 19.7407 18.0757 20.3406 18.0757 21.0806V26.44C18.0757 27.18 18.6756 27.7799 19.4155 27.7799H27.4547C28.1947 27.7799 28.7945 27.18 28.7945 26.44V21.0806C28.7945 20.3406 28.1947 19.7407 27.4547 19.7407Z" fill="#F9E2AF"/>
<path d="M9.51025 23.123L17.0897 9.99512" stroke="#F9E2AF" stroke-width="3.44535"/>
<path d="M23.9609 23.1226L16.3816 9.9947" stroke="#F9E2AF" stroke-width="3.44535"/>
</svg>
