<svg width="33" height="33" viewBox="0 0 33 33" fill="none" xmlns="http://www.w3.org/2000/svg">
<path d="M4.13446 12.4957C4.13446 12.8657 4.43439 13.1657 4.80439 13.1657H8.31104V23.7599C8.31104 24.1298 8.61098 24.4298 8.98097 24.4298H11.832C12.202 24.4298 12.5019 24.1298 12.5019 23.7599V13.1657H16.0086C16.3785 13.1657 16.6785 12.8657 16.6785 12.4957V10.1177C16.6785 9.74768 16.3785 9.44774 16.0086 9.44774H4.80439C4.43439 9.44774 4.13446 9.74768 4.13446 10.1177V12.4957ZM25.9276 14.1073C25.9616 14.45 26.2498 14.711 26.5941 14.711H29.3587C29.5382 14.711 29.7103 14.6389 29.8362 14.511C29.9621 14.3829 30.0314 14.2098 30.0285 14.0301C30.0132 13.0983 29.7613 12.2532 29.2589 11.5182C28.7604 10.789 28.0695 10.2325 27.2126 9.84154C26.3532 9.44734 25.3707 9.26123 24.2828 9.26123C23.2097 9.26123 22.2267 9.4483 21.3469 9.83825C20.4707 10.2266 19.7571 10.7786 19.2311 11.5024L19.2293 11.505C18.6959 12.2464 18.4392 13.108 18.4437 14.0613C18.4392 15.2324 18.8322 16.226 19.6598 16.9655C20.4299 17.6533 21.4472 18.1307 22.6698 18.4284C22.6706 18.4286 22.6714 18.4289 22.6722 18.429L24.1529 18.8009L24.1591 18.8024C24.6325 18.9166 25.0139 19.0392 25.3111 19.1666L25.314 19.1678C25.5981 19.288 25.7613 19.4126 25.8509 19.5179L25.8563 19.5241C25.9203 19.5975 25.9643 19.6934 25.9643 19.8563C25.9643 20.0375 25.9132 20.1814 25.8086 20.3139C25.6968 20.4555 25.5216 20.5898 25.2449 20.6978L25.2424 20.6988C24.9785 20.8029 24.6417 20.8651 24.2162 20.8651C23.7885 20.8651 23.4265 20.8005 23.1206 20.6844C22.8336 20.5694 22.6239 20.4109 22.4698 20.215C22.333 20.0315 22.2372 19.782 22.2133 19.4313C22.1895 19.0798 21.8974 18.8068 21.545 18.8068H18.754C18.5736 18.8068 18.4009 18.8794 18.275 19.0083C18.1489 19.1374 18.0801 19.3115 18.0842 19.4919C18.1087 20.574 18.3726 21.5305 18.9127 22.3248L18.9157 22.3289C19.453 23.1064 20.195 23.6835 21.1149 24.0655C22.0305 24.4436 23.0812 24.623 24.2495 24.623C25.4238 24.623 26.4657 24.4472 27.3552 24.0703L27.3569 24.0695C28.2447 23.6905 28.9574 23.1433 29.4581 22.4136C29.965 21.6769 30.21 20.8185 30.2151 19.8667L30.215 19.8578C30.21 19.2111 30.0909 18.6107 29.8408 18.0712C29.602 17.5467 29.2641 17.0899 28.8316 16.7049C28.4103 16.33 27.9198 16.021 27.3668 15.7742C26.8257 15.5325 26.238 15.3421 25.6063 15.2003L24.3853 14.9084L24.3759 14.9061C24.1042 14.8454 23.8524 14.7733 23.6195 14.6906C23.3994 14.6082 23.216 14.517 23.0648 14.4201C22.9387 14.3354 22.8529 14.2457 22.7938 14.1542C22.7619 14.1 22.736 14.0214 22.7407 13.8924C22.741 13.8842 22.7411 13.876 22.7411 13.868C22.7411 13.7147 22.7817 13.5928 22.8628 13.4806C22.9481 13.3683 23.0865 13.2568 23.3178 13.165L23.325 13.162C23.546 13.0713 23.8512 13.0125 24.2628 13.0125C24.8659 13.0125 25.2584 13.1424 25.5109 13.3283C25.7496 13.5041 25.8914 13.7426 25.9276 14.1073Z" fill="#1E66F5"/>
</svg>
