<svg width="33" height="33" viewBox="0 0 33 33" fill="none" xmlns="http://www.w3.org/2000/svg">
<path d="M17.0433 11.4263L14.2373 16.2965H14.2183L11.4407 11.4738L17.0433 11.4263Z" fill="#9DDC83" stroke="#9DDC83" stroke-width="0.163067" stroke-miterlimit="5.3333"/>
<mask id="mask0_2_380" style="mask-type:luminance" maskUnits="userSpaceOnUse" x="3" y="5" width="16" height="8">
<path d="M18.9544 12.3031H3.88696V5.6731H18.9544V12.3031Z" fill="#CDD6F4"/>
</mask>
<g mask="url(#mask0_2_380)">
<g opacity="0.83">
<path d="M17.0693 11.3988L17.0598 11.4178H17.0503V11.4274L11.4381 11.4749V11.4654H5.81636L5.77832 11.3988L8.60345 6.50952H14.2537L17.0693 11.3988Z" fill="#3FAB03" fill-opacity="0.6471"/>
</g>
</g>
<path d="M17.0556 11.4187L14.2495 16.2889H14.24L17.0461 11.4187H17.0556Z" fill="#CDD6F4"/>
<path d="M14.2527 16.3589L14.2431 16.378L11.4276 21.2484H5.7868L2.96167 16.3589L5.7868 11.4697H5.81534L8.59291 16.2924H14.2146L14.2527 16.3589Z" fill="#02A2C0" stroke="#02A2C0" stroke-width="0.163067" stroke-miterlimit="5.3333"/>
<path d="M14.2147 16.2915H8.60251L5.81543 11.4688H11.4372L14.2147 16.2915Z" fill="#3BE7E7" stroke="#3BE7E7" stroke-width="0.163067" stroke-miterlimit="5.3333"/>
<path d="M17.0841 21.1279L17.1317 21.204H17.046L14.9058 21.2231L11.4338 21.2516L14.2495 16.3813H19.8331L17.0841 21.1279Z" fill="#32E6FF" stroke="#32E6FF" stroke-width="0.163067" stroke-miterlimit="5.3333"/>
<mask id="mask1_2_380" style="mask-type:luminance" maskUnits="userSpaceOnUse" x="9" y="14" width="13" height="14">
<path d="M21.3899 27.7968H9.98462V14.7461H21.3899V27.7968Z" fill="#CDD6F4"/>
</mask>
<g mask="url(#mask1_2_380)">
<g opacity="0.86">
<path d="M19.9663 26.0204L19.8807 26.1631H14.2399L11.4148 21.2738L11.4243 21.2548L14.2399 16.3845H14.2494L11.4338 21.2453L14.9058 21.2167L17.0556 21.1977H17.1412L19.9092 26.0204H19.9663Z" fill="#00D5FF" fill-opacity="0.5451"/>
</g>
</g>
<path d="M17.0849 21.1279L17.1324 21.204H17.0468L14.2693 16.3813H19.8339L17.0849 21.1279Z" fill="#1AD2EA" stroke="#1AD2EA" stroke-width="0.163067" stroke-miterlimit="5.3333"/>
<path d="M22.668 21.2042H17.1318L17.0842 21.1281L19.8237 16.3813H19.8808L22.668 21.2042Z" fill="#1BDFEE" stroke="#1BDFEE" stroke-width="0.163067" stroke-miterlimit="5.3333"/>
<mask id="mask2_2_380" style="mask-type:luminance" maskUnits="userSpaceOnUse" x="16" y="20" width="8" height="7">
<path d="M23.6439 26.8272H16.2053V20.4065H23.6439V26.8272Z" fill="#CDD6F4"/>
</mask>
<g mask="url(#mask2_2_380)">
<g opacity="0.95">
<path d="M22.7076 21.2718L19.9681 26.0185H19.9111L17.1335 21.2053H22.6697L22.7076 21.2718Z" fill="#29D1FF" fill-opacity="0.8"/>
</g>
</g>
<path d="M25.5212 16.3122L22.6961 21.2015H22.6676L19.8901 16.3788H14.2683L14.2302 16.3122L14.2397 16.2932L17.0459 11.4228V11.4133H22.6961L25.4736 16.2266L25.5212 16.3122Z" fill="#16C78E" stroke="#16C78E" stroke-width="0.163067" stroke-miterlimit="5.3333"/>
<mask id="mask3_2_380" style="mask-type:luminance" maskUnits="userSpaceOnUse" x="18" y="14" width="12" height="14">
<path d="M29.758 27.7975H18.467V14.6611H29.758V27.7975Z" fill="#CDD6F4"/>
</mask>
<g mask="url(#mask3_2_380)">
<g opacity="0.85">
<path d="M28.3407 21.1976L25.5156 26.0869L19.8748 26.163L22.6714 21.3403L22.6334 21.2737H22.6619L25.487 16.3845L25.4395 16.3083H25.5251L28.3407 21.1976Z" fill="#32F6B8" fill-opacity="0.5647"/>
</g>
</g>
</svg>
