<svg width="34" height="33" viewBox="0 0 34 33" fill="none" xmlns="http://www.w3.org/2000/svg">
<path d="M16.0423 10.5224L12.5423 12.4315C11.8998 12.7819 11.5 13.4554 11.5 14.1873V18.3127C11.5 19.0446 11.8998 19.7181 12.5423 20.0685L16.0423 21.9776C16.6393 22.3032 17.3607 22.3032 17.9577 21.9776L21.4577 20.0685C22.1002 19.7181 22.5 19.0446 22.5 18.3127V14.1873C22.5 13.4554 22.1002 12.7819 21.4577 12.4315L17.9577 10.5224C17.3607 10.1968 16.6393 10.1968 16.0423 10.5224Z" fill="#B8C1F9"/>
<mask id="mask0_2_425" style="mask-type:alpha" maskUnits="userSpaceOnUse" x="3" y="4" width="28" height="24">
<path d="M8.56809 6.55698L4.42694 13.9519C3.54533 15.5262 3.58031 17.4534 4.51848 18.9946L8.53897 25.5997C9.44626 27.0903 11.065 28 12.81 28H21.19C22.935 28 24.5537 27.0903 25.461 25.5997L29.4815 18.9946C30.4197 17.4534 30.4547 15.5262 29.5731 13.9519L25.4319 6.55698C24.5477 4.97795 22.8791 4 21.0694 4H12.9306C11.1209 4 9.45235 4.97795 8.56809 6.55698Z" fill="#1e66f5"/>
</mask>
<g mask="url(#mask0_2_425)">
<mask id="path-3-outside-1_2_425" maskUnits="userSpaceOnUse" x="-2.1377" y="-3.50024" width="38" height="40" fill="black">
<rect fill="white" x="-2.1377" y="-3.50024" width="38" height="40"/>
<path d="M15.7572 8.81668L11.215 11.2943C10.3811 11.7491 9.8623 12.6231 9.8623 13.5729V18.9268C9.8623 19.8767 10.3811 20.7506 11.215 21.2055L15.7572 23.683C16.5319 24.1056 17.4683 24.1056 18.243 23.683L22.7852 21.2055C23.619 20.7506 24.1379 19.8767 24.1379 18.9268V13.5729C24.1379 12.6231 23.619 11.7491 22.7852 11.2943L18.243 8.81668C17.4683 8.39411 16.5319 8.39411 15.7572 8.81668Z"/>
</mask>
<path d="M11.215 11.2943L16.808 21.5481L16.808 21.5481L11.215 11.2943ZM15.7572 8.81668L21.3502 19.0705L15.7572 8.81668ZM18.243 8.81668L23.836 -1.43713L23.836 -1.43713L18.243 8.81668ZM22.7852 11.2943L28.3782 1.04044L22.7852 11.2943ZM22.7852 21.2055L28.3782 31.4593L28.3782 31.4593L22.7852 21.2055ZM18.243 23.683L23.8359 33.9368L23.836 33.9368L18.243 23.683ZM15.7572 23.683L21.3502 13.4292L21.3502 13.4292L15.7572 23.683ZM11.215 21.2055L16.808 10.9516L16.808 10.9516L11.215 21.2055ZM16.808 21.5481L21.3502 19.0705L10.1642 -1.43713L5.62198 1.04044L16.808 21.5481ZM12.65 19.0705L17.1922 21.5481L28.3782 1.04044L23.836 -1.43713L12.65 19.0705ZM12.4579 13.5729V18.9268H35.8179V13.5729H12.4579ZM17.1922 10.9516L12.65 13.4292L23.836 33.9368L28.3782 31.4593L17.1922 10.9516ZM21.3502 13.4292L16.808 10.9516L5.62198 31.4593L10.1642 33.9368L21.3502 13.4292ZM21.5423 18.9268V13.5729H-1.81769V18.9268H21.5423ZM16.808 10.9516C19.7264 12.5435 21.5423 15.6024 21.5423 18.9268H-1.81769C-1.81769 24.1509 1.0358 28.9577 5.62199 31.4593L16.808 10.9516ZM12.65 13.4292C15.3615 11.9502 18.6387 11.9502 21.3502 13.4292L10.1642 33.9368C14.4251 36.261 19.575 36.261 23.8359 33.9368L12.65 13.4292ZM12.4579 18.9268C12.4579 15.6024 14.2737 12.5435 17.1922 10.9516L28.3782 31.4593C32.9644 28.9577 35.8179 24.1509 35.8179 18.9268H12.4579ZM17.1922 21.5481C14.2737 19.9562 12.4579 16.8973 12.4579 13.5729H35.8179C35.8179 8.34883 32.9644 3.54199 28.3782 1.04044L17.1922 21.5481ZM21.3502 19.0705C18.6387 20.5495 15.3615 20.5495 12.65 19.0705L23.836 -1.43713C19.575 -3.76127 14.4251 -3.76128 10.1642 -1.43713L21.3502 19.0705ZM5.62198 1.04044C1.0358 3.54199 -1.81769 8.34883 -1.81769 13.5729H21.5423C21.5423 16.8973 19.7264 19.9562 16.808 21.5481L5.62198 1.04044Z" fill="#1e66f5" mask="url(#path-3-outside-1_2_425)"/>
</g>
</svg>
