<svg width="33" height="33" viewBox="0 0 33 33" fill="none" xmlns="http://www.w3.org/2000/svg">
<path d="M7.96335 7.5069C8.75685 10.2549 7.10731 13.1119 4.33054 13.799C3.43839 14.0197 2.74899 14.7538 2.70372 15.6717C2.69198 15.9099 2.68604 16.1497 2.68604 16.3908C2.68604 16.7063 2.6962 17.0192 2.71623 17.3294C2.77083 18.1751 3.40984 18.8475 4.23373 19.0459C7.03826 19.7214 8.70517 22.6076 7.88873 25.374C7.6024 26.3443 7.89352 27.4118 8.72982 27.9811C8.99431 28.1611 9.26532 28.3317 9.54242 28.4924C10.4837 29.0383 11.654 28.7691 12.4038 27.9806C14.3913 25.8906 17.7245 25.891 19.7115 27.9819C20.4699 28.78 21.6534 29.0547 22.6067 28.504C22.8334 28.3731 23.056 28.2355 23.2744 28.0916C24.1908 27.4875 24.5115 26.3293 24.2071 25.2748C23.4136 22.5264 25.0631 19.6695 27.84 18.9825C28.7314 18.7619 29.4202 18.0284 29.4655 17.1112C29.4772 16.8726 29.4832 16.6324 29.4832 16.3908C29.4832 16.0749 29.473 15.7615 29.4529 15.4508C29.3983 14.6057 28.7598 13.9338 27.9365 13.7355C25.1323 13.0602 23.4654 10.174 24.2817 7.40733C24.5678 6.43775 24.2771 5.37113 23.4416 4.80206C23.1764 4.62146 22.9047 4.45035 22.6269 4.2892C21.686 3.74349 20.5162 4.01256 19.7667 4.80068C17.7791 6.89108 14.4461 6.89033 12.459 4.79942C11.7004 4.00127 10.5168 3.72648 9.56323 4.27721C9.33688 4.40795 9.11457 4.54528 8.89654 4.68896C7.97967 5.29316 7.65879 6.45193 7.96335 7.5069ZM16.0848 20.1718C14.0664 20.1718 12.4305 18.479 12.4305 16.3908C12.4305 14.3027 14.0664 12.6098 16.0848 12.6098C18.1028 12.6098 19.7387 14.3027 19.7387 16.3908C19.7387 18.479 18.1028 20.1718 16.0848 20.1718Z" fill="#6C7086"/>
</svg>
