<svg width="33" height="33" viewBox="0 0 33 33" fill="none" xmlns="http://www.w3.org/2000/svg">
<path d="M8.46335 7.5069C9.25685 10.2549 7.60731 13.1119 4.83054 13.799V13.799C3.93839 14.0197 3.24899 14.7538 3.20372 15.6717C3.19198 15.9099 3.18604 16.1497 3.18604 16.3908C3.18604 16.7063 3.1962 17.0192 3.21623 17.3294C3.27083 18.1751 3.90984 18.8475 4.73373 19.0459V19.0459C7.53826 19.7214 9.20517 22.6076 8.38873 25.374V25.374C8.1024 26.3443 8.39352 27.4118 9.22982 27.9811C9.49431 28.1611 9.76532 28.3317 10.0424 28.4924C10.9837 29.0383 12.154 28.7691 12.9038 27.9806V27.9806C14.8913 25.8906 18.2245 25.891 20.2115 27.9819V27.9819C20.9699 28.78 22.1534 29.0547 23.1067 28.504C23.3334 28.3731 23.556 28.2355 23.7744 28.0916C24.6908 27.4875 25.0115 26.3293 24.7071 25.2748V25.2748C23.9136 22.5264 25.5631 19.6695 28.34 18.9825V18.9825C29.2314 18.7619 29.9202 18.0284 29.9655 17.1112C29.9772 16.8726 29.9832 16.6324 29.9832 16.3908C29.9832 16.0749 29.973 15.7615 29.9529 15.4508C29.8983 14.6057 29.2598 13.9338 28.4365 13.7355V13.7355C25.6323 13.0602 23.9654 10.174 24.7817 7.40733V7.40733C25.0678 6.43775 24.7771 5.37113 23.9416 4.80206C23.6764 4.62146 23.4047 4.45035 23.1269 4.2892C22.186 3.74349 21.0162 4.01256 20.2667 4.80068V4.80068C18.2791 6.89108 14.9461 6.89033 12.959 4.79942V4.79942C12.2004 4.00127 11.0168 3.72648 10.0632 4.27721C9.83688 4.40795 9.61457 4.54528 9.39654 4.68896C8.47967 5.29316 8.15879 6.45193 8.46335 7.5069V7.5069ZM16.5848 20.1718C14.5664 20.1718 12.9305 18.479 12.9305 16.3908C12.9305 14.3027 14.5664 12.6098 16.5848 12.6098C18.6028 12.6098 20.2387 14.3027 20.2387 16.3908C20.2387 18.479 18.6028 20.1718 16.5848 20.1718Z" fill="#4C4F69"/>
</svg>
