<svg width="33" height="33" viewBox="0 0 33 33" fill="none" xmlns="http://www.w3.org/2000/svg">
<path opacity="0.2" d="M24.625 3.24414H8.375C5.68261 3.24414 3.5 5.42675 3.5 8.11914V24.3691C3.5 27.0615 5.68261 29.2441 8.375 29.2441H24.625C27.3174 29.2441 29.5 27.0615 29.5 24.3691V8.11914C29.5 5.42675 27.3174 3.24414 24.625 3.24414Z" fill="url(#paint0_linear_145_686)"/>
<path d="M13.8423 15.2143C13.5347 15.2143 13.2822 14.9948 13.108 14.7413V14.7413C13.0142 14.6021 12.8991 14.4842 12.7628 14.3876C12.6264 14.291 12.4702 14.2186 12.294 14.1703C12.1179 14.1191 11.9247 14.0936 11.7145 14.0936C11.2912 14.0936 10.9247 14.1958 10.6151 14.4004C10.3082 14.6049 10.071 14.9032 9.90341 15.2953C9.7358 15.6845 9.65199 16.1575 9.65199 16.7143C9.65199 17.274 9.73295 17.7512 9.89489 18.1461C10.0568 18.541 10.2912 18.8422 10.598 19.0495C10.9048 19.2569 11.277 19.3606 11.7145 19.3606C12.1009 19.3606 12.4276 19.2981 12.6946 19.1731C12.9645 19.0453 13.169 18.8649 13.3082 18.6319C13.3862 18.5014 13.4424 18.3579 13.4767 18.2015C13.5217 17.9963 13.7005 17.8314 13.9091 17.8564V17.8564H12.5561C12.1313 17.8564 11.7869 17.512 11.7869 17.0872V17.0872C11.7869 16.6624 12.1313 16.318 12.5561 16.318H14.5497C15.102 16.318 15.5497 16.7657 15.5497 17.318V17.4728C15.5497 18.2541 15.3835 18.9231 15.0511 19.4799C14.7216 20.0368 14.267 20.4643 13.6875 20.7626C13.1108 21.0609 12.4474 21.21 11.6974 21.21C10.8651 21.21 10.1335 21.0297 9.50284 20.6689C8.87216 20.3081 8.38068 19.7939 8.02841 19.1262C7.67614 18.4558 7.5 17.6603 7.5 16.7399C7.5 16.024 7.60653 15.389 7.8196 14.8351C8.03267 14.2782 8.32955 13.8066 8.71023 13.4203C9.09375 13.0339 9.53693 12.7413 10.0398 12.5424C10.5455 12.3436 11.0895 12.2441 11.6719 12.2441C12.1776 12.2441 12.6477 12.3166 13.0824 12.4615C13.5199 12.6064 13.9062 12.8109 14.2415 13.0751C14.5795 13.3393 14.8537 13.6532 15.0639 14.0169C15.088 14.0586 15.1111 14.1008 15.1332 14.1435C15.4078 14.6754 14.93 15.2143 14.3314 15.2143H13.8423Z" fill="#8839EF"/>
<path d="M17.9023 12.3635C18.4546 12.3635 18.9023 12.8112 18.9023 13.3635V20.0907C18.9023 20.643 18.4546 21.0907 17.9023 21.0907H17.793C17.2407 21.0907 16.793 20.643 16.793 20.0907V13.3635C16.793 12.8112 17.2407 12.3635 17.793 12.3635H17.9023Z" fill="#8839EF"/>
<path d="M21.2266 21.0907C20.6743 21.0907 20.2266 20.643 20.2266 20.0907V13.3635C20.2266 12.8112 20.6743 12.3635 21.2266 12.3635H25.3274C25.8005 12.3635 26.1839 12.7469 26.1839 13.22V13.22C26.1839 13.693 25.8005 14.0765 25.3274 14.0765H23.2308C22.7366 14.0765 22.3359 14.4772 22.3359 14.9714V14.9714C22.3359 15.4656 22.7366 15.8663 23.2308 15.8663H24.946C25.4202 15.8663 25.8047 16.2507 25.8047 16.725V16.725C25.8047 17.1992 25.4202 17.5836 24.946 17.5836H23.3359C22.7837 17.5836 22.3359 18.0313 22.3359 18.5836V20.0907C22.3359 20.643 21.8882 21.0907 21.3359 21.0907H21.2266Z" fill="#8839EF"/>
<defs>
<linearGradient id="paint0_linear_145_686" x1="3.82576" y1="3.24414" x2="29.1742" y2="29.2441" gradientUnits="userSpaceOnUse">
<stop stop-color="#8839EF"/>
<stop offset="1" stop-color="#1E66F5"/>
</linearGradient>
</defs>
</svg>
