<svg width="33" height="33" viewBox="0 0 33 33" fill="none" xmlns="http://www.w3.org/2000/svg">
<path d="M22.9414 5.6731H9.54277C7.32282 5.6731 5.52319 7.47272 5.52319 9.69267V23.0913C5.52319 25.3112 7.32282 27.1108 9.54277 27.1108H22.9414C25.1613 27.1108 26.9609 25.3112 26.9609 23.0913V9.69267C26.9609 7.47272 25.1613 5.6731 22.9414 5.6731Z" stroke="#8839ef" stroke-width="3" stroke-linejoin="round"/>
<path d="M16.3954 13.0791C16.848 13.0791 17.2234 13.4545 17.2234 13.9072V18.8751C17.2234 19.3278 16.848 19.7031 16.3954 19.7031C15.9428 19.7031 15.5674 19.3278 15.5674 18.8751V13.9072C15.5674 13.4545 15.9428 13.0791 16.3954 13.0791ZM13.9114 13.9072C13.9114 13.4545 13.536 13.0791 13.0834 13.0791H9.49537C8.83296 13.0791 8.39136 13.6311 8.39136 14.1832V18.5991C8.39136 19.1511 8.83296 19.7031 9.49537 19.7031H12.8074C13.4698 19.7031 13.9114 19.1511 13.9114 18.5991V17.2192C13.9114 16.7666 13.536 16.3911 13.0834 16.3911C12.6308 16.3911 12.2554 16.7666 12.2554 17.2192V18.0472H10.0474V14.7351H13.0834C13.536 14.7351 13.9114 14.3598 13.9114 13.9072ZM23.8474 13.9072C23.8474 13.4545 23.4721 13.0791 23.0194 13.0791H19.9834C19.3762 13.0791 18.8794 13.5759 18.8794 14.1832V18.8751C18.8794 19.3278 19.2548 19.7031 19.7074 19.7031C20.1601 19.7031 20.5354 19.3278 20.5354 18.8751V17.4952H21.9155C22.3681 17.4952 22.7435 17.1197 22.7435 16.6671C22.7435 16.2145 22.3681 15.8391 21.9155 15.8391H20.5354V14.7351H23.0194C23.4721 14.7351 23.8474 14.3598 23.8474 13.9072Z" fill="#8839ef" stroke="#8839ef" stroke-width="1.14845"/>
</svg>
