<svg width="33" height="33" viewBox="0 0 33 33" fill="none" xmlns="http://www.w3.org/2000/svg">
<path d="M28.5028 15.3171L17.9719 4.78737C17.3659 4.1809 16.3824 4.1809 15.7757 4.78737L13.589 6.97422L16.3627 9.74791C17.0076 9.53019 17.7466 9.67617 18.2603 10.19C18.7767 10.7071 18.9217 11.4525 18.6985 12.0994L21.3719 14.7728C22.0186 14.5499 22.7648 14.6939 23.2813 15.2112C24.0034 15.933 24.0034 17.1027 23.2813 17.8246C22.5591 18.5469 21.3896 18.5469 20.667 17.8246C20.1241 17.2813 19.9898 16.4837 20.2648 15.8147L17.7717 13.3216L17.7714 19.8824C17.9475 19.9695 18.1136 20.0858 18.2602 20.2318C18.9821 20.9536 18.9821 22.123 18.2602 22.8459C17.5383 23.5677 16.3681 23.5677 15.6468 22.8459C14.9249 22.123 14.9249 20.9536 15.6468 20.2318C15.8253 20.0537 16.0316 19.919 16.2519 19.8287V13.2069C16.0316 13.1169 15.8254 12.9831 15.6467 12.8036C15.0999 12.2572 14.9682 11.4546 15.2486 10.7831L12.5143 8.04842L5.29412 15.2684C4.68744 15.8754 4.68744 16.8589 5.29412 17.4654L15.8245 27.9951C16.4308 28.6016 17.414 28.6016 18.021 27.9951L28.5026 17.5151C29.1092 16.9084 29.1093 15.9238 28.5028 15.3171Z" fill="#D20F39"/>
</svg>
