<svg width="33" height="33" viewBox="0 0 33 33" fill="none" xmlns="http://www.w3.org/2000/svg">
<path fill-rule="evenodd" clip-rule="evenodd" d="M16.3445 3.32324C9.23796 3.32324 3.48193 9.31911 3.48193 16.7218C3.48193 22.6225 7.12893 27.6108 12.2039 29.4082C12.2523 29.4253 12.3023 29.4392 12.3532 29.4455C12.9391 29.5184 13.1611 29.1347 13.1611 28.7973C13.1611 28.5996 13.1549 28.1176 13.1502 27.5119C13.1453 26.8841 12.5707 26.4224 11.9434 26.4477C9.69434 26.5385 9.04182 25.3776 8.81993 24.7275C8.67522 24.3423 8.04817 23.1531 7.50151 22.8349C7.05132 22.5837 6.40818 21.964 7.48543 21.9473C8.49836 21.9305 9.22189 22.9187 9.46306 23.3206C10.4596 25.0652 11.9685 24.8859 12.841 24.5779C13.0756 24.4951 13.2397 24.1819 13.3014 23.9409C13.4573 23.3318 13.0526 22.5052 12.4451 22.3432C10.1619 21.7345 8.1768 20.1938 8.1768 16.0184C8.1768 14.7964 8.52737 13.7511 9.12419 12.8923C9.33583 12.5878 9.40447 12.2022 9.33005 11.8389C9.21539 11.2791 9.14899 10.3952 9.4701 9.31786C9.55612 9.02925 9.79725 8.81911 10.0971 8.84684C10.582 8.89167 11.4515 9.11773 12.7618 9.97024C13.0166 10.136 13.3303 10.1878 13.6255 10.1154C14.5161 9.89719 15.4464 9.78806 16.3767 9.78806C17.306 9.78806 18.2354 9.89697 19.1252 10.1148C19.422 10.1874 19.7373 10.1346 19.9928 9.96698C21.3105 9.1023 22.1824 8.88136 22.6652 8.84166C22.9605 8.81737 23.1959 9.0259 23.2809 9.3097C23.6048 10.3908 23.5383 11.2777 23.4234 11.8389C23.349 12.2022 23.4176 12.5878 23.6297 12.8919C24.2262 13.7471 24.5766 14.7827 24.5766 16.0184C24.5766 19.8516 22.9055 21.4601 20.8692 22.1693C20.0561 22.4525 19.4772 23.7689 19.5549 24.6263C19.5689 24.7802 19.5763 24.9423 19.5763 25.1127C19.5763 26.9047 19.5602 28.3451 19.5602 28.7973C19.5602 29.149 19.8014 29.5677 20.4445 29.4337C22.998 28.5358 25.2168 26.8264 26.7887 24.5459C28.3607 22.2656 29.2065 19.5292 29.2072 16.7218C29.2072 9.31911 23.4511 3.32324 16.3445 3.32324Z" fill="#7F849C"/>
</svg>
