<svg width="34" height="33" viewBox="0 0 34 33" fill="none" xmlns="http://www.w3.org/2000/svg">
<path fill-rule="evenodd" clip-rule="evenodd" d="M16.8445 3.32324C9.7379 3.32324 3.98187 9.31911 3.98187 16.7218C3.98187 22.6225 7.62886 27.6108 12.7038 29.4082C12.7522 29.4253 12.8022 29.4392 12.8532 29.4455C13.439 29.5184 13.661 29.1347 13.661 28.7973C13.661 28.5996 13.6548 28.1176 13.6501 27.5119C13.6452 26.8841 13.0706 26.4224 12.4433 26.4477C10.1943 26.5385 9.54176 25.3776 9.31987 24.7275C9.17516 24.3423 8.54811 23.1531 8.00145 22.8349C7.55126 22.5837 6.90812 21.964 7.98537 21.9473C8.9983 21.9305 9.72183 22.9187 9.963 23.3206C10.9596 25.0652 12.4685 24.8859 13.3409 24.5779C13.5755 24.4951 13.7397 24.1819 13.8013 23.9409V23.9409C13.9572 23.3318 13.5525 22.5052 12.9451 22.3432C10.6618 21.7345 8.67674 20.1938 8.67674 16.0184C8.67674 14.7964 9.02731 13.7511 9.62413 12.8923C9.83577 12.5878 9.9044 12.2022 9.82999 11.8389C9.71533 11.2791 9.64893 10.3952 9.97004 9.31786C10.0561 9.02925 10.2972 8.81911 10.5971 8.84684C11.0819 8.89167 11.9514 9.11773 13.2617 9.97024C13.5165 10.136 13.8302 10.1878 14.1254 10.1154C15.0161 9.89719 15.9463 9.78806 16.8766 9.78806C17.806 9.78806 18.7353 9.89697 19.6252 10.1148C19.9219 10.1874 20.2373 10.1346 20.4927 9.96698C21.8105 9.1023 22.6823 8.88136 23.1652 8.84166C23.4605 8.81737 23.6958 9.0259 23.7808 9.3097C24.1047 10.3908 24.0383 11.2777 23.9233 11.8389C23.8489 12.2022 23.9175 12.5878 24.1297 12.8919C24.7262 13.7471 25.0766 14.7827 25.0766 16.0184C25.0766 19.8516 23.4055 21.4601 21.3691 22.1693C20.5561 22.4525 19.9771 23.7689 20.0549 24.6263C20.0688 24.7802 20.0762 24.9423 20.0762 25.1127C20.0762 26.9047 20.0601 28.3451 20.0601 28.7973C20.0601 29.149 20.3013 29.5677 20.9444 29.4337C23.4979 28.5358 25.7167 26.8264 27.2887 24.5459C28.8606 22.2656 29.7065 19.5292 29.7071 16.7218C29.7071 9.31911 23.9511 3.32324 16.8445 3.32324Z" fill="#4C4F69"/>
</svg>
