<svg width="34" height="33" viewBox="0 0 34 33" fill="none" xmlns="http://www.w3.org/2000/svg">
<path fill-rule="evenodd" clip-rule="evenodd" d="M16.9145 7.92476C17.1467 7.92476 17.3712 7.89158 17.5835 7.82972L24.8 20.3289C24.4765 20.6384 24.24 21.038 24.1307 21.4872H9.69692C9.58764 21.0384 9.35144 20.6391 9.02848 20.3297L16.2454 7.82972C16.4577 7.89158 16.6822 7.92476 16.9145 7.92476ZM9.6969 22.6207C9.68858 22.6549 9.67953 22.6888 9.66975 22.7224L15.1894 25.9091C15.6241 25.4551 16.2362 25.1722 16.9145 25.1722C17.5927 25.1722 18.2049 25.4551 18.6396 25.9091L24.158 22.7231C24.1481 22.6893 24.139 22.6552 24.1307 22.6207H9.6969ZM14.6221 26.8905L9.10271 23.7039C8.66806 24.1583 8.05566 24.4413 7.37717 24.4413C6.05863 24.4413 4.98975 23.3725 4.98975 22.054C4.98975 20.9302 5.76613 19.9878 6.81175 19.7339V13.3629C5.76613 13.109 4.98975 12.1666 4.98975 11.0429C4.98975 9.72433 6.05863 8.65545 7.37717 8.65545C8.05568 8.65545 8.66807 8.93849 9.10272 9.39293L14.622 6.20636C14.5602 5.99407 14.527 5.76958 14.527 5.53733C14.527 4.21879 15.5959 3.1499 16.9145 3.1499C18.233 3.1499 19.3018 4.21879 19.3018 5.53733C19.3018 5.76958 19.2688 5.99409 19.2068 6.20636L24.7253 9.39244C25.16 8.93828 25.7722 8.65545 26.4504 8.65545C27.7689 8.65545 28.8378 9.72433 28.8378 11.0429C28.8378 12.1661 28.0621 13.1082 27.0172 13.3626V19.7343C28.0621 19.9886 28.8378 20.9308 28.8378 22.054C28.8378 23.3725 27.7689 24.4413 26.4504 24.4413C25.7722 24.4413 25.16 24.1586 24.7253 23.7044L19.2068 26.8905C19.2688 27.1028 19.3018 27.3274 19.3018 27.5597C19.3018 28.8781 18.233 29.9471 16.9145 29.9471C15.5959 29.9471 14.527 28.8781 14.527 27.5597C14.527 27.3274 14.5602 27.1028 14.6221 26.8905ZM7.9453 13.3623C8.98956 13.1074 9.7646 12.1656 9.7646 11.0429C9.7646 10.8109 9.73149 10.5866 9.66976 10.3745L15.1894 7.18773C15.2137 7.21316 15.2386 7.23805 15.264 7.2624L8.04741 19.7619C8.01367 19.7521 7.97963 19.743 7.9453 19.7345V13.3623ZM25.7813 19.7616C25.8152 19.7517 25.8492 19.7426 25.8836 19.7343V13.3626C24.8387 13.1082 24.063 12.1661 24.063 11.0429C24.063 10.8106 24.0961 10.5861 24.158 10.3738L18.6396 7.18774C18.6152 7.21317 18.5904 7.23806 18.5649 7.26241L25.7813 19.7616Z" fill="#d20f39"/>
</svg>
