<svg width="33" height="33" viewBox="0 0 33 33" fill="none" xmlns="http://www.w3.org/2000/svg">
<path d="M12.0995 21.9638C11.8757 19.7393 11.6614 17.5138 11.4563 15.2873C11.4577 15.231 11.1535 15.1855 10.7784 15.1855V15.1855C10.4025 15.1855 10.0977 14.8808 10.0977 14.5048V13.8905C10.0977 13.1753 10.6775 12.5955 11.3927 12.5955H13.4116C14.5162 12.5955 15.4116 11.7001 15.4116 10.5955V8.70221C15.4116 8.00036 15.7795 7.34987 16.381 6.9882L17.9185 6.06374C19.4459 5.14593 20.5687 4.5564 20.7911 4.5564C21.3271 4.5564 21.9515 5.23436 21.9515 5.81586C21.9515 6.0691 21.8751 6.37994 21.7813 6.50857C21.6875 6.63586 20.8139 7.2187 19.8385 7.80153L19.0165 8.29496C18.4266 8.64909 18.0601 9.28159 18.0463 9.9695L18.031 10.7291V10.7291C18.0097 11.7536 18.8343 12.5955 19.859 12.5955H22.0191C22.7343 12.5955 23.3141 13.1753 23.3141 13.8905V14.4965C23.3141 14.877 23.0056 15.1855 22.6251 15.1855V15.1855C22.2709 15.1855 21.9744 15.454 21.9395 15.8065L21.3391 21.862L20.8549 26.7362C20.7533 27.7592 19.8928 28.5385 18.8647 28.5385H14.5614C13.533 28.5385 12.6722 27.7586 12.5711 26.7352L12.0995 21.9638Z" fill="#D20F39"/>
</svg>
