<svg width="33" height="33" viewBox="0 0 33 33" fill="none" xmlns="http://www.w3.org/2000/svg">
<path d="M13.9197 17.7118V25.3171H10.2712V7.7771H13.8169V14.483H13.9711C14.268 13.7065 14.7476 13.0985 15.4099 12.6588C16.0722 12.2135 16.903 11.9908 17.9021 11.9908C18.8157 11.9908 19.6122 12.1906 20.2916 12.5903C20.9768 12.9843 21.5078 13.5524 21.8846 14.2947C22.2671 15.0312 22.4556 15.9133 22.4499 16.941V25.3171H18.8014V17.5919C18.8071 16.7812 18.6015 16.1502 18.1848 15.6992C17.7736 15.2481 17.197 15.0226 16.4548 15.0226C15.958 15.0226 15.5184 15.1282 15.1359 15.3395C14.759 15.5508 14.462 15.8591 14.2451 16.2645C14.0338 16.6642 13.9254 17.1465 13.9197 17.7118Z" fill="#1e66f5"/>
</svg>
