<svg width="33" height="33" viewBox="0 0 33 33" fill="none" xmlns="http://www.w3.org/2000/svg">
<path d="M5.14507 26.0716C4.34624 26.0716 3.86988 25.1812 4.31319 24.5167L9.21089 17.1749C9.43504 16.8389 9.43505 16.4011 9.2109 16.0651L4.31314 8.72291C3.86984 8.05837 4.34621 7.16797 5.14503 7.16797H7.46979C7.80404 7.16797 8.11619 7.33497 8.30168 7.61303L13.9398 16.0651C14.164 16.4011 14.164 16.8389 13.9398 17.1749L8.30168 25.6266C8.11619 25.9046 7.80405 26.0716 7.4698 26.0716H5.14507Z" fill="#8839ef"/>
<path d="M11.4498 26.0714C10.6509 26.0714 10.1746 25.181 10.6179 24.5164L15.5156 17.1747C15.7397 16.8387 15.7397 16.4008 15.5156 16.0648L10.6178 8.72266C10.1745 8.05812 10.6509 7.16772 11.4497 7.16772H13.7744C14.1087 7.16772 14.4208 7.33473 14.6063 7.6128L25.8821 24.5165C26.3254 25.181 25.849 26.0714 25.0502 26.0714H22.726C22.3918 26.0714 22.0796 25.9044 21.8941 25.6263L19.0823 21.4112C18.6865 20.8178 17.8144 20.8178 17.4186 21.4111L14.6062 25.6264C14.4207 25.9044 14.1086 26.0714 13.7743 26.0714H11.4498Z" fill="#8839ef"/>
<path d="M25.3534 20.5595C25.0192 20.5595 24.7071 20.3925 24.5216 20.1144L23.7539 18.9636C23.3107 18.2991 23.787 17.4087 24.5859 17.4087H29.0729C29.6251 17.4087 30.0729 17.8564 30.0729 18.4087V19.5597C30.0729 20.112 29.6251 20.5597 29.0728 20.5597L25.3534 20.5595ZM22.2009 15.834C21.8667 15.834 21.5545 15.6669 21.369 15.3889L20.6014 14.238C20.1581 13.5735 20.6345 12.6831 21.4333 12.6831H29.0729C29.6251 12.6831 30.0729 13.1308 30.0729 13.6831V14.834C30.0729 15.3862 29.6251 15.834 29.0729 15.834H22.2009Z" fill="#8839ef"/>
</svg>
