<svg width="33" height="33" viewBox="0 0 33 33" fill="none" xmlns="http://www.w3.org/2000/svg">
<path d="M16.8319 28.6057C23.4918 28.6057 28.8906 23.2069 28.8906 16.547C28.8906 9.88716 23.4918 4.48828 16.8319 4.48828C10.1721 4.48828 4.77319 9.88716 4.77319 16.547C4.77319 23.2069 10.1721 28.6057 16.8319 28.6057ZM16.8319 5.99562C17.8221 5.99562 18.9524 6.88533 19.8794 8.87184C20.2073 9.57433 20.4921 10.3816 20.7218 11.2713H12.942C13.1717 10.3816 13.4566 9.57433 13.7844 8.87184C14.7115 6.88533 15.8418 5.99562 16.8319 5.99562ZM12.4185 8.2344C12.0019 9.12718 11.6542 10.1513 11.3894 11.2713H7.69212C8.95296 9.09169 10.9711 7.40494 13.3868 6.57088C13.0228 7.06917 12.6992 7.63285 12.4185 8.2344ZM11.0929 12.7787C10.9039 13.967 10.8026 15.2346 10.8026 16.547C10.8026 17.8594 10.9039 19.127 11.0929 20.3154H6.97335C6.52574 19.1451 6.28053 17.8747 6.28053 16.547C6.28053 15.2193 6.52574 13.9489 6.97335 12.7787H11.0929ZM11.3894 21.8227C11.6542 22.9427 12.0019 23.9669 12.4185 24.8596C12.6992 25.4612 13.0228 26.0249 13.3868 26.5232C10.9711 25.6891 8.95296 24.0024 7.69212 21.8227H11.3894ZM12.942 21.8227H20.7218C20.4921 22.7124 20.2073 23.5196 19.8794 24.2221C18.9524 26.2087 17.8221 27.0984 16.8319 27.0984C15.8418 27.0984 14.7115 26.2087 13.7844 24.2221C13.4566 23.5196 13.1717 22.7124 12.942 21.8227ZM21.0432 20.3154H12.6207C12.4206 19.1475 12.3099 17.8784 12.3099 16.547C12.3099 15.2156 12.4206 13.9465 12.6207 12.7787H21.0432C21.2433 13.9465 21.3539 15.2156 21.3539 16.547C21.3539 17.8784 21.2433 19.1475 21.0432 20.3154ZM22.2744 21.8227H25.9718C24.7108 24.0024 22.6927 25.6891 20.2771 26.5232C20.641 26.0249 20.9646 25.4612 21.2454 24.8596C21.662 23.9669 22.0097 22.9427 22.2744 21.8227ZM26.6905 20.3154H22.5709C22.76 19.127 22.8613 17.8594 22.8613 16.547C22.8613 15.2346 22.76 13.967 22.5709 12.7787H26.6905C27.1381 13.9489 27.3833 15.2193 27.3833 16.547C27.3833 17.8747 27.1381 19.1451 26.6905 20.3154ZM20.2771 6.57088C22.6927 7.40494 24.7108 9.09169 25.9718 11.2713H22.2744C22.0097 10.1513 21.662 9.12718 21.2454 8.2344C20.9646 7.63285 20.641 7.06917 20.2771 6.57088Z" fill="#1e66f5" stroke="#1e66f5" stroke-width="1.14845"/>
</svg>
