<svg width="33" height="33" viewBox="0 0 33 33" fill="none" xmlns="http://www.w3.org/2000/svg">
<path fill-rule="evenodd" clip-rule="evenodd" d="M16.1139 3.00708H16.1326L16.1492 3.00729H16.2441L16.2608 3.00799H16.2628L16.2794 3.00869H16.2812L16.298 3.0094L16.3161 3.01009H16.3182L16.3343 3.01079H16.3363L16.3524 3.01149H16.3537L16.3705 3.0122H16.3726L16.3893 3.01359H16.3914L16.4075 3.01499H16.4089L16.425 3.01639H16.427L16.4437 3.01779H16.4452L16.4612 3.01919H16.4633L16.48 3.02059H16.4821L16.4989 3.02199H16.5008L16.5177 3.02339H16.5198L16.5358 3.02479H16.5379L16.554 3.02619H16.556L16.5727 3.02759H16.5748L16.5917 3.02968H16.5936L16.6104 3.03179L16.6279 3.03389H16.6299L16.6461 3.03599H16.648L16.6648 3.03808H16.6669L16.6836 3.04019H16.685L16.7011 3.04229H16.7032L16.7199 3.04438H16.722L16.738 3.04718L16.7401 3.04789L16.7569 3.05068H16.7589L16.7751 3.05348H16.7764L16.7932 3.05628H16.7951L16.8113 3.05908H16.8133L16.8295 3.06188H16.8308L16.8476 3.06468H16.8496L16.8658 3.06748L16.8678 3.06818L16.8839 3.07098L16.886 3.07169L16.902 3.07519H16.9041L16.9202 3.07799H16.9222L16.9383 3.08148H16.9404L16.9571 3.08498H16.9585L16.9746 3.08848H16.9766L16.9927 3.09197H16.9941L17.0108 3.09548L17.0129 3.09618L17.0296 3.09968H17.031L17.0471 3.10387L17.0492 3.10458L17.0653 3.10878H17.0673L17.0842 3.11298L17.0855 3.11368L17.1015 3.11718L17.1036 3.11787L17.1197 3.12137L17.1211 3.12208L17.1372 3.12627H17.1392L17.1553 3.13047L17.1574 3.13118L17.1734 3.13537L17.1748 3.13607L17.1916 3.14028L17.193 3.14097L17.2091 3.14517L17.2111 3.14588L17.2272 3.15007H17.2286L17.2447 3.15497H17.2468L17.2635 3.15917L17.2655 3.15986L17.2816 3.16407H17.2837L17.2997 3.16896L17.3018 3.16967L17.3179 3.17456L17.3199 3.17527L17.336 3.18016L17.3381 3.18086L17.3542 3.18576L17.3556 3.18646L17.3716 3.19136L17.3737 3.19206L17.3898 3.19696L17.3918 3.19766L17.4079 3.20257L17.41 3.20326L17.4261 3.20886L17.4275 3.20956L17.4435 3.21516H17.4456L17.4617 3.22076H17.4637L17.4798 3.22636L17.4819 3.22706L17.498 3.23266L17.5 3.23336L17.5161 3.23896L17.5175 3.23965L17.5336 3.24525L17.5356 3.24595L17.5517 3.25155L17.5531 3.25226L17.5692 3.25785L17.5705 3.25856L17.5861 3.26416L17.588 3.26486L17.6034 3.27046L17.6055 3.27115L17.6209 3.27745L17.623 3.27815L17.6391 3.28444L17.6411 3.28515L17.6566 3.29145L17.6578 3.29215L17.674 3.29775L17.6753 3.29845L17.6915 3.30474L17.6935 3.30544L17.7097 3.31175L17.7116 3.31245L17.7272 3.31874L17.7291 3.31944L17.7445 3.32645L17.746 3.32715L17.762 3.33344L17.7641 3.33414L17.7795 3.34113L17.7816 3.34184L17.7977 3.34884L17.7997 3.34953L17.8158 3.35654L17.8171 3.35724L17.8333 3.36423L17.8346 3.36494L17.85 3.37194L17.8514 3.37263L17.8669 3.37963L17.8681 3.38034L17.8844 3.38733L17.8856 3.38803L17.9011 3.39504L17.9031 3.39573L17.9186 3.40273L17.9206 3.40344L17.9361 3.41043L17.9375 3.41113L17.9529 3.41883L17.9548 3.41953L17.9703 3.42723L17.9723 3.42793L17.9878 3.43562L17.9892 3.43633L18.0046 3.44402L18.0059 3.44472L18.0213 3.45242L18.0234 3.45312L18.0388 3.46082L18.0409 3.46152L18.0563 3.46922L18.0584 3.46992L18.0738 3.47762L18.0751 3.47832L18.0905 3.48672L18.092 3.48812L18.1074 3.49582L18.1088 3.49652L18.1235 3.50492L18.1255 3.50561L18.141 3.51332L18.1424 3.51402L18.1578 3.52242L18.1599 3.52311L18.1745 3.53151L18.1766 3.53291L18.192 3.54131L18.1941 3.54201L18.2095 3.55041L18.2109 3.5511L18.2256 3.5595L18.2277 3.56091L18.2431 3.5693L18.2445 3.57071L18.2593 3.5798L18.2606 3.5812L18.2754 3.59031L18.2774 3.591L18.2922 3.6001L18.2935 3.6008L18.3083 3.6099L18.3096 3.6113L18.3244 3.6204L18.3264 3.62179L18.3406 3.63089H18.3419L25.9545 8.29006L25.9672 8.29777L25.9685 8.29916L25.9814 8.30686L25.9833 8.30756L25.9954 8.31596L25.9968 8.31735L26.0089 8.32506L26.0102 8.32645L26.0223 8.33416L26.0237 8.33485L26.0358 8.34256L26.0371 8.34325L26.0492 8.35096L26.0506 8.35165L26.0627 8.35936L26.0646 8.36006L26.0767 8.36846L26.0781 8.36915L26.0902 8.37755L26.0923 8.37825L26.1043 8.38596L26.1056 8.38665L26.1177 8.39505L26.119 8.39645L26.1312 8.40485L26.1325 8.40624L26.144 8.41394L26.1459 8.41464L26.158 8.42304L26.1594 8.42374L26.1715 8.43214L26.1728 8.43284L26.1842 8.44124L26.1856 8.44193L26.197 8.45034L26.1984 8.45103L26.2098 8.45943L26.2111 8.46084L26.2226 8.46924L26.2238 8.46994L26.2353 8.47904L26.2373 8.48043L26.2488 8.48883L26.2501 8.48954L26.2615 8.49793L26.2628 8.49864L26.2743 8.50703L26.2757 8.50843L26.287 8.51683L26.2884 8.51753L26.2999 8.52593L26.3011 8.52732L26.3126 8.53572L26.3139 8.53713L26.3253 8.54623L26.3274 8.54762L26.3381 8.55672L26.3401 8.55813L26.3516 8.56722L26.3536 8.56792L26.3649 8.57702L26.3664 8.57841L26.3778 8.58752L26.3791 8.58892L26.3899 8.59801L26.3918 8.59942L26.4033 8.60922L26.4053 8.61132L26.4268 8.62951L26.4295 8.63161L26.451 8.65051L26.4537 8.6526L26.4758 8.67151L26.4785 8.67361L26.5006 8.6925L26.5033 8.69461L26.525 8.7135L26.5275 8.7163L26.5491 8.73519L26.5517 8.73729L26.5726 8.75689L26.5753 8.75899L26.5961 8.77859L26.5988 8.78069L26.6196 8.80099L26.6223 8.80308L26.6425 8.82268L26.6452 8.82479L26.6659 8.84507L26.6686 8.84787L26.6888 8.86817L26.6915 8.87097L26.7117 8.89127L26.7144 8.89407L26.7338 8.91437L26.7365 8.91717L26.756 8.93816L26.7587 8.94096L26.7782 8.96196L26.7803 8.96476L26.7997 8.98576L26.8024 8.98856L26.8212 9.00955L26.8239 9.01235L26.8427 9.03335L26.8454 9.03615L26.8641 9.05714L26.8668 9.05994L26.8858 9.08164L26.8885 9.08444L26.9066 9.10684L26.9085 9.10964L26.9273 9.13133L26.93 9.13413L26.9481 9.15653L26.9508 9.15932L26.969 9.18172L26.971 9.18452L26.9892 9.20693L26.9919 9.20971L27.0094 9.23212L27.0113 9.23492L27.0288 9.25732L27.0315 9.26011L27.049 9.2832L27.051 9.28601L27.0678 9.3091L27.0698 9.3119L27.0865 9.335L27.0886 9.3378L27.1054 9.36089L27.1074 9.3644L27.1242 9.3882L27.1263 9.391L27.143 9.41408L27.1451 9.41759L27.1611 9.44139L27.1632 9.44419L27.1793 9.46798L27.1813 9.47078L27.1974 9.49458L27.1995 9.49808L27.2149 9.52187L27.217 9.52537L27.2324 9.54986L27.2345 9.55336L27.2493 9.57716L27.2512 9.57996L27.266 9.60375L27.268 9.60655L27.2835 9.63106L27.2855 9.63386L27.3003 9.65835L27.3022 9.66185L27.3164 9.68634L27.3185 9.68984L27.3332 9.71434L27.3352 9.71784L27.3493 9.74233L27.3514 9.74583L27.3654 9.77103L27.3675 9.77383L27.3808 9.79902L27.3829 9.80252L27.3964 9.82772L27.3983 9.83122L27.4118 9.85642L27.4138 9.85992L27.4273 9.88511L27.4286 9.88862L27.4421 9.91451L27.4434 9.918L27.4561 9.9439L27.4575 9.9474L27.4702 9.9733L27.4723 9.9761L27.4844 10.0027L27.4857 10.0062L27.4985 10.0321L27.4998 10.0356L27.5119 10.0615L27.514 10.065L27.5254 10.0916L27.5267 10.0951L27.5381 10.1217L27.5394 10.1252L27.5509 10.1518L27.5522 10.1553L27.5636 10.1819L27.565 10.1854L27.5757 10.212L27.5771 10.2155L27.5878 10.2421L27.5892 10.2456L27.5992 10.2729L27.6007 10.2763L27.6107 10.3029L27.612 10.3065L27.6221 10.3337L27.6234 10.3372L27.6335 10.3645L27.6349 10.368L27.6449 10.3953L27.6463 10.3988L27.6557 10.4261L27.657 10.4296L27.6657 10.4569L27.6672 10.4604L27.6759 10.4877L27.6772 10.4912L27.6859 10.5185L27.6872 10.522L27.696 10.55L27.6967 10.5535L27.7047 10.5808L27.7061 10.5843L27.7141 10.6123L27.7149 10.6158L27.7229 10.6438L27.7243 10.6473L27.7322 10.6753L27.7337 10.6788L27.741 10.7068L27.7424 10.7103L27.7497 10.7383L27.7504 10.7418L27.7572 10.7698L27.7585 10.774L27.7659 10.8027L27.7666 10.8062L27.7733 10.8349L27.7746 10.8384L27.7806 10.8671L27.782 10.8706L27.7887 10.8993L27.7894 10.9035L27.7954 10.9322L27.7962 10.9357L27.8022 10.9643L27.8029 10.9678L27.8083 10.9965L27.8089 11L27.8143 11.0287L27.815 11.0322L27.8204 11.0609L27.821 11.0644L27.8256 11.0938L27.8264 11.0973L27.831 11.126L27.8317 11.1302L27.8364 11.1596L27.8371 11.1638L27.8412 11.1932L27.8418 11.1974L27.8458 11.2261V11.2289L27.8479 11.2443V11.2457L27.8492 11.2604V11.2625L27.8512 11.2772V11.2786L27.8533 11.2933V11.2954L27.8552 11.3101L27.856 11.3122L27.8579 11.3269V11.329L27.8593 11.3437L27.86 11.3451L27.8613 11.3598L27.862 11.3619L27.8633 11.3766V11.3787L27.8646 11.3934L27.8654 11.3955L27.8667 11.4102L27.8673 11.4123L27.8687 11.427V11.4291L27.87 11.4438V11.4459L27.8714 11.4606V11.4627L27.8727 11.4774V11.4795L27.8741 11.4942V11.4963L27.8748 11.511V11.5131L27.8754 11.5285V11.5305L27.8767 11.546V11.5474L27.8775 11.562V11.5642L27.8781 11.5789V11.581L27.8788 11.5956V11.5977L27.8794 11.6124V11.6145L27.8802 11.6299V11.632L27.8808 11.6467V11.6488L27.8815 11.6635V11.6649L27.8821 11.6796V21.4502L27.8815 21.4662V21.4865L27.8808 21.5025V21.5047L27.8802 21.5201L27.8794 21.5376V21.5397L27.8788 21.5551V21.5565L27.8781 21.5719V21.574L27.8775 21.5894L27.8767 21.5915L27.876 21.6069V21.6089L27.8754 21.6243V21.6258L27.8748 21.6419V21.644L27.8733 21.6601L27.8721 21.6775V21.6797L27.8706 21.6951V21.6972L27.87 21.7125V21.7146L27.8687 21.73V21.7322L27.8673 21.7476V21.7496L27.866 21.765V21.7672L27.8646 21.7826L27.864 21.7839L27.8627 21.8L27.862 21.8021L27.8606 21.8175V21.8197L27.8593 21.8351L27.8586 21.8371L27.8566 21.8525V21.8547L27.8546 21.8701L27.8525 21.8868V21.889L27.8506 21.9044L27.8499 21.9064L27.8479 21.9226L27.8472 21.9246L27.8452 21.94L27.8445 21.9421L27.8425 21.9576V21.9596L27.8404 21.975V21.9771L27.8385 21.9925L27.8377 21.9947L27.8358 22.0101L27.8351 22.0121L27.8324 22.0275V22.029L27.8304 22.0442V22.0457L27.8277 22.0611L27.827 22.0633L27.825 22.0785L27.8243 22.0807L27.8223 22.0961L27.8196 22.1128V22.1143L27.817 22.1297L27.8143 22.1465V22.1486L27.8116 22.1632L27.811 22.1654L27.8083 22.1801L27.8075 22.1822L27.8049 22.1975L27.8041 22.1997L27.8008 22.2151L27.7975 22.2318V22.2333L27.7948 22.248V22.25L27.7914 22.2655V22.2669L27.7887 22.2823L27.7881 22.2837L27.7847 22.2984L27.7814 22.3145V22.3165L27.778 22.3312L27.7773 22.3334L27.7739 22.3481L27.7733 22.3501L27.7699 22.3649L27.7693 22.3662L27.7659 22.381L27.7652 22.3823L27.7618 22.397L27.7612 22.3992L27.7572 22.4139L27.7564 22.4159L27.7531 22.4307L27.7524 22.4328L27.7485 22.4474V22.4496L27.7443 22.465L27.7437 22.4671L27.7397 22.4817V22.4839L27.7356 22.4986L27.7349 22.5006L27.731 22.5153L27.7303 22.5175L27.7262 22.5329L27.7256 22.5342L27.7216 22.549L27.7209 22.5503L27.7168 22.565L27.7162 22.5672L27.7114 22.5818L27.7108 22.5839L27.7068 22.5987L27.7061 22.6L27.702 22.6148L27.7014 22.6168L27.6974 22.6315L27.6967 22.633L27.692 22.6476L27.6913 22.6497L27.6866 22.6645L27.6859 22.6665L27.6812 22.6812L27.6805 22.6834L27.6759 22.698L27.6751 22.7001L27.6705 22.7148L27.6699 22.7162L27.6651 22.7309L27.6645 22.7331L27.6597 22.7477L27.6591 22.7498L27.6543 22.7646L27.6537 22.7659L27.649 22.7806L27.6483 22.7826L27.6436 22.7974L27.643 22.7995L27.6376 22.8135L27.6369 22.8156L27.6322 22.8295L27.6315 22.8317L27.6268 22.8457L27.6261 22.8478L27.6214 22.8625L27.6207 22.8646L27.6153 22.8792L27.6147 22.8814L27.6093 22.8953L27.6086 22.8975L27.6032 22.9115L27.6026 22.9135L27.5972 22.9276L27.5965 22.9296L27.5911 22.9437L27.5905 22.9457L27.5851 22.9598L27.5845 22.9619L27.5791 22.9758L27.5784 22.9773L27.5724 22.9913L27.5717 22.9934L27.5657 23.008L27.565 23.0101L27.5596 23.0242L27.559 23.0262L27.5529 23.0403L27.5522 23.0423L27.5461 23.0564L27.5455 23.0584L27.5394 23.0725L27.5388 23.0738L27.5327 23.0879L27.5321 23.09L27.5261 23.1039L27.5254 23.1053L27.5192 23.1193L27.5186 23.1207L27.5126 23.1348L27.5119 23.1361L27.5059 23.1502L27.5052 23.1515L27.4985 23.1656L27.4978 23.1669L27.4911 23.1802L27.4904 23.1823L27.4844 23.1964L27.4837 23.1977L27.4769 23.211L27.4763 23.2131L27.4702 23.2271L27.4696 23.2285L27.4629 23.2425L27.4621 23.2446L27.4554 23.2586L27.4548 23.26L27.4481 23.2733L27.4475 23.2748L27.4406 23.2887L27.44 23.2908L27.4333 23.3048L27.4327 23.3069L27.4259 23.3209L27.4246 23.323L27.4179 23.3363L27.4171 23.3377L27.4104 23.3517L27.4098 23.3538L27.4031 23.3678L27.4024 23.3699L27.395 23.3832L27.3937 23.3846L27.3862 23.3979L27.3856 23.3992L27.3783 23.4126L27.3775 23.414L27.3702 23.4272L27.3695 23.4287L27.3621 23.442L27.3614 23.4433L27.354 23.4567L27.3533 23.4587L27.346 23.4721L27.3453 23.4735L27.3379 23.4867L27.3372 23.4889L27.3298 23.5021L27.3285 23.5036L27.3212 23.5169L27.3197 23.5182L27.3124 23.5316L27.3116 23.533L27.3043 23.5462L27.3037 23.5484L27.2956 23.5616L27.2949 23.5631L27.2875 23.5757L27.2868 23.5777L27.2795 23.5903L27.2781 23.5918L27.2701 23.605L27.2693 23.6072L27.2613 23.6198L27.2599 23.6211L27.2518 23.6337L27.2512 23.6352L27.2432 23.6485L27.2418 23.6506L27.2337 23.6632L27.2324 23.6645L27.2243 23.6771L27.2237 23.6786L27.2156 23.6919L27.2149 23.6932L27.2068 23.7058L27.2055 23.7073L27.1968 23.7199L27.1961 23.7212L27.188 23.7338L27.1874 23.7353L27.1786 23.7479L27.178 23.7492L27.1699 23.7618L27.1686 23.7633L27.1605 23.7759L27.1592 23.7772L27.1505 23.7898L27.1491 23.7913L27.1411 23.8039L27.1403 23.8052L27.1316 23.8178L27.1303 23.82L27.1222 23.8326L27.1209 23.8339L27.1121 23.8465L27.1109 23.848L27.1021 23.8606L27.1007 23.8619L27.0919 23.8745L27.0907 23.876L27.0819 23.8886L27.0813 23.8899L27.0725 23.9018L27.0711 23.9032L27.0624 23.9151L27.0617 23.9166L27.0523 23.9284L27.051 23.9298L27.0423 23.9418L27.0415 23.9431L27.0329 23.9557L27.0315 23.9572L27.0221 23.9698L27.0208 23.9711L27.0113 23.983L27.01 23.9844L27.0006 23.9963L27 23.9978L26.9905 24.0095L26.9892 24.011L26.9798 24.0229L26.9784 24.0243L26.969 24.0362L26.9677 24.0376L26.9583 24.0495L26.9569 24.0509L26.9475 24.0627L26.9469 24.0642L26.9375 24.0761L26.936 24.0775L26.926 24.0894L26.9247 24.0907L26.9152 24.1027L26.9139 24.1041L26.9045 24.1159L26.9031 24.1174L26.8937 24.1293L26.8924 24.1307L26.8831 24.1426L26.8816 24.1439L26.8722 24.1552L26.871 24.1565L26.8608 24.1685L26.8595 24.1699L26.8501 24.1817L26.8487 24.1832L26.8387 24.1951L26.8374 24.1965L26.8279 24.2084L26.8266 24.2097L26.8166 24.221L26.8151 24.2223L26.8051 24.2336L26.8037 24.2349L26.7937 24.2462L26.7924 24.2475L26.7822 24.2588L26.7809 24.2601L26.7708 24.2714L26.7695 24.2727L26.7594 24.284L26.758 24.2853L26.748 24.2965L26.7466 24.298L26.7365 24.3091L26.7353 24.3106L26.7245 24.3217L26.7232 24.3232L26.713 24.3343L26.7117 24.3358L26.7016 24.3463L26.7003 24.3476L26.6895 24.3589L26.6875 24.3602L26.6767 24.3714L26.6755 24.3728L26.6646 24.3834L26.6634 24.3847L26.6526 24.396L26.6513 24.3973L26.6405 24.4079L26.6392 24.4092L26.6284 24.4197L26.6271 24.4212L26.6163 24.4316L26.6149 24.4331L26.6042 24.4435L26.6028 24.4449L26.5921 24.4555L26.5907 24.4568L26.58 24.4674L26.5786 24.4687L26.5673 24.4792L26.5659 24.48L26.5552 24.4904L26.5538 24.4918L26.5423 24.5023L26.541 24.5037L26.5296 24.5143L26.5283 24.5149L26.5169 24.5254L26.5154 24.5269L26.5041 24.5366L26.5021 24.538L26.4906 24.5478L26.4893 24.5492L26.4779 24.5597L26.4765 24.5612L26.4651 24.5716L26.4637 24.573L26.4523 24.5835L26.451 24.5849L26.4396 24.5947L26.4383 24.5961L26.4262 24.6059L26.4248 24.6066L26.4133 24.6164L26.412 24.6178L26.4006 24.6276L26.3985 24.629L26.3872 24.6387L26.3858 24.6402L26.3743 24.65L26.3731 24.6513L26.3616 24.6613L26.3603 24.6626L26.3482 24.6724L26.3468 24.6739L26.3354 24.6828L26.3341 24.6843L26.322 24.6941L26.3207 24.6956L26.3086 24.7053L26.3072 24.7067L26.2951 24.7165L26.2938 24.7179L26.2817 24.7277L26.2803 24.7284L26.2682 24.7375L26.2669 24.7382L26.2548 24.7473L26.2534 24.7479L26.2413 24.7571L26.2393 24.7577L26.2272 24.7668L26.2259 24.7683L26.2138 24.7774L26.2125 24.7788L26.2004 24.7879L26.199 24.7892L26.1869 24.7983L26.1849 24.7998L26.1728 24.8089L26.1715 24.8096L26.1588 24.8187L26.1567 24.8194L26.144 24.8285L26.1426 24.8298L26.1298 24.8389L26.1285 24.8404L26.1157 24.8487L26.1144 24.8502L26.1016 24.8593L26.1002 24.8606L26.0881 24.8697L26.0862 24.8712L26.0734 24.8795L26.0721 24.8803L26.0593 24.8886L26.0573 24.8893L26.0445 24.8977L26.0431 24.8992L26.0304 24.9075L26.0291 24.909L26.0162 24.9173L26.015 24.9181L26.0022 24.9264L26.0002 24.9272L25.9874 24.9355L25.986 24.937L25.9733 24.9453L25.9712 24.9461L25.9585 24.9544L25.9564 24.9559L25.9437 24.9642L25.9416 24.9657L25.9283 24.9741L25.927 24.9755L25.9141 24.9831L25.9122 24.9839L25.8993 24.9915L25.898 24.993L25.8845 25.0013L25.8826 25.0028L25.8691 25.0104L25.8678 25.0119L25.8551 25.0195L25.853 25.0202L25.8395 25.028L25.8376 25.0286L25.8241 25.0363L25.8228 25.0371L25.8101 25.0447L18.0201 29.5667L18.0073 29.5744L18.0053 29.5752L17.9925 29.5828L17.9905 29.5842L17.9777 29.5913L17.9757 29.5919L17.9629 29.5989L17.9617 29.5996L17.9488 29.6067L17.9469 29.6073L17.934 29.6143L17.9321 29.615L17.9192 29.6221L17.9173 29.6228L17.9045 29.6297L17.9031 29.6304L17.8904 29.6374L17.889 29.6382L17.8762 29.6445L17.875 29.6451L17.8615 29.6521L17.8602 29.6536L17.8474 29.6605L17.846 29.6612L17.8333 29.6675L17.8319 29.6682L17.8191 29.6745L17.8179 29.6753L17.805 29.6822L17.8037 29.6829L17.7903 29.6892L17.7889 29.6899L17.7762 29.6962L17.7748 29.6968L17.7614 29.7031L17.76 29.7039L17.7472 29.7102L17.746 29.7109L17.7332 29.7172L17.7312 29.7186L17.7177 29.7248L17.7164 29.7257L17.7029 29.7311L17.7016 29.7319L17.6882 29.7382L17.6868 29.7396L17.6734 29.7459L17.6713 29.7466L17.6586 29.7522L17.6572 29.7529L17.6438 29.7592L17.6424 29.76L17.629 29.7654L17.6276 29.7662L17.6142 29.7717L17.613 29.7725L17.5994 29.778L17.5974 29.7788L17.584 29.7843L17.582 29.7851L17.5686 29.7906L17.5665 29.7914L17.5538 29.7969L17.5524 29.7977L17.539 29.8026L17.5376 29.8032L17.5242 29.8089L17.5221 29.8095L17.5088 29.8152L17.5067 29.8158L17.4933 29.8215L17.4913 29.8221L17.4779 29.8271L17.4758 29.8277L17.4623 29.8334L17.4604 29.834L17.4469 29.839L17.4456 29.8397L17.4321 29.8446L17.4302 29.8453L17.4167 29.8501L17.4147 29.8509L17.4012 29.8558L17.3992 29.8564L17.3858 29.8614L17.3844 29.8621L17.371 29.867L17.3576 29.8718L17.3556 29.8726L17.3414 29.8768L17.3395 29.8775L17.326 29.8817L17.3247 29.8824L17.3112 29.8872L17.3099 29.888L17.2958 29.8922L17.2937 29.8929L17.2803 29.897L17.2783 29.8978L17.2649 29.902L17.2628 29.9026L17.2487 29.9076L17.246 29.9083L17.2191 29.9167L17.2158 29.9181L17.1882 29.9265L17.1849 29.9272L17.1574 29.9356L17.154 29.9363L17.1265 29.9439L17.123 29.9454L17.0955 29.953L17.0921 29.9538L17.0646 29.9615L17.0606 29.9621L17.0331 29.9691L17.0296 29.9699L17.0021 29.9769L16.9981 29.9775L16.9706 29.9845L16.9672 29.9853L16.9396 29.9916L16.9362 29.9923L16.9081 29.9986L16.9041 29.9993L16.8758 30.0055L16.8724 30.0062L16.8443 30.0118L16.8409 30.0125L16.8133 30.0175L16.8099 30.0181L16.7824 30.0238L16.7791 30.0244L16.7509 30.0294L16.7476 30.0301L16.7193 30.0349L16.7159 30.0357L16.6877 30.0398L16.6843 30.0405L16.6561 30.0448L16.6528 30.0455L16.6246 30.0496L16.6211 30.0503L16.5929 30.0546L16.589 30.0553L16.5607 30.0587L16.5573 30.0594L16.5291 30.0629L16.5258 30.0637L16.4975 30.0672L16.4693 30.07H16.466L16.4377 30.072L16.4343 30.0728L16.4062 30.0748H16.4028L16.3745 30.077H16.3712L16.343 30.0791L16.339 30.0798L16.3107 30.0818H16.3074L16.2792 30.0833H16.2759L16.2476 30.0846H16.2436L16.2153 30.0854H16.212L16.1838 30.0861H16.1804L16.1521 30.0867H16.0527L16.0245 30.0861L15.9962 30.0854H15.9923L15.9641 30.0846L15.9353 30.0833L15.9319 30.0826L15.9036 30.0811H15.9003L15.8721 30.0798L15.8688 30.0791L15.8405 30.0776H15.8371L15.809 30.0755L15.8056 30.0748L15.7773 30.072L15.7733 30.0713L15.745 30.0685L15.741 30.0679L15.7129 30.065L15.7095 30.0644L15.6812 30.0616H15.6779L15.6497 30.0587L15.6464 30.0581L15.6181 30.0546H15.6141L15.5858 30.0511L15.5818 30.0503L15.5536 30.0461L15.5503 30.0455L15.522 30.0412L15.5187 30.0405L15.4905 30.0364L15.4871 30.0357L15.4588 30.0314L15.4555 30.0307L15.428 30.0259H15.4259L15.3977 30.0203L15.3941 30.0196L15.3665 30.014L15.3631 30.0133L15.3356 30.0077L15.3323 30.007L15.3047 30.0014L15.3006 30.0007L15.2727 29.9951L15.2694 29.9944L15.2419 29.988L15.2379 29.9867L15.2102 29.9804L15.2069 29.9797L15.1793 29.9727L15.1756 29.9712L15.1481 29.9643L15.1447 29.9628L15.1171 29.9552L15.1137 29.9545L15.0862 29.9467L15.0829 29.9454L15.0553 29.9376L15.052 29.9363L15.0245 29.9285L15.021 29.9272L14.9935 29.9187L14.9895 29.9174L14.962 29.9089L14.9586 29.9076L14.931 29.8992L14.9276 29.8978L14.9001 29.8894L14.8967 29.8887L14.87 29.8796L14.8673 29.8789L14.8533 29.874H14.8513L14.838 29.8698L14.8359 29.869L14.8225 29.8642L14.8205 29.8635L14.8071 29.8586L14.805 29.8579L14.7917 29.8529L14.7896 29.8523L14.7761 29.8474L14.7742 29.8466L14.7607 29.8418L14.7594 29.8411L14.7459 29.8362L14.7446 29.8355L14.7311 29.8306L14.7298 29.8299L14.7164 29.8243L14.7144 29.8236L14.7008 29.818L14.6989 29.8173L14.6854 29.8117L14.6841 29.811L14.6706 29.8054L14.6687 29.8047L14.6552 29.7991L14.6539 29.7984L14.6404 29.7928L14.6385 29.7921L14.625 29.7865L14.6237 29.7858L14.6102 29.7802L14.6089 29.7795L14.5954 29.7739L14.5934 29.7732L14.5799 29.7676L14.5779 29.7669L14.5645 29.7613L14.5624 29.7606L14.5491 29.755L14.547 29.7543L14.5336 29.7487L14.5322 29.748L14.5188 29.7417L14.5168 29.7411L14.5041 29.7348L14.5026 29.734L14.4893 29.7277L14.4878 29.727L14.4745 29.7207L14.4732 29.72L14.4597 29.7144L14.4576 29.7137L14.4449 29.7074L14.443 29.7068L14.4294 29.7005L14.4274 29.6997L14.4147 29.6934L14.4134 29.692L14.4005 29.6857L14.3992 29.6851L14.3865 29.6788L14.3851 29.678L14.3717 29.6717L14.3703 29.6703L14.3569 29.6633L14.3555 29.6619L14.3428 29.6556L14.3408 29.6549L14.3273 29.6486L14.326 29.6473L14.3132 29.6402L14.3112 29.6395L14.2977 29.6325L14.2964 29.6319L14.2837 29.6248L14.2817 29.6241L14.2689 29.6171L14.2675 29.6165L14.2548 29.6095L14.2527 29.608L14.24 29.601L14.2387 29.6004L14.2258 29.5933L14.2245 29.5926L14.2118 29.5856L14.2098 29.5842L14.197 29.5772L14.1956 29.5765L14.1829 29.5689L14.1808 29.5674L14.1681 29.5604L14.166 29.5598L14.1533 29.5527L14.1512 29.552L14.1385 29.545L14.1366 29.5444L14.1237 29.5366L14.1218 29.5359L14.1097 29.5283L14.1076 29.5275L14.0955 29.5199L7.05339 25.2379L7.03794 25.2282L7.03659 25.2273L7.02181 25.2184L7.01979 25.2176L7.00435 25.2085L7.00233 25.2078L6.98755 25.198L6.9862 25.1973L6.97142 25.1876L6.97008 25.1861L6.95529 25.1763L6.95395 25.175L6.93917 25.1652L6.93715 25.1644L6.92237 25.1553L6.92035 25.1539L6.90557 25.1441L6.90424 25.1427L6.88944 25.1329H6.89288L6.8781 25.1231L6.87608 25.1218L6.8613 25.112L6.85995 25.1105L6.84517 25.1007L6.84329 25.0994L6.82851 25.0888L6.8265 25.0875L6.81172 25.0769L6.81036 25.0755L6.79559 25.0658L6.79424 25.0643L6.77946 25.0538L6.77812 25.0525L6.76334 25.0419L6.76199 25.0406L6.74788 25.03L6.74586 25.0286L6.73141 25.0182L6.73008 25.0167L6.71597 25.0063L6.71428 25.0048L6.70017 24.9943L6.69836 24.993L6.68425 24.9824L6.68291 24.9817L6.6688 24.9713L6.66746 24.9698L6.65354 24.9594L6.65221 24.9579L6.63837 24.9474L6.63635 24.9468L6.62224 24.9362L6.6209 24.9349L6.60679 24.9236L6.60544 24.9223L6.59133 24.9118L6.58958 24.9103L6.57547 24.8992L6.57373 24.8977L6.56029 24.8866L6.55894 24.8851L6.54551 24.874L6.54416 24.8732L6.53072 24.8621L6.52938 24.8606L6.51594 24.8495L6.5146 24.848L6.50116 24.8369L6.49982 24.8354L6.48638 24.8243L6.48503 24.8228L6.4716 24.8117L6.47025 24.8102L6.45681 24.7991L6.45547 24.7977L6.44203 24.7857L6.44069 24.7851L6.42725 24.7739L6.42591 24.7725L6.41287 24.7613L6.41153 24.7599L6.39809 24.7479L6.39675 24.7466L6.38331 24.7354L6.38196 24.734L6.36853 24.7221L6.36718 24.7214L6.35401 24.7102L6.35267 24.7088L6.3399 24.6976L6.33856 24.6962L6.32579 24.6843L6.32445 24.6828L6.31168 24.671L6.31034 24.6696L6.29758 24.6576L6.29623 24.6563L6.28347 24.6444L6.28212 24.643L6.26936 24.6311L6.26801 24.6296L6.25525 24.617L6.2539 24.6164L6.24114 24.6044L6.23912 24.6031L6.2267 24.5905L6.22535 24.5892L6.21259 24.5772L6.21124 24.5758L6.19875 24.5632L6.1974 24.5618L6.1853 24.5492L6.18395 24.5478L6.17186 24.5352L6.17053 24.5338L6.15775 24.5212L6.15642 24.5198L6.14364 24.5072L6.14231 24.5065L6.13021 24.4939L6.12886 24.4926L6.11677 24.48L6.11542 24.4785L6.10333 24.4659L6.10199 24.4646L6.08989 24.452L6.08855 24.4505L6.07646 24.4379L6.07511 24.4366L6.06302 24.424L6.06167 24.4225L6.05025 24.4099L6.04891 24.4086L6.03682 24.396L6.03547 24.3945L6.02338 24.3812L6.02203 24.3799L6.0106 24.3665L6.00927 24.3651L5.99784 24.3519L5.99651 24.3504L5.9844 24.3371L5.98307 24.3358L5.97164 24.3224L5.97029 24.3211L5.95887 24.3078L5.95753 24.3063L5.94611 24.2931L5.94476 24.2917L5.93334 24.2783L5.932 24.277L5.92058 24.2637L5.91991 24.2622L5.90916 24.249L5.90781 24.2475L5.89638 24.2342L5.89505 24.2329L5.88296 24.2188L5.88161 24.2175L5.87018 24.2042L5.86885 24.2028L5.85742 24.1888L5.85607 24.1873L5.84532 24.1741L5.84465 24.1726L5.8339 24.1593L5.83256 24.158L5.82181 24.1439L5.82047 24.1426L5.80905 24.1285L5.8077 24.1272L5.79694 24.1139L5.79561 24.1124L5.78418 24.0992L5.78283 24.0978L5.77209 24.0844L5.77074 24.0831L5.75999 24.069L5.75865 24.0677L5.7479 24.0536L5.74656 24.0523L5.73581 24.0384L5.73446 24.0369L5.72372 24.0229L5.72237 24.0215L5.71161 24.0075L5.71094 24.0061L5.70087 23.9921L5.69952 23.9907L5.68945 23.9767L5.68877 23.9752L5.6787 23.9613L5.67735 23.96L5.66727 23.9452L5.66592 23.9438L5.65585 23.9298L5.6545 23.9284L5.64443 23.9144L5.64376 23.9131L5.63368 23.8983L5.63301 23.8969L5.62293 23.8823L5.62226 23.8808L5.61217 23.8669L5.6115 23.8654L5.60143 23.8514L5.60008 23.85L5.59001 23.8354L5.58866 23.8339L5.57859 23.8193L5.57724 23.8171L5.56783 23.8024L5.56648 23.8011L5.55708 23.7863L5.55574 23.785L5.54633 23.7702L5.54499 23.7688L5.53559 23.7542L5.53491 23.7527L5.5255 23.7381L5.52417 23.7359L5.51475 23.7212L5.51341 23.7199L5.504 23.7051L5.50266 23.7038L5.49326 23.6891L5.49191 23.6877L5.4825 23.673L5.48115 23.6715L5.47242 23.6569L5.47175 23.6554L5.46302 23.6408L5.46168 23.6387L5.45226 23.6239L5.45093 23.6218L5.44151 23.6072L5.44084 23.6057L5.43144 23.5903L5.43077 23.5883L5.42204 23.5736L5.42069 23.5722L5.41195 23.5575L5.41061 23.556L5.40188 23.5407L5.40053 23.5386L5.3918 23.5238L5.39113 23.5225L5.38239 23.5071L5.38171 23.5056L5.37298 23.491L5.37164 23.4889L5.36291 23.4735L5.36156 23.4713L5.35282 23.4561L5.35148 23.4539L5.34342 23.4385L5.34208 23.437L5.33334 23.4218L5.33267 23.4203L5.3246 23.4049L5.32393 23.4035L5.31587 23.3881L5.3152 23.386L5.30713 23.3706L5.3058 23.3686L5.29773 23.3532L5.29706 23.351L5.289 23.3349L5.28833 23.3335L5.28026 23.318L5.2796 23.316L5.27153 23.3006L5.27085 23.2985L5.2628 23.2831L5.26211 23.2811L5.25473 23.2649L5.25406 23.2635L5.246 23.2474L5.24533 23.2453L5.23726 23.2292L5.23591 23.2279L5.22853 23.2117L5.22785 23.2103L5.22047 23.1949L5.2198 23.1928L5.2124 23.1767L5.205 23.1613L5.20367 23.1593L5.19627 23.1432L5.1956 23.1411L5.18821 23.1256L5.18754 23.1235L5.18015 23.1074L5.17947 23.1061L5.17209 23.09L5.17142 23.0885L5.16469 23.0725L5.16402 23.0711L5.15663 23.0549L5.15596 23.0536L5.14858 23.0375L5.14789 23.036L5.14051 23.0199L5.13983 23.0179L5.13312 23.0017L5.13245 23.0004L5.12505 22.9843L5.12438 22.9821L5.11699 22.9661L5.11632 22.9647L5.1096 22.9485L5.10893 22.9472L5.10221 22.9311L5.10154 22.929L5.09482 22.9129L5.09414 22.9115L5.0881 22.8953L5.08743 22.894L5.08071 22.8779L5.08003 22.8758L5.07399 22.859L5.07332 22.8575L5.0666 22.8415L5.06592 22.8394L5.05988 22.824L5.05921 22.8219L5.05249 22.8051L5.05182 22.8037L5.04577 22.7869L5.0451 22.7848L5.03905 22.768L5.03838 22.7666L5.03234 22.7498L5.03166 22.7477L5.02561 22.7309L5.02494 22.7294L5.0189 22.7127L5.01823 22.7114L5.01285 22.6945L5.01218 22.6925L5.00612 22.6756L5.00545 22.6742L5.00008 22.6574L4.99941 22.6554L4.99403 22.6385L4.99336 22.6365L4.98732 22.6196L4.98665 22.6176L4.98127 22.6007L4.98059 22.5993L4.97523 22.5825L4.97454 22.5811L4.96917 22.5644L4.9685 22.5622L4.96312 22.5455L4.96245 22.5433L4.95708 22.5266L4.95641 22.5244L4.95103 22.5077L4.95036 22.5056L4.94499 22.4887L4.94438 22.4867L4.93967 22.4699L4.93901 22.4686L4.93363 22.451L4.93296 22.4489L4.92825 22.4315L4.92758 22.4293L4.92288 22.4126L4.92221 22.4104L4.9175 22.3937L4.91683 22.3915L4.91214 22.374L4.91145 22.372L4.90676 22.3544L4.90608 22.3531L4.90138 22.3355L4.89601 22.3173L4.89534 22.316L4.8913 22.2991L4.89063 22.2977L4.8866 22.281V22.2795L4.8819 22.2621V22.26L4.87787 22.2432L4.87719 22.2411L4.87316 22.2242L4.87249 22.2222L4.86845 22.2046L4.8651 22.1872L4.86443 22.1857L4.86039 22.1683L4.85972 22.1668L4.85569 22.1494L4.85503 22.1479L4.85099 22.1305L4.84763 22.1123L4.84696 22.1102L4.84292 22.0926L4.84225 22.0906L4.8389 22.0731L4.83823 22.0709L4.83419 22.0535L4.83352 22.052L4.83016 22.0346L4.82949 22.0325L4.82612 22.015L4.82545 22.0129L4.8221 21.9953L4.81874 21.9779V21.9758L4.81538 21.9576V21.9555L4.81201 21.938L4.81134 21.9358L4.80732 21.9191V21.917L4.80396 21.8981L4.80328 21.8961L4.79992 21.8778L4.79925 21.8757L4.79656 21.8583L4.7959 21.8561L4.79321 21.8386V21.8366L4.79052 21.819V21.8169L4.78783 21.7995L4.78716 21.7973L4.78447 21.7798L4.78179 21.763L4.7791 21.7441V21.742L4.77641 21.7246V21.7224L4.77372 21.705V21.7035L4.7717 21.6853V21.6833L4.76969 21.6657V21.6644L4.76701 21.6462L4.76632 21.644L4.76432 21.6265V21.6245L4.7623 21.6062L4.76163 21.6041L4.75961 21.586V21.5839L4.75759 21.5656L4.75692 21.5635L4.7549 21.5454V21.5433L4.7529 21.525L4.75221 21.5237L4.75021 21.5055L4.74886 21.4873V21.4851L4.74685 21.467L4.74617 21.4649L4.74416 21.4467V21.4445L4.74281 21.4264L4.74214 21.4243L4.74079 21.4061V21.4039L4.73945 21.3858V21.3837L4.7381 21.3655L4.73677 21.3472V21.3452L4.73543 21.327V21.3249L4.73408 21.3067V21.2841L4.73341 21.2659V21.2638L4.73274 21.2456V21.2435L4.73206 21.2253L4.73139 21.2232L4.73072 21.205V21.1854L4.73005 21.1672V21.1652L4.72937 21.1469V12.2863L4.73005 12.2688V12.2464L4.73072 12.2282V12.1638L4.73139 12.1456V12.1442L4.73206 12.126V12.1239L4.73274 12.1057V12.1036L4.73341 12.0854V12.084L4.73408 12.0658V12.0637L4.73475 12.0455V12.0434L4.7361 12.0245V12.0224L4.73743 12.0042V12.0028L4.7381 11.9846V11.9826L4.73945 11.9643V11.9623L4.74012 11.9441V11.942L4.74079 11.9238V11.9217L4.74214 11.9035V11.9014L4.74348 11.8832V11.8811L4.7455 11.8629V11.8608L4.74685 11.8426L4.74752 11.8412L4.74886 11.823V11.8216L4.75088 11.8034V11.802L4.7529 11.7838L4.75356 11.7817L4.75558 11.7635V11.7614L4.75759 11.7432V11.7418L4.75961 11.7236V11.7222L4.76163 11.704L4.7623 11.7019L4.76432 11.6837V11.6816L4.76632 11.6641V11.662L4.76834 11.6438V11.6417L4.77036 11.6235L4.77103 11.6214L4.77305 11.6039V11.6018L4.77574 11.5836V11.5815L4.77775 11.5633L4.77843 11.5612L4.78043 11.5437L4.78112 11.5416L4.7838 11.5234L4.78447 11.522L4.78716 11.5038V11.5024L4.78985 11.4842V11.4828L4.79254 11.4653L4.79321 11.4632L4.7959 11.4457V11.4436L4.80059 11.4254L4.80127 11.4233L4.80396 11.4058V11.4037L4.80732 11.3862V11.3848L4.81067 11.3673V11.3659L4.81403 11.3477L4.8147 11.3463L4.81807 11.3288L4.81874 11.3275L4.8221 11.31L4.82277 11.3079L4.82612 11.2904L4.8268 11.2882L4.83016 11.2708V11.2687L4.83352 11.2512V11.2498L4.83688 11.2323L4.83754 11.2309L4.84091 11.2134L4.84158 11.212L4.84561 11.1945V11.1924L4.84965 11.1749L4.85032 11.1728L4.85367 11.1553L4.85434 11.1532L4.85838 11.1357V11.1336L4.86241 11.1161L4.86308 11.114L4.86712 11.0965V11.0944L4.87114 11.0769L4.87181 11.0755L4.87585 11.058V11.0566L4.87988 11.0391L4.88056 11.037L4.88525 11.0195V11.0181L4.88996 11.0006V10.9992L4.89466 10.9817L4.89534 10.9796L4.90003 10.9621V10.96L4.90474 10.9425L4.90541 10.9404L4.91012 10.9236L4.91078 10.9222L4.91549 10.9047L4.91616 10.903L4.92087 10.8855L4.92154 10.8834L4.92625 10.8663L4.92691 10.8649L4.93229 10.8474L4.93296 10.846L4.93767 10.8292L4.93834 10.8278L4.94303 10.8108L4.94371 10.8094L4.94841 10.792L4.94909 10.7899L4.95445 10.7729L4.95514 10.7708L4.96051 10.754V10.7526L4.96589 10.7358V10.7337L4.97125 10.7169L4.97193 10.7155L4.97731 10.6987L4.97798 10.6966L4.98336 10.6798L4.98402 10.6777L4.9894 10.6609L4.99007 10.6588L4.99545 10.642L4.99612 10.6406L5.00216 10.6238L5.00283 10.6224L5.00821 10.6056L5.00889 10.6038L5.01425 10.587L5.01493 10.5856L5.02098 10.5688L5.02165 10.5674L5.02769 10.5506V10.5492L5.03374 10.5324L5.03442 10.531L5.04047 10.5142L5.04113 10.5122L5.04718 10.4953L5.04785 10.494L5.05389 10.4772L5.05458 10.475L5.06129 10.459L5.06196 10.4576L5.06869 10.4408L5.06936 10.4394L5.07607 10.4226L5.07674 10.4205L5.08347 10.4037L5.08413 10.4016L5.09085 10.3848L5.09153 10.3827L5.09825 10.3659L5.09891 10.3638L5.10564 10.347L5.10631 10.3449L5.11302 10.3281L5.11369 10.3263L5.12042 10.3102L5.12109 10.3081L5.1278 10.292L5.12849 10.2899L5.1352 10.2731L5.13587 10.2717L5.14326 10.2549L5.14393 10.2535L5.15133 10.2374L5.152 10.236L5.15871 10.2199L5.15939 10.2178L5.16678 10.2017L5.16745 10.2004L5.17484 10.1842L5.17551 10.1829L5.18291 10.1667L5.18358 10.1654L5.19097 10.1492L5.19164 10.1472L5.19902 10.1311L5.19971 10.1297L5.20709 10.1136L5.20777 10.1115L5.21515 10.0954L5.21582 10.094L5.22322 10.0779L5.22389 10.0765L5.23128 10.0604L5.23195 10.059L5.23935 10.0429L5.24002 10.0415L5.24808 10.0261L5.24875 10.0247L5.25682 10.0086L5.25815 10.0065L5.26622 9.99038L5.26689 9.98898L5.27495 9.97288L5.27562 9.97078L5.28369 9.95539L5.28435 9.95398L5.29242 9.93858L5.29309 9.93719L5.30115 9.92179L5.30183 9.91969L5.30989 9.9043L5.31124 9.90289L5.3193 9.88749L5.31997 9.88539L5.32804 9.87L5.32937 9.8686L5.33744 9.85319L5.33811 9.8518L5.34617 9.83641L5.34752 9.8343L5.35626 9.81891L5.35693 9.8175L5.36499 9.80211L5.36566 9.80071L5.37439 9.7853L5.37506 9.78391L5.3838 9.76851L5.38448 9.76711L5.39321 9.75171L5.39455 9.75032L5.40328 9.73491L5.40395 9.73352L5.4127 9.71812L5.41404 9.71672L5.42277 9.70132L5.42344 9.69993L5.43217 9.68452L5.43352 9.68313L5.44226 9.66773L5.44292 9.66632L5.45233 9.65093L5.45368 9.64883L5.46308 9.63343L5.46375 9.63204L5.4725 9.61734L5.47383 9.61593L5.48324 9.60123L5.48459 9.59984L5.49332 9.58444L5.49399 9.58304L5.50339 9.56834L5.50407 9.56695L5.51348 9.55225L5.51481 9.55084L5.52423 9.53545L5.52557 9.53405L5.53498 9.51936L5.53565 9.51725L5.54505 9.50255L5.54572 9.50116L5.55514 9.48646L5.55581 9.48505L5.56588 9.47036L5.56723 9.46896L5.57663 9.45426L5.57798 9.45286L5.58805 9.43816L5.58872 9.43677L5.59881 9.42207L5.59948 9.42066L5.60956 9.40596L5.61023 9.40457L5.6203 9.38987L5.62165 9.38848L5.63174 9.37378L5.6324 9.37237L5.64248 9.35767L5.64383 9.35628L5.6539 9.34228L5.65458 9.34089L5.66465 9.32619L5.666 9.32478L5.67607 9.31078L5.67742 9.30939L5.6875 9.29538L5.68885 9.29399L5.69892 9.27999L5.70027 9.27858L5.71034 9.26459L5.71101 9.26319L5.72109 9.2492L5.72243 9.24779L5.73318 9.23379L5.73453 9.2324L5.74527 9.2184L5.74663 9.217L5.75738 9.203L5.75872 9.20161L5.76947 9.18761L5.77081 9.1862L5.78156 9.17221L5.78291 9.17011L5.79365 9.15611L5.79433 9.15471L5.80507 9.14071L5.80642 9.13932L5.81718 9.12532L5.81851 9.12391L5.82927 9.11062L5.83061 9.10921L5.84136 9.09522L5.84271 9.09382L5.85345 9.07981L5.8548 9.07842L5.86622 9.06512L5.86756 9.06372L5.87831 9.04972L5.87966 9.04833L5.8904 9.03502L5.89175 9.03363L5.90251 9.01963L5.90385 9.01823L5.91527 9.00423L5.91594 9.00283L5.92736 8.98953L5.92871 8.98814L5.94013 8.97484L5.94147 8.97344L5.95289 8.96014L5.95424 8.95874L5.96566 8.94544L5.96633 8.94405L5.97775 8.93074L5.9791 8.92935L5.99053 8.91604L5.99186 8.91465L6.00329 8.90134L6.00395 8.89995L6.01538 8.88665L6.01673 8.88525L6.02882 8.87195L6.02949 8.87056L6.04159 8.85725L6.04293 8.85586L6.0557 8.84326L6.05704 8.84186L6.06913 8.82856L6.07048 8.82716L6.08257 8.81387L6.08391 8.81246L6.09601 8.79986L6.09735 8.79847L6.10944 8.78586L6.11079 8.78447L6.12288 8.77187L6.12423 8.77047L6.13699 8.75787L6.13834 8.75647L6.15043 8.74387L6.15177 8.74248L6.16388 8.72987L6.16521 8.72848L6.1773 8.71588L6.17866 8.71448L6.19075 8.70188L6.19208 8.70047L6.20419 8.68788L6.20553 8.68649L6.21762 8.67388L6.21897 8.67248L6.23106 8.65989L6.23241 8.65848L6.24517 8.64658L6.24652 8.64519L6.25928 8.63329L6.26063 8.63189L6.27339 8.61929L6.27473 8.6179L6.2875 8.60529L6.28884 8.60459L6.30161 8.5927L6.30295 8.592L6.31572 8.5801L6.31706 8.57869L6.32983 8.5668L6.33117 8.5654L6.34394 8.5535L6.34528 8.5521L6.35805 8.5402L6.35939 8.5395L6.37283 8.52761L6.37417 8.52621L6.38761 8.51431L6.38896 8.51291L6.40239 8.50101L6.40374 8.49962L6.41718 8.48841L6.41852 8.48701L6.43196 8.47582L6.4333 8.47441L6.44607 8.46321L6.44741 8.46182L6.46085 8.45062L6.46219 8.44922L6.47563 8.43802L6.47698 8.43733L6.49041 8.42612L6.49176 8.42472L6.50519 8.41353L6.50654 8.41212L6.51998 8.40092L6.52132 8.39953L6.53543 8.38833L6.53678 8.38693L6.55021 8.37573L6.55156 8.37433L6.56567 8.36314L6.567 8.36173L6.58111 8.35053L6.58246 8.34914L6.59589 8.33793L6.59724 8.33724L6.61135 8.32604L6.61269 8.32464L6.62613 8.31344L6.62747 8.31204L6.64158 8.30154L6.64293 8.30014L6.65704 8.28895L6.65838 8.28754L6.67249 8.27705L6.67384 8.27634L6.68795 8.26585L6.68996 8.26444L6.70407 8.25395L6.70542 8.25326L6.71953 8.24275L6.72087 8.24136L6.73498 8.23016L6.73633 8.22946L6.75111 8.21896L6.75244 8.21756L6.76655 8.20706L6.76857 8.20636L6.78268 8.19586L6.78404 8.19516L6.79813 8.18466L6.79948 8.18396L6.81426 8.17347L6.81561 8.17206L6.82972 8.16157L6.83106 8.16086L6.84584 8.15106L6.84719 8.15037L6.8613 8.13986L6.86331 8.13847L6.8781 8.12868L6.87944 8.12727L6.89422 8.11678L6.89557 8.11537L6.91035 8.10558L6.91237 8.10488L6.92715 8.09507L6.92848 8.09368L6.94326 8.08387L6.94461 8.08317L6.95939 8.07338L6.96074 8.07268L6.97552 8.06288L6.97686 8.06218L6.99164 8.05238L6.99366 8.05169L7.00844 8.04258L13.7624 3.70326L13.7771 3.69346L13.7785 3.69277L13.7933 3.68297L13.7952 3.68156L13.81 3.67247L13.812 3.67107L13.8268 3.66198L13.8289 3.66057L13.8437 3.65147L13.8456 3.65077L13.861 3.64168L13.8625 3.64027L13.8773 3.63117L13.8792 3.63048L13.894 3.62138L13.8954 3.62068L13.9108 3.61228L13.9121 3.61087L13.9277 3.60247L13.929 3.60108L13.9438 3.59268L13.9458 3.59198L13.9612 3.58358L13.9625 3.58219L13.9773 3.57379L13.9794 3.57238L13.9942 3.56398L13.9961 3.56259L14.0109 3.55418L14.0123 3.55279L14.0277 3.54439L14.029 3.54369L14.0438 3.53529L14.0459 3.5346L14.0607 3.52619L14.0626 3.52548L14.0782 3.5171L14.0801 3.51639L14.0955 3.508L14.0969 3.50729L14.1124 3.4996L14.1144 3.4989L14.1299 3.4912L14.1318 3.4905L14.1466 3.4828L14.1487 3.4821L14.1641 3.4744L14.1655 3.4737L14.1809 3.466L14.1829 3.4653L14.1984 3.45761L14.2004 3.4562L14.2158 3.44851L14.2179 3.4478L14.2333 3.44011L14.2353 3.4394L14.2508 3.4324L14.2528 3.43171L14.2683 3.4247L14.2696 3.42331L14.285 3.41631L14.2864 3.4156L14.3018 3.40861L14.3039 3.40722L14.3193 3.40021L14.3214 3.39951L14.3368 3.39252L14.3388 3.39181L14.3543 3.38481L14.3563 3.38412L14.3717 3.37711L14.3738 3.37641L14.3892 3.36942L14.3912 3.36872L14.4067 3.36241L14.4087 3.36171L14.4242 3.35472L14.4261 3.35402L14.4423 3.34702L14.4442 3.34632L14.4604 3.33932L14.4625 3.33792L14.4779 3.33162L14.4792 3.33092L14.4953 3.32463L14.4974 3.32392L14.5128 3.31762L14.5142 3.31692L14.5303 3.31062L14.5323 3.30993L14.5484 3.30433L14.5505 3.30363L14.5666 3.29733L14.5686 3.29662L14.5847 3.29033L14.5868 3.28963L14.6028 3.28403L14.6049 3.28333L14.621 3.27773L14.623 3.27703L14.6385 3.27143L14.6405 3.27074L14.6566 3.26514L14.6587 3.26443L14.6741 3.25884L14.6762 3.25813L14.6922 3.25253L14.6935 3.25183L14.7097 3.24623L14.7117 3.24553L14.7279 3.23993L14.7299 3.23924L14.746 3.23364L14.7481 3.23294L14.7641 3.22804L14.7654 3.22734L14.7816 3.22244L14.7836 3.22174L14.7998 3.21683H14.8017L14.8179 3.21194L14.8198 3.21123L14.836 3.20634L14.8373 3.20565L14.8535 3.20074L14.8548 3.20005L14.8709 3.19514L14.873 3.19445L14.8892 3.18954L14.8911 3.18885L14.9073 3.18394L14.9092 3.18324L14.9254 3.17905L14.9274 3.17834L14.9436 3.17415L14.9449 3.17345L14.9609 3.16855L14.9626 3.16785L14.9795 3.16364H14.9807L14.9968 3.15875H14.9989L15.0155 3.15455L15.0175 3.15385L15.0342 3.14965L15.0363 3.14894L15.0524 3.14475H15.0544L15.0713 3.14056H15.0732L15.0894 3.13635L15.0914 3.13565L15.1076 3.13216L15.1095 3.13146L15.1257 3.12725L15.1276 3.12656L15.1438 3.12306H15.1458L15.162 3.11956L15.1639 3.11885L15.1801 3.11535H15.1814L15.1976 3.11186L15.1995 3.11116L15.2164 3.10766H15.2177L15.2345 3.10415L15.2358 3.10346L15.2527 3.09996L15.2547 3.09926L15.2714 3.09575L15.2735 3.09506L15.2903 3.09225H15.2923L15.3085 3.08945L15.3104 3.08876L15.3273 3.08526L15.3292 3.08456L15.346 3.08176H15.3481L15.3642 3.07896L15.3662 3.07827L15.383 3.07547L15.385 3.07476L15.4011 3.07196H15.4025L15.4186 3.06917H15.4206L15.4374 3.06637L15.4394 3.06566L15.4563 3.06286H15.4582L15.4751 3.06006H15.4771L15.4938 3.05727H15.4959L15.5127 3.05517H15.5147L15.5309 3.05306H15.5328L15.5497 3.05096L15.5517 3.05026L15.5684 3.04816L15.5698 3.04746L15.5866 3.04607H15.5886L15.6047 3.04397H15.6068L15.6228 3.04186H15.6249L15.6416 3.03977H15.6437L15.6605 3.03767H15.6625L15.6787 3.03626H15.6806L15.6974 3.03417L15.6995 3.03346L15.7162 3.03207L15.7183 3.03137L15.7351 3.02996H15.7371L15.7537 3.02857H15.7556L15.7724 3.02716H15.7745L15.7912 3.02647L15.7933 3.02577L15.8101 3.02436L15.8114 3.02367L15.8283 3.02297H15.8302L15.847 3.02156L15.8652 3.02087H15.8672L15.884 3.02017H15.886L15.9027 3.01947H15.9048L15.9216 3.01878L15.9236 3.01807L15.9404 3.01737H15.9425L15.9592 3.01667H15.9613L15.978 3.01598H15.98L15.9969 3.01527H15.9988L16.0157 3.01457H16.017L16.0338 3.01387H16.0546L16.0714 3.01318H16.1103L16.1139 3.00708ZM16.0985 4.89679H16.0874L16.0765 4.89692H16.0656L16.0541 4.8972L16.0427 4.89749L16.0312 4.89783L16.0198 4.89853L16.0085 4.89924L15.997 4.89994L15.9862 4.90064L15.9748 4.90133L15.9641 4.90204L15.9533 4.90274L15.9426 4.90344L15.9312 4.90413L15.9204 4.90483L15.9089 4.90624L15.8976 4.90763L15.8868 4.90904L15.8753 4.91043L15.8639 4.91184L15.8526 4.91323L15.8418 4.91464L15.8303 4.91603L15.8196 4.91744L15.8088 4.91883L15.7974 4.92024L15.7867 4.92163L15.7759 4.92304L15.7652 4.92443L15.7544 4.92584L15.743 4.92723L15.7323 4.92933L15.7215 4.93073L15.7101 4.93283L15.6994 4.93494L15.6886 4.93703L15.6778 4.93913L15.6671 4.94123L15.6563 4.94332L15.6456 4.94543L15.6348 4.94683L15.6234 4.94892L15.6127 4.95103L15.6012 4.95313L15.5904 4.95522L15.5798 4.95732L15.5689 4.95943L15.5583 4.96223L15.5475 4.96503L15.5368 4.96783L15.526 4.96992L15.5152 4.97202L15.5045 4.97482L15.4937 4.97762L15.483 4.98042L15.4722 4.98322L15.4615 4.98602L15.4507 4.98882L15.4399 4.99162L15.4293 4.99443L15.4185 4.99723L15.4078 5.00003L15.397 5.00352L15.3862 5.00632L15.3755 5.00982L15.3655 5.01332L15.3547 5.01681L15.3439 5.02031L15.3332 5.02382L15.3224 5.02732L15.3117 5.03082L15.3015 5.03431L15.2909 5.03781L15.2801 5.04202L15.2694 5.04551L15.2586 5.04901L15.2478 5.05322L15.2371 5.05672L15.2263 5.06021L15.2163 5.06371L15.2054 5.0679L15.1948 5.07211L15.184 5.0763L15.1739 5.08051L15.1631 5.0847L15.1531 5.08891L15.1431 5.09311L15.1323 5.09801L15.1215 5.1022L15.1108 5.1064L15.1 5.1106L15.0899 5.11551L15.0798 5.1197L15.0691 5.12461L15.0591 5.1295L15.0489 5.1344L15.0389 5.1393L15.0281 5.14419L15.018 5.1491L15.0072 5.154L14.9972 5.15889L14.9872 5.1638L14.977 5.16869L14.9663 5.17359L14.9562 5.17849L14.9461 5.18339L14.9361 5.18899L14.9259 5.19459L14.9159 5.19949L14.9059 5.20509L14.8957 5.20998L14.8857 5.21558L14.8757 5.22118L14.8655 5.22678L14.8555 5.23238L14.8453 5.23798L14.8353 5.24428L14.8259 5.24988L14.8158 5.25548L14.8063 5.26108L14.7963 5.26738L14.7863 5.27368L14.7761 5.27998L14.7667 5.28558L14.7567 5.29187L14.7473 5.29817L14.7371 5.30447L14.7271 5.31077L14.7164 5.31777L7.97052 9.64869L7.9591 9.6564L7.94836 9.66339L7.93828 9.67038L7.92819 9.67739L7.91812 9.68439L7.90804 9.69138L7.89797 9.69839L7.88788 9.70538L7.87781 9.71238L7.86773 9.71938L7.85765 9.72638L7.84757 9.73338L7.8375 9.74107L7.82808 9.74807L7.81868 9.75508L7.8086 9.76207L7.79919 9.76908L7.78979 9.77607L7.78038 9.78307L7.77097 9.79007L7.76157 9.79707L7.75217 9.80406L7.74275 9.81177L7.73335 9.81876L7.72395 9.82646L7.71453 9.83417L7.70513 9.84186L7.69573 9.84956L7.68631 9.85725L7.67691 9.86496L7.66817 9.87266L7.65877 9.88035L7.64936 9.88806L7.64062 9.89575L7.63122 9.90345L7.62182 9.91116L7.61308 9.91885L7.60367 9.92655L7.59493 9.93424L7.5862 9.94195L7.57747 9.95035L7.56873 9.95875L7.56 9.96644L7.55127 9.97414L7.54253 9.98254L7.5338 9.99093L7.52506 9.99933L7.51633 10.0077L7.5076 10.0161L7.49886 10.0245L7.49012 10.0329L7.48138 10.0413L7.47265 10.0497L7.46392 10.0581L7.45518 10.0665L7.44712 10.0749L7.43838 10.0833L7.43032 10.0924L7.42158 10.1008L7.41353 10.1099L7.40547 10.1183L7.3974 10.1274L7.38934 10.1358L7.38127 10.1449L7.37321 10.154L7.36448 10.1631L7.35641 10.1715L7.34836 10.1806L7.34029 10.1897L7.33223 10.1988L7.32483 10.2079L7.31678 10.217L7.30872 10.2261L7.30065 10.2352L7.29259 10.245L7.28452 10.2541L7.27714 10.2632L7.26974 10.2723L7.26168 10.2821L7.25429 10.2912L7.24623 10.3003L7.23883 10.3101L7.23145 10.3192L7.22405 10.329L7.21666 10.3388L7.20927 10.3486L7.20188 10.3584L7.1945 10.3682L7.1871 10.378L7.18038 10.3878L7.17299 10.3976L7.16559 10.4074L7.15821 10.4172L7.15081 10.427L7.1441 10.4368L7.13737 10.4466L7.13066 10.4564L7.12394 10.4669L7.11722 10.4767L7.1105 10.4865L7.10379 10.497L7.09706 10.5068L7.09035 10.5166L7.08363 10.5264L7.0769 10.5361L7.07086 10.5467L7.06414 10.5571L7.05742 10.5669L7.0507 10.5774L7.04466 10.5879L7.03861 10.5977L7.03257 10.6082L7.02652 10.6187L7.02046 10.6292L7.01442 10.6397L7.0077 10.6502L7.00099 10.6607L6.99493 10.6712L6.98889 10.6817L6.98284 10.6922L6.97679 10.7027L6.97075 10.7132L6.9647 10.7237L6.95866 10.7342L6.95261 10.7447L6.94655 10.7552L6.94051 10.7657L6.93446 10.7769L6.92842 10.7874L6.92237 10.7979L6.91633 10.8091L6.91095 10.8196L6.90557 10.8308L6.9002 10.842L6.89482 10.8532L6.88944 10.8637L6.88407 10.8742L6.8787 10.8854L6.87333 10.8959L6.86795 10.9071L6.86324 10.9176L6.85787 10.9288L6.85249 10.94L6.84711 10.9512L6.84175 10.9624L6.83637 10.9736L6.83167 10.9848L6.82696 10.996L6.82226 11.0072L6.81756 11.0184L6.81285 11.0296L6.80815 11.0408L6.80345 11.052L6.79874 11.0632L6.79404 11.0744L6.79 11.0856L6.78531 11.0968L6.7806 11.1087L6.77589 11.1199L6.7712 11.1311L6.76649 11.1423L6.76246 11.1535L6.75776 11.1654L6.75305 11.1765L6.74902 11.1877L6.745 11.1996L6.74096 11.2108L6.73693 11.2227L6.73289 11.2339L6.72887 11.2458L6.72483 11.2577L6.7208 11.2696L6.71745 11.2815L6.71341 11.2927L6.70938 11.3046L6.70602 11.3165L6.70267 11.3277L6.69931 11.3396L6.69527 11.3515L6.69191 11.3627L6.68856 11.3739L6.6852 11.3858L6.68116 11.3977L6.6778 11.4096L6.67445 11.4208L6.67109 11.4327L6.66772 11.4446L6.66436 11.4565L6.661 11.4684L6.65765 11.4803L6.65496 11.4922L6.65227 11.5041L6.64891 11.516L6.64623 11.5279L6.64287 11.5398L6.64018 11.5517L6.63749 11.5636L6.6348 11.5762L6.63211 11.5881L6.62943 11.6L6.62674 11.6119L6.62405 11.6238L6.62136 11.6357L6.61867 11.6476L6.61665 11.6595L6.61398 11.6714L6.61196 11.6833L6.60994 11.6959L6.60792 11.7085L6.60591 11.7211L6.60389 11.7337L6.60187 11.7456L6.59987 11.7575L6.59785 11.7701L6.59583 11.7827L6.59381 11.7946L6.5918 11.8065L6.58978 11.8184L6.58776 11.8309L6.58643 11.8435L6.58508 11.8561L6.58374 11.868L6.58172 11.8806L6.5797 11.8925L6.57836 11.9051L6.57702 11.9177L6.57567 11.9303L6.57434 11.9429L6.57299 11.9555L6.57165 11.9681L6.5703 11.98L6.56896 11.9926L6.56761 12.0052L6.56694 12.0178L6.5656 12.0304L6.56425 12.043L6.56358 12.0556L6.56291 12.0682L6.56223 12.0808L6.56156 12.0934L6.56089 12.106L6.56023 12.1186L6.55954 12.1312L6.55887 12.1438L6.55821 12.1564L6.55754 12.169V12.1816L6.55686 12.1942L6.55619 12.2068V12.2194L6.55552 12.232V21.1066L6.55619 21.1192V21.157L6.55686 21.1689L6.55754 21.1815L6.55821 21.1941L6.55887 21.2067L6.55954 21.2193L6.56023 21.2319L6.56089 21.2445L6.56156 21.2571L6.56223 21.2697L6.56358 21.2823L6.56425 21.2949L6.56492 21.3075L6.5656 21.3201L6.56694 21.332L6.56828 21.3446L6.56963 21.3565L6.5703 21.3691L6.57165 21.381L6.57299 21.3928L6.57434 21.4047L6.57567 21.4167L6.57702 21.4292L6.57836 21.4412L6.5797 21.4531L6.58105 21.4657L6.58239 21.4783L6.58374 21.4901L6.58508 21.5027L6.5871 21.5146L6.58911 21.5265L6.59113 21.5384L6.59314 21.5504L6.59516 21.563L6.59718 21.5748L6.59919 21.5867L6.60121 21.5986L6.60323 21.6105L6.60591 21.6225L6.60792 21.6342L6.60994 21.6462L6.61196 21.6581L6.61465 21.67L6.61734 21.6819L6.61934 21.6937L6.62203 21.7057L6.62472 21.7176L6.62741 21.7295L6.6301 21.7414L6.63278 21.7532L6.63547 21.7652L6.63816 21.7771L6.64085 21.7883L6.64421 21.7995L6.64689 21.8114L6.64958 21.8233L6.65227 21.8352L6.65563 21.847L6.65832 21.8583L6.661 21.8702L6.66369 21.8813L6.66705 21.8932L6.66974 21.9045L6.67309 21.9164L6.67645 21.9282L6.67982 21.9395L6.68318 21.9514L6.68654 21.9633L6.68989 21.9744L6.69325 21.9864L6.69729 21.9976L6.70132 22.0087L6.70535 22.02L6.70938 22.0311L6.71274 22.0424L6.71678 22.0543L6.7208 22.0654L6.72483 22.0767L6.72887 22.0878L6.73289 22.099L6.73693 22.1103L6.74096 22.1214L6.745 22.1327L6.74902 22.1438L6.75305 22.1551L6.75776 22.1662L6.76246 22.1774L6.76649 22.1887L6.77053 22.1998L6.77456 22.2111L6.77858 22.2222L6.78262 22.2334L6.78732 22.2446L6.79202 22.2558L6.79673 22.2671L6.80143 22.2782L6.80613 22.2894L6.81084 22.3006L6.81554 22.3118L6.82024 22.3231L6.82495 22.3342L6.82965 22.3454L6.83435 22.3566L6.83906 22.3672L6.84444 22.3783L6.8498 22.3889L6.85518 22.4L6.86055 22.4104L6.86593 22.421L6.87131 22.4315L6.87669 22.442L6.88206 22.4525L6.88744 22.4629L6.89348 22.4735L6.89886 22.484L6.90424 22.4944L6.9096 22.505L6.91566 22.5155L6.9217 22.5259L6.92708 22.5365L6.93244 22.547L6.93782 22.5574L6.94387 22.568L6.94924 22.5784L6.95529 22.5882L6.96135 22.5988L6.96739 22.6086L6.97344 22.619L6.97948 22.6295L6.98553 22.6394L6.99157 22.6492L6.99762 22.659L7.00366 22.6688L7.00972 22.6792L7.01577 22.6898L7.02248 22.6996L7.02853 22.7094L7.03457 22.7198L7.04062 22.7296L7.04668 22.7395L7.05339 22.7493L7.06011 22.7591L7.06683 22.7695L7.07355 22.7793L7.08026 22.7891L7.08699 22.799L7.0937 22.8088L7.10042 22.8185L7.10714 22.8283L7.11386 22.8381L7.12126 22.8479L7.12864 22.8577L7.13537 22.8675L7.14208 22.8774L7.14879 22.8871L7.15552 22.8969L7.1629 22.906L7.1703 22.9152L7.1777 22.9249L7.18508 22.934L7.19248 22.9438L7.19986 22.9529L7.20725 22.962L7.21465 22.9712L7.22203 22.9801L7.22943 22.9892L7.23681 22.9984L7.24421 23.0075L7.2516 23.0166L7.25899 23.0257L7.26638 23.0348L7.27377 23.0439L7.28183 23.053L7.2899 23.0621L7.29729 23.0712L7.30536 23.0796L7.31341 23.0887L7.32148 23.0971L7.32954 23.1062L7.33694 23.1153L7.34499 23.1244L7.35305 23.1327L7.36112 23.1412L7.36918 23.1496L7.37725 23.1579L7.38531 23.167L7.39336 23.1755L7.40143 23.1839L7.40949 23.1922L7.41756 23.2007L7.42562 23.2091L7.43436 23.2174L7.44242 23.2259L7.45049 23.2343L7.45922 23.2426L7.46727 23.2511L7.47534 23.2595L7.48407 23.2678L7.49281 23.2756L7.50154 23.2832L7.51029 23.2917L7.51902 23.3001L7.52775 23.3077L7.53649 23.3155L7.54522 23.3238L7.55395 23.3322L7.56269 23.3399L7.57209 23.3477L7.58151 23.3553L7.59091 23.3631L7.59964 23.3707L7.60838 23.3785L7.61778 23.3861L7.62651 23.3939L7.63593 23.4009L7.64466 23.4085L7.65406 23.4163L7.66347 23.4239L7.67288 23.4317L7.68162 23.4386L7.69102 23.4463L7.70042 23.4534L7.70984 23.461L7.71924 23.4688L7.72864 23.4758L7.73806 23.4827L7.74813 23.4897L7.75753 23.4968L7.76695 23.5038L7.77635 23.5107L7.78575 23.5177L7.79517 23.5247L7.80457 23.5318L7.81465 23.5387L7.82473 23.545L7.83481 23.552L7.84421 23.559L7.85428 23.5661L7.86437 23.573L7.87377 23.5793L7.88386 23.5856L7.89393 23.5919L7.90401 23.5982L7.91408 23.6045L7.92417 23.6108L7.93492 23.6171L7.94499 23.6234L7.95508 23.6297L7.9665 23.6367L14.9999 27.9201L15.0087 27.9257L15.016 27.9298L15.0241 27.934L15.0322 27.9383L15.0402 27.9424L15.0476 27.9473L15.0556 27.9515L15.0637 27.9557L15.0718 27.9599L15.0798 27.9648L15.0879 27.969L15.096 27.9733L15.1041 27.9774L15.1121 27.9816L15.1202 27.9858L15.1283 27.99L15.1362 27.9942L15.1444 27.9984L15.1517 28.0026L15.1598 28.0067L15.1679 28.011L15.1759 28.0145L15.184 28.0187L15.1921 28.0222L15.2002 28.0258L15.2082 28.0293L15.2163 28.0334L15.2244 28.0376L15.2323 28.041L15.2404 28.0453L15.2485 28.0488L15.2565 28.0523L15.2646 28.0558L15.2727 28.0593L15.2807 28.0628L15.2888 28.0662L15.2969 28.0699L15.3049 28.0733L15.313 28.0768L15.3211 28.0796L15.3298 28.0831L15.3378 28.0866L15.3459 28.0901L15.354 28.0936L15.362 28.0971L15.3701 28.0999L15.3782 28.1034L15.3862 28.1062L15.3943 28.109L15.403 28.1118L15.4111 28.1146L15.4185 28.1174L15.4359 28.123L15.4528 28.1285L15.4695 28.1335L15.4864 28.1385L15.5031 28.1433L15.5199 28.1482L15.5368 28.1531L15.5535 28.158L15.5704 28.1628L15.5871 28.1671L15.6039 28.1713L15.6207 28.1754L15.6375 28.1789L15.6544 28.1832L15.6711 28.1867L15.6879 28.1902L15.7046 28.1937L15.7215 28.1965L15.7383 28.2L15.7551 28.2028L15.7719 28.2056L15.7894 28.2084L15.8061 28.2112L15.8236 28.2132L15.8411 28.2154L15.8586 28.2175L15.876 28.2188L15.8928 28.2203L15.9103 28.2217L15.927 28.2231L15.9445 28.2245L15.962 28.2258L15.9789 28.2273L15.9956 28.228L16.0125 28.2286L16.0299 28.2294H16.1159L16.1334 28.2286H16.1509L16.1683 28.228L16.1858 28.2273L16.2032 28.2258L16.2207 28.2245L16.2382 28.2238L16.2557 28.2223L16.2732 28.221L16.2905 28.2195L16.3074 28.2182L16.3249 28.216L16.3424 28.214L16.3591 28.2119L16.3766 28.2097L16.3934 28.2069L16.4108 28.2042L16.4277 28.2014L16.4452 28.1986L16.4619 28.1958L16.4787 28.1923L16.4956 28.1895L16.5129 28.186L16.5298 28.1825L16.5466 28.1782L16.5634 28.1748L16.5802 28.1706L16.5969 28.1663L16.6138 28.1622L16.6306 28.158L16.6474 28.1531L16.6642 28.1482L16.6809 28.1433L16.6978 28.1385L16.7153 28.1328L16.7232 28.13L16.7313 28.1272L16.7394 28.1244L16.7482 28.1216L16.7562 28.1188L16.7649 28.1159L16.773 28.1131L16.7811 28.1105L16.7899 28.1076L16.7978 28.1048L16.8059 28.102L16.8147 28.0985L16.8228 28.0957L16.8314 28.0929L16.8395 28.0894L16.8476 28.0866L16.8557 28.0838L16.8637 28.081L16.8724 28.0775L16.8806 28.0747L16.8885 28.0712L16.8966 28.0677L16.9047 28.0642L16.9128 28.0607L16.9208 28.0573L16.9289 28.0536L16.937 28.0502L16.945 28.0467L16.9531 28.0432L16.9612 28.0397L16.9692 28.0356L16.9773 28.0313L16.9854 28.0278L16.9934 28.0236L17.0015 28.0195L17.0096 28.0159L17.0175 28.0117L17.0256 28.0076L17.0337 28.0033L17.0411 27.9991L17.0492 27.995L17.0573 27.9907L17.0653 27.9865L17.0734 27.9824L17.0815 27.9781L17.0894 27.9739L17.0975 27.9698L17.1056 27.9655L17.113 27.9613L17.1211 27.9572L17.1292 27.9529L17.1378 27.9481L24.9299 23.4246L24.9393 23.4197L24.948 23.4148L24.956 23.41L24.9641 23.405L24.9722 23.4002L24.9802 23.3946L24.9889 23.3896L24.997 23.3848L25.0051 23.3798L25.0131 23.375L25.0212 23.3694L25.0293 23.3637L25.0373 23.3588L25.0454 23.354L25.0535 23.349L25.0616 23.3435L25.0695 23.3379L25.0777 23.3329L25.0858 23.3273L25.0937 23.3225L25.1012 23.3168L25.1085 23.3112L25.116 23.3056L25.1233 23.3001L25.1308 23.2945L25.1388 23.2888L25.1462 23.2832L25.1542 23.2777L25.1616 23.2721L25.169 23.2665L25.1764 23.2608L25.1838 23.2552L25.1912 23.2497L25.1992 23.2441L25.2067 23.2378L25.214 23.2322L25.2215 23.2259L25.2288 23.2202L25.2363 23.2139L25.2436 23.2076L25.251 23.2013L25.2584 23.1957L25.2657 23.1902L25.2732 23.1839L25.2799 23.1776L25.2873 23.1713L25.2946 23.165L25.3013 23.1594L25.3088 23.1531L25.3161 23.146L25.3228 23.1397L25.3303 23.1334L25.337 23.1271L25.3437 23.1208L25.3505 23.1139L25.3578 23.1076L25.3645 23.1006L25.3713 23.0943L25.378 23.0873L25.3847 23.0802L25.3914 23.0739L25.3982 23.067L25.4049 23.0607L25.4116 23.0537L25.4183 23.0467L25.4249 23.0398L25.4318 23.0327L25.4378 23.0257L25.4445 23.0187L25.4505 23.0118L25.4572 23.0047L25.4639 22.9977L25.4707 22.9907L25.4768 22.9838L25.4828 22.9767L25.4889 22.9697L25.4949 22.9627L25.5016 22.9557L25.5077 22.9486L25.5137 22.9417L25.5197 22.9347L25.5258 22.9277L25.5318 22.9206L25.5379 22.9137L25.5439 22.9067L25.55 22.8991L25.556 22.8913L25.5621 22.8837L25.5681 22.8766L25.5742 22.8696L25.5802 22.8626L25.5862 22.8549L25.5923 22.8479L25.5983 22.8403L25.6037 22.8333L25.6091 22.8255L25.6145 22.8179L25.6198 22.8108L25.6259 22.8031L25.6313 22.7954L25.6367 22.7877L25.6421 22.7801L25.6473 22.7723L25.6527 22.7647L25.6581 22.7569L25.6635 22.7493L25.669 22.7415L25.6742 22.7339L25.6796 22.7261L25.685 22.7185L25.6904 22.7107L25.6951 22.7031L25.6998 22.6946L25.7052 22.6863L25.7106 22.6785L25.7153 22.6709L25.72 22.6631L25.7253 22.6548L25.7307 22.647L25.7354 22.6394L25.7401 22.631L25.7448 22.6225L25.7495 22.6142L25.7542 22.6058L25.759 22.598L25.7636 22.5897L25.7684 22.5813L25.773 22.5736L25.7778 22.5652L25.7824 22.5567L25.7872 22.5484L25.7911 22.54L25.7953 22.5316L25.7999 22.5231L25.8047 22.5148L25.8086 22.5064L25.8134 22.4979L25.818 22.4896L25.8221 22.4812L25.8261 22.4727L25.8301 22.4636L25.8342 22.4553L25.8389 22.4469L25.8436 22.4384L25.8476 22.4301L25.8516 22.4217L25.8557 22.4132L25.8597 22.4041L25.8637 22.3958L25.8678 22.3874L25.8718 22.3783L25.8759 22.3698L25.8799 22.3615L25.8839 22.3524L25.888 22.3433L25.892 22.3342L25.896 22.3257L25.8993 22.3174L25.9027 22.3083L25.9061 22.2992L25.9095 22.2901L25.9128 22.2817L25.9162 22.2726L25.9195 22.2636L25.9229 22.2545L25.9262 22.246L25.9295 22.2369L25.933 22.2278L25.9364 22.2187L25.9397 22.2096L25.9431 22.2005L25.9458 22.1914L25.9485 22.1824L25.9512 22.1733L25.9537 22.1642L25.9572 22.1551L25.9605 22.1459L25.9639 22.1368L25.9672 22.1277L25.9699 22.1186L25.9733 22.1095L25.976 22.1004L25.9787 22.0914L25.982 22.0823L25.9847 22.0732L25.9874 22.0641L25.9901 22.055L25.9927 22.0459L25.9948 22.0367L25.9975 22.0276L26.0002 22.0185L26.0029 22.0094L26.0056 22.0003L26.0075 21.9913L26.0096 21.9814L26.0123 21.9723L26.0143 21.9633L26.0162 21.9534L26.0189 21.9444L26.021 21.9353L26.0229 21.9262L26.025 21.9171L26.027 21.9073L26.0291 21.8982L26.031 21.8891L26.0324 21.8793L26.0344 21.8695L26.0364 21.8604L26.0377 21.8506L26.0398 21.8415L26.0418 21.8317L26.0438 21.8218L26.0458 21.8129L26.0479 21.8029L26.0492 21.7932L26.0512 21.7834L26.0525 21.7743L26.0546 21.7652L26.0559 21.7554L26.0573 21.7456L26.0586 21.7358L26.06 21.726L26.0613 21.7162L26.0627 21.7065L26.064 21.6966L26.0646 21.6868L26.066 21.6777L26.0667 21.6679L26.0679 21.6581L26.0694 21.649L26.0707 21.6392L26.0714 21.6294L26.0721 21.6196L26.0727 21.6099L26.0734 21.6001L26.0748 21.5902L26.0754 21.5804L26.0761 21.5706L26.0767 21.5608L26.0775 21.551L26.0781 21.5413L26.0788 21.5315L26.0794 21.5216L26.0802 21.5118L26.0808 21.502L26.0815 21.4922L26.0821 21.4824V21.4629L26.0827 21.4531V11.7644L26.0821 11.7558L26.0815 11.7467V11.7376L26.0808 11.7285V11.7194L26.0802 11.7103V11.7012L26.0794 11.6921L26.0788 11.6837L26.0781 11.6746L26.0775 11.6655L26.0767 11.6564L26.0761 11.648L26.0754 11.6389L26.0748 11.6305L26.074 11.6214L26.0727 11.6123L26.0721 11.6039L26.0714 11.5955L26.07 11.5871L26.0694 11.5787L26.0679 11.5696L26.0673 11.5612L26.066 11.5528L26.0646 11.5437L26.064 11.5346L26.0633 11.5262L26.0619 11.5185L26.0593 11.5001L26.0573 11.4823L26.0546 11.4641L26.0519 11.4466L26.0485 11.4291L26.0452 11.4116L26.0425 11.3941L26.0391 11.3766L26.0351 11.3591L26.031 11.3416L26.027 11.3241L26.0229 11.3066L26.0189 11.2891L26.015 11.2716L26.0108 11.2541L26.0062 11.2366L26.0014 11.2191L25.9968 11.2016L25.9914 11.1841L25.9867 11.1673L25.9814 11.1505L25.976 11.1337L25.9706 11.1169L25.9652 11.1001L25.9591 11.0833L25.9531 11.0665L25.947 11.0504L25.941 11.0336L25.9349 11.0168L25.9289 11L25.9222 10.9839L25.9162 10.9671L25.9095 10.951L25.9027 10.935L25.896 10.9189L25.8886 10.9028L25.882 10.8867L25.8745 10.8706L25.8672 10.8545L25.8597 10.8391L25.8516 10.823L25.8443 10.8069L25.8362 10.7908L25.8282 10.7754L25.8201 10.76L25.812 10.7446L25.804 10.7292L25.7959 10.7138L25.7872 10.6984L25.7784 10.683L25.7697 10.6676L25.7603 10.6522L25.7515 10.6375L25.7428 10.6228L25.7334 10.6081L25.724 10.5934L25.7146 10.5787L25.7052 10.564L25.6958 10.5493L25.6863 10.5346L25.6763 10.5206L25.6662 10.5066L25.6561 10.4926L25.6461 10.4786L25.636 10.4646L25.6252 10.4506L25.6145 10.4366L25.6037 10.4226L25.5929 10.4086L25.5823 10.3953L25.5708 10.382L25.56 10.3687L25.5487 10.3554L25.5372 10.3421L25.5258 10.3288L25.5143 10.3156L25.5029 10.3022L25.4908 10.2897L25.4787 10.2771L25.4666 10.2645L25.4545 10.2519L25.4424 10.2393L25.4297 10.2267L25.417 10.2141L25.4042 10.2022L25.3914 10.1903L25.3786 10.1784L25.3659 10.1665L25.3532 10.1546L25.3397 10.1427L25.3263 10.1315L25.3128 10.1203L25.3 10.1091L25.2859 10.0972L25.2799 10.0923L25.2732 10.0867L25.2665 10.0811L25.2597 10.0755L25.253 10.0699L25.2463 10.065L25.2396 10.0594L25.2329 10.0538L25.2254 10.0482L25.2181 10.0426L25.2113 10.037L25.2046 10.0314L25.1979 10.0258L25.1912 10.0209L25.1844 10.0153L25.1771 10.0097L25.1704 10.0048L25.1636 9.99989L25.1562 9.99429L25.1489 9.9894L25.1415 9.9845L25.1348 9.9796L25.1273 9.97471L25.12 9.9698L25.1126 9.9649L25.1052 9.96001L25.0978 9.9551L25.0904 9.9502L25.0831 9.94531L25.0756 9.94041L25.0683 9.9355L25.0608 9.93131L25.0535 9.92711L25.0447 9.92221L17.4416 5.2757L17.4308 5.26884L17.4212 5.26325L17.411 5.25694L17.401 5.25065L17.3911 5.24484L17.381 5.23924L17.3713 5.23364L17.3612 5.22804L17.3511 5.22244L17.341 5.21684L17.3311 5.21124L17.3211 5.20565L17.3111 5.20005L17.3009 5.19445L17.2909 5.18885L17.2807 5.18325L17.2707 5.17765L17.2604 5.17275L17.2504 5.16716L17.2402 5.16226L17.2302 5.15735L17.2201 5.15175L17.2097 5.14686L17.1995 5.14196L17.1895 5.13705L17.1791 5.13216L17.1689 5.12726L17.1589 5.12306L17.1485 5.11816L17.1383 5.11326L17.1282 5.10837L17.1177 5.10416L17.1077 5.09997L17.0969 5.09576L17.0866 5.09087L17.0759 5.08666L17.0653 5.08177L17.0545 5.07756L17.044 5.07337L17.0336 5.06918L17.0231 5.06497L17.0124 5.06077L17.0016 5.05657L16.9916 5.05237L16.9814 5.04888L16.9714 5.04537L16.9606 5.04117L16.9499 5.03768L16.9397 5.03418L16.929 5.03068L16.9182 5.02717L16.9082 5.02367L16.8974 5.02018L16.8867 5.01668L16.8759 5.01318L16.8659 5.00967L16.8551 5.00618L16.8444 5.00268L16.8336 4.99918L16.8229 4.99638L16.8121 4.99288L16.8013 4.99008L16.7906 4.98659L16.7798 4.98379L16.7692 4.98099L16.7584 4.97819L16.7477 4.97469L16.7369 4.97189L16.7261 4.96909L16.7154 4.96698L16.7046 4.96418L16.6939 4.96138L16.6831 4.95858L16.6723 4.95648L16.6616 4.95369L16.6508 4.95159L16.6401 4.94949L16.6293 4.94669L16.6187 4.94458L16.6079 4.94249L16.5971 4.94039L16.5864 4.93829L16.5756 4.93619L16.5649 4.93409L16.5535 4.93199L16.5427 4.93059L16.532 4.92919L16.5212 4.92779L16.5105 4.92639L16.4997 4.9243L16.4889 4.92219L16.4782 4.92079L16.4668 4.9187L16.456 4.91729L16.4453 4.9152L16.4345 4.91379L16.4238 4.9124L16.413 4.91099L16.4023 4.9096L16.3915 4.90819L16.3801 4.9068L16.3694 4.90609L16.3586 4.90469L16.3478 4.9033L16.3371 4.90259L16.3263 4.90189L16.3156 4.9012L16.3048 4.9005L16.2941 4.89979L16.2827 4.89909L16.2712 4.8984L16.2604 4.8977L16.2498 4.89699H16.239L16.2283 4.89629L16.2175 4.8956H16.206L16.1954 4.8949L16.1846 4.89419L16.1745 4.89349L16.1637 4.8928H16.1416L16.1308 4.8921H16.1093L16.0985 4.89679Z" fill="#D20F39"/>
<path fill-rule="evenodd" clip-rule="evenodd" d="M26.9892 11.8216V20.3781L26.9878 20.378V21.3816C26.9878 22.5672 26.3717 23.6598 25.3773 24.2372C24.4909 24.7514 23.3288 25.4256 22.1273 26.1227C20.4871 27.0743 18.7734 28.0685 17.5874 28.7566C16.6407 29.3058 15.4857 29.2935 14.5504 28.7238L7.51436 24.4396C6.35802 23.7355 5.64716 22.445 5.64716 21.0496V12.2889C5.64716 10.8821 6.34727 9.57613 7.49688 8.83775C9.32449 7.66361 12.1144 5.87163 14.0096 4.65441L14.2488 4.50074C15.3635 3.78475 16.7664 3.76921 17.8957 4.46015L25.5027 9.11582C26.4235 9.67951 26.9892 10.7089 26.9892 11.8216ZM10.9855 9.23831V23.7414H13.8984V17.4H18.7304V23.7414H21.6518V9.23831H18.7304V14.521H13.8984V9.23831H10.9855Z" fill="#EBA0AC"/>
</svg>
