<svg width="33" height="33" viewBox="0 0 33 33" fill="none" xmlns="http://www.w3.org/2000/svg">
<path fill-rule="evenodd" clip-rule="evenodd" d="M10.5147 22.788C12.1548 23.3936 14.0531 23.7771 16.2136 23.7771C23.2283 23.7771 27.5842 19.7359 29.2815 17.1675C29.5634 16.7411 29.5223 16.188 29.1931 15.7969C28.6552 15.158 27.9404 14.4222 27.073 13.6809L21.4167 16.7918C21.3384 19.4918 19.1252 21.6563 16.4064 21.6563C15.4716 21.6563 14.5965 21.4005 13.8475 20.9549L10.5147 22.788ZM12.8915 13.0704L3.91225 18.0091C3.68001 17.7086 3.4778 17.4184 3.30544 17.145C3.04267 16.7283 3.08309 16.1987 3.39356 15.8161C5.42073 13.3191 10.1305 9.31812 16.2136 9.31812C17.2304 9.31812 18.2117 9.42989 19.151 9.62773L15.2742 11.7599C14.3587 11.9713 13.539 12.4336 12.8915 13.0704ZM15.6388 19.9697C15.8557 20.0138 16.0801 20.037 16.3101 20.037C17.7406 20.037 18.9618 19.1402 19.4418 17.8781L15.6388 19.9697Z" fill="#6C7086"/>
<path d="M3.29956 22.5516L28.3357 8.78174" stroke="#6C7086" stroke-width="3.44535" stroke-linecap="round"/>
</svg>
