<svg width="33" height="33" viewBox="0 0 33 33" fill="none" xmlns="http://www.w3.org/2000/svg">
<path fill-rule="evenodd" clip-rule="evenodd" d="M13.6573 21.3346C12.6234 21.9032 12.7624 23.3629 13.9268 23.554C14.8017 23.6976 15.7306 23.7771 16.7137 23.7771C23.7284 23.7771 28.0843 19.7359 29.7816 17.1675C30.0635 16.7411 30.0224 16.188 29.6932 15.7969C29.5085 15.5774 29.3029 15.3466 29.0774 15.108C28.22 14.2007 26.8492 14.079 25.7555 14.6806L23.4201 15.965C22.4887 16.4773 21.9642 17.475 21.5778 18.4653C20.849 20.3331 19.0323 21.6563 16.9065 21.6563C16.252 21.6563 15.6268 21.5309 15.0537 21.3028C14.6002 21.1223 14.085 21.0994 13.6573 21.3346V21.3346ZM13.6985 12.7925C13.4874 12.9684 13.2696 13.1376 13.0288 13.27L5.33788 17.5001C4.80511 17.7931 4.12988 17.6593 3.80556 17.145V17.145C3.54279 16.7283 3.58321 16.1987 3.89368 15.8161C5.92085 13.3191 10.6306 9.31812 16.7137 9.31812V9.31812C17.7318 9.31812 17.9505 10.5631 17.0584 11.0537L15.9642 11.6555C15.8382 11.7248 15.7028 11.7749 15.5643 11.8133C14.8702 12.0057 14.2366 12.3438 13.6985 12.7925ZM16.731 19.644C16.5288 19.7553 16.5793 20.037 16.8102 20.037V20.037C17.4643 20.037 18.0746 19.8495 18.5903 19.5253C19.2181 19.1307 18.6919 18.5656 18.0422 18.9229L16.731 19.644Z" fill="#1E66F5" fill-opacity="0.5"/>
<path d="M3.79956 22.5516L28.8357 8.78174" stroke="#5C5F77" stroke-width="3.44535" stroke-linecap="round"/>
</svg>
