<svg width="33" height="33" viewBox="0 0 33 33" fill="none" xmlns="http://www.w3.org/2000/svg">
<path fill-rule="evenodd" clip-rule="evenodd" d="M11.0148 22.788C12.6549 23.3936 14.5532 23.7771 16.7137 23.7771C23.7284 23.7771 28.0843 19.7359 29.7816 17.1675C30.0635 16.7411 30.0224 16.188 29.6932 15.7969C29.1554 15.158 28.4406 14.4222 27.5731 13.6809L21.9168 16.7918C21.8385 19.4918 19.6254 21.6563 16.9065 21.6563C15.9717 21.6563 15.0966 21.4005 14.3477 20.9549L11.0148 22.788ZM13.3917 13.0704L4.41237 18.0091C4.18013 17.7086 3.97792 17.4183 3.80556 17.145C3.54279 16.7283 3.58321 16.1987 3.89368 15.8161C5.92085 13.3191 10.6306 9.31812 16.7137 9.31812C17.7305 9.31812 18.7118 9.42989 19.6511 9.62773L15.7743 11.7599C14.8588 11.9713 14.0391 12.4336 13.3917 13.0704ZM16.1389 19.9697C16.3558 20.0138 16.5803 20.037 16.8102 20.037C18.2408 20.037 19.4619 19.1402 19.942 17.8781L16.1389 19.9697Z" fill="#1E66F5" fill-opacity="0.5"/>
<path d="M3.79956 22.5516L28.8357 8.78174" stroke="#5C5F77" stroke-width="3.44535" stroke-linecap="round"/>
</svg>
