<svg width="34" height="33" viewBox="0 0 34 33" fill="none" xmlns="http://www.w3.org/2000/svg">
<path d="M23.6578 5.82861H10.2593C8.03931 5.82861 6.23969 7.62824 6.23969 9.84819V23.2468C6.23969 25.4667 8.03931 27.2663 10.2593 27.2663H23.6578C25.8778 27.2663 27.6774 25.4667 27.6774 23.2468V9.84819C27.6774 7.62824 25.8778 5.82861 23.6578 5.82861Z" fill="#FE640B" fill-opacity="0.2"/>
<path d="M18.8517 18.443C17.8053 17.3966 16.1085 17.3966 15.0621 18.443L8 26.7441L10 27.2441H16L25.5 26.7441L26.3359 25.9272L18.8517 18.443Z" fill="#DC8A78"/>
<path d="M23.6578 5.82861H10.2593C8.03931 5.82861 6.23969 7.62824 6.23969 9.84819V23.2468C6.23969 25.4667 8.03931 27.2663 10.2593 27.2663H23.6578C25.8778 27.2663 27.6774 25.4667 27.6774 23.2468V9.84819C27.6774 7.62824 25.8778 5.82861 23.6578 5.82861Z" stroke="#4C4F69" stroke-linejoin="round"/>
<path d="M20.9776 15.2078C22.4575 15.2078 23.6573 14.0081 23.6573 12.5281C23.6573 11.0481 22.4575 9.84839 20.9776 9.84839C19.4976 9.84839 18.2979 11.0481 18.2979 12.5281C18.2979 14.0081 19.4976 15.2078 20.9776 15.2078Z" fill="#DF8E1D"/>
</svg>
