<svg width="33" height="33" viewBox="0 0 33 33" fill="none" xmlns="http://www.w3.org/2000/svg">
<path d="M8.55265 5.49219C7.31139 5.49219 6.30518 6.54035 6.30518 7.83332V13.9344C6.30518 19.263 10.4521 23.5827 15.5675 23.5827C20.2118 23.5827 24.0579 20.022 24.7269 15.3785C24.7715 9.84796 24.7715 12.5277 24.7715 7.30125C24.5404 6.26462 23.6478 5.49219 22.5824 5.49219H8.55265Z" stroke="#d20f39" stroke-width="3"/>
<path d="M6 28H26.5802" stroke="#d20f39" stroke-width="3" stroke-linecap="round"/>
<mask id="mask0_2_562" style="mask-type:alpha" maskUnits="userSpaceOnUse" x="26" y="5" width="6" height="11">
<path d="M30.3875 6.49902H27.8149V14.5382H30.3875V6.49902Z" fill="#BAC2DE" stroke="#d20f39" stroke-width="2.2969"/>
</mask>
<g mask="url(#mask0_2_562)">
<path d="M27.2315 13.8677C28.6522 13.8677 29.804 12.668 29.804 11.188C29.804 9.70805 28.6522 8.5083 27.2315 8.5083C25.8107 8.5083 24.6589 9.70805 24.6589 11.188C24.6589 12.668 25.8107 13.8677 27.2315 13.8677Z" stroke="#d20f39" stroke-width="3"/>
</g>
</svg>
