<svg width="33" height="33" viewBox="0 0 33 33" fill="none" xmlns="http://www.w3.org/2000/svg">
<path d="M11.3937 11.6992C11.3937 10.9119 12.0319 10.2737 12.8192 10.2737C13.6064 10.2737 14.2447 10.9119 14.2447 11.6992V19.7859C14.2447 20.6652 14.047 21.429 13.6518 22.0773C13.261 22.7257 12.717 23.2253 12.0198 23.5761C11.3226 23.927 10.5121 24.1024 9.58846 24.1024C8.7669 24.1024 8.02084 23.9581 7.35028 23.6695C6.68416 23.3763 6.1557 22.9323 5.76491 22.3371C5.60244 22.0879 5.47413 21.8122 5.37997 21.51C5.14146 20.7445 5.83329 20.079 6.63509 20.079H7.09608C7.63023 20.079 8.02438 20.5338 8.27619 21.0049C8.41829 21.258 8.61148 21.4535 8.85572 21.5911C9.10441 21.7243 9.3975 21.791 9.735 21.791C10.0903 21.791 10.39 21.7154 10.6343 21.5644C10.883 21.409 11.0717 21.1826 11.2005 20.885C11.3293 20.5875 11.3937 20.2211 11.3937 19.7859V11.6992ZM25.3325 14.1971C24.5932 14.1971 24.0278 13.5454 23.4768 13.0526C23.4348 13.0151 23.3905 12.9792 23.3439 12.9448C22.9398 12.6473 22.3913 12.4985 21.6986 12.4985C21.2279 12.4985 20.8303 12.5651 20.5062 12.6984C20.182 12.8271 19.9333 13.007 19.7602 13.2379C19.5914 13.4688 19.507 13.7308 19.507 14.024C19.4981 14.2682 19.5492 14.4814 19.6602 14.6635C19.7757 14.8456 19.9333 15.0031 20.1332 15.1363C20.333 15.2652 20.564 15.3784 20.8259 15.4761C21.088 15.5693 21.3678 15.6493 21.6652 15.7159L22.8909 16.009C23.4859 16.1423 24.0322 16.3198 24.5296 16.5418C25.0269 16.764 25.4577 17.037 25.8218 17.3613C26.186 17.6854 26.4681 18.0672 26.6678 18.507C26.8722 18.9466 26.9765 19.4507 26.981 20.019C26.9765 20.8539 26.7634 21.5778 26.3414 22.1907C25.9239 22.799 25.3201 23.2719 24.5296 23.6094C23.7436 23.9425 22.7955 24.1091 21.6853 24.1091C20.5839 24.1091 19.6247 23.9402 18.8076 23.6027C17.9949 23.2652 17.3598 22.7657 16.9025 22.104C16.6914 21.7936 16.5271 21.4489 16.4096 21.0701C16.1725 20.3058 16.8482 19.6327 17.6484 19.6327H17.7522C18.4438 19.6327 18.9576 20.2261 19.3738 20.7785C19.6092 21.0805 19.9222 21.3092 20.313 21.4646C20.7083 21.6155 21.1546 21.691 21.6519 21.691C22.1405 21.691 22.5645 21.62 22.9243 21.4779C23.2884 21.3357 23.5704 21.1381 23.7703 20.885C23.97 20.6319 24.07 20.341 24.07 20.0123C24.07 19.706 23.9789 19.4484 23.7968 19.2396C23.6193 19.031 23.3572 18.8533 23.0108 18.7068C22.6689 18.5602 22.2492 18.427 21.7519 18.3071L20.2664 17.9341C19.1163 17.6543 18.2081 17.2168 17.5419 16.6218C16.8759 16.0268 16.5449 15.2251 16.5495 14.2172C16.5449 13.3911 16.7648 12.6695 17.2088 12.0522C17.6574 11.4349 18.2724 10.9531 19.0541 10.6067C19.8356 10.2603 20.7238 10.0872 21.7185 10.0872C22.7311 10.0872 23.6148 10.2603 24.3697 10.6067C25.1291 10.9531 25.7198 11.4349 26.1415 12.0522C26.2958 12.278 26.4228 12.5168 26.5225 12.7687C26.8181 13.5158 26.136 14.1971 25.3325 14.1971Z" fill="#df8e1d"/>
</svg>
