<svg width="33" height="33" viewBox="0 0 33 33" fill="none" xmlns="http://www.w3.org/2000/svg">
<path d="M14.3498 22.144C14.3498 24.495 12.444 26.4008 10.0931 26.4008C7.74216 26.4008 5.83643 24.495 5.83643 22.144C5.83643 19.7931 7.74216 17.8875 10.0931 17.8875C12.444 17.8875 14.3498 19.7931 14.3498 22.144Z" fill="#d20f39" stroke="#d20f39" stroke-width="4.5938"/>
<path d="M20.8121 10.9517C20.8121 13.3026 18.9064 15.2084 16.5555 15.2084C14.2046 15.2084 12.2988 13.3026 12.2988 10.9517C12.2988 8.60079 14.2046 6.69507 16.5555 6.69507C18.9064 6.69507 20.8121 8.60079 20.8121 10.9517Z" fill="#40a02b" stroke="#40a02b" stroke-width="4.5938"/>
<path d="M28.6139 22.1436C28.6139 25.2345 26.1083 27.7402 23.0175 27.7402C19.9266 27.7402 17.4209 25.2345 17.4209 22.1436C17.4209 19.0528 19.9266 16.5471 23.0175 16.5471C26.1083 16.5471 28.6139 19.0528 28.6139 22.1436Z" fill="#8839ef"/>
</svg>
