<svg width="33" height="33" viewBox="0 0 33 33" fill="none" xmlns="http://www.w3.org/2000/svg">
<path d="M16.0788 5.12877C13.4798 5.13169 10.9573 6.00894 8.9174 7.61935C6.87746 9.22976 5.43866 11.4797 4.83253 14.007C5.7724 12.7652 7.33947 11.7064 9.33894 10.9622C11.3384 10.218 13.6821 9.8211 16.0788 9.82095C18.4806 9.82249 20.8284 10.2224 22.8292 10.9708C24.83 11.7192 26.3952 12.783 27.3293 14.0293C26.7273 11.4971 25.2897 9.24158 23.2485 7.62671C21.2073 6.01184 18.6815 5.13182 16.0788 5.12866V5.12877ZM4.82825 19.3859C5.43021 21.9181 6.8678 24.1736 8.90901 25.7885C10.9502 27.4034 13.476 28.2834 16.0788 28.2866C18.6778 28.2836 21.2002 27.4064 23.2401 25.796C25.2801 24.1856 26.7189 21.9357 27.325 19.4083C26.3851 20.6501 24.8181 21.7089 22.8186 22.4531C20.8191 23.1974 18.4754 23.5942 16.0788 23.5944C13.6769 23.5928 11.3291 23.1929 9.32831 22.4445C7.32751 21.6961 5.76238 20.6323 4.82825 19.386V19.3859Z" fill="#FE640B"/>
<path d="M4.16589 29.2237C4.16589 29.8669 4.42142 30.4838 4.87626 30.9387C5.33111 31.3935 5.94801 31.6491 6.59125 31.6491C7.2345 31.6491 7.8514 31.3935 8.30624 30.9387C8.76108 30.4838 9.01661 29.8669 9.01661 29.2237C9.01661 28.9052 8.95388 28.5898 8.83199 28.2956C8.7101 28.0013 8.53145 27.7339 8.30624 27.5087C8.08102 27.2835 7.81365 27.1048 7.5194 26.983C7.22514 26.8611 6.90975 26.7983 6.59125 26.7983C6.27275 26.7983 5.95737 26.8611 5.66311 26.983C5.36885 27.1048 5.10148 27.2835 4.87626 27.5087C4.65105 27.7339 4.4724 28.0013 4.35051 28.2956C4.22863 28.5898 4.16589 28.9052 4.16589 29.2237Z" fill="#9399B2"/>
<path d="M3.18164 5.83633C3.18164 6.30872 3.3693 6.76176 3.70333 7.0958C4.03736 7.42983 4.4904 7.61748 4.9628 7.61748C5.43519 7.61748 5.88823 7.42983 6.22226 7.0958C6.55629 6.76176 6.74395 6.30872 6.74395 5.83633C6.74395 5.36394 6.55629 4.91089 6.22226 4.57686C5.88823 4.24283 5.43519 4.05518 4.9628 4.05518C4.4904 4.05518 4.03736 4.24283 3.70333 4.57686C3.3693 4.91089 3.18164 5.36394 3.18164 5.83633Z" fill="#9CA0B0"/>
<path d="M23.6436 4.20665C23.6436 4.8097 23.8831 5.38805 24.3095 5.81447C24.736 6.24089 25.3143 6.48045 25.9173 6.48045C26.5204 6.48045 27.0987 6.24089 27.5252 5.81447C27.9516 5.38805 28.1911 4.8097 28.1911 4.20665C28.1911 3.60361 27.9516 3.02526 27.5252 2.59884C27.0987 2.17242 26.5204 1.93286 25.9173 1.93286C25.3143 1.93286 24.736 2.17242 24.3095 2.59884C23.8831 3.02526 23.6436 3.60361 23.6436 4.20665Z" fill="#7F849C"/>
</svg>
