<svg width="33" height="33" viewBox="0 0 33 33" fill="none" xmlns="http://www.w3.org/2000/svg">
<g clip-path="url(#clip0_145_815)">
<path d="M2.73802 19.3348C2.12752 19.0295 1.99549 18.2159 2.47813 17.7333L17.0323 3.1791C17.7494 2.46193 18.9555 3.1448 18.7095 4.12874L17.7699 7.88715C17.6563 8.34185 17.8736 8.8145 18.2929 9.02411L28.3931 14.0743C29.0036 14.3795 29.1357 15.1932 28.653 15.6758L14.0989 30.2299C13.3817 30.9471 12.1757 30.2642 12.4216 29.2803L13.3612 25.5219C13.4749 25.0672 13.2575 24.5945 12.8383 24.3849L2.73802 19.3348Z" fill="#9CA0B0"/>
<path d="M16.9744 11.069C17.1927 10.1962 16.2372 9.50161 15.4743 9.97845L3.0091 17.7692C2.34687 18.1831 2.3934 19.1624 3.09188 19.5116L12.4408 24.1861C13.013 24.4722 13.703 24.1548 13.8581 23.5342L16.9744 11.069Z" fill="url(#paint0_linear_145_815)"/>
</g>
<defs>
<linearGradient id="paint0_linear_145_815" x1="1.49707" y1="18.7142" x2="19.5852" y2="14.6946" gradientUnits="userSpaceOnUse">
<stop stop-color="#9399B2"/>
<stop offset="1" stop-color="#7F849C"/>
</linearGradient>
<clipPath id="clip0_145_815">
<rect width="32.1566" height="32.1566" fill="white" transform="translate(0.156616 0.626465)"/>
</clipPath>
</defs>
</svg>
