<svg width="33" height="33" viewBox="0 0 33 33" fill="none" xmlns="http://www.w3.org/2000/svg">
<path d="M28.443 9.79138C28.443 9.77959 28.4312 9.76767 28.4312 9.75588C28.4193 9.73216 28.4193 9.70844 28.4075 9.69652C28.3956 9.68473 28.3838 9.6728 28.3838 9.66101C28.3718 9.64909 28.36 9.62537 28.3481 9.61358L28.3126 9.57808C28.3007 9.56615 28.2889 9.55436 28.2652 9.54244L23.512 6.8043C23.4528 6.76937 23.3852 6.75093 23.3164 6.75093C23.2475 6.75093 23.18 6.76937 23.1208 6.8043L18.3679 9.54244C18.356 9.55436 18.3442 9.56615 18.3205 9.57808L18.2848 9.61358C18.2731 9.62537 18.2611 9.64909 18.2493 9.66101C18.2374 9.6728 18.2256 9.68473 18.2256 9.69652C18.2137 9.72023 18.2019 9.73216 18.2019 9.75588C18.2019 9.76767 18.1901 9.77959 18.1901 9.79138C18.1782 9.82689 18.1782 9.86239 18.1782 9.89803V15.0897L14.2193 17.3656V7.19541C14.2193 7.1599 14.2193 7.12439 14.2075 7.08875C14.2075 7.07696 14.1956 7.06504 14.1956 7.05325C14.1838 7.02953 14.1838 7.00582 14.1719 6.99389C14.1601 6.9821 14.1482 6.97018 14.1482 6.95838C14.1364 6.94646 14.1245 6.92274 14.1127 6.91095L14.077 6.87545C14.0652 6.86352 14.0534 6.85173 14.0297 6.83981L9.26464 4.12539C9.20538 4.09046 9.13782 4.07202 9.06902 4.07202C9.00022 4.07202 8.93268 4.09046 8.8734 4.12539L4.12025 6.86352C4.10846 6.87545 4.09654 6.88724 4.07282 6.89916L4.03732 6.93467C4.02539 6.94646 4.0136 6.97018 4.00168 6.9821C3.98989 6.99389 3.9781 7.00582 3.9781 7.01761C3.96617 7.04132 3.95438 7.05325 3.95438 7.07696C3.95438 7.08875 3.94245 7.10068 3.94245 7.11247C3.93066 7.14797 3.93066 7.18348 3.93066 7.21912V23.481C3.93066 23.6233 4.00168 23.7536 4.13218 23.8248L13.6267 29.2891C13.6504 29.3009 13.6741 29.3129 13.6859 29.3129C13.6977 29.3129 13.7096 29.3246 13.7214 29.3246C13.7571 29.3366 13.7926 29.3366 13.8282 29.3366C13.8639 29.3366 13.8992 29.3366 13.9349 29.3246C13.9467 29.3246 13.9467 29.3129 13.9586 29.3129C13.9823 29.3009 14.006 29.3009 14.0296 29.2891L23.5242 23.8248C23.6427 23.7536 23.7257 23.6233 23.7257 23.481V18.2893L28.2772 15.6699C28.3958 15.5986 28.4789 15.4682 28.4789 15.3261V9.88544C28.4552 9.8498 28.443 9.8151 28.443 9.79138ZM13.805 23.008L9.85793 20.7678L14.0065 18.3734L18.5582 15.7539L22.5171 18.0296L19.613 19.689L13.805 23.008ZM22.9083 12.8497V17.3541L21.2489 16.3939L18.9494 15.0664V10.5621L20.6088 11.5222L22.9083 12.8497ZM23.3113 7.61063L27.2702 9.88638L23.3113 12.1621L19.3524 9.88638L23.3113 7.61063ZM11.1143 19.1439L9.4549 20.104V10.159L11.7544 8.83137L13.4138 7.87136V17.8044L11.1143 19.1439ZM9.06366 4.91992L13.0225 7.19567L9.06366 9.48335L5.10478 7.2076L9.06366 4.91992ZM4.70175 7.88329L6.36117 8.84343L8.66063 10.171V20.7915C8.66063 20.8034 8.66063 20.8271 8.67242 20.8389C8.67242 20.8626 8.67242 20.8744 8.68435 20.8981C8.68435 20.9101 8.69614 20.9338 8.70806 20.9456C8.71985 20.9575 8.71985 20.9812 8.73178 20.993L8.76728 21.0286C8.77908 21.0404 8.791 21.0522 8.80279 21.0759C8.81472 21.0879 8.82651 21.0997 8.83843 21.0997C8.85022 21.1116 8.86215 21.1234 8.88586 21.1353L13.4138 23.6956V28.2471L4.70162 23.2332L4.70175 7.88329ZM22.9091 23.234L14.1969 28.2481V23.6964L20.6451 20.0101L22.9091 18.7181V23.234ZM27.6622 15.079L23.7034 17.3549V12.8505L26.0028 11.523L27.6622 10.5629V15.079Z" fill="#d20f39" stroke="#d20f39" stroke-width="1.10297"/>
</svg>
