<svg width="33" height="33" viewBox="0 0 33 33" fill="none" xmlns="http://www.w3.org/2000/svg">
<path d="M28.943 9.79138V9.79138C28.943 9.76656 28.9258 9.7441 28.9189 9.72027C28.9161 9.71053 28.9131 9.70219 28.9075 9.69652V9.69652C28.8876 9.67685 28.8744 9.64848 28.8581 9.62572C28.8548 9.62109 28.8515 9.61687 28.8482 9.61358L28.8127 9.57808C28.8007 9.56615 28.789 9.55436 28.7652 9.54244L24.0121 6.8043C23.9529 6.76937 23.8852 6.75093 23.8165 6.75093C23.7476 6.75093 23.6801 6.76937 23.6209 6.8043L18.8913 9.52898C18.8758 9.53791 18.8645 9.54711 18.8508 9.55855V9.55855C18.8341 9.57239 18.8127 9.58586 18.7974 9.60114L18.7849 9.61358C18.7731 9.62537 18.7612 9.64909 18.7494 9.66101V9.66101C18.729 9.68122 18.7151 9.70814 18.7055 9.73521C18.7033 9.74137 18.702 9.74797 18.702 9.75588V9.75588C18.702 9.78088 18.6852 9.80335 18.6816 9.82809C18.6783 9.85137 18.6783 9.87468 18.6783 9.89803V14.5111C18.6783 14.8691 18.487 15.1997 18.1766 15.3781L16.2178 16.5042C15.5511 16.8875 14.7194 16.4062 14.7194 15.6373V7.19541C14.7194 7.16481 14.7194 7.13421 14.7118 7.10353C14.7094 7.09364 14.7077 7.08348 14.7033 7.07431V7.07431C14.6968 7.06105 14.6919 7.04645 14.6876 7.03234C14.6828 7.01643 14.6803 7.00226 14.6719 6.99389V6.99389C14.6522 6.9741 14.6389 6.94585 14.6226 6.92307C14.6193 6.91845 14.616 6.91424 14.6127 6.91095L14.5771 6.87545C14.5653 6.86352 14.5535 6.85173 14.5298 6.83981L9.7647 4.12539C9.70544 4.09046 9.63788 4.07202 9.56908 4.07202C9.50028 4.07202 9.43274 4.09046 9.37346 4.12539L4.64388 6.84995C4.62824 6.85896 4.61691 6.86827 4.603 6.87977V6.87977C4.58643 6.89348 4.56514 6.90691 4.54993 6.92211L4.53738 6.93467C4.52545 6.94646 4.51366 6.97018 4.50174 6.9821V6.9821C4.48146 7.00238 4.46761 7.02921 4.45797 7.05621C4.45576 7.0624 4.45444 7.06902 4.45444 7.07696V7.07696C4.45444 7.102 4.43756 7.12447 4.43403 7.14925C4.43073 7.17251 4.43073 7.19579 4.43073 7.21912V23.481C4.43073 23.6233 4.50174 23.7536 4.63224 23.8248L14.1268 29.2891C14.1505 29.3009 14.1742 29.3129 14.186 29.3129V29.3129C14.211 29.3129 14.2335 29.3296 14.2582 29.3332C14.2816 29.3366 14.3049 29.3366 14.3283 29.3366C14.3604 29.3366 14.3922 29.3366 14.4243 29.3279C14.4314 29.3259 14.4397 29.3254 14.4451 29.3204V29.3204C14.4529 29.3131 14.4635 29.3101 14.4736 29.3067C14.4923 29.3004 14.511 29.2984 14.5297 29.2891L24.0243 23.8248C24.1427 23.7536 24.2258 23.6233 24.2258 23.481V18.8676C24.2258 18.5098 24.4169 18.1793 24.727 18.0009L28.7773 15.6699C28.8959 15.5986 28.979 15.4682 28.979 15.3261V9.98737C28.979 9.9209 28.943 9.85785 28.943 9.79138V9.79138ZM14.7996 22.7255C14.493 22.9006 14.1168 22.9012 13.8098 22.7269L11.8775 21.6302C11.2051 21.2486 11.2016 20.2809 11.8713 19.8944L14.5066 18.3734L18.5597 16.0408C18.8684 15.8632 19.2482 15.8631 19.5569 16.0405L21.5044 17.1601C22.1743 17.5451 22.173 18.512 21.5022 18.8953L20.1131 19.689L14.7996 22.7255ZM22.9083 12.5611C23.2178 12.7397 23.4084 13.0698 23.4084 13.4271V15.6201C23.4084 16.3904 22.5742 16.8714 21.9075 16.4857L21.7489 16.3939L19.9495 15.3551C19.6401 15.1764 19.4495 14.8463 19.4495 14.489V12.296C19.4495 11.5258 20.2836 11.0447 20.9503 11.4304L21.1089 11.5222L22.9083 12.5611ZM23.313 7.89711C23.6216 7.71973 24.0012 7.71973 24.3098 7.89712L26.2621 9.01941C26.9309 9.40389 26.9309 10.3689 26.2621 10.7533L24.3098 11.8756C24.0012 12.053 23.6216 12.053 23.313 11.8756L21.3607 10.7533C20.6918 10.3689 20.6918 9.40389 21.3607 9.01941L23.313 7.89711ZM11.6144 19.1439L11.4558 19.2356C10.7891 19.6214 9.95496 19.1403 9.95496 18.3701V10.7364C9.95496 10.3791 10.1456 10.049 10.4549 9.87036L12.2544 8.83137L12.4131 8.73959C13.0797 8.35391 13.9138 8.83498 13.9138 9.60517V17.2296C13.9138 17.5855 13.7247 17.9146 13.4172 18.0937L11.6144 19.1439ZM9.0647 5.20829C9.37357 5.02981 9.75413 5.02938 10.0634 5.20716L12.0184 6.33097C12.6863 6.71495 12.6874 7.67828 12.0203 8.06377L10.0627 9.19498C9.75388 9.37346 9.37332 9.37389 9.06405 9.19611L7.10907 8.0723C6.4411 7.68832 6.44001 6.72499 7.10711 6.3395L9.0647 5.20829ZM5.2018 9.6172C5.20181 8.84699 6.03595 8.36592 6.70261 8.75166L6.86123 8.84343L8.66067 9.88229C8.97009 10.0609 9.16069 10.3911 9.16069 10.7483V20.7915C9.16069 20.7946 9.16069 20.7984 9.16089 20.8026C9.16208 20.8275 9.16917 20.8517 9.17555 20.8758V20.8758C9.1793 20.89 9.18438 20.9061 9.19058 20.9194C9.19512 20.9291 9.2016 20.9391 9.20812 20.9456C9.21991 20.9575 9.21991 20.9812 9.23184 20.993L9.26735 21.0286C9.27719 21.0385 9.28712 21.0483 9.29699 21.0651C9.30113 21.0721 9.30688 21.0802 9.31289 21.0857V21.0857C9.32772 21.0994 9.3457 21.1087 9.36189 21.1207C9.36845 21.1255 9.3762 21.1304 9.38592 21.1353L13.4061 23.4085C13.7198 23.5859 13.9138 23.9185 13.9138 24.279V26.5178C13.9138 27.287 13.0817 27.7682 12.415 27.3846L5.70289 23.5217C5.3928 23.3432 5.20168 23.0127 5.20168 22.655L5.2018 9.6172ZM23.4092 22.6558C23.4092 23.0135 23.218 23.344 22.908 23.5225L16.1958 27.3855C15.5291 27.7691 14.697 27.2879 14.697 26.5188V24.2766C14.697 23.9178 14.8892 23.5865 15.2007 23.4085L21.1452 20.0101L21.9135 19.5716C22.5802 19.1912 23.4092 19.6726 23.4092 20.4401V22.6558ZM28.1623 14.5004C28.1623 14.8583 27.971 15.189 27.6607 15.3674L25.7018 16.4935C25.0352 16.8767 24.2034 16.3955 24.2034 15.6265V13.4279C24.2034 13.0706 24.394 12.7405 24.7034 12.5619L26.5029 11.523L26.6615 11.4312C27.3282 11.0455 28.1623 11.5266 28.1623 12.2968V14.5004Z" fill="#D20F39"/>
</svg>
