<svg width="33" height="33" viewBox="0 0 33 33" fill="none" xmlns="http://www.w3.org/2000/svg">
<path fill-rule="evenodd" clip-rule="evenodd" d="M14.791 7.72778C20.5966 7.72778 25.3097 12.4409 25.3097 18.2464C25.3097 24.052 20.5966 28.7651 14.791 28.7651C8.98535 28.7651 4.27228 24.052 4.27228 18.2464C4.27228 12.4409 8.98535 7.72778 14.791 7.72778ZM19.1495 10.8078C20.8494 10.8078 22.2296 12.188 22.2296 13.8878C22.2296 15.5876 20.8494 16.9679 19.1495 16.9679C17.4498 16.9679 16.0695 15.5876 16.0695 13.8878C16.0695 12.188 17.4498 10.8078 19.1495 10.8078Z" fill="#1E66F5"/>
<path d="M28.3891 7.72484C28.3891 6.02499 27.009 4.64478 25.3091 4.64478C23.6093 4.64478 22.229 6.02499 22.229 7.72484C22.229 9.42468 23.6093 10.8049 25.3091 10.8049C27.009 10.8049 28.3891 9.42759 28.3891 7.72484Z" fill="#1E66F5"/>
</svg>
