<svg width="33" height="33" viewBox="0 0 33 33" fill="none" xmlns="http://www.w3.org/2000/svg">
<mask id="mask0_145_835" style="mask-type:luminance" maskUnits="userSpaceOnUse" x="4" y="4" width="25" height="25">
<path d="M28.547 4.64673H4.42957V28.7642H28.547V4.64673Z" fill="#CDD6F4"/>
</mask>
<g mask="url(#mask0_145_835)">
<path d="M16.4977 28.7645C23.1525 28.7645 28.5473 23.3697 28.5473 16.7149C28.5473 10.0601 23.1525 4.66528 16.4977 4.66528C9.84285 4.66528 4.44806 10.0601 4.44806 16.7149C4.44806 23.3697 9.84285 28.7645 16.4977 28.7645Z" fill="#C992FB"/>
<path d="M21.8247 5.90371C20.495 5.38633 19.0486 5.10245 17.5359 5.10245C11.0019 5.10245 5.70494 10.3994 5.70494 16.9335C5.70494 23.2944 10.7249 28.4829 17.0191 28.7534C16.8463 28.7607 16.6724 28.7645 16.4977 28.7645C9.84286 28.7645 4.44806 23.3697 4.44806 16.7149C4.44806 10.0601 9.84286 4.66528 16.4977 4.66528C18.41 4.66528 20.2184 5.1108 21.8247 5.90371Z" fill="#E0BEFF"/>
<path d="M13.6835 26.906C20.6853 26.906 26.3615 21.2298 26.3615 14.228C26.3615 11.8887 25.728 9.69749 24.6232 7.81641C27.0347 10.0198 28.5474 13.1904 28.5474 16.7144C28.5474 23.3692 23.1526 28.764 16.4977 28.764C13.5105 28.764 10.7772 27.6769 8.67175 25.877C10.209 26.5391 11.9034 26.906 13.6835 26.906Z" fill="#6A2F9E"/>
<path d="M13.6835 26.906C20.6853 26.906 26.3615 21.2298 26.3615 14.228C26.3615 11.8887 25.728 9.69749 24.6232 7.81641C27.0347 10.0198 28.5474 13.1904 28.5474 16.7144C28.5474 23.3692 23.1526 28.764 16.4977 28.764C13.5105 28.764 10.7772 27.6769 8.67175 25.877C10.209 26.5391 11.9034 26.906 13.6835 26.906Z" fill="#6A2F9E"/>
<path d="M13.6835 26.906C20.6853 26.906 26.3615 21.2298 26.3615 14.228C26.3615 11.8887 25.728 9.69749 24.6232 7.81641C27.0347 10.0198 28.5474 13.1904 28.5474 16.7144C28.5474 23.3692 23.1526 28.764 16.4977 28.764C13.5105 28.764 10.7772 27.6769 8.67175 25.877C10.209 26.5391 11.9034 26.906 13.6835 26.906Z" fill="#A551F2"/>
<path d="M16.6411 19.8753C17.2745 20.9356 18.7739 20.9766 19.5248 20.0273C19.6418 19.8792 19.7598 19.5792 19.9407 19.4749C20.35 19.2377 20.7215 19.706 20.5817 20.0874C19.8587 22.0542 16.9335 22.2493 15.9034 20.4524C15.7286 20.1475 15.6411 19.6142 16.1022 19.5175C16.3859 19.4578 16.4963 19.6334 16.6411 19.8753Z" fill="#20103F"/>
<path d="M24.9963 15.1026C24.9963 16.6418 23.7484 17.8897 22.2092 17.8897C20.67 17.8897 19.4222 16.6418 19.4222 15.1026C19.4222 13.5634 20.67 12.3157 22.2092 12.3157C23.7484 12.3157 24.9963 13.5634 24.9963 15.1026Z" fill="#20103F"/>
<path d="M23.1575 15.9193C23.7311 16.1326 24.3667 15.8468 24.5772 15.2809C24.7877 14.715 24.4933 14.0833 23.9197 13.87C23.3461 13.6567 22.7105 13.9425 22.5 14.5084C22.2897 15.0744 22.584 15.706 23.1575 15.9193Z" fill="#FCFCFE"/>
<path d="M15.487 15.6488C15.487 17.1881 14.2392 18.4357 12.7 18.4357C11.1608 18.4357 9.91302 17.1881 9.91302 15.6488C9.91302 14.1096 11.1608 12.8618 12.7 12.8618C14.2392 12.8618 15.487 14.1096 15.487 15.6488Z" fill="#20103F"/>
<path d="M13.6493 16.4664C14.2229 16.6797 14.8584 16.3939 15.0689 15.828C15.2794 15.2622 14.9851 14.6304 14.4115 14.4171C13.8379 14.2038 13.2023 14.4896 12.9918 15.0556C12.7814 15.6215 13.0757 16.2531 13.6493 16.4664Z" fill="#FCFCFE"/>
<path d="M25.6508 22.5888C25.9828 22.5888 26.252 22.3198 26.252 21.9878C26.252 21.6558 25.9828 21.3867 25.6508 21.3867C25.3188 21.3867 25.0497 21.6558 25.0497 21.9878C25.0497 22.3198 25.3188 22.5888 25.6508 22.5888Z" fill="#C992FB"/>
<path d="M22.3726 25.1582C23.0666 25.1582 23.6294 24.5955 23.6294 23.9013C23.6294 23.2073 23.0666 22.6445 22.3726 22.6445C21.6784 22.6445 21.1157 23.2073 21.1157 23.9013C21.1157 24.5955 21.6784 25.1582 22.3726 25.1582Z" fill="#20103F"/>
<path d="M19.5031 26.5785C19.7295 26.5785 19.9129 26.3951 19.9129 26.1687C19.9129 25.9424 19.7295 25.7588 19.5031 25.7588C19.2767 25.7588 19.0933 25.9424 19.0933 26.1687C19.0933 26.3951 19.2767 26.5785 19.5031 26.5785Z" fill="#20103F"/>
<path d="M14.5029 25.3215C14.8651 25.3215 15.1586 25.0279 15.1586 24.6657C15.1586 24.3036 14.8651 24.01 14.5029 24.01C14.1407 24.01 13.8472 24.3036 13.8472 24.6657C13.8472 25.0279 14.1407 25.3215 14.5029 25.3215Z" fill="#20103F"/>
<path d="M11.3336 23.0258C12.239 23.0258 12.973 22.2919 12.973 21.3865C12.973 20.481 12.239 19.7471 11.3336 19.7471C10.4282 19.7471 9.69421 20.481 9.69421 21.3865C9.69421 22.2919 10.4282 23.0258 11.3336 23.0258Z" fill="#20103F"/>
<path d="M7.67251 19.6386C7.88378 19.6386 8.05504 19.4672 8.05504 19.2561C8.05504 19.0448 7.88378 18.8735 7.67251 18.8735C7.46124 18.8735 7.28998 19.0448 7.28998 19.2561C7.28998 19.4672 7.46124 19.6386 7.67251 19.6386Z" fill="#20103F"/>
<path d="M8.32803 14.884C8.53929 14.884 8.71055 14.7127 8.71055 14.5014C8.71055 14.2901 8.53929 14.1189 8.32803 14.1189C8.11676 14.1189 7.9455 14.2901 7.9455 14.5014C7.9455 14.7127 8.11676 14.884 8.32803 14.884Z" fill="#20103F"/>
<path d="M14.8043 10.5666C15.4531 10.5666 15.9792 10.0406 15.9792 9.39171C15.9792 8.74283 15.4531 8.2168 14.8043 8.2168C14.1554 8.2168 13.6293 8.74283 13.6293 9.39171C13.6293 10.0406 14.1554 10.5666 14.8043 10.5666Z" fill="#20103F"/>
<path d="M18.8747 11.7695C19.2368 11.7695 19.5304 11.4759 19.5304 11.1138C19.5304 10.7516 19.2368 10.458 18.8747 10.458C18.5125 10.458 18.2189 10.7516 18.2189 11.1138C18.2189 11.4759 18.5125 11.7695 18.8747 11.7695Z" fill="#20103F"/>
<path d="M18.8758 8.76327C19.0267 8.76327 19.149 8.64094 19.149 8.49003C19.149 8.33913 19.0267 8.2168 18.8758 8.2168C18.7248 8.2168 18.6025 8.33913 18.6025 8.49003C18.6025 8.64094 18.7248 8.76327 18.8758 8.76327Z" fill="#20103F"/>
</g>
</svg>
