<svg width="33" height="33" viewBox="0 0 33 33" fill="none" xmlns="http://www.w3.org/2000/svg">
<path fill-rule="evenodd" clip-rule="evenodd" d="M9.882 6.9187C8.53073 6.9187 7.4353 8.01412 7.4353 9.36539V24.0456C7.4353 25.3968 8.53073 26.4923 9.882 26.4923H23.7466C25.0979 26.4923 26.1933 25.3968 26.1933 24.0456V9.3654C26.1933 8.01413 25.0979 6.9187 23.7466 6.9187H9.882ZM18.1701 15.8674L17.4112 19.6172C17.3099 20.118 16.8697 20.478 16.3588 20.478V20.478C15.8479 20.478 15.4078 20.118 15.3064 19.6172L14.5474 15.8674C14.3865 15.1343 14.1733 13.8248 14.0611 12.9971C14.0566 12.9642 14.0286 12.9399 13.9953 12.9399V12.9399C13.9573 12.9399 13.9271 12.9714 13.929 13.0093C13.9818 14.0696 14.0168 15.6151 14.0168 16.6174V22.637C14.0168 23.1927 13.5663 23.6432 13.0105 23.6432V23.6432C12.4548 23.6432 12.0043 23.1927 12.0043 22.637V12.2172C12.0043 11.3532 12.7046 10.6528 13.5686 10.6528V10.6528C14.3094 10.6528 14.9486 11.1724 15.1 11.8975L16.066 16.5259C16.1534 17.0499 16.2574 17.724 16.2985 18.1184C16.3018 18.1493 16.3277 18.1727 16.3588 18.1727V18.1727C16.3899 18.1727 16.4159 18.1493 16.4191 18.1184C16.4602 17.724 16.5642 17.0499 16.6515 16.5259L17.6176 11.8976C17.7689 11.1724 18.4081 10.6528 19.1489 10.6528V10.6528C20.0129 10.6528 20.7133 11.3532 20.7133 12.2172V22.6369C20.7133 23.1927 20.2628 23.6432 19.707 23.6432V23.6432C19.1512 23.6432 18.7007 23.1927 18.7007 22.6369V16.6174C18.7007 15.6149 18.7357 14.069 18.7887 13.0087C18.7906 12.9711 18.7606 12.9399 18.723 12.9399V12.9399C18.6895 12.9399 18.6614 12.9648 18.6575 12.998C18.5616 13.8258 18.331 15.1346 18.1701 15.8674Z" fill="#df8e1d"/>
</svg>
