<svg width="33" height="33" viewBox="0 0 33 33" fill="none" xmlns="http://www.w3.org/2000/svg">
<path d="M27.9406 19.9976L21 13M21.0593 20L28 13" stroke="#1e66f5" stroke-width="3" stroke-linecap="round" stroke-linejoin="round"/>
<path d="M5.3999 21.681C4.84762 21.681 4.3999 21.2333 4.3999 20.681V12.345C4.3999 11.7927 4.84762 11.345 5.3999 11.345H7.03823C7.338 11.345 7.62197 11.4795 7.8119 11.7114L9.85009 14.2002C10.2502 14.6888 10.9973 14.6888 11.3974 14.2002L13.4356 11.7114C13.6256 11.4795 13.9095 11.345 14.2093 11.345H15.8476C16.3999 11.345 16.8476 11.7927 16.8476 12.345V20.681C16.8476 21.2333 16.3999 21.681 15.8476 21.681H14.7357C14.1834 21.681 13.7357 21.2333 13.7357 20.681V18.5525C13.7357 17.6129 12.5573 17.192 11.962 17.9189L11.3974 18.6083C10.9973 19.0969 10.2502 19.0969 9.85008 18.6083L9.28551 17.9189C8.69023 17.192 7.51183 17.6129 7.51183 18.5525V20.681C7.51183 21.2333 7.06412 21.681 6.51183 21.681H5.3999Z" fill="#1e66f5"/>
</svg>
