<svg width="33" height="33" viewBox="0 0 33 33" fill="none" xmlns="http://www.w3.org/2000/svg">
<path d="M7.54062 5.98682H24.6908C25.2593 5.98682 25.8046 6.21268 26.2067 6.61471C26.6087 7.01675 26.8346 7.56203 26.8346 8.13059V25.2808C26.8346 25.8493 26.6087 26.3946 26.2067 26.7967C25.8046 27.1986 25.2593 27.4245 24.6908 27.4245H7.54062C6.97207 27.4245 6.42679 27.1986 6.02475 26.7967C5.62271 26.3946 5.39685 25.8493 5.39685 25.2808V8.13059C5.39685 7.56203 5.62271 7.01675 6.02475 6.61471C6.42679 6.21268 6.97207 5.98682 7.54062 5.98682ZM10.6844 10.2744C10.1321 10.2744 9.6844 10.7221 9.6844 11.2744V13.5619C9.6844 14.1142 10.1321 14.5619 10.6844 14.5619H13.9719V15.7057C13.9719 16.258 13.5242 16.7057 12.9719 16.7057H12.8282C12.2759 16.7057 11.8282 17.1534 11.8282 17.7057V22.137C11.8282 22.6893 12.2759 23.137 12.8282 23.137H12.9719C13.5242 23.137 13.9719 22.6893 13.9719 22.137V21.9932C13.9719 21.4409 14.4197 20.9932 14.9719 20.9932H17.2595C17.8118 20.9932 18.2595 21.4409 18.2595 21.9932V22.137C18.2595 22.6893 18.7072 23.137 19.2595 23.137H19.4033C19.9555 23.137 20.4033 22.6893 20.4033 22.137V17.7057C20.4033 17.1534 19.9555 16.7057 19.4033 16.7057H19.2595C18.7072 16.7057 18.2595 16.258 18.2595 15.7057V14.5619H21.547C22.0993 14.5619 22.547 14.1142 22.547 13.5619V11.2744C22.547 10.7221 22.0993 10.2744 21.547 10.2744H19.2595C18.7072 10.2744 18.2595 10.7221 18.2595 11.2744V14.5619H13.9719V11.2744C13.9719 10.7221 13.5242 10.2744 12.9719 10.2744H10.6844Z" fill="#40A02B"/>
</svg>
