<svg width="33" height="33" viewBox="0 0 33 33" fill="none" xmlns="http://www.w3.org/2000/svg">
<path fill-rule="evenodd" clip-rule="evenodd" d="M18.412 4.64648V4.64648C18.2103 4.64648 18.1653 4.90993 18.284 5.07308C18.3881 5.21615 18.4591 5.37448 18.5054 5.54337C18.5117 5.58697 18.5242 5.61811 18.5304 5.66171C18.5367 5.69908 18.5428 5.73645 18.5428 5.77381C18.5677 6.32191 18.3996 6.39043 18.2813 6.7143C18.1007 7.1316 18.1505 7.58005 18.3685 7.94129V7.94129C18.384 7.97765 18.428 7.96212 18.4244 7.92275C18.3049 6.60358 19.3363 6.29593 19.6873 5.88634C19.7459 5.81796 19.7698 5.72666 19.7568 5.63753C19.7053 5.28228 19.3965 5.0357 19.147 4.85825C18.8791 4.69631 18.6363 4.64648 18.412 4.64648ZM20.5646 5.05997C20.4745 5.02707 20.3882 5.08651 20.3802 5.18212V5.18212C20.374 5.23195 20.374 5.29424 20.3678 5.34407C20.3554 5.39388 20.3429 5.44371 20.3242 5.49354C20.3117 5.54337 20.2931 5.5932 20.2743 5.64302C20.2635 5.66456 20.2539 5.68494 20.2445 5.70516C20.2192 5.75934 20.192 5.81325 20.156 5.86101V5.86101C20.1435 5.8797 20.1311 5.89838 20.1186 5.91707C20.0875 5.96067 20.0563 6.00427 20.0252 6.04164C19.9886 6.07825 19.958 6.12084 19.9157 6.15185C19.9141 6.15306 19.9131 6.15497 19.9131 6.15702V6.15702C19.9131 6.1589 19.9123 6.16068 19.9108 6.16189C19.8742 6.19264 19.8374 6.22913 19.7948 6.25965C19.664 6.35929 19.5145 6.43403 19.3774 6.52746V6.52746C19.2936 6.58741 19.2074 6.64753 19.1346 6.72054V6.72054C19.091 6.75791 19.0599 6.79528 19.0225 6.83888C18.9913 6.87625 18.9539 6.91985 18.929 6.96345C18.8979 7.00705 18.8668 7.05065 18.8419 7.09424C18.817 7.14406 18.7982 7.18767 18.7733 7.23749C18.7547 7.28732 18.7359 7.33092 18.7234 7.38075C18.7048 7.43681 18.6923 7.48662 18.6799 7.53645C18.6737 7.56139 18.6737 7.59251 18.6674 7.61742V7.61742C18.6553 7.66631 18.6549 7.71766 18.652 7.76793C18.6504 7.7951 18.6488 7.82231 18.6488 7.84787V7.84787C18.6488 7.92269 18.6523 7.99807 18.665 8.0718C18.6675 8.08606 18.6704 8.10066 18.6737 8.1157C18.6799 8.16552 18.6923 8.21534 18.7048 8.26517C18.7236 8.315 18.736 8.36483 18.7546 8.41465V8.41465C18.7674 8.44664 18.7394 8.47909 18.7073 8.46665L17.3658 7.94753C17.1228 7.87901 16.8861 7.81674 16.6433 7.76068C16.5124 7.72954 16.3816 7.69839 16.2509 7.66725C15.8772 7.59251 15.4972 7.53645 15.1173 7.49908C15.1049 7.49908 15.0986 7.49285 15.0861 7.49285C14.7124 7.45548 14.3449 7.43679 13.9712 7.43679C13.6972 7.43679 13.4232 7.44924 13.1554 7.46793C12.7754 7.49287 12.3955 7.54268 12.0156 7.60496C11.9221 7.61741 11.8287 7.63611 11.7353 7.65479C11.5422 7.69216 11.3553 7.73576 11.1747 7.77935C11.0813 7.80428 10.9879 7.82918 10.8945 7.85409C10.801 7.89146 10.7138 7.93506 10.6266 7.97243C10.5581 8.00358 10.4896 8.03472 10.4211 8.06586V8.06586C10.4011 8.07588 10.3798 8.08344 10.3597 8.09324C10.3242 8.11051 10.2906 8.12633 10.2575 8.14323C10.2294 8.15759 10.2002 8.17004 10.172 8.18419V8.18419C10.1035 8.21533 10.0349 8.2527 9.97889 8.28384C9.93529 8.30253 9.89169 8.32744 9.85432 8.34613C9.83563 8.35858 9.81072 8.37105 9.79826 8.37727C9.74221 8.4084 9.68615 8.43956 9.63632 8.47069C9.58026 8.50183 9.53045 8.53297 9.48684 8.56412C9.44325 8.59526 9.39965 8.62017 9.36227 8.65132V8.65132C9.35166 8.66193 9.33728 8.66792 9.32491 8.6764C9.29686 8.69563 9.26665 8.71753 9.23888 8.73982C9.22974 8.74717 9.22109 8.75511 9.21281 8.76341V8.76341C9.18754 8.78364 9.16225 8.80385 9.13698 8.82407C9.12528 8.83343 9.11264 8.84165 9.10066 8.85064V8.85064C9.08872 8.85959 9.07608 8.8677 9.06477 8.87743C9.04842 8.8915 9.03206 8.90665 9.01571 8.92107C8.99815 8.93657 8.98024 8.95242 8.96366 8.96896V8.96896C8.93065 9.00197 8.89765 9.03013 8.86464 9.062C8.85619 9.07016 8.8474 9.07899 8.83911 9.0873V9.0873C8.80173 9.11844 8.76436 9.1558 8.72699 9.19317V9.19317C8.7187 9.20148 8.70987 9.21027 8.70159 9.21859C8.67477 9.24552 8.64795 9.27309 8.62111 9.30528C8.60867 9.31773 8.58998 9.3302 8.57753 9.34265C8.55031 9.37529 8.51836 9.40794 8.4858 9.44058C8.47643 9.44998 8.46856 9.46094 8.45918 9.47032V9.47032C8.4498 9.47971 8.44191 9.49065 8.43263 9.50014C8.38852 9.54522 8.34854 9.5903 8.30346 9.63538C8.29723 9.64162 8.29101 9.64783 8.28478 9.65407C8.18512 9.75995 8.07923 9.86584 7.96713 9.95925C7.85502 10.0589 7.73669 10.1523 7.61834 10.2333C7.49377 10.3205 7.37543 10.3952 7.24464 10.47C7.12007 10.5385 6.98927 10.6008 6.85226 10.6568C6.72146 10.7129 6.58444 10.7627 6.44741 10.8063C6.18581 10.8624 5.918 10.9682 5.68755 10.9869C5.63772 10.9869 5.58167 10.9994 5.53184 11.0056C5.47578 11.0181 5.42595 11.0305 5.37614 11.043C5.32631 11.0617 5.27648 11.0804 5.22665 11.099C5.2242 11.1 5.22175 11.1009 5.2193 11.1018C5.12206 11.1395 5.03042 11.1917 4.9449 11.2514C4.94331 11.2525 4.94172 11.2536 4.94015 11.2548V11.2548C4.85151 11.3181 4.77095 11.3928 4.69392 11.4698C4.69295 11.4708 4.69198 11.4718 4.69101 11.4727C4.65363 11.5164 4.61626 11.5537 4.58513 11.5973C4.58257 11.6014 4.57998 11.6054 4.57735 11.6094C4.52017 11.6967 4.45741 11.7812 4.40954 11.8739C4.40783 11.8772 4.40615 11.8805 4.4045 11.8838C4.37958 11.9399 4.35468 11.9897 4.33599 12.0458C4.3173 12.0956 4.29862 12.1516 4.27993 12.2077C4.26749 12.2575 4.25501 12.3074 4.24879 12.3572V12.3572C4.24879 12.3704 4.24098 12.3823 4.23881 12.3954C4.23004 12.4482 4.22942 12.5109 4.22387 12.544C4.21763 12.5876 4.21143 12.625 4.21143 12.6686C4.21143 12.6935 4.21143 12.7247 4.21767 12.7496C4.2239 12.7932 4.23012 12.8305 4.24259 12.8679C4.25473 12.9043 4.26689 12.9408 4.2848 12.9772C4.28571 12.9791 4.28619 12.9811 4.28619 12.9831V12.9831C4.28619 12.9852 4.28666 12.9872 4.28759 12.989C4.30611 13.0255 4.33041 13.0619 4.3547 13.0984C4.37962 13.1357 4.40453 13.1731 4.43566 13.2105C4.4668 13.2416 4.50417 13.279 4.54155 13.3101C4.57892 13.3475 4.61629 13.3786 4.65989 13.4098C4.80936 13.5406 4.84673 13.5842 5.03982 13.6838C5.07001 13.702 5.1002 13.7142 5.13608 13.732C5.13832 13.7331 5.14066 13.7335 5.14305 13.7343V13.7343C5.15153 13.7369 5.15746 13.7472 5.15902 13.7559C5.15962 13.7593 5.16065 13.7627 5.1624 13.7668C5.16364 13.7696 5.16459 13.7726 5.165 13.7757C5.17141 13.824 5.18347 13.8722 5.19554 13.9205C5.20799 13.9766 5.22668 14.0264 5.24537 14.07C5.26406 14.1074 5.27651 14.1447 5.2952 14.1821V14.1821C5.30597 14.2037 5.31927 14.2243 5.33049 14.2456C5.34987 14.2825 5.36924 14.3164 5.38861 14.3503C5.41976 14.3938 5.4509 14.4375 5.48204 14.481C5.51318 14.5184 5.55056 14.5621 5.58793 14.5994C5.62502 14.6365 5.66212 14.6675 5.70531 14.7045C5.70595 14.7051 5.7058 14.7049 5.70641 14.7055V14.7055C5.71249 14.7112 5.72222 14.7144 5.72864 14.7198C5.7627 14.7482 5.79676 14.776 5.83082 14.7987C5.87442 14.8298 5.91802 14.8547 5.96785 14.8797C6.01145 14.9046 6.06127 14.9295 6.1111 14.9483C6.14298 14.9641 6.1794 14.9755 6.21648 14.9863C6.22905 14.9899 6.23901 14.9954 6.25121 15.0002V15.0002C6.25622 15.0021 6.26321 15.0049 6.26844 15.0062C6.26888 15.0063 6.26931 15.0064 6.26975 15.0065C6.3113 15.0164 6.3398 15.0538 6.33767 15.0965C6.32226 15.4048 6.32029 15.6851 6.36648 15.789V15.789C6.46744 16.0134 6.91449 15.8218 6.9447 16.066C6.95072 16.1147 6.95921 16.154 6.97064 16.1815C7.00474 16.259 7.11448 16.1775 7.25605 16.01C7.6049 15.5974 8.03249 15.2338 8.56905 15.17C12.6479 14.6853 16.2092 17.6186 16.6059 21.6561C16.544 21.1413 16.0441 20.8016 15.6426 20.7124C15.4409 20.6676 15.2736 20.8179 15.1831 21.0036C15.0444 21.2878 14.8593 21.5906 14.6162 21.8466C14.5045 21.9643 14.3236 21.869 14.324 21.7067V21.7067C14.3246 21.5065 14.0472 21.4801 13.9607 21.6606C13.8496 21.8926 13.7162 22.1139 13.5631 22.3216C13.5032 22.4028 13.4095 22.4534 13.3087 22.4511C12.7915 22.4389 12.2936 22.1856 12.0042 21.8172C11.9823 21.7894 11.9572 21.7634 11.9424 21.7312V21.7312C11.9306 21.7056 11.9164 21.6805 11.9056 21.6544C11.8929 21.6238 11.8811 21.5933 11.8724 21.5627C11.8537 21.5192 11.8412 21.4755 11.835 21.432C11.8287 21.3883 11.8287 21.3447 11.8287 21.2949V21.2949C11.8287 21.2327 11.8324 21.1703 11.8487 21.1103C11.8523 21.0971 11.8561 21.0839 11.8599 21.0707C11.8723 21.0271 11.8848 20.9835 11.9035 20.9398V20.9398C11.9532 20.853 11.9981 20.7619 12.0219 20.6648C12.0788 20.4321 12.052 20.2434 11.891 20.124C11.8771 20.1147 11.8632 20.1063 11.849 20.0985C11.7996 20.0712 11.7464 20.0506 11.6917 20.0368V20.0368C11.673 20.0305 11.6606 20.0243 11.6419 20.0181C11.5983 20.0057 11.5547 19.9932 11.5111 19.9869V19.9869C11.4263 19.9627 11.3367 19.9568 11.2484 19.9559C11.2467 19.9558 11.245 19.9558 11.2433 19.9558C11.2121 19.9558 11.181 19.962 11.1499 19.962C11.1 19.962 11.0564 19.9683 11.0128 19.9808C10.9692 19.9869 10.9256 19.9932 10.882 20.0057C10.8384 20.0181 10.7948 20.0306 10.7512 20.0492C10.7076 20.068 10.6703 20.0866 10.6267 20.1054V20.1054C10.547 20.1451 10.4695 20.191 10.3986 20.2448C9.40032 21.0036 9.67323 22.4352 10.2921 23.3383C10.4737 23.6033 10.3089 24.0085 10.0537 24.2036V24.2036V24.2036C10.0473 24.2099 10.0486 24.2205 10.0563 24.2251C10.3196 24.383 10.5948 24.5172 10.882 24.6333C11.2787 24.7634 11.7 24.8813 11.8882 24.9316C11.8899 24.9321 11.891 24.9336 11.891 24.9353V24.9353C11.891 24.9372 11.8923 24.9388 11.8941 24.9391C12.4101 25.0445 12.9322 25.0817 13.4606 25.0507C16.1649 24.8614 18.3905 22.8413 18.865 20.1574C18.8709 20.1238 18.9217 20.1218 18.9291 20.1551V20.1551C18.9477 20.2672 18.9726 20.3855 18.9851 20.504V20.504C18.9851 20.5081 18.9856 20.5122 18.9864 20.5162C18.998 20.5703 19.0041 20.6241 19.01 20.6721V20.697C19.0163 20.7531 19.0225 20.8092 19.0225 20.8589C19.0288 20.9275 19.0349 20.996 19.0349 21.0646V21.1641C19.0349 21.1953 19.0412 21.2327 19.0412 21.2638C19.0412 21.3012 19.0349 21.3386 19.0349 21.376V21.4632C19.0349 21.5067 19.0288 21.5441 19.0288 21.5877C19.0288 21.5971 19.0288 21.6066 19.0284 21.6164C19.0272 21.6514 19.0226 21.6864 19.0203 21.7213C19.0197 21.7304 19.019 21.7396 19.0184 21.749C19.0159 21.7865 19.01 21.8242 19.01 21.8618V21.8618C19.0037 21.9115 18.9976 21.9552 18.9913 22.005V22.005C18.9913 22.0426 18.9835 22.08 18.9779 22.1172C18.9717 22.1584 18.9644 22.1985 18.9602 22.2416V22.2479V22.2479C18.9602 22.252 18.9597 22.2561 18.9589 22.2601C18.9475 22.3116 18.9362 22.3679 18.9248 22.4195C18.9235 22.4255 18.9228 22.4317 18.9228 22.4379V22.4379C18.9228 22.4441 18.9221 22.4502 18.9208 22.4563C18.9099 22.5051 18.8991 22.5539 18.8882 22.6027C18.8864 22.6111 18.885 22.6197 18.8822 22.6279V22.6279C18.8795 22.636 18.8782 22.6444 18.8764 22.6528C18.8656 22.7016 18.8543 22.7504 18.8386 22.7992C18.8366 22.8054 18.8356 22.8118 18.8356 22.8183V22.8183C18.8356 22.8242 18.8347 22.83 18.833 22.8356C18.8163 22.8912 18.7996 22.9419 18.7878 22.9924C18.7864 22.9984 18.781 23.0061 18.7798 23.0122V23.0122C18.7792 23.0153 18.7791 23.0156 18.7782 23.0186C18.7599 23.0793 18.7417 23.1401 18.7234 23.2008C18.6985 23.2631 18.6799 23.3192 18.655 23.3815C18.63 23.4438 18.6114 23.5061 18.5865 23.5621C18.562 23.6234 18.5375 23.6787 18.5129 23.7397C18.5122 23.7415 18.5105 23.7427 18.5085 23.7427V23.7427C18.5066 23.7427 18.5049 23.7438 18.5042 23.7455C18.4819 23.7958 18.4596 23.8508 18.4328 23.9017C18.4274 23.912 18.4228 23.9228 18.4184 23.9336C18.4158 23.9398 18.4133 23.9454 18.4107 23.9507C18.4075 23.9573 18.4029 23.9633 18.3996 23.9699V23.9699C18.3963 23.9767 18.3917 23.9829 18.3883 23.9897C17.9835 24.8013 17.3874 25.5139 16.6432 26.0722C16.5933 26.1032 16.5435 26.1406 16.4938 26.178C16.4844 26.1874 16.4715 26.1932 16.4604 26.2008C16.4531 26.2058 16.4465 26.2117 16.4393 26.2168C16.4055 26.241 16.3714 26.2651 16.334 26.2892C16.3222 26.2969 16.3179 26.3123 16.3242 26.3249L16.3293 26.3351C16.3308 26.3381 16.3339 26.34 16.3373 26.34V26.34C16.3377 26.34 16.3382 26.34 16.3386 26.3399C16.4246 26.3276 16.5106 26.3153 16.5967 26.303C16.5986 26.3028 16.6006 26.3026 16.6026 26.3026V26.3026C16.6047 26.3026 16.6068 26.3025 16.6089 26.3021C16.7699 26.2773 16.9308 26.2463 17.0916 26.2154C17.1353 26.2091 17.1851 26.1968 17.2287 26.1843C17.2598 26.178 17.2847 26.1718 17.3159 26.1655C17.3214 26.1648 17.3269 26.1639 17.3324 26.1629C17.4087 26.1495 17.4854 26.134 17.5588 26.1095V26.1095V26.1095C18.0798 25.9845 18.4922 26.5668 18.0989 26.9306C17.8588 27.1527 17.6075 27.3632 17.3457 27.5612C16.9945 27.827 17.1978 28.4239 17.621 28.3018V28.3018C19.3805 27.7823 20.9442 26.7976 22.1575 25.4721C22.4527 25.1495 23.0159 25.4067 22.8421 25.8079V25.8079C22.6718 26.2012 23.1211 26.6015 23.4218 26.2961C23.4461 26.2714 23.4703 26.2465 23.4944 26.2216C24.4735 25.1988 25.2164 23.9827 25.6801 22.6617C25.8022 22.3136 26.3225 22.3336 26.3343 22.7023V22.7023C26.3452 23.0416 26.7939 23.1894 26.9621 22.8945C30.3472 16.9592 26.5784 11.0646 24.947 9.44382C24.946 9.44281 24.9453 9.44172 24.9446 9.44045C24.9415 9.43455 24.9385 9.43003 24.9363 9.42534C24.9341 9.42048 24.927 9.41833 24.927 9.42368V9.42368V9.42368C24.927 9.41824 24.9207 9.42047 24.9206 9.42591C24.9199 9.49577 24.9141 9.56561 24.9082 9.63546C24.8896 9.77872 24.8708 9.91573 24.8459 10.0528C24.8148 10.1898 24.7774 10.3268 24.7401 10.4638C24.6965 10.5946 24.6467 10.7317 24.5905 10.8624C24.5345 10.987 24.4722 11.1178 24.4038 11.2424C24.3353 11.3607 24.2605 11.4853 24.1795 11.5974C24.0985 11.7157 24.0113 11.8278 23.9242 11.9337C23.8307 12.0458 23.731 12.1455 23.6315 12.2451C23.5692 12.3012 23.513 12.351 23.4509 12.4008C23.401 12.4445 23.3573 12.4818 23.3075 12.5254C23.1955 12.6126 23.0833 12.6936 22.9587 12.7683C22.8404 12.8431 22.7158 12.9178 22.5913 12.9801C22.4604 13.0424 22.3297 13.0984 22.1989 13.1545C22.0681 13.2043 21.9311 13.2479 21.7941 13.2853C21.6571 13.3227 21.5138 13.3538 21.3768 13.3787C21.2335 13.4036 21.0903 13.4161 20.9532 13.4285C20.8535 13.4348 20.754 13.441 20.6543 13.441C20.5111 13.441 20.3677 13.4285 20.2308 13.4161C20.0875 13.4036 19.9442 13.3849 19.8072 13.3538C19.6661 13.3292 19.5309 13.2926 19.3958 13.2498C19.3919 13.2485 19.3878 13.2479 19.3837 13.2479V13.2479C19.5206 13.2354 19.6577 13.223 19.7948 13.1981C19.938 13.1731 20.0751 13.142 20.212 13.1046C20.3491 13.0673 20.4861 13.0237 20.6169 12.9739C20.7539 12.924 20.8848 12.8617 21.0092 12.7995C21.1401 12.7372 21.2584 12.6687 21.3829 12.5939C21.5014 12.5129 21.6197 12.432 21.7318 12.3448C21.8438 12.2576 21.9498 12.1642 22.0494 12.0645C22.1553 11.9711 22.2487 11.8652 22.3421 11.7593C22.4355 11.6472 22.5227 11.5351 22.6038 11.423C22.6161 11.4043 22.6287 11.3794 22.6412 11.3607C22.7033 11.261 22.7656 11.1614 22.8218 11.0617C22.8903 10.9372 22.9526 10.8126 23.0086 10.6818C23.0646 10.551 23.1144 10.4202 23.1581 10.2832C23.2016 10.1524 23.2329 10.0154 23.2639 9.87835C23.2889 9.73509 23.3138 9.59807 23.3262 9.46105C23.3387 9.31779 23.3512 9.17454 23.3512 9.03752C23.3512 8.93786 23.3449 8.8382 23.3387 8.73856C23.3262 8.5953 23.3076 8.45827 23.2889 8.32126C23.2639 8.178 23.2329 8.04098 23.1955 7.90395C23.1518 7.77316 23.1083 7.63614 23.0584 7.50534C23.0086 7.37454 22.9463 7.24375 22.8841 7.11918C22.8155 6.99461 22.747 6.87005 22.6723 6.75171C22.5913 6.63337 22.5103 6.52125 22.4232 6.40915C22.3297 6.30326 22.2363 6.19738 22.1366 6.09149C22.0867 6.04168 22.0307 5.98562 21.9747 5.93579C21.6944 5.71779 21.4017 5.51226 21.1089 5.32542C21.0788 5.30817 21.0516 5.29392 21.0233 5.28058C20.9976 5.2685 20.9725 5.25534 20.9482 5.24065C20.8166 5.16092 20.6898 5.10569 20.5646 5.05997Z" fill="#D20F39"/>
</svg>
