<svg width="33" height="33" viewBox="0 0 33 33" fill="none" xmlns="http://www.w3.org/2000/svg">
<path fill-rule="evenodd" clip-rule="evenodd" d="M18.912 4.64648C18.7376 4.64648 18.5757 4.68385 18.4262 4.73368C18.7439 4.94545 18.9183 5.22572 19.0054 5.54337C19.0117 5.58697 19.0242 5.61811 19.0304 5.66171C19.0367 5.69908 19.0428 5.73645 19.0428 5.77381C19.0677 6.32191 18.8996 6.39043 18.7813 6.7143C18.6007 7.1316 18.6505 7.58005 18.8685 7.94129C18.8871 7.98489 18.912 8.03472 18.9433 8.07832C18.7065 6.50254 20.0206 6.26586 20.2636 5.77381C20.2823 5.34407 19.9273 5.05755 19.647 4.85825C19.3791 4.69631 19.1363 4.64648 18.912 4.64648ZM20.8926 5.00151C20.8677 5.14475 20.8865 5.10738 20.8802 5.18212C20.874 5.23195 20.874 5.29424 20.8678 5.34407C20.8554 5.39388 20.8429 5.44371 20.8242 5.49354C20.8117 5.54337 20.7931 5.5932 20.7743 5.64302C20.7494 5.69285 20.7308 5.73645 20.7058 5.78628C20.6872 5.8112 20.6748 5.8361 20.656 5.86101C20.6435 5.8797 20.6311 5.89838 20.6186 5.91707C20.5875 5.96067 20.5563 6.00427 20.5252 6.04164C20.4879 6.07901 20.4568 6.12261 20.4131 6.15376V6.15999C20.3757 6.19113 20.3383 6.2285 20.2948 6.25965C20.164 6.35929 20.0145 6.43403 19.8774 6.52746C19.8339 6.5586 19.7903 6.58352 19.7529 6.62089C19.7093 6.65202 19.6719 6.68316 19.6346 6.72054C19.591 6.75791 19.5599 6.79528 19.5225 6.83888C19.4913 6.87625 19.4539 6.91985 19.429 6.96345C19.3979 7.00705 19.3668 7.05065 19.3419 7.09424C19.317 7.14406 19.2982 7.18767 19.2733 7.23749C19.2547 7.28732 19.2359 7.33092 19.2234 7.38075C19.2048 7.43681 19.1923 7.48662 19.1799 7.53645C19.1737 7.56139 19.1737 7.59251 19.1674 7.61742C19.1613 7.64235 19.1613 7.66725 19.155 7.69217C19.155 7.74199 19.1488 7.79805 19.1488 7.84787C19.1488 7.88524 19.1488 7.92261 19.155 7.95998C19.155 8.00981 19.1613 8.05964 19.1737 8.1157C19.1799 8.16552 19.1923 8.21534 19.2048 8.26517C19.2236 8.315 19.236 8.36483 19.2546 8.41465C19.2671 8.4458 19.2857 8.47694 19.2982 8.50185L17.8658 7.94753C17.6228 7.87901 17.3861 7.81674 17.1433 7.76068C17.0124 7.72954 16.8816 7.69839 16.7509 7.66725C16.3772 7.59251 15.9972 7.53645 15.6173 7.49908C15.6049 7.49908 15.5986 7.49285 15.5861 7.49285C15.2124 7.45548 14.8449 7.43679 14.4712 7.43679C14.1972 7.43679 13.9232 7.44924 13.6554 7.46793C13.2754 7.49287 12.8955 7.54268 12.5156 7.60496C12.4221 7.61741 12.3287 7.63611 12.2353 7.65479C12.0422 7.69216 11.8553 7.73576 11.6747 7.77935C11.5813 7.80428 11.4879 7.82918 11.3945 7.85409C11.301 7.89146 11.2138 7.93506 11.1266 7.97243C11.0581 8.00358 10.9896 8.03472 10.9211 8.06586C10.9086 8.0721 10.8962 8.0721 10.89 8.0783C10.8277 8.10946 10.7716 8.13436 10.7156 8.1655C10.6969 8.17175 10.6844 8.17795 10.672 8.18419C10.6035 8.21533 10.5349 8.2527 10.4789 8.28384C10.4353 8.30253 10.3917 8.32744 10.3543 8.34613C10.3356 8.35858 10.3107 8.37105 10.2983 8.37727C10.2422 8.4084 10.1862 8.43956 10.1363 8.47069C10.0803 8.50183 10.0304 8.53297 9.98684 8.56412C9.94325 8.59526 9.89965 8.62017 9.86227 8.65132C9.85604 8.65755 9.84982 8.65755 9.84359 8.66377C9.80622 8.68869 9.76262 8.71982 9.72526 8.75097C9.72526 8.75097 9.71901 8.7572 9.71281 8.76341C9.68167 8.78833 9.65052 8.81323 9.61938 8.83815C9.60693 8.84438 9.59446 8.85683 9.58201 8.86307C9.55087 8.88799 9.51972 8.91913 9.48858 8.94404C9.48235 8.95649 9.46991 8.96273 9.46366 8.96896C9.42629 9.00633 9.38892 9.03748 9.35156 9.07485C9.34531 9.07485 9.34531 9.08108 9.33911 9.0873C9.30173 9.11844 9.26436 9.15581 9.22699 9.19317C9.22076 9.19942 9.22076 9.20562 9.21454 9.20562C9.1834 9.23676 9.15227 9.26791 9.12111 9.30528C9.10867 9.31773 9.08998 9.3302 9.07753 9.34265C9.04638 9.38002 9.00901 9.41739 8.97164 9.45475C8.96539 9.4672 8.95296 9.47344 8.94672 9.48589C8.89689 9.53572 8.85329 9.58555 8.80346 9.63538C8.79723 9.64162 8.79101 9.64783 8.78478 9.65407C8.68512 9.75995 8.57924 9.86584 8.46713 9.95925C8.35502 10.0589 8.23669 10.1523 8.11834 10.2333C7.99377 10.3205 7.87543 10.3952 7.74464 10.47C7.62007 10.5385 7.48927 10.6008 7.35226 10.6568C7.22146 10.7129 7.08444 10.7627 6.94741 10.8063C6.68581 10.8624 6.418 10.9682 6.18755 10.9869C6.13772 10.9869 6.08167 10.9994 6.03184 11.0056C5.97578 11.0181 5.92595 11.0305 5.87614 11.043C5.82631 11.0617 5.77648 11.0804 5.72665 11.099C5.67682 11.1177 5.62699 11.1426 5.57718 11.1676C5.53358 11.1987 5.48375 11.2236 5.44015 11.2548C5.39655 11.2859 5.35295 11.3233 5.31558 11.3606C5.27198 11.3918 5.22838 11.4354 5.19101 11.4727C5.15363 11.5164 5.11626 11.5537 5.08513 11.5973C5.05399 11.6471 5.01662 11.6907 4.9917 11.7406C4.96056 11.7842 4.92942 11.834 4.9045 11.8838C4.87958 11.9399 4.85468 11.9897 4.83599 12.0458C4.8173 12.0956 4.79862 12.1516 4.77993 12.2077C4.76749 12.2575 4.75501 12.3074 4.74879 12.3572C4.74879 12.3634 4.74256 12.3696 4.74256 12.3759C4.73012 12.4319 4.73012 12.5067 4.72387 12.544C4.71763 12.5876 4.71143 12.625 4.71143 12.6686C4.71143 12.6935 4.71143 12.7247 4.71767 12.7496C4.7239 12.7932 4.73012 12.8305 4.74259 12.8679C4.75504 12.9053 4.76751 12.9426 4.78619 12.98V12.9863C4.80487 13.0236 4.82979 13.061 4.8547 13.0984C4.87962 13.1357 4.90453 13.1731 4.93566 13.2105C4.9668 13.2416 5.00417 13.279 5.04155 13.3101C5.07892 13.3475 5.11629 13.3786 5.15989 13.4098C5.30936 13.5406 5.34673 13.5842 5.53982 13.6838C5.57096 13.7025 5.6021 13.715 5.63948 13.7337C5.64571 13.7337 5.65193 13.7399 5.65816 13.7399C5.65816 13.7523 5.65816 13.7586 5.6644 13.771C5.67063 13.8209 5.68308 13.8707 5.69554 13.9205C5.70799 13.9766 5.72668 14.0264 5.74537 14.07C5.76406 14.1074 5.77651 14.1447 5.7952 14.1821C5.80143 14.1946 5.80764 14.207 5.81387 14.2132C5.8388 14.263 5.8637 14.3067 5.88861 14.3503C5.91976 14.3938 5.9509 14.4375 5.98204 14.481C6.01318 14.5184 6.05056 14.5621 6.08793 14.5994C6.1253 14.6367 6.16267 14.668 6.20627 14.7053C6.20627 14.7053 6.21251 14.7115 6.21871 14.7115C6.25608 14.7427 6.29345 14.7738 6.33082 14.7987C6.37442 14.8298 6.41802 14.8547 6.46785 14.8797C6.51145 14.9046 6.56127 14.9295 6.6111 14.9483C6.64847 14.9669 6.69207 14.9793 6.73567 14.9918C6.7419 14.9981 6.74812 14.9981 6.76059 15.0043C6.78551 15.0106 6.81664 15.0167 6.84156 15.0229C6.82287 15.3593 6.81664 15.6769 6.86648 15.789C6.92254 15.9136 7.19658 15.5336 7.47064 15.0976C7.43327 15.5275 7.40835 16.0319 7.47064 16.1815C7.53914 16.3372 7.91284 15.8513 8.23673 15.3156C12.6526 14.2943 16.6824 17.3461 17.1059 21.6561C17.025 20.9835 16.1966 20.6098 15.8167 20.7032C15.6298 21.1641 15.3121 21.7558 14.8014 22.1233C14.845 21.7123 14.8263 21.2887 14.7392 20.8777C14.6021 21.4506 14.3343 21.9863 13.9668 22.4472C13.3751 22.4907 12.7834 22.2043 12.472 21.7746C12.4471 21.7558 12.4409 21.7184 12.4222 21.6935C12.4035 21.65 12.3848 21.6063 12.3724 21.5627C12.3537 21.5192 12.3412 21.4755 12.335 21.432C12.3287 21.3883 12.3287 21.3447 12.3287 21.2949C12.3287 21.2638 12.3287 21.2326 12.3287 21.2015C12.335 21.1578 12.3474 21.1143 12.3599 21.0707C12.3723 21.0271 12.3848 20.9835 12.4035 20.9398C12.4284 20.8963 12.4471 20.8527 12.4782 20.8091C12.5841 20.5101 12.5841 20.2672 12.391 20.124C12.3537 20.0991 12.3163 20.0804 12.2727 20.0617C12.2478 20.0555 12.2166 20.0431 12.1917 20.0368C12.173 20.0305 12.1606 20.0243 12.1419 20.0181C12.0983 20.0057 12.0547 19.9932 12.0111 19.9869C11.9675 19.9745 11.9239 19.9683 11.8803 19.9683C11.8367 19.962 11.7869 19.9558 11.7433 19.9558C11.7121 19.9558 11.681 19.962 11.6499 19.962C11.6 19.962 11.5564 19.9683 11.5128 19.9808C11.4692 19.9869 11.4256 19.9932 11.382 20.0057C11.3384 20.0181 11.2948 20.0306 11.2512 20.0492C11.2076 20.068 11.1703 20.0866 11.1267 20.1054C11.0893 20.124 11.0519 20.1489 11.0083 20.1675C9.55712 21.1143 10.4229 23.3316 11.4132 23.9731C11.0395 24.0416 10.6596 24.1227 10.5537 24.2036C10.5474 24.2098 10.5412 24.2161 10.5412 24.2161C10.809 24.3779 11.0893 24.515 11.382 24.6333C11.7807 24.7641 12.2042 24.8825 12.391 24.9323V24.9385C12.908 25.0444 13.4312 25.0817 13.9606 25.0507C16.7198 24.8576 18.9806 22.7586 19.3917 19.9932C19.4042 20.0492 19.4166 20.0991 19.4291 20.1551C19.4477 20.2672 19.4726 20.3855 19.4851 20.504V20.5101C19.4976 20.5663 19.5039 20.6223 19.51 20.6721V20.6971C19.5163 20.7531 19.5225 20.8092 19.5225 20.8589C19.5288 20.9275 19.5349 20.996 19.5349 21.0646V21.1641C19.5349 21.1953 19.5412 21.2327 19.5412 21.2638C19.5412 21.3012 19.5349 21.3386 19.5349 21.376V21.4632C19.5349 21.5067 19.5288 21.5441 19.5288 21.5877C19.5288 21.6126 19.5288 21.6375 19.5225 21.6687C19.5225 21.7123 19.5162 21.7558 19.5162 21.8056C19.51 21.8244 19.51 21.843 19.51 21.8618C19.5037 21.9115 19.4976 21.9552 19.4913 22.005C19.4913 22.0236 19.4913 22.0424 19.4851 22.061C19.4788 22.1233 19.4663 22.1793 19.4602 22.2416V22.2479V22.2541C19.4477 22.3102 19.4353 22.3725 19.4228 22.4286V22.4472C19.4103 22.5033 19.3979 22.5593 19.3854 22.6153C19.3854 22.6216 19.3791 22.6341 19.3791 22.6402C19.3668 22.6964 19.3542 22.7524 19.3356 22.8085V22.8272C19.317 22.8895 19.2982 22.9455 19.2857 23.0016C19.2796 23.0078 19.2796 23.0141 19.2796 23.0141C19.2608 23.0762 19.2422 23.1385 19.2234 23.2008C19.1985 23.2631 19.1799 23.3192 19.155 23.3815C19.13 23.4438 19.1114 23.5061 19.0865 23.5621C19.0616 23.6244 19.0367 23.6805 19.0117 23.7427H19.0054C18.9805 23.7988 18.9556 23.8611 18.9245 23.9171C18.9182 23.9358 18.912 23.9482 18.9058 23.9607C18.8996 23.967 18.8996 23.9731 18.8934 23.9794C18.4885 24.7953 17.8905 25.5116 17.1432 26.0722C17.0933 26.1032 17.0435 26.1406 16.9938 26.178C16.9813 26.1905 16.9626 26.1968 16.9501 26.2091C16.9065 26.2403 16.8629 26.2714 16.813 26.3026L16.8318 26.34H16.8379C16.9252 26.3275 17.0124 26.3151 17.0996 26.3026H17.1058C17.2678 26.2777 17.4298 26.2465 17.5916 26.2154C17.6353 26.2091 17.6851 26.1968 17.7287 26.1843C17.7598 26.178 17.7847 26.1718 17.8159 26.1655C17.8595 26.1593 17.903 26.1469 17.9467 26.1406C17.9841 26.1282 18.0214 26.122 18.0588 26.1095C18.6816 25.96 19.2857 25.7545 19.865 25.5116C18.8747 26.8631 17.5481 27.9531 15.9972 28.6693C16.7135 28.6195 17.4298 28.5012 18.121 28.3018C20.6311 27.5607 22.7426 25.8728 24.0069 23.5995C23.7515 25.0382 23.1786 26.4085 22.3315 27.6043C22.9356 27.2057 23.4899 26.7448 23.9944 26.2216C25.3896 24.7642 26.3051 22.9144 26.6165 20.9275C26.8283 21.9116 26.8906 22.9268 26.7971 23.9296C31.2941 17.6576 27.1709 11.1552 25.4456 9.44239C25.4394 9.42994 25.4331 9.4237 25.4331 9.41124C25.427 9.41748 25.427 9.41748 25.427 9.42368C25.427 9.41745 25.427 9.41745 25.4207 9.41124C25.4207 9.48599 25.4145 9.56072 25.4082 9.63546C25.3896 9.77872 25.3708 9.91573 25.3459 10.0528C25.3148 10.1898 25.2774 10.3268 25.2401 10.4638C25.1965 10.5946 25.1467 10.7317 25.0905 10.8624C25.0345 10.987 24.9722 11.1178 24.9038 11.2424C24.8353 11.3607 24.7605 11.4853 24.6795 11.5974C24.5985 11.7157 24.5113 11.8278 24.4242 11.9337C24.3307 12.0458 24.231 12.1455 24.1315 12.2451C24.0692 12.3012 24.013 12.351 23.9509 12.4008C23.901 12.4445 23.8573 12.4818 23.8075 12.5254C23.6955 12.6126 23.5833 12.6936 23.4587 12.7683C23.3404 12.8431 23.2158 12.9178 23.0913 12.9801C22.9604 13.0424 22.8297 13.0984 22.6989 13.1545C22.5681 13.2043 22.4311 13.2479 22.2941 13.2853C22.1571 13.3227 22.0138 13.3538 21.8768 13.3787C21.7335 13.4036 21.5903 13.4161 21.4532 13.4285C21.3535 13.4348 21.254 13.441 21.1543 13.441C21.0111 13.441 20.8677 13.4285 20.7308 13.4161C20.5875 13.4036 20.4442 13.3849 20.3072 13.3538C20.164 13.3288 20.0269 13.2915 19.8899 13.2479H19.8837C20.0206 13.2354 20.1577 13.223 20.2948 13.1981C20.438 13.1731 20.5751 13.142 20.712 13.1046C20.8491 13.0673 20.9861 13.0237 21.1169 12.9739C21.2539 12.924 21.3848 12.8617 21.5092 12.7995C21.6401 12.7372 21.7584 12.6687 21.8829 12.5939C22.0014 12.5129 22.1197 12.432 22.2318 12.3448C22.3438 12.2576 22.4498 12.1642 22.5494 12.0645C22.6553 11.9711 22.7487 11.8652 22.8421 11.7593C22.9355 11.6472 23.0227 11.5351 23.1038 11.423C23.1161 11.4043 23.1287 11.3794 23.1412 11.3607C23.2033 11.261 23.2656 11.1614 23.3218 11.0617C23.3903 10.9372 23.4526 10.8126 23.5086 10.6818C23.5646 10.551 23.6144 10.4202 23.6581 10.2832C23.7016 10.1524 23.7329 10.0154 23.7639 9.87835C23.7889 9.73509 23.8138 9.59806 23.8262 9.46105C23.8387 9.31779 23.8512 9.17454 23.8512 9.03752C23.8512 8.93786 23.8449 8.8382 23.8387 8.73856C23.8262 8.5953 23.8076 8.45827 23.7889 8.32126C23.7639 8.178 23.7329 8.04098 23.6955 7.90395C23.6518 7.77316 23.6083 7.63614 23.5584 7.50534C23.5086 7.37454 23.4463 7.24375 23.3841 7.11918C23.3155 6.99461 23.247 6.87005 23.1723 6.75171C23.0913 6.63337 23.0103 6.52125 22.9232 6.40915C22.8297 6.30326 22.7363 6.19738 22.6366 6.09149C22.5867 6.04168 22.5307 5.98562 22.4747 5.93579C22.1944 5.7178 21.9017 5.51226 21.6089 5.32542C21.5654 5.30048 21.528 5.28182 21.4844 5.26313C21.2789 5.13233 21.0857 5.06378 20.8926 5.00151Z" fill="#d20f39"/>
</svg>
