<svg width="33" height="33" viewBox="0 0 33 33" fill="none" xmlns="http://www.w3.org/2000/svg">
<path fill-rule="evenodd" clip-rule="evenodd" d="M18.5688 4.64648V4.64648C18.3671 4.64648 18.3221 4.90993 18.4408 5.07308C18.5449 5.21615 18.6159 5.37448 18.6622 5.54337C18.6685 5.58697 18.681 5.61811 18.6872 5.66171C18.6935 5.69908 18.6996 5.73645 18.6996 5.77381C18.7245 6.32191 18.5564 6.39043 18.4381 6.7143C18.2575 7.1316 18.3073 7.58005 18.5253 7.94129V7.94129C18.5408 7.97765 18.5848 7.96212 18.5812 7.92275C18.4617 6.60358 19.4931 6.29593 19.8441 5.88634C19.9027 5.81796 19.9266 5.72666 19.9136 5.63753C19.8621 5.28228 19.5533 5.0357 19.3038 4.85825C19.0359 4.69631 18.7931 4.64648 18.5688 4.64648ZM20.7214 5.05997C20.6313 5.02707 20.545 5.08651 20.537 5.18212V5.18212C20.5308 5.23195 20.5308 5.29424 20.5246 5.34407C20.5122 5.39388 20.4997 5.44371 20.481 5.49354C20.4685 5.54337 20.4499 5.5932 20.4311 5.64302C20.4203 5.66456 20.4107 5.68494 20.4013 5.70516C20.376 5.75934 20.3488 5.81325 20.3128 5.86101V5.86101C20.3003 5.8797 20.2879 5.89838 20.2754 5.91707C20.2443 5.96067 20.2131 6.00427 20.182 6.04164C20.1454 6.07825 20.1148 6.12084 20.0725 6.15185C20.0709 6.15306 20.0699 6.15497 20.0699 6.15702V6.15702C20.0699 6.1589 20.0691 6.16068 20.0676 6.16189C20.031 6.19264 19.9942 6.22913 19.9516 6.25965C19.8208 6.35929 19.6713 6.43403 19.5342 6.52746V6.52746C19.4504 6.58741 19.3642 6.64753 19.2914 6.72054V6.72054C19.2478 6.75791 19.2167 6.79528 19.1793 6.83888C19.1481 6.87625 19.1107 6.91985 19.0858 6.96345C19.0547 7.00705 19.0236 7.05065 18.9987 7.09424C18.9738 7.14406 18.955 7.18767 18.9301 7.23749C18.9114 7.28732 18.8927 7.33092 18.8802 7.38075C18.8616 7.43681 18.8491 7.48662 18.8367 7.53645C18.8305 7.56139 18.8305 7.59251 18.8242 7.61742V7.61742C18.8121 7.66631 18.8117 7.71766 18.8088 7.76793C18.8072 7.7951 18.8056 7.82231 18.8056 7.84787V7.84787C18.8056 7.92269 18.8091 7.99807 18.8218 8.0718C18.8243 8.08606 18.8272 8.10066 18.8305 8.1157C18.8367 8.16552 18.8491 8.21534 18.8616 8.26517C18.8804 8.315 18.8928 8.36483 18.9114 8.41465V8.41465C18.9242 8.44664 18.8962 8.47909 18.8641 8.46665L17.5226 7.94753C17.2796 7.87901 17.0429 7.81674 16.8001 7.76068C16.6692 7.72954 16.5384 7.69839 16.4077 7.66725C16.034 7.59251 15.654 7.53645 15.2741 7.49908C15.2617 7.49908 15.2554 7.49285 15.2429 7.49285C14.8692 7.45548 14.5017 7.43679 14.128 7.43679C13.854 7.43679 13.58 7.44924 13.3122 7.46793C12.9322 7.49287 12.5523 7.54268 12.1724 7.60496C12.0789 7.61741 11.9855 7.63611 11.8921 7.65479C11.699 7.69216 11.5121 7.73576 11.3315 7.77935C11.2381 7.80428 11.1447 7.82918 11.0513 7.85409C10.9578 7.89146 10.8706 7.93506 10.7834 7.97243C10.7149 8.00358 10.6464 8.03472 10.5779 8.06586V8.06586C10.5579 8.07588 10.5366 8.08344 10.5165 8.09324C10.481 8.11051 10.4474 8.12633 10.4143 8.14323C10.3862 8.15759 10.357 8.17004 10.3288 8.18419V8.18419C10.2603 8.21533 10.1917 8.2527 10.1357 8.28384C10.0921 8.30253 10.0485 8.32744 10.0111 8.34613C9.99243 8.35858 9.96752 8.37105 9.95506 8.37727C9.89901 8.4084 9.84295 8.43956 9.79312 8.47069C9.73706 8.50183 9.68725 8.53297 9.64364 8.56412C9.60005 8.59526 9.55645 8.62017 9.51907 8.65132V8.65132C9.50846 8.66193 9.49408 8.66792 9.48171 8.6764C9.45366 8.69563 9.42345 8.71753 9.39568 8.73982C9.38653 8.74717 9.37789 8.75511 9.36961 8.76341V8.76341C9.34433 8.78364 9.31905 8.80385 9.29378 8.82407C9.28208 8.83343 9.26944 8.84165 9.25746 8.85064V8.85064C9.24552 8.85959 9.23288 8.8677 9.22157 8.87743C9.20521 8.8915 9.18886 8.90665 9.17251 8.92107C9.15495 8.93657 9.13704 8.95242 9.12046 8.96896V8.96896C9.08745 9.00197 9.05444 9.03013 9.02144 9.062C9.01299 9.07016 9.0042 9.07899 8.99591 9.0873V9.0873C8.95853 9.11844 8.92116 9.1558 8.88379 9.19317V9.19317C8.8755 9.20148 8.86667 9.21027 8.85839 9.21859C8.83157 9.24552 8.80475 9.27309 8.77791 9.30528C8.76547 9.31773 8.74677 9.3302 8.73433 9.34265C8.70711 9.37529 8.67516 9.40794 8.6426 9.44058C8.63323 9.44998 8.62536 9.46094 8.61598 9.47032V9.47032C8.6066 9.47971 8.59871 9.49065 8.58943 9.50014C8.54532 9.54522 8.50534 9.5903 8.46026 9.63538C8.45403 9.64162 8.44781 9.64783 8.44158 9.65407C8.34192 9.75995 8.23603 9.86584 8.12393 9.95925C8.01182 10.0589 7.89349 10.1523 7.77514 10.2333C7.65057 10.3205 7.53223 10.3952 7.40144 10.47C7.27687 10.5385 7.14607 10.6008 7.00906 10.6568C6.87826 10.7129 6.74123 10.7627 6.60421 10.8063C6.34261 10.8624 6.0748 10.9682 5.84435 10.9869C5.79452 10.9869 5.73847 10.9994 5.68864 11.0056C5.63258 11.0181 5.58275 11.0305 5.53294 11.043C5.48311 11.0617 5.43328 11.0804 5.38345 11.099C5.381 11.1 5.37855 11.1009 5.3761 11.1018C5.27886 11.1395 5.18722 11.1917 5.1017 11.2514C5.10011 11.2525 5.09852 11.2536 5.09695 11.2548V11.2548C5.00831 11.3181 4.92775 11.3928 4.85072 11.4698C4.84975 11.4708 4.84878 11.4718 4.84781 11.4727C4.81043 11.5164 4.77306 11.5537 4.74192 11.5973C4.73937 11.6014 4.73678 11.6054 4.73415 11.6094C4.67697 11.6967 4.61421 11.7812 4.56634 11.8739C4.56463 11.8772 4.56295 11.8805 4.5613 11.8838C4.53638 11.9399 4.51148 11.9897 4.49279 12.0458C4.4741 12.0956 4.45542 12.1516 4.43673 12.2077C4.42428 12.2575 4.41181 12.3074 4.40559 12.3572V12.3572C4.40559 12.3704 4.39778 12.3823 4.39561 12.3954C4.38684 12.4482 4.38621 12.5109 4.38067 12.544C4.37443 12.5876 4.36823 12.625 4.36823 12.6686C4.36823 12.6935 4.36822 12.7247 4.37447 12.7496C4.3807 12.7932 4.38692 12.8305 4.39939 12.8679C4.41153 12.9043 4.42369 12.9408 4.4416 12.9772C4.44251 12.9791 4.44299 12.9811 4.44299 12.9831V12.9831C4.44299 12.9852 4.44346 12.9872 4.44439 12.989C4.46291 13.0255 4.48721 13.0619 4.5115 13.0984C4.53642 13.1357 4.56133 13.1731 4.59246 13.2105C4.6236 13.2416 4.66097 13.279 4.69835 13.3101C4.73572 13.3475 4.77309 13.3786 4.81669 13.4098C4.96616 13.5406 5.00353 13.5842 5.19662 13.6838C5.22681 13.702 5.257 13.7142 5.29288 13.732C5.29512 13.7331 5.29746 13.7335 5.29985 13.7343V13.7343C5.30833 13.7369 5.31426 13.7472 5.31582 13.7559C5.31642 13.7593 5.31745 13.7627 5.3192 13.7668C5.32044 13.7696 5.32139 13.7726 5.3218 13.7757C5.32821 13.824 5.34027 13.8722 5.35234 13.9205C5.36478 13.9766 5.38348 14.0264 5.40217 14.07C5.42086 14.1074 5.43331 14.1447 5.452 14.1821V14.1821C5.46277 14.2037 5.47607 14.2243 5.48729 14.2456C5.50667 14.2825 5.52604 14.3164 5.54541 14.3503C5.57656 14.3938 5.6077 14.4375 5.63884 14.481C5.66998 14.5184 5.70736 14.5621 5.74473 14.5994C5.78182 14.6365 5.81892 14.6675 5.86211 14.7045C5.86274 14.7051 5.8626 14.7049 5.86321 14.7055V14.7055C5.86929 14.7112 5.87902 14.7144 5.88544 14.7198C5.9195 14.7482 5.95356 14.776 5.98762 14.7987C6.03122 14.8298 6.07482 14.8547 6.12465 14.8797C6.16824 14.9046 6.21807 14.9295 6.2679 14.9483C6.29978 14.9641 6.3362 14.9755 6.37328 14.9863C6.38585 14.9899 6.39581 14.9954 6.40801 15.0002V15.0002C6.41302 15.0021 6.42001 15.0049 6.42524 15.0062C6.42568 15.0063 6.42611 15.0064 6.42655 15.0065C6.4681 15.0164 6.4966 15.0538 6.49447 15.0965C6.47906 15.4048 6.47709 15.6851 6.52328 15.789V15.789C6.62424 16.0134 7.07129 15.8218 7.1015 16.066C7.10752 16.1147 7.11601 16.154 7.12744 16.1815C7.16154 16.259 7.27128 16.1775 7.41285 16.01C7.7617 15.5974 8.18929 15.2338 8.72585 15.17C12.8047 14.6853 16.366 17.6186 16.7627 21.6561C16.7008 21.1413 16.2009 20.8016 15.7994 20.7124C15.5977 20.6676 15.4304 20.8179 15.3399 21.0036C15.2012 21.2878 15.0161 21.5906 14.773 21.8466C14.6613 21.9643 14.4804 21.869 14.4808 21.7067V21.7067C14.4814 21.5065 14.204 21.4801 14.1175 21.6606C14.0064 21.8926 13.873 22.1139 13.7199 22.3216C13.66 22.4028 13.5663 22.4534 13.4655 22.4511C12.9483 22.4389 12.4504 22.1856 12.161 21.8172C12.1391 21.7894 12.114 21.7634 12.0992 21.7312V21.7312C12.0874 21.7056 12.0732 21.6805 12.0624 21.6544C12.0497 21.6238 12.0379 21.5933 12.0292 21.5627C12.0105 21.5192 11.998 21.4755 11.9918 21.432C11.9855 21.3883 11.9855 21.3447 11.9855 21.2949V21.2949C11.9855 21.2327 11.9892 21.1703 12.0055 21.1103C12.0091 21.0971 12.0129 21.0839 12.0167 21.0707C12.0291 21.0271 12.0416 20.9835 12.0603 20.9398V20.9398C12.11 20.853 12.1549 20.7619 12.1787 20.6648C12.2356 20.4321 12.2088 20.2434 12.0478 20.124C12.0339 20.1147 12.02 20.1063 12.0058 20.0985C11.9564 20.0712 11.9032 20.0506 11.8485 20.0368V20.0368C11.8298 20.0305 11.8174 20.0243 11.7987 20.0181C11.7551 20.0057 11.7115 19.9932 11.6679 19.9869V19.9869C11.5831 19.9627 11.4935 19.9568 11.4052 19.9559C11.4035 19.9558 11.4018 19.9558 11.4001 19.9558C11.3689 19.9558 11.3378 19.962 11.3067 19.962C11.2568 19.962 11.2132 19.9683 11.1696 19.9808C11.126 19.9869 11.0824 19.9932 11.0388 20.0057C10.9952 20.0181 10.9516 20.0306 10.908 20.0492C10.8644 20.068 10.8271 20.0866 10.7835 20.1054V20.1054C10.7038 20.1451 10.6263 20.191 10.5554 20.2448C9.55712 21.0036 9.83003 22.4352 10.4489 23.3383C10.6305 23.6033 10.4657 24.0085 10.2105 24.2036V24.2036V24.2036C10.2041 24.2099 10.2054 24.2205 10.2131 24.2251C10.4764 24.383 10.7516 24.5172 11.0388 24.6333C11.4355 24.7634 11.8568 24.8813 12.045 24.9316C12.0467 24.9321 12.0478 24.9336 12.0478 24.9353V24.9353C12.0478 24.9372 12.0491 24.9388 12.0509 24.9391C12.5669 25.0445 13.089 25.0817 13.6174 25.0507C16.3217 24.8614 18.5473 22.8413 19.0218 20.1574C19.0277 20.1238 19.0785 20.1218 19.0859 20.1551V20.1551C19.1045 20.2672 19.1294 20.3855 19.1419 20.504V20.504C19.1419 20.5081 19.1424 20.5122 19.1432 20.5162C19.1548 20.5703 19.1609 20.6241 19.1668 20.6721V20.697C19.1731 20.7531 19.1793 20.8092 19.1793 20.8589C19.1856 20.9275 19.1917 20.996 19.1917 21.0646V21.1641C19.1917 21.1953 19.198 21.2327 19.198 21.2638C19.198 21.3012 19.1917 21.3386 19.1917 21.376V21.4632C19.1917 21.5067 19.1856 21.5441 19.1856 21.5877C19.1856 21.5971 19.1856 21.6066 19.1852 21.6164C19.184 21.6514 19.1794 21.6864 19.1771 21.7213C19.1765 21.7304 19.1758 21.7396 19.1752 21.749C19.1727 21.7865 19.1668 21.8242 19.1668 21.8618V21.8618C19.1605 21.9115 19.1544 21.9552 19.1481 22.005V22.005C19.1481 22.0426 19.1403 22.08 19.1347 22.1172C19.1285 22.1584 19.1212 22.1985 19.117 22.2416V22.2479V22.2479C19.117 22.252 19.1165 22.2561 19.1157 22.2601C19.1043 22.3116 19.093 22.3679 19.0816 22.4195C19.0803 22.4255 19.0796 22.4317 19.0796 22.4379V22.4379C19.0796 22.4441 19.0789 22.4502 19.0776 22.4563C19.0667 22.5051 19.0559 22.5539 19.045 22.6027C19.0432 22.6111 19.0418 22.6197 19.039 22.6279V22.6279C19.0363 22.636 19.035 22.6444 19.0332 22.6528C19.0224 22.7016 19.0111 22.7504 18.9954 22.7992C18.9934 22.8054 18.9924 22.8118 18.9924 22.8183V22.8183C18.9924 22.8242 18.9915 22.83 18.9898 22.8356C18.9731 22.8912 18.9564 22.9419 18.9446 22.9924C18.9432 22.9984 18.9378 23.0061 18.9366 23.0122V23.0122C18.936 23.0153 18.9359 23.0156 18.935 23.0186C18.9167 23.0793 18.8985 23.1401 18.8802 23.2008C18.8553 23.2631 18.8367 23.3192 18.8118 23.3815C18.7868 23.4438 18.7682 23.5061 18.7433 23.5621C18.7188 23.6234 18.6943 23.6787 18.6697 23.7397C18.669 23.7415 18.6673 23.7427 18.6653 23.7427V23.7427C18.6634 23.7427 18.6617 23.7438 18.661 23.7455C18.6387 23.7958 18.6164 23.8508 18.5896 23.9017C18.5842 23.912 18.5796 23.9228 18.5752 23.9336C18.5726 23.9398 18.5701 23.9454 18.5675 23.9507C18.5643 23.9573 18.5597 23.9633 18.5564 23.9699V23.9699C18.5531 23.9767 18.5485 23.9829 18.5451 23.9897C18.1403 24.8013 17.5442 25.5139 16.8 26.0722C16.7501 26.1032 16.7003 26.1406 16.6506 26.178C16.6412 26.1874 16.6283 26.1932 16.6172 26.2008C16.6099 26.2058 16.6033 26.2117 16.5961 26.2168C16.5623 26.241 16.5282 26.2651 16.4908 26.2892C16.479 26.2969 16.4747 26.3123 16.481 26.3249L16.4861 26.3351C16.4876 26.3381 16.4907 26.34 16.4941 26.34V26.34C16.4945 26.34 16.495 26.34 16.4954 26.3399C16.5814 26.3276 16.6674 26.3153 16.7535 26.303C16.7554 26.3028 16.7574 26.3026 16.7594 26.3026V26.3026C16.7615 26.3026 16.7636 26.3025 16.7657 26.3021C16.9267 26.2773 17.0876 26.2463 17.2484 26.2154C17.2921 26.2091 17.3419 26.1968 17.3855 26.1843C17.4166 26.178 17.4415 26.1718 17.4727 26.1655C17.4782 26.1648 17.4837 26.1639 17.4892 26.1629C17.5655 26.1495 17.6422 26.134 17.7156 26.1095V26.1095V26.1095C18.2366 25.9845 18.649 26.5668 18.2557 26.9306C18.0156 27.1527 17.7642 27.3632 17.5025 27.5612C17.1513 27.827 17.3546 28.4239 17.7778 28.3018V28.3018C19.5373 27.7823 21.101 26.7976 22.3143 25.4721C22.6095 25.1495 23.1727 25.4067 22.9989 25.8079V25.8079C22.8286 26.2012 23.2779 26.6015 23.5786 26.2961C23.6029 26.2714 23.6271 26.2465 23.6512 26.2216C24.6303 25.1988 25.3732 23.9827 25.8369 22.6617C25.959 22.3136 26.4793 22.3336 26.4911 22.7023V22.7023C26.502 23.0416 26.9507 23.1894 27.1189 22.8945C30.504 16.9592 26.7352 11.0646 25.1038 9.44382C25.1028 9.44281 25.1021 9.44172 25.1014 9.44045C25.0983 9.43455 25.0953 9.43003 25.0931 9.42534C25.0909 9.42048 25.0838 9.41833 25.0838 9.42368V9.42368V9.42368C25.0838 9.41824 25.0775 9.42047 25.0774 9.42591C25.0767 9.49577 25.0709 9.56561 25.065 9.63546C25.0464 9.77872 25.0276 9.91573 25.0027 10.0528C24.9716 10.1898 24.9342 10.3268 24.8969 10.4638C24.8533 10.5946 24.8035 10.7317 24.7473 10.8624C24.6913 10.987 24.629 11.1178 24.5606 11.2424C24.4921 11.3607 24.4173 11.4853 24.3363 11.5974C24.2553 11.7157 24.1681 11.8278 24.081 11.9337C23.9875 12.0458 23.8878 12.1455 23.7883 12.2451C23.726 12.3012 23.6698 12.351 23.6077 12.4008C23.5578 12.4445 23.5141 12.4818 23.4643 12.5254C23.3523 12.6126 23.2401 12.6936 23.1155 12.7683C22.9972 12.8431 22.8726 12.9178 22.7481 12.9801C22.6172 13.0424 22.4865 13.0984 22.3557 13.1545C22.2249 13.2043 22.0879 13.2479 21.9509 13.2853C21.8139 13.3227 21.6706 13.3538 21.5336 13.3787C21.3903 13.4036 21.2471 13.4161 21.11 13.4285C21.0103 13.4348 20.9108 13.441 20.8111 13.441C20.6679 13.441 20.5245 13.4285 20.3876 13.4161C20.2443 13.4036 20.101 13.3849 19.964 13.3538C19.8229 13.3292 19.6877 13.2926 19.5526 13.2498C19.5487 13.2485 19.5446 13.2479 19.5405 13.2479V13.2479C19.6774 13.2354 19.8145 13.223 19.9516 13.1981C20.0948 13.1731 20.2319 13.142 20.3688 13.1046C20.5059 13.0673 20.6429 13.0237 20.7737 12.9739C20.9107 12.924 21.0416 12.8617 21.166 12.7995C21.2969 12.7372 21.4152 12.6687 21.5397 12.5939C21.6582 12.5129 21.7765 12.432 21.8886 12.3448C22.0006 12.2576 22.1066 12.1642 22.2062 12.0645C22.3121 11.9711 22.4055 11.8652 22.4989 11.7593C22.5923 11.6472 22.6795 11.5351 22.7606 11.423C22.7729 11.4043 22.7855 11.3794 22.798 11.3607C22.8601 11.261 22.9224 11.1614 22.9786 11.0617C23.0471 10.9372 23.1094 10.8126 23.1654 10.6818C23.2214 10.551 23.2712 10.4202 23.3149 10.2832C23.3584 10.1524 23.3897 10.0154 23.4207 9.87835C23.4457 9.73509 23.4706 9.59807 23.483 9.46105C23.4955 9.31779 23.508 9.17454 23.508 9.03752C23.508 8.93786 23.5017 8.8382 23.4955 8.73856C23.483 8.5953 23.4644 8.45827 23.4457 8.32126C23.4207 8.178 23.3897 8.04098 23.3523 7.90395C23.3086 7.77316 23.2651 7.63614 23.2152 7.50534C23.1654 7.37454 23.1031 7.24375 23.0409 7.11918C22.9723 6.99461 22.9038 6.87005 22.8291 6.75171C22.7481 6.63337 22.6671 6.52125 22.58 6.40915C22.4865 6.30326 22.3931 6.19738 22.2934 6.09149C22.2435 6.04168 22.1875 5.98562 22.1315 5.93579C21.8512 5.71779 21.5585 5.51226 21.2657 5.32542C21.2356 5.30817 21.2084 5.29392 21.1801 5.28058C21.1544 5.2685 21.1293 5.25534 21.105 5.24065C20.9734 5.16092 20.8466 5.10569 20.7214 5.05997Z" fill="#1E66F5"/>
</svg>
