<svg width="33" height="33" viewBox="0 0 33 33" fill="none" xmlns="http://www.w3.org/2000/svg">
<path d="M21.9631 12.8053L21.9539 12.8013C21.9485 12.7993 21.9432 12.7973 21.9386 12.7926C21.931 12.7844 21.9254 12.7746 21.9221 12.7639C21.9189 12.7532 21.9181 12.7419 21.92 12.7308L22.4337 9.58961L24.8432 11.9997L22.3374 13.0658C22.3304 13.0686 22.3229 13.07 22.3154 13.0698H22.3055C22.3021 13.0678 22.2988 13.0651 22.2922 13.0585C22.199 12.9547 22.0875 12.8688 21.9631 12.8053ZM25.458 12.6138L28.0342 15.1901C28.5693 15.7257 28.8372 15.993 28.9348 16.3027C28.9494 16.3486 28.9615 16.3945 28.9707 16.4416L22.814 13.8342C22.8106 13.8328 22.8073 13.8315 22.804 13.8302C22.7794 13.8202 22.7508 13.8089 22.7508 13.7836C22.7508 13.7584 22.7801 13.7464 22.8047 13.7365L22.8126 13.7331L25.458 12.6138ZM28.8657 17.2684C28.7328 17.5183 28.4735 17.7776 28.0348 18.2169L25.1303 21.1209L21.3736 20.3386L21.3536 20.3346C21.3204 20.3292 21.2852 20.3233 21.2852 20.2933C21.271 20.1384 21.2249 19.988 21.15 19.8516C21.0751 19.7152 20.973 19.5956 20.8499 19.5004C20.8346 19.4851 20.8386 19.4613 20.8432 19.4393C20.8432 19.4359 20.8433 19.4326 20.8445 19.4299L21.5511 15.0924L21.5537 15.0778C21.5577 15.0445 21.5637 15.006 21.5936 15.006C21.745 14.9871 21.8912 14.9383 22.0236 14.8625C22.1559 14.7866 22.2718 14.6851 22.3647 14.5639C22.3706 14.5574 22.3746 14.55 22.3825 14.546C22.4038 14.5361 22.4291 14.546 22.451 14.5554L28.8657 17.2684ZM24.4624 21.7889L19.6861 26.5652L20.5036 21.5403L20.505 21.5336C20.5055 21.527 20.5068 21.5203 20.5089 21.5143C20.5156 21.4984 20.5328 21.4918 20.5495 21.4851L20.5574 21.4818C20.7364 21.4054 20.8947 21.2876 21.0193 21.1381C21.0353 21.1196 21.0546 21.1016 21.0792 21.0983C21.0855 21.0972 21.0921 21.0972 21.0984 21.0983L24.4624 21.7889ZM18.6751 27.5761L18.1368 28.1145L12.1846 19.5124C12.1825 19.5092 12.1803 19.5061 12.178 19.5031C12.1687 19.4905 12.1587 19.4779 12.1607 19.4633C12.1607 19.4525 12.168 19.4433 12.1753 19.4353L12.182 19.4267C12.1999 19.4 12.2152 19.3735 12.2318 19.345L12.2451 19.3216L12.2471 19.3196C12.2564 19.3037 12.2651 19.2884 12.281 19.2797C12.295 19.2731 12.3142 19.2758 12.3295 19.279L18.9237 20.639C18.9422 20.6418 18.9594 20.6494 18.9742 20.661C18.9828 20.6695 18.9848 20.6789 18.9868 20.6895C19.0329 20.8635 19.1184 21.0246 19.2369 21.1601C19.3555 21.2955 19.5037 21.4018 19.6701 21.4705C19.6887 21.4797 19.6807 21.5004 19.6721 21.5224C19.6678 21.532 19.6645 21.5419 19.6621 21.5522C19.579 22.0574 18.8665 26.4029 18.6751 27.5761ZM17.5505 28.7C17.1537 29.0928 16.9196 29.3009 16.6552 29.3846C16.3943 29.4672 16.1144 29.4672 15.8535 29.3846C15.5439 29.2863 15.276 29.0191 14.7409 28.4833L8.76361 22.5061L10.3249 20.0847C10.3322 20.0726 10.3395 20.062 10.3515 20.0535C10.3681 20.0414 10.392 20.0468 10.412 20.0535C10.7703 20.1616 11.1551 20.142 11.5007 19.9983C11.5186 19.9916 11.5366 19.987 11.5506 19.9996C11.5575 20.0059 11.5638 20.0131 11.5692 20.0209L17.5505 28.7ZM8.18735 21.9298L6.81615 20.5586L9.52399 19.4034C9.53091 19.4004 9.53837 19.3988 9.54593 19.3987C9.56852 19.3987 9.58181 19.4213 9.59377 19.442C9.62098 19.4838 9.64982 19.5246 9.68018 19.5643L9.68882 19.5749C9.69679 19.5861 9.69149 19.5975 9.6835 19.6081L8.18735 21.9298ZM6.2093 19.9518L4.47453 18.2169C4.17942 17.9219 3.9654 17.7078 3.81652 17.5237L9.09128 18.6177C9.09792 18.619 9.10456 18.6201 9.11123 18.621C9.14379 18.6264 9.17969 18.6324 9.17969 18.663C9.17969 18.6962 9.14047 18.7115 9.10724 18.7241L9.09195 18.7308L6.2093 19.9518ZM3.51343 16.6317C3.51944 16.52 3.53954 16.4095 3.57325 16.3027C3.67161 15.993 3.93882 15.7257 4.47453 15.1901L6.69451 12.9701C7.71666 14.4535 8.74157 15.9351 9.76925 17.4148C9.78719 17.4386 9.80713 17.4653 9.78652 17.4851C9.68949 17.5922 9.59245 17.7091 9.52399 17.8361C9.51656 17.8525 9.50513 17.8666 9.49075 17.8773C9.48211 17.8826 9.47281 17.8806 9.46284 17.8786L3.51343 16.6317ZM7.28872 12.3759L10.2724 9.39088C10.5536 9.51384 11.5751 9.9452 12.4877 10.3307C13.179 10.6232 13.809 10.889 14.0072 10.9754C14.027 10.9834 14.045 10.9914 14.0537 11.0113C14.0591 11.0233 14.0564 11.0386 14.0537 11.0512C14.0064 11.2667 14.0135 11.4905 14.0742 11.7026C14.1348 11.9147 14.2472 12.1083 14.4012 12.2662C14.4212 12.2862 14.4013 12.3147 14.384 12.3393L14.3747 12.3533L11.3438 17.0478C11.3359 17.0612 11.3286 17.0724 11.3153 17.081C11.2993 17.091 11.2767 17.0864 11.2581 17.0817C11.1402 17.0508 11.019 17.0344 10.8972 17.0325C10.7882 17.0325 10.6699 17.0525 10.5502 17.0744C10.5369 17.0764 10.5243 17.079 10.5137 17.0711C10.5019 17.0614 10.4918 17.05 10.4838 17.0372L7.28872 12.3759ZM10.8766 8.78802L14.7409 4.92367C15.276 4.38861 15.5439 4.12075 15.8535 4.02304C16.1144 3.94056 16.3943 3.94056 16.6552 4.02304C16.9649 4.12075 17.2328 4.38861 17.7678 4.92367L18.6053 5.76115L15.8569 10.0177C15.8502 10.03 15.8408 10.0409 15.8297 10.0496C15.8131 10.0609 15.7897 10.0562 15.7698 10.0496C15.5531 9.98379 15.3237 9.97183 15.1013 10.0147C14.879 10.0575 14.6704 10.1539 14.4937 10.2955C14.4757 10.3141 14.4492 10.3035 14.4266 10.2935C14.0676 10.1373 11.276 8.95751 10.8766 8.78802ZM19.1888 6.34472L21.7265 8.8824L21.115 12.6697V12.6796C21.1145 12.6883 21.1127 12.6968 21.1098 12.7049C21.1031 12.7182 21.0898 12.7208 21.0766 12.7248C20.9458 12.7644 20.8227 12.8258 20.7122 12.9063C20.7076 12.9097 20.7031 12.9134 20.699 12.9176C20.6916 12.9256 20.6844 12.9329 20.6725 12.9342C20.6627 12.9345 20.6529 12.9329 20.6438 12.9296L16.7768 11.2865L16.7695 11.2832C16.7449 11.2732 16.7157 11.2612 16.7157 11.236C16.6929 11.0205 16.6226 10.8127 16.5097 10.6278C16.491 10.5972 16.4704 10.5653 16.4863 10.5341L19.1888 6.34472ZM16.5754 12.0648L20.2006 13.6002C20.2204 13.6095 20.2424 13.6181 20.2511 13.6387C20.2544 13.6511 20.2544 13.6642 20.2511 13.6766C20.2404 13.7298 20.2311 13.7903 20.2311 13.8514V13.9531C20.2311 13.9784 20.2051 13.989 20.1813 13.999L20.1739 14.0017C19.5996 14.2469 12.1115 17.4399 12.1002 17.4399C12.0889 17.4399 12.077 17.4399 12.0657 17.4287C12.0457 17.4087 12.0657 17.3809 12.0836 17.3555C12.0868 17.3511 12.0899 17.3467 12.0929 17.3423L15.072 12.7295L15.0772 12.7215C15.0945 12.6936 15.1145 12.6624 15.1463 12.6624L15.1764 12.667C15.2442 12.6763 15.3039 12.6849 15.3643 12.6849C15.8164 12.6849 16.2351 12.4649 16.4877 12.0887C16.4937 12.0787 16.5013 12.0697 16.5103 12.0622C16.5283 12.0489 16.5548 12.0555 16.5754 12.0648ZM12.4239 18.1698L20.586 14.6889C20.586 14.6889 20.598 14.6889 20.6092 14.7002C20.6538 14.7447 20.6916 14.7747 20.7282 14.8026L20.7461 14.8138C20.7628 14.8232 20.7794 14.8338 20.7807 14.8511C20.7807 14.8578 20.7807 14.8618 20.7794 14.8677L20.0802 19.1627L20.0776 19.18C20.0729 19.2132 20.0682 19.2512 20.037 19.2512C19.8506 19.2638 19.67 19.3216 19.5111 19.4197C19.352 19.5178 19.2192 19.6531 19.1244 19.8142L19.121 19.8194C19.1118 19.8348 19.1031 19.8494 19.0878 19.8573C19.0739 19.864 19.0559 19.8613 19.0413 19.858L12.5323 18.5154C12.5256 18.5141 12.4312 18.1704 12.4239 18.1698Z" fill="#179299"/>
</svg>
