<svg width="33" height="33" viewBox="0 0 33 33" fill="none" xmlns="http://www.w3.org/2000/svg">
<path d="M11.3641 4.64648L9.84117 4.64872L9.09531 5.93945L10.8338 8.96864L7.33117 8.95972L5.85733 11.5724H18.9097L17.399 8.96864L13.8351 8.96194L11.3641 4.64648ZM18.2588 4.64648L15.2586 4.67439L21.786 15.9817L23.2833 13.369L21.508 10.2817L24.0091 5.98299L23.2465 4.66323H21.7548L20.0017 7.6835L18.2588 4.64648ZM25.9485 9.3304L19.4212 20.6354L22.4314 20.6266L24.2189 17.5449L29.191 17.5627L29.9524 16.2419L29.2088 14.95L25.7141 14.941L27.4714 11.913L25.9485 9.3304ZM13.6866 11.8974L10.6763 11.9063L8.88876 14.9879L3.91676 14.9701L3.15527 16.2899L3.89889 17.5817L7.39369 17.5906L5.63512 20.6165L7.15921 23.2012L13.6866 11.8974ZM11.3396 16.5467L11.3329 16.5578L11.3306 16.5534L9.83223 19.1661L11.6075 22.2533L9.10648 26.5521L9.8702 27.8719H11.3619L11.3664 27.8652L13.1171 24.8526L14.8567 27.8897L17.8579 27.8606L17.8535 27.8539H17.8646L11.3396 16.5467ZM14.1867 20.9347L15.6986 23.5385L19.2626 23.5452L21.7358 27.8606L23.2576 27.8585L24.0035 26.5676L22.265 23.5385L25.7677 23.5475L27.2415 20.9347H14.1867Z" fill="#1e66f5"/>
</svg>
