<svg width="34" height="33" viewBox="0 0 34 33" fill="none" xmlns="http://www.w3.org/2000/svg">
<path d="M12.1526 5.15045C11.9742 4.83884 11.6424 4.64681 11.2834 4.64734L10.9172 4.64788C10.5606 4.6484 10.2313 4.83878 10.0529 5.14754L9.88338 5.44083C9.70502 5.74948 9.70446 6.12974 9.8819 6.43892L10.4716 7.46647C10.8548 8.13412 10.3715 8.96619 9.60175 8.96423L8.41685 8.96121C8.0551 8.96029 7.72106 9.15481 7.54332 9.46988L7.19852 10.0811C6.82248 10.7477 7.30414 11.5724 8.0695 11.5724H17.6734C18.4441 11.5724 18.9251 10.7373 18.5383 10.0706L18.1874 9.46572C18.0088 9.15794 17.6801 8.96823 17.3243 8.96756L14.9135 8.96303C14.5556 8.96236 14.2254 8.77049 14.0476 8.45992L12.1526 5.15045ZM19.0501 5.15414C18.8702 4.84059 18.535 4.64857 18.1735 4.65193L17.472 4.65845C16.7063 4.66558 16.2324 5.49527 16.6152 6.15836L21.4167 14.476C21.8023 15.1439 22.7669 15.1424 23.1504 14.4732L23.4978 13.867C23.6746 13.5586 23.6743 13.1795 23.4971 12.8713L22.2963 10.7831C22.1179 10.4729 22.1189 10.091 22.2988 9.78174L24.2174 6.48418C24.3978 6.17422 24.3983 5.79143 24.2189 5.48094L24.0351 5.1629C23.8564 4.85369 23.5264 4.66323 23.1693 4.66323H22.8305C22.4741 4.66323 22.1446 4.85296 21.9657 5.16123L21.3714 6.185C20.9849 6.85088 20.0225 6.84852 19.6392 6.18074L19.0501 5.15414ZM27.319 10.8066C26.93 10.147 25.9744 10.1514 25.5916 10.8145L20.7901 19.1303C20.4046 19.7981 20.888 20.6326 21.6591 20.6303L22.3573 20.6283C22.7128 20.6272 23.041 20.4375 23.2194 20.13L24.4287 18.0452C24.6082 17.7357 24.9394 17.5457 25.2973 17.547L29.1108 17.5606C29.4695 17.5619 29.8015 17.3709 29.9807 17.0601L30.1647 16.7409C30.3428 16.432 30.3429 16.0517 30.165 15.7426L29.9964 15.4496C29.8184 15.1404 29.4891 14.9494 29.1323 14.9485L27.9454 14.9455C27.1758 14.9435 26.6968 14.1092 27.0831 13.4435L27.6777 12.419C27.8591 12.1064 27.8578 11.7203 27.6742 11.4091L27.319 10.8066ZM13.3173 13.4026C13.7029 12.7348 13.2195 11.9002 12.4484 11.9025L11.7503 11.9046C11.3948 11.9056 11.0666 12.0953 10.8883 12.4028L9.67891 14.4876C9.49936 14.7971 9.16813 14.9871 8.81032 14.9858L4.99662 14.9722C4.63797 14.9709 4.30611 15.1618 4.12687 15.4724L3.94322 15.7907C3.76496 16.0996 3.76476 16.4802 3.94271 16.7893L4.11122 17.0821C4.28923 17.3913 4.61854 17.5823 4.97537 17.5832L6.16093 17.5862C6.93087 17.5882 7.40987 18.423 7.023 19.0887L6.42921 20.1104C6.24753 20.423 6.24875 20.8093 6.4324 21.1208L6.78871 21.7251C7.17763 22.3846 8.13321 22.3803 8.51611 21.7172L13.3173 13.4026ZM11.8426 16.5521C11.8412 16.5497 11.8377 16.5497 11.8363 16.5521L11.8341 16.5557C11.8335 16.5566 11.8322 16.5566 11.8317 16.5556V16.5556C11.8312 16.5547 11.8299 16.5546 11.8293 16.5556L10.6179 18.668C10.441 18.9764 10.4412 19.3557 10.6185 19.664L11.8191 21.7519C11.9975 22.0621 11.9966 22.444 11.8166 22.7533L9.89822 26.0506C9.71777 26.3607 9.71733 26.7437 9.89704 27.0543L10.0813 27.3727C10.2601 27.6816 10.5899 27.8719 10.9468 27.8719H11.8538C11.8588 27.8719 11.8635 27.8693 11.8663 27.8652V27.8652L12.7462 26.3512C13.1331 25.6854 14.0958 25.6884 14.4785 26.3566L15.0653 27.3811C15.2452 27.6952 15.5808 27.8875 15.9427 27.884L18.3539 27.8606C18.3556 27.8606 18.3566 27.8587 18.3557 27.8573V27.8573C18.3547 27.8558 18.3558 27.8539 18.3575 27.8539H18.3592C18.3616 27.8539 18.3631 27.8513 18.3619 27.8493L11.8426 16.5521ZM16.4237 20.9347C15.6528 20.9347 15.1718 21.7702 15.5589 22.4369L15.9101 23.0417C16.0887 23.3493 16.4173 23.5389 16.773 23.5396L19.1844 23.5441C19.5421 23.5448 19.8722 23.7365 20.0501 24.0469L21.9471 27.357C22.1256 27.6684 22.4572 27.8603 22.8161 27.8598L23.1813 27.8593C23.538 27.8588 23.8673 27.6684 24.0458 27.3596L24.2153 27.0663C24.3936 26.7576 24.3942 26.3773 24.2168 26.0682L23.6271 25.0407C23.2439 24.373 23.7272 23.541 24.4969 23.5429L25.6819 23.546C26.0436 23.5469 26.3777 23.3524 26.5554 23.0373L26.9002 22.4261C27.2762 21.7594 26.7946 20.9347 26.0292 20.9347H16.4237Z" fill="#1E66F5"/>
</svg>
