<svg width="33" height="33" viewBox="0 0 33 33" fill="none" xmlns="http://www.w3.org/2000/svg">
<path fill-rule="evenodd" clip-rule="evenodd" d="M15.1867 29.828C15.5013 30.0091 15.8577 30.1033 16.2165 30.1033L16.2156 30.0981C16.5787 30.099 16.9356 30.004 17.2504 29.8229L27.0674 24.1525C27.7015 23.7837 28.0972 23.098 28.0972 22.3631V11.032C28.0971 10.6698 28.0018 10.3139 27.8211 9.99989C27.6404 9.68591 27.3805 9.42483 27.0674 9.24266L17.2504 3.56977C16.6335 3.21828 15.8076 3.21828 15.1858 3.56977L5.35651 9.24019C4.7199 9.60397 4.32663 10.2922 4.32663 11.0296V22.3605C4.32688 22.7232 4.42209 23.0794 4.60277 23.3937C4.78347 23.7082 5.04333 23.9697 5.35651 24.1525L7.93242 25.637C9.18104 26.2515 9.62838 26.2515 10.1962 26.2515C12.0421 26.2515 13.1039 25.1331 13.1039 23.1864V11.998C13.1039 11.8382 12.9761 11.7153 12.8212 11.7153H11.5775C11.4178 11.7153 11.2924 11.8382 11.2924 11.998V23.1816C11.2924 24.0468 10.4002 24.9071 8.94016 24.177L6.25119 22.6236C6.15779 22.572 6.09881 22.4688 6.09881 22.3605V11.0296C6.09881 10.9214 6.15926 10.8157 6.25439 10.7617L16.068 5.0986C16.1588 5.04452 16.2793 5.04452 16.3702 5.0986L26.1858 10.7617C26.2786 10.8182 26.3376 10.919 26.3376 11.032V22.3631C26.3376 22.4712 26.2786 22.5769 26.1876 22.6285L16.3682 28.2965C16.2839 28.3457 16.1549 28.3457 16.0639 28.2965L13.5455 26.802C13.4706 26.7578 13.3748 26.7431 13.3015 26.7849C12.6047 27.1806 12.4722 27.2323 11.8194 27.4608C11.6579 27.5166 11.419 27.6135 11.9086 27.8872L15.1867 29.828ZM14.0524 18.6691C14.0524 20.3233 14.9532 22.2954 19.2497 22.2954L19.2354 22.3071C22.3471 22.3071 24.1316 21.0806 24.1316 18.9422C24.1316 16.8209 22.6986 16.2556 19.6803 15.855C16.6324 15.4518 16.3228 15.2429 16.3228 14.5277C16.3228 13.9378 16.5858 13.1512 18.8445 13.1512C20.8625 13.1512 21.6048 13.5863 21.912 14.9455C21.9391 15.0733 22.0546 15.1667 22.1874 15.1667H23.463C23.5026 15.1667 23.5417 15.1585 23.578 15.1426C23.6142 15.1268 23.6467 15.1035 23.6735 15.0744C23.7003 15.0453 23.7208 15.011 23.7336 14.9735C23.7464 14.9361 23.7514 14.8965 23.7482 14.8571C23.5515 12.5122 21.9932 11.4209 18.8495 11.4209C16.0499 11.4209 14.3785 12.6007 14.3785 14.5817C14.3785 16.7325 16.0401 17.3248 18.729 17.5902C21.944 17.9048 22.1947 18.3743 22.1947 19.0061C22.1947 20.1036 21.3148 20.571 19.2452 20.571C16.6472 20.571 16.0769 19.9192 15.8852 18.6268C15.8631 18.4884 15.7452 18.3864 15.605 18.3864H14.3367C14.1792 18.3864 14.0524 18.5118 14.0524 18.6691Z" fill="#179299"/>
</svg>
