<svg width="33" height="33" viewBox="0 0 33 33" fill="none" xmlns="http://www.w3.org/2000/svg">
<path d="M16.5653 2.99341C16.3377 2.99341 16.1097 3.05236 15.9057 3.17006L4.99222 9.47436C4.79184 9.59012 4.62545 9.75656 4.50974 9.95697C4.39403 10.1574 4.33307 10.3847 4.33301 10.6161V23.225C4.33303 23.4564 4.394 23.6836 4.50976 23.8839C4.62553 24.0844 4.79199 24.2507 4.99243 24.3662L15.9058 30.6652C16.1061 30.781 16.3334 30.8418 16.5646 30.8418C16.796 30.8418 17.0231 30.781 17.2234 30.6652L28.1395 24.3662C28.3401 24.2505 28.5067 24.0843 28.6224 23.8838C28.7382 23.6834 28.7991 23.4559 28.799 23.2245V10.6165C28.799 10.3851 28.738 10.1578 28.6224 9.9574C28.5068 9.757 28.3405 9.59052 28.1402 9.47468L17.2241 3.17027C17.0237 3.05451 16.7968 2.99337 16.5653 2.99341ZM9.43026 8.38607C9.43026 8.38607 10.6939 11.9266 13.233 11.809L16.2064 10.0982C16.3178 10.0334 16.4435 9.99697 16.5724 9.99208H16.641C16.7696 9.99663 16.895 10.0331 17.006 10.0982L19.9791 11.809C22.5184 11.9263 23.7816 8.38607 23.7816 8.38607C24.3425 10.8679 23.8953 12.5279 23.1467 13.6321L23.6335 13.9123C23.8823 14.0545 24.0338 14.3191 24.0342 14.608L24.0213 24.8779C24.0215 24.9478 24.0031 25.0167 23.9683 25.0774C23.9333 25.1381 23.8831 25.1886 23.8225 25.2237C23.7621 25.26 23.6928 25.2793 23.6223 25.2793C23.5517 25.2793 23.4826 25.26 23.4222 25.2237L19.4842 22.9682C19.2366 22.822 19.0832 22.5588 19.0832 22.2736V17.4754C19.0834 17.3349 19.0464 17.1967 18.9761 17.0751C18.9058 16.9534 18.8045 16.8525 18.6825 16.7824L17.006 15.8167C16.8853 15.7455 16.7478 15.7081 16.6078 15.7084C16.4668 15.7081 16.3283 15.7455 16.2066 15.8167L14.5294 16.7824C14.2811 16.9243 14.1296 17.1896 14.1296 17.4757V22.2737C14.1296 22.5591 13.9782 22.8204 13.729 22.9683L9.78998 25.2235C9.73006 25.26 9.66128 25.2793 9.59115 25.2793C9.52102 25.2793 9.45224 25.26 9.39231 25.2235C9.26658 25.1539 9.19251 25.0214 9.19251 24.878L9.17783 14.6081C9.17764 14.4672 9.21459 14.3286 9.28496 14.2064C9.35535 14.0843 9.45667 13.9829 9.57871 13.9124L10.0655 13.6321C9.31707 12.5278 8.86912 10.8677 9.43026 8.38607Z" fill="#179299"/>
</svg>
