<svg width="33" height="33" viewBox="0 0 33 33" fill="none" xmlns="http://www.w3.org/2000/svg">
<path d="M16.0654 2.99341C15.8378 2.99341 15.6099 3.05236 15.4058 3.17006L4.49234 9.47436C4.29196 9.59012 4.12557 9.75656 4.00986 9.95697C3.89415 10.1574 3.8332 10.3847 3.83313 10.6161V23.225C3.83316 23.4564 3.89412 23.6836 4.00988 23.8839C4.12565 24.0844 4.29211 24.2507 4.49255 24.3662L15.4059 30.6652C15.6063 30.781 15.8335 30.8418 16.0647 30.8418C16.2961 30.8418 16.5233 30.781 16.7236 30.6652L27.6397 24.3662C27.8402 24.2505 28.0068 24.0843 28.1225 23.8838C28.2383 23.6834 28.2993 23.4559 28.2991 23.2245V10.6165C28.2991 10.3851 28.2382 10.1578 28.1225 9.9574C28.0069 9.757 27.8406 9.59052 27.6403 9.47468L16.7242 3.17027C16.5238 3.05451 16.2969 2.99337 16.0654 2.99341ZM8.93038 8.38607C8.93038 8.38607 10.194 11.9266 12.7331 11.809L15.7065 10.0982C15.8179 10.0334 15.9436 9.99697 16.0725 9.99208H16.1411C16.2697 9.99663 16.3952 10.0331 16.5061 10.0982L19.4792 11.809C22.0185 11.9263 23.2818 8.38607 23.2818 8.38607C23.8426 10.8679 23.3954 12.5279 22.6468 13.6321L23.1336 13.9123C23.3824 14.0545 23.5339 14.3191 23.5343 14.608L23.5215 24.8779C23.5216 24.9478 23.5032 25.0167 23.4684 25.0774C23.4334 25.1381 23.3832 25.1886 23.3226 25.2237C23.2622 25.26 23.1929 25.2793 23.1225 25.2793C23.0518 25.2793 22.9827 25.26 22.9223 25.2237L18.9843 22.9682C18.7367 22.822 18.5833 22.5588 18.5833 22.2736V17.4754C18.5835 17.3349 18.5466 17.1967 18.4762 17.0751C18.4059 16.9534 18.3046 16.8525 18.1827 16.7824L16.5061 15.8167C16.3854 15.7455 16.2479 15.7081 16.1079 15.7084C15.9669 15.7081 15.8284 15.7455 15.7067 15.8167L14.0295 16.7824C13.7812 16.9243 13.6297 17.1896 13.6297 17.4757V22.2737C13.6297 22.5591 13.4783 22.8204 13.2291 22.9683L9.2901 25.2235C9.23019 25.26 9.1614 25.2793 9.09127 25.2793C9.02114 25.2793 8.95237 25.26 8.89243 25.2235C8.7667 25.1539 8.69264 25.0214 8.69264 24.878L8.67795 14.6081C8.67776 14.4672 8.71472 14.3286 8.78509 14.2064C8.85547 14.0843 8.95679 13.9829 9.07884 13.9124L9.56558 13.6321C8.81719 12.5278 8.36925 10.8677 8.93038 8.38607Z" fill="#179299"/>
</svg>
