<svg width="33" height="33" viewBox="0 0 33 33" fill="none" xmlns="http://www.w3.org/2000/svg">
<path d="M26.1149 6.14186C26.1149 5.40188 25.5151 4.802 24.7751 4.802H11.3765C9.15656 4.802 7.35693 6.60163 7.35693 8.82158V24.8999C7.35693 27.1199 9.15656 28.9195 11.3765 28.9195H24.7751C25.5151 28.9195 26.1149 28.3196 26.1149 27.5796V6.14186Z" stroke="#1e66f5" stroke-width="3" stroke-linejoin="round"/>
<path d="M24.7751 22.2205H8.69679C7.95681 22.2205 7.35693 22.8203 7.35693 23.5603C7.35693 24.3003 7.95681 24.9002 8.69679 24.9002H24.7751C25.5151 24.9002 26.115 24.3003 26.115 23.5603C26.115 22.8203 25.5151 22.2205 24.7751 22.2205Z" fill="#1e66f5"/>
</svg>
