<svg width="33" height="33" viewBox="0 0 33 33" fill="none" xmlns="http://www.w3.org/2000/svg">
<path d="M18.3402 25.6022H28.3018C28.6182 25.6022 28.9289 25.5215 29.2031 25.368C29.4753 25.2163 29.7028 24.9955 29.8627 24.7279C30.0204 24.4636 30.1037 24.1614 30.1039 23.8536C30.1039 23.5467 30.0203 23.2454 29.8619 22.9797L23.172 11.74C23.0121 11.4725 22.7846 11.2518 22.5124 11.1001C22.237 10.9463 21.9268 10.8656 21.6113 10.8658C21.295 10.8658 20.9843 10.9466 20.7103 11.1001C20.438 11.2518 20.2106 11.4725 20.0508 11.74L18.3402 14.6157L14.9958 8.99211C14.8356 8.72466 14.6081 8.50402 14.3359 8.35233C14.0604 8.19856 13.7501 8.11794 13.4346 8.11816C13.1182 8.11816 12.8073 8.19898 12.5333 8.35233C12.2611 8.50403 12.0335 8.72468 11.8735 8.99211L3.54851 22.9797C3.39055 23.2439 3.307 23.5459 3.3067 23.8536C3.3067 24.1606 3.38971 24.4621 3.54788 24.7279C3.70777 24.9955 3.93528 25.2163 4.20754 25.368C4.483 25.5218 4.79331 25.6024 5.10881 25.6022H11.3619C13.8394 25.6022 15.6665 24.5466 16.9237 22.4873L19.976 17.3599L21.6108 14.6157L26.5175 22.8581H19.976L18.3402 25.6022ZM11.2598 22.8555L6.89606 22.8544L13.4375 11.8652L16.7014 17.3599L14.5161 21.0323C13.6812 22.3685 12.7326 22.8555 11.2598 22.8555Z" fill="#40A02B"/>
</svg>
