<svg width="33" height="33" viewBox="0 0 33 33" fill="none" xmlns="http://www.w3.org/2000/svg">
<path d="M17.8401 25.6022H27.8017C28.1182 25.6022 28.4289 25.5215 28.703 25.368C28.9753 25.2163 29.2028 24.9955 29.3626 24.7279C29.5203 24.4636 29.6037 24.1614 29.6038 23.8537C29.6038 23.5467 29.5202 23.2454 29.3618 22.9797L22.6719 11.74C22.5121 11.4725 22.2846 11.2518 22.0123 11.1001C21.737 10.9463 21.4268 10.8656 21.1112 10.8658C20.7949 10.8658 20.4842 10.9466 20.2102 11.1001C19.9379 11.2518 19.7106 11.4725 19.5507 11.74L17.8401 14.6157L14.4957 8.99211C14.3356 8.72466 14.1081 8.50402 13.8358 8.35233C13.5603 8.19856 13.25 8.11794 12.9345 8.11816C12.6182 8.11816 12.3073 8.19898 12.0332 8.35233C11.761 8.50403 11.5335 8.72468 11.3735 8.99211L3.04844 22.9797C2.89049 23.2439 2.80694 23.5459 2.80664 23.8537C2.80664 24.1606 2.88964 24.4621 3.04782 24.7279C3.20771 24.9955 3.43522 25.2163 3.70748 25.368C3.98294 25.5218 4.29325 25.6024 4.60875 25.6022H10.8618C13.3394 25.6022 15.1664 24.5466 16.4236 22.4873L19.476 17.3599L21.1107 14.6157L26.0174 22.8581H19.476L17.8401 25.6022ZM10.7597 22.8555L6.396 22.8544L12.9374 11.8652L16.2013 17.3599L14.016 21.0323C13.1811 22.3686 12.2325 22.8555 10.7597 22.8555Z" fill="#40a02b"/>
</svg>
