<svg width="33" height="33" viewBox="0 0 33 33" fill="none" xmlns="http://www.w3.org/2000/svg">
<path d="M7.34283 6.35132C6.94375 6.35116 6.54856 6.42962 6.1798 6.58223C5.81106 6.73485 5.476 6.95861 5.19375 7.24074C4.91151 7.52289 4.6876 7.85787 4.53485 8.22656C4.38209 8.59523 4.30347 8.99041 4.30347 9.38949V16.0174C4.73818 15.8609 5.36315 14.936 5.55944 14.7109C5.90263 14.3171 5.96524 13.8161 6.13504 13.4994C6.52399 12.7805 6.59142 12.2844 7.4753 12.2844C7.88713 12.2844 8.05089 12.3807 8.33026 12.754C8.52294 13.0141 8.8577 13.4946 9.01425 13.8161C9.19487 14.1858 9.4911 14.6879 9.61994 14.7891C9.71628 14.8637 9.81262 14.9215 9.90052 14.954C10.0438 15.0071 10.163 14.9096 10.2582 14.8336C10.381 14.7348 10.4328 14.5361 10.5472 14.2712C10.7097 13.8895 10.888 13.4319 10.9891 13.2718C11.1649 12.9948 11.2239 12.6685 11.413 12.5095C11.6924 12.2747 12.0572 12.2591 12.1572 12.2386C12.7183 12.1278 12.9724 12.5095 13.2494 12.7564C13.43 12.9166 13.6769 13.2417 13.8514 13.6776C13.9888 14.0184 14.1646 14.3327 14.2368 14.529C14.3078 14.7193 14.4813 15.0226 14.5849 15.3876C14.6776 15.7187 14.9292 15.9727 15.0243 16.1294C15.0243 16.1294 15.17 16.5388 16.0575 16.9121C16.2502 16.9928 16.6379 17.1239 16.8692 17.2084C17.2545 17.348 17.6278 17.3299 18.1035 17.2733C18.4418 17.2733 18.626 16.782 18.7802 16.3894C18.8705 16.1571 18.9584 15.4923 19.0174 15.3032C19.0753 15.119 18.9403 14.9782 19.0548 14.8156C19.1896 14.6276 19.2691 14.6181 19.3462 14.3724C19.5123 13.8474 20.4733 13.8209 21.0127 13.8209C21.4632 13.8209 21.4065 14.258 22.1687 14.1087C22.6071 14.022 23.0285 14.1641 23.4933 14.2881C23.8835 14.3917 24.2521 14.5097 24.4711 14.7674C24.6145 14.9347 24.9673 15.7718 24.6073 15.8066C24.6421 15.8488 24.6674 15.9258 24.7326 15.968C24.6518 16.2834 24.3026 16.0584 24.1087 16.0174C23.8474 15.9632 23.6632 16.0258 23.4066 16.139C22.9696 16.3341 22.3302 16.3112 21.9497 16.6291C21.6245 16.8976 21.6257 17.4974 21.4752 17.8333C21.4752 17.8333 21.0561 18.911 20.1433 19.5709C19.9097 19.7395 19.4522 20.1453 18.4575 20.2994C18.0189 20.3625 17.575 20.3799 17.1329 20.3513C16.9089 20.3404 16.697 20.3295 16.4718 20.3271C16.3393 20.3247 15.8938 20.3115 15.9167 20.3537L15.8672 20.4776L15.8962 20.6439C15.9143 20.7438 15.9191 20.8233 15.9227 20.9148C15.93 21.1039 15.907 21.3001 15.9167 21.4904C15.9371 21.8854 16.0828 22.2454 16.1021 22.644C16.1226 23.0871 16.3417 23.5567 16.5537 23.9193C16.6343 24.0565 16.7572 24.0734 16.8101 24.2431C16.8728 24.437 16.8137 24.6442 16.8439 24.8513C16.9643 25.6556 17.1954 26.4962 17.5568 27.2235C17.5596 27.2293 17.5628 27.2349 17.5663 27.2404C18.0132 27.1658 18.4611 27.0043 19.0427 26.9188C20.1084 26.7599 21.5895 26.8418 22.542 26.7527C24.9504 26.5263 26.257 27.7402 28.4209 27.2428V9.38949C28.4209 8.58371 28.1008 7.81095 27.5311 7.24117C26.9613 6.67141 26.1886 6.35132 25.3828 6.35132H7.34283ZM6.25064 19.7708C6.23257 19.7708 6.21451 19.7708 6.19524 19.7744C6.00377 19.8046 5.81834 19.8708 5.69912 20.0635C5.60278 20.22 5.56907 20.4909 5.50163 20.6715C5.42457 20.8822 5.2897 21.0785 5.17168 21.2796C4.95493 21.6469 4.56478 21.9793 4.39619 22.3381C4.36247 22.4104 4.33237 22.4946 4.30467 22.579V26.6757C4.50095 26.7093 4.70567 26.7503 4.93567 26.8117C6.62996 27.2633 7.04299 27.3018 8.70477 27.1127L8.86132 27.0911C8.98776 26.8261 9.08649 25.9255 9.16839 25.6461C9.23341 25.4317 9.32132 25.2608 9.35503 25.044C9.38634 24.8356 9.35142 24.6381 9.33455 24.4503C9.28639 23.977 9.67775 23.8085 9.8644 23.4027C10.033 23.0366 10.1293 22.6187 10.269 22.243C10.4015 21.8842 10.611 21.3748 10.9662 21.193C10.9229 21.1436 10.2232 21.1207 10.0366 21.1014C9.83463 21.0834 9.63368 21.0552 9.43451 21.0172C9.05639 20.9401 8.64455 20.8654 8.27246 20.7763C7.88607 20.6634 7.50549 20.5317 7.13209 20.3813C6.77325 20.2151 6.5264 19.7829 6.25064 19.7708ZM13.1591 20.7702C12.268 20.9498 11.991 21.8251 11.5695 22.5175C11.3383 22.9017 11.0927 23.2281 10.9096 23.6351C10.741 24.0108 10.7555 24.4262 10.4665 24.7477C10.1789 25.069 9.96232 25.4474 9.83068 25.8579C9.80298 25.9387 9.72472 26.7925 9.64042 26.9936L10.9662 26.8997C12.2017 26.984 11.8453 27.4584 13.7744 27.3548L16.8198 27.2609C16.7387 27.0209 16.6472 26.7847 16.5452 26.5528C16.4609 26.3758 16.3525 26.0302 16.2827 25.8784C16.1772 25.657 16.0527 25.4451 15.9107 25.2451C15.689 24.9861 15.6373 24.9681 15.5734 24.6393C15.459 24.0698 15.1593 23.0378 14.8063 22.3237C14.6245 21.9552 14.3211 21.6469 14.0429 21.3796C13.8021 21.1449 13.2542 20.7499 13.1591 20.7702Z" fill="#fe640b"/>
</svg>
