<svg width="33" height="33" viewBox="0 0 33 33" fill="none" xmlns="http://www.w3.org/2000/svg">
<path fill-rule="evenodd" clip-rule="evenodd" d="M10.2558 7.07446C8.90451 7.07446 7.80908 8.16988 7.80908 9.52115V24.2014C7.80908 25.5526 8.90451 26.6481 10.2558 26.6481H24.1204C25.4716 26.6481 26.5671 25.5526 26.5671 24.2014V9.52116C26.5671 8.16989 25.4716 7.07446 24.1204 7.07446H10.2558ZM17.0139 10.2183C18.2903 10.1017 19.5428 10.1507 20.7707 10.5109C21.5535 10.7405 22.2747 11.0961 22.8984 11.639C23.7977 12.4217 24.3202 13.4197 24.4879 14.6085C24.6503 15.7605 24.5438 16.8766 23.9967 17.9202C23.6591 18.5647 23.1694 19.0638 22.5641 19.4486L22.5045 19.4867C21.0958 20.3503 19.7685 20.7163 18.3275 20.8311C18.1253 20.3501 17.947 19.8573 17.7936 19.3524C17.7156 19.0954 17.6548 18.8328 17.5941 18.5702C17.5689 18.4611 17.5436 18.3522 17.5172 18.2435C17.511 18.2184 17.5097 18.1918 17.508 18.1614L17.5078 18.1573C17.507 18.1429 17.5062 18.1278 17.5047 18.1114C17.5553 18.1167 17.6048 18.1222 17.6537 18.1275L17.6668 18.129C17.7803 18.1419 17.8904 18.1542 18.0008 18.1605C18.6217 18.1964 19.2003 18.0887 19.6636 17.6204C19.9219 17.3592 20.0653 17.0329 20.1366 16.6752C20.2292 16.2106 20.2293 15.7448 20.1068 15.2839C19.9475 14.6839 19.573 14.2832 18.9985 14.0935C18.355 13.8809 17.6987 13.8797 17.0516 14.0722C16.3468 14.2819 15.9217 14.7835 15.7236 15.494C15.5502 16.1157 15.5423 16.7499 15.5993 17.3879C15.7283 18.8336 16.151 20.1996 16.7033 21.5261C16.8853 21.9635 17.0865 22.3926 17.2878 22.8216L17.2915 22.8295C17.3832 23.0247 17.4747 23.2198 17.5643 23.4158C17.5765 23.4423 17.5874 23.4693 17.5997 23.5003L17.6203 23.5514L17.5663 23.5542C17.5335 23.5561 17.505 23.5577 17.4766 23.5577H16.3599C15.1026 23.5577 13.8454 23.5577 12.5882 23.5605C12.4874 23.5608 12.4403 23.5289 12.4026 23.4347C12.005 22.4428 11.7267 21.4153 11.5177 20.3672C11.2871 19.2108 11.142 18.0446 11.1603 16.862C11.1776 15.7428 11.3437 14.6522 11.8032 13.6255C12.4441 12.1933 13.519 11.2422 14.9507 10.693C15.613 10.4389 16.2996 10.2941 17.0139 10.2183Z" fill="#df8e1d"/>
</svg>
