<svg width="33" height="33" viewBox="0 0 33 33" fill="none" xmlns="http://www.w3.org/2000/svg">
<path d="M28.4569 20.5755C26.5684 18.5562 21.4116 19.3788 20.177 19.5286C18.3614 17.7333 17.1268 15.5641 16.691 14.8161C17.3448 12.7968 17.7803 10.7771 17.853 8.60828C17.853 6.7381 17.1268 4.71875 15.0932 4.71875C14.367 4.71875 13.7131 5.16749 13.35 5.76571C12.4785 7.33663 12.8416 10.4782 14.2216 13.6946C13.4227 16.0132 12.6962 18.2569 10.6626 22.2213C8.55654 23.1185 4.12617 25.2131 3.76297 27.4571C3.61776 28.1302 3.83556 28.8037 4.34397 29.327C4.85238 29.7757 5.506 30.0001 6.15974 30.0001C8.84696 30.0001 11.4615 26.1858 13.2774 22.969C14.8025 22.4457 17.1994 21.6977 19.5961 21.2486C22.4286 23.7919 24.8979 24.1658 26.2053 24.1658C27.9484 24.1658 28.602 23.4178 28.82 22.7447C29.1828 21.9967 28.9651 21.1741 28.4569 20.5755ZM26.6411 21.8472C26.5684 22.3708 25.9149 22.8941 24.7526 22.5952C23.3728 22.2213 22.1382 21.5479 21.0488 20.6504C21.9928 20.5006 24.099 20.2763 25.6241 20.5755C26.2053 20.725 26.7864 21.0992 26.6411 21.8472ZM14.512 6.43883C14.6574 6.21446 14.8755 6.06498 15.0932 6.06498C15.7467 6.06498 15.8921 6.88757 15.8921 7.561C15.8194 9.13192 15.5287 10.7025 15.0205 12.1986C13.9309 9.20651 14.1489 7.11195 14.512 6.43883ZM14.367 20.9497C14.9478 19.7529 15.747 17.6584 16.0374 16.7609C16.691 17.8827 17.7803 19.2293 18.3614 19.8275C18.3614 19.9024 16.1098 20.3512 14.367 20.9497ZM10.0818 23.9417C8.41133 26.7837 6.66815 28.579 5.72395 28.579C5.57874 28.579 5.43337 28.5041 5.28816 28.4295C5.07018 28.2797 4.99759 28.0553 5.07018 27.7561C5.28817 26.7091 7.17656 25.288 10.0818 23.9417Z" fill="#D20F39"/>
</svg>
