<svg width="33" height="33" viewBox="0 0 33 33" fill="none" xmlns="http://www.w3.org/2000/svg">
<path d="M13.1851 4.88216C12.8624 4.82575 12.5311 4.82222 12.228 4.94652C12.2057 4.95566 12.1834 4.96496 12.1613 4.97435C11.8531 5.10474 11.5442 5.24559 11.2896 5.46264C10.7694 5.90601 10.3761 6.49487 10.2581 7.17649C9.81072 8.61328 8.49543 9.55779 8.03613 10.9825C7.65794 11.8962 6.98086 12.616 6.34854 13.3497C5.95336 13.8431 5.95578 14.4891 5.81649 15.0796C5.7885 15.1982 5.70959 15.3046 5.6487 15.4102V15.4102C5.47583 15.7101 5.72174 16.1294 5.69695 16.4747C5.69132 16.5531 5.69593 16.6307 5.71926 16.7062C5.75433 16.8198 5.81648 16.9247 5.85114 17.0384C5.99933 17.5246 6.21443 17.9961 6.44207 18.4556C6.56027 18.6941 6.63814 18.999 6.88419 19.1007C6.99519 19.1465 7.10458 19.119 7.13375 18.938C7.1641 18.6021 7.26823 18.2255 7.24178 17.8767C7.21209 17.4852 6.93642 17.1441 6.92814 16.7516C6.92068 16.3985 7.00311 16.0414 7.07395 15.6937C7.09717 15.5798 7.09536 15.4626 7.0958 15.3463C7.0962 15.2433 7.10896 15.1385 7.13168 15.0356C7.21005 14.6808 7.4956 14.6894 7.57213 15.0446V15.0446C7.58468 15.1029 7.59999 15.1541 7.60783 15.2132C7.79212 16.6029 7.84106 18.0438 7.4898 19.4121C7.43957 19.618 7.43928 19.8285 7.45165 20.0395C7.4916 20.7213 7.13763 21.3841 7.24298 22.0589C7.28661 22.3384 7.36596 22.6216 7.38369 22.8783C7.58071 23.8279 7.50955 24.8098 7.26969 25.7349C7.20454 25.9862 7.16715 26.2467 7.11486 26.501V26.501C7.02286 26.9484 7.00274 27.4831 7.43332 27.6355C7.47113 27.6489 7.5099 27.6603 7.5492 27.6697C7.90583 27.7551 8.27494 27.6378 8.64165 27.6363C8.66008 27.6362 8.67817 27.6355 8.69582 27.634C8.9375 27.6126 8.98553 27.2894 8.89766 27.0633C8.85732 26.9594 8.80319 26.8587 8.75193 26.7571C8.57587 26.4079 8.55257 26.0024 8.47896 25.6184C8.27678 24.5636 8.16643 23.4808 8.38772 22.4173C8.4749 21.9452 8.48379 21.452 8.53454 20.9721C8.58917 20.4557 8.85924 20 9.11212 19.5465C9.32807 19.1591 9.4944 18.7428 9.61692 18.3138C9.62956 18.2696 9.64524 18.2266 9.66383 18.1845V18.1845C9.95856 17.5166 10.808 17.4013 11.0089 18.1032C11.1916 18.7416 11.2685 19.4085 11.2003 20.0762C11.1897 20.1804 11.1863 20.2852 11.1796 20.3897C11.1591 20.712 11.0526 21.0561 11.0963 21.3609C11.1433 21.6882 11.408 21.9368 11.5949 22.2096C11.9862 22.781 12.4012 23.3474 12.6623 23.9816C12.7741 24.2534 12.8372 24.5959 12.5936 24.7604C12.4819 24.8358 12.3482 24.8983 12.2485 24.9897C12.1563 25.0742 12.098 25.1896 12.0421 25.3014C11.972 25.4414 11.9268 25.5901 11.8965 25.7433C11.7812 26.328 12.3078 27.281 12.7474 26.8785C12.7567 26.87 12.7659 26.8608 12.7748 26.8509C12.8067 26.8159 12.8349 26.7791 12.8648 26.7424V26.7424C13.2104 26.317 13.3238 26.5732 13.8243 26.7966C13.836 26.8018 13.8483 26.8067 13.861 26.8113C14.1525 26.9159 14.466 26.9834 14.7825 27.0075C15.4235 27.0565 15.9954 26.465 15.4146 26.1894C15.3994 26.1822 15.3845 26.1757 15.3701 26.1701C15.0272 26.0684 14.7935 25.8391 14.6346 25.5471C14.5387 25.3708 14.4328 25.1853 14.3862 24.99V24.99C14.3135 24.6861 14.6417 24.4631 14.8625 24.2419C15.4584 23.6448 16.1762 23.1819 16.7496 22.567C17.0652 22.1286 17.0739 21.5576 16.9902 21.0247C16.9414 20.7136 16.8059 20.4248 16.7104 20.1247C16.6332 19.8818 16.6043 19.6297 16.6694 19.3649C16.6963 19.2263 16.6773 19.086 16.6439 18.9475C16.5541 18.575 16.8069 18.2579 17.1871 18.3053V18.3053C17.4577 18.339 17.6332 18.5703 17.6382 18.8429C17.6433 19.1141 17.6299 19.3883 17.647 19.6565C17.6684 19.9938 17.8819 20.2759 18.0131 20.5874V20.5874C18.1735 20.9683 18.3071 21.3995 18.3007 21.8127C18.3004 21.8374 18.2997 21.8621 18.299 21.8869C18.29 22.2019 18.2531 22.5229 18.2581 22.8379C18.2654 23.298 18.4301 23.7512 18.5722 24.1916C18.8489 25.0833 18.8134 26.03 18.9358 26.9462C18.9991 27.42 19.1089 27.8852 19.1345 28.3626C19.1424 28.5098 19.1907 28.6397 19.3622 28.7213C19.8485 28.903 20.4517 28.9928 20.9702 28.8461C21.3934 28.7263 21.6561 28.2311 21.2733 28.0143V28.0143C21.0682 27.8982 20.8229 27.8553 20.6256 27.7264C20.5715 27.6911 20.5219 27.6503 20.4773 27.6043C20.246 27.3658 20.1713 27.0173 20.0471 26.7092C19.6456 25.7126 19.4695 24.6287 19.6333 23.5508C19.6607 22.9508 19.7431 22.3575 19.8975 21.7866C19.964 21.251 19.9772 20.7016 20.1108 20.1865C20.1347 20.0942 20.1567 20.0012 20.1652 19.9062C20.2003 19.5117 20.1772 19.1083 20.1796 18.7092C20.1826 18.1929 20.7238 18.015 21.2261 18.1341V18.1341C21.3708 18.1684 21.5093 18.2415 21.6576 18.2529C21.8603 18.2684 22.051 18.1069 22.1612 17.9218C22.261 17.7846 22.3701 17.8777 22.4781 17.9803C22.7042 18.195 22.9412 17.8917 23.1846 17.697C23.2538 17.6417 23.3244 17.5886 23.3949 17.5363C23.5903 17.3915 23.7482 17.1837 23.9746 17.0949C24.0266 17.0744 24.0807 17.0579 24.1347 17.0419C24.3153 16.9883 24.4704 16.8649 24.4565 16.677V16.677C24.4338 16.3692 24.7689 16.3421 25.0133 16.1538C25.0329 16.1387 25.0507 16.1159 25.0661 16.0825C25.1016 16.004 25.1252 15.9169 25.1487 15.8299C25.2619 15.4105 25.7262 15.189 25.8634 14.7768C25.9804 14.4253 25.9704 14.0144 25.9932 13.632C26.0065 13.4073 26.0241 13.1825 26.0332 12.9576C26.0561 12.3901 26.1256 11.8069 25.989 11.2684V11.2684C25.6316 10.317 26.0212 9.70612 26.9449 9.28218C27.0397 9.23869 27.1271 9.18208 27.2038 9.10627C27.336 8.97577 27.4129 8.79056 27.3981 8.60542C27.3628 8.16276 26.9383 7.78161 26.6413 7.48538C26.2941 7.15825 25.7466 7.31405 25.3222 7.15321C25.0904 7.07463 24.7684 7.11246 24.5677 6.98598C24.3819 6.8689 24.3685 6.59048 24.1877 6.46568C24.1295 6.42543 24.0651 6.39219 23.9994 6.35999C23.7096 6.21812 23.4278 5.98346 23.133 6.11458V6.11458C22.7389 6.28987 22.3272 6.49441 21.983 6.75432C21.8343 6.86662 21.693 6.98734 21.5721 7.12436C21.4388 7.27536 21.3546 7.46514 21.3284 7.66485V7.66485C21.2756 8.06629 20.8998 8.33806 20.7981 8.72995C20.6659 9.23897 20.7672 9.83169 20.7322 10.3433V10.3433C20.7446 10.9634 21.1556 11.5267 21.2399 12.1412C21.2479 12.1992 21.2483 12.2597 21.2382 12.3239C21.2363 12.3337 21.2349 12.3438 21.2338 12.3542C21.1716 12.9356 20.99 12.6948 20.7388 12.1668V12.1668C20.3997 11.1241 19.9009 10.0015 18.9605 9.37919C18.7807 9.26024 18.5908 9.15519 18.4271 9.01496C17.8728 8.5401 17.4454 7.93036 17.1491 7.26505C17.0354 7.00977 16.9191 6.75108 16.7204 6.5546C16.6718 6.50656 16.6216 6.45968 16.5707 6.41327C16.061 5.94823 15.4347 5.68832 14.8326 5.35141V5.35141C14.4349 5.175 14.0754 4.85561 13.5994 4.912C13.4573 4.92246 13.3202 4.90576 13.1851 4.88216ZM13.2538 17.6148C13.2678 17.6012 13.2883 17.6109 13.306 17.6189C13.548 17.729 13.4723 18.1358 13.5687 18.3509C13.6392 18.5222 13.6385 18.766 13.6832 18.9775C13.7508 19.2973 14.052 19.5391 14.0869 19.8641V19.8641C14.1319 20.2837 13.9579 20.9001 14.3267 21.1052C14.3629 21.1253 14.4082 21.1371 14.4646 21.1381C14.5161 21.1336 14.5613 21.1394 14.602 21.1529C15.0247 21.2925 15.3268 21.7765 15.3497 22.221C15.3565 22.3533 15.3158 22.4831 15.1957 22.5977C14.8922 22.9659 14.6844 23.5442 14.1251 23.5597C14.0516 23.5676 13.969 23.6096 13.8874 23.651C13.5786 23.8077 13.3762 23.4263 13.2187 23.118C12.9433 22.5788 12.7518 22.0079 12.8118 21.3857C12.8177 20.1424 13.098 18.9205 13.2433 17.6949C13.2465 17.6687 13.2349 17.6331 13.2538 17.6148V17.6148Z" fill="#8839EF"/>
</svg>
