<svg width="34" height="33" viewBox="0 0 34 33" fill="none" xmlns="http://www.w3.org/2000/svg">
<path d="M13.1986 4.802C12.8399 4.86208 12.5323 5.05048 12.1941 5.16277C11.4794 5.62205 10.9052 6.32727 10.7581 7.17649C10.3107 8.61328 8.99543 9.55779 8.53613 10.9825C8.15794 11.8962 7.48086 12.616 6.84854 13.3497C6.41275 13.8938 6.46048 14.6234 6.26847 15.2596C6.07658 15.4327 5.94033 15.8297 6.29913 15.8727C6.2894 16.1962 6.06778 16.5562 6.30149 16.8654C6.48305 17.541 6.80412 18.1879 7.12206 18.8132C7.18527 19.0408 7.57457 19.3052 7.63375 18.938C7.68106 18.4144 7.90766 17.7918 7.53942 17.3299C7.30346 16.7377 7.49757 16.1125 7.60781 15.5214C7.55447 15.1567 7.68461 14.7405 7.88133 14.4509C8.08444 14.5602 8.01534 14.9273 8.09584 15.1243C8.28985 16.5413 8.34856 18.0146 7.9898 19.4121C7.85625 19.9595 8.07576 20.5389 7.94736 21.0767C7.48651 21.5776 7.84349 22.2964 7.88369 22.8783C8.10766 23.9578 7.98506 25.079 7.66205 26.1111C7.65488 26.4817 7.5253 26.82 7.44747 27.1746C7.57656 27.6205 8.18956 27.7772 8.59815 27.672C8.85257 27.5004 9.33754 27.8276 9.45882 27.4197C9.4956 26.9771 9.06303 26.6458 9.09805 26.1959C8.82845 24.9616 8.62582 23.6759 8.88772 22.4173C9.02275 21.6861 8.96995 20.9042 9.17586 20.1997C9.63037 19.629 9.9417 18.9541 10.1356 18.2472C10.4058 17.6597 10.573 16.9461 10.7368 16.3868C11.4422 17.5206 11.8662 18.8794 11.6817 20.2325C11.7056 20.7603 11.3755 21.3785 11.8189 21.7952C12.3566 22.6362 13.0352 23.4294 13.307 24.3992C13.3286 24.8046 12.7821 24.811 12.6374 25.1396C12.3163 25.6064 12.3503 26.201 12.3143 26.7407C12.6174 26.8583 13.0624 27.1716 13.3188 26.7948C13.5693 26.5308 13.676 26.0688 13.9366 25.8658C14.0972 26.1699 13.9474 26.6626 14.361 26.8113C14.9545 27.0242 15.639 27.0833 16.2545 26.9363C16.5707 26.6622 16.1384 26.2754 15.8701 26.1701C15.4253 26.0382 15.1641 25.6915 15.0118 25.2717C14.8721 25.0398 14.7721 24.7686 15.0449 24.5901C15.6868 23.8115 16.5698 23.2961 17.2496 22.567C17.6598 21.9972 17.5516 21.2035 17.3958 20.5603C17.2035 20.1852 17.0646 19.7915 17.1694 19.3649C17.2408 18.9977 16.989 18.6182 17.0043 18.292C17.3642 18.2687 17.7846 18.2818 18.1055 18.4028C18.1925 18.9833 18.0635 19.6025 18.2305 20.1643C18.5029 20.4243 18.6318 20.8351 18.6502 21.2088C18.9046 21.5218 18.744 21.9822 18.813 22.3642C18.6502 22.9867 18.8816 23.6007 19.0722 24.1916C19.4211 25.3159 19.2736 26.5278 19.5721 27.6556C19.799 27.9758 19.4186 28.5104 19.8622 28.7213C20.5485 28.9777 21.4676 29.0512 22.0528 28.535C22.2311 28.1786 21.7048 27.9739 21.4516 27.8607C21.0956 27.7833 20.8254 27.5346 20.7499 27.1664C20.2084 26.0491 19.9441 24.7959 20.1333 23.5508C20.1607 22.9508 20.2431 22.3575 20.3975 21.7866C20.47 21.2029 20.4791 20.6028 20.6498 20.0487C20.75 19.2678 20.5798 18.4451 20.7984 17.6859C21.1516 17.9104 21.5305 18.1373 21.949 18.1694C22.221 18.3757 22.5135 18.1699 22.6612 17.9218C22.8794 17.6219 23.1418 18.4229 23.3414 18.0168C23.589 17.7359 23.9085 17.5356 24.1892 17.3157C24.3482 17.0565 24.6747 17.0645 24.9036 16.9455C25.0625 16.738 24.8012 16.4097 25.0946 16.25C25.1947 15.9841 25.4498 16.3347 25.5661 16.0825C25.6898 15.8084 25.6701 15.4307 26.0001 15.3116C26.599 14.8357 26.4198 13.968 26.5271 13.2957C26.5201 12.6252 26.6529 11.9146 26.489 11.2684C26.2969 10.757 25.9812 10.237 25.8538 9.72782C26.4377 9.26183 27.4703 9.64804 27.8676 8.88131C28.0396 8.32039 27.4983 7.84151 27.1413 7.48538C26.7941 7.15825 26.2466 7.31405 25.8222 7.15321C25.4926 7.04144 24.9803 7.16518 24.8942 6.71669C24.7561 6.36207 24.3237 6.36492 24.0924 6.09653C23.7222 5.9059 23.3863 6.34155 23.0219 6.37713C22.6163 6.66026 22.1515 6.93644 21.8925 7.36748C21.7817 7.6486 21.8774 8.01573 21.5742 8.19042C21.0681 8.77228 21.2806 9.63545 21.2322 10.3433C21.2387 10.6666 21.2302 10.9941 21.4138 11.2581C21.4415 11.655 21.8025 11.9154 21.7382 12.3239C21.6878 12.5922 21.9237 13.165 21.4798 13.0408C21.3446 12.8152 21.3647 12.4315 21.2388 12.1668C20.8675 11.0252 20.3049 9.78795 19.1808 9.21614C18.3877 8.63532 17.8216 7.79119 17.4924 6.87467C17.181 6.40968 16.6078 6.12321 16.363 5.62023C16.0412 5.48315 15.6528 5.53059 15.3326 5.35141C14.9349 5.175 14.5754 4.85561 14.0994 4.912C13.7855 4.9351 13.4961 4.82569 13.1986 4.802ZM13.7786 17.6082C14.0536 17.6995 13.9688 18.1281 14.0687 18.3509C14.1975 18.6638 14.0887 19.2187 14.4531 19.3767C14.6586 19.717 14.5311 20.1777 14.7383 20.492C14.6905 20.7151 14.6175 21.1321 14.9646 21.1381C15.276 21.1112 15.3612 21.4591 15.5802 21.6144C15.7826 21.8975 16.0088 22.2988 15.6957 22.5977C15.3922 22.9659 15.1844 23.5442 14.6251 23.5597C14.3948 23.5844 14.0765 23.9434 13.972 23.5738C13.5735 22.9015 13.2346 22.186 13.3118 21.3857C13.3178 20.129 13.6041 18.8942 13.748 17.6554C13.7411 17.6207 13.753 17.606 13.7786 17.6082Z" fill="#8839ef"/>
</svg>
