<svg width="33" height="33" viewBox="0 0 33 33" fill="none" xmlns="http://www.w3.org/2000/svg">
<path d="M27.1768 11.191C27.1768 11.9309 26.5769 12.5308 25.8369 12.5308H22.1279C21.3879 12.5308 20.7881 11.9309 20.7881 11.191V7.48195C20.7881 6.74196 21.3879 6.14209 22.1279 6.14209H25.8369C26.5769 6.14209 27.1768 6.74197 27.1768 7.48195V11.191Z" fill="#F9E2AF"/>
<path d="M19.6529 11.191C19.6529 11.9309 19.053 12.5308 18.313 12.5308H14.604C13.864 12.5308 13.2642 11.9309 13.2642 11.191V7.48195C13.2642 6.74196 13.864 6.14209 14.604 6.14209H18.313C19.053 6.14209 19.6529 6.74197 19.6529 7.48195V11.191Z" fill="#F9E2AF"/>
<path d="M12.129 11.191C12.129 11.9309 11.5291 12.5308 10.7891 12.5308H7.08009C6.3401 12.5308 5.74023 11.9309 5.74023 11.191V7.48195C5.74023 6.74196 6.34012 6.14209 7.08009 6.14209H10.7891C11.5291 6.14209 12.129 6.74197 12.129 7.48195V11.191Z" fill="#F9E2AF"/>
<path d="M27.1768 18.7154C27.1768 19.4553 26.5769 20.0553 25.8369 20.0553H22.1279C21.3879 20.0553 20.7881 19.4553 20.7881 18.7154V15.0063C20.7881 14.2664 21.3879 13.6665 22.1279 13.6665H25.8369C26.5769 13.6665 27.1768 14.2664 27.1768 15.0063V18.7154Z" fill="#F9E2AF"/>
<path d="M19.6529 18.7154C19.6529 19.4553 19.053 20.0553 18.313 20.0553H14.604C13.864 20.0553 13.2642 19.4553 13.2642 18.7154V15.0063C13.2642 14.2664 13.864 13.6665 14.604 13.6665H18.313C19.053 13.6665 19.6529 14.2664 19.6529 15.0063V18.7154Z" fill="#7F849C"/>
<path d="M19.6529 26.2395C19.6529 26.9795 19.053 27.5794 18.313 27.5794H14.604C13.864 27.5794 13.2642 26.9795 13.2642 26.2395V22.5305C13.2642 21.7905 13.864 21.1907 14.604 21.1907H18.313C19.053 21.1907 19.6529 21.7905 19.6529 22.5305V26.2395Z" fill="#7F849C"/>
<path d="M27.1768 26.2395C27.1768 26.9795 26.5769 27.5794 25.8369 27.5794H22.1279C21.3879 27.5794 20.7881 26.9795 20.7881 26.2395V22.5305C20.7881 21.7905 21.3879 21.1907 22.1279 21.1907H25.8369C26.5769 21.1907 27.1768 21.7905 27.1768 22.5305V26.2395Z" fill="#7F849C"/>
<path d="M12.129 26.2393C12.129 26.9793 11.5291 27.5791 10.7891 27.5791H7.08009C6.3401 27.5791 5.74023 26.9793 5.74023 26.2393V22.5303C5.74023 21.7903 6.34012 21.1904 7.08009 21.1904H10.7891C11.5291 21.1904 12.129 21.7903 12.129 22.5303V26.2393Z" fill="#7F849C"/>
</svg>
