<svg width="33" height="33" viewBox="0 0 33 33" fill="none" xmlns="http://www.w3.org/2000/svg">
<path d="M28.9617 17C28.9617 20.1825 27.6487 23.2348 25.3117 25.4852C22.9748 27.7357 19.8051 29 16.5001 29C13.1951 29 10.0254 27.7357 7.68846 25.4852C5.35148 23.2348 4.03857 20.1825 4.03857 17C4.03857 13.8174 5.35148 10.7652 7.68846 8.51471C10.0254 6.26428 13.1951 5 16.5001 5C19.8051 5 22.9748 6.26428 25.3117 8.51471C27.6487 10.7652 28.9617 13.8174 28.9617 17Z" stroke="#d20f39" stroke-width="2.76923" stroke-linecap="round"/>
<path d="M24.9971 21.2556C25.9609 23.0993 24.6234 25.3077 22.5429 25.3077H10.4568C8.37633 25.3077 7.03884 23.0994 8.0026 21.2556L14.0455 9.69495C15.0815 7.71311 17.9179 7.71308 18.9539 9.6949L24.9971 21.2556Z" stroke="#d20f39" stroke-width="2.76923" stroke-linecap="square" stroke-linejoin="round"/>
<path d="M11.4232 5.92308L14.654 5H16.5001L15.8325 6.30495L19.2693 5.92308L24.8078 7.76923L28.9617 17L27.1155 23.4615L15.5068 6.94147L6.34627 24.8462L4.50011 21.1538L4.03857 13.3077L6.80781 9.15385L11.4232 5.92308Z" fill="#d20f39"/>
<path d="M14.1924 28.5385C12.654 27.6154 9.57704 25.6769 9.57704 25.3077L22.9617 26.2308L22.0386 28.0769L14.1924 28.5385Z" fill="#d20f39"/>
</svg>
