<svg width="33" height="33" viewBox="0 0 33 33" fill="none" xmlns="http://www.w3.org/2000/svg">
<path fill-rule="evenodd" clip-rule="evenodd" d="M6.63714 21.3558C6.3811 20.9689 6.37725 20.4758 6.62716 20.0851L16.0372 5.37508C16.5605 4.55691 17.8244 4.62846 18.2436 5.49997L26.8402 23.3709C27.1591 24.0339 26.7919 24.814 26.0621 25.0238L12.6896 28.8684C12.1516 29.023 11.5718 28.8159 11.2711 28.3612L6.63714 21.3558ZM17.1228 9.67618C17.2136 9.24344 17.8322 9.18104 18.015 9.5862L23.9447 22.7356C24.0562 22.9832 23.9174 23.2688 23.6477 23.3458L14.4084 25.9889C14.0688 26.0861 13.7435 25.8018 13.8132 25.4687L17.1228 9.67618Z" fill="#179299"/>
</svg>
