<svg width="33" height="33" viewBox="0 0 33 33" fill="none" xmlns="http://www.w3.org/2000/svg">
<path fill-rule="evenodd" clip-rule="evenodd" d="M13.9466 11.1634C14.5015 12.1247 14.1722 13.3539 13.211 13.9088L5.0885 18.5984C4.12723 19.1533 2.89807 18.824 2.34309 17.8628C1.78809 16.9014 2.11744 15.6722 3.07871 15.1173L11.2012 10.4278C12.1624 9.87281 13.3916 10.2022 13.9466 11.1634Z" fill="#d20f39"/>
<path fill-rule="evenodd" clip-rule="evenodd" d="M2.34284 15.8583C2.89782 14.897 4.12699 14.5676 5.08826 15.1226L13.2107 19.8121C14.172 20.3671 14.5013 21.5963 13.9463 22.5576C13.3914 23.5188 12.1622 23.8482 11.2009 23.2932L3.07847 18.6037C2.1172 18.0487 1.78785 16.8195 2.34284 15.8583Z" fill="#1e66f5"/>
<path fill-rule="evenodd" clip-rule="evenodd" d="M29.8242 15.8583C29.2692 14.897 28.04 14.5676 27.0788 15.1226L18.9563 19.8121C17.9951 20.3671 17.6658 21.5963 18.2208 22.5576C18.7757 23.5188 20.0049 23.8482 20.9661 23.2932L29.0886 18.6037C30.0498 18.0487 30.3793 16.8195 29.8242 15.8583Z" fill="#F9E2AF"/>
<path fill-rule="evenodd" clip-rule="evenodd" d="M18.221 11.1634C17.666 12.1247 17.9954 13.3539 18.9566 13.9088L27.0791 18.5984C28.0403 19.1533 29.2695 18.824 29.8244 17.8628C30.3794 16.9014 30.0501 15.6722 29.0889 15.1173L20.9664 10.4278C20.0052 9.87281 18.776 10.2022 18.221 11.1634Z" fill="#179299"/>
</svg>
