<svg width="33" height="33" viewBox="0 0 33 33" fill="none" xmlns="http://www.w3.org/2000/svg">
<path fill-rule="evenodd" clip-rule="evenodd" d="M25.2538 13.1317C25.2543 13.336 25.2549 13.5464 25.2648 13.7625C25.2799 14.0293 25.334 14.3042 25.3897 14.5867C25.4865 15.0792 25.5878 15.5941 25.4948 16.1259C25.4146 16.6473 25.3584 17.1686 25.3032 17.6807C25.2433 18.237 25.1845 18.7823 25.0974 19.305C25.0349 19.712 24.743 20.0825 24.4535 20.4503C24.1627 20.8198 23.874 21.1866 23.8216 21.5848C23.5496 23.7181 21.4163 24.7011 16.3968 24.7011V24.8684H16.3759V24.7011C11.3562 24.7011 9.13923 23.7181 8.84642 21.5848C8.79447 21.2004 8.48959 20.8365 8.18051 20.4677C7.86745 20.0942 7.55009 19.7155 7.48695 19.305C7.39983 18.7823 7.34106 18.237 7.28112 17.6807C7.22594 17.1686 7.16976 16.6473 7.08956 16.1259C6.99668 15.5952 7.09738 15.0898 7.19413 14.6042C7.24989 14.3243 7.30432 14.0511 7.31963 13.7834C7.33103 13.6162 7.33897 13.4531 7.34673 13.2939C7.38167 12.5771 7.41276 11.9392 7.73793 11.3573C8.74184 9.62136 11.3771 8.61743 16.3968 8.61743C21.4163 8.61743 23.9261 9.62136 24.9301 11.3364C25.2502 11.8645 25.2518 12.4661 25.2538 13.1317ZM16.8324 16.2838C16.9219 16.2607 16.9594 16.106 16.9161 15.9382C16.8728 15.7705 16.7653 15.6531 16.6757 15.6761C16.5862 15.6993 16.5487 15.8539 16.592 16.0217C16.6353 16.1896 16.7429 16.3068 16.8324 16.2838ZM16.6812 16.6624C16.5152 16.6955 16.3968 16.7192 16.3968 16.7534C16.4084 16.8004 16.4137 16.8737 16.4196 16.9586C16.4243 17.025 16.4293 17.0984 16.4386 17.1717C16.4386 17.2616 16.4398 17.3828 16.4413 17.5212C16.4464 18.0238 16.4537 18.7512 16.4126 19.0129C17.3335 19.0449 18.7184 20.2667 18.7184 21.7939V21.8777C18.6975 20.3927 16.9406 19.1796 16.3759 19.1796C15.8111 19.1796 14.0543 20.3927 14.0334 21.8777V21.7939C14.0334 20.2929 15.408 19.0547 16.3289 19.0133C16.2712 18.6983 16.2712 17.6334 16.2712 17.1717C16.2712 17.0832 16.2789 16.9718 16.2849 16.8837C16.2889 16.8261 16.2921 16.7782 16.2921 16.7534C16.2921 16.7 15.4443 16.48 15.1913 16.4156C15.4027 16.468 16.0247 16.6135 16.1457 16.5442C16.2712 16.4606 16.334 16.2097 16.334 16.2097C16.334 16.2097 16.3758 16.4606 16.5431 16.5442C16.7105 16.6489 17.4844 16.3979 17.4844 16.3979C17.2615 16.5464 16.9216 16.6143 16.6812 16.6624ZM15.121 16.3979C15.121 16.3979 15.1471 16.4047 15.1913 16.4156L15.121 16.3979ZM16.0101 16.0305C15.9588 16.196 15.8456 16.308 15.7573 16.2807C15.6691 16.2532 15.6391 16.0968 15.6906 15.9314C15.7419 15.7659 15.855 15.654 15.9432 15.6814C16.0315 15.7087 16.0614 15.865 16.0101 16.0305ZM14.368 17.8618C14.368 17.9543 14.2931 18.0292 14.2006 18.0292C14.1083 18.0292 14.0333 17.9543 14.0333 17.8618C14.0333 17.7694 14.1083 17.6945 14.2006 17.6945C14.2931 17.6945 14.368 17.7694 14.368 17.8618ZM13.4059 18.8658C13.4059 18.9582 13.331 19.0331 13.2386 19.0331C13.1462 19.0331 13.0713 18.9582 13.0713 18.8658C13.0713 18.7735 13.1462 18.6984 13.2386 18.6984C13.331 18.6984 13.4059 18.7735 13.4059 18.8658ZM12.9248 18.0292C13.0173 18.0292 13.0922 17.9543 13.0922 17.862C13.0922 17.7695 13.0173 17.6946 12.9248 17.6946C12.8324 17.6946 12.7575 17.7695 12.7575 17.862C12.7575 17.9543 12.8324 18.0292 12.9248 18.0292ZM18.4464 17.862C18.4464 17.9543 18.3715 18.0292 18.279 18.0292C18.1867 18.0292 18.1118 17.9543 18.1118 17.862C18.1118 17.7695 18.1867 17.6946 18.279 17.6946C18.3715 17.6946 18.4464 17.7695 18.4464 17.862ZM19.2412 19.0331C19.3336 19.0331 19.4085 18.9582 19.4085 18.8658C19.4085 18.7735 19.3336 18.6984 19.2412 18.6984C19.1487 18.6984 19.0738 18.7735 19.0738 18.8658C19.0738 18.9582 19.1487 19.0331 19.2412 19.0331ZM19.7222 17.8618C19.7222 17.9543 19.6473 18.0292 19.555 18.0292C19.4625 18.0292 19.3876 17.9543 19.3876 17.8618C19.3876 17.7694 19.4625 17.6945 19.555 17.6945C19.6473 17.6945 19.7222 17.7694 19.7222 17.8618Z" fill="#FED7AA"/>
<path fill-rule="evenodd" clip-rule="evenodd" d="M23.9475 15.2692C23.9475 16.2858 23.1233 17.1098 22.1069 17.1098C21.0904 17.1098 20.2664 16.2858 20.2664 15.2692C20.2664 14.2527 21.0904 13.4287 22.1069 13.4287C23.1233 13.4287 23.9475 14.2527 23.9475 15.2692ZM22.1069 14.4535C22.1069 14.7192 21.8915 14.9345 21.6259 14.9345C21.3602 14.9345 21.1448 14.7192 21.1448 14.4535C21.1448 14.1878 21.3602 13.9725 21.6259 13.9725C21.8915 13.9725 22.1069 14.1878 22.1069 14.4535Z" fill="#18181B"/>
<path d="M19.3037 15.1851C19.3037 15.1851 20.956 16.3144 21.8554 17.4229C22.7548 18.5314 22.7339 18.7405 22.7339 18.7405L22.0855 19.0334C22.0855 19.0334 21.1652 17.2973 20.0358 16.649C18.8854 16.0006 18.76 15.4569 18.76 15.4569L19.3037 15.1851Z" fill="#FED7AA"/>
<path fill-rule="evenodd" clip-rule="evenodd" d="M12.4225 15.2692C12.4225 16.2858 11.5985 17.1098 10.582 17.1098C9.56548 17.1098 8.74146 16.2858 8.74146 15.2692C8.74146 14.2527 9.56548 13.4287 10.582 13.4287C11.5985 13.4287 12.4225 14.2527 12.4225 15.2692ZM11.5441 14.4535C11.5441 14.7192 11.3287 14.9345 11.063 14.9345C10.7974 14.9345 10.582 14.7192 10.582 14.4535C10.582 14.1878 10.7974 13.9725 11.063 13.9725C11.3287 13.9725 11.5441 14.1878 11.5441 14.4535Z" fill="#18181B"/>
<path d="M13.2595 15.1851C13.2595 15.1851 11.6072 16.3144 10.7078 17.4229C9.80847 18.5314 9.82939 18.7405 9.82939 18.7405L10.4777 19.0334C10.4777 19.0334 11.398 17.2973 12.5274 16.649C13.6569 16.0006 13.8033 15.4569 13.8033 15.4569L13.2595 15.1851Z" fill="#FED7AA"/>
<path d="M21.5004 9.16209C21.5004 9.16209 23.9267 11.1909 24.6377 13.5333C25.3488 15.8759 25.056 18.7202 25.5997 19.0758C26.3736 19.5777 27.2521 16.5869 27.5449 16.2733C28.0051 15.7712 29.5318 14.4954 29.6365 14.2653C29.741 14.0353 26.541 10.5425 25.1396 9.85229C23.4455 9.05751 21.354 8.99477 21.5004 9.16209Z" fill="#713F12"/>
<path d="M10.9795 9.16209C10.9795 9.16209 8.55337 11.1909 7.84226 13.5333C7.13114 15.8759 7.42395 18.7202 6.88017 19.0758C6.10631 19.5777 5.22787 16.5869 4.93507 16.2733C4.47494 15.7712 2.94814 14.4954 2.84357 14.2653C2.73899 14.0353 5.93899 10.5425 7.34029 9.85229C9.03441 9.05751 11.1259 8.99477 10.9795 9.16209Z" fill="#713F12"/>
<path fill-rule="evenodd" clip-rule="evenodd" d="M21.2285 18.0507C20.5112 17.169 19.4843 16.3301 18.14 15.9229C17.9991 15.4747 17.3337 14.9971 16.3971 14.9971C15.4836 15.0131 14.828 15.4712 14.6655 15.9009C13.2849 16.2994 12.2334 17.1529 11.503 18.0507C10.532 19.2353 10.5347 19.7528 10.5401 20.7916C10.5405 20.8717 10.5409 20.9548 10.5409 21.0416C10.5409 24.3715 11.4305 24.4555 12.3074 24.5383C12.5871 24.5647 12.8656 24.5911 13.1134 24.7226C13.9542 25.143 14.8221 25.1173 15.706 25.091C15.9216 25.0846 16.138 25.0782 16.3553 25.0782H16.3762C16.5807 25.0782 16.7832 25.083 16.9839 25.0877C17.8912 25.1092 18.7616 25.1299 19.618 24.7017C19.8666 24.5749 20.1459 24.5551 20.4264 24.5353C21.3026 24.4732 22.1906 24.4102 22.1906 21.0834L22.1936 20.9183C22.2149 19.8181 22.2255 19.2672 21.2285 18.0507ZM16.8327 16.2844C16.9222 16.2614 16.9597 16.1066 16.9165 15.9389C16.8732 15.7711 16.7656 15.6537 16.6761 15.6768C16.5866 15.7 16.5491 15.8546 16.5924 16.0223C16.6356 16.1902 16.7432 16.3075 16.8327 16.2844ZM16.6816 16.663C16.5156 16.6961 16.3971 16.7199 16.3971 16.754C16.4088 16.8011 16.414 16.8743 16.4199 16.9593C16.4246 17.0256 16.4297 17.099 16.4389 17.1723C16.4389 17.2622 16.4402 17.3835 16.4416 17.5219C16.4467 18.0245 16.4541 18.7519 16.413 19.0136C17.3338 19.0456 18.7187 20.2674 18.7187 21.7946V21.8783C18.6978 20.3934 16.941 19.1802 16.3762 19.1802C15.8115 19.1802 14.0547 20.3934 14.0338 21.8783V21.7946C14.0338 20.2935 15.4083 19.0554 16.3292 19.014C16.2716 18.699 16.2716 17.634 16.2716 17.1723C16.2716 17.0839 16.2792 16.9724 16.2853 16.8844C16.2893 16.8268 16.2925 16.7788 16.2925 16.754C16.2925 16.7007 15.4446 16.4807 15.1917 16.4162C15.4031 16.4686 16.0251 16.6141 16.1461 16.5449C16.2716 16.4613 16.3343 16.2103 16.3343 16.2103C16.3343 16.2103 16.3761 16.4613 16.5435 16.5449C16.7108 16.6495 17.4847 16.3986 17.4847 16.3986C17.2619 16.547 16.922 16.6149 16.6816 16.663ZM15.1213 16.3986C15.1213 16.3986 15.1475 16.4054 15.1917 16.4162L15.1213 16.3986ZM16.0105 16.0312C15.9591 16.1966 15.8459 16.3087 15.7576 16.2813C15.6695 16.2539 15.6395 16.0975 15.6909 15.932C15.7422 15.7666 15.8553 15.6547 15.9436 15.682C16.0319 15.7093 16.0618 15.8657 16.0105 16.0312ZM14.3683 17.8625C14.3683 17.9549 14.2934 18.0298 14.201 18.0298C14.1087 18.0298 14.0336 17.9549 14.0336 17.8625C14.0336 17.77 14.1087 17.6951 14.201 17.6951C14.2934 17.6951 14.3683 17.77 14.3683 17.8625ZM13.4063 18.8664C13.4063 18.9589 13.3313 19.0338 13.2389 19.0338C13.1465 19.0338 13.0716 18.9589 13.0716 18.8664C13.0716 18.7741 13.1465 18.6991 13.2389 18.6991C13.3313 18.6991 13.4063 18.7741 13.4063 18.8664ZM12.9252 18.0298C13.0176 18.0298 13.0925 17.9549 13.0925 17.8626C13.0925 17.7702 13.0176 17.6953 12.9252 17.6953C12.8328 17.6953 12.7579 17.7702 12.7579 17.8626C12.7579 17.9549 12.8328 18.0298 12.9252 18.0298ZM18.4467 17.8626C18.4467 17.9549 18.3718 18.0298 18.2794 18.0298C18.1871 18.0298 18.1122 17.9549 18.1122 17.8626C18.1122 17.7702 18.1871 17.6953 18.2794 17.6953C18.3718 17.6953 18.4467 17.7702 18.4467 17.8626ZM19.2415 19.0338C19.334 19.0338 19.4089 18.9589 19.4089 18.8664C19.4089 18.7741 19.334 18.6991 19.2415 18.6991C19.1491 18.6991 19.0742 18.7741 19.0742 18.8664C19.0742 18.9589 19.1491 19.0338 19.2415 19.0338ZM19.7225 17.8625C19.7225 17.9549 19.6476 18.0298 19.5553 18.0298C19.4629 18.0298 19.388 17.9549 19.388 17.8625C19.388 17.77 19.4629 17.6951 19.5553 17.6951C19.6476 17.6951 19.7225 17.77 19.7225 17.8625Z" fill="#713F12"/>
<path d="M21.6259 14.9335C21.8915 14.9335 22.1069 14.7182 22.1069 14.4525C22.1069 14.1868 21.8915 13.9714 21.6259 13.9714C21.3602 13.9714 21.1448 14.1868 21.1448 14.4525C21.1448 14.7182 21.3602 14.9335 21.6259 14.9335Z" fill="#CDD6F4"/>
<path d="M11.0638 14.9335C11.3295 14.9335 11.5448 14.7182 11.5448 14.4525C11.5448 14.1868 11.3295 13.9714 11.0638 13.9714C10.7981 13.9714 10.5828 14.1868 10.5828 14.4525C10.5828 14.7182 10.7981 14.9335 11.0638 14.9335Z" fill="#CDD6F4"/>
</svg>
