<svg width="33" height="33" viewBox="0 0 33 33" fill="none" xmlns="http://www.w3.org/2000/svg">
<path fill-rule="evenodd" clip-rule="evenodd" d="M8.45582 17.6607C9.39911 17.1161 9.40067 15.3528 8.45932 13.7224C7.51796 12.092 5.99016 11.2118 5.04687 11.7564C4.10358 12.301 4.10202 14.0643 5.04337 15.6946C5.98472 17.3251 7.51253 18.2053 8.45582 17.6607ZM8.46146 21.1519C9.40282 22.7822 9.40125 24.5455 8.45796 25.0901C7.51466 25.6348 5.98686 24.7545 5.04552 23.1242C4.10416 21.4937 4.10573 19.7304 5.04901 19.1858C5.9923 18.6413 7.5201 19.5214 8.46146 21.1519ZM14.8896 24.8682C15.831 26.4987 15.8294 28.2618 14.8861 28.8066C13.9429 29.3513 12.4151 28.471 11.4737 26.8405C10.5324 25.2102 10.534 23.4469 11.4772 22.9023C12.4205 22.3576 13.9484 23.2379 14.8896 24.8682ZM14.8876 17.439C15.8289 19.0693 15.8274 20.8326 14.8841 21.3772C13.9407 21.9219 12.413 21.0416 11.4716 19.4113C10.5303 17.7808 10.5318 16.0175 11.4751 15.4729C12.4184 14.9284 13.9462 15.8085 14.8876 17.439Z" fill="#d20f39"/>
<path fill-rule="evenodd" clip-rule="evenodd" d="M27.7466 15.6984C28.6878 14.0679 28.6864 12.3047 27.743 11.7601C26.7997 11.2154 25.272 12.0957 24.3306 13.7261C23.3892 15.3565 23.3909 17.1197 24.3341 17.6644C25.2774 18.209 26.8052 17.3287 27.7466 15.6984ZM27.7467 19.1878C28.69 19.7323 28.6916 21.4956 27.7502 23.126C26.8088 24.7564 25.2811 25.6367 24.3377 25.092C23.3945 24.5474 23.393 22.7841 24.3342 21.1538C25.2756 19.5233 26.8035 18.6431 27.7467 19.1878ZM21.3198 22.8981C22.2631 23.4426 22.2647 25.2059 21.3233 26.8364C20.3819 28.4667 18.8541 29.347 17.9108 28.8023C16.9676 28.2578 16.966 26.4946 17.9073 24.8641C18.8487 23.2336 20.3766 22.3535 21.3198 22.8981ZM21.3162 15.4704C22.2595 16.015 22.2611 17.7783 21.3197 19.4086C20.3783 21.0391 18.8505 21.9194 17.9072 21.3747C16.964 20.8301 16.9623 19.0668 17.9037 17.4365C18.8451 15.806 20.3728 14.9257 21.3162 15.4704Z" fill="#8839ef"/>
<path fill-rule="evenodd" clip-rule="evenodd" d="M19.8034 5.43368C19.8034 6.52292 18.2771 7.40594 16.3944 7.40594C14.5117 7.40594 12.9855 6.52292 12.9855 5.43368C12.9855 4.34443 14.5117 3.46143 16.3944 3.46143C18.2771 3.46143 19.8034 4.34443 19.8034 5.43368ZM13.3765 9.14023C13.3765 10.2295 11.8502 11.1125 9.96753 11.1125C8.08483 11.1125 6.55859 10.2295 6.55859 9.14023C6.55859 8.05099 8.08483 7.16797 9.96753 7.16797C11.8502 7.16797 13.3765 8.05099 13.3765 9.14023ZM22.8297 11.1125C24.7125 11.1125 26.2386 10.2295 26.2386 9.14023C26.2386 8.05099 24.7125 7.16797 22.8297 7.16797C20.9469 7.16797 19.4207 8.05099 19.4207 9.14023C19.4207 10.2295 20.9469 11.1125 22.8297 11.1125ZM19.8034 12.8551C19.8034 13.9443 18.2771 14.8273 16.3944 14.8273C14.5117 14.8273 12.9855 13.9443 12.9855 12.8551C12.9855 11.7659 14.5117 10.8828 16.3944 10.8828C18.2771 10.8828 19.8034 11.7659 19.8034 12.8551Z" fill="#df8e1d"/>
</svg>
