<svg width="34" height="33" viewBox="0 0 34 33" fill="none" xmlns="http://www.w3.org/2000/svg">
<path d="M19.0256 3.72192C20.8177 3.72192 22.2705 5.17473 22.2705 6.96686V6.96686C22.27 7.35154 22.5817 7.66363 22.9664 7.66363H26.909C27.6347 7.66363 28.2229 8.25189 28.2229 8.97753L28.2219 12.5436C28.2218 13.1133 27.7601 13.5752 27.1903 13.5756L26.2122 13.5762C24.4918 13.5762 23.0841 14.915 22.9742 16.6077L22.9673 16.8211V16.9008C22.9673 18.6212 24.3062 20.0288 25.9988 20.1388L26.2122 20.1457L27.189 20.145C27.7592 20.1446 28.2218 20.6067 28.2219 21.177L28.2229 24.7482C28.2229 25.4738 27.6347 26.0621 26.909 26.0621L22.9638 26.0611C22.5806 26.061 22.27 26.3718 22.2705 26.755V26.755C22.2705 28.5472 20.8177 30 19.0256 30C17.2334 30 15.7806 28.5472 15.7806 26.755V26.755C15.7804 26.3716 15.4695 26.061 15.0861 26.0611L11.1421 26.0621C10.4165 26.0621 9.82824 25.4738 9.82824 24.7482L9.82713 20.803C9.82702 20.4189 9.51556 20.1077 9.13149 20.1078V20.1078C7.33935 20.1078 5.88654 18.6549 5.88654 16.8629C5.88654 15.0707 7.33935 13.6179 9.13149 13.6179V13.6179C9.51576 13.6174 9.82702 13.3058 9.82713 12.9215L9.82824 8.97753C9.82824 8.25189 10.4165 7.66363 11.1421 7.66363H15.0835C15.4683 7.66363 15.7804 7.35174 15.7806 6.96686V6.96686C15.7806 5.17473 17.2334 3.72192 19.0256 3.72192Z" fill="#1E66F5"/>
</svg>
