<svg width="33" height="34" viewBox="0 0 33 34" fill="none" xmlns="http://www.w3.org/2000/svg">
<path fill-rule="evenodd" clip-rule="evenodd" d="M27.1045 19.7392C28.081 18.5728 28.6377 17.2276 28.6377 15.7953C28.6377 11.335 23.2389 7.71924 16.579 7.71924C9.91916 7.71924 4.52026 11.335 4.52026 15.7953C4.52026 19.4555 8.15585 22.5468 13.1404 23.5383V20.9095C10.7923 19.9099 9.25911 18.2617 9.25911 16.3978C9.25911 13.3486 13.3627 10.8767 18.4248 10.8767C23.4868 10.8767 27.2226 12.5679 27.2226 16.3978C27.2226 16.7954 27.1824 17.1699 27.1045 17.5218V19.7392Z" fill="#7F849C"/>
<path fill-rule="evenodd" clip-rule="evenodd" d="M22.8855 20.2273C22.8855 20.2273 23.6153 20.4476 24.0394 20.6621C24.1865 20.7366 24.4411 20.8852 24.6247 21.0801C24.8046 21.2712 24.8922 21.4648 24.8922 21.4648L27.7686 26.3144L23.1197 26.3164L20.9457 22.234C20.9457 22.234 20.5006 21.4692 20.2266 21.2473C19.9981 21.0624 19.9007 20.9965 19.6748 20.9965C19.5175 20.9965 18.5702 20.9965 18.5702 20.9965L18.571 26.3136L14.4573 26.3152V12.7334H22.7183C22.7183 12.7334 26.4809 12.8013 26.4809 16.3811C26.4809 19.9608 22.8855 20.2273 22.8855 20.2273ZM21.0961 15.6795L18.6057 15.6779L18.6045 17.9873L21.0961 17.9865C21.0961 17.9865 22.25 17.9829 22.25 16.8117C22.25 15.617 21.0961 15.6795 21.0961 15.6795Z" fill="#1e66f5"/>
</svg>
