<svg width="33" height="34" viewBox="0 0 33 34" fill="none" xmlns="http://www.w3.org/2000/svg">
<path d="M18.525 17.45C18.525 18.5684 17.6184 19.475 16.5 19.475C15.3817 19.475 14.475 18.5684 14.475 17.45C14.475 16.3316 15.3817 15.425 16.5 15.425C17.6184 15.425 18.525 16.3316 18.525 17.45Z" fill="#04A5E5" stroke="#04A5E5" stroke-width="1.35"/>
<path opacity="0.8" d="M16.5 23.525C23.9558 23.525 30 20.8051 30 17.45C30 14.0949 23.9558 11.375 16.5 11.375C9.04416 11.375 3 14.0949 3 17.45C3 20.8051 9.04416 23.525 16.5 23.525Z" stroke="#04A5E5" stroke-width="1.35"/>
<path opacity="0.9" d="M11.2389 20.4875C14.9668 26.9445 20.3444 30.8189 23.25 29.1414C26.1556 27.4638 25.489 20.8695 21.7611 14.4125C18.0332 7.95558 12.6556 4.08113 9.75 5.75869C6.84438 7.43626 7.51098 14.0306 11.2389 20.4875Z" stroke="#04A5E5" stroke-width="1.35"/>
<path opacity="0.6" d="M11.2389 14.4125C7.51098 20.8694 6.84438 27.4638 9.75 29.1413C12.6556 30.8189 18.0332 26.9444 21.7611 20.4875C25.489 14.0305 26.1556 7.43621 23.25 5.75864C20.3444 4.08108 14.9668 7.95553 11.2389 14.4125Z" stroke="#04A5E5" stroke-width="1.35"/>
</svg>
