<svg width="33" height="34" viewBox="0 0 33 34" fill="none" xmlns="http://www.w3.org/2000/svg">
<path d="M16.8919 19.2654C18.133 19.2654 19.1392 18.2592 19.1392 17.0181C19.1392 15.777 18.133 14.7708 16.8919 14.7708C15.6508 14.7708 14.6445 15.777 14.6445 17.0181C14.6445 18.2592 15.6508 19.2654 16.8919 19.2654Z" fill="#74C7EC"/>
<path d="M16.8915 21.6226C23.5514 21.6226 28.9502 19.5612 28.9502 17.0183C28.9502 14.4755 23.5514 12.4141 16.8915 12.4141C10.2316 12.4141 4.83276 14.4755 4.83276 17.0183C4.83276 19.5612 10.2316 21.6226 16.8915 21.6226Z" stroke="#74C7EC" stroke-width="2"/>
<path d="M12.9039 19.3201C16.2338 25.0876 20.7184 28.7326 22.9206 27.461C25.1228 26.1897 24.2086 20.4835 20.8787 14.7158C17.5487 8.94822 13.0641 5.30336 10.8619 6.57478C8.65971 7.84621 9.57394 13.5525 12.9039 19.3201Z" stroke="#74C7EC" stroke-width="2"/>
<path d="M12.9039 14.7158C9.57394 20.4835 8.65971 26.1896 10.8619 27.4612C13.0641 28.7326 17.5487 25.0876 20.8787 19.3201C24.2086 13.5525 25.1228 7.8462 22.9206 6.57479C20.7184 5.30335 16.2338 8.94822 12.9039 14.7158Z" stroke="#74C7EC" stroke-width="2"/>
</svg>
