<svg width="33" height="34" viewBox="0 0 33 34" fill="none" xmlns="http://www.w3.org/2000/svg">
<path d="M16.5 20.15C17.9912 20.15 19.2 18.9412 19.2 17.45C19.2 15.9588 17.9912 14.75 16.5 14.75C15.0088 14.75 13.8 15.9588 13.8 17.45C13.8 18.9412 15.0088 20.15 16.5 20.15Z" fill="#1E66F5"/>
<path opacity="0.8" d="M16.4999 23.525C23.9558 23.525 29.9999 20.8051 29.9999 17.45C29.9999 14.0949 23.9558 11.375 16.4999 11.375C9.04409 11.375 2.99994 14.0949 2.99994 17.45C2.99994 20.8051 9.04409 23.525 16.4999 23.525Z" stroke="#1E66F5" stroke-width="1.35"/>
<path opacity="0.9" d="M11.2388 20.4875C14.9667 26.9445 20.3443 30.8189 23.2499 29.1414C26.1555 27.4638 25.4889 20.8695 21.761 14.4125C18.0331 7.95558 12.6555 4.08113 9.74988 5.75869C6.84426 7.43626 7.51086 14.0306 11.2388 20.4875Z" stroke="#1E66F5" stroke-width="1.35"/>
<path opacity="0.6" d="M11.2388 14.4125C7.51086 20.8694 6.84426 27.4638 9.74988 29.1413C12.6555 30.8189 18.0331 26.9444 21.761 20.4875C25.4889 14.0305 26.1555 7.43621 23.2499 5.75864C20.3443 4.08108 14.9667 7.95553 11.2388 14.4125Z" stroke="#1E66F5" stroke-width="1.35"/>
</svg>
