<svg width="33" height="34" viewBox="0 0 33 34" fill="none" xmlns="http://www.w3.org/2000/svg">
<path d="M16.2046 19.2654C17.4457 19.2654 18.452 18.2592 18.452 17.0181C18.452 15.777 17.4457 14.7708 16.2046 14.7708C14.9635 14.7708 13.9573 15.777 13.9573 17.0181C13.9573 18.2592 14.9635 19.2654 16.2046 19.2654Z" fill="#1e66f5"/>
<path d="M16.2052 21.6226C22.8651 21.6226 28.2639 19.5612 28.2639 17.0183C28.2639 14.4755 22.8651 12.4141 16.2052 12.4141C9.54536 12.4141 4.14648 14.4755 4.14648 17.0183C4.14648 19.5612 9.54536 21.6226 16.2052 21.6226Z" stroke="#1e66f5" stroke-width="2"/>
<path d="M12.2176 19.3201C15.5475 25.0876 20.0321 28.7326 22.2343 27.461C24.4365 26.1897 23.5223 20.4835 20.1924 14.7158C16.8624 8.94822 12.3778 5.30336 10.1756 6.57478C7.97343 7.84621 8.88766 13.5525 12.2176 19.3201Z" stroke="#1e66f5" stroke-width="2"/>
<path d="M12.2176 14.7158C8.88766 20.4835 7.97343 26.1896 10.1756 27.4612C12.3778 28.7326 16.8624 25.0876 20.1924 19.3201C23.5223 13.5525 24.4365 7.8462 22.2343 6.57479C20.0321 5.30335 15.5475 8.94822 12.2176 14.7158Z" stroke="#1e66f5" stroke-width="2"/>
</svg>
