<svg width="33" height="34" viewBox="0 0 33 34" fill="none" xmlns="http://www.w3.org/2000/svg">
<path d="M21.0141 20.9493C21.904 20.8572 22.5793 20.09 22.5485 19.1691C22.5179 18.2485 21.7506 17.5119 20.8298 17.5119H20.7686C19.817 17.5425 19.0805 18.3406 19.1112 19.2919C19.1419 19.7524 19.326 20.1512 19.6023 20.4275C18.5588 22.4839 16.9629 23.9878 14.5691 25.246C12.9425 26.1054 11.2545 26.4124 9.56658 26.1976C8.18548 26.0134 7.1113 25.3996 6.43601 24.3867C5.45399 22.8828 5.36194 21.2562 6.1906 19.6295C6.77375 18.4633 7.69437 17.6039 8.27751 17.1742C8.15475 16.7752 7.97058 16.1 7.87854 15.609C3.4284 18.8316 3.88879 23.1898 5.23918 25.246C6.25193 26.7807 8.30822 27.7322 10.5793 27.7322C11.1931 27.7322 11.8069 27.6708 12.4207 27.5174C16.3491 26.75 19.3261 24.4175 21.0141 20.9493ZM26.4156 17.1435C24.0832 14.412 20.6457 12.9081 16.7174 12.9081H16.2264C15.9502 12.3557 15.367 11.9873 14.7225 11.9873H14.6611C13.7098 12.018 12.9733 12.816 13.0039 13.7675C13.0346 14.6882 13.8019 15.4249 14.7225 15.4249H14.7839C15.459 15.3941 16.0423 14.9644 16.2877 14.3813H16.8401C19.1727 14.3813 21.3824 15.0564 23.3773 16.3762C24.9117 17.3891 26.0167 18.7089 26.6304 20.3048C27.1521 21.5939 27.1214 22.8521 26.569 23.9264C25.7097 25.553 24.2672 26.4431 22.3645 26.4431C21.1368 26.4431 19.9706 26.0748 19.3568 25.7985C19.0192 26.1054 18.4054 26.5965 17.9757 26.9035C19.2954 27.5172 20.6457 27.8549 21.9348 27.8549C24.881 27.8549 27.06 26.2282 27.8888 24.6016C28.7788 22.8214 28.7173 19.7524 26.4156 17.1435ZM10.8248 21.471C10.8555 22.3918 11.6228 23.1283 12.5435 23.1283H12.6049C13.5563 23.0977 14.2928 22.2996 14.2621 21.3483C14.2316 20.4274 13.4642 19.6909 12.5435 19.6909H12.4821C12.4207 19.6909 12.3286 19.6909 12.2674 19.7215C11.009 17.6344 10.4873 15.3634 10.6715 12.908C10.7941 11.0665 11.408 9.47054 12.4821 8.15078C13.3721 7.01519 15.0908 6.46275 16.257 6.43213C19.5102 6.3707 20.8912 10.422 20.9834 12.0487C21.3824 12.1407 22.0576 12.3556 22.5179 12.5091C22.1496 7.5371 19.0805 4.95898 16.1343 4.95898C13.3721 4.95898 10.8248 6.95395 9.81199 9.90033C8.40027 13.8288 9.32097 17.6039 11.0396 20.5809C10.8862 20.7957 10.7941 21.1334 10.8248 21.471Z" fill="#8839ef"/>
</svg>
