<svg width="33" height="34" viewBox="0 0 33 34" fill="none" xmlns="http://www.w3.org/2000/svg">
<path d="M21.3275 20.9493C22.2175 20.8572 22.8928 20.09 22.862 19.1691C22.8314 18.2485 22.0641 17.5119 21.1433 17.5119H21.0821C20.1305 17.5425 19.394 18.3406 19.4247 19.2919C19.4554 19.7524 19.6395 20.1512 19.9157 20.4275C18.8723 22.4839 17.2764 23.9878 14.8826 25.246C13.2559 26.1054 11.568 26.4124 9.88005 26.1976C8.49895 26.0134 7.42478 25.3996 6.74949 24.3867C5.76747 22.8828 5.67542 21.2562 6.50408 19.6295C7.08723 18.4633 8.00784 17.6039 8.59099 17.1742C8.46823 16.7752 8.28405 16.1 8.19202 15.609C3.74188 18.8316 4.20227 23.1898 5.55266 25.246C6.56541 26.7807 8.6217 27.7322 10.8928 27.7322C11.5066 27.7322 12.1203 27.6708 12.7342 27.5174C16.6626 26.75 19.6396 24.4175 21.3275 20.9493ZM26.7291 17.1435C24.3966 14.412 20.9592 12.9081 17.0309 12.9081H16.5398C16.2637 12.3557 15.6804 11.9873 15.036 11.9873H14.9746C14.0233 12.018 13.2867 12.816 13.3174 13.7675C13.3481 14.6882 14.1154 15.4249 15.036 15.4249H15.0973C15.7725 15.3941 16.3557 14.9644 16.6012 14.3813H17.1536C19.4862 14.3813 21.6959 15.0564 23.6908 16.3762C25.2252 17.3891 26.3302 18.7089 26.9438 20.3048C27.4656 21.5939 27.4349 22.8521 26.8825 23.9264C26.0232 25.553 24.5807 26.4431 22.678 26.4431C21.4503 26.4431 20.2841 26.0748 19.6703 25.7985C19.3326 26.1054 18.7188 26.5965 18.2892 26.9035C19.6089 27.5172 20.9592 27.8549 22.2483 27.8549C25.1945 27.8549 27.3735 26.2282 28.2022 24.6016C29.0923 22.8214 29.0308 19.7524 26.7291 17.1435ZM11.1383 21.471C11.169 22.3918 11.9363 23.1283 12.857 23.1283H12.9184C13.8698 23.0977 14.6063 22.2996 14.5756 21.3483C14.5451 20.4274 13.7777 19.6909 12.857 19.6909H12.7956C12.7342 19.6909 12.6421 19.6909 12.5808 19.7215C11.3225 17.6344 10.8008 15.3634 10.9849 12.908C11.1076 11.0665 11.7215 9.47054 12.7956 8.15078C13.6856 7.01519 15.4043 6.46275 16.5705 6.43213C19.8237 6.3707 21.2047 10.422 21.2969 12.0487C21.6959 12.1407 22.371 12.3556 22.8314 12.5091C22.4631 7.5371 19.394 4.95898 16.4478 4.95898C13.6856 4.95898 11.1383 6.95395 10.1255 9.90033C8.71375 13.8288 9.63444 17.6039 11.3531 20.5809C11.1997 20.7957 11.1076 21.1334 11.1383 21.471Z" fill="#F9E2AF"/>
</svg>
