<svg width="33" height="34" viewBox="0 0 33 34" fill="none" xmlns="http://www.w3.org/2000/svg">
<path d="M12.2285 4.30347C8.83537 4.30347 7.13847 4.30379 5.94996 5.1688C5.56643 5.44663 5.2296 5.78378 4.95214 6.16759C4.08649 7.35577 4.08649 9.05203 4.08649 12.45V21.585C4.08649 24.9782 4.08649 26.6735 4.9515 27.8631C5.23012 28.2475 5.56699 28.5861 5.94996 28.8666C7.13815 29.7319 8.83537 29.7319 12.2285 29.7319H21.3681C24.7613 29.7319 26.4566 29.7319 27.646 28.8666C28.0296 28.585 28.3679 28.2465 28.6497 27.8631C29.5152 26.6751 29.5152 24.9786 29.5152 21.585V12.45C29.514 9.05203 29.514 7.35577 28.6497 6.16759C28.3691 5.78453 28.0307 5.44756 27.6464 5.1688C26.4582 4.30379 24.7619 4.30347 21.3681 4.30347H12.2285ZM12.7373 5.72029H20.8593C23.875 5.72029 25.3822 5.71997 26.4378 6.48851C26.7794 6.73622 27.08 7.03565 27.3292 7.37603C28.0971 8.43173 28.0971 9.93988 28.0985 12.9594V21.076C28.0985 24.0914 28.0985 25.5988 27.3292 26.6545C27.0791 26.9951 26.7784 27.2955 26.4378 27.5457C25.381 28.3145 23.8747 28.3151 20.8593 28.3151H12.7373C9.72193 28.3151 8.21475 28.3145 7.15873 27.5457C6.81838 27.2966 6.51895 26.9959 6.27121 26.6545C5.50266 25.5976 5.50331 24.0911 5.50331 21.076V12.9594C5.50331 9.93988 5.50234 8.43173 6.27121 7.37603C6.51801 7.03492 6.81761 6.73531 7.15873 6.48851C8.21475 5.71997 9.72193 5.72029 12.7373 5.72029Z" fill="#D20F39"/>
<path d="M13.4689 10.472C12.5119 10.472 12.0302 10.472 11.6659 10.6566C11.3437 10.8216 11.0816 11.0837 10.9166 11.4058C10.7314 11.7708 10.7311 12.2519 10.7311 13.2134V21.5991C10.7311 22.3944 10.7317 22.7969 10.8613 23.1111C11.0349 23.5296 11.3674 23.8621 11.7858 24.0356C12.0997 24.1649 12.5023 24.1649 13.2972 24.1649C14.0976 24.1649 14.495 24.1649 14.8092 24.0356C15.2278 23.862 15.5602 23.5292 15.7337 23.1105C15.8629 22.7967 15.8629 22.3944 15.8629 21.5991V10.4717L13.4689 10.472ZM21.3189 10.5727C20.526 10.5842 19.7695 10.9073 19.2128 11.4722C18.6562 12.037 18.3442 12.7982 18.3442 13.5912C18.3442 14.3842 18.6562 15.1454 19.2128 15.7102C19.7695 16.275 20.526 16.5982 21.3189 16.6097H21.3228C22.1229 16.6092 22.8898 16.291 23.4552 15.7249C24.0205 15.1589 24.3379 14.3915 24.3375 13.5915C24.3375 13.1951 24.2595 12.8025 24.1079 12.4362C23.9562 12.0699 23.7338 11.7371 23.4535 11.4568C23.1732 11.1764 22.8405 10.954 22.4742 10.8023C22.108 10.6505 21.7154 10.5727 21.3189 10.5727Z" fill="#D20F39"/>
</svg>
