<svg width="33" height="34" viewBox="0 0 33 34" fill="none" xmlns="http://www.w3.org/2000/svg">
<path d="M28.493 6.168C28.2124 5.78494 27.8739 5.44797 27.4897 5.16921C26.3018 4.3042 24.6052 4.3042 21.2114 4.3042H12.0715C8.67833 4.3042 6.98175 4.3042 5.79324 5.16921C5.40948 5.44699 5.07242 5.78415 4.79478 6.168C3.92944 7.35618 3.92944 9.05278 3.92944 12.4508V21.5858C3.92944 24.979 3.92944 26.6746 4.79446 27.864C5.0732 28.2484 5.41017 28.5869 5.79324 28.8673C6.98143 29.7327 8.67801 29.7327 12.0715 29.7327H21.2114C24.6046 29.7327 26.3001 29.7327 27.4897 28.8673C27.873 28.5858 28.2113 28.2475 28.493 27.864C29.3585 26.6762 29.3585 24.9793 29.3585 21.5858V12.4508C29.3573 9.05278 29.3573 7.35618 28.493 6.168ZM15.7059 21.5999C15.7059 22.3952 15.7059 22.7975 15.5766 23.1113C15.4029 23.53 15.0704 23.8625 14.6517 24.0362C14.3376 24.1655 13.9401 24.1655 13.1401 24.1655C12.3448 24.1655 11.9425 24.1655 11.6287 24.0362C11.2101 23.8627 10.8775 23.5301 10.7039 23.1117C10.5743 22.7975 10.5743 22.3952 10.5743 21.5999V13.2138C10.5743 12.2523 10.5743 11.7716 10.7595 11.4066C10.9244 11.0845 11.1864 10.8224 11.5084 10.6574C11.8728 10.4725 12.3545 10.4725 13.3115 10.4725H15.7062L15.7059 21.5999ZM21.1615 16.6108C20.5645 16.6108 19.9808 16.4338 19.4843 16.1021C18.9879 15.7703 18.6009 15.299 18.3725 14.7472C18.144 14.1956 18.0841 13.5887 18.2007 13.003C18.3171 12.4174 18.6047 11.8795 19.0269 11.4573C19.449 11.0351 19.987 10.7476 20.5725 10.6311C21.1582 10.5147 21.7651 10.5744 22.3167 10.8029C22.8684 11.0314 23.3399 11.4184 23.6716 11.9148C24.0034 12.4113 24.1804 12.9949 24.1804 13.592C24.1806 13.9882 24.1029 14.3805 23.9516 14.7467C23.8002 15.1127 23.5782 15.4455 23.2983 15.7258C23.0184 16.0061 22.686 16.2286 22.3201 16.3805C21.954 16.5323 21.5619 16.6105 21.1657 16.6108H21.1615Z" fill="#D20F39"/>
</svg>
