<svg width="33" height="34" viewBox="0 0 33 34" fill="none" xmlns="http://www.w3.org/2000/svg">
<path d="M11.7285 4.30347C8.33531 4.30347 6.63841 4.30379 5.4499 5.1688C5.06637 5.44663 4.72954 5.78378 4.45208 6.16759C3.58643 7.35577 3.58643 9.05203 3.58643 12.45V21.585C3.58643 24.9782 3.58643 26.6735 4.45144 27.8631C4.73006 28.2475 5.06693 28.5861 5.4499 28.8666C6.63809 29.7319 8.33531 29.7319 11.7285 29.7319H20.868C24.2612 29.7319 25.9565 29.7319 27.1459 28.8666C27.5295 28.585 27.8678 28.2465 28.1496 27.8631C29.0152 26.6751 29.0152 24.9786 29.0152 21.585V12.45C29.014 9.05203 29.014 7.35577 28.1496 6.16759C27.8691 5.78453 27.5306 5.44756 27.1463 5.1688C25.9581 4.30379 24.2619 4.30347 20.868 4.30347H11.7285ZM12.2372 5.72029H20.3593C23.3749 5.72029 24.8821 5.71996 25.9378 6.48851C26.2793 6.73622 26.58 7.03565 26.8292 7.37603C27.5971 8.43173 27.5971 9.93988 27.5984 12.9594V21.076C27.5984 24.0914 27.5984 25.5988 26.8292 26.6545C26.579 26.9951 26.2784 27.2955 25.9378 27.5457C24.8809 28.3145 23.3746 28.3151 20.3593 28.3151H12.2372C9.22187 28.3151 7.71469 28.3145 6.65867 27.5457C6.31832 27.2966 6.01888 26.9959 5.77115 26.6545C5.0026 25.5976 5.00325 24.0911 5.00325 21.076V12.9594C5.00325 9.93988 5.00228 8.43173 5.77115 7.37603C6.01795 7.03492 6.31755 6.73531 6.65867 6.48851C7.71469 5.71996 9.22187 5.72029 12.2372 5.72029Z" fill="#d20f39"/>
<path d="M12.9688 10.472C12.0118 10.472 11.5301 10.472 11.1657 10.6566C10.8436 10.8216 10.5815 11.0837 10.4165 11.4058C10.2313 11.7708 10.231 12.2519 10.231 13.2134V21.5991C10.231 22.3944 10.2316 22.7969 10.3612 23.1111C10.5347 23.5296 10.8672 23.8621 11.2857 24.0356C11.5995 24.1649 12.0021 24.1649 12.7971 24.1649C13.5974 24.1649 13.9949 24.1649 14.3091 24.0356C14.7277 23.862 15.0601 23.5292 15.2336 23.1105C15.3628 22.7967 15.3628 22.3944 15.3628 21.5991V10.4717L12.9688 10.472ZM20.8188 10.5727C20.0259 10.5842 19.2694 10.9073 18.7127 11.4722C18.1561 12.037 17.8441 12.7982 17.8441 13.5912C17.8441 14.3842 18.1561 15.1454 18.7127 15.7102C19.2694 16.275 20.0259 16.5982 20.8188 16.6097H20.8227C21.6227 16.6092 22.3897 16.291 22.9551 15.7249C23.5204 15.1589 23.8378 14.3915 23.8374 13.5915C23.8374 13.1951 23.7594 12.8025 23.6077 12.4362C23.4561 12.0699 23.2337 11.7371 22.9534 11.4568C22.6731 11.1764 22.3404 10.954 21.974 10.8023C21.6079 10.6505 21.2153 10.5727 20.8188 10.5727Z" fill="#d20f39"/>
</svg>
