<svg width="33" height="34" viewBox="0 0 33 34" fill="none" xmlns="http://www.w3.org/2000/svg">
<path fill-rule="evenodd" clip-rule="evenodd" d="M16.9042 4.95898C16.1642 4.95898 15.5644 5.55887 15.5644 6.29884V8.97856C15.5644 9.0809 15.5759 9.18056 15.5976 9.27632H7.07864C5.59868 9.27632 4.39893 10.4761 4.39893 11.956V25.3546C4.39893 26.8346 5.59868 28.0343 7.07864 28.0343H25.8367C27.3167 28.0343 28.5164 26.8346 28.5164 25.3546V11.956C28.5164 10.4761 27.3167 9.27632 25.8367 9.27632H18.2109C18.2327 9.18056 18.2441 9.0809 18.2441 8.97856V6.29884C18.2441 5.55887 17.6442 4.95898 16.9042 4.95898ZM15.1178 15.8267C15.1178 18.0467 13.3182 19.8463 11.0982 19.8463C8.87827 19.8463 7.07864 18.0467 7.07864 15.8267C7.07864 13.6068 8.87827 11.8071 11.0982 11.8071C13.3182 11.8071 15.1178 13.6068 15.1178 15.8267ZM21.8171 19.8463C24.0371 19.8463 25.8367 18.0467 25.8367 15.8267C25.8367 13.6068 24.0371 11.8071 21.8171 11.8071C19.5971 11.8071 17.7975 13.6068 17.7975 15.8267C17.7975 18.0467 19.5971 19.8463 21.8171 19.8463ZM11.0982 24.0147C11.0982 23.2747 11.6981 22.6749 12.4381 22.6749H21.8171C22.5571 22.6749 23.1569 23.2747 23.1569 24.0147C23.1569 24.7547 22.5571 25.3546 21.8171 25.3546H12.4381C11.6981 25.3546 11.0982 24.7547 11.0982 24.0147ZM11.0982 17.1666C11.8382 17.1666 12.4381 16.5667 12.4381 15.8267C12.4381 15.0867 11.8382 14.4869 11.0982 14.4869C10.3582 14.4869 9.75836 15.0867 9.75836 15.8267C9.75836 16.5667 10.3582 17.1666 11.0982 17.1666ZM23.1569 15.8267C23.1569 16.5667 22.5571 17.1666 21.8171 17.1666C21.0771 17.1666 20.4772 16.5667 20.4772 15.8267C20.4772 15.0867 21.0771 14.4869 21.8171 14.4869C22.5571 14.4869 23.1569 15.0867 23.1569 15.8267Z" fill="#6C7086"/>
</svg>
