<svg width="33" height="34" viewBox="0 0 33 34" fill="none" xmlns="http://www.w3.org/2000/svg">
<path d="M9.44366 6.15679H23.114C23.7418 6.15679 24.3183 6.50365 24.6123 7.05835L28.253 13.927C28.5826 14.5489 28.4938 15.3097 28.0298 15.839L17.5916 27.7456C16.9295 28.5009 15.7597 28.5184 15.0753 27.7832L4.01815 15.9058C3.50124 15.3505 3.41602 14.5195 3.80948 13.8709L7.99386 6.97301C8.30127 6.46626 8.85096 6.15679 9.44366 6.15679Z" fill="#EBA0AC" fill-opacity="0.15" stroke="#D20F39" stroke-width="1.13047"/>
<mask id="mask0_145_1029" style="mask-type:alpha" maskUnits="userSpaceOnUse" x="2" y="5" width="28" height="24">
<path d="M25.1117 6.79364C24.7197 6.05404 23.9511 5.59155 23.114 5.59155H9.44366C8.65339 5.59155 7.92047 6.00418 7.51059 6.67985L3.32621 13.5777C2.8016 14.4425 2.91522 15.5506 3.60444 16.2909L14.6616 28.1684C15.5741 29.1485 17.1338 29.1252 18.0166 28.1183L28.4549 16.2116C29.0735 15.5059 29.1919 14.4914 28.7524 13.6623L25.1117 6.79364Z" fill="#BAC2DE"/>
</mask>
<g mask="url(#mask0_145_1029)">
<path d="M16.7103 4.10913L10.962 14.0787C10.6268 14.6602 10.5672 15.3605 10.7993 15.9902L16.7183 32.0452" stroke="#D20F39" stroke-width="1.13047" stroke-linecap="round" stroke-linejoin="round"/>
<path d="M14.9484 4.12256L20.7141 14.0996C21.0498 14.6806 21.1102 15.3807 20.8787 16.0106L14.9747 32.0794" stroke="#D20F39" stroke-width="1.13047" stroke-linecap="round" stroke-linejoin="round"/>
</g>
<path d="M4.28364 14.9971H27.7312H3.74573" stroke="#D20F39" stroke-width="1.13047" stroke-linejoin="round"/>
</svg>
