<svg width="33" height="34" viewBox="0 0 33 34" fill="none" xmlns="http://www.w3.org/2000/svg">
<path fill-rule="evenodd" clip-rule="evenodd" d="M16.5327 3.80177C16.4654 3.68852 16.3465 3.61963 16.2187 3.61963C16.0908 3.61963 15.9721 3.68852 15.9048 3.80177L15.3045 4.81156C15.2565 4.89231 15.1723 4.94482 15.0789 4.95434V4.95434C14.9846 4.96394 14.8912 4.92872 14.8279 4.85818L14.0513 3.99291C13.9641 3.89568 13.8347 3.85234 13.7094 3.87834C13.5842 3.90435 13.4806 3.99598 13.4358 4.12063L13.0354 5.23394C13.0039 5.32142 12.9327 5.38862 12.8441 5.41667V5.41667C12.7524 5.44568 12.6523 5.42959 12.5753 5.37197L11.6535 4.68177C11.5497 4.60405 11.4147 4.58778 11.2966 4.63877C11.1785 4.68976 11.0941 4.80074 11.0736 4.93217L10.8884 6.11396C10.8742 6.20462 10.8184 6.28328 10.7383 6.32804V6.32804C10.6539 6.37522 10.5519 6.37951 10.4645 6.33803L9.42973 5.84677C9.31331 5.7915 9.17772 5.80293 9.07136 5.877C8.965 5.95106 8.90303 6.0772 8.90756 6.21038L8.94849 7.41453C8.95155 7.50473 8.91271 7.59112 8.84414 7.6498V7.6498C8.77146 7.712 8.67343 7.73624 8.58053 7.71344L7.46817 7.44046C7.34366 7.4099 7.21284 7.44865 7.12239 7.54287C7.03194 7.6371 6.99474 7.77336 7.02407 7.90306L7.28921 9.07537C7.30934 9.16434 7.28744 9.25745 7.2309 9.32902V9.32902C7.17119 9.4046 7.07933 9.44801 6.98307 9.44446L5.8432 9.40242C5.71534 9.3977 5.59426 9.46226 5.52315 9.57305C5.45205 9.68384 5.44106 9.82508 5.49412 9.94635L5.9694 11.0326C6.0073 11.1192 6.00336 11.2182 5.96002 11.3023V11.3023C5.91477 11.39 5.83138 11.4521 5.73408 11.4687L4.6161 11.6587C4.48993 11.6801 4.38339 11.768 4.33445 11.891C4.28551 12.014 4.30112 12.1547 4.37573 12.2628L5.03976 13.2251C5.09469 13.3047 5.11003 13.4048 5.08291 13.4977V13.4977C5.05497 13.5933 4.98481 13.6714 4.89197 13.7076L3.83703 14.1193C3.71738 14.166 3.6294 14.2739 3.60444 14.4044C3.57948 14.5349 3.62108 14.6696 3.71442 14.7606L4.5419 15.5663C4.61214 15.6347 4.64685 15.7313 4.63767 15.8289V15.8289C4.62837 15.9278 4.57493 16.0177 4.49143 16.0716L3.53092 16.6912C3.42222 16.7614 3.35608 16.885 3.35608 17.0182C3.35608 17.1514 3.42222 17.2751 3.53092 17.3453L4.49146 17.9649C4.57496 18.0187 4.6284 18.1086 4.63771 18.2075V18.2075C4.64689 18.3051 4.61217 18.4018 4.54193 18.4702L3.71442 19.2759C3.62108 19.3669 3.57948 19.5015 3.60444 19.632C3.6294 19.7625 3.71738 19.8704 3.83703 19.9171L4.89244 20.329C4.98514 20.3652 5.05519 20.4432 5.08311 20.5387V20.5387C5.11022 20.6314 5.0949 20.7314 5.04004 20.8109L4.37573 21.7736C4.30112 21.8818 4.28551 22.0225 4.33445 22.1454C4.38339 22.2684 4.48993 22.3563 4.6161 22.3778L5.73497 22.5679C5.83208 22.5844 5.91531 22.6464 5.96047 22.734V22.734C6.0037 22.8178 6.00762 22.9165 5.96982 23.0029L5.49412 24.0901C5.44106 24.2114 5.45205 24.3526 5.52315 24.4634C5.59426 24.5742 5.71534 24.6387 5.8432 24.634L6.98444 24.5919C7.08037 24.5884 7.17193 24.6316 7.23146 24.707V24.707C7.28779 24.7782 7.30958 24.871 7.28954 24.9596L7.02407 26.1334C6.99474 26.2631 7.03194 26.3994 7.12239 26.4936C7.21284 26.5877 7.34366 26.6265 7.46817 26.5959L8.58204 26.3226C8.67457 26.2999 8.7722 26.324 8.84458 26.386V26.386C8.91289 26.4445 8.95159 26.5306 8.94853 26.6204L8.90756 27.826C8.90303 27.9592 8.965 28.0853 9.07136 28.1594C9.17772 28.2335 9.31331 28.2449 9.42973 28.1897L10.4656 27.6978C10.5527 27.6565 10.6545 27.6608 10.7387 27.7078V27.7078C10.8185 27.7524 10.8741 27.8308 10.8882 27.9211L11.0736 29.1043C11.0941 29.2357 11.1785 29.3467 11.2966 29.3977C11.4147 29.4486 11.5497 29.4324 11.6535 29.3547L12.576 28.664C12.6528 28.6065 12.7527 28.5904 12.8441 28.6194V28.6194C12.9326 28.6474 13.0037 28.7144 13.0351 28.8018L13.4358 29.9158C13.4806 30.0404 13.5842 30.1321 13.7094 30.1581C13.8347 30.1841 13.9641 30.1408 14.0513 30.0435L14.8281 29.178C14.8913 29.1075 14.9847 29.0723 15.079 29.0819V29.0819C15.1723 29.0914 15.2563 29.1439 15.3042 29.2245L15.9048 30.2347C15.9721 30.3479 16.0908 30.4168 16.2187 30.4168C16.3465 30.4168 16.4654 30.3479 16.5327 30.2347L17.1331 29.2246C17.1811 29.1439 17.2651 29.0914 17.3585 29.0819V29.0819C17.4528 29.0723 17.5462 29.1075 17.6095 29.178L18.386 30.0435C18.4734 30.1408 18.6026 30.1841 18.7279 30.1581C18.8533 30.1321 18.9568 30.0404 19.0016 29.9158L19.4023 28.8019C19.4337 28.7145 19.5047 28.6474 19.5932 28.6194V28.6194C19.6848 28.5904 19.7847 28.6065 19.8616 28.6641L20.7839 29.3547C20.8877 29.4324 21.0227 29.4486 21.1408 29.3977C21.2589 29.3467 21.3433 29.2357 21.3639 29.1043L21.5491 27.9212C21.5633 27.8308 21.6189 27.7524 21.6988 27.7078V27.7078C21.783 27.6608 21.8847 27.6565 21.9719 27.6979L23.0077 28.1897C23.1241 28.2449 23.2597 28.2335 23.3661 28.1594C23.4724 28.0853 23.5344 27.9592 23.5299 27.826L23.4889 26.6204C23.4858 26.5306 23.5245 26.4445 23.5928 26.386V26.386C23.6653 26.3241 23.763 26.2999 23.8556 26.3227L24.9693 26.5959C25.0938 26.6265 25.2246 26.5877 25.315 26.4936C25.4054 26.3994 25.4427 26.2631 25.4134 26.1334L25.1479 24.9596C25.1279 24.871 25.1497 24.7783 25.206 24.707V24.707C25.2655 24.6317 25.357 24.5884 25.4529 24.5919L26.5942 24.634C26.7221 24.6387 26.8432 24.5742 26.9142 24.4634C26.9854 24.3526 26.9964 24.2114 26.9433 24.0901L26.4676 23.0029C26.4298 22.9165 26.4337 22.8178 26.477 22.734V22.734C26.5222 22.6465 26.6054 22.5844 26.7026 22.5679L27.8213 22.3778C27.9475 22.3563 28.054 22.2684 28.103 22.1454C28.1519 22.0225 28.1363 21.8818 28.0617 21.7736L27.3974 20.811C27.3425 20.7315 27.3273 20.6314 27.3544 20.5387V20.5387C27.3823 20.4431 27.4523 20.3652 27.5451 20.329L28.6004 19.9171C28.72 19.8704 28.808 19.7625 28.8329 19.632C28.8579 19.5015 28.8163 19.3669 28.723 19.2759L27.8956 18.4702C27.8253 18.4018 27.7906 18.3051 27.7998 18.2075V18.2075C27.8091 18.1085 27.8626 18.0186 27.9461 17.9647L28.9065 17.3453C29.0152 17.2751 29.0813 17.1514 29.0813 17.0182C29.0813 16.885 29.0152 16.7614 28.9065 16.6912L27.9461 16.0717C27.8626 16.0178 27.8091 15.9279 27.7998 15.8289V15.8289C27.7906 15.7313 27.8253 15.6346 27.8956 15.5662L28.723 14.7606C28.8163 14.6696 28.8579 14.5349 28.8329 14.4044C28.808 14.2739 28.72 14.166 28.6004 14.1193L27.5452 13.7075C27.4525 13.6713 27.3823 13.5933 27.3544 13.4977V13.4977C27.3273 13.405 27.3426 13.3049 27.3975 13.2254L28.0617 12.2628C28.1363 12.1547 28.1519 12.014 28.103 11.891C28.054 11.768 27.9475 11.6801 27.8213 11.6587L26.7025 11.4685C26.6054 11.452 26.5222 11.39 26.4771 11.3025V11.3025C26.4338 11.2186 26.4299 11.1198 26.4677 11.0333L26.9433 9.94635C26.9964 9.82508 26.9854 9.68384 26.9142 9.57305C26.8432 9.46226 26.7221 9.3977 26.5942 9.40242L25.4531 9.4445C25.3572 9.44804 25.2656 9.40478 25.2061 9.32943V9.32943C25.1497 9.25806 25.1279 9.16523 25.1479 9.07652L25.4134 7.90306C25.4427 7.77336 25.4054 7.6371 25.315 7.54287C25.2246 7.44865 25.0938 7.4099 24.9693 7.44046L23.8557 7.71375C23.7631 7.73647 23.6654 7.71234 23.5929 7.65035V7.65035C23.5245 7.59182 23.4858 7.50566 23.4889 7.41569L23.5299 6.21038C23.5344 6.0772 23.4724 5.95106 23.3661 5.877C23.2597 5.80293 23.1241 5.7915 23.0077 5.84677L21.972 6.33846C21.8849 6.37984 21.7831 6.37556 21.6989 6.32849V6.32849C21.6189 6.28383 21.5633 6.20536 21.5491 6.11491L21.3639 4.93217C21.3433 4.80074 21.2589 4.68975 21.1408 4.63877C21.0227 4.58778 20.8877 4.60405 20.7839 4.68177L19.8618 5.37227C19.7849 5.42983 19.6848 5.4459 19.5933 5.41691V5.41691C19.5047 5.38889 19.4337 5.32176 19.4023 5.23438L19.0016 4.12063C18.9568 3.99598 18.8533 3.90435 18.7279 3.87834C18.6026 3.85234 18.4734 3.89568 18.386 3.99291L17.6096 4.8582C17.5463 4.92876 17.4529 4.96398 17.3586 4.95437V4.95437C17.2651 4.94485 17.181 4.89234 17.133 4.81159L16.5327 3.80177ZM16.2014 5.97361C16.4004 5.97897 16.5895 6.06537 16.7284 6.21435C16.8673 6.36332 16.945 6.56312 16.9449 6.77111C16.9449 6.98262 16.8643 7.18547 16.7207 7.33503C16.5772 7.4846 16.3824 7.56862 16.1793 7.56862C15.9763 7.56862 15.7816 7.4846 15.6379 7.33503C15.4944 7.18547 15.4137 6.98262 15.4137 6.77111C15.4137 6.66442 15.4342 6.55878 15.4741 6.46049C15.5139 6.3622 15.5723 6.27325 15.6458 6.19887C15.7192 6.12451 15.8063 6.06625 15.9017 6.02756C15.9972 5.98887 16.0991 5.97052 16.2014 5.97361ZM16.6348 8.59691C17.4601 7.77732 18.6576 7.37682 19.7306 7.82567C20.4201 8.11409 21.0764 8.48731 21.6852 8.93893C22.2845 9.3836 22.83 9.89853 23.3116 10.4722C24.0994 11.4104 24.1242 12.7294 23.6445 13.8567L23.5006 14.1948C23.3455 14.5616 23.5055 14.9923 23.8551 15.1565L25.0022 15.6862C25.3681 15.8551 25.6215 16.2057 25.6341 16.6085C25.635 16.6373 25.6358 16.6661 25.6365 16.6949C25.6489 17.24 25.1905 17.6617 24.6453 17.6617V17.6617C24.5493 17.6617 24.5099 17.7285 24.5099 17.8259V18.2875C24.5099 19.3748 23.9216 19.6133 23.4045 19.6722C22.9123 19.7312 22.3682 19.4568 22.2992 19.144C22.0156 17.4837 21.5488 17.0999 20.8164 16.4978V16.4978C20.79 16.476 20.792 16.4349 20.8205 16.4158C21.7502 15.7909 22.6957 14.8777 22.6957 13.6666C22.6957 12.3306 21.8168 11.4895 21.2185 11.0766C20.3767 10.4996 19.446 10.3842 19.195 10.3842H14.1516C12.2079 10.3842 11.4077 8.25513 13.2442 7.61833V7.61833C13.9934 7.3585 14.7978 7.64339 15.3334 8.2282L15.65 8.57384C15.9159 8.86361 16.3566 8.87642 16.6348 8.59691V8.59691ZM7.07334 13.1896C7.27252 13.1956 7.46161 13.2823 7.60044 13.4312C7.73925 13.5801 7.81687 13.7795 7.81679 13.9871C7.81679 14.1986 7.73613 14.4015 7.59254 14.551C7.44897 14.7007 7.25423 14.7847 7.05118 14.7847C6.84813 14.7847 6.6534 14.7007 6.50982 14.551C6.36625 14.4015 6.28558 14.1986 6.28558 13.9871C6.28553 13.8804 6.30605 13.7748 6.34591 13.6765C6.38576 13.5782 6.44414 13.4892 6.5176 13.4149C6.59106 13.3405 6.67809 13.2823 6.77355 13.2436C6.86901 13.2049 6.97096 13.1865 7.07334 13.1896ZM25.3272 13.2255C25.5263 13.2315 25.7154 13.3182 25.8543 13.4671C25.9931 13.616 26.0707 13.8154 26.0707 14.023C26.0707 14.2345 25.99 14.4374 25.8464 14.5869C25.7028 14.7364 25.5081 14.8206 25.3051 14.8206C25.102 14.8206 24.9073 14.7364 24.7637 14.5869C24.6202 14.4374 24.5394 14.2345 24.5394 14.023C24.5394 13.9163 24.56 13.8107 24.5997 13.7124C24.6396 13.6141 24.698 13.5251 24.7714 13.4508C24.8449 13.3764 24.932 13.3182 25.0274 13.2795C25.1228 13.2408 25.2248 13.2224 25.3272 13.2255ZM8.83074 14.0928C8.68155 13.7425 8.93855 13.3537 9.31923 13.3537V13.3537C9.61247 13.3537 9.85019 13.5914 9.85019 13.8847V18.0936C9.85019 18.9371 9.16638 19.6209 8.32286 19.6209V19.6209C7.63446 19.6209 7.0191 19.1616 6.91475 18.4812C6.86414 18.1511 6.82976 17.8187 6.81172 17.4852C6.7577 16.4865 7.40767 15.6169 8.31518 15.1964L8.50116 15.1103C8.85319 14.9461 9.0132 14.5179 8.85564 14.1512L8.83074 14.0928ZM14.0832 14.3436C14.0838 13.8335 14.4975 13.4204 15.0076 13.4204H17.2625C17.4275 13.4204 18.4221 13.6179 18.4221 14.3949C18.4221 15.0384 17.6589 15.2693 17.0311 15.2693H15.0076C14.4966 15.2693 14.0825 14.8547 14.0832 14.3436V14.3436ZM14.0832 18.8209C14.0838 18.325 14.4861 17.9233 14.982 17.9233H16.519C16.7406 17.9233 17.708 17.99 18.0158 19.2773C18.0497 19.4167 18.0983 19.6674 18.1535 19.9514C18.2544 20.4721 18.3773 21.1053 18.4712 21.3724C18.6165 21.8339 19.2049 22.7571 19.8326 22.7571H22.7463C23.1893 22.7571 23.4383 23.2537 23.1426 23.5835V23.5835C23.0154 23.7255 22.8207 23.783 22.6346 23.7414L21.317 23.4469C20.9404 23.3623 20.5687 23.6135 20.4874 24.006V24.006C20.2456 25.1812 19.4754 26.2253 18.3079 26.5022C17.6091 26.668 16.8924 26.7506 16.1716 26.7471C15.4506 26.7436 14.7345 26.6539 14.0371 26.4812C12.871 26.1924 12.106 25.1442 11.8639 23.9675V23.9675C11.7827 23.5751 11.4134 23.3239 11.0368 23.4084L9.7432 23.6976C9.56398 23.7376 9.37654 23.6808 9.2556 23.5426V23.5426C8.9792 23.2268 9.21685 22.7571 9.63654 22.7571H16.3344C16.4206 22.7571 16.4797 22.7417 16.4797 22.6571V19.8209C16.4797 19.7389 16.4206 19.721 16.3344 19.721H14.982C14.4851 19.721 14.0825 19.3178 14.0832 18.8209V18.8209ZM10.5321 24.4188C10.7313 24.4248 10.9204 24.5115 11.0592 24.6604C11.198 24.8092 11.2756 25.0087 11.2755 25.2163C11.2755 25.4278 11.1949 25.6307 11.0513 25.7802C10.9077 25.9297 10.713 26.0138 10.5099 26.0138C10.3069 26.0138 10.1122 25.9297 9.96858 25.7802C9.825 25.6307 9.74433 25.4278 9.74433 25.2163C9.7443 25.1096 9.76481 25.0039 9.80466 24.9057C9.84451 24.8073 9.90289 24.7184 9.97635 24.644C10.0498 24.5697 10.1369 24.5114 10.2323 24.4728C10.3278 24.4341 10.4297 24.4157 10.5321 24.4188ZM21.8685 24.4547C22.0676 24.4607 22.2568 24.5474 22.3956 24.6963C22.5344 24.8451 22.6119 25.0446 22.6119 25.2522C22.6119 25.4637 22.5313 25.6666 22.3876 25.8161C22.2441 25.9657 22.0493 26.0497 21.8463 26.0497C21.6432 26.0497 21.4485 25.9657 21.305 25.8161C21.1614 25.6666 21.0808 25.4637 21.0808 25.2522C21.0806 25.1455 21.1012 25.0398 21.141 24.9416C21.1808 24.8433 21.2392 24.7543 21.3127 24.6799C21.3861 24.6056 21.4732 24.5473 21.5686 24.5087C21.6641 24.47 21.7661 24.4516 21.8685 24.4547Z" fill="#FE640B"/>
</svg>
