<svg width="33" height="34" viewBox="0 0 33 34" fill="none" xmlns="http://www.w3.org/2000/svg">
<path fill-rule="evenodd" clip-rule="evenodd" d="M17.0325 3.80177C16.9653 3.68852 16.8464 3.61963 16.7186 3.61963C16.5907 3.61963 16.472 3.68852 16.4047 3.80177L15.8043 4.81156C15.7563 4.89231 15.6722 4.94482 15.5787 4.95434V4.95434C15.4844 4.96394 15.3911 4.92872 15.3278 4.85818L14.5512 3.99291C14.464 3.89568 14.3346 3.85234 14.2093 3.87834C14.084 3.90435 13.9805 3.99598 13.9357 4.12063L13.5352 5.23394C13.5038 5.32142 13.4326 5.38862 13.3439 5.41667V5.41667C13.2523 5.44568 13.1522 5.42959 13.0752 5.37197L12.1534 4.68177C12.0496 4.60405 11.9146 4.58778 11.7965 4.63877C11.6784 4.68976 11.594 4.80074 11.5734 4.93217L11.3883 6.11396C11.3741 6.20462 11.3183 6.28328 11.2382 6.32804V6.32804C11.1538 6.37522 11.0518 6.37951 10.9644 6.33803L9.92961 5.84677C9.81319 5.7915 9.6776 5.80293 9.57124 5.877C9.46488 5.95106 9.40291 6.0772 9.40743 6.21038L9.44837 7.41453C9.45143 7.50473 9.41258 7.59112 9.34402 7.6498V7.6498C9.27134 7.712 9.17331 7.73624 9.08041 7.71344L7.96805 7.44046C7.84354 7.4099 7.71272 7.44865 7.62227 7.54287C7.53182 7.6371 7.49462 7.77336 7.52394 7.90306L7.78909 9.07537C7.80921 9.16434 7.78732 9.25745 7.73078 9.32902V9.32902C7.67107 9.4046 7.5792 9.44801 7.48295 9.44446L6.34308 9.40242C6.21522 9.3977 6.09413 9.46226 6.02303 9.57305C5.95192 9.68384 5.94094 9.82508 5.994 9.94635L6.46928 11.0326C6.50718 11.1192 6.50324 11.2182 6.4599 11.3023V11.3023C6.41465 11.39 6.33126 11.4521 6.23396 11.4687L5.11598 11.6587C4.98981 11.6801 4.88327 11.768 4.83433 11.891C4.78539 12.014 4.801 12.1547 4.8756 12.2628L5.53964 13.2251C5.59456 13.3047 5.60991 13.4048 5.58279 13.4977V13.4977C5.55484 13.5933 5.48469 13.6714 5.39184 13.7076L4.3369 14.1193C4.21726 14.166 4.12928 14.2739 4.10432 14.4044C4.07936 14.5349 4.12095 14.6696 4.2143 14.7606L5.04178 15.5663C5.11201 15.6347 5.14673 15.7313 5.13755 15.8289V15.8289C5.12824 15.9278 5.0748 16.0177 4.99131 16.0716L4.0308 16.6912C3.9221 16.7614 3.85596 16.885 3.85596 17.0182C3.85596 17.1514 3.9221 17.2751 4.0308 17.3453L4.99134 17.9649C5.07484 18.0187 5.12828 18.1086 5.13759 18.2075V18.2075C5.14677 18.3051 5.11205 18.4018 5.04181 18.4702L4.2143 19.2759C4.12095 19.3669 4.07936 19.5015 4.10432 19.632C4.12928 19.7625 4.21726 19.8704 4.3369 19.9171L5.39232 20.329C5.48502 20.3652 5.55507 20.4432 5.58299 20.5387V20.5387C5.61009 20.6314 5.59478 20.7314 5.53992 20.8109L4.8756 21.7736C4.801 21.8818 4.78539 22.0225 4.83433 22.1454C4.88327 22.2684 4.98981 22.3563 5.11598 22.3778L6.23485 22.5679C6.33196 22.5844 6.41518 22.6464 6.46034 22.734V22.734C6.50358 22.8178 6.5075 22.9165 6.4697 23.0029L5.994 24.0901C5.94094 24.2114 5.95192 24.3526 6.02303 24.4634C6.09413 24.5742 6.21522 24.6387 6.34308 24.634L7.48431 24.5919C7.58025 24.5884 7.67181 24.6316 7.73133 24.707V24.707C7.78766 24.7782 7.80946 24.871 7.78941 24.9596L7.52394 26.1334C7.49462 26.2631 7.53182 26.3994 7.62227 26.4936C7.71272 26.5877 7.84354 26.6265 7.96805 26.5959L9.08191 26.3226C9.17445 26.2999 9.27208 26.324 9.34446 26.386V26.386C9.41277 26.4445 9.45146 26.5306 9.44841 26.6204L9.40743 27.826C9.40291 27.9592 9.46488 28.0853 9.57124 28.1594C9.6776 28.2335 9.81319 28.2449 9.92961 28.1897L10.9655 27.6978C11.0526 27.6565 11.1544 27.6608 11.2386 27.7078V27.7078C11.3184 27.7524 11.374 27.8308 11.3881 27.9211L11.5734 29.1043C11.594 29.2357 11.6784 29.3467 11.7965 29.3977C11.9146 29.4486 12.0496 29.4324 12.1534 29.3547L13.0759 28.664C13.1527 28.6065 13.2526 28.5904 13.344 28.6194V28.6194C13.4325 28.6474 13.5036 28.7144 13.535 28.8018L13.9357 29.9158C13.9805 30.0404 14.084 30.1321 14.2093 30.1581C14.3346 30.1841 14.464 30.1408 14.5512 30.0435L15.3279 29.178C15.3912 29.1075 15.4846 29.0723 15.5789 29.0819V29.0819C15.6722 29.0914 15.7562 29.1439 15.8041 29.2245L16.4047 30.2347C16.472 30.3479 16.5907 30.4168 16.7186 30.4168C16.8464 30.4168 16.9653 30.3479 17.0325 30.2347L17.633 29.2246C17.6809 29.1439 17.765 29.0914 17.8584 29.0819V29.0819C17.9527 29.0723 18.046 29.1075 18.1093 29.178L18.8859 30.0435C18.9733 30.1408 19.1025 30.1841 19.2278 30.1581C19.3532 30.1321 19.4566 30.0404 19.5015 29.9158L19.9022 28.8019C19.9336 28.7145 20.0046 28.6474 20.0931 28.6194V28.6194C20.1846 28.5904 20.2846 28.6065 20.3615 28.6641L21.2838 29.3547C21.3876 29.4324 21.5226 29.4486 21.6407 29.3977C21.7588 29.3467 21.8432 29.2357 21.8637 29.1043L22.049 27.9212C22.0632 27.8308 22.1188 27.7524 22.1987 27.7078V27.7078C22.2829 27.6608 22.3846 27.6565 22.4718 27.6979L23.5076 28.1897C23.624 28.2449 23.7596 28.2335 23.8659 28.1594C23.9723 28.0853 24.0343 27.9592 24.0298 27.826L23.9887 26.6204C23.9857 26.5306 24.0244 26.4445 24.0927 26.386V26.386C24.1652 26.3241 24.2629 26.2999 24.3554 26.3227L25.4691 26.5959C25.5937 26.6265 25.7245 26.5877 25.8149 26.4936C25.9053 26.3994 25.9426 26.2631 25.9133 26.1334L25.6478 24.9596C25.6277 24.871 25.6496 24.7783 25.7059 24.707V24.707C25.7654 24.6317 25.8569 24.5884 25.9528 24.5919L27.0941 24.634C27.2219 24.6387 27.3431 24.5742 27.4141 24.4634C27.4852 24.3526 27.4963 24.2114 27.4432 24.0901L26.9675 23.0029C26.9297 22.9165 26.9336 22.8178 26.9768 22.734V22.734C27.022 22.6465 27.1053 22.5844 27.2025 22.5679L28.3212 22.3778C28.4474 22.3563 28.5539 22.2684 28.6029 22.1454C28.6517 22.0225 28.6362 21.8818 28.5616 21.7736L27.8973 20.811C27.8424 20.7315 27.8271 20.6314 27.8542 20.5387V20.5387C27.8822 20.4431 27.9522 20.3652 28.0449 20.329L29.1003 19.9171C29.2199 19.8704 29.3079 19.7625 29.3328 19.632C29.3578 19.5015 29.3162 19.3669 29.2228 19.2759L28.3954 18.4702C28.3252 18.4018 28.2904 18.3051 28.2996 18.2075V18.2075C28.309 18.1085 28.3624 18.0186 28.446 17.9647L29.4064 17.3453C29.5151 17.2751 29.5812 17.1514 29.5812 17.0182C29.5812 16.885 29.5151 16.7614 29.4064 16.6912L28.446 16.0717C28.3624 16.0178 28.309 15.9279 28.2996 15.8289V15.8289C28.2904 15.7313 28.3252 15.6346 28.3954 15.5662L29.2228 14.7606C29.3162 14.6696 29.3578 14.5349 29.3328 14.4044C29.3079 14.2739 29.2199 14.166 29.1003 14.1193L28.0451 13.7075C27.9523 13.6713 27.8822 13.5933 27.8543 13.4977V13.4977C27.8272 13.405 27.8425 13.3049 27.8974 13.2254L28.5616 12.2628C28.6362 12.1547 28.6517 12.014 28.6029 11.891C28.5539 11.768 28.4474 11.6801 28.3212 11.6587L27.2024 11.4685C27.1053 11.452 27.0221 11.39 26.9769 11.3025V11.3025C26.9337 11.2186 26.9298 11.1198 26.9676 11.0333L27.4432 9.94635C27.4963 9.82508 27.4852 9.68384 27.4141 9.57305C27.3431 9.46226 27.2219 9.3977 27.0941 9.40242L25.953 9.4445C25.8571 9.44804 25.7655 9.40478 25.7059 9.32943V9.32943C25.6496 9.25806 25.6277 9.16523 25.6478 9.07652L25.9133 7.90306C25.9426 7.77336 25.9053 7.6371 25.8149 7.54287C25.7245 7.44865 25.5937 7.4099 25.4691 7.44046L24.3556 7.71375C24.263 7.73647 24.1652 7.71234 24.0928 7.65035V7.65035C24.0244 7.59182 23.9857 7.50566 23.9887 7.41569L24.0298 6.21038C24.0343 6.0772 23.9723 5.95106 23.8659 5.877C23.7596 5.80293 23.624 5.7915 23.5076 5.84677L22.4719 6.33846C22.3847 6.37984 22.283 6.37556 22.1987 6.32849V6.32849C22.1188 6.28383 22.0632 6.20536 22.049 6.11491L21.8637 4.93217C21.8432 4.80074 21.7588 4.68975 21.6407 4.63877C21.5226 4.58778 21.3876 4.60405 21.2838 4.68177L20.3616 5.37227C20.2848 5.42983 20.1847 5.4459 20.0931 5.41691V5.41691C20.0046 5.38889 19.9336 5.32176 19.9021 5.23438L19.5015 4.12063C19.4566 3.99598 19.3532 3.90435 19.2278 3.87834C19.1025 3.85234 18.9733 3.89568 18.8859 3.99291L18.1095 4.8582C18.0462 4.92876 17.9528 4.96398 17.8584 4.95437V4.95437C17.765 4.94485 17.6809 4.89234 17.6329 4.81159L17.0325 3.80177ZM16.7013 5.97361C16.9003 5.97897 17.0894 6.06537 17.2283 6.21435C17.3672 6.36332 17.4449 6.56312 17.4448 6.77111C17.4448 6.98262 17.3641 7.18547 17.2206 7.33503C17.077 7.4846 16.8823 7.56862 16.6792 7.56862C16.4762 7.56862 16.2815 7.4846 16.1378 7.33503C15.9943 7.18547 15.9136 6.98262 15.9136 6.77111C15.9136 6.66442 15.9341 6.55878 15.9739 6.46049C16.0138 6.3622 16.0722 6.27325 16.1457 6.19887C16.2191 6.12451 16.3062 6.06625 16.4016 6.02756C16.4971 5.98887 16.5989 5.97052 16.7013 5.97361ZM17.1347 8.59691C17.9599 7.77732 19.1575 7.37682 20.2305 7.82567C20.92 8.11409 21.5763 8.48731 22.1851 8.93893C22.7844 9.3836 23.3299 9.89853 23.8115 10.4722C24.5992 11.4104 24.624 12.7294 24.1444 13.8567L24.0005 14.1948C23.8454 14.5616 24.0054 14.9923 24.355 15.1565L25.5021 15.6862C25.868 15.8551 26.1214 16.2057 26.134 16.6085C26.1349 16.6373 26.1357 16.6661 26.1363 16.6949C26.1488 17.24 25.6904 17.6617 25.1451 17.6617V17.6617C25.0492 17.6617 25.0098 17.7285 25.0098 17.8259V18.2875C25.0098 19.3748 24.4215 19.6133 23.9044 19.6722C23.4121 19.7312 22.8681 19.4568 22.7991 19.144C22.5155 17.4837 22.0487 17.0999 21.3163 16.4978V16.4978C21.2899 16.476 21.2919 16.4349 21.3203 16.4158C22.25 15.7909 23.1955 14.8777 23.1955 13.6666C23.1955 12.3306 22.3166 11.4895 21.7184 11.0766C20.8765 10.4996 19.9459 10.3842 19.6948 10.3842H14.6515C12.7078 10.3842 11.9076 8.25513 13.744 7.61833V7.61833C14.4933 7.3585 15.2976 7.64339 15.8333 8.2282L16.1499 8.57384C16.4158 8.86361 16.8564 8.87642 17.1347 8.59691V8.59691ZM7.57322 13.1896C7.7724 13.1956 7.96149 13.2823 8.10032 13.4312C8.23913 13.5801 8.31675 13.7795 8.31667 13.9871C8.31667 14.1986 8.23601 14.4015 8.09242 14.551C7.94885 14.7007 7.75411 14.7847 7.55106 14.7847C7.34801 14.7847 7.15328 14.7007 7.0097 14.551C6.86612 14.4015 6.78546 14.1986 6.78546 13.9871C6.78541 13.8804 6.80593 13.7748 6.84579 13.6765C6.88564 13.5782 6.94402 13.4892 7.01748 13.4149C7.09094 13.3405 7.17797 13.2823 7.27343 13.2436C7.36889 13.2049 7.47083 13.1865 7.57322 13.1896ZM25.8271 13.2255C26.0262 13.2315 26.2153 13.3182 26.3542 13.4671C26.493 13.616 26.5706 13.8154 26.5706 14.023C26.5706 14.2345 26.4899 14.4374 26.3462 14.5869C26.2027 14.7364 26.008 14.8206 25.805 14.8206C25.6019 14.8206 25.4071 14.7364 25.2636 14.5869C25.12 14.4374 25.0393 14.2345 25.0393 14.023C25.0393 13.9163 25.0599 13.8107 25.0996 13.7124C25.1395 13.6141 25.1979 13.5251 25.2713 13.4508C25.3448 13.3764 25.4318 13.3182 25.5273 13.2795C25.6227 13.2408 25.7247 13.2224 25.8271 13.2255ZM9.33062 14.0928C9.18143 13.7425 9.43842 13.3537 9.81911 13.3537V13.3537C10.1124 13.3537 10.3501 13.5914 10.3501 13.8847V18.0936C10.3501 18.9371 9.66626 19.6209 8.82274 19.6209V19.6209C8.13434 19.6209 7.51898 19.1616 7.41463 18.4812C7.36402 18.1511 7.32964 17.8187 7.3116 17.4852C7.25758 16.4865 7.90755 15.6169 8.81506 15.1964L9.00104 15.1103C9.35306 14.9461 9.51307 14.5179 9.35552 14.1512L9.33062 14.0928ZM14.583 14.3436C14.5837 13.8335 14.9974 13.4204 15.5075 13.4204H17.7624C17.9274 13.4204 18.9219 13.6179 18.9219 14.3949C18.9219 15.0384 18.1588 15.2693 17.531 15.2693H15.5075C14.9965 15.2693 14.5824 14.8547 14.583 14.3436V14.3436ZM14.583 18.8209C14.5837 18.325 14.9859 17.9233 15.4819 17.9233H17.0189C17.2405 17.9233 18.2079 17.99 18.5157 19.2773C18.5496 19.4167 18.5982 19.6674 18.6534 19.9514C18.7543 20.4721 18.8772 21.1053 18.9711 21.3724C19.1164 21.8339 19.7047 22.7571 20.3324 22.7571H23.2462C23.6892 22.7571 23.9382 23.2537 23.6425 23.5835V23.5835C23.5153 23.7255 23.3205 23.783 23.1345 23.7414L21.8169 23.4469C21.4403 23.3623 21.0686 23.6135 20.9873 24.006V24.006C20.7455 25.1812 19.9753 26.2253 18.8078 26.5022C18.109 26.668 17.3923 26.7506 16.6715 26.7471C15.9505 26.7436 15.2344 26.6539 14.537 26.4812C13.3708 26.1924 12.6058 25.1442 12.3638 23.9675V23.9675C12.2825 23.5751 11.9133 23.3239 11.5366 23.4084L10.2431 23.6976C10.0639 23.7376 9.87642 23.6808 9.75548 23.5426V23.5426C9.47908 23.2268 9.71673 22.7571 10.1364 22.7571H16.8343C16.9205 22.7571 16.9795 22.7417 16.9795 22.6571V19.8209C16.9795 19.7389 16.9205 19.721 16.8343 19.721H15.4819C14.985 19.721 14.5824 19.3178 14.583 18.8209V18.8209ZM11.032 24.4188C11.2312 24.4248 11.4203 24.5115 11.5591 24.6604C11.6979 24.8092 11.7755 25.0087 11.7754 25.2163C11.7754 25.4278 11.6948 25.6307 11.5512 25.7802C11.4076 25.9297 11.2129 26.0138 11.0098 26.0138C10.8068 26.0138 10.612 25.9297 10.4685 25.7802C10.3249 25.6307 10.2442 25.4278 10.2442 25.2163C10.2442 25.1096 10.2647 25.0039 10.3045 24.9057C10.3444 24.8073 10.4028 24.7184 10.4762 24.644C10.5497 24.5697 10.6367 24.5114 10.7322 24.4728C10.8276 24.4341 10.9296 24.4157 11.032 24.4188ZM22.3683 24.4547C22.5675 24.4607 22.7567 24.5474 22.8955 24.6963C23.0342 24.8451 23.1118 25.0446 23.1118 25.2522C23.1118 25.4637 23.0312 25.6666 22.8875 25.8161C22.7439 25.9657 22.5492 26.0497 22.3462 26.0497C22.1431 26.0497 21.9484 25.9657 21.8048 25.8161C21.6613 25.6666 21.5806 25.4637 21.5806 25.2522C21.5805 25.1455 21.6011 25.0398 21.6408 24.9416C21.6807 24.8433 21.7391 24.7543 21.8125 24.6799C21.886 24.6056 21.9731 24.5473 22.0685 24.5087C22.164 24.47 22.266 24.4516 22.3683 24.4547Z" fill="#fe640b"/>
</svg>
