<svg width="33" height="34" viewBox="0 0 33 34" fill="none" xmlns="http://www.w3.org/2000/svg">
<path fill-rule="evenodd" clip-rule="evenodd" d="M8.5376 13.9341C8.74797 14.2241 10.5219 14.7711 13.168 15.3407C15.8141 15.848 18.566 17.8504 20.706 17.233C22.1536 16.8145 23.7241 13.0858 23.7241 12.5321V12.4752C23.7241 12.0886 23.434 11.7781 22.9417 11.52C20.9232 10.4886 20.5412 10.1088 19.7929 10.3146C15.9085 11.387 9.05046 10.8389 8.5376 13.9341Z" fill="#7F849C"/>
<path fill-rule="evenodd" clip-rule="evenodd" d="M8.5376 21.5054C8.74797 21.7999 10.5219 22.3424 13.168 22.9132C16.1245 23.4522 18.6956 25.209 20.8368 24.5904C22.2844 24.172 23.7241 20.6583 23.7241 20.1034V20.0488C23.7241 19.6632 23.434 19.3517 22.9417 19.0947C21.402 18.2759 19.3676 17.3742 18.6205 17.58C14.7293 18.6502 9.52805 18.8854 8.5376 21.5054Z" fill="#7F849C"/>
<path fill-rule="evenodd" clip-rule="evenodd" d="M20.8308 6.42369C17.2534 7.45735 11.578 8.0407 8.52026 8.0407V13.8799C8.52123 13.9 8.52883 13.9192 8.54186 13.9345C10.6285 13.9345 17.0704 13.2522 20.9571 12.1833C21.6349 12.0107 22.2996 11.79 22.9459 11.5226C23.4212 11.3088 23.7283 11.0837 23.7283 10.8494V4.96021C23.7237 5.51512 22.2784 6.00637 20.8308 6.42369Z" fill="#d20f39"/>
<path fill-rule="evenodd" clip-rule="evenodd" d="M20.8308 13.9967C18.6896 14.6142 15.8002 15.0736 13.1677 15.342C11.4006 15.5227 9.7495 15.6171 8.52026 15.6171V21.4517C8.52123 21.4718 8.52883 21.491 8.54186 21.5063C10.6285 21.5063 17.0704 20.824 20.9571 19.7563C21.6348 19.5832 22.2993 19.3625 22.9459 19.0956C23.4212 18.8807 23.7283 18.6567 23.7283 18.4225V12.5332C23.7237 13.087 22.2784 13.5782 20.8308 13.9967Z" fill="#d20f39"/>
<path fill-rule="evenodd" clip-rule="evenodd" d="M20.8313 21.5717C18.69 22.1892 15.8006 22.6475 13.1681 22.9169C11.3987 23.0978 9.74535 23.1921 8.51611 23.1921V29.0768C10.5811 29.0768 17.056 28.4001 20.9529 27.3268C22.3891 26.931 23.7242 26.4807 23.7242 25.9918V20.1025C23.7242 20.6621 22.2789 21.1487 20.8313 21.5717Z" fill="#d20f39"/>
</svg>
