<svg width="33" height="33" viewBox="0 0 33 33" fill="none" xmlns="http://www.w3.org/2000/svg">
<mask id="mask0_2_878" style="mask-type:alpha" maskUnits="userSpaceOnUse" x="7" y="4" width="20" height="25">
<path d="M7.95966 26.3418L7.21254 6.43476C7.18787 5.7773 7.69198 5.22012 8.34862 5.17908L25.2809 4.12081C25.9494 4.07905 26.525 4.587 26.5668 5.25537C26.5684 5.28056 26.5692 5.30578 26.5692 5.33101V27.0233C26.5692 27.6929 26.0263 28.2359 25.3566 28.2359C25.3384 28.2359 25.3203 28.2355 25.3022 28.2347L9.11696 27.5076C8.48661 27.4794 7.98332 26.9724 7.95966 26.3418Z" fill="#d20f39"/>
</mask>
<g mask="url(#mask0_2_878)">
<path fill-rule="evenodd" clip-rule="evenodd" d="M7.21254 6.43476L7.95966 26.3418C7.98332 26.9724 8.48661 27.4794 9.11696 27.5076L25.3022 28.2347C25.3203 28.2355 25.3384 28.2359 25.3566 28.2359C26.0263 28.2359 26.5692 27.6929 26.5692 27.0233V5.33101C26.5692 5.30578 26.5684 5.28056 26.5668 5.25537C26.525 4.587 25.9494 4.07905 25.2809 4.12081L23.9497 4.20401L24.0469 6.9871C24.0504 7.08693 23.9723 7.17069 23.8725 7.17419C23.8297 7.17567 23.7878 7.16197 23.7542 7.1355L22.8574 6.42909L21.7958 7.23445C21.7163 7.29483 21.6028 7.27924 21.5423 7.19966C21.5169 7.16616 21.504 7.12485 21.5058 7.08283L21.6194 4.34967L8.34862 5.17908C7.69198 5.22012 7.18787 5.7773 7.21254 6.43476ZM18.5319 13.2086C18.5319 13.6803 21.7096 13.4543 22.1362 13.1229C22.1362 9.91032 20.4124 8.22218 17.2559 8.22218C14.0993 8.22218 12.3307 9.93658 12.3307 12.5082C12.3307 15.0845 14.3305 16.2071 16.0296 17.1611C17.2844 17.8656 18.3752 18.4781 18.3752 19.5159C18.3752 20.2017 18.0394 20.6088 17.3006 20.6088C16.3379 20.6088 15.9574 20.1173 16.0022 18.4456C16.0022 18.0831 12.3307 17.97 12.2188 18.4456C11.9338 22.4964 14.4574 23.6648 17.3454 23.6648C20.1438 23.6648 22.3377 22.1733 22.3377 19.4731C22.3377 16.6559 20.225 15.5363 18.4794 14.6112C17.2505 13.9599 16.2037 13.4052 16.2037 12.4225C16.2037 11.4581 16.9201 11.3296 17.3454 11.3296C17.7931 11.3296 18.5991 11.4085 18.5319 13.2086Z" fill="#d20f39"/>
</g>
</svg>
