<svg width="33" height="33" viewBox="0 0 33 33" fill="none" xmlns="http://www.w3.org/2000/svg">
<path fill-rule="evenodd" clip-rule="evenodd" d="M17.2145 28.1708C17.215 28.1708 17.2155 28.1705 17.2156 28.17C19.8912 18.5432 19.8852 18.2516 21.7173 11.7309C21.7929 11.4618 22.1029 11.3338 22.3445 11.4743V11.4743C22.6042 11.6245 22.8163 11.5008 22.8163 11.2005V8.2585C22.8163 7.98178 22.8546 7.70607 22.9302 7.43987C23.1427 6.69158 23.3332 6.02438 23.4886 5.48053C23.7185 4.67549 24.4554 4.11841 25.2927 4.11841V4.11841C25.7646 4.11841 26.2189 4.29736 26.564 4.61917L28.4191 6.34909C29.0503 6.93765 29.0241 7.95079 28.3729 8.51712V8.51712C27.7642 9.04651 27.7046 9.98078 28.2506 10.5746V10.5746C28.7054 11.0692 28.7553 11.8135 28.3706 12.3644L17.3329 28.1708C17.2756 28.2651 17.1966 28.2444 17.2134 28.1717C17.2135 28.1712 17.214 28.1708 17.2145 28.1708V28.1708Z" fill="#8839EF"/>
<path fill-rule="evenodd" clip-rule="evenodd" d="M18.4926 6.87052C18.5986 6.87052 18.6844 6.92882 18.6844 7.00302V8.72541C18.6844 8.79607 18.6049 8.85612 18.4988 8.85612H15.6106C15.5046 8.85612 15.4162 8.79696 15.4162 8.72364V7.00125C15.4162 6.92882 15.5046 6.87052 15.6106 6.87052H18.4988H18.4926ZM22.0526 4.96309C22.0538 4.96299 22.0543 4.96456 22.0533 4.96515L19.0577 6.70525C18.9607 6.76157 18.9387 6.8909 18.9387 7.00302V7.00302V8.72541V8.72541C18.9387 8.85835 18.9511 9.02316 19.0661 9.08997L22.0478 10.8232C22.2598 10.9513 22.4454 10.847 22.4454 10.5935V5.19495C22.4454 4.94225 22.2622 4.83772 22.052 4.96103C22.051 4.96162 22.0515 4.9632 22.0526 4.96309V4.96309ZM15.1565 8.72541V7.00302V7.00302C15.1565 6.89069 15.1342 6.76185 15.037 6.70543L12.0368 4.96264C11.8186 4.83633 11.6393 4.94056 11.6393 5.19406V10.5909C11.6393 10.847 11.8178 10.9442 12.0368 10.8205L15.022 9.08772C15.1404 9.01897 15.1557 8.85528 15.1557 8.71833V8.71833L15.1565 8.72541Z" fill="#8839EF"/>
<path fill-rule="evenodd" clip-rule="evenodd" d="M16.7544 28.1681C16.7548 28.1697 16.7563 28.1709 16.7581 28.1709H16.7987C16.8363 28.1709 16.8629 28.133 16.8528 28.0968C14.1977 18.5416 14.199 18.2351 12.3723 11.731C12.2967 11.4619 11.9867 11.3339 11.7452 11.4744V11.4744C11.4855 11.6245 11.2726 11.5009 11.2726 11.2006V8.26039C11.2726 7.98246 11.2339 7.70556 11.1577 7.4383C10.9431 6.68625 10.7509 6.01621 10.5941 5.47094C10.3637 4.66911 9.62953 4.1167 8.79524 4.1167V4.1167C8.32173 4.1167 7.86588 4.29646 7.51982 4.61965L5.66912 6.34804C5.03858 6.93691 5.06511 7.94974 5.716 8.51605V8.51605C6.32457 9.04554 6.38429 9.97987 5.83829 10.5737V10.5737C5.38343 11.0684 5.33352 11.8127 5.71828 12.3637L16.7538 28.1669C16.7541 28.1672 16.7542 28.1676 16.7544 28.1681V28.1681Z" fill="#8839EF"/>
<path d="M16.957 12.4507C17.436 12.4507 17.8243 12.06 17.8243 11.578C17.8243 11.096 17.436 10.7053 16.957 10.7053C16.478 10.7053 16.0896 11.096 16.0896 11.578C16.0896 12.06 16.478 12.4507 16.957 12.4507Z" fill="#8839EF"/>
<path d="M16.957 17.642C17.436 17.642 17.8243 17.2513 17.8243 16.7694C17.8243 16.2874 17.436 15.8967 16.957 15.8967C16.478 15.8967 16.0895 16.2874 16.0895 16.7694C16.0895 17.2513 16.478 17.642 16.957 17.642Z" fill="#8839EF"/>
<path d="M16.957 22.8316C17.436 22.8316 17.8243 22.4408 17.8243 21.9588C17.8243 21.4769 17.436 21.0862 16.957 21.0862C16.478 21.0862 16.0895 21.4769 16.0895 21.9588C16.0895 22.4408 16.478 22.8316 16.957 22.8316Z" fill="#8839EF"/>
</svg>
