<svg width="34" height="33" viewBox="0 0 34 33" fill="none" xmlns="http://www.w3.org/2000/svg">
<mask id="mask0_145_1088" style="mask-type:luminance" maskUnits="userSpaceOnUse" x="6" y="2" width="23" height="28">
<path d="M28.1324 2.7749H6.26587V29.5721H28.1324V2.7749Z" fill="#CDD6F4"/>
<path d="M14.9795 26.7261C14.0029 26.9906 12.9719 26.9365 12.0258 26.5711C11.0796 26.2059 10.2639 25.5468 9.68868 24.6833C9.33567 24.1684 9.08488 23.5854 8.95104 22.9682C8.81719 22.3511 8.80297 21.7124 8.90922 21.0895C8.94517 20.885 8.9947 20.6834 9.05745 20.486L9.17427 20.1142L9.49239 20.3574C10.2264 20.9195 11.0471 21.347 11.9193 21.6213L12.1498 21.6942L12.1286 21.9341C12.1006 22.275 12.1894 22.6152 12.3792 22.8946C12.5524 23.1549 12.7981 23.3536 13.0832 23.4637C13.3683 23.5739 13.679 23.5902 13.9733 23.5103C14.108 23.4731 14.2363 23.4145 14.354 23.337L20.5597 19.2162C20.7117 19.1167 20.8418 18.9852 20.9423 18.8302C21.0427 18.6753 21.111 18.5004 21.1429 18.3164C21.1747 18.1285 21.1703 17.936 21.1299 17.75C21.0896 17.5641 21.0141 17.3883 20.9078 17.233C20.7346 16.9726 20.4889 16.7739 20.2037 16.6638C19.9187 16.5535 19.608 16.5371 19.3136 16.6166C19.1791 16.6539 19.0507 16.7124 18.933 16.7902L16.5649 18.3626C16.1751 18.6205 15.7499 18.8149 15.3038 18.9392C14.3272 19.2036 13.2962 19.1495 12.35 18.7843C11.4039 18.4189 10.5881 17.7598 10.013 16.8961C9.65987 16.3814 9.40901 15.7984 9.27511 15.1813C9.14122 14.5641 9.127 13.9254 9.23328 13.3025C9.33874 12.6917 9.56541 12.1106 9.89878 11.5964C10.2322 11.0821 10.6649 10.646 11.1693 10.3159L17.3757 6.196C17.7653 5.93773 18.1906 5.74308 18.6368 5.61878C19.6134 5.35434 20.6444 5.40845 21.5906 5.7738C22.5367 6.13914 23.3525 6.79812 23.9276 7.66175C24.2807 8.17657 24.5315 8.75962 24.6654 9.37672C24.7993 9.99383 24.8136 10.6326 24.7073 11.2555C24.671 11.4599 24.6215 11.6616 24.5589 11.859L24.4421 12.2308L24.1241 11.9881C23.3902 11.4259 22.5694 10.9984 21.6973 10.7241L21.4664 10.6513L21.4879 10.4113C21.5158 10.0702 21.4272 9.72984 21.2376 9.4502C21.0644 9.18988 20.8185 8.99122 20.5335 8.88107C20.2485 8.77092 19.9377 8.7546 19.6434 8.8343C19.5089 8.87161 19.3804 8.9301 19.2628 9.0078L13.0554 13.1287C12.9035 13.2282 12.7733 13.3596 12.673 13.5145C12.5726 13.6695 12.5044 13.8445 12.4727 14.0284C12.4407 14.2162 12.445 14.4087 12.4853 14.5948C12.5256 14.7808 12.601 14.9567 12.7073 15.112C12.8805 15.3723 13.1263 15.5709 13.4114 15.6812C13.6964 15.7914 14.0071 15.8079 14.3014 15.7283C14.4361 15.6909 14.5643 15.6325 14.6822 15.5548L17.05 13.983C17.4395 13.7247 17.8649 13.53 18.311 13.406C19.2876 13.1416 20.3186 13.1957 21.2648 13.5611C22.2108 13.9263 23.0265 14.5854 23.6016 15.449C23.9547 15.9637 24.2057 16.5468 24.3396 17.164C24.4735 17.7811 24.4876 18.4198 24.3814 19.0427C24.2762 19.6534 24.0496 20.2347 23.7166 20.749C23.3836 21.2634 22.9512 21.6998 22.447 22.0303L16.2406 26.1489C15.851 26.4073 15.4258 26.6019 14.9795 26.7261Z" fill="#11111B"/>
</mask>
<g mask="url(#mask0_145_1088)">
<path d="M9.68784 24.6845L11.8015 23.1569C11.7948 23.1469 11.7881 23.1368 11.7812 23.1269L9.68784 24.6845ZM8.90838 21.0907L6.37791 20.6079L6.37552 20.6219L8.90838 21.0907ZM9.05661 20.4873L11.4987 21.3296L11.5015 21.3208L9.05661 20.4873ZM9.17343 20.1155L10.6953 17.9549C10.0304 17.4467 9.17201 17.3015 8.38689 17.5641C7.60175 17.8267 6.98508 18.4654 6.72855 19.2818L9.17343 20.1155ZM9.49155 20.3586L11.0154 18.1996L11.0134 18.1981L9.49155 20.3586ZM11.9184 21.6225L12.6653 19.0583L12.6622 19.0572L11.9184 21.6225ZM12.149 21.6954L14.7107 21.9407C14.8226 20.6743 14.0643 19.5005 12.8959 19.1312L12.149 21.6954ZM12.1278 21.9354L9.56603 21.6901L9.56466 21.7069L12.1278 21.9354ZM12.3784 22.8958L14.4929 21.3696C14.4879 21.3621 14.483 21.3547 14.478 21.3475L12.3784 22.8958ZM13.9725 23.5116L14.6202 26.105L14.6336 26.1014L13.9725 23.5116ZM14.3532 23.3382L15.7304 25.6015L15.7359 25.5978L14.3532 23.3382ZM20.5589 19.2175L19.1884 16.9496L19.176 16.9578L20.5589 19.2175ZM21.1421 18.3176L23.6737 18.7936L23.6754 18.7835L21.1421 18.3176ZM20.907 17.2342L18.7926 18.7607C18.7992 18.7705 18.8057 18.7802 18.8123 18.7899L20.907 17.2342ZM19.3128 16.6179L18.6668 14.0239L18.6513 14.0282L19.3128 16.6179ZM18.9322 16.7914L17.5554 14.5277L17.5493 14.5317L18.9322 16.7914ZM16.564 18.3639L17.9435 20.6258L17.9469 20.6235L16.564 18.3639ZM15.303 18.9404L15.9502 21.534L15.9672 21.5293L15.303 18.9404ZM10.0121 16.8974L12.1259 15.3701C12.1191 15.3598 12.1122 15.3496 12.1052 15.3395L10.0121 16.8974ZM9.23244 13.3037L6.70053 12.8293L6.69959 12.8348L9.23244 13.3037ZM11.1685 10.3172L12.537 12.5863L12.551 12.577L11.1685 10.3172ZM17.3749 6.19725L15.9937 3.93648L15.9924 3.93741L17.3749 6.19725ZM18.6359 5.62003L17.9887 3.02644L17.9712 3.0313L18.6359 5.62003ZM23.9267 7.663L21.8131 9.19047C21.8198 9.2006 21.8267 9.21066 21.8335 9.22068L23.9267 7.663ZM24.7065 11.2567L27.2363 11.7436L27.2394 11.7253L24.7065 11.2567ZM24.558 11.8602L22.1153 11.0198L22.1131 11.0266L24.558 11.8602ZM24.4412 12.232L22.9206 14.3935C23.5855 14.901 24.4437 15.046 25.2284 14.7831C26.0133 14.5203 26.6296 13.8818 26.886 13.0657L24.4412 12.232ZM24.1233 11.9894L22.5992 14.1481L22.6028 14.1508L24.1233 11.9894ZM21.6965 10.7254L20.9502 13.2899L20.9529 13.2907L21.6965 10.7254ZM21.4656 10.6525L18.9041 10.4044C18.7911 11.6721 19.5497 12.8477 20.7194 13.217L21.4656 10.6525ZM21.4871 10.4126L24.0485 10.6607C24.0492 10.6539 24.0497 10.6471 24.0502 10.6404L21.4871 10.4126ZM21.2368 9.45145L19.1224 10.9779C19.1267 10.9844 19.131 10.9909 19.1354 10.9973L21.2368 9.45145ZM19.6426 8.83555L18.9952 6.24204L18.9814 6.24585L19.6426 8.83555ZM19.262 9.00905L17.8848 6.74567L17.8794 6.74926L19.262 9.00905ZM13.0545 13.13L14.4245 15.3982L14.4372 15.3898L13.0545 13.13ZM12.4719 14.0297L9.93986 13.5558L9.9389 13.5615L12.4719 14.0297ZM12.7065 15.1132L14.8206 13.5865C14.8142 13.577 14.8079 13.5674 14.8013 13.5579L12.7065 15.1132ZM14.3006 15.7296L14.9464 18.3235L14.9634 18.3188L14.3006 15.7296ZM14.6813 15.5561L16.057 17.8204L16.0638 17.816L14.6813 15.5561ZM18.3101 13.4073L17.6629 10.8137L17.6469 10.8182L18.3101 13.4073ZM23.6008 15.4502L21.4871 16.9776C21.4939 16.9878 21.5007 16.998 21.5077 17.0082L23.6008 15.4502ZM24.3805 19.044L26.9125 19.5175L26.9133 19.5129L24.3805 19.044ZM22.4461 22.0316L21.076 19.7635L21.0639 19.7715L22.4461 22.0316ZM14.3315 24.134C13.8645 24.2603 13.3715 24.2345 12.9191 24.0597L11.1308 29.085C12.5707 29.641 14.1397 29.7234 15.6258 29.321L14.3315 24.134ZM12.9191 24.0597C12.4666 23.885 12.0766 23.57 11.8015 23.1569L7.57415 26.2119C8.44947 27.5262 9.69089 28.5291 11.1308 29.085L12.9191 24.0597ZM11.7812 23.1269C11.6272 22.9024 11.5179 22.6481 11.4595 22.3789L6.44091 23.56C6.65023 24.5251 7.04241 25.4368 7.59446 26.242L11.7812 23.1269ZM11.4595 22.3789C11.4011 22.1097 11.3949 21.8311 11.4412 21.5594L6.37552 20.6219C6.20937 21.5961 6.2316 22.595 6.44091 23.56L11.4595 22.3789ZM11.4388 21.5735C11.4533 21.4908 11.4734 21.4094 11.4987 21.3296L6.61451 19.6448C6.51437 19.9598 6.43529 20.2816 6.37791 20.6079L11.4388 21.5735ZM11.5015 21.3208L11.6183 20.9491L6.72855 19.2818L6.61173 19.6536L11.5015 21.3208ZM7.6516 22.276L7.9697 22.5192L11.0134 18.1981L10.6953 17.9549L7.6516 22.276ZM7.96765 22.5176C8.93759 23.2604 10.0222 23.8253 11.1747 24.1878L12.6622 19.0572C12.0704 18.8711 11.5135 18.5811 11.0154 18.1996L7.96765 22.5176ZM11.1715 24.1869L11.4021 24.2598L12.8959 19.1312L12.6653 19.0583L11.1715 24.1869ZM9.58727 21.4501L9.56603 21.6901L14.6896 22.1807L14.7107 21.9407L9.58727 21.4501ZM9.56466 21.7069C9.48483 22.6785 9.7378 23.6483 10.2787 24.4441L14.478 21.3475C14.6394 21.5847 14.7148 21.874 14.691 22.1638L9.56466 21.7069ZM10.2639 24.422C10.7371 25.1335 11.4087 25.6764 12.1878 25.9775L13.977 20.9525C14.1859 21.0331 14.3659 21.1788 14.4929 21.3696L10.2639 24.422ZM12.1878 25.9775C12.9669 26.2784 13.8161 26.323 14.6202 26.105L13.3248 20.9183C13.5404 20.8599 13.7681 20.8718 13.977 20.9525L12.1878 25.9775ZM14.6336 26.1014C15.0215 25.994 15.3913 25.8254 15.7304 25.6015L12.976 21.0748C13.0796 21.0063 13.1927 20.9547 13.3114 20.9219L14.6336 26.1014ZM15.7359 25.5978L21.9416 21.4772L19.176 16.9578L12.9704 21.0785L15.7359 25.5978ZM21.9293 21.4853C22.3836 21.1875 22.7733 20.7942 23.0737 20.3308L18.8092 17.3323C18.9088 17.1786 19.0379 17.0484 19.1884 16.9496L21.9293 21.4853ZM23.0737 20.3308C23.374 19.8673 23.5783 19.3438 23.6737 18.7936L18.6105 17.8417C18.642 17.6594 18.7098 17.4859 18.8092 17.3323L23.0737 20.3308ZM23.6754 18.7835C23.7666 18.2453 23.754 17.6935 23.6384 17.1605L18.6199 18.3422C18.5849 18.181 18.5811 18.0143 18.6087 17.8516L23.6754 18.7835ZM23.6384 17.1605C23.5227 16.6274 23.3062 16.1236 23.0017 15.6787L18.8123 18.7899C18.7202 18.6554 18.6549 18.5032 18.6199 18.3422L23.6384 17.1605ZM23.0213 15.7077C22.5481 14.9967 21.8768 14.4539 21.0981 14.1528L19.3078 19.1772C19.0991 19.0966 18.9193 18.9513 18.7926 18.7607L23.0213 15.7077ZM21.0981 14.1528C20.3194 13.8516 19.4707 13.8066 18.6668 14.0239L19.9589 19.2117C19.7435 19.2699 19.5163 19.2578 19.3078 19.1772L21.0981 14.1528ZM18.6513 14.0282C18.2637 14.1357 17.8942 14.3041 17.5554 14.5277L20.309 19.055C20.2056 19.1233 20.0928 19.1746 19.9744 19.2074L18.6513 14.0282ZM17.5493 14.5317L15.1812 16.1043L17.9469 20.6235L20.315 19.0509L17.5493 14.5317ZM15.1845 16.102C15.0159 16.2137 14.8318 16.2978 14.6389 16.3515L15.9672 21.5293C16.6663 21.3347 17.3327 21.03 17.9435 20.6258L15.1845 16.102ZM14.6557 16.347C14.1888 16.4733 13.6958 16.4475 13.2434 16.2727L11.4551 21.2982C12.895 21.8541 14.4639 21.9365 15.9502 21.534L14.6557 16.347ZM13.2434 16.2727C12.7909 16.0982 12.4009 15.783 12.1259 15.3701L7.89841 18.4248C8.7737 19.7392 10.0151 20.7421 11.4551 21.2982L13.2434 16.2727ZM12.1052 15.3395C11.9513 15.1151 11.8419 14.8608 11.7835 14.5918L6.76503 15.7732C6.97443 16.7383 7.36677 17.6503 7.91904 18.4554L12.1052 15.3395ZM11.7835 14.5918C11.7251 14.3227 11.7189 14.0442 11.7653 13.7726L6.69959 12.8348C6.53338 13.809 6.55562 14.808 6.76503 15.7732L11.7835 14.5918ZM11.7643 13.7781C11.8064 13.5343 11.8969 13.3025 12.0299 13.0973L7.76597 10.098C7.23226 10.9213 6.86937 11.8516 6.70053 12.8293L11.7643 13.7781ZM12.0299 13.0973C12.1629 12.8921 12.3357 12.7181 12.537 12.5863L9.80003 8.04805C8.99246 8.57651 8.29968 9.27471 7.76597 10.098L12.0299 13.0973ZM12.551 12.577L18.7574 8.45711L15.9924 3.93741L9.78596 8.05732L12.551 12.577ZM18.7561 8.45803C18.9243 8.34649 19.1079 8.26243 19.3006 8.20875L17.9712 3.0313C17.2716 3.22621 16.6048 3.53147 15.9937 3.93648L18.7561 8.45803ZM19.2831 8.21356C19.7501 8.08711 20.2431 8.11298 20.6955 8.28769L22.4838 3.2624C21.044 2.70641 19.475 2.62401 17.9887 3.02644L19.2831 8.21356ZM20.6955 8.28769C21.148 8.46239 21.538 8.7775 21.8131 9.19047L26.0405 6.13555C25.1651 4.82124 23.9238 3.81839 22.4838 3.2624L20.6955 8.28769ZM21.8335 9.22068C21.9876 9.44522 22.0969 9.69953 22.1553 9.9687L27.1738 8.78725C26.9644 7.82221 26.5722 6.9104 26.02 6.10534L21.8335 9.22068ZM22.1553 9.9687C22.2137 10.2379 22.2199 10.5165 22.1736 10.7881L27.2394 11.7253C27.4054 10.7512 27.3832 9.75231 27.1738 8.78725L22.1553 9.9687ZM22.1768 10.7699C22.1617 10.8545 22.1413 10.938 22.1153 11.0198L27.0008 12.7007C27.1001 12.3876 27.1788 12.0679 27.2363 11.7436L22.1768 10.7699ZM22.1131 11.0266L21.9963 11.3984L26.886 13.0657L27.0028 12.6939L22.1131 11.0266ZM25.9617 10.0705L25.6439 9.82788L22.6028 14.1508L22.9206 14.3935L25.9617 10.0705ZM25.6474 9.83057C24.6774 9.0875 23.5926 8.52252 22.4399 8.16001L20.9529 13.2907C21.5446 13.4768 22.1014 13.7668 22.5992 14.1481L25.6474 9.83057ZM22.4426 8.16085L22.2118 8.08799L20.7194 13.217L20.9502 13.2899L22.4426 8.16085ZM24.0271 10.9006L24.0485 10.6607L18.9256 10.1645L18.9041 10.4044L24.0271 10.9006ZM24.0502 10.6404C24.1297 9.66984 23.8775 8.70123 23.338 7.90557L19.1354 10.9973C18.9751 10.7609 18.9003 10.4732 18.9238 10.1848L24.0502 10.6404ZM23.3511 7.92497C22.8778 7.21364 22.2062 6.67081 21.4273 6.36985L19.6381 11.3948C19.4293 11.3141 19.2492 11.1686 19.1224 10.9779L23.3511 7.92497ZM21.4273 6.36985C20.6483 6.06888 19.7994 6.02425 18.9952 6.24204L20.29 11.429C20.0745 11.4874 19.8468 11.4755 19.6381 11.3948L21.4273 6.36985ZM18.9814 6.24585C18.5936 6.35329 18.2237 6.52185 17.8848 6.74567L20.6392 11.2724C20.5355 11.3409 20.4223 11.3924 20.3037 11.4253L18.9814 6.24585ZM17.8794 6.74926L11.672 10.8702L14.4372 15.3898L20.6446 11.2688L17.8794 6.74926ZM11.6847 10.8617C11.23 11.1597 10.84 11.5532 10.5395 12.0171L14.8047 15.0145C14.7049 15.1686 14.5755 15.2992 14.4245 15.3982L11.6847 10.8617ZM10.5395 12.0171C10.2391 12.481 10.0349 13.005 9.93986 13.5558L15.0038 14.5035C14.9723 14.6864 14.9045 14.8604 14.8047 15.0145L10.5395 12.0171ZM9.9389 13.5615C9.84717 14.1 9.85943 14.6521 9.97492 15.1856L14.9939 14.0065C15.0289 14.1678 15.0326 14.3349 15.0048 14.4977L9.9389 13.5615ZM9.97492 15.1856C10.0904 15.719 10.3069 16.2232 10.6116 16.6685L14.8013 13.5579C14.8936 13.6926 14.959 13.8451 14.9939 14.0065L9.97492 15.1856ZM10.5923 16.64C11.0655 17.3509 11.7367 17.8936 12.5153 18.1946L14.3057 13.1702C14.5142 13.2508 14.6939 13.3961 14.8206 13.5865L10.5923 16.64ZM12.5153 18.1946C13.2939 18.4957 14.1425 18.5407 14.9464 18.3235L13.6548 13.1357C13.8701 13.0775 14.0972 13.0896 14.3057 13.1702L12.5153 18.1946ZM14.9634 18.3188C15.3501 18.2114 15.7188 18.0434 16.057 17.8204L13.3055 13.2918C13.4083 13.224 13.5203 13.173 13.6378 13.1403L14.9634 18.3188ZM16.0638 17.816L18.4317 16.2441L15.6675 11.7239L13.2988 13.2962L16.0638 17.816ZM18.4317 16.2441C18.5994 16.1329 18.7814 16.0498 18.9735 15.9965L17.6469 10.8182C16.9466 11.0128 16.279 11.3183 15.6675 11.7239L18.4317 16.2441ZM18.9575 16.0008C19.4244 15.8744 19.9173 15.9003 20.3697 16.0748L22.1581 11.0497C20.7181 10.4937 19.1492 10.4113 17.6629 10.8137L18.9575 16.0008ZM20.3697 16.0748C20.8221 16.2496 21.2121 16.5647 21.4871 16.9776L25.7146 13.9229C24.8393 12.6086 23.598 11.6057 22.1581 11.0497L20.3697 16.0748ZM21.5077 17.0082C21.6616 17.2326 21.7711 17.4869 21.8295 17.756L26.848 16.5745C26.6386 15.6094 26.2461 14.6975 25.6939 13.8924L21.5077 17.0082ZM21.8295 17.756C21.8879 18.025 21.8941 18.3036 21.8476 18.5752L26.9133 19.5129C27.0796 18.5387 27.0574 17.5397 26.848 16.5745L21.8295 17.756ZM21.8485 18.5705C21.8065 18.8143 21.716 19.0464 21.583 19.2519L25.8485 22.2486C26.3817 21.4253 26.744 20.495 26.9125 19.5175L21.8485 18.5705ZM21.583 19.2519C21.45 19.4573 21.2773 19.6315 21.076 19.7635L23.8162 24.2996C24.6232 23.7706 25.3154 23.0721 25.8485 22.2486L21.583 19.2519ZM21.0639 19.7715L14.8575 23.8901L17.6211 28.4108L23.8283 24.2915L21.0639 19.7715ZM14.8575 23.8901C14.6896 24.0016 14.5068 24.0851 14.3144 24.1386L15.6431 29.3163C16.3429 29.1213 17.01 28.816 17.6211 28.4108L14.8575 23.8901Z" fill="#FE640B"/>
</g>
</svg>
