<svg width="33" height="33" viewBox="0 0 33 33" fill="none" xmlns="http://www.w3.org/2000/svg">
<mask id="mask0_2_903" style="mask-type:luminance" maskUnits="userSpaceOnUse" x="5" y="2" width="22" height="28">
<path d="M26.8083 2.77466H5.37061V29.5718H26.8083V2.77466Z" fill="#CDD6F4"/>
<path d="M14.1793 26.7259C13.2044 26.9904 12.1752 26.9363 11.2307 26.5709C10.2862 26.2056 9.47184 25.5466 8.89765 24.683C8.54526 24.1681 8.2949 23.5851 8.16129 22.968C8.02768 22.3509 8.01348 21.7121 8.11954 21.0892C8.15544 20.8848 8.20488 20.6831 8.26752 20.4858L8.38414 20.114L8.7017 20.3572C9.43441 20.9192 10.2538 21.3468 11.1244 21.621L11.3545 21.6939L11.3334 21.9339C11.3054 22.2748 11.394 22.6149 11.5835 22.8943C11.7564 23.1546 12.0017 23.3533 12.2863 23.4635C12.5709 23.5736 12.8811 23.59 13.1749 23.5101C13.3093 23.4729 13.4374 23.4143 13.5549 23.3367L19.7498 19.216C19.9015 19.1164 20.0314 18.985 20.1318 18.83C20.232 18.6751 20.3002 18.5001 20.332 18.3161C20.3637 18.1283 20.3594 17.9358 20.3191 17.7498C20.2788 17.5638 20.2033 17.388 20.0974 17.2327C19.9244 16.9724 19.6791 16.7737 19.3945 16.6636C19.1099 16.5533 18.7997 16.5368 18.506 16.6164C18.3715 16.6536 18.2434 16.7122 18.1259 16.7899L15.7618 18.3624C15.3729 18.6203 14.9484 18.8147 14.503 18.9389C13.5281 19.2034 12.4989 19.1493 11.5544 18.784C10.6099 18.4186 9.79555 17.7596 9.22139 16.8959C8.86889 16.3811 8.61847 15.7981 8.4848 15.181C8.35115 14.5639 8.33695 13.9252 8.44304 13.3022C8.54832 12.6915 8.7746 12.1104 9.10738 11.5961C9.44017 11.0819 9.87217 10.6458 10.3757 10.3157L16.5714 6.19576C16.9603 5.93749 17.3848 5.74283 17.8302 5.61853C18.8051 5.3541 19.8343 5.4082 20.7788 5.77356C21.7234 6.1389 22.5376 6.79788 23.1119 7.66151C23.4643 8.17632 23.7147 8.75938 23.8484 9.37648C23.982 9.99359 23.9962 10.6323 23.8902 11.2553C23.854 11.4597 23.8045 11.6613 23.742 11.8587L23.6253 12.2305L23.3081 11.9879C22.5754 11.4256 21.7561 10.9982 20.8853 10.7239L20.655 10.651L20.6763 10.4111C20.7043 10.07 20.6157 9.72959 20.4266 9.44995C20.2536 9.18963 20.0083 8.99097 19.7237 8.88082C19.4391 8.77067 19.1289 8.75435 18.8351 8.83406C18.7007 8.87136 18.5726 8.92986 18.4551 9.00756L12.2585 13.1285C12.1069 13.228 11.9769 13.3594 11.8768 13.5142C11.7766 13.6692 11.7085 13.8442 11.6768 14.0282C11.6449 14.2159 11.6492 14.4084 11.6894 14.5946C11.7296 14.7805 11.8049 14.9564 11.911 15.1117C12.084 15.3721 12.3293 15.5706 12.6139 15.6809C12.8984 15.7912 13.2086 15.8077 13.5024 15.7281C13.6368 15.6907 13.7649 15.6323 13.8824 15.5546L16.2462 13.9828C16.635 13.7245 17.0596 13.5298 17.505 13.4058C18.4799 13.1413 19.5092 13.1954 20.4536 13.5609C21.3981 13.9261 22.2123 14.5852 22.7864 15.4487C23.139 15.9635 23.3894 16.5466 23.5231 17.1637C23.6567 17.7809 23.6709 18.4196 23.5648 19.0425C23.4597 19.6532 23.2337 20.2344 22.9013 20.7488C22.5687 21.2632 22.137 21.6996 21.6338 22.0301L15.4381 26.1487C15.0493 26.407 14.6247 26.6017 14.1793 26.7259Z" fill="#11111B"/>
</mask>
<g mask="url(#mask0_2_903)">
<path d="M8.89841 24.6843L11.1299 23.2006C11.1233 23.1906 11.1165 23.1805 11.1097 23.1706L8.89841 24.6843ZM8.1203 21.0905L5.4809 20.6272L5.47861 20.6407L8.1203 21.0905ZM8.26828 20.487L10.8225 21.2976L10.8251 21.2891L8.26828 20.487ZM8.3849 20.1152L10.0139 17.9875C9.3196 17.4559 8.40954 17.2966 7.57587 17.5605C6.74219 17.8246 6.08978 18.4787 5.82803 19.3132L8.3849 20.1152ZM8.70246 20.3584L10.3336 18.2323L10.3315 18.2306L8.70246 20.3584ZM11.1251 21.6223L11.934 19.0676L11.9306 19.0665L11.1251 21.6223ZM11.3553 21.6952L14.0247 21.9305C14.1349 20.6793 13.3615 19.5195 12.1641 19.1405L11.3553 21.6952ZM11.3342 21.9351L8.66473 21.6999L8.6634 21.7161L11.3342 21.9351ZM11.5843 22.8956L13.8166 21.4131C13.8117 21.4058 13.8068 21.3984 13.8018 21.391L11.5843 22.8956ZM13.1756 23.5114L13.8776 26.0975L13.8921 26.0935L13.1756 23.5114ZM13.5557 23.338L15.0339 25.573L15.0397 25.5691L13.5557 23.338ZM19.7506 19.2172L18.2794 16.9774L18.2664 16.9861L19.7506 19.2172ZM20.3327 18.3174L22.9733 18.774L22.9749 18.7644L20.3327 18.3174ZM20.0981 17.234L17.8659 18.7167C17.8723 18.7264 17.8789 18.7361 17.8855 18.7457L20.0981 17.234ZM18.5068 16.6176L17.8064 14.0309L17.7897 14.0356L18.5068 16.6176ZM18.1266 16.7912L16.6488 14.5557L16.6425 14.5599L18.1266 16.7912ZM15.7626 18.3636L17.2433 20.5972L17.2469 20.5949L15.7626 18.3636ZM14.5038 18.9402L15.2055 21.5265L15.2236 21.5214L14.5038 18.9402ZM9.22215 16.8971L11.4537 15.4137C11.4469 15.4035 11.4401 15.3933 11.4332 15.3831L9.22215 16.8971ZM8.4438 13.3035L5.80303 12.8482L5.80212 12.8535L8.4438 13.3035ZM10.3765 10.3169L11.8456 12.5581L11.8603 12.5483L10.3765 10.3169ZM16.5721 6.19701L15.0897 3.96464L15.0883 3.96561L16.5721 6.19701ZM17.8309 5.61978L17.1295 3.03352C17.1232 3.03522 17.1169 3.03695 17.1106 3.03869L17.8309 5.61978ZM23.1127 7.66276L20.8811 9.14638C20.8878 9.15649 20.8947 9.16653 20.9015 9.17654L23.1127 7.66276ZM23.891 11.2565L26.5297 11.7237L26.5327 11.7061L23.891 11.2565ZM23.7428 11.86L21.188 11.0513L21.1859 11.0579L23.7428 11.86ZM23.6261 12.2318L21.9984 14.3605C22.6929 14.8915 23.6026 15.0504 24.436 14.7862C25.2693 14.522 25.9214 13.868 26.1829 13.0338L23.6261 12.2318ZM23.3088 11.9891L21.6774 14.1151L21.6812 14.1179L23.3088 11.9891ZM20.8861 10.7251L20.0782 13.2801L20.081 13.281L20.8861 10.7251ZM20.6558 10.6523L17.9866 10.4144C17.875 11.6667 18.6491 12.8281 19.8477 13.2072L20.6558 10.6523ZM20.6771 10.4123L23.3463 10.6502C23.3469 10.6437 23.3474 10.6372 23.3479 10.6307L20.6771 10.4123ZM20.4273 9.4512L18.1951 10.9338C18.1994 10.9403 18.2037 10.9468 18.2081 10.9532L20.4273 9.4512ZM18.8358 8.83531L18.1342 6.24906L18.1194 6.25316L18.8358 8.83531ZM18.4559 9.00881L16.9776 6.77369L16.972 6.77746L18.4559 9.00881ZM12.2593 13.1297L13.7298 15.37L13.7432 15.361L12.2593 13.1297ZM11.6776 14.0294L9.03674 13.5747L9.0358 13.5802L11.6776 14.0294ZM11.9118 15.113L14.1438 13.63C14.1375 13.6205 14.1311 13.611 14.1246 13.6015L11.9118 15.113ZM13.5032 15.7293L14.2031 18.3161C14.2093 18.3143 14.2153 18.3127 14.2215 18.311L13.5032 15.7293ZM13.8832 15.5558L15.36 17.792L15.3669 17.7872L13.8832 15.5558ZM17.5058 13.4071L16.8042 10.8207L16.7871 10.8255L17.5058 13.4071ZM22.7872 15.45L20.5557 16.9336C20.5624 16.9438 20.5693 16.954 20.5762 16.964L22.7872 15.45ZM23.5655 19.0437L26.2065 19.4981L26.2072 19.4937L23.5655 19.0437ZM21.6345 22.0313L20.1636 19.7912L20.151 19.7997L21.6345 22.0313ZM13.4786 24.141C13.0563 24.2555 12.6115 24.2329 12.1982 24.0729L10.2647 29.0715C11.7404 29.6423 13.354 29.7278 14.8816 29.3135L13.4786 24.141ZM12.1982 24.0729C11.7832 23.9124 11.4055 23.6151 11.1299 23.2006L6.66688 26.1679C7.53972 27.4807 8.79066 28.5013 10.2647 29.0715L12.1982 24.0729ZM11.1097 23.1706C10.9556 22.9454 10.8422 22.6845 10.7811 22.4021L5.54302 23.5363C5.74912 24.4881 6.13643 25.3933 6.68712 26.1979L11.1097 23.1706ZM10.7811 22.4021C10.7199 22.1196 10.7133 21.8261 10.762 21.5403L5.47861 20.6407C5.31516 21.6006 5.33695 22.5846 5.54302 23.5363L10.7811 22.4021ZM10.7597 21.5538C10.775 21.4665 10.796 21.3808 10.8225 21.2976L5.71411 19.6764C5.61528 19.9878 5.53738 20.3055 5.4809 20.6272L10.7597 21.5538ZM10.8251 21.2891L10.9418 20.9173L5.82803 19.3132L5.71141 19.6849L10.8251 21.2891ZM6.75586 22.2429L7.07342 22.4861L10.3315 18.2306L10.0139 17.9875L6.75586 22.2429ZM7.07128 22.4844C8.0491 23.2347 9.14733 23.8087 10.3197 24.1782L11.9306 19.0665C11.3617 18.8872 10.8213 18.6064 10.3336 18.2323L7.07128 22.4844ZM10.3163 24.1771L10.5465 24.2499L12.1641 19.1405L11.934 19.0676L10.3163 24.1771ZM8.68591 21.46L8.66473 21.6999L14.0035 22.1703L14.0247 21.9305L8.68591 21.46ZM8.6634 21.7161C8.58621 22.6573 8.82894 23.6073 9.36673 24.3999L13.8018 21.391C13.9607 21.6252 14.0261 21.8947 14.0048 22.1542L8.6634 21.7161ZM9.35192 24.378C9.82338 25.088 10.5055 25.6486 11.3199 25.9638L13.2543 20.9656C13.4995 21.0605 13.6909 21.2238 13.8166 21.4131L9.35192 24.378ZM11.3199 25.9638C12.1359 26.2796 13.0309 26.3273 13.8776 26.0975L12.4736 20.9253C12.7328 20.8549 13.0075 20.8701 13.2543 20.9656L11.3199 25.9638ZM13.8921 26.0935C14.2997 25.9804 14.6846 25.804 15.0339 25.573L12.0774 21.1028C12.1918 21.0271 12.3203 20.9678 12.4591 20.9293L13.8921 26.0935ZM15.0397 25.5691L21.2347 21.4485L18.2664 16.9861L12.0715 21.1067L15.0397 25.5691ZM21.2217 21.4571C21.6901 21.1493 22.0835 20.7488 22.3824 20.2867L17.8825 17.3757C17.981 17.2235 18.1142 17.0858 18.2794 16.9774L21.2217 21.4571ZM22.3824 20.2867C22.6812 19.825 22.8806 19.3096 22.9733 18.774L17.6923 17.8606C17.7212 17.693 17.7842 17.5277 17.8825 17.3757L22.3824 20.2867ZM22.9749 18.7644C23.0636 18.2403 23.0514 17.7036 22.9387 17.1837L17.7008 18.3183C17.6688 18.1705 17.6655 18.0187 17.6905 17.8703L22.9749 18.7644ZM22.9387 17.1837C22.8262 16.6639 22.6142 16.1667 22.3106 15.7222L17.8855 18.7457C17.794 18.6119 17.7329 18.4662 17.7008 18.3183L22.9387 17.1837ZM22.3302 15.7513C21.8588 15.0417 21.1771 14.4812 20.3631 14.166L18.4273 19.1635C18.1825 19.0688 17.9915 18.9057 17.8659 18.7167L22.3302 15.7513ZM20.3631 14.166C19.5476 13.85 18.6529 13.8017 17.8064 14.0309L19.207 19.2042C18.9481 19.2743 18.6738 19.259 18.4273 19.1635L20.3631 14.166ZM17.7897 14.0356C17.3825 14.1487 16.9978 14.3249 16.6488 14.5557L19.6045 19.0264C19.4904 19.1019 19.3621 19.1612 19.2237 19.1997L17.7897 14.0356ZM16.6425 14.5599L14.2784 16.1325L17.2469 20.5949L19.6108 19.0223L16.6425 14.5599ZM14.2821 16.1302C14.1245 16.2346 13.9564 16.3108 13.784 16.3589L15.2236 21.5214C15.9419 21.3211 16.6228 21.0086 17.2433 20.5972L14.2821 16.1302ZM13.8022 16.354C13.38 16.4685 12.9352 16.4459 12.5219 16.2859L10.5884 21.2845C12.0641 21.8553 13.6779 21.9409 15.2055 21.5265L13.8022 16.354ZM12.5219 16.2859C12.1069 16.1254 11.7292 15.8281 11.4537 15.4137L6.99056 18.3808C7.86339 19.6937 9.11434 20.7143 10.5884 21.2845L12.5219 16.2859ZM11.4332 15.3831C11.2791 15.1581 11.1657 14.8973 11.1046 14.615L5.86657 15.7494C6.07275 16.7014 6.46023 17.6067 7.01113 18.4112L11.4332 15.3831ZM11.1046 14.615C11.0434 14.3327 11.0368 14.0391 11.0855 13.7533L5.80212 12.8535C5.63862 13.8136 5.66042 14.7976 5.86657 15.7494L11.1046 14.615ZM11.0846 13.7587C11.1291 13.5002 11.224 13.2601 11.3579 13.0533L6.85841 10.1415C6.3267 10.9632 5.96903 11.8853 5.80303 12.8482L11.0846 13.7587ZM11.3579 13.0533C11.4916 12.8467 11.6596 12.68 11.8456 12.5581L8.90739 8.0758C8.08627 8.61406 7.3903 9.31961 6.85841 10.1415L11.3579 13.0533ZM11.8603 12.5483L18.0559 8.42842L15.0883 3.96561L8.89266 8.08552L11.8603 12.5483ZM18.0544 8.42938C18.2116 8.32505 18.3793 8.24887 18.5512 8.20087L17.1106 3.03869C16.3919 3.23928 15.7105 3.55242 15.0897 3.96464L18.0544 8.42938ZM18.5325 8.20606C18.9547 8.09151 19.3995 8.11417 19.8129 8.27407L21.7463 3.27554C20.2707 2.70475 18.6571 2.61918 17.1295 3.03352L18.5325 8.20606ZM19.8129 8.27407C20.2278 8.43458 20.6055 8.73196 20.8811 9.14638L25.3442 6.17915C24.4713 4.86627 23.2204 3.8457 21.7463 3.27554L19.8129 8.27407ZM20.9015 9.17654C21.0556 9.40168 21.1689 9.66259 21.2302 9.94496L26.4681 8.81049C26.262 7.85866 25.8745 6.95346 25.3238 6.14897L20.9015 9.17654ZM21.2302 9.94496C21.2913 10.2274 21.298 10.521 21.2493 10.8069L26.5327 11.7061C26.6961 10.7462 26.6743 9.76225 26.4681 8.81049L21.2302 9.94496ZM21.2523 10.7893C21.2365 10.8785 21.215 10.9661 21.188 11.0513L26.2975 12.6687C26.3956 12.3591 26.473 12.0434 26.5297 11.7237L21.2523 10.7893ZM21.1859 11.0579L21.0692 11.4297L26.1829 13.0338L26.2997 12.6621L21.1859 11.0579ZM25.2539 10.1031L24.9365 9.86042L21.6812 14.1179L21.9984 14.3605L25.2539 10.1031ZM24.9402 9.86322C23.9623 9.11281 22.864 8.53864 21.6913 8.16924L20.081 13.281C20.6497 13.4602 21.19 13.741 21.6774 14.1151L24.9402 9.86322ZM21.6942 8.17015L21.4638 8.09727L19.8477 13.2072L20.0782 13.2801L21.6942 8.17015ZM23.3249 10.8901L23.3463 10.6502L18.0079 10.1745L17.9866 10.4144L23.3249 10.8901ZM23.3479 10.6307C23.4249 9.69045 23.1827 8.74156 22.6465 7.94921L18.2081 10.9532C18.0503 10.7201 17.9853 10.452 18.0063 10.194L23.3479 10.6307ZM22.6594 7.96857C22.1879 7.2587 21.5059 6.69815 20.6917 6.38299L18.7572 11.3812C18.5121 11.2863 18.3208 11.1231 18.1951 10.9338L22.6594 7.96857ZM20.6917 6.38299C19.8757 6.0672 18.9808 6.01934 18.1342 6.24906L19.5377 11.4215C19.2785 11.4918 19.004 11.4766 18.7572 11.3812L20.6917 6.38299ZM18.1194 6.25316C17.7118 6.36626 17.327 6.54265 16.9776 6.77369L19.9341 11.2439C19.8197 11.3196 19.6912 11.379 19.5524 11.4175L18.1194 6.25316ZM16.972 6.77746L10.7754 10.8984L13.7432 15.361L19.9397 11.2402L16.972 6.77746ZM10.7888 10.8895C10.3199 11.1973 9.92619 11.5981 9.62718 12.0606L14.1278 14.9704C14.0291 15.1232 13.8955 15.2613 13.7298 15.37L10.7888 10.8895ZM9.62718 12.0606C9.32833 12.5228 9.12902 13.0387 9.03674 13.5747L14.3185 14.4841C14.2896 14.6522 14.2263 14.8181 14.1278 14.9704L9.62718 12.0606ZM9.0358 13.5802C8.94665 14.1045 8.95848 14.6416 9.07091 15.1619L14.3094 14.0297C14.3414 14.1778 14.3446 14.3298 14.3194 14.4786L9.0358 13.5802ZM9.07091 15.1619C9.18336 15.6822 9.39525 16.1796 9.69901 16.6243L14.1246 13.6015C14.2161 13.7356 14.2774 13.8815 14.3094 14.0297L9.07091 15.1619ZM9.67978 16.5958C10.1512 17.3054 10.8329 17.8657 11.6468 18.181L13.5825 13.1833C13.8272 13.2781 14.0182 13.4411 14.1438 13.63L9.67978 16.5958ZM11.6468 18.181C12.4622 18.4968 13.3567 18.545 14.2031 18.3161L12.8032 13.1427C13.062 13.0726 13.3362 13.0879 13.5825 13.1833L11.6468 18.181ZM14.2215 18.311C14.6277 18.198 15.0115 18.0222 15.36 17.792L12.4065 13.3198C12.5199 13.2448 12.6473 13.186 12.7849 13.1477L14.2215 18.311ZM15.3669 17.7872L17.7307 16.2154L14.764 11.752L12.3994 13.3244L15.3669 17.7872ZM17.7307 16.2154C17.8872 16.1116 18.0534 16.0363 18.2246 15.9886L16.7871 10.8255C16.0674 11.0259 15.3853 11.3392 14.764 11.752L17.7307 16.2154ZM18.2073 15.9933C18.6296 15.8787 19.0743 15.9014 19.4875 16.0613L21.4211 11.0628C19.9455 10.492 18.3318 10.4064 16.8042 10.8207L18.2073 15.9933ZM19.4875 16.0613C19.9025 16.2219 20.2802 16.5192 20.5557 16.9336L25.0189 13.9665C24.1461 12.6536 22.8952 11.633 21.4211 11.0628L19.4875 16.0613ZM20.5762 16.964C20.7303 17.1891 20.8437 17.45 20.9048 17.7321L26.1428 16.5977C25.9367 15.6458 25.5492 14.7405 24.9982 13.9361L20.5762 16.964ZM20.9048 17.7321C20.9659 18.0146 20.9726 18.308 20.9239 18.5938L26.2072 19.4937C26.3708 18.5336 26.349 17.5497 26.1428 16.5977L20.9048 17.7321ZM20.9247 18.5894C20.8802 18.8481 20.7853 19.0882 20.6515 19.2954L25.1526 22.2047C25.6837 21.383 26.0409 20.4609 26.2065 19.4981L20.9247 18.5894ZM20.6515 19.2954C20.5178 19.5022 20.3496 19.669 20.1636 19.7912L23.1054 24.2713C23.926 23.7324 24.6212 23.0267 25.1526 22.2047L20.6515 19.2954ZM20.151 19.7997L13.9554 23.9184L16.9216 28.3821L23.118 24.2629L20.151 19.7997ZM13.9554 23.9184C13.7985 24.0226 13.6318 24.0981 13.46 24.146L14.9001 29.3084C15.6191 29.1078 16.3007 28.7945 16.9216 28.3821L13.9554 23.9184Z" fill="#1e66f5"/>
</g>
</svg>
