<svg width="33" height="33" viewBox="0 0 33 33" fill="none" xmlns="http://www.w3.org/2000/svg">
<path d="M26.2102 6.79419H7.45215V25.5522H26.2102V6.79419Z" stroke="#6C7086" stroke-width="2"/>
<path d="M8.79301 4.1145H6.1133C5.37331 4.1145 4.77344 4.71438 4.77344 5.45436V8.13408C4.77344 8.87406 5.37331 9.47394 6.1133 9.47394H8.79301C9.533 9.47394 10.1329 8.87406 10.1329 8.13408V5.45436C10.1329 4.71438 9.533 4.1145 8.79301 4.1145Z" fill="#d20f39"/>
<path d="M27.5498 4.1145H24.8701C24.1301 4.1145 23.5303 4.71438 23.5303 5.45436V8.13408C23.5303 8.87406 24.1301 9.47394 24.8701 9.47394H27.5498C28.2898 9.47394 28.8897 8.87406 28.8897 8.13408V5.45436C28.8897 4.71438 28.2898 4.1145 27.5498 4.1145Z" fill="#d20f39"/>
<path d="M27.5498 22.8723H24.8701C24.1301 22.8723 23.5303 23.4722 23.5303 24.2122V26.8919C23.5303 27.6319 24.1301 28.2317 24.8701 28.2317H27.5498C28.2898 28.2317 28.8897 27.6319 28.8897 26.8919V24.2122C28.8897 23.4722 28.2898 22.8723 27.5498 22.8723Z" fill="#d20f39"/>
<path d="M8.79301 22.8723H6.1133C5.37331 22.8723 4.77344 23.4722 4.77344 24.2122V26.8919C4.77344 27.6319 5.37331 28.2317 6.1133 28.2317H8.79301C9.533 28.2317 10.1329 27.6319 10.1329 26.8919V24.2122C10.1329 23.4722 9.533 22.8723 8.79301 22.8723Z" fill="#d20f39"/>
</svg>
