<svg width="33" height="33" viewBox="0 0 33 33" fill="none" xmlns="http://www.w3.org/2000/svg">
<path fill-rule="evenodd" clip-rule="evenodd" d="M16.4579 8.13452C12.8847 8.13452 10.652 9.9104 9.75824 13.4621C11.0983 11.6863 12.6615 11.0204 14.4479 11.4641C15.4671 11.7172 16.1959 12.4524 17.0019 13.2663C18.3156 14.5916 19.8364 16.1254 23.1571 16.1254C26.7298 16.1254 28.9631 14.3496 29.8563 10.7983C28.5168 12.5742 26.9536 13.24 25.1671 12.7958C24.1474 12.5427 23.4186 11.8076 22.6126 10.9942C21.2988 9.6678 19.7786 8.13452 16.4579 8.13452ZM9.75824 16.1254C6.18549 16.1254 3.95227 17.9013 3.05908 21.453C4.39913 19.6771 5.96233 19.0114 7.74818 19.455C8.76791 19.7081 9.49674 20.4433 10.3028 21.2572C11.6166 22.5825 13.1367 24.1164 16.4579 24.1164C20.0307 24.1164 22.2639 22.3409 23.1571 18.7892C21.8171 20.5651 20.2539 21.231 18.4675 20.7872C17.4482 20.5336 16.7195 19.7984 15.9134 18.9851C14.5997 17.6597 13.0789 16.1254 9.75824 16.1254Z" fill="#04a5e5"/>
</svg>
