<svg width="33" height="33" viewBox="0 0 33 33" fill="none" xmlns="http://www.w3.org/2000/svg">
<path fill-rule="evenodd" clip-rule="evenodd" d="M6.73988 5.91459C6.74255 5.3642 7.18947 4.91943 7.73987 4.91943H25.8032C26.3536 4.91943 26.8005 5.36419 26.8032 5.91457L26.8285 11.1242C26.8299 11.4068 26.6012 11.6365 26.3187 11.6365V11.6365C26.0628 11.6365 25.8478 11.4465 25.8052 11.1942C25.4416 9.03971 24.5637 7.56615 23.1714 6.77355C22.5183 6.40881 21.613 6.17346 20.4555 6.0675C19.8953 6.01622 19.4308 6.47309 19.4308 7.03562V23.542C19.4308 24.7671 19.6448 25.5804 20.0731 25.9815C20.4552 26.3393 21.206 26.5376 22.3256 26.5763C22.559 26.5844 22.7487 26.7727 22.7487 27.0062V27.0062C22.7487 27.2397 22.5594 27.4291 22.3258 27.4291H11.2986C11.0651 27.4291 10.8758 27.2397 10.8758 27.0062V27.0062C10.8758 26.7727 11.0655 26.5845 11.2988 26.5756C12.3662 26.5349 13.0899 26.3341 13.4699 25.9733C13.8982 25.5669 14.1124 24.7564 14.1124 23.542V7.03616C14.1124 6.47342 13.6474 6.01643 13.0872 6.0691C11.952 6.17581 11.0468 6.41063 10.3716 6.77355C8.88174 7.58436 7.99818 9.05358 7.72095 11.1812C7.68748 11.4381 7.47291 11.6365 7.21388 11.6365V11.6365C6.93718 11.6365 6.71325 11.4115 6.71459 11.1348L6.73988 5.91459Z" fill="#1e66f5"/>
</svg>
