<svg width="33" height="33" viewBox="0 0 33 33" fill="none" xmlns="http://www.w3.org/2000/svg">
<path d="M26.3083 8.13452H7.55031C6.81032 8.13452 6.21045 8.7344 6.21045 9.47438C6.21045 10.2144 6.81032 10.8142 7.55031 10.8142H26.3083C27.0483 10.8142 27.6482 10.2144 27.6482 9.47438C27.6482 8.7344 27.0483 8.13452 26.3083 8.13452Z" fill="#6C7086"/>
<path d="M20.9489 14.8333H7.55031C6.81032 14.8333 6.21045 15.4331 6.21045 16.1731C6.21045 16.9131 6.81032 17.513 7.55031 17.513H20.9489C21.6889 17.513 22.2887 16.9131 22.2887 16.1731C22.2887 15.4331 21.6889 14.8333 20.9489 14.8333Z" fill="#6C7086"/>
<path d="M26.3083 21.5334H7.55031C6.81032 21.5334 6.21045 22.1333 6.21045 22.8733C6.21045 23.6133 6.81032 24.2132 7.55031 24.2132H26.3083C27.0483 24.2132 27.6482 23.6133 27.6482 22.8733C27.6482 22.1333 27.0483 21.5334 26.3083 21.5334Z" fill="#6C7086"/>
</svg>
