<svg width="33" height="33" viewBox="0 0 33 33" fill="none" xmlns="http://www.w3.org/2000/svg">
<path d="M5.52839 12.2784C4.8717 12.2784 4.33936 11.7461 4.33936 11.0894C4.33936 10.4327 4.8717 9.90038 5.52839 9.90038H14.3545C15.0112 9.90038 15.5436 10.4327 15.5436 11.0894C15.5436 11.7461 15.0112 12.2784 14.3545 12.2784H13.367C12.2624 12.2784 11.367 13.1739 11.367 14.2784V22.1171C11.367 22.9044 10.7287 23.5426 9.94145 23.5426C9.15417 23.5426 8.51595 22.9044 8.51595 22.1171V14.2784C8.51595 13.1739 7.62052 12.2784 6.51595 12.2784H5.52839ZM26.0919 13.8238C25.3526 13.8238 24.7871 13.1719 24.236 12.6791C24.1941 12.6417 24.1498 12.6058 24.1033 12.5715C23.6992 12.274 23.1506 12.1252 22.4579 12.1252C21.9872 12.1252 21.5897 12.1918 21.2656 12.3251C20.9413 12.4539 20.6926 12.6337 20.5195 12.8646C20.3507 13.0955 20.2663 13.3576 20.2663 13.6507C20.2575 13.8949 20.3085 14.1081 20.4196 14.2902C20.5351 14.4723 20.6926 14.6298 20.8926 14.763C21.0923 14.8919 21.3233 15.0051 21.5853 15.1028C21.8473 15.1961 22.1271 15.276 22.4245 15.3426L23.6503 15.6357C24.2453 15.769 24.7915 15.9465 25.2889 16.1685C25.7863 16.3907 26.217 16.6637 26.5812 16.988C26.9454 17.3121 27.2274 17.694 27.4272 18.1337C27.6315 18.5733 27.7357 19.0774 27.7403 19.6457C27.7357 20.4806 27.5227 21.2045 27.1008 21.8174C26.6833 22.4257 26.0794 22.8986 25.2889 23.2361C24.5029 23.5692 23.5547 23.7358 22.4445 23.7358C21.3433 23.7358 20.3841 23.567 19.5669 23.2294C18.7543 22.8919 18.1192 22.3924 17.6618 21.7307C17.4507 21.4203 17.2864 21.0757 17.1689 20.6968C16.9318 19.9325 17.6076 19.2594 18.4078 19.2594H18.5115C19.2032 19.2594 19.717 19.8528 20.1331 20.4052C20.3685 20.7072 20.6815 20.9359 21.0724 21.0913C21.4676 21.2422 21.9139 21.3177 22.4113 21.3177C22.8998 21.3177 23.3239 21.2467 23.6836 21.1046C24.0477 20.9624 24.3297 20.7648 24.5296 20.5117C24.7294 20.2586 24.8293 19.9677 24.8293 19.639C24.8293 19.3327 24.7382 19.0751 24.5561 18.8663C24.3786 18.6577 24.1165 18.4801 23.7702 18.3335C23.4282 18.1869 23.0086 18.0537 22.5112 17.9338L21.0257 17.5608C19.8756 17.281 18.9674 16.8435 18.3013 16.2485C17.6352 15.6535 17.3043 14.8518 17.3088 13.8439C17.3043 13.0178 17.5242 12.2962 17.9682 11.6789C18.4168 11.0617 19.0318 10.5798 19.8134 10.2334C20.595 9.88706 21.4832 9.71387 22.4779 9.71387C23.4904 9.71387 24.3742 9.88706 25.1291 10.2334C25.8885 10.5798 26.4791 11.0617 26.9009 11.6789C27.0552 11.9047 27.1822 12.1436 27.2819 12.3955C27.5774 13.1426 26.8954 13.8238 26.0919 13.8238Z" fill="#1e66f5"/>
</svg>
