<svg width="33" height="33" viewBox="0 0 33 33" fill="none" xmlns="http://www.w3.org/2000/svg">
<g clip-path="url(#clip0_2_935)">
<path d="M21.5589 18.2643C21.9556 19.6899 21.1308 21.1719 19.7424 21.5285L19.0062 21.7174C18.9495 22.0936 18.9202 22.4796 18.9202 22.8729C18.9202 23.2845 18.9523 23.6879 19.0142 24.0804L19.6941 24.2502C21.0962 24.6008 21.9298 26.0979 21.5215 27.533L21.2868 28.3585C21.8403 28.8628 22.4709 29.2723 23.1573 29.5636L23.779 28.8852C24.7728 27.801 26.4393 27.8013 27.433 28.8859L28.0615 29.5722C28.7464 29.2841 29.3766 28.8785 29.9303 28.3785L29.6807 27.4816C29.284 26.0558 30.1088 24.5738 31.4972 24.2174L32.2327 24.0285C32.2894 23.6523 32.3188 23.2663 32.3188 22.8729C32.3188 22.4614 32.2866 22.0578 32.2247 21.6653L31.5454 21.4955C30.1432 21.1451 29.3098 19.648 29.7181 18.2127L29.9526 17.3879C29.3992 16.8833 28.7684 16.4738 28.082 16.1824L27.4606 16.8605C26.4668 17.9449 24.8001 17.9445 23.8066 16.8599L23.178 16.1736C22.493 16.4615 21.8628 16.867 21.3091 17.367L21.5589 18.2643ZM25.6195 24.8344C24.6104 24.8344 23.7924 23.9562 23.7924 22.8729C23.7924 21.7897 24.6104 20.9115 25.6195 20.9115C26.6285 20.9115 27.4465 21.7897 27.4465 22.8729C27.4465 23.9562 26.6285 24.8344 25.6195 24.8344Z" fill="#6C7086"/>
<path fill-rule="evenodd" clip-rule="evenodd" d="M5.68513 9.90038C5.02844 9.90038 4.49609 10.4327 4.49609 11.0894C4.49609 11.7461 5.02844 12.2784 5.68512 12.2784H6.67267C7.77724 12.2784 8.67267 13.1739 8.67267 14.2784V22.1171C8.67267 22.9044 9.3109 23.5426 10.0982 23.5426C10.8855 23.5426 11.5237 22.9044 11.5237 22.1171V14.2784C11.5237 13.1739 12.4191 12.2784 13.5237 12.2784H14.5113C15.1679 12.2784 15.7003 11.7461 15.7003 11.0894C15.7003 10.4327 15.1679 9.90038 14.5113 9.90038H5.68513ZM24.26 12.5715C24.2883 12.5924 24.3158 12.6138 24.3424 12.6359C24.9408 13.1315 25.5381 13.8238 26.3151 13.8238H26.4699C26.6094 13.8238 26.7466 13.7878 26.8749 13.7332C27.3111 13.5475 27.6762 13.1368 27.5388 12.6832C27.4299 12.3238 27.2695 11.989 27.0576 11.6789C26.6358 11.0617 26.0452 10.5798 25.2858 10.2334C24.5309 9.88706 23.6471 9.71387 22.6346 9.71387C21.6399 9.71387 20.7517 9.88706 19.9702 10.2334C19.1885 10.5798 18.5735 11.0617 18.1249 11.6789C17.6809 12.2962 17.461 13.0178 17.4656 13.8439C17.461 14.8518 17.7919 15.6535 18.458 16.2485C18.6007 16.3759 18.8214 16.3124 18.9136 16.1448C19.066 15.8678 19.2653 15.6134 19.5078 15.3945C19.827 15.1062 20.1662 14.839 20.5233 14.5959C20.6218 14.5288 20.6402 14.3908 20.5763 14.2902C20.4652 14.1081 20.4142 13.8949 20.423 13.6507C20.423 13.3576 20.5074 13.0955 20.6763 12.8646C20.8494 12.6337 21.098 12.4539 21.4223 12.3251C21.7464 12.1918 22.1439 12.1252 22.6146 12.1252C23.3073 12.1252 23.8559 12.274 24.26 12.5715ZM17.1133 19.4565C17.1194 19.5712 17.2595 19.6226 17.3473 19.5483C17.4527 19.4592 17.3939 19.2594 17.2558 19.2594H17.2466C17.1694 19.2594 17.1071 19.323 17.1105 19.4002C17.1114 19.419 17.1123 19.4378 17.1133 19.4565Z" fill="#1e66f5"/>
</g>
<defs>
<clipPath id="clip0_2_935">
<rect width="32.1566" height="32.1566" fill="white" transform="translate(0.162354 0.0961914)"/>
</clipPath>
</defs>
</svg>
