<svg width="33" height="33" viewBox="0 0 33 33" fill="none" xmlns="http://www.w3.org/2000/svg">
<mask id="mask0_2_945" style="mask-type:luminance" maskUnits="userSpaceOnUse" x="4" y="4" width="25" height="25">
<path d="M28.6358 4.271H4.51831V28.3884H28.6358V4.271Z" fill="white"/>
</mask>
<g mask="url(#mask0_2_945)">
<path d="M17.3943 22.6736C17.3943 19.6463 19.8484 17.1924 22.8755 17.1924C25.9027 17.1924 28.3567 19.6463 28.3567 22.6736C28.3567 25.7007 25.9027 28.1548 22.8755 28.1548C19.8484 28.1548 17.3943 25.7007 17.3943 22.6736Z" fill="#7F849C"/>
<path d="M17.3945 10.0791C17.3945 7.05194 19.8486 4.5979 22.8758 4.5979C25.9029 4.5979 28.357 7.05194 28.357 10.0791V15.0123C28.357 15.315 28.1115 15.5604 27.8088 15.5604H17.9427C17.64 15.5604 17.3945 15.315 17.3945 15.0123V10.0791Z" fill="#F5E0DC"/>
<path d="M15.701 22.6736C15.701 25.7007 13.247 28.1548 10.2198 28.1548C7.19256 28.1548 4.73853 25.7007 4.73853 22.6736V17.7405C4.73853 17.4377 4.98392 17.1924 5.28665 17.1924H15.1528C15.4556 17.1924 15.701 17.4377 15.701 17.7405V22.6736Z" fill="#45475A"/>
</g>
</svg>
