<svg width="33" height="33" viewBox="0 0 33 33" fill="none" xmlns="http://www.w3.org/2000/svg">
<mask id="mask0_145_1138" style="mask-type:luminance" maskUnits="userSpaceOnUse" x="4" y="4" width="25" height="25">
<path d="M28.1358 4.271H4.01831V28.3884H28.1358V4.271Z" fill="white"/>
</mask>
<g mask="url(#mask0_145_1138)">
<path d="M16.8945 22.6736C16.8945 19.6463 19.3486 17.1924 22.3758 17.1924C25.4029 17.1924 27.857 19.6463 27.857 22.6736C27.857 25.7007 25.4029 28.1548 22.3758 28.1548C19.3486 28.1548 16.8945 25.7007 16.8945 22.6736Z" fill="#7F849C"/>
<path d="M16.8945 10.0791C16.8945 7.05194 19.3486 4.5979 22.3758 4.5979C25.4029 4.5979 27.857 7.05194 27.857 10.0791V15.0123C27.857 15.315 27.6115 15.5604 27.3088 15.5604H17.4427C17.14 15.5604 16.8945 15.315 16.8945 15.0123V10.0791Z" fill="#DC8A78"/>
<path d="M15.2012 22.6736C15.2012 25.7007 12.7472 28.1548 9.72001 28.1548C6.6928 28.1548 4.23877 25.7007 4.23877 22.6736V17.7405C4.23877 17.4377 4.48416 17.1924 4.78689 17.1924H14.6531C14.9559 17.1924 15.2012 17.4377 15.2012 17.7405V22.6736Z" fill="#45475A"/>
</g>
</svg>
