<svg width="33" height="33" viewBox="0 0 33 33" fill="none" xmlns="http://www.w3.org/2000/svg">
<mask id="mask0_2_953" style="mask-type:luminance" maskUnits="userSpaceOnUse" x="4" y="4" width="25" height="25">
<path d="M4.67651 4.271H28.794V28.3884H4.67651V4.271Z" fill="#CDD6F4"/>
</mask>
<g mask="url(#mask0_2_953)">
<path d="M20.0147 26.1695L27.057 6.68258C27.1534 6.34493 26.9605 6.10376 26.6228 6.10376L21.1241 6.63434C20.7864 6.68258 20.4005 6.97199 20.2558 7.30963L13.7924 25.9283C13.6477 26.2659 13.8407 26.5553 14.2265 26.5553H19.5805C19.7735 26.5553 19.9182 26.4106 20.0147 26.2177V26.1695Z" fill="#7F849C"/>
<g filter="url(#filter0_f_2_953)">
<path d="M19.2429 26.216L16.3005 17.8231L16.7347 17.5337L19.7252 26.1677L19.2429 26.216Z" fill="#F5E0DC"/>
</g>
<path d="M6.84591 6.10376L12.3447 6.63434C12.6823 6.68258 13.0682 6.97199 13.2129 7.30963L19.8211 26.2177C19.8693 26.4106 19.7729 26.5553 19.6282 26.5553H14.2259C13.84 26.5553 13.5023 26.2659 13.3576 25.9283L6.4118 6.68258C6.31533 6.34493 6.50827 6.10376 6.84591 6.10376Z" fill="#1e66f5"/>
</g>
<defs>
<filter id="filter0_f_2_953" x="-13.0998" y="-11.8666" width="62.2252" height="67.483" filterUnits="userSpaceOnUse" color-interpolation-filters="sRGB">
<feFlood flood-opacity="0" result="BackgroundImageFix"/>
<feBlend mode="normal" in="SourceGraphic" in2="BackgroundImageFix" result="shape"/>
<feGaussianBlur stdDeviation="14.7002" result="effect1_foregroundBlur_2_953"/>
</filter>
</defs>
</svg>
