<svg width="33" height="33" viewBox="0 0 33 33" fill="none" xmlns="http://www.w3.org/2000/svg">
<path fill-rule="evenodd" clip-rule="evenodd" d="M5.98495 8.2908H27.4227V24.3691H5.98495V8.2908ZM3.30524 8.2908C3.30524 6.81083 4.50499 5.61108 5.98495 5.61108H27.4227C28.9027 5.61108 30.1024 6.81083 30.1024 8.2908V24.3691C30.1024 25.8491 28.9027 27.0488 27.4227 27.0488H5.98495C4.50499 27.0488 3.30524 25.8491 3.30524 24.3691V8.2908ZM13.3542 19.8353V12.8256C13.3542 12.0625 14.1714 11.5778 14.841 11.9438L21.2537 15.4482C21.951 15.8292 21.9511 16.8307 21.2538 17.2118L14.841 20.717C14.1714 21.0831 13.3542 20.5985 13.3542 19.8353Z" fill="#5C5F77"/>
</svg>
