<svg width="33" height="33" viewBox="0 0 33 33" fill="none" xmlns="http://www.w3.org/2000/svg">
<path fill-rule="evenodd" clip-rule="evenodd" d="M5.48489 8.2908H26.9226V24.3691H5.48489V8.2908ZM2.80518 8.2908C2.80518 6.81083 4.00493 5.61108 5.48489 5.61108H26.9226C28.4026 5.61108 29.6023 6.81083 29.6023 8.2908V24.3691C29.6023 25.8491 28.4026 27.0488 26.9226 27.0488H5.48489C4.00493 27.0488 2.80518 25.8491 2.80518 24.3691V8.2908ZM12.8541 19.8353V12.8256C12.8541 12.0625 13.6713 11.5778 14.341 11.9438L20.7537 15.4482C21.4509 15.8292 21.451 16.8307 20.7538 17.2118L14.341 20.717C13.6713 21.0831 12.8541 20.5985 12.8541 19.8353Z" fill="#6C7086"/>
</svg>
