<svg width="33" height="33" viewBox="0 0 33 33" fill="none" xmlns="http://www.w3.org/2000/svg">
<path d="M9.22361 24.67L5.20427 21.6553C5.07896 21.5624 4.97726 21.441 4.90741 21.3013C4.83757 21.1617 4.80152 21.0077 4.80219 20.8516V11.8075C4.80152 11.6514 4.83757 11.4973 4.90741 11.3577C4.97726 11.218 5.07896 11.0968 5.20427 11.0037L9.22361 7.98901C9.11563 8.0904 9.03403 8.2166 8.98589 8.35668C8.93776 8.49677 8.92454 8.64647 8.94738 8.79281V23.8662C8.92454 24.0127 8.93776 24.1623 8.98589 24.3024C9.03403 24.4425 9.11563 24.5686 9.22361 24.67Z" fill="#7E22CE"/>
<path d="M28.472 8.45748C28.3064 8.34871 28.1125 8.29104 27.9143 8.29169C27.786 8.29064 27.6585 8.31495 27.5396 8.3632C27.4206 8.41143 27.3123 8.48266 27.2209 8.5728L27.1509 8.64327L22.8797 12.7383L19.1318 16.3307L14.6949 20.5864L10.59 24.5205L10.5196 24.5909C10.4282 24.6813 10.32 24.7525 10.201 24.8009C10.082 24.8491 9.9546 24.8735 9.82617 24.8724C9.60878 24.872 9.39733 24.8014 9.22325 24.6712L5.20392 21.6565C5.40811 21.8099 5.6631 21.8797 5.91696 21.8517C6.17083 21.8237 6.40447 21.7001 6.57032 21.5058L8.82154 18.8932L11.0321 16.3258L14.6949 12.0751L21.1112 4.62356C21.2044 4.51321 21.3206 4.42456 21.4516 4.36383C21.5827 4.30309 21.7255 4.27175 21.8698 4.27198C22.068 4.27133 22.262 4.329 22.4276 4.43779L28.472 8.45748Z" fill="#9333EA"/>
<path d="M28.472 24.2041L22.4426 28.2238C22.2376 28.3578 21.9911 28.4131 21.7483 28.3799C21.5055 28.3466 21.2831 28.2271 21.1215 28.0428L14.6949 20.5865L11.0321 16.326L8.82154 13.7635L6.57032 11.1505C6.40298 10.9582 6.16913 10.8364 5.91569 10.8094C5.66224 10.7824 5.40798 10.8523 5.20392 11.005L9.22325 7.99033C9.39733 7.8601 9.60878 7.78953 9.82617 7.7891C9.9546 7.788 10.082 7.81232 10.201 7.86063C10.32 7.90894 10.4282 7.9803 10.5196 8.07059L10.59 8.14105L14.6949 12.0752L19.1318 16.3308L22.885 19.9285L27.1509 24.0182L27.2209 24.0888C27.3123 24.1789 27.4206 24.25 27.5396 24.2983C27.6585 24.3465 27.786 24.3709 27.9143 24.3698C28.1125 24.3705 28.3064 24.3129 28.472 24.2041Z" fill="#8839EF"/>
<path d="M28.9206 9.29604V23.3647C28.9207 23.5307 28.88 23.6939 28.8019 23.8403C28.7239 23.9866 28.611 24.1114 28.4732 24.2038L22.4437 28.2233C22.5817 28.131 22.6945 28.0061 22.7725 27.8598C22.8505 27.7134 22.8912 27.5501 22.8911 27.3842V5.27671C22.889 5.10963 22.8455 4.94564 22.7649 4.79928C22.6844 4.65291 22.5689 4.52865 22.4287 4.4375L28.4732 8.45721C28.6106 8.54983 28.7232 8.67472 28.8012 8.82097C28.8792 8.9672 28.9202 9.13033 28.9206 9.29604Z" fill="#8839EF"/>
<path opacity="0.4" d="M28.9206 9.29604V23.3647C28.9207 23.5307 28.88 23.6939 28.8019 23.8403C28.7239 23.9866 28.611 24.1114 28.4732 24.2038L22.4437 28.2233C22.5817 28.131 22.6945 28.0061 22.7725 27.8598C22.8505 27.7134 22.8912 27.5501 22.8911 27.3842V5.27671C22.889 5.10963 22.8455 4.94564 22.7649 4.79928C22.6844 4.65291 22.5689 4.52865 22.4287 4.4375L28.4732 8.45721C28.6106 8.54983 28.7232 8.67472 28.8012 8.82097C28.8792 8.9672 28.9202 9.13033 28.9206 9.29604Z" fill="#7E22CE"/>
</svg>
