<svg width="33" height="33" viewBox="0 0 33 33" fill="none" xmlns="http://www.w3.org/2000/svg">
<path d="M8.72342 24.67L4.70409 21.6553C4.57877 21.5624 4.47708 21.441 4.40723 21.3013C4.33738 21.1617 4.30134 21.0077 4.30201 20.8516V11.8075C4.30134 11.6514 4.33738 11.4973 4.40723 11.3577C4.47708 11.218 4.57877 11.0968 4.70409 11.0037L8.72342 7.98901C8.61544 8.0904 8.53385 8.2166 8.48571 8.35668C8.43758 8.49677 8.42435 8.64647 8.4472 8.79281V23.8662C8.42435 24.0127 8.43758 24.1623 8.48571 24.3024C8.53385 24.4425 8.61544 24.5686 8.72342 24.67Z" fill="#7E22CE"/>
<path d="M27.9719 8.45748C27.8063 8.34871 27.6124 8.29104 27.4143 8.29169C27.2859 8.29064 27.1585 8.31495 27.0395 8.3632C26.9205 8.41143 26.8123 8.48266 26.7209 8.5728L26.6508 8.64327L22.3796 12.7383L18.6318 16.3307L14.1948 20.5864L10.09 24.5205L10.0195 24.5909C9.92818 24.6813 9.81991 24.7525 9.70091 24.8009C9.58191 24.8491 9.45454 24.8735 9.32611 24.8724C9.10872 24.872 8.89727 24.8014 8.72319 24.6712L4.70386 21.6565C4.90805 21.8099 5.16304 21.8797 5.4169 21.8517C5.67077 21.8237 5.90441 21.7001 6.07026 21.5058L8.32147 18.8932L10.532 16.3258L14.1948 12.0751L20.6111 4.62356C20.7044 4.51321 20.8205 4.42456 20.9516 4.36383C21.0826 4.30309 21.2254 4.27175 21.3698 4.27198C21.5679 4.27133 21.7619 4.329 21.9275 4.43779L27.9719 8.45748Z" fill="#9333EA"/>
<path d="M27.9719 24.2041L21.9425 28.2238C21.7375 28.3578 21.491 28.4131 21.2482 28.3799C21.0054 28.3466 20.783 28.2271 20.6214 28.0428L14.1948 20.5865L10.532 16.326L8.32147 13.7635L6.07026 11.1505C5.90292 10.9582 5.66906 10.8364 5.41563 10.8094C5.16218 10.7824 4.90792 10.8523 4.70386 11.005L8.72319 7.99033C8.89727 7.8601 9.10872 7.78953 9.32611 7.7891C9.45454 7.788 9.58191 7.81232 9.70091 7.86063C9.81991 7.90894 9.92818 7.9803 10.0195 8.07059L10.09 8.14105L14.1948 12.0752L18.6318 16.3308L22.385 19.9285L26.6508 24.0182L26.7209 24.0888C26.8123 24.1789 26.9205 24.25 27.0395 24.2983C27.1585 24.3465 27.2859 24.3709 27.4143 24.3698C27.6124 24.3705 27.8063 24.3129 27.9719 24.2041Z" fill="#8839ef"/>
<path d="M28.4206 9.29604V23.3647C28.4207 23.5307 28.38 23.6939 28.3019 23.8403C28.2239 23.9866 28.111 24.1114 27.9732 24.2038L21.9437 28.2233C22.0817 28.131 22.1945 28.0061 22.2725 27.8598C22.3505 27.7134 22.3912 27.5501 22.3911 27.3842V5.27671C22.389 5.10963 22.3455 4.94564 22.2649 4.79928C22.1844 4.65291 22.0689 4.52865 21.9287 4.4375L27.9732 8.45721C28.1106 8.54983 28.2232 8.67472 28.3012 8.82097C28.3792 8.9672 28.4202 9.13033 28.4206 9.29604Z" fill="#8839ef"/>
<path opacity="0.4" d="M28.4206 9.29604V23.3647C28.4207 23.5307 28.38 23.6939 28.3019 23.8403C28.2239 23.9866 28.111 24.1114 27.9732 24.2038L21.9437 28.2233C22.0817 28.131 22.1945 28.0061 22.2725 27.8598C22.3505 27.7134 22.3912 27.5501 22.3911 27.3842V5.27671C22.389 5.10963 22.3455 4.94564 22.2649 4.79928C22.1844 4.65291 22.0689 4.52865 21.9287 4.4375L27.9732 8.45721C28.1106 8.54983 28.2232 8.67472 28.3012 8.82097C28.3792 8.9672 28.4202 9.13033 28.4206 9.29604Z" fill="#7E22CE"/>
</svg>
