<svg width="33" height="33" viewBox="0 0 33 33" fill="none" xmlns="http://www.w3.org/2000/svg">
<path d="M27.3752 7.84585L16.4992 28.1044C16.2747 28.5227 15.6977 28.5251 15.4698 28.1089L4.37815 7.84781C4.12985 7.39422 4.5022 6.8448 4.99564 6.93667L15.8833 8.96387C15.9528 8.9768 16.0239 8.97668 16.0933 8.96349L26.7533 6.93958C27.245 6.84621 27.6192 7.39137 27.3752 7.84585Z" fill="#8839ef"/>
<path d="M21.0692 4.27792L13.0207 5.9207C12.8884 5.94772 12.7905 6.06448 12.7825 6.20463L12.2874 14.9149C12.2758 15.12 12.4566 15.2793 12.6489 15.2331L14.8896 14.6943C15.0993 14.6439 15.2888 14.8363 15.2457 15.056L14.5799 18.4518C14.5351 18.6804 14.7412 18.8759 14.9554 18.8081L16.3395 18.3701C16.5541 18.3022 16.7603 18.4982 16.7148 18.7269L15.6568 24.0611C15.5907 24.3948 16.0167 24.5767 16.1943 24.2907L16.313 24.0996L22.8714 10.4658C22.9813 10.2375 22.7919 9.97721 22.5513 10.0256L20.2446 10.4893C20.0279 10.5328 19.8434 10.3226 19.9047 10.1017L21.4101 4.66535C21.4713 4.44409 21.2862 4.23363 21.0692 4.27792Z" fill="#df8e1d"/>
</svg>
