<svg width="34" height="33" viewBox="0 0 34 33" fill="none" xmlns="http://www.w3.org/2000/svg">
<path fill-rule="evenodd" clip-rule="evenodd" d="M17.5462 21.1821C17.5462 21.6118 18.0114 21.8804 18.3837 21.6655L22.0271 19.5619C22.1998 19.4622 22.3062 19.2779 22.3062 19.0785V14.8714C22.3062 14.4417 21.841 14.173 21.4688 14.3879L17.8253 16.4915C17.6526 16.5912 17.5462 16.7754 17.5462 16.9749V21.1821ZM20.9105 13.4209C21.2827 13.2061 21.2827 12.6689 20.9105 12.454L17.2671 10.3504C17.0943 10.2507 16.8815 10.2507 16.7088 10.3504L13.0052 12.4887C12.633 12.7036 12.633 13.2408 13.0052 13.4557L16.6487 15.5592C16.8214 15.6589 17.0341 15.6589 17.2069 15.5592L20.9105 13.4209ZM12.5071 14.4575C12.1349 14.2426 11.6697 14.5111 11.6697 14.9409V19.0785C11.6697 19.2779 11.7761 19.4622 11.9488 19.5619L15.5923 21.6655C15.9644 21.8804 16.4297 21.6118 16.4297 21.1821V17.0445C16.4297 16.845 16.3232 16.6607 16.1505 16.5609L12.5071 14.4575Z" fill="#1e66f5"/>
<path d="M8.29306 10.6656L9.95913 11.6275C10.1319 11.7273 10.3447 11.7273 10.5174 11.6275L16.1495 8.37585C16.3223 8.27612 16.4287 8.09182 16.4287 7.89237V5.96854C16.4287 5.53878 15.9635 5.27017 15.5913 5.48505L8.29306 9.69867C7.92087 9.91356 7.92087 10.4508 8.29306 10.6656Z" fill="#93C5FD"/>
<path d="M17.5461 5.96854V7.89236C17.5461 8.09181 17.6525 8.27611 17.8252 8.37583L23.4575 11.6275C23.6302 11.7273 23.8429 11.7273 24.0156 11.6275L25.6818 10.6656C26.054 10.4508 26.054 9.91356 25.6818 9.69867L18.3836 5.48505C18.0113 5.27017 17.5461 5.53878 17.5461 5.96854Z" fill="#93C5FD"/>
<path d="M24.2949 13.0777V19.5811C24.2949 19.7806 24.4013 19.9649 24.574 20.0646L26.2401 21.0265C26.6123 21.2414 27.0775 20.9728 27.0775 20.5431V12.1158C27.0775 11.686 26.6123 11.4174 26.2401 11.6323L24.574 12.5942C24.4013 12.6939 24.2949 12.8782 24.2949 13.0777Z" fill="#93C5FD"/>
<path d="M23.4575 21.0326L17.8252 24.2843C17.6525 24.384 17.5461 24.5684 17.5461 24.7678V26.6917C17.5461 27.1213 18.0113 27.39 18.3836 27.1751L25.6818 22.9615C26.054 22.7466 26.054 22.2094 25.6818 21.9945L24.0156 21.0326C23.8429 20.9328 23.6302 20.9328 23.4575 21.0326Z" fill="#93C5FD"/>
<path d="M16.1497 24.2842L10.5177 21.0325C10.3449 20.9328 10.1321 20.9328 9.95938 21.0325L8.29329 21.9945C7.92112 22.2093 7.92112 22.7466 8.29329 22.9615L15.5915 27.1751C15.9637 27.39 16.4289 27.1214 16.4289 26.6916V24.7678C16.4289 24.5683 16.3226 24.384 16.1497 24.2842Z" fill="#93C5FD"/>
<path d="M9.6818 19.5827V13.0794C9.6818 12.8799 9.57539 12.6956 9.40267 12.5959L7.73658 11.634C7.3644 11.4191 6.89917 11.6877 6.89917 12.1175V20.5446C6.89917 20.9744 7.3644 21.2431 7.73658 21.0282L9.40267 20.0663C9.57539 19.9665 9.6818 19.7822 9.6818 19.5827Z" fill="#93C5FD"/>
</svg>
