<svg width="33" height="33" viewBox="0 0 33 33" fill="none" xmlns="http://www.w3.org/2000/svg">
<path d="M9.38199 9.1873C8.63798 7.86861 9.59077 6.23706 11.1049 6.23706V6.23706C11.8376 6.23706 12.5103 6.64205 12.8531 7.28957L16.6602 14.4797C16.6873 14.531 16.7406 14.5631 16.7987 14.5631V14.5631C16.8568 14.5631 16.9101 14.531 16.9372 14.4797L20.7442 7.2896C21.0871 6.64206 21.7598 6.23706 22.4925 6.23706V6.23706C24.0066 6.23706 24.9594 7.86861 24.2154 9.18731L19.4736 17.5918C19.0506 18.3416 18.8283 19.1879 18.8283 20.0487V23.5404C18.8283 24.6613 17.9196 25.57 16.7987 25.57V25.57C15.6778 25.57 14.7691 24.6613 14.7691 23.5404V20.0488C14.7691 19.1879 14.5468 18.3416 14.1238 17.5918L9.38199 9.1873Z" fill="#8839EF"/>
</svg>
