<svg width="33" height="33" viewBox="0 0 33 33" fill="none" xmlns="http://www.w3.org/2000/svg">
<path fill-rule="evenodd" clip-rule="evenodd" d="M8.04973 27.8452C7.81452 27.8176 7.57931 27.7001 7.34408 27.5824C7.23908 27.5299 7.14946 27.4723 7.07522 27.4094C6.81734 27.1915 6.74496 26.9118 6.85806 26.5701C6.9024 26.4362 6.94493 26.2969 7.00799 26.1707C7.06103 26.0648 6.97836 25.9717 6.86136 25.9531C6.46358 25.8897 6.24943 25.6427 6.13414 25.2969C5.48832 23.6177 5.58708 22.311 6.7881 21.0187C6.88706 20.9123 6.97354 20.7939 7.04626 20.6681C7.1376 20.5098 7.20964 20.3851 7.20964 20.1883C7.20964 18.4406 7.47853 16.8272 8.68847 15.3484C9.0918 14.8108 9.62955 14.2729 10.3017 13.8696C10.3908 13.8251 10.4504 13.7806 10.4853 13.7312C10.648 13.5011 10.342 13.2246 10.1857 12.9901C9.8113 12.4285 9.60681 11.8511 9.49511 11.1809C9.38756 10.6431 9.62416 10.1054 9.86078 9.56762C9.87803 9.52842 9.89528 9.48921 9.9124 9.45001C9.99426 9.26252 10.1103 9.05148 10.285 8.94503C10.3904 8.88077 10.4979 8.8833 10.6136 8.8401C10.9296 8.72213 11.1996 8.51814 11.4558 8.32457C11.4573 8.32348 11.4587 8.3224 11.4601 8.32132C11.6703 8.16259 11.871 7.99097 12.0707 7.81932C12.9422 7.07019 13.9333 6.74441 15.1416 6.74441C15.4023 6.74441 15.5367 6.6179 15.5445 6.4876C15.545 6.4796 15.5459 6.4716 15.5478 6.46383C15.5598 6.41652 15.5728 6.3692 15.587 6.3219C15.6584 6.08162 15.7567 5.84134 15.882 5.60108C15.9795 5.41384 16.0934 5.2266 16.2235 5.03937C16.2645 4.98034 16.3071 4.9213 16.3515 4.86227L16.7548 4.45896C16.9607 4.25306 17.2454 4.20483 17.4279 4.37465C17.4311 4.37766 17.4344 4.38071 17.4374 4.38385C17.5534 4.49886 17.6047 4.66352 17.6847 4.80593C17.9022 5.19353 18.0797 5.57639 18.2428 5.92857C18.2482 5.94005 18.2534 5.95149 18.2588 5.9629C18.3424 6.14333 18.4224 6.3154 18.5025 6.47554C18.5037 6.47799 18.5049 6.48042 18.5061 6.48283C18.5078 6.48604 18.5095 6.48922 18.5111 6.49235C18.6687 6.79432 19.0618 6.5281 19.3832 6.41501C19.5625 6.35189 19.6805 6.33469 19.7693 6.37772C19.916 6.44876 19.9833 6.68398 20.1157 7.14773C20.1828 7.42945 20.2392 7.70984 20.2848 7.98889C20.3317 8.27646 20.367 8.5626 20.3908 8.84732C20.5749 11.055 20.0578 13.1773 18.7714 15.2141C18.7041 15.3484 18.6032 15.483 18.5025 15.6174C18.4016 15.7517 18.3008 15.8863 18.2336 16.0206C18.0992 16.2896 18.0992 16.4239 18.3681 16.6929C19.578 17.7684 20.3846 19.2472 20.6535 20.8605C20.684 21.0739 20.7076 21.2942 20.7242 21.5184C20.7267 21.5509 20.7289 21.5835 20.7311 21.6162C20.7624 22.0984 20.762 22.5959 20.73 23.0777C20.7271 23.1226 20.7238 23.1672 20.7202 23.2118C20.7039 23.4181 20.6816 23.6211 20.6535 23.8181C20.62 23.9519 20.6033 24.0524 20.6031 24.1259C20.6026 24.3476 20.7539 24.3224 21.0568 24.2214C21.2361 24.1702 21.4153 24.1141 21.5937 24.0531C21.6615 24.0299 21.7293 24.0061 21.7968 23.9814C22.1145 23.8657 22.428 23.7342 22.7322 23.5872C22.7535 23.5769 22.7746 23.5666 22.7959 23.5561C22.918 23.496 23.0384 23.4333 23.1569 23.368C23.2409 23.3218 23.3238 23.2744 23.4058 23.2256C23.5213 23.1567 23.6347 23.0853 23.7456 23.0115C23.861 22.9456 23.9743 22.8797 24.0863 22.8145C24.6587 22.4816 25.1978 22.1681 25.8024 21.973C26.0452 21.8946 26.2985 21.8354 26.5688 21.8015C26.7086 21.8015 26.8323 21.7854 26.951 21.7698C26.9834 21.7657 27.0153 21.7614 27.0472 21.7577C27.1254 21.7484 27.2029 21.7413 27.2828 21.7418C27.3953 21.7424 27.5126 21.7577 27.6443 21.8015C28.0476 21.936 28.3166 22.3393 28.3166 22.7426C28.3166 23.1459 28.0476 23.4148 27.6443 23.5492C27.429 23.5923 27.2171 23.6456 27.0087 23.7084C26.9437 23.7279 26.8792 23.7483 26.8148 23.7696C26.7323 23.7969 26.6503 23.8257 26.5688 23.8559C26.4448 23.9017 26.322 23.9506 26.2006 24.0026C25.74 24.1993 25.2977 24.4376 24.8739 24.704C24.8344 24.7288 24.795 24.7538 24.7557 24.7793C24.502 24.943 24.2549 25.1167 24.0144 25.2969C23.3351 25.7725 22.5869 26.1795 21.8223 26.5176C21.7898 26.532 21.7575 26.5462 21.7251 26.5602C21.3731 26.713 21.0183 26.8511 20.6654 26.9749C20.4296 27.0576 20.1946 27.1338 19.9621 27.2035C19.7081 27.2797 19.444 27.3109 19.2172 27.4482C19.0966 27.5213 18.9855 27.6282 18.8644 27.7005C18.5014 27.9172 18.1318 27.9776 17.7144 28.0457C17.5793 28.0679 17.439 28.0908 17.2926 28.1201C17.178 28.1306 17.0644 28.141 16.9515 28.1513C15.6049 28.2746 14.355 28.389 12.9905 28.389C12.9072 28.389 12.824 28.389 12.7395 28.3878C12.7162 28.3875 12.6936 28.3954 12.6751 28.4097C12.6502 28.429 12.6257 28.4468 12.6019 28.4629C12.598 28.4655 12.5927 28.4645 12.5901 28.4605C12.5883 28.4578 12.5882 28.4544 12.5898 28.4516C12.5926 28.4467 12.5954 28.4417 12.5982 28.4368C12.6114 28.4135 12.595 28.3845 12.5681 28.3835C12.5581 28.3831 12.548 28.3827 12.5379 28.3823C12.2717 28.3708 11.9857 28.3394 11.6461 28.2546C11.5399 28.2191 11.4336 28.1744 11.3323 28.1204C11.254 28.0786 11.1786 28.0311 11.1084 27.9782C11.0063 27.9012 10.9152 27.8123 10.8421 27.7117C10.7837 27.6313 10.7369 27.5434 10.7051 27.4479C10.609 27.0639 10.6502 26.7484 10.8285 26.5014C10.8388 26.4872 10.8495 26.4732 10.8607 26.4595C10.9977 26.2907 11.2306 26.2501 11.4324 26.1689C11.4348 26.1679 11.4372 26.1669 11.4396 26.1659C11.4498 26.1618 11.4598 26.1578 11.4695 26.1536C11.5121 26.136 11.524 26.0378 11.4854 26.0126C11.3754 25.9406 11.2925 25.8609 11.219 25.7555C11.2099 25.7425 11.2009 25.729 11.1921 25.7151C11.131 25.6195 11.0874 25.465 10.9739 25.465C10.8605 25.465 10.8107 25.6166 10.7739 25.7239C10.773 25.7266 10.772 25.7293 10.7711 25.7321C10.7708 25.733 10.7705 25.734 10.7702 25.7349C10.7441 25.813 10.7246 25.891 10.7051 25.9691C10.6986 25.9951 10.6921 26.0211 10.6853 26.0471C10.6276 26.2697 10.542 26.485 10.4599 26.6997C10.2832 27.1618 10.0603 27.484 9.76711 27.6824C9.72003 27.7143 9.67114 27.7429 9.62033 27.7685C9.57563 27.791 9.52946 27.811 9.48173 27.8287C9.27821 27.9041 9.04655 27.9363 8.78153 27.9288C8.61758 27.9242 8.44089 27.9044 8.25017 27.8701C8.18392 27.8582 8.11658 27.8531 8.04973 27.8452ZM7.80648 30.513C7.00474 30.4304 6.35372 30.0884 6.17924 29.9966C6.16466 29.9889 6.15342 29.983 6.14569 29.9792C5.50735 29.66 4.66898 29.0394 4.29774 27.9257C4.14758 27.4751 3.9761 27.0255 3.77299 26.5961C3.71017 26.4634 3.6583 26.3344 3.61537 26.2127C3.1928 25.0994 2.918 23.8382 3.13634 22.4969C3.24605 21.8229 3.46745 21.2051 3.7754 20.6376C4.19643 19.8616 4.53631 19.0336 4.66358 18.16C4.87763 16.6907 5.4 15.1538 6.57899 13.6952C6.93346 13.2288 7.05987 12.6221 6.93431 12.0499C6.90574 11.9197 6.8803 11.7885 6.85772 11.6562C6.67115 10.6577 6.90229 9.80499 7.08347 9.28735C7.17813 9.01689 7.28462 8.76998 7.36145 8.59438C7.38238 8.54654 7.40103 8.50412 7.41792 8.4657C7.47299 8.34043 7.50934 8.25774 7.54481 8.16909C7.67958 7.83213 7.88139 7.52608 8.13802 7.26946C8.1403 7.26718 8.14347 7.26398 8.14746 7.25992C8.19983 7.20694 8.39504 7.00942 8.62668 6.83568C8.75512 6.73935 9.02707 6.54582 9.41695 6.40047C9.57404 6.34191 9.72738 6.27187 9.86117 6.17084L9.86656 6.16677C9.9191 6.1271 9.98901 6.07431 10.0692 6.0161C10.8121 5.31859 11.6237 4.82403 12.4945 4.50732C13.1711 4.26121 13.7757 3.83045 14.2077 3.25444C14.2838 3.153 14.367 3.05709 14.4567 2.96743L14.86 2.56412C15.4294 1.99461 16.3653 1.48421 17.5044 1.61078C18.6714 1.74044 19.5295 2.4789 19.9577 3.38282C20.0756 3.58925 20.2792 3.72974 20.5069 3.79817C20.6198 3.83212 20.7348 3.87425 20.8511 3.92595C21.9139 4.39829 22.31 5.31727 22.4192 5.57932C22.5355 5.85851 22.6274 6.18238 22.6788 6.36404C22.6837 6.3812 22.6882 6.39709 22.6924 6.41156C22.7033 6.44983 22.7134 6.48834 22.7226 6.52706C23.3914 9.33568 23.1954 12.0926 22.0633 14.7093C21.7057 15.5359 21.7765 16.4906 22.2098 17.2802C22.9463 18.6223 24.6493 19.3587 26.1662 19.1517C26.1895 19.1485 26.2129 19.1455 26.2364 19.1425C26.3338 19.1303 26.4319 19.1235 26.5301 19.1222C26.5312 19.122 26.5323 19.1219 26.5335 19.1217C26.5514 19.1196 26.5658 19.1177 26.5924 19.1142C26.6041 19.1126 26.618 19.1109 26.6356 19.1086C26.6829 19.1025 26.757 19.0929 26.8399 19.0846C27.226 19.046 27.8067 19.031 28.4917 19.2594C30.0463 19.7776 30.9963 21.2472 30.9963 22.7426C30.9963 24.687 29.57 25.7319 28.4917 26.0914C28.3864 26.1265 28.2788 26.1551 28.1698 26.1769C27.3582 26.3393 26.5163 26.7702 25.6224 27.4407C25.5989 27.4582 25.5752 27.4755 25.5512 27.4922C24.1556 28.4692 22.5754 29.1806 21.0935 29.6578C20.6919 29.7872 20.3114 29.9748 19.9321 30.1597C19.0403 30.5945 18.1404 30.7068 17.8843 30.7389C17.8505 30.743 17.828 30.7458 17.8181 30.7478C17.7246 30.7665 17.6301 30.7803 17.5351 30.7888C17.4169 30.7996 17.2985 30.8104 17.1796 30.8214C15.851 30.9432 14.4832 31.0687 12.9905 31.0687H12.9594C12.5302 31.0689 11.8554 31.0691 10.9962 30.8542C10.9297 30.8376 10.8638 30.8184 10.7987 30.7967C10.2892 30.627 9.74484 30.5595 9.20914 30.5972C8.7026 30.6328 8.22342 30.586 7.80648 30.513ZM12.5064 28.6247C12.5093 28.6235 12.5099 28.6234 12.5064 28.6247V28.6247ZM20.885 5.24804C20.8901 5.2586 20.8949 5.2683 20.8994 5.27713C20.8987 5.27574 20.894 5.26543 20.885 5.24804ZM9.08674 11.4812C9.09226 11.4784 9.09778 11.4756 9.10333 11.4728L9.10158 11.4737C9.09809 11.4755 9.09311 11.478 9.08674 11.4812Z" fill="#1e66f5"/>
</svg>
