<svg width="33" height="36" viewBox="0 0 33 36" fill="none" xmlns="http://www.w3.org/2000/svg">
<g filter="url(#filter0_d_2_208)">
<path d="M26.9353 7.82516C27.1601 7.92918 27.2979 8.16063 27.2821 8.40781L26.6354 18.5635C26.5959 19.1842 25.7544 19.3421 25.4924 18.7781L19.3089 5.46153C19.0736 4.95468 19.598 4.42961 20.1051 4.66431L26.9353 7.82516ZM21.6585 24.2146C21.7737 24.4937 21.6635 24.815 21.4012 24.9646L16.2136 27.9246C16.0293 28.0298 15.8032 28.0298 15.6189 27.9246L10.4313 24.9646C10.169 24.815 10.0588 24.4937 10.174 24.2146L11.0282 22.1443C11.1209 21.9197 11.3399 21.7731 11.5829 21.7731H20.2495C20.4925 21.7731 20.7115 21.9196 20.8042 22.1442L21.6585 24.2146ZM15.3613 11.756C15.5652 11.2603 16.2672 11.2603 16.4711 11.756L18.69 17.1507C18.8525 17.5455 18.5621 17.9789 18.1352 17.9789H13.6973C13.2703 17.9789 12.9799 17.5455 13.1424 17.1507L15.3613 11.756ZM6.33297 18.7774C6.07077 19.3415 5.2292 19.183 5.19007 18.5622L4.55 8.40755C4.53443 8.1605 4.67217 7.92924 4.89682 7.82528L11.7264 4.66474C12.2337 4.42999 12.7581 4.95532 12.5225 5.46217L6.33297 18.7774Z" fill="#F9E2AF"/>
</g>
<defs>
<filter id="filter0_d_2_208" x="-3.53015" y="0" width="40.1566" height="40.1565" filterUnits="userSpaceOnUse" color-interpolation-filters="sRGB">
<feFlood flood-opacity="0" result="BackgroundImageFix"/>
<feColorMatrix in="SourceAlpha" type="matrix" values="0 0 0 0 0 0 0 0 0 0 0 0 0 0 0 0 0 0 127 0" result="hardAlpha"/>
<feOffset dy="4"/>
<feGaussianBlur stdDeviation="2"/>
<feComposite in2="hardAlpha" operator="out"/>
<feColorMatrix type="matrix" values="0 0 0 0 0 0 0 0 0 0 0 0 0 0 0 0 0 0 0.25 0"/>
<feBlend mode="normal" in2="BackgroundImageFix" result="effect1_dropShadow_2_208"/>
<feBlend mode="normal" in="SourceGraphic" in2="effect1_dropShadow_2_208" result="shape"/>
</filter>
</defs>
</svg>
