<svg width="33" height="33" viewBox="0 0 33 33" fill="none" xmlns="http://www.w3.org/2000/svg">
<path fill-rule="evenodd" clip-rule="evenodd" d="M8.0237 18.6442C7.66434 19.8425 7.4858 20.4411 7.52958 21.0096C7.57103 21.5108 7.7346 21.9927 8.00528 22.4097C8.31166 22.8809 8.81157 23.2294 9.81366 23.9254L14.2355 27.0023C15.1283 27.6224 15.5751 27.9338 16.0577 28.0552C16.4839 28.1633 16.9297 28.1633 17.357 28.0588C17.8408 27.9385 18.2899 27.6297 19.1862 27.0131L23.6563 23.9302C24.6677 23.2318 25.1745 22.8846 25.4855 22.4085C25.758 21.9898 25.9215 21.5045 25.9601 20.9999C26.005 20.4266 25.8195 19.8245 25.4532 18.6178L21.5371 5.75726C21.347 5.13227 21.2525 4.82096 21.0705 4.58899C20.9102 4.38523 20.7029 4.22725 20.4681 4.12987C20.2033 4.01929 19.8899 4.01929 19.2621 4.01929H14.1584C13.5283 4.01929 13.2116 4.01929 12.9455 4.13228C12.7099 4.22987 12.5021 4.38875 12.3419 4.59381C12.1599 4.82698 12.0666 5.14068 11.88 5.76807L8.0237 18.6442ZM19.4614 6.74883C19.6112 6.94354 19.6894 7.20917 19.8427 7.73441L23.2049 19.2584C21.9419 18.575 20.5863 18.0968 19.185 17.8401L16.9964 10.1202C16.9785 10.0593 16.9423 10.006 16.8931 9.96819C16.8441 9.93034 16.7846 9.90992 16.7235 9.90992C16.6624 9.90992 16.6029 9.93034 16.5539 9.96819C16.5047 10.006 16.4685 10.0593 16.4506 10.1202L14.2874 17.8341C12.8798 18.0903 11.5183 18.5702 10.2502 19.2572L13.6297 7.7332C13.7829 7.20556 13.86 6.94235 14.0109 6.74764C14.1446 6.57576 14.3185 6.44235 14.5144 6.35942C14.7377 6.26567 15.0015 6.26567 15.529 6.26567H17.9421C18.4697 6.26567 18.7346 6.26567 18.9581 6.35942C19.1539 6.44235 19.3266 6.57576 19.4614 6.74883ZM16.8548 20.6394C18.1288 20.6394 19.2356 20.3028 19.7896 19.8076C19.8881 20.131 19.9231 20.4719 19.8924 20.8098C19.8617 21.1476 19.7661 21.4756 19.6112 21.774C19.2564 22.459 18.7415 22.7992 18.2773 23.1056C17.6945 23.4915 17.1934 23.8245 17.1934 24.7163C17.1934 25.0106 17.258 25.292 17.3743 25.5407C16.9817 25.3705 16.6463 25.0827 16.4104 24.7137C16.1744 24.3447 16.0485 23.911 16.0485 23.4674V23.4122C16.0485 22.7968 16.0497 22.0384 15.217 22.0384C15.1012 22.0382 14.9865 22.0619 14.8796 22.1078C14.7727 22.1539 14.6754 22.2216 14.5935 22.3068C14.5115 22.3922 14.4466 22.4933 14.4021 22.6049C14.3577 22.7164 14.3348 22.8359 14.3345 22.9566C13.3993 21.9795 13.4811 20.5733 13.4811 20.5733C13.4811 20.286 13.5087 19.8389 13.632 19.4482C13.9798 20.1309 15.2907 20.6394 16.8548 20.6394Z" fill="#FAB387"/>
</svg>
