<svg width="33" height="37" viewBox="0 0 33 37" fill="none" xmlns="http://www.w3.org/2000/svg">
<g filter="url(#filter0_d_2_212)">
<path d="M7.48282 12.0579C7.48282 11.3179 6.88294 10.718 6.14296 10.718C5.40298 10.718 4.8031 11.3179 4.8031 12.0579V20.097C4.8031 20.837 5.40298 21.4369 6.14296 21.4369C6.88294 21.4369 7.48282 20.837 7.48282 20.097V12.0579Z" fill="#6C7086"/>
<path d="M12.8421 9.37843C12.8421 8.63845 12.2422 8.03857 11.5022 8.03857C10.7622 8.03857 10.1624 8.63845 10.1624 9.37843V22.777C10.1624 23.517 10.7622 24.1169 11.5022 24.1169C12.2422 24.1169 12.8421 23.517 12.8421 22.777V9.37843Z" fill="#6C7086"/>
<path d="M18.2006 5.35915C18.2006 4.61916 17.6007 4.01929 16.8607 4.01929C16.1207 4.01929 15.5209 4.61916 15.5209 5.35915V26.7969C15.5209 27.5369 16.1207 28.1367 16.8607 28.1367C17.6007 28.1367 18.2006 27.5369 18.2006 26.7969V5.35915Z" fill="#6C7086"/>
<path d="M23.5609 9.37843C23.5609 8.63845 22.9611 8.03857 22.2211 8.03857C21.4811 8.03857 20.8812 8.63845 20.8812 9.37843V22.777C20.8812 23.517 21.4811 24.1169 22.2211 24.1169C22.9611 24.1169 23.5609 23.517 23.5609 22.777V9.37843Z" fill="#6C7086"/>
<path d="M28.9203 12.0579C28.9203 11.3179 28.3204 10.718 27.5805 10.718C26.8405 10.718 26.2406 11.3179 26.2406 12.0579V20.097C26.2406 20.837 26.8405 21.4369 27.5805 21.4369C28.3204 21.4369 28.9203 20.837 28.9203 20.097V12.0579Z" fill="#6C7086"/>
</g>
<defs>
<filter id="filter0_d_2_212" x="-3.21704" y="0" width="40.1566" height="40.1565" filterUnits="userSpaceOnUse" color-interpolation-filters="sRGB">
<feFlood flood-opacity="0" result="BackgroundImageFix"/>
<feColorMatrix in="SourceAlpha" type="matrix" values="0 0 0 0 0 0 0 0 0 0 0 0 0 0 0 0 0 0 127 0" result="hardAlpha"/>
<feOffset dy="4"/>
<feGaussianBlur stdDeviation="2"/>
<feComposite in2="hardAlpha" operator="out"/>
<feColorMatrix type="matrix" values="0 0 0 0 0 0 0 0 0 0 0 0 0 0 0 0 0 0 0.25 0"/>
<feBlend mode="normal" in2="BackgroundImageFix" result="effect1_dropShadow_2_212"/>
<feBlend mode="normal" in="SourceGraphic" in2="effect1_dropShadow_2_212" result="shape"/>
</filter>
</defs>
</svg>
