<svg width="33" height="33" viewBox="0 0 33 33" fill="none" xmlns="http://www.w3.org/2000/svg">
<path d="M16.9443 5.35902C16.5594 4.69238 15.5972 4.69237 15.2122 5.35899L11.3829 11.9909C10.9284 12.7781 11.696 13.7793 12.5993 13.6783C14.1112 13.5092 15.6574 13.5947 17.1729 13.9523L18.2171 14.1989C18.7545 14.3258 19.0874 14.8642 18.9606 15.4016L17.5216 21.5029C17.3949 22.0403 16.8566 22.3733 16.3192 22.2467L15.2717 22.0001C13.1484 21.4988 11.0961 22.3803 9.9157 23.9475C9.58354 24.3886 8.9923 24.6042 8.49533 24.3636L8.42817 24.3311C7.93102 24.0905 7.71779 23.4873 8.02518 23.0284C9.46939 20.8724 12.0336 19.5566 14.7632 19.8184C15.313 19.8712 15.8521 19.5458 15.9789 19.0082L16.4657 16.9442C16.5925 16.4066 16.2596 15.8634 15.7129 15.7843C12.6271 15.3379 9.47202 16.1754 7.00475 18.1286C4.53677 20.0813 2.99692 22.96 2.72353 26.0667C2.67512 26.6169 3.1274 27.0655 3.67969 27.0655H27.7448C28.5146 27.0655 28.9957 26.2321 28.6108 25.5655L16.9443 5.35902Z" fill="#89B4FA"/>
</svg>
