<svg width="35" height="36" viewBox="0 0 35 36" fill="none" xmlns="http://www.w3.org/2000/svg">
<g filter="url(#filter0_d_2_220)">
<path d="M18.9443 5.35902C18.5594 4.69238 17.5972 4.69237 17.2122 5.35899L13.3829 11.9909C12.9284 12.7781 13.696 13.7793 14.5993 13.6783C16.1112 13.5092 17.6574 13.5947 19.1729 13.9523L20.2171 14.1989C20.7545 14.3258 21.0874 14.8642 20.9606 15.4016L19.5216 21.5029C19.3949 22.0403 18.8566 22.3733 18.3192 22.2467L17.2717 22.0001C15.1484 21.4988 13.0961 22.3803 11.9157 23.9475C11.5835 24.3886 10.9923 24.6042 10.4953 24.3636L10.4282 24.3311C9.93102 24.0905 9.71779 23.4873 10.0252 23.0284C11.4694 20.8724 14.0336 19.5566 16.7632 19.8185C17.313 19.8712 17.8521 19.5458 17.9789 19.0082L18.4657 16.9442C18.5925 16.4066 18.2596 15.8634 17.7129 15.7843C14.6271 15.3379 11.472 16.1754 9.00475 18.1286C6.53677 20.0813 4.99692 22.96 4.72353 26.0667C4.67512 26.6169 5.1274 27.0655 5.67969 27.0655H29.7448C30.5146 27.0655 30.9957 26.2321 30.6108 25.5655L18.9443 5.35902Z" fill="#89B4FA"/>
</g>
<defs>
<filter id="filter0_d_2_220" x="-2" y="0" width="40.1566" height="40.1565" filterUnits="userSpaceOnUse" color-interpolation-filters="sRGB">
<feFlood flood-opacity="0" result="BackgroundImageFix"/>
<feColorMatrix in="SourceAlpha" type="matrix" values="0 0 0 0 0 0 0 0 0 0 0 0 0 0 0 0 0 0 127 0" result="hardAlpha"/>
<feOffset dy="4"/>
<feGaussianBlur stdDeviation="2"/>
<feComposite in2="hardAlpha" operator="out"/>
<feColorMatrix type="matrix" values="0 0 0 0 0 0 0 0 0 0 0 0 0 0 0 0 0 0 0.25 0"/>
<feBlend mode="normal" in2="BackgroundImageFix" result="effect1_dropShadow_2_220"/>
<feBlend mode="normal" in="SourceGraphic" in2="effect1_dropShadow_2_220" result="shape"/>
</filter>
</defs>
</svg>
