<svg width="33" height="33" viewBox="0 0 33 33" fill="none" xmlns="http://www.w3.org/2000/svg">
<path d="M6.5945 8.93331C6.5945 6.96002 8.19417 5.36035 10.1674 5.36035C10.8252 5.36035 11.3584 5.89357 11.3584 6.55134C11.3584 7.20909 10.8252 7.74232 10.1674 7.74232C9.50969 7.74232 8.97647 8.27555 8.97647 8.93331V13.6239C8.97647 14.5628 8.61062 15.4325 7.99926 16.0792C8.61062 16.726 8.97647 17.5957 8.97647 18.5345V23.2251C8.97647 23.883 9.50969 24.4161 10.1674 24.4161C10.8252 24.4161 11.3584 24.9493 11.3584 25.6071C11.3584 26.2648 10.8252 26.7981 10.1674 26.7981C8.19417 26.7981 6.5945 25.1984 6.5945 23.2251V18.5345C6.5945 17.988 6.22255 17.5117 5.69237 17.379L5.11465 17.2346C4.58447 17.1022 4.21252 16.6257 4.21252 16.0792C4.21252 15.5327 4.58447 15.0562 5.11465 14.9239L5.69237 14.7794C6.22255 14.6468 6.5945 14.1705 6.5945 13.6239V8.93331ZM25.6503 8.93331C25.6503 6.96002 24.0506 5.36035 22.0773 5.36035C21.4195 5.36035 20.8863 5.89357 20.8863 6.55134C20.8863 7.20909 21.4195 7.74232 22.0773 7.74232C22.7351 7.74232 23.2683 8.27555 23.2683 8.93331V13.6239C23.2683 14.5628 23.6342 15.4325 24.2455 16.0792C23.6342 16.726 23.2683 17.5957 23.2683 18.5345V23.2251C23.2683 23.883 22.7351 24.4161 22.0773 24.4161C21.4195 24.4161 20.8863 24.9493 20.8863 25.6071C20.8863 26.2648 21.4195 26.7981 22.0773 26.7981C24.0506 26.7981 25.6503 25.1984 25.6503 23.2251V18.5345C25.6503 17.988 26.0222 17.5117 26.5524 17.379L27.13 17.2346C27.6603 17.1022 28.0323 16.6257 28.0323 16.0792C28.0323 15.5327 27.6603 15.0562 27.13 14.9239L26.5524 14.7794C26.0222 14.6468 25.6503 14.1705 25.6503 13.6239V8.93331Z" fill="#F9E2AF"/>
</svg>
