<svg width="33" height="35" viewBox="0 0 33 35" fill="none" xmlns="http://www.w3.org/2000/svg">
<g filter="url(#filter0_d_2_234)">
<path d="M6.43849 8.93258C6.43849 6.95929 8.03816 5.35962 10.0114 5.35962C10.6692 5.35962 11.2024 5.89284 11.2024 6.55061C11.2024 7.20836 10.6692 7.74159 10.0114 7.74159C9.35369 7.74159 8.82047 8.27482 8.82047 8.93258V13.6232C8.82047 14.562 8.45462 15.4317 7.84325 16.0785C8.45462 16.7252 8.82047 17.5949 8.82047 18.5338V23.2244C8.82047 23.8822 9.35369 24.4154 10.0114 24.4154C10.6692 24.4154 11.2024 24.9486 11.2024 25.6063C11.2024 26.2641 10.6692 26.7974 10.0114 26.7974C8.03816 26.7974 6.43849 25.1977 6.43849 23.2244V18.5338C6.43849 17.9872 6.06655 17.5109 5.53636 17.3783L4.95865 17.2338C4.42846 17.1015 4.05652 16.625 4.05652 16.0785C4.05652 15.532 4.42846 15.0555 4.95865 14.9231L5.53636 14.7787C6.06655 14.646 6.43849 14.1697 6.43849 13.6232V8.93258ZM25.4943 8.93258C25.4943 6.95929 23.8946 5.35962 21.9213 5.35962C21.2635 5.35962 20.7303 5.89284 20.7303 6.55061C20.7303 7.20836 21.2635 7.74159 21.9213 7.74159C22.5791 7.74159 23.1123 8.27482 23.1123 8.93258V13.6232C23.1123 14.562 23.4782 15.4317 24.0895 16.0785C23.4782 16.7252 23.1123 17.5949 23.1123 18.5338V23.2244C23.1123 23.8822 22.5791 24.4154 21.9213 24.4154C21.2635 24.4154 20.7303 24.9486 20.7303 25.6063C20.7303 26.2641 21.2635 26.7974 21.9213 26.7974C23.8946 26.7974 25.4943 25.1977 25.4943 23.2244V18.5338C25.4943 17.9872 25.8662 17.5109 26.3964 17.3783L26.974 17.2338C27.5043 17.1015 27.8763 16.625 27.8763 16.0785C27.8763 15.532 27.5043 15.0555 26.974 14.9231L26.3964 14.7787C25.8662 14.646 25.4943 14.1697 25.4943 13.6232V8.93258Z" fill="#89DCEB"/>
</g>
<defs>
<filter id="filter0_d_2_234" x="-3.96411" y="0" width="40.1566" height="40.1565" filterUnits="userSpaceOnUse" color-interpolation-filters="sRGB">
<feFlood flood-opacity="0" result="BackgroundImageFix"/>
<feColorMatrix in="SourceAlpha" type="matrix" values="0 0 0 0 0 0 0 0 0 0 0 0 0 0 0 0 0 0 127 0" result="hardAlpha"/>
<feOffset dy="4"/>
<feGaussianBlur stdDeviation="2"/>
<feComposite in2="hardAlpha" operator="out"/>
<feColorMatrix type="matrix" values="0 0 0 0 0 0 0 0 0 0 0 0 0 0 0 0 0 0 0.25 0"/>
<feBlend mode="normal" in2="BackgroundImageFix" result="effect1_dropShadow_2_234"/>
<feBlend mode="normal" in="SourceGraphic" in2="effect1_dropShadow_2_234" result="shape"/>
</filter>
</defs>
</svg>
