<svg width="33" height="35" viewBox="0 0 33 35" fill="none" xmlns="http://www.w3.org/2000/svg">
<g filter="url(#filter0_d_2_230)">
<path d="M7.12477 8.93258C7.12477 6.95929 8.72444 5.35962 10.6977 5.35962C11.3555 5.35962 11.8887 5.89284 11.8887 6.55061C11.8887 7.20836 11.3555 7.74159 10.6977 7.74159C10.04 7.74159 9.50674 8.27482 9.50674 8.93258V13.6232C9.50674 14.562 9.1409 15.4317 8.52953 16.0785C9.1409 16.7252 9.50674 17.5949 9.50674 18.5338V23.2244C9.50674 23.8822 10.04 24.4154 10.6977 24.4154C11.3555 24.4154 11.8887 24.9486 11.8887 25.6063C11.8887 26.2641 11.3555 26.7974 10.6977 26.7974C8.72444 26.7974 7.12477 25.1977 7.12477 23.2244V18.5338C7.12477 17.9872 6.75283 17.5109 6.22264 17.3783L5.64492 17.2338C5.11474 17.1015 4.7428 16.625 4.7428 16.0785C4.7428 15.532 5.11474 15.0555 5.64492 14.9231L6.22264 14.7787C6.75283 14.646 7.12477 14.1697 7.12477 13.6232V8.93258ZM26.1805 8.93258C26.1805 6.95929 24.5809 5.35962 22.6075 5.35962C21.9498 5.35962 21.4165 5.89284 21.4165 6.55061C21.4165 7.20836 21.9498 7.74159 22.6075 7.74159C23.2654 7.74159 23.7985 8.27482 23.7985 8.93258V13.6232C23.7985 14.562 24.1644 15.4317 24.7758 16.0785C24.1644 16.7252 23.7985 17.5949 23.7985 18.5338V23.2244C23.7985 23.8822 23.2654 24.4154 22.6075 24.4154C21.9498 24.4154 21.4165 24.9486 21.4165 25.6063C21.4165 26.2641 21.9498 26.7974 22.6075 26.7974C24.5809 26.7974 26.1805 25.1977 26.1805 23.2244V18.5338C26.1805 17.9872 26.5525 17.5109 27.0827 17.3783L27.6603 17.2338C28.1906 17.1015 28.5625 16.625 28.5625 16.0785C28.5625 15.532 28.1906 15.0555 27.6603 14.9231L27.0827 14.7787C26.5525 14.646 26.1805 14.1697 26.1805 13.6232V8.93258Z" fill="#CBA6F7"/>
</g>
<defs>
<filter id="filter0_d_2_230" x="-3.27734" y="0" width="40.1566" height="40.1565" filterUnits="userSpaceOnUse" color-interpolation-filters="sRGB">
<feFlood flood-opacity="0" result="BackgroundImageFix"/>
<feColorMatrix in="SourceAlpha" type="matrix" values="0 0 0 0 0 0 0 0 0 0 0 0 0 0 0 0 0 0 127 0" result="hardAlpha"/>
<feOffset dy="4"/>
<feGaussianBlur stdDeviation="2"/>
<feComposite in2="hardAlpha" operator="out"/>
<feColorMatrix type="matrix" values="0 0 0 0 0 0 0 0 0 0 0 0 0 0 0 0 0 0 0.25 0"/>
<feBlend mode="normal" in2="BackgroundImageFix" result="effect1_dropShadow_2_230"/>
<feBlend mode="normal" in="SourceGraphic" in2="effect1_dropShadow_2_230" result="shape"/>
</filter>
</defs>
</svg>
