<svg width="33" height="35" viewBox="0 0 33 35" fill="none" xmlns="http://www.w3.org/2000/svg">
<g filter="url(#filter0_d_2_224)">
<path d="M6.65443 8.93258C6.65443 6.95929 8.2541 5.35962 10.2274 5.35962C10.8851 5.35962 11.4184 5.89284 11.4184 6.55061C11.4184 7.20836 10.8851 7.74159 10.2274 7.74159C9.56963 7.74159 9.03641 8.27482 9.03641 8.93258V13.6232C9.03641 14.562 8.67056 15.4317 8.0592 16.0785C8.67056 16.7252 9.03641 17.5949 9.03641 18.5338V23.2244C9.03641 23.8822 9.56963 24.4154 10.2274 24.4154C10.8851 24.4154 11.4184 24.9486 11.4184 25.6063C11.4184 26.2641 10.8851 26.7974 10.2274 26.7974C8.2541 26.7974 6.65443 25.1977 6.65443 23.2244V18.5338C6.65443 17.9872 6.28249 17.5109 5.75231 17.3783L5.17459 17.2338C4.64441 17.1015 4.27246 16.625 4.27246 16.0785C4.27246 15.532 4.64441 15.0555 5.17459 14.9231L5.75231 14.7787C6.28249 14.646 6.65443 14.1697 6.65443 13.6232V8.93258ZM25.7102 8.93258C25.7102 6.95929 24.1105 5.35962 22.1372 5.35962C21.4795 5.35962 20.9462 5.89284 20.9462 6.55061C20.9462 7.20836 21.4795 7.74159 22.1372 7.74159C22.7951 7.74159 23.3282 8.27482 23.3282 8.93258V13.6232C23.3282 14.562 23.6941 15.4317 24.3055 16.0785C23.6941 16.7252 23.3282 17.5949 23.3282 18.5338V23.2244C23.3282 23.8822 22.7951 24.4154 22.1372 24.4154C21.4795 24.4154 20.9462 24.9486 20.9462 25.6063C20.9462 26.2641 21.4795 26.7974 22.1372 26.7974C24.1105 26.7974 25.7102 25.1977 25.7102 23.2244V18.5338C25.7102 17.9872 26.0821 17.5109 26.6123 17.3783L27.1899 17.2338C27.7202 17.1015 28.0922 16.625 28.0922 16.0785C28.0922 15.532 27.7202 15.0555 27.1899 14.9231L26.6123 14.7787C26.0821 14.646 25.7102 14.1697 25.7102 13.6232V8.93258Z" fill="#7F849C"/>
</g>
<defs>
<filter id="filter0_d_2_224" x="-3.74719" y="0" width="40.1566" height="40.1565" filterUnits="userSpaceOnUse" color-interpolation-filters="sRGB">
<feFlood flood-opacity="0" result="BackgroundImageFix"/>
<feColorMatrix in="SourceAlpha" type="matrix" values="0 0 0 0 0 0 0 0 0 0 0 0 0 0 0 0 0 0 127 0" result="hardAlpha"/>
<feOffset dy="4"/>
<feGaussianBlur stdDeviation="2"/>
<feComposite in2="hardAlpha" operator="out"/>
<feColorMatrix type="matrix" values="0 0 0 0 0 0 0 0 0 0 0 0 0 0 0 0 0 0 0.25 0"/>
<feBlend mode="normal" in2="BackgroundImageFix" result="effect1_dropShadow_2_224"/>
<feBlend mode="normal" in="SourceGraphic" in2="effect1_dropShadow_2_224" result="shape"/>
</filter>
</defs>
</svg>
