<svg width="35" height="36" viewBox="0 0 35 36" fill="none" xmlns="http://www.w3.org/2000/svg">
<g filter="url(#filter0_d_2_238)">
<path d="M27.975 11.1987C27.9206 11.141 27.863 11.0834 27.8054 11.0291C27.7476 10.9748 27.6934 10.9138 27.6357 10.8595C27.5781 10.8052 27.5237 10.7442 27.4661 10.6899C27.4085 10.6356 27.3542 10.5746 27.2965 10.5203C27.2389 10.466 27.1846 10.405 27.1269 10.3507C27.0693 10.2964 27.015 10.2354 26.9574 10.1811C26.8996 10.1268 26.8454 10.0657 26.7878 10.0115C28.4702 11.665 29.4341 13.9145 29.4708 16.2733C29.4708 21.8939 23.7654 26.4664 16.7506 26.4664C12.8226 26.4664 9.30844 25.0315 6.97131 22.7826L7.14091 22.9522L7.31051 23.1218L7.48011 23.2915L7.64972 23.461L7.81932 23.6306L7.98892 23.8002L8.15853 23.9698C10.4923 26.3138 14.0845 27.8233 18.1075 27.8233C25.1222 27.8233 30.8277 23.2507 30.8277 17.647C30.8277 15.2522 29.7965 12.9829 27.975 11.1987Z" fill="#11111B"/>
<path d="M28.6216 16.2737C28.6216 21.4331 23.3062 25.6154 16.7494 25.6154C10.1926 25.6154 4.8772 21.4331 4.8772 16.2737C4.8772 13.075 6.91244 10.2494 10.0399 8.57372C13.1674 6.89803 15.1145 5.18164 16.7494 5.18164C18.3844 5.18164 19.7819 6.58257 23.4588 8.57372C26.5863 10.2494 28.6216 13.075 28.6216 16.2737Z" fill="#FBF0DF"/>
<path d="M28.6217 16.2736C28.62 15.6108 28.5287 14.9513 28.3503 14.313C27.4243 25.6085 13.6458 26.1512 8.22864 22.7727C10.6638 24.6602 13.6689 25.6627 16.7495 25.6152C23.2962 25.6152 28.6217 21.426 28.6217 16.2736Z" fill="#F6DECE"/>
<path d="M12.1803 7.95296C13.6966 7.0439 15.7114 5.33768 17.6924 5.33429C17.3877 5.23578 17.0697 5.18431 16.7494 5.18164C15.9286 5.18164 15.0534 5.60565 13.951 6.24336C13.5677 6.46723 13.1708 6.71485 12.7502 6.97266C11.9598 7.46111 11.0541 8.01402 10.0365 8.56693C6.80729 10.3138 4.8772 13.1937 4.8772 16.2737C4.8772 16.4094 4.8772 16.5451 4.8772 16.6774C6.93279 9.41495 10.6674 8.86204 12.1803 7.95296Z" fill="#FFFEFC"/>
<path fill-rule="evenodd" clip-rule="evenodd" d="M15.7732 6.03922C15.7778 6.84017 15.6097 7.6327 15.2801 8.36271C14.9505 9.0927 14.4673 9.74299 13.8634 10.2691C13.7684 10.3539 13.843 10.5168 13.9651 10.4693C15.1083 10.0249 16.6517 8.69521 16.0004 6.01209C15.9732 5.85945 15.7732 5.90016 15.7732 6.03922ZM16.543 6.03922C16.9581 6.71642 17.2218 7.47537 17.3161 8.26403C17.4103 9.05268 17.333 9.85239 17.0892 10.6083C17.0486 10.7271 17.1943 10.8288 17.2758 10.7305C18.0186 9.78068 18.6666 7.89468 16.7262 5.85945C16.6278 5.77125 16.4752 5.90694 16.543 6.02566V6.03922ZM17.4793 5.98157C18.1293 6.44171 18.673 7.03589 19.0738 7.72402C19.4746 8.41216 19.7232 9.17825 19.8029 9.97063C19.7994 9.99918 19.8071 10.028 19.8243 10.051C19.8415 10.074 19.867 10.0896 19.8954 10.0944C19.9236 10.0992 19.9528 10.0929 19.9767 10.0768C20.0004 10.0607 20.0172 10.036 20.0233 10.0079C20.3354 8.82412 20.159 6.80583 17.5912 5.75769C17.4556 5.70341 17.3673 5.88658 17.4793 5.96799V5.98157ZM11.2176 9.50931C11.9907 9.27833 12.7065 8.88712 13.3184 8.36111C13.9303 7.83513 14.4246 7.18615 14.7691 6.45645C14.8302 6.33434 15.0235 6.38182 14.993 6.51751C14.4061 9.23116 12.4421 9.79763 11.2209 9.72301C11.0921 9.7264 11.0954 9.54662 11.2176 9.50931Z" fill="#CCBEA7"/>
<path d="M16.7491 26.4668C9.73437 26.4668 4.02893 21.8942 4.02893 16.2735C4.02893 12.8815 6.12522 9.71671 9.63601 7.82054C10.6536 7.27781 11.5254 6.73168 12.3022 6.25341C12.7296 5.98882 13.1332 5.7412 13.5233 5.51055C14.7139 4.80499 15.7315 4.3335 16.7491 4.3335C17.7668 4.3335 18.6555 4.74054 19.7681 5.3986C20.1072 5.59196 20.4465 5.80226 20.8094 6.03292C21.6541 6.5553 22.6073 7.14552 23.8623 7.82054C27.3731 9.71671 29.4694 12.8781 29.4694 16.2735C29.4694 21.8942 23.764 26.4668 16.7491 26.4668ZM16.7491 5.18152C15.9282 5.18152 15.0532 5.60552 13.9507 6.24324C13.5674 6.4671 13.1705 6.71473 12.7499 6.97252C11.9596 7.46098 11.0539 8.01389 10.0363 8.56679C6.80703 10.3137 4.87694 13.1936 4.87694 16.2735C4.87694 21.4261 10.2025 25.6188 16.7491 25.6188C23.2958 25.6188 28.6214 21.4261 28.6214 16.2735C28.6214 13.1936 26.6913 10.3137 23.4586 8.57359C22.1765 7.89516 21.1758 7.25746 20.3652 6.75544C19.9954 6.52816 19.6561 6.31785 19.3475 6.13129C18.3197 5.52072 17.5701 5.18152 16.7491 5.18152Z" fill="#11111B"/>
<path d="M19.1408 18.7499C18.9883 19.374 18.6414 19.9336 18.1502 20.3476C17.7815 20.7051 17.304 20.9295 16.7935 20.9852C16.2675 20.9383 15.7733 20.7134 15.3925 20.3476C14.9063 19.9316 14.5643 19.3723 14.4156 18.7499C14.4107 18.713 14.4143 18.6753 14.4261 18.6401C14.4379 18.6047 14.4577 18.5725 14.4839 18.546C14.5101 18.5195 14.542 18.4992 14.5772 18.4871C14.6124 18.4747 14.65 18.4707 14.687 18.4751H18.8728C18.9095 18.4712 18.9466 18.4757 18.9815 18.4883C19.0162 18.5007 19.0477 18.5211 19.0734 18.5475C19.0992 18.5739 19.1187 18.6059 19.1303 18.641C19.142 18.676 19.1456 18.7132 19.1408 18.7499Z" fill="#B71422"/>
<path d="M15.3934 20.3743C15.7735 20.7403 16.2659 20.9675 16.791 21.0189C17.3149 20.9667 17.8059 20.7397 18.1851 20.3743C18.3064 20.2613 18.4197 20.1401 18.5242 20.0115C18.3153 19.7743 18.0601 19.5826 17.7742 19.4478C17.4884 19.313 17.1781 19.2382 16.8621 19.2278C16.5242 19.2358 16.1933 19.3259 15.8978 19.4901C15.6024 19.6544 15.3513 19.8881 15.1661 20.1708C15.2441 20.2421 15.312 20.3099 15.3934 20.3743Z" fill="#FF6164"/>
<path d="M15.4474 20.1061C15.6157 19.8888 15.8309 19.7124 16.077 19.5902C16.3233 19.468 16.5939 19.4031 16.8687 19.4007C17.3767 19.4156 17.8608 19.6202 18.2256 19.9739C18.3036 19.8891 18.3782 19.8009 18.4495 19.7128C18.0179 19.3017 17.4476 19.068 16.8517 19.0581C16.5334 19.0608 16.2194 19.1339 15.9327 19.2723C15.646 19.4108 15.3933 19.6109 15.1931 19.8585C15.2732 19.9458 15.3582 20.0284 15.4474 20.1061Z" fill="#11111B"/>
<path d="M16.7794 21.189C16.2142 21.1396 15.6822 20.9005 15.27 20.5106C14.7449 20.0666 14.3753 19.4663 14.215 18.7976C14.2035 18.7381 14.2055 18.6768 14.2207 18.6181C14.236 18.5594 14.2642 18.5049 14.3032 18.4585C14.3497 18.4024 14.4084 18.3575 14.4748 18.3276C14.5413 18.2976 14.6137 18.2831 14.6865 18.2854H18.8723C18.9451 18.2839 19.0173 18.2987 19.0836 18.3285C19.1499 18.3585 19.2086 18.4029 19.2556 18.4585C19.2942 18.505 19.322 18.5597 19.3367 18.6183C19.3513 18.6772 19.3526 18.7384 19.3404 18.7976C19.1802 19.4663 18.8105 20.0666 18.2854 20.5106C17.8741 20.8997 17.3435 21.1388 16.7794 21.189ZM14.6865 18.6789C14.6323 18.6789 14.6187 18.7026 14.6153 18.7095C14.7587 19.2893 15.083 19.8085 15.5413 20.1917C15.8764 20.522 16.3121 20.7309 16.7794 20.7854C17.2454 20.7314 17.6808 20.5252 18.0175 20.1986C18.4744 19.8147 18.7975 19.2956 18.9401 18.7163C18.9327 18.7054 18.9225 18.6969 18.9105 18.6914C18.8986 18.686 18.8853 18.684 18.8723 18.6857L14.6865 18.6789Z" fill="#11111B"/>
<path d="M21.9118 18.959C23.0077 18.959 23.8962 18.4366 23.8962 17.7921C23.8962 17.1478 23.0077 16.6252 21.9118 16.6252C20.8158 16.6252 19.9274 17.1478 19.9274 17.7921C19.9274 18.4366 20.8158 18.959 21.9118 18.959Z" fill="#FEBBD0"/>
<path d="M11.6451 18.959C12.7411 18.959 13.6295 18.4366 13.6295 17.7921C13.6295 17.1478 12.7411 16.6252 11.6451 16.6252C10.5492 16.6252 9.66077 17.1478 9.66077 17.7921C9.66077 18.4366 10.5492 18.959 11.6451 18.959Z" fill="#FEBBD0"/>
<path fill-rule="evenodd" clip-rule="evenodd" d="M12.5772 17.3243C12.947 17.325 13.3087 17.2159 13.6165 17.0109C13.9243 16.8059 14.1644 16.5142 14.3064 16.1728C14.4483 15.8313 14.4858 15.4555 14.4141 15.0926C14.3424 14.7299 14.1646 14.3966 13.9034 14.1348C13.6421 13.8731 13.3091 13.6948 12.9465 13.6224C12.5838 13.5499 12.2078 13.5868 11.8661 13.7281C11.5244 13.8695 11.2323 14.109 11.0268 14.4165C10.8213 14.7239 10.7116 15.0854 10.7115 15.4552C10.7115 15.9503 10.908 16.4253 11.2578 16.7756C11.6076 17.126 12.0821 17.3234 12.5772 17.3243ZM20.9793 17.3243C21.3495 17.327 21.7122 17.2197 22.0214 17.0159C22.3305 16.8122 22.5721 16.5212 22.7157 16.1799C22.8592 15.8387 22.8982 15.4624 22.8276 15.0989C22.757 14.7356 22.5801 14.4013 22.3193 14.1385C22.0584 13.8758 21.7254 13.6964 21.3625 13.6232C20.9996 13.5499 20.6231 13.5861 20.2808 13.7272C19.9385 13.8683 19.6459 14.1078 19.4398 14.4155C19.2339 14.7231 19.1238 15.085 19.1238 15.4552C19.1229 15.9488 19.3177 16.4227 19.6656 16.7731C20.0132 17.1233 20.4857 17.3216 20.9793 17.3243Z" fill="#11111B"/>
<path fill-rule="evenodd" clip-rule="evenodd" d="M12.0003 15.5756C12.1393 15.5763 12.2754 15.5357 12.3913 15.4589C12.5072 15.3823 12.5977 15.2728 12.6514 15.1446C12.7051 15.0164 12.7194 14.875 12.6927 14.7386C12.666 14.6022 12.5994 14.4768 12.5014 14.3782C12.4033 14.2797 12.2782 14.2124 12.1419 14.1851C12.0056 14.1578 11.8643 14.1714 11.7357 14.2245C11.6073 14.2776 11.4974 14.3675 11.4201 14.4831C11.3428 14.5986 11.3015 14.7345 11.3015 14.8735C11.3015 15.0591 11.375 15.2372 11.506 15.3687C11.6369 15.5005 11.8146 15.5748 12.0003 15.5756ZM20.4024 15.5756C20.5414 15.5763 20.6775 15.5357 20.7934 15.4589C20.9093 15.3823 20.9999 15.2728 21.0535 15.1446C21.1072 15.0164 21.1215 14.875 21.0949 14.7386C21.0682 14.6022 21.0016 14.4768 20.9035 14.3782C20.8055 14.2797 20.6803 14.2124 20.544 14.1851C20.4078 14.1578 20.2664 14.1714 20.1379 14.2245C20.0094 14.2776 19.8996 14.3675 19.8223 14.4831C19.745 14.5986 19.7037 14.7345 19.7037 14.8735C19.7037 15.058 19.7762 15.235 19.9057 15.3665C20.0352 15.4978 20.2112 15.5729 20.3956 15.5756H20.4024Z" fill="#CDD6F4"/>
</g>
<defs>
<filter id="filter0_d_2_238" x="-2.65088" y="0" width="40.1566" height="40.1565" filterUnits="userSpaceOnUse" color-interpolation-filters="sRGB">
<feFlood flood-opacity="0" result="BackgroundImageFix"/>
<feColorMatrix in="SourceAlpha" type="matrix" values="0 0 0 0 0 0 0 0 0 0 0 0 0 0 0 0 0 0 127 0" result="hardAlpha"/>
<feOffset dy="4"/>
<feGaussianBlur stdDeviation="2"/>
<feComposite in2="hardAlpha" operator="out"/>
<feColorMatrix type="matrix" values="0 0 0 0 0 0 0 0 0 0 0 0 0 0 0 0 0 0 0.25 0"/>
<feBlend mode="normal" in2="BackgroundImageFix" result="effect1_dropShadow_2_238"/>
<feBlend mode="normal" in="SourceGraphic" in2="effect1_dropShadow_2_238" result="shape"/>
</filter>
</defs>
</svg>
