<svg width="33" height="33" viewBox="0 0 33 33" fill="none" xmlns="http://www.w3.org/2000/svg">
<path fill-rule="evenodd" clip-rule="evenodd" d="M18.6829 23.2987C19.2098 23.1034 19.7876 23.0634 20.3361 23.1856C20.7046 23.2677 21.1062 23.3323 21.5503 23.3904C21.8536 23.429 22.1814 23.4486 22.5304 23.4486C23.6408 23.4449 24.411 24.6633 23.5693 25.3875C21.5739 27.1045 19.0172 28.1362 16.2285 28.1362C9.8471 28.1362 4.67334 22.7375 4.67334 16.0782C4.67334 16.0063 4.67278 15.9365 4.67221 15.8677C4.66937 15.5157 4.66675 15.1901 4.74076 14.7812C5.68738 11.4218 7.96115 10.1779 10.1151 10.1567C10.6678 10.1557 10.8568 10.8296 10.5181 11.2663C9.49832 12.5811 8.88699 14.2545 8.88699 16.0779C8.88749 20.3097 12.174 23.7385 16.2282 23.7385C17.0894 23.7385 17.9155 23.5832 18.6829 23.2987ZM13.6283 11.5974C13.1497 11.0733 12.3267 11.126 11.8436 11.646C10.7785 12.7923 10.1216 14.354 10.1185 16.0779C10.1203 17.0726 10.3397 18.0133 10.7296 18.8514C11.3414 20.1668 13.1383 19.6708 13.7777 18.3686C13.9124 18.0941 14.057 17.8048 14.2112 17.4964C14.4566 17.0054 14.7264 16.4657 15.0193 15.86C15.2472 15.3886 15.2787 14.8443 15.09 14.356C15.0885 14.3521 15.087 14.3482 15.0855 14.3442C14.6949 13.3221 14.1313 12.135 13.6283 11.5974ZM15.9948 17.2025C15.9119 16.9006 15.4976 16.8691 15.3757 17.1575C14.9117 18.2546 14.3978 19.5895 14.2101 20.4446C14.1427 20.7493 14.1009 21.1267 14.1017 21.5452C14.1017 21.8611 14.3105 22.139 14.6143 22.2259C15.1283 22.373 15.6693 22.4522 16.2282 22.4532C16.693 22.4523 17.145 22.3967 17.5796 22.2933C17.8458 22.23 17.9181 21.8998 17.7527 21.6818C17.0284 20.7179 16.5864 19.3581 15.9948 17.2025Z" fill="#A6E3A1"/>
<path fill-rule="evenodd" clip-rule="evenodd" d="M10.0154 8.09516C9.28716 8.08828 8.54511 7.04442 9.10868 6.58319C11.0705 4.97768 13.5418 4.01978 16.2283 4.01978C22.6102 4.01978 27.7835 9.419 27.7835 16.0781C27.7835 16.5995 27.7481 17.1118 27.6866 17.6159C27.3724 18.9208 26.8059 19.791 26.1297 20.3854C25.0928 21.2955 23.7095 21.5902 22.4297 21.5896C22.0016 21.5919 21.8073 21.0751 22.0605 20.73C23.007 19.4404 23.5698 17.8279 23.5698 16.0779C23.5692 11.8469 20.2827 8.41798 16.228 8.41746C15.3255 8.41746 14.4616 8.58869 13.6631 8.90002C13.4193 8.99509 13.1455 8.96595 12.9213 8.83109C12.4146 8.5338 11.3586 8.09922 10.0154 8.09516ZM20.2114 20.9066C19.9838 21.1112 19.6503 21.1948 19.3787 21.0538C19.1395 20.946 18.7885 20.5783 18.4693 20.0668C17.9832 19.3033 17.5376 18.2557 17.2246 17.4094C16.9361 16.6336 16.7581 16.0327 16.7291 15.9353C16.7276 15.9302 16.7265 15.9265 16.7258 15.9242C16.7253 15.9224 16.7246 15.9206 16.724 15.9188C16.337 14.3722 15.9413 12.9146 15.3486 11.6771C14.9415 10.827 15.2855 9.70412 16.228 9.70222C19.6024 9.70922 22.3325 12.5576 22.3382 16.0779C22.3346 18.0099 21.5112 19.7382 20.2114 20.9066Z" fill="#89B4FA"/>
</svg>
