<svg width="33" height="33" viewBox="0 0 33 33" fill="none" xmlns="http://www.w3.org/2000/svg">
<path d="M16.279 6.25128C16.1927 5.2479 14.8448 4.98699 14.3903 5.88569L6.45413 21.5786C5.96171 22.5523 7.16255 23.4984 7.99404 22.7919L16.6476 15.4387C16.8942 15.2292 17.0241 14.9133 16.9964 14.5909L16.279 6.25128Z" fill="#89B4FA"/>
<path d="M22.3202 26.7309C23.4197 26.7309 23.7139 25.2148 22.6943 24.8035L12.2208 20.579C11.8761 20.4399 11.4826 20.5036 11.1993 20.7442L6.22663 24.9688C5.51742 25.5713 5.9435 26.7309 6.87408 26.7309H22.3202Z" fill="#A6E3A1"/>
<path d="M25.8103 25.5381C26.6654 25.8836 27.4926 24.9857 27.0782 24.1617L18.8665 7.83102C18.3709 6.84547 16.8788 7.2705 16.977 8.36926L18.1833 21.8699C18.2167 22.2438 18.4567 22.5675 18.8048 22.7081L25.8103 25.5381Z" fill="#F38BA8"/>
</svg>
