<svg width="33" height="33" viewBox="0 0 33 33" fill="none" xmlns="http://www.w3.org/2000/svg">
<g filter="url(#filter0_d_2_306)">
<path d="M18.4723 12.3357C18.8497 13.2633 18.0463 14.1557 17.0449 14.1557H16.8075C16.1103 14.1557 15.5598 13.6144 15.2189 13.0062C15.0311 12.6661 14.79 12.3768 14.4957 12.1383C14.2013 11.8998 13.8612 11.717 13.4755 11.5902C13.0949 11.4633 12.6813 11.3998 12.2347 11.3998C11.4277 11.3998 10.7248 11.6003 10.1259 12.0013C9.52701 12.3971 9.06263 12.9757 8.73275 13.737C8.40286 14.4932 8.23791 15.4119 8.23791 16.4929C8.23791 17.6043 8.40286 18.5381 8.73275 19.2944C9.06771 20.0506 9.53462 20.6215 10.1335 21.0072C10.7324 21.393 11.4252 21.5858 12.2118 21.5858C12.6534 21.5858 13.0619 21.5275 13.4375 21.4107C13.8181 21.294 14.1556 21.1239 14.45 20.9007C14.7443 20.6723 14.9879 20.3957 15.1809 20.0708C15.5396 19.482 16.0941 18.9617 16.7836 18.9649L17.0167 18.9659C18.0337 18.9706 18.83 19.8803 18.3993 20.8018C18.3612 20.8833 18.3212 20.9645 18.2793 21.0453C17.9392 21.705 17.4799 22.2963 16.9014 22.8191C16.3278 23.3367 15.6427 23.7479 14.8459 24.0523C14.0542 24.3518 13.1583 24.5016 12.1585 24.5016C10.7679 24.5016 9.52448 24.1869 8.42824 23.5575C7.33706 22.9282 6.47427 22.0172 5.83987 20.8245C5.21054 19.6319 4.89587 18.1879 4.89587 16.4929C4.89587 14.7926 5.21562 13.3462 5.85509 12.1535C6.49457 10.9608 7.36243 10.0524 8.45868 9.42811C9.55494 8.7988 10.7882 8.48413 12.1585 8.48413C13.0619 8.48413 13.8993 8.61102 14.6708 8.86477C15.4472 9.11853 16.135 9.48902 16.7339 9.97624C17.3327 10.4584 17.82 11.0497 18.1955 11.75C18.2977 11.9379 18.3899 12.1332 18.4723 12.3357Z" fill="#89B4FA"/>
<path d="M26.2989 12.5954C26.9716 12.5954 27.5169 13.1408 27.5169 13.8135C27.5169 14.4862 26.9716 15.0315 26.2989 15.0315H21.5181C20.8454 15.0315 20.3 14.4862 20.3 13.8135C20.3 13.1408 20.8454 12.5954 21.5181 12.5954H26.2989ZM23.5697 24.2888C22.6763 24.2888 21.952 23.5645 21.952 22.671V11.7504C21.952 10.9028 22.1169 10.1999 22.4469 9.64162C22.7819 9.08335 23.2386 8.66465 23.8172 8.3855C24.3957 8.10637 25.0529 7.9668 25.7889 7.9668C26.2863 7.9668 26.7405 8.00486 27.1515 8.08099C27.6772 8.17715 27.9839 8.69259 27.8604 9.21246L27.6141 10.2499C27.5535 10.5049 27.2873 10.6572 27.0298 10.6085C26.847 10.5729 26.6593 10.5552 26.4665 10.5552C25.9894 10.5552 25.6569 10.6668 25.4691 10.8901C25.2814 11.1084 25.1875 11.4154 25.1875 11.8113V22.671C25.1875 23.5645 24.4632 24.2888 23.5697 24.2888Z" fill="#89B4FA"/>
</g>
<defs>
<filter id="filter0_d_2_306" x="-3.59058" y="0.156494" width="40.1566" height="40.1565" filterUnits="userSpaceOnUse" color-interpolation-filters="sRGB">
<feFlood flood-opacity="0" result="BackgroundImageFix"/>
<feColorMatrix in="SourceAlpha" type="matrix" values="0 0 0 0 0 0 0 0 0 0 0 0 0 0 0 0 0 0 127 0" result="hardAlpha"/>
<feOffset dy="4"/>
<feGaussianBlur stdDeviation="2"/>
<feComposite in2="hardAlpha" operator="out"/>
<feColorMatrix type="matrix" values="0 0 0 0 0 0 0 0 0 0 0 0 0 0 0 0 0 0 0.25 0"/>
<feBlend mode="normal" in2="BackgroundImageFix" result="effect1_dropShadow_2_306"/>
<feBlend mode="normal" in="SourceGraphic" in2="effect1_dropShadow_2_306" result="shape"/>
</filter>
</defs>
</svg>
