<svg width="33" height="33" viewBox="0 0 33 33" fill="none" xmlns="http://www.w3.org/2000/svg">
<path d="M16.6494 4.25583C16.2917 4.37504 16.4736 4.24956 12.8408 6.92245C11.084 8.22124 9.44634 9.41965 9.21419 9.58906C8.23539 10.2792 7.41344 11.2329 6.84875 12.3372C5.42446 15.1356 5.90132 18.6618 8.00951 20.9143C8.17892 21.1025 8.74988 21.6233 9.26439 22.0814C9.78515 22.5331 11.4792 24.0452 13.029 25.4319C15.0243 27.2137 15.9529 28.0044 16.1976 28.1236C16.505 28.2742 16.6179 28.293 17.1701 28.293C17.6783 28.293 17.8541 28.2679 18.0798 28.1613C18.3497 28.0357 26.268 22.1567 26.6256 21.8179C26.8765 21.5794 27.1651 20.9896 27.228 20.5755C27.3283 19.9418 27.1714 19.3017 26.7825 18.7748C26.7135 18.6806 25.9981 18.072 25.1887 17.4258C24.3856 16.7795 23.7268 16.2273 23.7268 16.2022C23.7268 16.1772 24.3856 15.6501 25.195 15.0289C26.7699 13.818 26.9707 13.6047 27.159 12.9584C27.2844 12.5129 27.2467 11.7725 27.0711 11.3772C27.0021 11.2141 26.8327 10.9632 26.7009 10.8188C26.3746 10.4549 18.7325 4.5821 18.3183 4.37504C17.9168 4.16799 17.0886 4.11152 16.6494 4.25583ZM21.443 8.97417C23.5825 10.6118 25.3645 12.0235 25.4083 12.1051C25.5715 12.4251 25.4775 12.5255 23.8084 13.8055C22.8737 14.5268 21.5664 14.5133 20.6468 13.7729L20.4767 13.636C19.523 12.8643 18.5943 12.1553 18.4187 12.0612C17.7912 11.7161 17.0007 11.6972 16.3607 12.011C15.9654 12.2055 13.1796 14.3638 12.9412 14.665C12.571 15.1293 12.4769 15.4242 12.4706 16.0893C12.4643 16.6038 12.4831 16.7293 12.6274 17.0304C12.7153 17.2187 12.8659 17.4697 12.96 17.5764C13.1984 17.8587 16.0156 20.0171 16.4109 20.2178C16.6932 20.3684 16.8062 20.3873 17.327 20.3873C17.7599 20.3873 18.0047 20.3559 18.2243 20.268C18.4124 20.199 19.2281 19.6155 20.3261 18.7685C21.3175 18.0093 22.1582 17.3881 22.1959 17.3881C22.2335 17.3881 22.9676 17.9591 23.8334 18.6555C25.4272 19.9355 25.5465 20.061 25.446 20.3684C25.4272 20.4374 23.6515 21.8116 21.3928 23.4994C16.9254 26.8374 17.1639 26.6931 16.7184 26.2977C16.5866 26.1786 15.2941 25.0303 13.8447 23.7377C12.3953 22.4453 10.8455 21.0649 10.3938 20.6759C9.13263 19.5779 8.62439 18.9254 8.22911 17.8901C7.95304 17.1873 7.85265 16.6164 7.85265 15.8007C7.85265 13.7803 8.70596 12.1678 10.4251 10.9443C10.7577 10.7122 12.4078 9.50122 14.0893 8.25262C16.6242 6.38285 17.1953 5.98756 17.3583 5.98756C17.5278 5.98756 18.174 6.45815 21.443 8.97417ZM19.0775 14.8344C19.9371 15.5247 20.6587 16.1082 20.6775 16.1395C20.7089 16.1959 17.7035 18.5426 17.4963 18.6179C17.4399 18.6368 17.3207 18.6305 17.2391 18.5991C17.0948 18.5426 14.7481 16.7795 14.4282 16.4784C14.2212 16.2901 14.1961 15.9826 14.3655 15.7881C14.4595 15.6814 16.6744 13.9623 17.076 13.6863C17.1576 13.6297 17.2956 13.5796 17.3709 13.5796C17.465 13.5796 18.0798 14.0313 19.0775 14.8344Z" fill="#CBA6F7"/>
</svg>
