<svg width="33" height="33" viewBox="0 0 33 33" fill="none" xmlns="http://www.w3.org/2000/svg">
<g clip-path="url(#clip0_2_311)">
<mask id="mask0_2_311" style="mask-type:luminance" maskUnits="userSpaceOnUse" x="1" y="0" width="32" height="33">
<path d="M32.0259 0.15625H1.15552V32.3129H32.0259V0.15625Z" fill="white"/>
</mask>
<g mask="url(#mask0_2_311)">
<path d="M22.8276 19.1614C22.4352 19.1614 22.117 18.8433 22.117 18.4508V14.0167C22.117 13.6243 22.4352 13.3062 22.8276 13.3062C23.2201 13.3062 23.5382 13.6243 23.5382 14.0167V18.4508C23.5382 18.8433 23.2201 19.1614 22.8276 19.1614ZM20.7573 16.974C20.3485 16.974 20.0171 16.6426 20.0171 16.2338C20.0171 15.825 20.3485 15.4936 20.7573 15.4936H24.898C25.3068 15.4936 25.6382 15.825 25.6382 16.2338C25.6382 16.6426 25.3068 16.974 24.898 16.974H20.7573Z" fill="#89B4FA"/>
<path d="M29.2159 19.1614C28.8235 19.1614 28.5054 18.8433 28.5054 18.4509V14.0167C28.5054 13.6243 28.8235 13.3062 29.2159 13.3062C29.6083 13.3062 29.9264 13.6243 29.9264 14.0167V18.4509C29.9264 18.8433 29.6083 19.1614 29.2159 19.1614ZM27.1455 16.974C26.7367 16.974 26.4053 16.6426 26.4053 16.2338C26.4053 15.825 26.7367 15.4936 27.1455 15.4936H31.2862C31.695 15.4936 32.0264 15.825 32.0264 16.2338C32.0264 16.6426 31.695 16.974 31.2862 16.974H27.1455Z" fill="#89B4FA"/>
<path d="M19.0941 11.724C19.4315 12.6212 18.6622 13.4706 17.7037 13.4706H17.5113C16.818 13.4706 16.2712 12.9317 15.9427 12.3211C15.7624 11.9811 15.531 11.6918 15.2484 11.4532C14.9658 11.2147 14.6393 11.032 14.269 10.9051C13.9036 10.7782 13.5066 10.7148 13.0778 10.7148C12.3031 10.7148 11.6283 10.9152 11.0534 11.3162C10.4785 11.7121 10.0327 12.2906 9.71599 13.0519C9.39929 13.8081 9.24095 14.7267 9.24095 15.8077C9.24095 16.9193 9.39929 17.853 9.71599 18.6093C10.0376 19.3655 10.4858 19.9365 11.0607 20.3221C11.6356 20.7079 12.3007 20.9008 13.0559 20.9008C13.4798 20.9008 13.872 20.8424 14.2325 20.7257C14.5979 20.609 14.9219 20.439 15.2045 20.2156C15.4871 19.9872 15.721 19.7106 15.9062 19.3858C16.2519 18.7946 16.8017 18.2767 17.4866 18.2799L17.6783 18.2809C18.6511 18.2855 19.4155 19.1513 19.0282 20.0437C18.9821 20.1498 18.9329 20.2553 18.8807 20.3602C18.5542 21.0201 18.1133 21.6113 17.5578 22.134C17.0072 22.6517 16.3496 23.0628 15.5846 23.3674C14.8244 23.6667 13.9646 23.8165 13.0047 23.8165C11.6697 23.8165 10.476 23.5017 9.42365 22.8724C8.37613 22.2431 7.54785 21.3321 6.93882 20.1395C6.33467 18.9468 6.03259 17.5029 6.03259 15.8077C6.03259 14.1076 6.33955 12.6611 6.95344 11.4684C7.56734 10.2758 8.40049 9.36731 9.45288 8.74306C10.5053 8.11372 11.6892 7.79907 13.0047 7.79907C13.872 7.79907 14.6759 7.92594 15.4165 8.17971C16.1619 8.43347 16.8221 8.80397 17.397 9.29118C17.9719 9.77333 18.4397 10.3646 18.8003 11.065C18.9101 11.2755 19.008 11.4952 19.0941 11.724Z" fill="#89B4FA"/>
</g>
</g>
<defs>
<clipPath id="clip0_2_311">
<rect width="32.1566" height="32.1566" fill="white" transform="translate(0.722656 0.156494)"/>
</clipPath>
</defs>
</svg>
