<svg width="33" height="33" viewBox="0 0 33 33" fill="none" xmlns="http://www.w3.org/2000/svg">
<path fill-rule="evenodd" clip-rule="evenodd" d="M16.3302 4.1756C13.6884 4.17911 11.1425 5.1658 9.18831 6.94353C7.23414 8.72124 6.01164 11.1627 5.75889 13.7924C5.50614 16.422 6.24124 19.0516 7.82102 21.169C9.23607 23.0656 11.2381 24.4296 13.5035 25.0575C13.9645 25.1853 14.3049 25.5917 14.3049 26.0701V27.1308C14.3049 27.7425 14.8503 28.2129 15.4463 28.0754C21.3316 26.7179 26.3343 21.8795 26.73 15.6427C26.8632 13.6646 26.4601 11.6872 25.563 9.91905C24.666 8.15093 23.3083 6.65768 21.6335 5.59682C21.242 5.36022 20.8328 5.15431 20.4095 4.98096L20.2056 4.89937C20.0187 4.82962 19.8306 4.7533 19.6371 4.69541C18.5695 4.34733 17.4531 4.17184 16.3302 4.1756ZM18.5278 8.11423C18.3384 8.09331 18.1468 8.11936 17.9698 8.19004C17.7929 8.26073 17.636 8.37389 17.5132 8.51955C17.3398 8.76172 17.19 9.01995 17.0658 9.29069C16.8743 9.7116 16.8033 10.1773 16.8608 10.6362C16.8929 10.8928 16.9644 11.1416 17.0718 11.3743C17.2283 11.7132 17.6272 11.8572 17.9696 11.7085C18.2078 11.605 18.4317 11.4691 18.6346 11.304C18.9953 11.0105 19.279 10.6333 19.4608 10.2053C19.5897 9.93866 19.6592 9.6473 19.6647 9.35123C19.6711 9.03813 19.5566 8.73461 19.3447 8.50394C19.1329 8.27326 18.8403 8.1345 18.5278 8.11423ZM13.7904 8.17476C13.4866 8.19478 13.2008 8.32589 12.9875 8.54311C12.7741 8.76032 12.6482 9.04843 12.6336 9.35254C12.6391 9.64821 12.7087 9.93916 12.8376 10.2053C13.032 10.6362 13.3269 11.0142 13.6976 11.3076C13.8973 11.4655 14.1157 11.5964 14.3473 11.6977C14.7102 11.8563 15.1304 11.6864 15.272 11.3165C15.4069 10.9643 15.4672 10.5855 15.4462 10.2041C15.4131 9.60422 15.1803 9.03261 14.7852 8.58009C14.6656 8.43622 14.5123 8.32401 14.339 8.25333C14.1658 8.18266 13.9778 8.15567 13.7917 8.17476H13.7904ZM10.6084 11.2975C10.3772 11.306 10.1543 11.386 9.97046 11.5265C9.78661 11.6669 9.65084 11.8609 9.58184 12.0818C9.51285 12.3026 9.51403 12.5394 9.58523 12.7595C9.65643 12.9797 9.79414 13.1723 9.97939 13.3109C10.2214 13.4902 10.4796 13.6466 10.7505 13.778C11.1939 13.9627 11.6759 14.0353 12.154 13.9893C12.393 13.9664 12.6274 13.9142 12.852 13.8345C13.2559 13.6913 13.4321 13.2268 13.2274 12.8503C13.121 12.6544 12.9926 12.4703 12.8444 12.3017C12.5378 11.9528 12.1544 11.6798 11.7243 11.5041C11.4375 11.3742 11.1272 11.304 10.8124 11.2975C10.7445 11.2916 10.6763 11.2916 10.6084 11.2975ZM20.6195 15.2387C20.6183 15.2426 20.6147 15.2453 20.6106 15.2452C20.2568 15.2398 19.9068 15.2977 19.5767 15.4143C19.1711 15.5575 18.9932 16.0233 19.1991 16.4009C19.3052 16.5954 19.4328 16.7783 19.58 16.9459C19.8864 17.2945 20.2695 17.5673 20.6991 17.7431C20.9892 17.8729 21.3025 17.9423 21.6202 17.947C21.869 17.9764 22.1207 17.923 22.3362 17.7953C22.5518 17.6676 22.7194 17.4726 22.8132 17.2402C22.907 17.0079 22.9219 16.7512 22.8553 16.5096C22.7888 16.268 22.6448 16.055 22.4453 15.9033C22.2032 15.7299 21.945 15.5801 21.6742 15.4559C21.3431 15.3151 20.988 15.2392 20.6284 15.2323C20.6243 15.2322 20.6207 15.2349 20.6195 15.2387ZM11.7454 15.3033C11.7454 15.3047 11.7442 15.3059 11.7428 15.3059C11.3817 15.3127 11.0252 15.3886 10.6926 15.5296C10.4058 15.6307 10.1429 15.7897 9.92017 15.9967C9.73541 16.1587 9.6073 16.3755 9.55456 16.6155C9.50182 16.8554 9.52723 17.106 9.62705 17.3305C9.72688 17.555 9.89589 17.7416 10.1094 17.8633C10.3229 17.9848 10.5697 18.0349 10.8137 18.0062C11.129 18.006 11.4402 17.9349 11.7243 17.7983C12.1509 17.6311 12.5288 17.3595 12.8233 17.0084C12.9734 16.8295 13.0994 16.6329 13.1988 16.4236C13.373 16.0572 13.1944 15.6261 12.8144 15.4841C12.4754 15.3574 12.1138 15.2945 11.748 15.3006C11.7466 15.3006 11.7454 15.3018 11.7454 15.3033ZM15.0364 17.2967C15.0357 17.296 15.0346 17.2957 15.0336 17.2959C14.5779 17.3871 14.1512 17.5883 13.7906 17.8816C13.4296 18.1755 13.1459 18.5529 12.9639 18.9814C12.8356 19.2401 12.7659 19.5242 12.76 19.813C12.7543 20.058 12.8232 20.2989 12.9575 20.5039C13.0917 20.7089 13.2851 20.8682 13.512 20.9608C13.7389 21.0533 13.9885 21.0749 14.2278 21.0224C14.4673 20.97 14.685 20.8461 14.8523 20.6671C15.0254 20.4243 15.1752 20.1655 15.2997 19.8946C15.4826 19.4754 15.5544 19.0162 15.5083 18.5613C15.4622 18.1064 15.2998 17.671 15.0367 17.2971C15.0366 17.297 15.0365 17.2968 15.0364 17.2967ZM18.072 17.5489C17.7093 17.3904 17.2893 17.5608 17.1479 17.9305C17.0133 18.2826 16.9531 18.6612 16.9741 19.0423C17.0074 19.6419 17.2396 20.2132 17.6343 20.6657C17.8044 20.8333 18.0186 20.9494 18.2518 21.0007C18.485 21.0519 18.728 21.0363 18.9527 20.9555C19.1775 20.8749 19.375 20.7324 19.5223 20.5445C19.6697 20.3565 19.761 20.1308 19.7858 19.8933C19.7799 19.5977 19.7104 19.3068 19.5819 19.0406C19.3874 18.6096 19.0923 18.2316 18.7213 17.9384C18.5216 17.7807 18.3034 17.6499 18.072 17.5489Z" fill="#A6E3A1"/>
</svg>
