<svg width="33" height="33" viewBox="0 0 33 33" fill="none" xmlns="http://www.w3.org/2000/svg">
<path d="M15.4716 12.5966C15.8018 13.4082 15.0988 14.1891 14.2226 14.1891H14.0149C13.4049 14.1891 12.9232 13.7154 12.6249 13.1833C12.4606 12.8858 12.2497 12.6327 11.9921 12.4239C11.7345 12.2152 11.437 12.0554 11.0995 11.9443C10.7664 11.8333 10.4045 11.7778 10.0137 11.7778C9.30763 11.7778 8.69256 11.9532 8.16854 12.304C7.64453 12.6504 7.2382 13.1567 6.94954 13.8228C6.6609 14.4844 6.51657 15.2882 6.51657 16.2342C6.51657 17.2068 6.6609 18.0238 6.94954 18.6856C7.24264 19.3472 7.6512 19.8468 8.1752 20.1843C8.69922 20.5218 9.3054 20.6905 9.99373 20.6905C10.3801 20.6905 10.7376 20.6395 11.0662 20.5374C11.3992 20.4351 11.6946 20.2864 11.9521 20.0911C12.2097 19.8912 12.4228 19.6492 12.5916 19.365C12.9055 18.8497 13.3908 18.3944 13.9942 18.3971L14.198 18.3981C15.0879 18.4021 15.7847 19.1981 15.4078 20.0043C15.3744 20.0757 15.3394 20.1468 15.3027 20.2176C15.0052 20.7949 14.6033 21.3122 14.0971 21.7696C13.5952 22.2227 12.9957 22.5823 12.2985 22.8488C11.6057 23.1108 10.8219 23.2418 9.9471 23.2418C8.73031 23.2418 7.64232 22.9664 6.6831 22.4157C5.72831 21.8652 4.97338 21.068 4.41828 20.0243C3.86761 18.9809 3.59229 17.7174 3.59229 16.2342C3.59229 14.7465 3.87206 13.4809 4.4316 12.4373C4.99114 11.3937 5.75053 10.5988 6.70973 10.0525C7.66895 9.50189 8.74807 9.22656 9.9471 9.22656C10.7376 9.22656 11.4703 9.33758 12.1453 9.55962C12.8248 9.78167 13.4265 10.1058 13.9505 10.5322C14.4745 10.954 14.9008 11.4714 15.2295 12.0842C15.3188 12.2486 15.3995 12.4194 15.4716 12.5966Z" fill="#94E2D5"/>
<path d="M17.9366 11.4946C17.4116 10.5641 18.084 9.41284 19.1524 9.41284C19.6694 9.41284 20.1441 9.69861 20.386 10.1555L23.0725 15.2291C23.0916 15.2653 23.1293 15.288 23.1702 15.288C23.2112 15.288 23.2488 15.2653 23.268 15.2291L25.9543 10.1556C26.1962 9.69863 26.6709 9.41284 27.188 9.41284C28.2564 9.41284 28.9288 10.5642 28.4038 11.4947L24.9896 17.5461C24.7358 17.996 24.6024 18.5037 24.6024 19.0202V21.6228C24.6024 22.4138 23.9612 23.055 23.1702 23.055C22.3793 23.055 21.7381 22.4138 21.7381 21.6228V19.0202C21.7381 18.5037 21.6047 17.996 21.3509 17.5461L17.9366 11.4946Z" fill="#94E2D5"/>
</svg>
