<svg width="33" height="33" viewBox="0 0 33 33" fill="none" xmlns="http://www.w3.org/2000/svg">
<g filter="url(#filter0_d_2_371)">
<path d="M9.71295 15.6087C10.0025 15.1035 9.8251 14.4637 9.31668 14.1797C8.80827 13.8957 8.16138 14.0751 7.87183 14.5804L4.47287 20.5114C4.18332 21.0168 4.36074 21.6566 4.86916 21.9407C5.37757 22.2246 6.02446 22.0452 6.31401 21.5399L9.71295 15.6087Z" fill="#A6E3A1"/>
<path d="M17.0386 11.0607C17.3282 10.5555 17.1508 9.91562 16.6423 9.63162C16.134 9.34763 15.4871 9.52701 15.1975 10.0323L11.7986 15.9634C11.509 16.4687 11.6864 17.1085 12.1948 17.3925C12.7032 17.6765 13.3501 17.4972 13.6397 16.9918L17.0386 11.0607Z" fill="#A6E3A1"/>
<path d="M28.3131 11.0605C28.6027 10.5552 28.4253 9.91539 27.9168 9.63138C27.4085 9.34738 26.7616 9.52676 26.4719 10.032L23.0729 15.9631C22.7834 16.4684 22.9609 17.1083 23.4693 17.3922C23.9777 17.6763 24.6246 17.4969 24.9142 16.9916L28.3131 11.0605Z" fill="#A6E3A1"/>
<path d="M20.985 15.6087C21.2746 15.1035 21.097 14.4637 20.5887 14.1797C20.0802 13.8957 19.4333 14.0751 19.1438 14.5804L15.7448 20.5114C15.4553 21.0168 15.6327 21.6566 16.1412 21.9407C16.6495 22.2246 17.2964 22.0452 17.5861 21.5399L20.985 15.6087Z" fill="#A6E3A1"/>
</g>
<defs>
<filter id="filter0_d_2_371" x="-3.68677" y="0.313232" width="40.1566" height="40.1565" filterUnits="userSpaceOnUse" color-interpolation-filters="sRGB">
<feFlood flood-opacity="0" result="BackgroundImageFix"/>
<feColorMatrix in="SourceAlpha" type="matrix" values="0 0 0 0 0 0 0 0 0 0 0 0 0 0 0 0 0 0 127 0" result="hardAlpha"/>
<feOffset dy="4"/>
<feGaussianBlur stdDeviation="2"/>
<feComposite in2="hardAlpha" operator="out"/>
<feColorMatrix type="matrix" values="0 0 0 0 0 0 0 0 0 0 0 0 0 0 0 0 0 0 0.25 0"/>
<feBlend mode="normal" in2="BackgroundImageFix" result="effect1_dropShadow_2_371"/>
<feBlend mode="normal" in="SourceGraphic" in2="effect1_dropShadow_2_371" result="shape"/>
</filter>
</defs>
</svg>
