<svg width="33" height="33" viewBox="0 0 33 33" fill="none" xmlns="http://www.w3.org/2000/svg">
<path d="M4.13452 12.4957C4.13452 12.8657 4.43445 13.1657 4.80445 13.1657H8.3111V23.7599C8.3111 24.1298 8.61104 24.4298 8.98103 24.4298H11.832C12.202 24.4298 12.502 24.1298 12.502 23.7599V13.1657H16.0087C16.3786 13.1657 16.6786 12.8657 16.6786 12.4957V10.1177C16.6786 9.74768 16.3786 9.44774 16.0087 9.44774H4.80445C4.43445 9.44774 4.13452 9.74768 4.13452 10.1177V12.4957ZM25.9276 14.1073C25.9617 14.45 26.2499 14.711 26.5942 14.711H29.3587C29.5383 14.711 29.7103 14.6389 29.8363 14.511C29.9622 14.3829 30.0315 14.2098 30.0285 14.0301C30.0133 13.0983 29.7614 12.2532 29.2589 11.5182C28.7605 10.789 28.0695 10.2325 27.2127 9.84154C26.3533 9.44734 25.3708 9.26123 24.2828 9.26123C23.2097 9.26123 22.2268 9.4483 21.3469 9.83825C20.4708 10.2266 19.7572 10.7786 19.2311 11.5024L19.2294 11.505C18.696 12.2464 18.4393 13.108 18.4437 14.0613C18.4393 15.2324 18.8323 16.226 19.6599 16.9655C20.4299 17.6533 21.4473 18.1307 22.6699 18.4284C22.6707 18.4286 22.6715 18.4289 22.6723 18.429L24.153 18.8009L24.1591 18.8024C24.6325 18.9166 25.014 19.0392 25.3112 19.1666L25.3141 19.1678C25.5982 19.288 25.7613 19.4126 25.851 19.5179L25.8563 19.5241C25.9204 19.5975 25.9643 19.6934 25.9643 19.8563C25.9643 20.0375 25.9133 20.1814 25.8086 20.3139C25.6969 20.4555 25.5216 20.5898 25.245 20.6978L25.2424 20.6988C24.9786 20.8029 24.6418 20.8651 24.2162 20.8651C23.7885 20.8651 23.4265 20.8005 23.1206 20.6844C22.8336 20.5694 22.6239 20.4109 22.4699 20.215C22.3331 20.0315 22.2373 19.782 22.2134 19.4313C22.1896 19.0798 21.8975 18.8068 21.5451 18.8068H18.754C18.5737 18.8068 18.401 18.8794 18.275 19.0083C18.1489 19.1374 18.0802 19.3115 18.0842 19.4919C18.1087 20.574 18.3727 21.5305 18.9128 22.3248L18.9157 22.3289C19.453 23.1064 20.195 23.6835 21.115 24.0655C22.0305 24.4436 23.0812 24.623 24.2496 24.623C25.4238 24.623 26.4657 24.4472 27.3552 24.0703L27.357 24.0695C28.2448 23.6905 28.9574 23.1433 29.4582 22.4136C29.965 21.6769 30.2101 20.8185 30.2152 19.8667L30.215 19.8578C30.2101 19.2111 30.091 18.6107 29.8408 18.0712C29.6021 17.5467 29.2641 17.0899 28.8316 16.7049C28.4104 16.33 27.9199 16.021 27.3669 15.7742C26.8257 15.5325 26.2381 15.3421 25.6063 15.2003L24.3853 14.9084L24.3759 14.9061C24.1042 14.8454 23.8525 14.7733 23.6196 14.6906C23.3994 14.6082 23.216 14.517 23.0649 14.4201C22.9388 14.3354 22.8529 14.2457 22.7938 14.1542C22.7619 14.1 22.7361 14.0214 22.7408 13.8924C22.741 13.8842 22.7412 13.876 22.7412 13.868C22.7412 13.7147 22.7818 13.5928 22.8628 13.4806C22.9482 13.3683 23.0866 13.2568 23.3179 13.165L23.3251 13.162C23.546 13.0713 23.8512 13.0125 24.2629 13.0125C24.8659 13.0125 25.2585 13.1424 25.5109 13.3283C25.7497 13.5041 25.8915 13.7426 25.9276 14.1073Z" fill="#89B4FA"/>
</svg>
