<svg width="33" height="33" viewBox="0 0 33 33" fill="none" xmlns="http://www.w3.org/2000/svg">
<g filter="url(#filter0_d_2_378)">
<path fill-rule="evenodd" clip-rule="evenodd" d="M18.3124 9.55811C20.1134 11.5969 20.1549 13.7691 18.4378 16.125C16.5656 18.6934 16.2947 19.2013 16.2947 20.1404C16.2947 21.2723 16.9757 22.2654 18.4817 23.3297L19.2891 23.9001C19.4579 24.0193 19.6595 24.0833 19.8661 24.0833H23.8842C26.9542 24.0833 28.2993 24.0046 28.4921 23.813C28.6871 23.6189 28.7641 22.133 28.7641 18.5519V13.9918C28.7641 13.7169 28.6509 13.4541 28.4512 13.2653L27.4604 12.3281C25.2032 10.1931 22.8621 9.19262 19.3599 8.86657L18.6951 8.80465C18.2851 8.76647 18.0397 9.24953 18.3124 9.55811ZM15.3231 11.0917C13.4988 13.727 10.2025 15.2801 6.4082 15.2915C5.36168 15.2947 5.06739 15.3792 4.87785 15.7312C4.56952 16.304 4.56952 23.0748 4.87785 23.6476C5.10027 24.0604 5.40793 24.0833 10.7036 24.0833H15.2821C15.6632 24.0833 15.8586 23.6266 15.5954 23.351C14.4537 22.1551 14.1036 21.2541 14.2104 19.7863C14.3082 18.4439 14.3796 18.3072 16.4612 15.4841C17.7315 13.7615 17.8809 12.453 16.9653 11.0703C16.6166 10.5437 16.2567 10.1127 16.166 10.1127C16.0752 10.1127 15.6959 10.5532 15.3231 11.0917Z" fill="#FAB387"/>
</g>
<defs>
<filter id="filter0_d_2_378" x="-3.37354" y="0.313232" width="40.1566" height="40.1565" filterUnits="userSpaceOnUse" color-interpolation-filters="sRGB">
<feFlood flood-opacity="0" result="BackgroundImageFix"/>
<feColorMatrix in="SourceAlpha" type="matrix" values="0 0 0 0 0 0 0 0 0 0 0 0 0 0 0 0 0 0 127 0" result="hardAlpha"/>
<feOffset dy="4"/>
<feGaussianBlur stdDeviation="2"/>
<feComposite in2="hardAlpha" operator="out"/>
<feColorMatrix type="matrix" values="0 0 0 0 0 0 0 0 0 0 0 0 0 0 0 0 0 0 0.25 0"/>
<feBlend mode="normal" in2="BackgroundImageFix" result="effect1_dropShadow_2_378"/>
<feBlend mode="normal" in="SourceGraphic" in2="effect1_dropShadow_2_378" result="shape"/>
</filter>
</defs>
</svg>
