<svg width="33" height="33" viewBox="0 0 33 33" fill="none" xmlns="http://www.w3.org/2000/svg">
<path d="M17.5435 11.4263L14.7374 16.2965H14.7184L11.9408 11.4738L17.5435 11.4263Z" fill="#83FF50" stroke="#83FF50" stroke-width="0.163067" stroke-miterlimit="5.3333"/>
<mask id="mask0_2_380" style="mask-type:luminance" maskUnits="userSpaceOnUse" x="4" y="5" width="16" height="8">
<path d="M19.4542 12.3031H4.38684V5.6731H19.4542V12.3031Z" fill="#CDD6F4"/>
</mask>
<g mask="url(#mask0_2_380)">
<g opacity="0.83">
<path d="M17.5692 11.3988L17.5597 11.4178H17.5502V11.4274L11.938 11.4749V11.4654H6.31624L6.2782 11.3988L9.10333 6.50952H14.7536L17.5692 11.3988Z" fill="#96FF5B" fill-opacity="0.6471"/>
</g>
</g>
<path d="M17.5556 11.4187L14.7495 16.2889H14.74L17.5461 11.4187H17.5556Z" fill="#CDD6F4"/>
<path d="M14.7528 16.3589L14.7433 16.378L11.9277 21.2484H6.28692L3.46179 16.3589L6.28692 11.4697H6.31546L9.09303 16.2924H14.7147L14.7528 16.3589Z" fill="#00D6FF" stroke="#00D6FF" stroke-width="0.163067" stroke-miterlimit="5.3333"/>
<path d="M14.7147 16.2915H9.10251L6.31543 11.4688H11.9372L14.7147 16.2915Z" fill="#7DFFFF" stroke="#7DFFFF" stroke-width="0.163067" stroke-miterlimit="5.3333"/>
<path d="M17.5842 21.1279L17.6318 21.204H17.5462L15.4059 21.2231L11.934 21.2516L14.7496 16.3813H20.3332L17.5842 21.1279Z" fill="#32E6FF" stroke="#32E6FF" stroke-width="0.163067" stroke-miterlimit="5.3333"/>
<mask id="mask1_2_380" style="mask-type:luminance" maskUnits="userSpaceOnUse" x="10" y="14" width="12" height="14">
<path d="M21.89 27.7968H10.4847V14.7461H21.89V27.7968Z" fill="#CDD6F4"/>
</mask>
<g mask="url(#mask1_2_380)">
<g opacity="0.86">
<path d="M20.4664 26.0204L20.3808 26.1631H14.74L11.9149 21.2738L11.9244 21.2548L14.74 16.3845H14.7495L11.9339 21.2453L15.4059 21.2167L17.5557 21.1977H17.6413L20.4094 26.0204H20.4664Z" fill="#00D5FF" fill-opacity="0.5451"/>
</g>
</g>
<path d="M17.585 21.1279L17.6326 21.204H17.5469L14.7694 16.3813H20.334L17.585 21.1279Z" fill="#20E6FF" stroke="#20E6FF" stroke-width="0.163067" stroke-miterlimit="5.3333"/>
<path d="M23.1681 21.2042H17.6319L17.5844 21.1281L20.3238 16.3813H20.3809L23.1681 21.2042Z" fill="#2AF0FF" stroke="#2AF0FF" stroke-width="0.163067" stroke-miterlimit="5.3333"/>
<mask id="mask2_2_380" style="mask-type:luminance" maskUnits="userSpaceOnUse" x="16" y="20" width="9" height="7">
<path d="M24.1438 26.8272H16.7052V20.4065H24.1438V26.8272Z" fill="#CDD6F4"/>
</mask>
<g mask="url(#mask2_2_380)">
<g opacity="0.95">
<path d="M23.2074 21.2718L20.4679 26.0185H20.4108L17.6333 21.2053H23.1695L23.2074 21.2718Z" fill="#29EFFF" fill-opacity="0.8"/>
</g>
</g>
<path d="M26.0212 16.3122L23.1961 21.2015H23.1676L20.3901 16.3788H14.7683L14.7302 16.3122L14.7397 16.2932L17.5459 11.4228V11.4133H23.1961L25.9736 16.2266L26.0212 16.3122Z" fill="#32F8B9" stroke="#32F8B9" stroke-width="0.163067" stroke-miterlimit="5.3333"/>
<mask id="mask3_2_380" style="mask-type:luminance" maskUnits="userSpaceOnUse" x="18" y="14" width="13" height="14">
<path d="M30.2581 27.7975H18.9672V14.6611H30.2581V27.7975Z" fill="#CDD6F4"/>
</mask>
<g mask="url(#mask3_2_380)">
<g opacity="0.85">
<path d="M28.8409 21.1976L26.0158 26.0869L20.375 26.163L23.1717 21.3403L23.1336 21.2737H23.1622L25.9873 16.3845L25.9397 16.3083H26.0253L28.8409 21.1976Z" fill="#32F6B8" fill-opacity="0.5647"/>
</g>
</g>
</svg>
