<svg width="34" height="33" viewBox="0 0 34 33" fill="none" xmlns="http://www.w3.org/2000/svg">
<path fill-rule="evenodd" clip-rule="evenodd" d="M5.57304 25.9334C5.57304 26.4071 5.69333 26.9184 6.02411 27.0987C7.24202 27.7829 11.5122 27.2491 12.9631 26.9259C13.7224 26.7529 14.3388 26.1891 15.0531 25.8808C16.6619 25.1816 17.8272 24.6178 19.1127 23.6781C20.045 22.9939 21.526 21.0694 21.6838 19.9192L20.4133 19.6334C20.3833 20.9265 20.09 21.2198 18.9398 21.5205C18.1655 21.731 16.6544 21.7761 15.8651 21.6408C14.82 21.4678 14.3465 20.919 13.8728 20.2951C12.9556 19.0771 14.0758 18.2276 12.6248 18.145C11.0987 20.0169 8.40728 18.6711 7.22697 18.4833C6.72328 19.2124 5.54297 23.9487 5.558 25.0313C6.28725 24.7833 6.74583 25.0538 7.39988 25.3095C9.7154 26.2041 7.69308 26.9935 6.76838 26.7604C6.13689 26.6101 5.94142 26.1966 5.57304 25.9334ZM8.60275 15.1303C9.54247 15.3106 10.377 15.7016 11.1739 16.1001C12.4745 16.7466 12.7075 16.6564 12.8278 17.5585C12.8428 17.724 12.8128 17.8142 13.2864 17.9645C14.0833 18.2126 12.8278 17.769 14.9629 17.7765C16.2334 17.784 19.1428 18.2953 20.0825 18.8893C20.4735 19.1373 20.3983 19.4531 21.7215 19.4154C21.7064 17.8593 21.293 15.5363 20.684 14.1079C19.9397 12.3787 18.9549 12.1156 16.9477 11.4691C15.7748 11.0932 12.3316 10.6797 11.2641 11.3413C10.2642 11.9652 10.0762 12.7095 9.14404 14.0177C8.87339 14.401 8.77566 14.6942 8.60275 15.1303Z" fill="#FAFAFA"/>
<path fill-rule="evenodd" clip-rule="evenodd" d="M16.8805 18.326C17.6323 18.6342 16.8428 20.6264 15.7979 20.1453C15.4595 19.1905 16.264 18.6492 16.482 18.2207C16.0309 18.1531 14.7453 17.9501 14.3619 18.0929C13.8657 18.2809 13.753 19.3408 14.0086 19.8371C15.2114 22.1977 20.5266 21.694 19.9627 19.8596C19.7372 19.1153 19.5267 18.995 18.7674 18.7394C18.1584 18.5365 17.5495 18.326 16.8805 18.326ZM7.43042 18.0629C8.03186 18.6417 9.39259 18.7319 10.2722 18.777C10.385 17.6118 10.4827 16.7396 11.4149 16.8073C11.8735 17.4313 11.6329 18.1681 11.1518 18.6417C11.9712 18.6342 12.4449 18.0177 12.3246 17.1231C11.6329 16.627 9.53543 15.6345 8.48293 15.4917C8.18973 15.8075 7.46802 17.5366 7.43042 18.0629Z" fill="#FAFAFA"/>
<path fill-rule="evenodd" clip-rule="evenodd" d="M6.01665 25.5056C6.51283 25.4605 7.80591 25.8364 7.91116 26.2574C7.10675 26.3552 6.08432 26.2799 6.01665 25.5056ZM5.57309 25.9341C5.94147 26.1973 6.13694 26.6107 6.76845 26.7611C7.69314 26.9942 9.71545 26.2048 7.39995 25.3101C6.74588 25.0546 6.28729 24.784 5.55806 25.032C5.54303 23.9494 6.72333 19.2131 7.22703 18.484C8.40734 18.6719 11.0987 20.0176 12.6249 18.1457C14.0758 18.2283 12.9557 19.0779 13.8728 20.2957C14.3465 20.9197 14.8201 21.4685 15.8651 21.6415C16.6545 21.7768 18.1656 21.7316 18.9399 21.5212C20.0902 21.2205 20.3833 20.9272 20.4133 19.6342L21.6839 19.9199C21.5261 21.0702 20.045 22.9947 19.1129 23.6789C17.8273 24.6185 16.662 25.1823 15.0531 25.8816C14.339 26.1898 13.7225 26.7536 12.9632 26.9265C11.5122 27.2499 7.24207 27.7835 6.02417 27.0994C5.69338 26.919 5.57309 26.4078 5.57309 25.9341ZM16.0906 19.7094C16.1432 19.2131 16.3312 18.935 16.6244 18.732C16.8273 19.1681 16.4665 19.5891 16.0906 19.7094ZM16.88 18.3261C17.5491 18.3261 18.1581 18.5366 18.7669 18.7396C19.5264 18.9951 19.7368 19.1154 19.9623 19.8597C20.5262 21.6941 15.2111 22.1978 14.0082 19.8372C13.7526 19.3409 13.8653 18.281 14.3615 18.093C14.7449 17.9502 16.0305 18.1532 16.4815 18.2208C16.2635 18.6493 15.4591 19.1906 15.7974 20.1454C16.8423 20.6265 17.6318 18.6343 16.88 18.3261ZM10.7379 18.4163C10.7454 17.8975 10.7229 17.4315 11.1965 17.2285C11.3694 17.6269 11.0837 18.1908 10.7379 18.4163ZM7.43002 18.063C7.4676 17.5367 8.18933 15.8076 8.48251 15.4918C9.53503 15.6346 11.6325 16.6271 12.3242 17.1232C12.4444 18.0178 11.9708 18.6343 11.1514 18.6418C11.6325 18.1682 11.8731 17.4315 11.4145 16.8074C10.4823 16.7397 10.3845 17.6119 10.2718 18.7771C9.39218 18.732 8.03145 18.6418 7.43002 18.063ZM6.67822 17.4615C6.40007 16.6947 6.40007 15.4993 7.58037 15.4016L6.97894 17.0781C6.82106 17.439 6.82106 17.3562 6.67822 17.4615ZM8.60281 15.131C8.77572 14.695 8.87344 14.4017 9.1441 14.0184C10.0763 12.7102 10.2643 11.9659 11.2641 11.342C12.3317 10.6804 15.7749 11.0939 16.9477 11.4698C18.9549 12.1163 19.9398 12.3794 20.684 14.1085C21.293 15.5369 21.7064 17.86 21.7216 19.4161C20.3983 19.4538 20.4735 19.138 20.0827 18.8899C19.1429 18.296 16.2335 17.7848 14.9629 17.7773C12.8278 17.7697 14.0833 18.2133 13.2864 17.9652C12.8128 17.8148 12.8429 17.7247 12.8278 17.5592C12.7076 16.6571 12.4745 16.7474 11.1739 16.1008C10.377 15.7023 9.54254 15.3115 8.60281 15.131ZM21.9094 14.7626C21.7666 14.289 22.0297 14.319 22.4884 13.9957C22.7515 13.8079 22.962 13.6124 23.2852 13.4319C24.4956 12.7553 26.751 12.6426 27.7133 13.447C28.1043 13.7702 28.7432 14.4017 28.6454 15.2286C28.4424 16.8751 27.3148 17.7773 26.3902 18.5291C25.4504 19.2959 23.8867 20.0852 22.2704 19.5591C22.1351 19.2283 22.2402 17.1307 22.0824 16.3564C21.9396 15.6648 22.0147 15.5896 22.4132 15.1761C23.586 13.9582 26.127 13.0711 27.5705 14.116C28.1794 14.5672 28.0064 14.74 28.3223 15.0858C28.7131 14.6648 27.9839 13.2515 25.2926 13.3417C23.4657 13.4019 22.6762 14.8303 21.9094 14.7626ZM10.9634 10.4849C11.001 9.43994 11.9633 7.27479 12.9256 6.523C14.0909 5.62086 15.3087 4.77134 17.098 5.78625C17.5416 6.03434 17.519 6.16215 17.5641 6.7786C17.6018 7.37252 17.5491 7.59054 17.3988 8.07169C16.2109 11.9058 15.2186 9.70306 11.4145 10.6127C11.5573 9.36476 12.6399 8.25211 13.2413 7.67324C14.2713 6.67336 15.0156 6.02682 16.5642 6.23733C16.9928 6.95153 17.0378 7.40259 16.5192 8.23708C15.8275 9.34972 15.6546 9.28206 15.7599 10.0414C16.3012 9.90605 16.4665 9.37979 16.7147 8.85355C18.2257 5.69604 16.0305 5.31262 14.6848 5.8915C13.7826 6.27491 12.1738 8.04914 11.6475 9.11667C11.5423 9.32717 11.4295 9.59781 11.3318 9.83087L10.9634 10.4849ZM16.9176 10.6428C17.0755 9.70306 18.0076 9.47002 18.0076 6.57563C18.0076 5.32766 16.474 4.2075 14.4668 5.04199C12.7452 5.74865 12.482 6.28994 11.5648 7.67324C10.7003 8.98134 10.7304 10.4173 9.98609 11.6276C9.76808 11.9735 9.57261 12.0938 9.33204 12.4396C9.15913 12.6952 9.03132 13.0184 8.85841 13.3192C8.50508 13.898 8.14421 14.319 7.85853 15.0107C6.95639 15.0333 6.19708 15.0483 6.10686 15.9804C5.98659 17.2585 6.58801 17.5743 6.58801 18.0555C6.58049 18.5741 4.47548 23.8066 5.06188 26.9265C5.22727 27.7835 5.79111 27.791 6.69327 27.8963C8.86593 28.1595 11.6851 28.0692 13.6323 27.2874L17.1657 25.5958C18.0603 25.0921 19.5639 24.1374 20.233 23.4382C20.7066 22.9496 20.9546 22.5361 21.3606 21.9571C21.9169 21.1453 21.9321 21.1603 22.0522 20.0552C22.789 20.1905 24.1648 20.5137 24.6234 20.9122C24.5708 21.431 24.3151 21.1828 24.3151 21.649C24.6084 21.6565 25.0971 21.2882 25.2173 20.8822C24.9091 20.431 24.5858 20.5062 24.1423 20.1454C24.4956 19.8672 25.1346 19.7394 25.6232 19.5364C26.6758 19.1004 28.4726 17.7773 28.9161 16.5744C29.2695 15.6046 29.0064 13.9882 28.4349 13.3568C27.8336 12.6952 26.4352 12.3569 25.2926 12.3569C23.9318 12.3569 22.5259 13.3342 21.4283 13.7552C21.0073 13.3868 20.9773 12.9658 20.669 12.5599C20.3157 12.0787 18.0153 10.8758 16.9176 10.6428Z" fill="#475569" stroke="#475569" stroke-width="0.833981" stroke-linejoin="round"/>
<path fill-rule="evenodd" clip-rule="evenodd" d="M10.7384 18.4157C11.0842 18.1901 11.3699 17.6263 11.197 17.2278C10.7234 17.4308 10.7459 17.8969 10.7384 18.4157ZM16.0911 19.7087C16.4671 19.5885 16.8279 19.1675 16.6249 18.7314C16.3317 18.9344 16.1438 19.2125 16.0911 19.7087Z" fill="#BFDBFE"/>
<path fill-rule="evenodd" clip-rule="evenodd" d="M21.9103 14.7619C22.6771 14.8296 23.4665 13.4012 25.2933 13.3411C27.9848 13.2509 28.7139 14.6642 28.323 15.0852C28.0073 14.7394 28.1801 14.5664 27.5713 14.1154C26.1277 13.0704 23.5867 13.9576 22.4139 15.1754C22.0156 15.5889 21.9403 15.664 22.0832 16.3558C22.2411 17.1301 22.1358 19.2275 22.2711 19.5583C23.8875 20.0846 25.4512 19.2952 26.3909 18.5284C27.3156 17.7766 28.4433 16.8745 28.6463 15.228C28.7441 14.4011 28.105 13.7696 27.7141 13.4463C26.7518 12.6419 24.4965 12.7547 23.286 13.4313C22.9627 13.6117 22.7522 13.8071 22.4891 13.9951C22.0306 14.3184 21.7674 14.2883 21.9103 14.7619Z" fill="#FECACA"/>
<path fill-rule="evenodd" clip-rule="evenodd" d="M10.9641 10.4848L11.3325 9.83078C11.4302 9.59772 11.543 9.32708 11.6482 9.11658C12.1745 8.04905 13.7833 6.27482 14.6855 5.8914C16.0311 5.31253 18.2263 5.69595 16.7153 8.85346C16.4672 9.37971 16.3018 9.90596 15.7605 10.0413C15.6553 9.28197 15.8281 9.34963 16.5198 8.23699C17.0386 7.40251 16.9934 6.95143 16.5649 6.23724C15.0163 6.02673 14.272 6.67327 13.242 7.67315C12.6406 8.25202 11.558 9.36467 11.4152 10.6126C15.2192 9.70298 16.2116 11.9057 17.3994 8.0716C17.5497 7.59045 17.6024 7.37243 17.5649 6.77852C17.5197 6.16206 17.5422 6.03425 17.0987 5.78616C15.3095 4.77124 14.0915 5.62077 12.9263 6.52291C11.964 7.2747 11.0017 9.43985 10.9641 10.4848Z" fill="#FECACA"/>
<path fill-rule="evenodd" clip-rule="evenodd" d="M7.91184 26.2574C7.80659 25.8365 6.51351 25.4605 6.01733 25.5056C6.085 26.2799 7.10743 26.3551 7.91184 26.2574Z" fill="#FECACA"/>
</svg>
