<svg width="33" height="33" viewBox="0 0 33 33" fill="none" xmlns="http://www.w3.org/2000/svg">
<path d="M6.81984 5.80225C6.68736 5.80225 6.55798 5.85498 6.47008 5.95409C4.11202 8.596 2.93298 12.1837 2.93298 16.7192C2.93298 20.7242 3.88937 23.9227 5.79762 26.3208C6.14363 26.7556 6.68156 26.9811 7.23724 26.9811H25.204C25.4876 26.9811 25.7699 26.9237 26.0221 26.7939C27.0393 26.2707 27.8809 25.5826 28.5039 24.9772C29.2567 24.2454 29.0949 23.0684 28.2754 22.4122L27.9686 22.1665C27.1884 21.5417 26.0667 21.5889 25.3417 22.277L25.1639 22.4457C24.3035 23.2128 24.3253 23.3697 22.8663 24.2122C21.3827 24.8812 19.8494 25.171 18.2674 25.171C15.7714 25.171 13.8778 24.2687 12.5875 23.1274C11.6828 22.3184 11.0708 20.4067 10.7519 18.5954C10.5529 17.465 11.4727 16.5016 12.6204 16.5061L26.365 16.5588C27.144 16.5618 27.7485 15.8801 27.6523 15.1071C27.652 15.1047 27.6521 15.1053 27.6518 15.1029C27.6437 15.0352 26.9716 9.42811 25.6351 6.65659C25.3627 6.09168 24.7615 5.80225 24.1343 5.80225H6.81984ZM15.3059 6.64185C16.8591 6.64185 18.5016 7.17281 19.2369 8.10175C19.6179 8.58412 19.8523 9.01121 19.9954 9.56781C20.275 10.6548 19.2791 11.5991 18.1568 11.5991H12.6034C11.4539 11.5991 10.4493 10.6035 10.8091 9.51172C11.019 8.87452 11.3443 8.4066 11.8482 7.92907C12.7771 7.04876 13.8629 6.64185 15.3059 6.64185Z" fill="#F38BA8"/>
</svg>
