<svg width="33" height="33" viewBox="0 0 33 33" fill="none" xmlns="http://www.w3.org/2000/svg">
<path d="M15.5423 10.5224L12.0423 12.4315C11.3998 12.7819 11 13.4554 11 14.1873V18.3127C11 19.0446 11.3998 19.7181 12.0423 20.0685L15.5423 21.9776C16.1393 22.3032 16.8607 22.3032 17.4577 21.9776L20.9577 20.0685C21.6002 19.7181 22 19.0446 22 18.3127V14.1873C22 13.4554 21.6002 12.7819 20.9577 12.4315L17.4577 10.5224C16.8607 10.1968 16.1393 10.1968 15.5423 10.5224Z" fill="#B8C1F9"/>
<mask id="mask0_2_425" style="mask-type:alpha" maskUnits="userSpaceOnUse" x="3" y="4" width="27" height="24">
<path d="M8.06809 6.55698L3.92694 13.9519C3.04533 15.5262 3.08031 17.4534 4.01848 18.9946L8.03897 25.5997C8.94626 27.0903 10.565 28 12.31 28H20.69C22.435 28 24.0537 27.0903 24.961 25.5997L28.9815 18.9946C29.9197 17.4534 29.9547 15.5262 29.0731 13.9519L24.9319 6.55698C24.0477 4.97795 22.3791 4 20.5694 4H12.4306C10.6209 4 8.95235 4.97795 8.06809 6.55698Z" fill="#89B4FA"/>
</mask>
<g mask="url(#mask0_2_425)">
<mask id="path-3-outside-1_2_425" maskUnits="userSpaceOnUse" x="-2.6377" y="-3.50024" width="38" height="40" fill="black">
<rect fill="white" x="-2.6377" y="-3.50024" width="38" height="40"/>
<path d="M15.2572 8.81668L10.715 11.2943C9.88112 11.7491 9.3623 12.6231 9.3623 13.5729V18.9268C9.3623 19.8767 9.88112 20.7506 10.715 21.2055L15.2572 23.683C16.0319 24.1056 16.9683 24.1056 17.743 23.683L22.2852 21.2055C23.119 20.7506 23.6379 19.8767 23.6379 18.9268V13.5729C23.6379 12.6231 23.119 11.7491 22.2852 11.2943L17.743 8.81668C16.9683 8.39411 16.0319 8.39411 15.2572 8.81668Z"/>
</mask>
<path d="M10.715 11.2943L16.308 21.5481L16.308 21.5481L10.715 11.2943ZM15.2572 8.81668L20.8502 19.0705L15.2572 8.81668ZM17.743 8.81668L23.336 -1.43713L23.336 -1.43713L17.743 8.81668ZM22.2852 11.2943L27.8782 1.04044L22.2852 11.2943ZM22.2852 21.2055L27.8782 31.4593L27.8782 31.4593L22.2852 21.2055ZM17.743 23.683L23.3359 33.9368L23.336 33.9368L17.743 23.683ZM15.2572 23.683L20.8502 13.4292L20.8502 13.4292L15.2572 23.683ZM10.715 21.2055L16.308 10.9516L16.308 10.9516L10.715 21.2055ZM16.308 21.5481L20.8502 19.0705L9.6642 -1.43713L5.12198 1.04044L16.308 21.5481ZM12.15 19.0705L16.6922 21.5481L27.8782 1.04044L23.336 -1.43713L12.15 19.0705ZM11.9579 13.5729V18.9268H35.3179V13.5729H11.9579ZM16.6922 10.9516L12.15 13.4292L23.336 33.9368L27.8782 31.4593L16.6922 10.9516ZM20.8502 13.4292L16.308 10.9516L5.12198 31.4593L9.6642 33.9368L20.8502 13.4292ZM21.0423 18.9268V13.5729H-2.31769V18.9268H21.0423ZM16.308 10.9516C19.2264 12.5435 21.0423 15.6024 21.0423 18.9268H-2.31769C-2.31769 24.1509 0.535802 28.9577 5.12199 31.4593L16.308 10.9516ZM12.15 13.4292C14.8615 11.9502 18.1387 11.9502 20.8502 13.4292L9.6642 33.9368C13.9251 36.261 19.075 36.261 23.3359 33.9368L12.15 13.4292ZM11.9579 18.9268C11.9579 15.6024 13.7737 12.5435 16.6922 10.9516L27.8782 31.4593C32.4644 28.9577 35.3179 24.1509 35.3179 18.9268H11.9579ZM16.6922 21.5481C13.7737 19.9562 11.9579 16.8973 11.9579 13.5729H35.3179C35.3179 8.34883 32.4644 3.54199 27.8782 1.04044L16.6922 21.5481ZM20.8502 19.0705C18.1387 20.5495 14.8615 20.5495 12.15 19.0705L23.336 -1.43713C19.075 -3.76127 13.9251 -3.76128 9.6642 -1.43713L20.8502 19.0705ZM5.12198 1.04044C0.535805 3.54199 -2.31769 8.34883 -2.31769 13.5729H21.0423C21.0423 16.8973 19.2264 19.9562 16.308 21.5481L5.12198 1.04044Z" fill="#89B4FA" mask="url(#path-3-outside-1_2_425)"/>
</g>
</svg>
