<svg width="33" height="33" viewBox="0 0 33 33" fill="none" xmlns="http://www.w3.org/2000/svg">
<path d="M12.5842 13.1225C12.981 14.5481 12.1562 16.0301 10.7678 16.3866C10.3215 16.5011 9.97915 16.8714 9.95571 17.3316C9.94897 17.4638 9.94556 17.597 9.94556 17.731C9.94556 17.9029 9.95116 18.0734 9.9622 18.2423C9.98992 18.6662 10.3072 19.0054 10.7194 19.1084C12.1217 19.4589 12.9551 20.9561 12.5469 22.3912C12.4031 22.8969 12.5509 23.451 12.9812 23.7533C13.106 23.841 13.2337 23.9244 13.3642 24.0031C13.8363 24.2883 14.4318 24.15 14.8044 23.7434C15.7982 22.6592 17.4647 22.6594 18.4583 23.744C18.8353 24.1556 19.4375 24.2968 19.9158 24.009C20.0204 23.9461 20.1233 23.8802 20.2243 23.8115C20.6961 23.4908 20.8591 22.8894 20.7061 22.3397C20.3094 20.914 21.1342 19.432 22.5225 19.0756C22.9685 18.9611 23.3105 18.5911 23.334 18.1313C23.3407 17.9988 23.3441 17.8653 23.3441 17.731C23.3441 17.5589 23.3385 17.3882 23.3274 17.2191C23.2997 16.7955 22.9826 16.4566 22.5708 16.3537C21.1686 16.0033 20.3352 14.5061 20.7435 13.0709C20.8871 12.5654 20.7394 12.0118 20.3096 11.7096C20.1844 11.6217 20.0563 11.5381 19.9255 11.459C19.4537 11.174 18.8584 11.3122 18.4859 11.7186C17.4922 12.803 15.8255 12.8027 14.832 11.718C14.455 11.3064 13.8527 11.1652 13.3744 11.453C13.2699 11.5158 13.1672 11.5816 13.0663 11.6501C12.5942 11.971 12.4312 12.5726 12.5842 13.1225ZM16.6448 19.6926C15.6358 19.6926 14.8178 18.8143 14.8178 17.731C14.8178 16.6479 15.6358 15.7696 16.6448 15.7696C17.6539 15.7696 18.4719 16.6479 18.4719 17.731C18.4719 18.8143 17.6539 19.6926 16.6448 19.6926Z" fill="#BAC2DE"/>
<path fill-rule="evenodd" clip-rule="evenodd" d="M7.92556 27.1091C6.821 27.1091 5.92557 26.2137 5.92557 25.1091V10.3511C5.92557 9.24657 6.821 8.35113 7.92557 8.35113H25.3633C26.4679 8.35113 27.3633 9.24656 27.3633 10.3511V25.1091C27.3633 26.2137 26.4679 27.1091 25.3633 27.1091H7.92556ZM3.24585 5.67142C3.24585 4.19145 4.4456 2.9917 5.92557 2.9917H27.3633C28.8433 2.9917 30.043 4.19145 30.043 5.67142V27.1091C30.043 28.5892 28.8433 29.7889 27.3633 29.7889H5.92557C4.4456 29.7889 3.24585 28.5892 3.24585 27.1091V5.67142Z" fill="#6C7086"/>
</svg>
