<svg width="36" height="38" viewBox="0 0 36 38" fill="none" xmlns="http://www.w3.org/2000/svg">
<g filter="url(#filter0_d_2_428)">
<path d="M13.5842 13.1225C13.981 14.5481 13.1562 16.0301 11.7678 16.3866V16.3866C11.3215 16.5011 10.9791 16.8714 10.9557 17.3316C10.949 17.4638 10.9456 17.597 10.9456 17.731C10.9456 17.9029 10.9512 18.0734 10.9622 18.2423C10.9899 18.6662 11.3072 19.0054 11.7194 19.1084V19.1084C13.1217 19.4589 13.9551 20.9561 13.5469 22.3912V22.3912C13.4031 22.8969 13.5509 23.451 13.9812 23.7533C14.106 23.841 14.2337 23.9244 14.3642 24.0031C14.8363 24.2883 15.4318 24.15 15.8044 23.7434V23.7434C16.7982 22.6592 18.4647 22.6594 19.4583 23.744V23.744C19.8353 24.1556 20.4375 24.2968 20.9158 24.009C21.0204 23.9461 21.1233 23.8802 21.2243 23.8115C21.6961 23.4908 21.8591 22.8894 21.7061 22.3397V22.3397C21.3094 20.914 22.1342 19.432 23.5225 19.0756V19.0756C23.9685 18.9611 24.3105 18.5911 24.334 18.1313C24.3407 17.9988 24.3441 17.8653 24.3441 17.731C24.3441 17.5589 24.3385 17.3882 24.3274 17.2191C24.2997 16.7955 23.9826 16.4566 23.5708 16.3537V16.3537C22.1686 16.0033 21.3352 14.5061 21.7435 13.0709V13.0709C21.8871 12.5654 21.7394 12.0118 21.3096 11.7096C21.1844 11.6217 21.0563 11.5381 20.9255 11.459C20.4537 11.174 19.8584 11.3122 19.4859 11.7186V11.7186C18.4922 12.803 16.8255 12.8027 15.832 11.718V11.718C15.455 11.3064 14.8527 11.1652 14.3744 11.453C14.2699 11.5158 14.1672 11.5816 14.0663 11.6501C13.5942 11.971 13.4312 12.5726 13.5842 13.1225V13.1225ZM17.6448 19.6926C16.6358 19.6926 15.8178 18.8143 15.8178 17.731C15.8178 16.6479 16.6358 15.7696 17.6448 15.7696C18.6539 15.7696 19.4719 16.6479 19.4719 17.731C19.4719 18.8143 18.6539 19.6926 17.6448 19.6926Z" fill="#BAC2DE"/>
<path fill-rule="evenodd" clip-rule="evenodd" d="M8.92556 27.1091C7.821 27.1091 6.92557 26.2137 6.92557 25.1091V10.3511C6.92557 9.24657 7.821 8.35113 8.92557 8.35113H26.3633C27.4679 8.35113 28.3633 9.24656 28.3633 10.3511V25.1091C28.3633 26.2137 27.4679 27.1091 26.3633 27.1091H8.92556ZM4.24585 5.67142C4.24585 4.19145 5.4456 2.9917 6.92557 2.9917H28.3633C29.8433 2.9917 31.043 4.19145 31.043 5.67142V27.1091C31.043 28.5892 29.8433 29.7889 28.3633 29.7889H6.92557C5.4456 29.7889 4.24585 28.5892 4.24585 27.1091V5.67142Z" fill="#6C7086"/>
</g>
<defs>
<filter id="filter0_d_2_428" x="-2.43396" y="0.313232" width="40.1566" height="40.1565" filterUnits="userSpaceOnUse" color-interpolation-filters="sRGB">
<feFlood flood-opacity="0" result="BackgroundImageFix"/>
<feColorMatrix in="SourceAlpha" type="matrix" values="0 0 0 0 0 0 0 0 0 0 0 0 0 0 0 0 0 0 127 0" result="hardAlpha"/>
<feOffset dy="4"/>
<feGaussianBlur stdDeviation="2"/>
<feComposite in2="hardAlpha" operator="out"/>
<feColorMatrix type="matrix" values="0 0 0 0 0 0 0 0 0 0 0 0 0 0 0 0 0 0 0.25 0"/>
<feBlend mode="normal" in2="BackgroundImageFix" result="effect1_dropShadow_2_428"/>
<feBlend mode="normal" in="SourceGraphic" in2="effect1_dropShadow_2_428" result="shape"/>
</filter>
</defs>
</svg>
