<svg width="33" height="33" viewBox="0 0 33 33" fill="none" xmlns="http://www.w3.org/2000/svg">
<path fill-rule="evenodd" clip-rule="evenodd" d="M25.0596 8.94818C25.0582 8.5632 24.9048 8.19436 24.6326 7.92214C24.3603 7.64992 23.9914 7.49642 23.6065 7.49512H7.92926C7.54429 7.49642 7.17545 7.64992 6.90324 7.92214C6.63102 8.19436 6.47751 8.5632 6.4762 8.94818V24.2301C6.47751 24.615 6.63102 24.9839 6.90324 25.256C7.17545 25.5283 7.54429 25.6818 7.92926 25.6832H23.6065C23.9914 25.6818 24.3603 25.5283 24.6326 25.256C24.9048 24.9839 25.0582 24.615 25.0596 24.2301V8.94818Z" fill="#292929" fill-opacity="0.3"/>
<path fill-rule="evenodd" clip-rule="evenodd" d="M24.6655 8.37549C24.6655 8.03729 24.5311 7.71297 24.2919 7.47383C24.0527 7.23469 23.7285 7.10034 23.3903 7.10034H7.35716C7.01898 7.10034 6.69464 7.23469 6.4555 7.47383C6.21638 7.71297 6.08203 8.03729 6.08203 8.37549V24.0131C6.08203 24.3515 6.21638 24.6757 6.4555 24.9149C6.69464 25.154 7.01898 25.2883 7.35716 25.2883H23.3903C23.7285 25.2883 24.0527 25.154 24.2919 24.9149C24.5311 24.6757 24.6655 24.3515 24.6655 24.0131V8.37549Z" fill="url(#paint0_radial_2_431)"/>
<mask id="mask0_2_431" style="mask-type:luminance" maskUnits="userSpaceOnUse" x="6" y="7" width="19" height="19">
<path d="M24.6655 8.37549C24.6655 8.03729 24.5311 7.71297 24.2919 7.47383C24.0527 7.23469 23.7285 7.10034 23.3903 7.10034H7.35716C7.01898 7.10034 6.69464 7.23469 6.4555 7.47383C6.21638 7.71297 6.08203 8.03729 6.08203 8.37549V24.0131C6.08203 24.3515 6.21638 24.6757 6.4555 24.9149C6.69464 25.154 7.01898 25.2883 7.35716 25.2883H23.3903C23.7285 25.2883 24.0527 25.154 24.2919 24.9149C24.5311 24.6757 24.6655 24.3515 24.6655 24.0131V8.37549Z" fill="#CDD6F4"/>
</mask>
<g mask="url(#mask0_2_431)">
<path fill-rule="evenodd" clip-rule="evenodd" d="M5.71692 6.70508H25.0268V9.27511H5.71692V6.70508Z" fill="url(#paint1_linear_2_431)"/>
<path d="M7.7639 8.68111C8.03686 8.68111 8.25813 8.45983 8.25813 8.18686C8.25813 7.9139 8.03686 7.69263 7.7639 7.69263C7.49093 7.69263 7.26965 7.9139 7.26965 8.18686C7.26965 8.45983 7.49093 8.68111 7.7639 8.68111Z" fill="#363152" fill-opacity="0.6"/>
<path d="M9.1478 8.68111C9.42077 8.68111 9.64204 8.45983 9.64204 8.18686C9.64204 7.9139 9.42077 7.69263 9.1478 7.69263C8.87484 7.69263 8.65356 7.9139 8.65356 8.18686C8.65356 8.45983 8.87484 8.68111 9.1478 8.68111Z" fill="#363152" fill-opacity="0.6"/>
<path d="M10.5321 8.68111C10.805 8.68111 11.0263 8.45983 11.0263 8.18686C11.0263 7.9139 10.805 7.69263 10.5321 7.69263C10.2591 7.69263 10.0378 7.9139 10.0378 8.18686C10.0378 8.45983 10.2591 8.68111 10.5321 8.68111Z" fill="#363152" fill-opacity="0.6"/>
</g>
<path fill-rule="evenodd" clip-rule="evenodd" d="M6.08203 14.4153H24.6654V19.9508H6.08203V14.4153Z" fill="url(#paint2_linear_2_431)"/>
<path fill-rule="evenodd" clip-rule="evenodd" d="M15.571 17.1033C15.571 16.9304 15.4276 16.787 15.2546 16.787H9.16556C9.08167 16.787 9.00121 16.8204 8.94189 16.8797C8.88258 16.9391 8.84924 17.0195 8.84924 17.1033V17.2616C8.84924 17.4346 8.99258 17.5778 9.16556 17.5778H15.2546C15.4276 17.5778 15.571 17.4346 15.571 17.2616V17.1033ZM13.5939 15.5218C13.5939 15.3488 13.4506 15.2056 13.2776 15.2056H9.16556C9.08167 15.2056 9.00121 15.2388 8.94189 15.2982C8.88258 15.3575 8.84924 15.4379 8.84924 15.5218V15.68C8.84924 15.853 8.99258 15.9962 9.16556 15.9962H13.2776C13.4506 15.9962 13.5939 15.853 13.5939 15.68V15.5218ZM10.8262 18.6849C10.8262 18.5119 10.6829 18.3686 10.5099 18.3686H9.16556C9.08167 18.3686 9.00121 18.4019 8.94189 18.4613C8.88258 18.5206 8.84924 18.601 8.84924 18.6849V18.8431C8.84924 19.0161 8.99258 19.1594 9.16556 19.1594H10.5099C10.6829 19.1594 10.8262 19.0161 10.8262 18.8431V18.6849ZM16.3617 15.5218C16.3617 15.3488 16.2184 15.2056 16.0454 15.2056H14.701C14.6171 15.2056 14.5367 15.2388 14.4774 15.2982C14.418 15.3575 14.3848 15.4379 14.3848 15.5218V15.68C14.3848 15.853 14.528 15.9962 14.701 15.9962H16.0454C16.2184 15.9962 16.3617 15.853 16.3617 15.68V15.5218Z" fill="#CDD6F4" fill-opacity="0.8"/>
<path fill-rule="evenodd" clip-rule="evenodd" d="M15.571 11.5673C15.571 11.3943 15.4276 11.251 15.2546 11.251H9.16556C9.08167 11.251 9.00121 11.2843 8.94189 11.3436C8.88258 11.4029 8.84924 11.4834 8.84924 11.5673V11.7254C8.84924 11.8984 8.99258 12.0418 9.16556 12.0418H15.2546C15.4276 12.0418 15.571 11.8984 15.571 11.7254V11.5673ZM12.4078 13.1489C12.4078 12.9759 12.2644 12.8325 12.0915 12.8325H9.16556C9.08167 12.8325 9.00121 12.8659 8.94189 12.9252C8.88258 12.9845 8.84924 13.065 8.84924 13.1489V13.307C8.84924 13.48 8.99258 13.6233 9.16556 13.6233H12.0915C12.2644 13.6233 12.4078 13.48 12.4078 13.307V13.1489ZM15.1756 13.1489C15.1756 12.9759 15.0322 12.8325 14.8592 12.8325H13.5149C13.431 12.8325 13.3505 12.8659 13.2912 12.9252C13.2319 12.9845 13.1986 13.065 13.1986 13.1489V13.307C13.1986 13.48 13.3419 13.6233 13.5149 13.6233H14.8592C15.0322 13.6233 15.1756 13.48 15.1756 13.307V13.1489ZM18.1409 11.5673C18.1409 11.3943 17.9976 11.251 17.8246 11.251H16.6779C16.5941 11.251 16.5137 11.2843 16.4543 11.3436C16.395 11.4029 16.3617 11.4834 16.3617 11.5673V11.7254C16.3617 11.8984 16.505 12.0418 16.6779 12.0418H17.8246C17.9976 12.0418 18.1409 11.8984 18.1409 11.7254V11.5673ZM20.7111 13.1489C20.7111 12.9759 20.5677 12.8325 20.3947 12.8325H16.2825C16.1987 12.8325 16.1183 12.8659 16.0589 12.9252C15.9996 12.9845 15.9663 13.065 15.9663 13.1489V13.307C15.9663 13.48 16.1096 13.6233 16.2825 13.6233H20.3947C20.5677 13.6233 20.7111 13.48 20.7111 13.307V13.1489Z" fill="#CDD6F4" fill-opacity="0.6"/>
<path fill-rule="evenodd" clip-rule="evenodd" d="M7.90032 19.1596C7.98929 19.1596 8.05848 19.0905 8.05848 19.0015V15.3639C8.05848 15.2749 7.98929 15.2058 7.90032 15.2058H7.82124C7.77929 15.2058 7.73907 15.2224 7.70941 15.252C7.67975 15.2818 7.66309 15.322 7.66309 15.3639V19.0015C7.66309 19.0905 7.73228 19.1596 7.82124 19.1596H7.90032Z" fill="#89FF94"/>
<path fill-rule="evenodd" clip-rule="evenodd" d="M8.66671 23.9389C8.57132 23.8871 8.48737 23.8165 8.41981 23.7314C8.35226 23.6463 8.30247 23.5486 8.27343 23.444C8.24438 23.3393 8.23667 23.2299 8.25073 23.1222C8.2648 23.0146 8.30038 22.9107 8.35532 22.8171C8.52831 22.4908 8.90887 22.2338 9.4476 22.2239C9.95667 22.2239 10.8611 22.5007 11.9287 22.8961C13.0654 23.3211 14.3751 23.8847 15.6354 24.2207C16.2286 24.3788 16.8118 24.5025 17.3554 24.5321C17.7953 24.5567 18.2055 24.5123 18.5811 24.4332C19.1616 24.2624 19.6835 23.934 20.0886 23.4843C20.5383 22.99 20.8744 22.3327 21.3242 21.5815C21.5773 21.1657 21.8443 20.7585 22.1249 20.3607C22.1301 20.3541 22.1325 20.3457 22.1316 20.3374C22.1306 20.3291 22.1265 20.3214 22.1199 20.3162C22.1133 20.311 22.1049 20.3086 22.0966 20.3095C22.0883 20.3103 22.0807 20.3146 22.0754 20.3212C21.7887 20.6671 21.5416 21.0032 21.2846 21.3046C20.8398 21.8384 20.4148 22.2783 19.9996 22.654C19.5585 23.0909 18.9849 23.3691 18.3686 23.4448C17.9294 23.5177 17.4828 23.536 17.0392 23.4991C16.3201 23.472 15.6035 23.3976 14.8941 23.2766C13.9845 23.1171 13.0811 22.9241 12.1857 22.6985C10.9847 22.3969 9.98632 22.1053 9.4476 22.1399C8.87428 22.1597 8.47889 22.4365 8.29602 22.7825C8.23788 22.8839 8.20069 22.9961 8.18664 23.1122C8.17258 23.2283 8.18196 23.346 8.21422 23.4585C8.24647 23.571 8.30095 23.6758 8.37443 23.7668C8.44791 23.8579 8.53888 23.9332 8.64199 23.9884C8.64556 23.9904 8.64948 23.9916 8.65352 23.992C8.65757 23.9924 8.66166 23.9921 8.66555 23.9909C8.66945 23.9897 8.67308 23.9878 8.67626 23.9853C8.67942 23.9827 8.68205 23.9797 8.684 23.976C8.68595 23.9724 8.68717 23.9685 8.68761 23.9645C8.68804 23.9605 8.68768 23.9564 8.68652 23.9525C8.68537 23.9486 8.68347 23.945 8.68092 23.9417C8.67836 23.9387 8.67521 23.936 8.67164 23.934L8.66671 23.9389Z" fill="url(#paint3_linear_2_431)"/>
<path fill-rule="evenodd" clip-rule="evenodd" d="M8.64198 24.0022C8.2713 23.8885 8.04889 23.3596 8.22188 22.8802C8.3405 22.5541 8.65681 22.2527 9.24989 22.1389C9.49701 22.0895 10.0753 22.1883 10.8216 22.3663C11.2862 22.4749 11.8199 22.6133 12.3735 22.7765C13.4065 23.0681 14.5135 23.4041 15.5069 23.6068C16.0595 23.7265 16.6222 23.7927 17.1874 23.8045C17.6026 23.7896 17.9485 23.7008 18.2351 23.5277C18.5465 23.3449 18.7985 23.083 18.9864 22.7567C19.3867 22.045 19.4559 21.0417 19.7376 19.9099C19.8419 19.5183 19.9706 19.1337 20.1231 18.7583H20.1132C19.881 19.1883 19.708 19.6184 19.5202 20.0186C19.2333 20.6399 18.9048 21.2409 18.5366 21.8176C18.3656 22.0864 18.146 22.3211 17.8892 22.5096C17.665 22.6829 17.3956 22.7875 17.1133 22.8111C16.3225 22.9396 15.1857 22.8852 14.0144 22.7517C13.2175 22.6625 12.4231 22.5521 11.6321 22.4207C10.4855 22.2229 9.5662 22.04 9.24001 22.1093C8.64693 22.2328 8.32567 22.5392 8.20211 22.8753C8.02419 23.3596 8.25648 23.8984 8.63704 24.017L8.64119 24.0206L8.64658 24.0213L8.65156 24.0191L8.65463 24.0147L8.65487 24.0092L8.65219 24.0045L8.64741 24.0018L8.64198 24.0022Z" fill="url(#paint4_linear_2_431)"/>
<path fill-rule="evenodd" clip-rule="evenodd" d="M20.1132 18.3537C20.1132 18.3537 20.3898 17.978 21.5711 15.9466C21.6848 15.749 21.8725 15.6007 22.09 15.5315C22.703 15.3338 23.8544 14.8742 24.3833 13.9351C24.9764 12.8873 25.5399 11.2069 26.7755 9.40295C27.2054 8.76045 28.6436 7.11463 29.6519 7.57427C30.6552 8.03885 30.0967 10.0603 29.4245 11.2514C28.4361 13.006 26.8644 14.4936 26.3306 15.6402C26.0209 16.3762 25.9551 17.192 26.1428 17.9681C26.1922 18.2004 26.1577 18.4425 26.0341 18.6452C25.5687 19.4679 25.0909 20.2835 24.6007 21.0917L20.1132 18.3537ZM28.1642 9.12125C28.3372 8.90377 28.6931 8.60229 29.0144 8.79999C29.3109 8.9878 29.1923 9.40789 29.0885 9.67972C28.96 10.0158 28.5596 10.5446 28.1001 10.2975C27.6602 10.0603 27.9269 9.41778 28.1642 9.12125Z" fill="#371B01" fill-opacity="0.3"/>
<path d="M19.9001 18.3051L20.0335 18.3891C20.078 18.399 20.1225 18.4237 20.1719 18.4582C20.1967 18.4781 20.2015 18.5077 20.1818 18.5325C20.083 18.661 19.9841 18.7944 19.8804 18.913C19.732 19.0711 19.6085 19.2589 19.4751 19.4319C19.3466 19.595 19.228 19.7631 19.1291 19.9311C19.0056 20.1536 18.8376 20.3611 18.7732 20.6082C18.7534 20.6725 18.7288 20.7318 18.7139 20.796C18.6991 20.8455 18.6744 20.89 18.6497 20.9344C18.6102 21.0135 18.5854 21.0925 18.5508 21.1717L18.5063 21.3052C18.431 21.5455 18.3685 21.7897 18.3185 22.0366C18.3015 22.1458 18.27 22.2522 18.2246 22.3529C18.2098 22.3925 18.195 22.432 18.19 22.4666L18.1801 22.5802C18.1801 22.6198 18.1604 22.6445 18.1308 22.6495L18.195 23.0597C18.2049 23.109 18.2148 23.109 18.2246 23.0597C18.2494 22.9114 18.274 22.7483 18.3087 22.5802C18.3559 22.347 18.4135 22.1162 18.4817 21.8883C18.5409 21.6857 18.6398 21.4929 18.7288 21.3052C18.756 21.2393 18.7927 21.1776 18.8376 21.1223C18.8721 21.0778 18.9116 21.0728 18.9611 21.0925C18.9709 21.0975 18.9709 21.1074 18.9709 21.1173L18.8721 21.5127C18.8376 21.6313 18.8227 21.7598 18.7979 21.8784C18.7683 22.0086 18.7485 22.1407 18.7387 22.2738C18.7574 22.2909 18.7791 22.3043 18.8029 22.3134V22.2936L18.8128 22.2886C18.8177 22.2886 18.8227 22.2837 18.8227 22.2738C18.8622 22.1107 18.9166 21.9526 18.9413 21.7796C19.0396 21.1337 19.2328 20.5058 19.5146 19.9163C19.5492 19.8916 19.5541 19.8372 19.5789 19.8027C19.7631 19.4871 19.9644 19.1819 20.1818 18.8883C20.2474 18.8037 20.3068 18.7144 20.3598 18.6214C20.3647 18.6115 20.3795 18.6066 20.3943 18.6066C20.4339 18.6214 20.4783 18.6461 20.5278 18.6856L20.6612 18.7598C20.6712 18.7696 20.6761 18.7795 20.6712 18.7895L20.5921 18.9575L20.4043 19.3183C20.3745 19.3874 20.335 19.4517 20.3004 19.5159L19.9199 20.2177L19.7765 20.4946C19.7174 20.6307 19.6598 20.7675 19.6036 20.9048C19.569 20.9839 19.5541 21.0679 19.5047 21.142C19.4602 21.226 19.4207 21.315 19.3861 21.399L19.2032 21.8388C19.1637 21.9377 19.1142 22.0217 19.0846 22.1256C19.0132 22.307 18.9505 22.4918 18.8968 22.6791C18.8721 22.7384 18.8573 22.8026 18.8523 22.8669C18.8523 22.8768 18.8523 22.8818 18.8424 22.8916L18.8276 22.9311L18.8227 22.9559L18.7337 23.1042C18.7296 23.1105 18.7233 23.1151 18.7159 23.1169C18.7085 23.1188 18.7008 23.1177 18.6942 23.114C18.6644 23.0893 18.6596 23.0645 18.6744 23.03L18.6793 23.0053L18.6694 22.9559C18.6348 23.2524 18.5904 23.5143 18.5459 23.7367C18.4817 24.0777 18.3482 24.3941 18.1554 24.6955V24.7253C18.1554 24.7351 18.1604 24.74 18.1703 24.74C18.3185 24.7154 18.447 24.6759 18.5558 24.6215C18.7683 24.5078 18.9907 24.4189 19.139 24.3249C19.9429 23.7984 20.6599 23.1496 21.2642 22.4024C21.3285 22.3232 21.3976 22.2541 21.4619 22.1701C21.7575 21.7709 22.0219 21.3495 22.2527 20.9098C22.3922 20.615 22.524 20.3168 22.6481 20.0152C22.6628 19.9657 22.6481 19.8966 22.6827 19.8521C22.7024 19.8273 22.7172 19.8076 22.7172 19.7977C22.5691 19.7087 22.4158 19.6247 22.2675 19.5308C21.9561 19.333 21.6794 19.165 21.4371 19.0218C21.3008 18.9442 21.1673 18.8618 21.0368 18.7746L20.0633 18.1766C20.0604 18.1742 20.057 18.1729 20.0533 18.1729C20.0497 18.1729 20.0461 18.1742 20.0434 18.1766L19.9001 18.3051ZM21.3334 19.1453L21.4371 19.2244L21.452 19.2293C21.4719 19.2293 21.4816 19.2244 21.4915 19.2095C21.4933 19.2048 21.4962 19.2007 21.5001 19.1973C21.504 19.1941 21.5086 19.1918 21.5135 19.1909C21.5185 19.1898 21.5236 19.1902 21.5284 19.1917C21.5332 19.1933 21.5375 19.196 21.541 19.1996L21.6399 19.2689C21.6645 19.2837 21.6844 19.3034 21.6893 19.3282L21.709 19.3529C21.7783 19.422 21.8721 19.4665 21.9561 19.5209C22.0402 19.5802 22.139 19.6247 22.2279 19.6889C22.2378 19.6988 22.2428 19.7137 22.2329 19.7284C22.1656 19.8415 22.1094 19.9606 22.0649 20.0843C22.0649 20.1091 22.0649 20.114 22.0895 20.0992C22.1163 20.0737 22.1382 20.0436 22.1538 20.0102C22.2033 19.9163 22.2527 19.8619 22.3022 19.7681C22.3119 19.7433 22.3318 19.7383 22.3515 19.7532L22.5294 19.8668C22.5393 19.8767 22.5443 19.8916 22.5443 19.9064C22.451 20.1664 22.3353 20.4178 22.1983 20.6576L21.9265 21.1025C21.6219 21.6022 21.2603 22.065 20.8491 22.4814C20.5697 22.7766 20.2463 23.0268 19.8903 23.2228C19.7404 23.3099 19.5765 23.3702 19.4059 23.4007C19.4019 23.4027 19.3973 23.4034 19.3929 23.4025C19.3885 23.4016 19.3845 23.3992 19.3817 23.3958C19.3787 23.3923 19.3771 23.388 19.377 23.3834C19.377 23.379 19.3785 23.3746 19.3811 23.371C19.4564 23.1528 19.5422 22.9385 19.6381 22.7285C19.653 22.6691 19.6876 22.6149 19.7123 22.5555V22.5259L19.7221 22.511L19.742 22.4913L19.8408 22.2145L20.0879 21.5918L20.246 21.2458C20.2449 21.1906 20.2624 21.1368 20.2955 21.0925L20.3004 21.0629C20.3004 21.0383 20.3103 21.0135 20.3252 20.9987C20.335 20.9938 20.335 20.9839 20.335 20.9789C20.335 20.9493 20.3449 20.9295 20.3598 20.9048C20.3993 20.8356 20.3894 20.7664 20.3302 20.7071C20.3153 20.6874 20.2955 20.6824 20.2758 20.6824C20.251 20.6824 20.2362 20.6874 20.2263 20.7071C20.2263 20.717 20.2164 20.7219 20.2114 20.7219C20.2015 20.7318 20.1917 20.7416 20.1917 20.7565L20.1868 20.7714L20.0385 20.9591L19.9298 21.1173L19.9199 21.1223H19.91V21.1124C19.9496 21.0431 19.9827 20.9703 20.0089 20.8949C20.0655 20.779 20.1199 20.662 20.1719 20.544L20.2857 20.3117L20.4092 20.0843C20.6414 19.7038 20.8936 19.338 21.1702 18.9821C21.1802 18.9674 21.1851 18.9674 21.195 18.9821C21.205 18.9871 21.2098 19.002 21.205 19.0119C21.205 19.0365 21.205 19.0514 21.2197 19.0711C21.2346 19.0909 21.2691 19.1156 21.3334 19.1404V19.1453ZM19.9001 18.3051L19.5047 18.7202C18.9525 19.319 18.5406 20.0331 18.2988 20.8109C18.3346 20.784 18.3647 20.7505 18.3878 20.712C18.4025 20.6874 18.4174 20.6626 18.4372 20.6527C18.4617 20.6327 18.4864 20.613 18.5113 20.5934C18.5212 20.5687 18.536 20.5539 18.5558 20.544L18.5755 20.5242C18.6249 20.4402 18.6497 20.3462 18.6942 20.2573C18.8672 19.9311 19.0501 19.6297 19.2526 19.343C19.3367 19.2244 19.4355 19.1156 19.5245 18.997C19.6979 18.7958 19.8675 18.5914 20.0335 18.3841L19.9001 18.3051ZM20.0335 18.3891C19.8675 18.5964 19.6979 18.8007 19.5245 19.002C19.4355 19.1156 19.3367 19.2244 19.2526 19.3479C19.055 19.6297 18.8672 19.9311 18.6942 20.2573C18.6447 20.3462 18.6249 20.4402 18.5755 20.5242L18.5558 20.544C18.536 20.5539 18.5212 20.5687 18.5063 20.5934C18.4814 20.6146 18.4568 20.636 18.4322 20.6576L18.3828 20.712C18.3612 20.7499 18.3327 20.7836 18.2988 20.8109C18.1903 21.1266 18.127 21.456 18.1109 21.7894C18.0961 22.0662 18.106 22.3529 18.1357 22.6495C18.1604 22.6445 18.1753 22.6198 18.1801 22.5802C18.1801 22.5407 18.1801 22.5011 18.19 22.4666C18.195 22.432 18.2098 22.3925 18.2246 22.3529C18.27 22.2522 18.3015 22.1458 18.3185 22.0366C18.3797 21.7437 18.4589 21.4548 18.5558 21.1717C18.5854 21.0925 18.6052 21.0135 18.6497 20.9344C18.6744 20.885 18.6991 20.8504 18.7139 20.796C18.7288 20.7318 18.7534 20.6725 18.7732 20.6082C18.8376 20.3611 19.0056 20.1536 19.1341 19.9311C19.2329 19.7631 19.3466 19.595 19.4751 19.4369C19.6085 19.2639 19.732 19.0711 19.8804 18.913C19.989 18.7944 20.083 18.661 20.1818 18.5325C20.2015 18.5077 20.1967 18.4781 20.1719 18.4632C20.1225 18.4237 20.073 18.399 20.0335 18.3891ZM19.5739 19.8027L19.5541 19.8767V19.8867C19.5541 19.8966 19.564 19.9064 19.5789 19.9064H19.5839L19.6085 19.8817L19.7074 19.7582L19.8655 19.5604C20.0138 19.3529 20.1719 19.1503 20.3449 18.9575C20.419 18.8735 20.4783 18.7845 20.5228 18.6856C20.4734 18.6461 20.4239 18.6214 20.3894 18.6066C20.3746 18.6066 20.3598 18.6066 20.3548 18.6214C20.3022 18.7146 20.2427 18.8038 20.1769 18.8883L20.0188 19.1108C19.8605 19.333 19.7172 19.5654 19.5789 19.8027H19.5739ZM20.5228 18.6856C20.4734 18.7845 20.419 18.8735 20.3449 18.9575C20.1719 19.1552 20.0138 19.3529 19.8655 19.5604L19.7074 19.7582C19.6656 19.8086 19.6227 19.858 19.5789 19.9064C19.5749 19.9085 19.5703 19.9092 19.5659 19.9082C19.5615 19.9073 19.5575 19.905 19.5546 19.9015C19.5517 19.8981 19.5501 19.8938 19.55 19.8892C19.55 19.8847 19.5514 19.8804 19.5541 19.8767L19.5739 19.8027C19.5442 19.8372 19.5442 19.8916 19.5096 19.9163L19.4949 19.9361C19.2212 20.5219 19.0346 21.1447 18.9413 21.7846C18.9116 21.9526 18.8573 22.1107 18.8177 22.2787L18.8078 22.2886H18.7979V22.3134C18.7782 22.3085 18.7584 22.2936 18.7337 22.2738L18.6644 22.9559L18.6744 23.0053V23.03C18.6547 23.0645 18.6596 23.0893 18.6892 23.114C18.6953 23.1183 18.7026 23.1201 18.71 23.1192C18.7172 23.1183 18.7239 23.1147 18.7288 23.109L18.8177 22.9559L18.8227 22.9311C18.8227 22.9164 18.8326 22.9015 18.8376 22.8916L18.8473 22.8669C18.8523 22.8026 18.8672 22.7384 18.8918 22.6791C18.9351 22.559 18.978 22.4387 19.0203 22.3182C19.0426 22.2531 19.0624 22.1872 19.0797 22.1206C19.1093 22.0217 19.1587 21.9377 19.1982 21.8388C19.2576 21.6906 19.3218 21.5522 19.3811 21.3941C19.4157 21.315 19.4552 21.226 19.5047 21.142C19.5442 21.0679 19.564 20.9839 19.5986 20.9048C19.6549 20.7675 19.7125 20.6307 19.7716 20.4946C19.8111 20.3957 19.8705 20.3117 19.9199 20.2177C20.073 19.9144 20.2329 19.6145 20.3993 19.3183L20.5871 18.9575L20.6662 18.7895C20.6712 18.7795 20.6662 18.7696 20.6563 18.7598L20.5228 18.6856ZM20.0286 20.9591C20.2053 20.6642 20.385 20.3709 20.5673 20.0793C20.6513 19.9508 20.7798 19.7828 20.9627 19.5802C21.0022 19.5308 21.032 19.4764 21.0665 19.422L21.1653 19.3183C21.2246 19.2689 21.279 19.2095 21.3285 19.1404C21.2642 19.1156 21.2296 19.0909 21.2147 19.0711C21.2 19.0514 21.2 19.0365 21.2 19.0119C21.2 19.002 21.2 18.9871 21.1901 18.9773C21.1802 18.9674 21.1752 18.9674 21.1653 18.9773C20.8405 19.4015 20.5449 19.8473 20.2807 20.3117C20.2184 20.4469 20.1525 20.5803 20.083 20.712C20.0268 20.8484 19.9675 20.9836 19.905 21.1173L19.9149 21.1223H19.9248L20.0335 20.9591H20.0286ZM21.3285 19.1404C21.279 19.2095 21.2296 19.2689 21.1702 19.3183C21.1208 19.3578 21.0912 19.3924 21.0715 19.422C21.032 19.4714 21.0022 19.5308 20.9577 19.5802C20.8169 19.7363 20.6866 19.9014 20.5673 20.0745L20.0929 20.8356C20.0681 20.8701 20.0484 20.9146 20.0335 20.9591L20.1818 20.7714L20.1868 20.7565C20.1868 20.7416 20.1967 20.7318 20.2065 20.7219C20.2164 20.7219 20.2214 20.712 20.2214 20.7071C20.2313 20.6874 20.246 20.6824 20.2708 20.6824C20.2905 20.6824 20.3103 20.6874 20.3202 20.7021C20.3844 20.7664 20.3943 20.8356 20.3548 20.8999C20.3399 20.9245 20.335 20.9493 20.3302 20.9789C20.3302 20.9839 20.3302 20.9938 20.3202 20.9987C20.3054 21.0135 20.3004 21.0383 20.2955 21.0629C20.2955 21.0728 20.2955 21.0828 20.2857 21.0925C20.2559 21.142 20.2362 21.1914 20.2412 21.2508C20.3407 21.0691 20.4315 20.8827 20.5129 20.6922C20.5553 20.6162 20.5948 20.5388 20.6316 20.46C20.7726 20.1928 20.9311 19.9353 21.1061 19.6889C21.2098 19.5407 21.3334 19.4023 21.4471 19.254C21.457 19.2392 21.4816 19.2343 21.4965 19.2441L21.6496 19.338C21.6695 19.3479 21.6695 19.3628 21.6546 19.3775C21.3927 19.6593 21.1605 19.9657 20.943 20.292L20.6464 20.7367C20.5129 20.9543 20.4142 21.1914 20.2905 21.4138C20.1522 21.6609 20.0583 21.8982 19.9348 22.1403C19.9348 22.1552 19.9199 22.1651 19.91 22.175C19.9001 22.1848 19.8951 22.1997 19.8903 22.2195L19.8804 22.2441C19.8705 22.259 19.8655 22.2541 19.8605 22.2441C19.8605 22.2195 19.8506 22.2096 19.8408 22.2096L19.742 22.4864L19.7221 22.5061L19.7172 22.521V22.5506C19.6876 22.6099 19.653 22.6643 19.6381 22.7235L19.6085 22.8076C19.5245 22.9954 19.4487 23.1866 19.3811 23.3809C19.3811 23.3908 19.396 23.3958 19.4059 23.3958C19.5765 23.3652 19.7404 23.3049 19.8903 23.2178C20.0681 23.1189 20.2164 23.0201 20.3449 22.9213C20.5179 22.7879 20.7057 22.6445 20.8491 22.4765C20.9478 22.3579 21.0467 22.2441 21.1506 22.1355C21.5563 21.6848 21.9064 21.187 22.1934 20.6527C22.3303 20.4128 22.4461 20.1615 22.5393 19.9015C22.5443 19.8867 22.5393 19.8718 22.5294 19.8619L22.3564 19.7483C22.3318 19.7334 22.3119 19.7383 22.2972 19.7631C22.2478 19.8521 22.1983 19.9113 22.1538 20.0052C22.1382 20.0386 22.1163 20.0689 22.0895 20.0942C22.0698 20.1091 22.0599 20.1041 22.0649 20.0793L22.0797 20.0152C22.1242 19.9163 22.1785 19.8174 22.2329 19.7186C22.2428 19.7087 22.2378 19.6939 22.2279 19.6839C22.139 19.6198 22.0402 19.5753 21.9513 19.5159C21.8721 19.4617 21.7783 19.4172 21.709 19.3479L21.6941 19.3233C21.6844 19.2985 21.6645 19.2738 21.6399 19.2639L21.541 19.1948C21.5375 19.191 21.5332 19.1883 21.5284 19.1867C21.5236 19.1852 21.5185 19.1848 21.5135 19.1859C21.5086 19.1869 21.504 19.1891 21.5001 19.1924C21.4962 19.1957 21.4933 19.1999 21.4915 19.2045C21.4816 19.2194 21.4719 19.2293 21.452 19.2244L21.4371 19.2194L21.3334 19.1354L21.3285 19.1404ZM20.2412 21.2508C20.1832 21.3636 20.1304 21.4791 20.083 21.5967L19.8359 22.2145C19.8458 22.2145 19.8506 22.2244 19.8556 22.2441C19.8556 22.259 19.8655 22.264 19.8754 22.2491L19.8853 22.2244C19.8853 22.2046 19.8951 22.1897 19.905 22.18L19.9298 22.1453C20.0533 21.9032 20.1473 21.6609 20.2857 21.4188C20.4092 21.1964 20.508 20.9591 20.6464 20.7466L20.9381 20.2968C21.1506 19.9707 21.3877 19.6642 21.6496 19.3825C21.6645 19.3677 21.6645 19.3529 21.6496 19.343L21.4965 19.249C21.4879 19.2433 21.4775 19.2411 21.4673 19.243C21.4571 19.2447 21.4481 19.2505 21.4421 19.2589C21.3285 19.4073 21.205 19.5457 21.1011 19.6939C20.8432 20.0499 20.6213 20.4306 20.4388 20.8306C20.38 20.9738 20.3139 21.1141 20.2412 21.2508ZM22.7123 19.7977C22.7123 19.8076 22.6976 19.8273 22.6777 19.8521C22.6432 19.8966 22.6579 19.9608 22.6382 20.0152C22.5141 20.3168 22.3823 20.615 22.2428 20.9098C22.0232 21.3558 21.7582 21.7783 21.452 22.1701C21.3927 22.2541 21.3235 22.3232 21.2592 22.4072C20.6547 23.1528 19.9376 23.7999 19.1341 24.3249C18.9857 24.4189 18.7633 24.5078 18.5508 24.6215C18.4422 24.6759 18.3135 24.7203 18.1653 24.74C18.1554 24.74 18.1505 24.74 18.1505 24.7253V24.6955L18.101 24.7845L18.0961 24.7895C18.0945 24.7923 18.0935 24.7955 18.0934 24.7989C18.0933 24.8021 18.0941 24.8054 18.0955 24.8084C18.097 24.8113 18.0992 24.8139 18.1018 24.8157C18.1045 24.8176 18.1077 24.8188 18.1109 24.8191C18.4174 24.8488 18.7238 24.7698 19.0154 24.7104C19.1736 24.6759 19.3267 24.6314 19.4751 24.577C19.8506 24.4386 20.2214 24.2755 20.5921 24.0877C20.8144 23.974 21.032 23.8406 21.2346 23.6923C21.284 23.6527 21.3432 23.6281 21.3829 23.5886C21.4322 23.5489 21.4915 23.5292 21.541 23.4996C21.5656 23.4897 21.5904 23.4946 21.62 23.4897C21.625 23.4885 21.6302 23.489 21.635 23.491C21.6397 23.4929 21.6438 23.4964 21.6464 23.5007C21.6491 23.505 21.6505 23.51 21.6502 23.5151C21.6498 23.5204 21.6479 23.5252 21.6448 23.5292C21.4978 23.763 21.3143 23.9716 21.1011 24.147C21.0813 24.1618 21.0813 24.1667 21.111 24.1569C22.0416 23.7992 22.8461 23.1752 23.424 22.3627C23.7863 21.871 24.0698 21.3257 24.2643 20.7466C24.2643 20.7367 24.2642 20.7219 24.2494 20.712L23.2461 20.114C23.3154 20.1881 23.2709 20.2622 23.3154 20.3413C23.34 20.3512 23.3647 20.3661 23.3795 20.3907H23.3994C23.4042 20.3858 23.4141 20.3907 23.4191 20.3907C23.4932 20.4479 23.5769 20.4913 23.6663 20.5192C23.6761 20.5192 23.686 20.5242 23.6909 20.5341C23.7106 20.5637 23.7404 20.5736 23.765 20.5934C23.8293 20.6527 23.9133 20.6922 23.9973 20.7219C24.0319 20.7318 24.0468 20.7515 24.027 20.7812C23.8355 21.31 23.5564 21.8029 23.2016 22.2392C23.0033 22.4887 22.7703 22.7084 22.5097 22.8916C22.4702 22.9213 22.4603 22.9164 22.4998 22.8719C22.6184 22.7335 22.7123 22.6 22.8211 22.4221L23.0088 22.1355C23.1009 22.0047 23.1835 21.8676 23.256 21.7252C23.3507 21.537 23.4431 21.3475 23.5328 21.1569L23.5674 21.0728L23.6168 20.969C23.6564 20.8701 23.6711 20.7714 23.7108 20.6725C23.7205 20.6478 23.7205 20.6231 23.7205 20.5934C23.7205 20.5786 23.7156 20.5736 23.7008 20.5885C23.7008 20.5934 23.6959 20.5984 23.7008 20.6082L23.6909 20.628C23.5632 20.948 23.4008 21.2529 23.2066 21.5374C23.1841 21.569 23.1555 21.5959 23.1226 21.6164C23.0656 21.6482 23.0179 21.6941 22.9841 21.7499L22.7617 22.1453C22.5953 22.4094 22.4051 22.6575 22.1934 22.8866C22.055 23.03 21.9116 23.1634 21.7634 23.287L21.6151 23.4254C21.6101 23.4353 21.6003 23.4402 21.5904 23.4402H21.5311C21.5162 23.4402 21.5064 23.4402 21.5015 23.4204L21.4866 23.4057L21.4224 23.3809L21.373 23.3314C21.3482 23.2919 21.3186 23.2722 21.284 23.2772C21.1181 23.3793 20.9446 23.4685 20.7651 23.5441C21.0861 23.2024 21.3834 22.839 21.6546 22.4566C21.8178 22.1997 22.0006 21.8833 22.2082 21.5127C22.307 21.3348 22.4158 21.0975 22.5294 20.89C22.6473 20.6666 22.7497 20.4353 22.8358 20.198C22.8358 20.1585 22.8358 20.119 22.8606 20.0843C22.8606 20.0745 22.8705 20.0696 22.8803 20.0745H22.9051C22.915 20.0793 22.9248 20.0745 22.9298 20.0646L22.9693 19.9459L22.7222 19.7977H22.7123ZM22.9645 19.9459L22.9248 20.0646C22.92 20.0793 22.9101 20.0793 22.9001 20.0793L22.8755 20.0745C22.8656 20.0745 22.8606 20.0745 22.8557 20.0843C22.8358 20.119 22.826 20.1585 22.831 20.198L22.8606 20.1486C22.8641 20.1418 22.8691 20.1357 22.8752 20.1309C22.8812 20.1262 22.8882 20.1227 22.8957 20.1209C22.9032 20.119 22.911 20.1187 22.9185 20.1201C22.9261 20.1215 22.9334 20.1245 22.9397 20.1288L23.0088 20.1782L23.3154 20.3413C23.2659 20.2672 23.3154 20.1881 23.2461 20.114L22.9645 19.9459ZM22.8358 20.198C22.7497 20.4353 22.6473 20.6666 22.5294 20.89C22.4158 21.0975 22.307 21.3348 22.2082 21.5127C22.0343 21.8344 21.8479 22.1493 21.6496 22.4566C21.625 22.5011 21.5559 22.5901 21.452 22.7285C21.452 22.7533 21.4718 22.7581 21.5015 22.7533C21.5162 22.7533 21.5261 22.7434 21.536 22.7335C21.625 22.6445 21.704 22.5506 21.7634 22.4517L21.9116 22.2244L22.1737 21.8537C22.2132 21.7944 22.2527 21.7302 22.2823 21.6561C22.3318 21.5504 22.3879 21.448 22.4503 21.3497L22.4849 21.2754C22.6332 20.9493 22.8013 20.633 22.9891 20.3315C23.004 20.3083 23.0139 20.2822 23.0182 20.255C23.0225 20.2278 23.021 20.1999 23.0138 20.1733L22.9446 20.1288C22.915 20.114 22.8803 20.119 22.8656 20.1486L22.8358 20.198ZM23.0138 20.1733C23.021 20.1999 23.0225 20.2278 23.0182 20.255C23.0139 20.2822 23.004 20.3083 22.9891 20.3315C22.7765 20.6821 22.585 21.0452 22.4158 21.4188C22.3663 21.5028 22.3169 21.5819 22.2823 21.6609C22.2527 21.7302 22.2132 21.7944 22.1737 21.8537C22.0383 22.0524 21.9017 22.2502 21.7634 22.4469C21.7006 22.552 21.6242 22.6484 21.536 22.7335L21.5015 22.7533C21.4718 22.7581 21.452 22.7533 21.452 22.7285C21.2391 23.0136 21.0115 23.2875 20.7699 23.5489C20.9993 23.4456 21.2178 23.3198 21.4224 23.1733C21.5607 23.0745 21.6893 22.9559 21.8178 22.8423C21.9011 22.7727 21.9789 22.6968 22.05 22.6149C22.4691 22.177 22.807 21.6683 23.0485 21.1124C23.0745 21.0586 23.1025 21.0058 23.1325 20.9543C23.1756 20.8786 23.2121 20.7991 23.2411 20.717L23.251 20.7021L23.2807 20.628C23.3202 20.5589 23.34 20.4797 23.345 20.4056C23.345 20.3809 23.3301 20.3562 23.3202 20.3413L23.0138 20.1733ZM23.3202 20.3413C23.3301 20.3611 23.3499 20.3809 23.345 20.4056C23.345 20.4846 23.3202 20.5539 23.2807 20.628C23.2686 20.6517 23.2587 20.6766 23.251 20.7021L23.2411 20.717L23.2264 20.7367C23.1966 20.8208 23.167 20.89 23.1325 20.9543C22.8263 21.6647 22.3809 22.3066 21.8228 22.8423C21.6893 22.9559 21.5607 23.0745 21.4224 23.1733L21.284 23.2772C21.3186 23.2772 21.3482 23.2919 21.3779 23.3364L21.4224 23.3809L21.4866 23.4057L21.5015 23.4204C21.5015 23.4353 21.5162 23.4452 21.5311 23.4452L21.5904 23.4402C21.6003 23.4402 21.6101 23.4353 21.6151 23.4254L21.7634 23.287C21.9116 23.1634 22.0599 23.03 22.1934 22.8916C22.5074 22.5504 22.7734 22.1679 22.9841 21.7548C23.0088 21.7054 23.0533 21.6561 23.1226 21.6164C23.1555 21.5959 23.1841 21.569 23.2066 21.5374C23.4069 21.2409 23.5726 20.9225 23.7008 20.5885C23.7156 20.5736 23.7205 20.5786 23.7205 20.5934C23.7205 20.6231 23.7205 20.6429 23.7108 20.6725C23.6711 20.7714 23.6564 20.8701 23.6119 20.969C23.5827 21.0304 23.5563 21.0931 23.5328 21.1569L23.508 21.2162L23.4834 21.2754L23.261 21.7203C23.187 21.8646 23.1027 22.0032 23.0088 22.1355C22.9429 22.2287 22.8802 22.3243 22.8211 22.4221C22.725 22.5796 22.6177 22.73 22.4998 22.8719C22.4652 22.9164 22.4702 22.9213 22.5147 22.8916C22.7735 22.708 23.0049 22.4883 23.2016 22.2392C23.5564 21.8029 23.8355 21.31 24.027 20.7812C24.0418 20.7515 24.0319 20.7318 23.9973 20.7219C23.9112 20.6971 23.8317 20.6532 23.765 20.5934C23.7404 20.5736 23.7156 20.5637 23.6959 20.5341C23.688 20.5259 23.6775 20.5207 23.6663 20.5192C23.5769 20.4913 23.4932 20.4479 23.4191 20.3907C23.416 20.3894 23.4126 20.3887 23.4092 20.3887C23.4058 20.3887 23.4025 20.3894 23.3994 20.3907H23.3895C23.3696 20.3661 23.345 20.3512 23.3202 20.3413Z" fill="#292929" fill-opacity="0.6"/>
<path d="M19.8962 18.0237C19.8962 18.0237 18.7348 19.0961 18.3394 20.1488C18.0626 20.8902 17.8945 21.3745 17.9934 22.5015L18.0526 22.9067C18.0626 22.9611 18.0675 22.9611 18.0774 22.9067L18.1664 22.4322C18.2059 22.1901 18.2751 21.9677 18.3394 21.7403C18.3938 21.5328 18.4877 21.3449 18.5815 21.1521C18.6112 21.0879 18.6508 21.0286 18.6903 20.9692C18.7248 20.9297 18.7644 20.9199 18.8138 20.9446C18.8237 20.9446 18.8287 20.9545 18.8237 20.9644L18.7248 21.3598C18.6903 21.4833 18.6754 21.6069 18.6557 21.7254C18.6244 21.8554 18.6029 21.9877 18.5914 22.1208C18.6162 22.1456 18.5272 22.803 18.5272 22.803C18.4947 23.0645 18.4534 23.325 18.4035 23.5838C18.3344 23.9298 18.2059 24.2461 18.0082 24.5426V24.5772C18.0082 24.5871 18.0181 24.5921 18.028 24.5871C18.1763 24.5673 18.3048 24.5278 18.4085 24.4685C18.626 24.3548 18.8484 24.2708 18.9967 24.1719C19.8004 23.6468 20.5173 22.9999 21.122 22.2543L21.3147 22.022C21.5025 21.7551 21.6606 21.5328 21.7694 21.3548C21.9176 21.1076 22.0363 20.91 22.1054 20.7617C22.2451 20.4653 22.3769 20.1654 22.5008 19.8622C22.5157 19.8128 22.5008 19.7485 22.5354 19.704L22.5749 19.6448C22.4267 19.5558 22.2685 19.4718 22.1203 19.3779C21.8139 19.1801 21.5371 19.0121 21.29 18.8687C21.1417 18.7847 21.0132 18.7057 20.8946 18.6266L19.911 18.0237H19.8913H19.8962Z" fill="url(#paint5_linear_2_431)"/>
<path d="M22.5742 19.6436C22.5742 19.6583 22.5594 19.6732 22.5346 19.7028C22.5 19.7473 22.5198 19.8116 22.5 19.861L22.4209 20.0636C22.3215 20.2969 22.2161 20.5276 22.1046 20.7555C22.0355 20.9088 21.9217 21.1064 21.7686 21.3487C21.6548 21.5315 21.5017 21.7538 21.3138 22.0207C21.2496 22.0999 21.1804 22.1691 21.1162 22.2531C20.5115 22.9987 19.7946 23.6456 18.9909 24.1707C18.8427 24.2695 18.6251 24.3536 18.4077 24.4673C18.304 24.5265 18.1755 24.5661 18.0271 24.5859C18.0172 24.5859 18.0123 24.5859 18.0123 24.576V24.5414L17.958 24.6353C17.9563 24.6381 17.9553 24.6414 17.9552 24.6447C17.9552 24.6479 17.9559 24.6513 17.9573 24.6541C17.9588 24.657 17.961 24.6596 17.9636 24.6615C17.9665 24.6635 17.9695 24.6645 17.9728 24.6649C18.2742 24.6946 18.5808 24.6205 18.8773 24.5563C19.0304 24.5265 19.1837 24.4821 19.3369 24.4228C19.7126 24.2844 20.0782 24.1262 20.4489 23.9385C20.6714 23.8247 20.8888 23.6913 21.0964 23.5381C21.1458 23.5036 21.2052 23.4738 21.2447 23.4392C21.2892 23.3997 21.3436 23.3751 21.3978 23.3503C21.4276 23.3354 21.4473 23.3404 21.4818 23.3354C21.4869 23.3343 21.4922 23.3347 21.4968 23.3367C21.5015 23.3388 21.5056 23.3421 21.5082 23.3465C21.5109 23.3508 21.5123 23.3559 21.512 23.361C21.5117 23.3661 21.5098 23.371 21.5066 23.3751C21.3598 23.6087 21.1762 23.8173 20.9629 23.9927C21.8953 23.6409 22.7033 23.022 23.2858 22.2135C23.6467 21.7391 23.9185 21.1707 24.1211 20.5974C24.1261 20.5825 24.1211 20.5677 24.1064 20.5628L22.5742 19.6436Z" fill="url(#paint6_linear_2_431)"/>
<path d="M19.7575 18.1565L19.3621 18.5716C18.8184 19.1647 18.3785 19.8912 18.1511 20.6623C18.1869 20.6354 18.2172 20.6017 18.2401 20.5634C18.255 20.5337 18.2747 20.514 18.2895 20.5041C18.314 20.4824 18.3387 20.4609 18.3636 20.4399C18.3735 20.4201 18.3884 20.4052 18.4131 20.3904L18.4279 20.3706C18.4774 20.2866 18.502 20.1927 18.5465 20.1037C18.7195 19.7825 18.9073 19.4761 19.105 19.1943L19.3768 18.8484L19.5746 18.6012L19.886 18.2355L19.7575 18.1565Z" fill="#FEF8FE" fill-opacity="0.9"/>
<path d="M19.4362 19.6531L19.4114 19.7272V19.7322C19.411 19.7359 19.4115 19.7397 19.413 19.743C19.4145 19.7465 19.417 19.7493 19.4201 19.7515C19.4232 19.7535 19.4268 19.7547 19.4305 19.7547C19.4342 19.7548 19.4379 19.7539 19.4411 19.752C19.4833 19.7035 19.5246 19.6541 19.5647 19.6037L19.7277 19.4061C19.876 19.1984 20.0342 19.0007 20.2022 18.8079C20.2737 18.725 20.3351 18.6336 20.3851 18.5362C20.3356 18.4966 20.2863 18.4669 20.2467 18.457C20.2319 18.457 20.217 18.457 20.2121 18.4719C20.1594 18.5652 20.1001 18.6544 20.0342 18.7388L19.8711 18.9563C19.7178 19.1836 19.5746 19.416 19.4362 19.6482V19.6531Z" fill="#CDD6F4" fill-opacity="0.7"/>
<path d="M19.8905 20.8052C19.9052 20.7607 19.9251 20.7212 19.9497 20.6817L20.4291 19.9254C20.5131 19.797 20.6418 19.6289 20.8197 19.4312C20.8592 19.3817 20.8888 19.3225 20.9234 19.2731C20.9539 19.2331 20.9888 19.1967 21.0272 19.1643C21.0873 19.1139 21.1405 19.0557 21.1853 18.9913C21.1261 18.9617 21.0865 18.9419 21.0717 18.9172C21.0618 18.9023 21.0568 18.8826 21.0618 18.8628C21.0618 18.8479 21.0618 18.8382 21.0519 18.8282C21.042 18.8183 21.0322 18.8183 21.0223 18.8282C20.6991 19.2526 20.4053 19.6985 20.1425 20.1626C20.0801 20.2978 20.0142 20.4312 19.9448 20.563C19.8886 20.6993 19.8293 20.8345 19.767 20.9683H19.7867L19.8905 20.8052Z" fill="#CDD6F4" fill-opacity="0.6"/>
<path d="M20.0982 21.0969C20.0402 21.2097 19.9874 21.325 19.9399 21.4428L19.6929 22.0656C19.7028 22.0656 19.7126 22.0754 19.7175 22.0952C19.7175 22.1099 19.7225 22.1099 19.7324 22.0952L19.7423 22.0704C19.7423 22.0557 19.7522 22.0408 19.767 22.0309L19.7918 21.9914C19.9103 21.7542 20.0043 21.512 20.1427 21.2698C20.2712 21.0425 20.3699 20.8101 20.5034 20.5927L20.8 20.1478C21.0117 19.8225 21.2498 19.515 21.5116 19.2286C21.5265 19.2137 21.5215 19.199 21.5068 19.189L21.3584 19.1001C21.354 19.0965 21.3489 19.0938 21.3434 19.0922C21.3379 19.0907 21.3322 19.0904 21.3266 19.0914C21.3209 19.0923 21.3156 19.0945 21.3108 19.0977C21.3061 19.1009 21.302 19.105 21.2991 19.11C21.1904 19.2582 21.0669 19.3916 20.9581 19.54C20.7015 19.8977 20.4814 20.2802 20.3008 20.6816L20.1031 21.0969H20.0982ZM22.688 20.049C22.5643 20.3703 22.4606 20.6026 22.3865 20.741C22.2728 20.9436 22.1591 21.1809 22.0603 21.3638C21.8577 21.7294 21.6698 22.0458 21.5018 22.3077L21.3041 22.5796C21.309 22.5993 21.3239 22.6092 21.3535 22.6042L21.3881 22.5845C21.4777 22.5008 21.5543 22.4042 21.6154 22.2978L21.7638 22.0754L22.0257 21.6998C22.0652 21.6404 22.1048 21.5763 22.1393 21.507C22.1888 21.4014 22.2449 21.2991 22.3073 21.2006L22.3371 21.1265C22.4853 20.8002 22.6582 20.484 22.8411 20.1776C22.8709 20.1282 22.8807 20.0787 22.8659 20.0243L22.7967 19.9749C22.79 19.9707 22.7826 19.968 22.7747 19.967C22.7669 19.9659 22.759 19.9666 22.7514 19.969C22.7439 19.9713 22.737 19.9753 22.7311 19.9805C22.7252 19.9859 22.7207 19.9923 22.7176 19.9997L22.6929 20.049H22.688Z" fill="#CDD6F4" fill-opacity="0.7"/>
<path d="M19.8858 18.2351C19.7197 18.4422 19.5499 18.6466 19.3767 18.848L19.1048 19.1939C18.9072 19.4757 18.7194 19.7821 18.5464 20.1033C18.5019 20.1922 18.4773 20.2862 18.4278 20.3702L18.408 20.39C18.3883 20.4047 18.3734 20.4196 18.3635 20.4394C18.3386 20.4605 18.3139 20.4819 18.2894 20.5036C18.2745 20.5135 18.2548 20.5332 18.24 20.563C18.2171 20.6013 18.1868 20.6349 18.151 20.6619C18.0423 20.983 17.983 21.3043 17.9632 21.6354C17.9484 21.9122 17.9632 22.1989 17.9879 22.5004C18.0175 22.4905 18.0324 22.4707 18.0324 22.4262L18.0423 22.3126C18.0502 22.273 18.0635 22.2349 18.0819 22.1989C18.1254 22.0979 18.1553 21.9915 18.1708 21.8826C18.2322 21.5913 18.3114 21.3042 18.408 21.0225C18.4426 20.9435 18.4624 20.8595 18.5019 20.7854C18.5267 20.736 18.5513 20.6964 18.5662 20.647C18.5859 20.5827 18.6107 20.5235 18.6254 20.4591C18.6947 20.2121 18.8578 19.9996 18.9863 19.7821C19.0851 19.614 19.1988 19.4459 19.3322 19.2829C19.4657 19.1099 19.5842 18.9171 19.7326 18.759C19.8414 18.6452 19.9401 18.5119 20.039 18.3785C20.0539 18.3586 20.0489 18.329 20.0291 18.3092C19.9796 18.2746 19.9303 18.2498 19.8858 18.2351Z" fill="#FDB5CC" fill-opacity="0.6"/>
<path d="M20.3855 18.5361C20.336 18.6349 20.2768 18.7238 20.2026 18.8079C20.0346 19.0007 19.8715 19.2032 19.7282 19.406C19.6787 19.4751 19.6195 19.5394 19.5651 19.6036C19.5233 19.654 19.4805 19.7034 19.4366 19.7519C19.4331 19.753 19.4295 19.7531 19.426 19.7522C19.4225 19.7514 19.4193 19.7495 19.4168 19.747C19.4142 19.7444 19.4125 19.7412 19.4115 19.7377C19.4107 19.7342 19.4109 19.7306 19.4118 19.7271L19.4366 19.653C19.407 19.6876 19.402 19.737 19.3723 19.7618L19.3526 19.7865C19.0789 20.3724 18.8924 20.995 18.799 21.635C18.7694 21.798 18.7199 21.9612 18.6804 22.1243L18.6655 22.1342L18.6557 22.139V22.1588C18.6323 22.1513 18.6106 22.1397 18.5914 22.1243L18.5272 22.8013L18.5321 22.8507V22.8755C18.5124 22.9101 18.5223 22.9397 18.5469 22.9645C18.5504 22.9672 18.5544 22.9689 18.5586 22.97C18.5629 22.9709 18.5673 22.9709 18.5715 22.97C18.5757 22.9691 18.5798 22.9672 18.5832 22.9645C18.5866 22.9618 18.5894 22.9585 18.5914 22.9546L18.6754 22.8063L18.6853 22.7766C18.6853 22.7618 18.6903 22.752 18.7002 22.7371L18.71 22.7173C18.71 22.6482 18.7298 22.5888 18.7495 22.5246C18.7929 22.4046 18.8358 22.2843 18.8781 22.1638C18.9028 22.0995 18.9275 22.0353 18.9423 21.971C18.9719 21.8722 19.0214 21.7833 19.0561 21.6844L19.2388 21.2445C19.2735 21.1605 19.3131 21.0765 19.3625 20.9875C19.402 20.9133 19.4267 20.8343 19.4613 20.7552C19.5107 20.6168 19.5701 20.4833 19.6293 20.3449C19.6738 20.2462 19.7282 20.1572 19.7776 20.0633C19.9309 19.7616 20.0907 19.4633 20.257 19.1687C20.3164 19.0451 20.3904 18.9266 20.4448 18.8029L20.5239 18.6398C20.5289 18.6299 20.5239 18.6152 20.5189 18.6102L20.3855 18.5361Z" fill="#FFFAA5" fill-opacity="0.5"/>
<path d="M21.5662 19.2046C21.5563 19.1947 21.5266 19.2145 21.5118 19.2292C21.2484 19.5139 21.0087 19.8198 20.7951 20.1435L20.5036 20.5933C20.3701 20.8108 20.2713 21.0431 20.1428 21.2705C20.0044 21.5126 19.9104 21.7549 19.7919 21.992L19.7672 22.0315C19.7523 22.0415 19.7474 22.0563 19.7424 22.0711C19.7424 22.081 19.7424 22.0909 19.7325 22.1008C19.7227 22.1107 19.7178 22.1107 19.7178 22.0959C19.7128 22.076 19.7029 22.0662 19.693 22.0662L19.5942 22.338C19.5942 22.3479 19.5843 22.3528 19.5794 22.3578C19.5694 22.3628 19.5694 22.3677 19.5694 22.3775V22.4072C19.5448 22.4665 19.5101 22.5159 19.4904 22.5802C19.3942 22.7934 19.3084 23.0111 19.2334 23.2326C19.2334 23.2425 19.2481 23.2524 19.2581 23.2524C19.4304 23.2224 19.5961 23.1621 19.7474 23.0745C19.9203 22.9756 20.0736 22.8767 20.1922 22.7778C20.3701 22.6444 20.558 22.5012 20.7012 22.333L21.0027 21.9871C21.1264 21.8635 21.2201 21.7499 21.2993 21.651C21.5839 21.2923 21.8354 20.9086 22.0506 20.5044C22.1874 20.2644 22.3031 20.013 22.3965 19.7531C22.3965 19.7384 22.3965 19.7235 22.3817 19.7185L22.2087 19.6049C22.184 19.5901 22.1642 19.595 22.1543 19.6197C22.1048 19.7086 22.0554 19.768 22.0061 19.857C21.9903 19.8903 21.9686 19.9205 21.9418 19.9459C21.922 19.9656 21.9171 19.9608 21.9171 19.936C21.9171 19.9113 21.9269 19.8866 21.9368 19.8718C21.9764 19.7729 22.0308 19.6741 22.0852 19.5752C22.0951 19.5654 22.0901 19.5456 22.0802 19.5406C21.9912 19.4764 21.8973 19.4319 21.8083 19.3676C21.7293 19.3182 21.6354 19.2737 21.5613 19.2046H21.5662Z" fill="url(#paint7_linear_2_431)"/>
<path d="M22.8656 20.0239C22.872 20.0498 22.8731 20.0767 22.8688 20.1031C22.8646 20.1294 22.855 20.1546 22.8408 20.1772C22.6279 20.5295 22.4364 20.8942 22.2675 21.2695L22.139 21.5066L22.0253 21.7044C21.8901 21.9031 21.7533 22.1008 21.6151 22.2974C21.5557 22.3963 21.4816 22.4952 21.3877 22.5841L21.3531 22.6038C21.3235 22.6088 21.3087 22.6038 21.3037 22.5792C21.0907 22.8627 20.863 23.1348 20.6217 23.3946C20.851 23.2913 21.0695 23.1655 21.2741 23.019C21.4174 22.9202 21.541 22.8016 21.6744 22.6878C21.7566 22.6188 21.8341 22.5446 21.9066 22.4654C22.3257 22.0275 22.6636 21.5189 22.9051 20.963L22.9841 20.8048C23.0274 20.7292 23.0639 20.6498 23.0928 20.5676L23.1027 20.5478L23.1373 20.4787C23.1745 20.4099 23.1964 20.3341 23.2016 20.2563C23.2016 20.2315 23.1867 20.2068 23.172 20.1919L22.8656 20.0239Z" fill="#CFE2FF" fill-opacity="0.8"/>
<path d="M23.1719 20.1922C23.1867 20.2071 23.2015 20.2317 23.2015 20.2565C23.1963 20.3344 23.1745 20.4102 23.1372 20.4788C23.1238 20.5009 23.1122 20.5241 23.1026 20.5481C23.1026 20.558 23.1026 20.563 23.0929 20.5678L23.083 20.5826C23.0532 20.6667 23.0186 20.7409 22.9841 20.8051L22.905 20.9632C22.6511 21.5122 22.3144 22.019 21.9067 22.4657C21.8341 22.5449 21.7565 22.6191 21.6744 22.6881C21.5409 22.8019 21.4174 22.9204 21.274 23.0193L20.8242 23.3109C20.8588 23.3109 21.5161 23.0539 21.8177 22.8166C22.0352 22.6436 22.2872 22.4113 22.6085 21.9912C22.7073 21.8727 23.246 21.072 23.419 20.7409C23.4672 20.6396 23.5133 20.5375 23.5574 20.4345C23.5673 20.4245 23.5723 20.4245 23.5723 20.4442C23.5723 20.469 23.5723 20.4937 23.5624 20.5185C23.5278 20.6172 23.5129 20.7161 23.4635 20.815C23.4341 20.8762 23.4077 20.9389 23.3844 21.0028L23.3596 21.067C23.2794 21.2361 23.197 21.4041 23.1126 21.5712C23.0403 21.7154 22.9577 21.854 22.8655 21.9863C22.7996 22.0779 22.7369 22.172 22.6776 22.2681C22.5802 22.4275 22.4713 22.5794 22.3514 22.7227C22.3168 22.7622 22.3218 22.7721 22.3663 22.7425L22.5343 22.614C22.7468 22.441 22.9198 22.2631 23.0532 22.0901C23.4099 21.6541 23.6906 21.1612 23.8835 20.6321C23.8934 20.5975 23.8835 20.5826 23.8539 20.5678C23.7664 20.5453 23.6854 20.5029 23.6168 20.4442C23.592 20.4196 23.5673 20.4097 23.5475 20.385C23.5416 20.3759 23.533 20.3689 23.5228 20.3652C23.4289 20.3405 23.3449 20.2961 23.2756 20.2417C23.2724 20.2387 23.2684 20.2367 23.264 20.2358C23.2597 20.235 23.2551 20.2352 23.251 20.2367H23.2411C23.2214 20.212 23.2015 20.1972 23.1719 20.1873V20.1922Z" fill="#88B5FF" fill-opacity="0.7"/>
<path fill-rule="evenodd" clip-rule="evenodd" d="M19.718 17.9583C19.718 17.9583 19.9948 17.5827 21.1761 15.5514C21.2898 15.3538 21.4775 15.2054 21.695 15.1363C22.3078 14.9385 23.4594 14.479 23.9883 13.5399C24.5814 12.4921 25.1448 10.8117 26.3805 9.0077C26.8104 8.36518 28.2486 6.71937 29.2569 7.17901C30.2602 7.6436 29.7017 9.66503 29.0295 10.8562C28.0411 12.6107 26.4694 14.0983 25.9356 15.245C25.6259 15.9809 25.5601 16.7968 25.7478 17.5728C25.7972 17.8052 25.7627 18.0473 25.6391 18.25C25.1737 19.0727 24.6959 19.8882 24.2057 20.6964L19.718 17.9583ZM27.7692 8.72598C27.9422 8.50852 28.2981 8.20703 28.6194 8.40472C28.9159 8.59253 28.7973 9.01264 28.6935 9.28447C28.565 9.62055 28.1646 10.1494 27.705 9.90227C27.2652 9.66503 27.5319 9.02252 27.7692 8.72598Z" fill="#371B01"/>
<mask id="mask1_2_431" style="mask-type:luminance" maskUnits="userSpaceOnUse" x="19" y="7" width="11" height="14">
<path d="M19.718 17.9583C19.718 17.9583 19.9948 17.5827 21.1761 15.5514C21.2898 15.3538 21.4775 15.2054 21.695 15.1363C22.3078 14.9385 23.4594 14.479 23.9883 13.5399C24.5814 12.4921 25.1448 10.8117 26.3805 9.0077C26.8104 8.36518 28.2486 6.71937 29.2569 7.17901C30.2602 7.6436 29.7017 9.66503 29.0295 10.8562C28.0411 12.6107 26.4694 14.0983 25.9356 15.245C25.6259 15.9809 25.5601 16.7968 25.7478 17.5728C25.7972 17.8052 25.7627 18.0473 25.6391 18.25C25.1737 19.0727 24.6959 19.8882 24.2057 20.6964L19.718 17.9583ZM27.7692 8.72598C27.9422 8.50852 28.2981 8.20703 28.6194 8.40472C28.9159 8.59253 28.7973 9.01264 28.6935 9.28447C28.565 9.62055 28.1646 10.1494 27.705 9.90227C27.2652 9.66503 27.5319 9.02252 27.7692 8.72598Z" fill="#CDD6F4"/>
</mask>
<g mask="url(#mask1_2_431)">
<path fill-rule="evenodd" clip-rule="evenodd" d="M27.0234 5.50928L20.8455 15.6461L25.778 18.656L31.956 8.51424L27.0234 5.50928Z" fill="url(#paint8_linear_2_431)"/>
<path fill-rule="evenodd" clip-rule="evenodd" d="M20.6327 15.947L20.178 16.6983L25.1105 19.7132L25.5701 18.962L20.6278 15.947H20.6327Z" fill="url(#paint9_linear_2_431)"/>
<path fill-rule="evenodd" clip-rule="evenodd" d="M19.8422 16.9062L19.3875 17.6575L24.325 20.6674L24.7796 19.9162L19.8422 16.9062Z" fill="url(#paint10_linear_2_431)"/>
</g>
<defs>
<radialGradient id="paint0_radial_2_431" cx="0" cy="0" r="1" gradientUnits="userSpaceOnUse" gradientTransform="translate(15.3737 16.1944) scale(9.29169 9.09399)">
<stop stop-color="#675F90"/>
<stop offset="1" stop-color="#363152"/>
</radialGradient>
<linearGradient id="paint1_linear_2_431" x1="5.71692" y1="7.9901" x2="25.0268" y2="7.9901" gradientUnits="userSpaceOnUse">
<stop stop-color="#EFA5E3"/>
<stop offset="1" stop-color="#B38AF3"/>
</linearGradient>
<linearGradient id="paint2_linear_2_431" x1="24.3195" y1="20.9393" x2="9.35496" y2="15.1128" gradientUnits="userSpaceOnUse">
<stop stop-color="#40449D"/>
<stop offset="0.4" stop-color="#2185CB" stop-opacity="0.7"/>
<stop offset="1" stop-color="#03FF85" stop-opacity="0.6"/>
</linearGradient>
<linearGradient id="paint3_linear_2_431" x1="9.80346" y1="23.5584" x2="21.9519" y2="23.5584" gradientUnits="userSpaceOnUse">
<stop stop-color="#B7BCFF"/>
<stop offset="0.4" stop-color="#20B0FC"/>
<stop offset="1" stop-color="#35FFA5"/>
</linearGradient>
<linearGradient id="paint4_linear_2_431" x1="9.75402" y1="23.508" x2="21.9025" y2="23.508" gradientUnits="userSpaceOnUse">
<stop stop-color="#FF6033" stop-opacity="0"/>
<stop offset="0.3" stop-color="#FC8D20"/>
<stop offset="1" stop-color="#DDFF35"/>
</linearGradient>
<linearGradient id="paint5_linear_2_431" x1="17.7462" y1="20.5442" x2="21.7001" y2="23.7074" gradientUnits="userSpaceOnUse">
<stop stop-color="#F31FA1"/>
<stop offset="0.3" stop-color="#F7E930"/>
<stop offset="0.5" stop-color="#74FD65"/>
<stop offset="0.6" stop-color="#48EDFF"/>
<stop offset="1" stop-color="#5913FF"/>
</linearGradient>
<linearGradient id="paint6_linear_2_431" x1="18.3385" y1="17.3799" x2="22.2925" y2="23.3107" gradientUnits="userSpaceOnUse">
<stop stop-color="#FF1313"/>
<stop offset="0.3" stop-color="#FFEE10"/>
<stop offset="0.5" stop-color="#1CFF03"/>
<stop offset="0.7" stop-color="#48EDFF"/>
<stop offset="1" stop-color="#5632FF"/>
</linearGradient>
<linearGradient id="paint7_linear_2_431" x1="20.5135" y1="20.5439" x2="21.5019" y2="21.1371" gradientUnits="userSpaceOnUse">
<stop stop-color="#89FF70"/>
<stop offset="1" stop-color="#A6F0FF" stop-opacity="0.4"/>
</linearGradient>
<linearGradient id="paint8_linear_2_431" x1="22.9805" y1="13.9509" x2="25.6711" y2="15.5967" gradientUnits="userSpaceOnUse">
<stop stop-color="#FBE99A"/>
<stop offset="0.7" stop-color="#E48827"/>
<stop offset="1" stop-color="#A34F04"/>
</linearGradient>
<linearGradient id="paint9_linear_2_431" x1="20.257" y1="18.0822" x2="23.8729" y2="20.2249" gradientUnits="userSpaceOnUse">
<stop stop-color="#FCEEE3"/>
<stop offset="0.7" stop-color="#9C8C81"/>
<stop offset="1" stop-color="#665549"/>
</linearGradient>
<linearGradient id="paint10_linear_2_431" x1="20.1981" y1="17.8404" x2="23.8139" y2="19.9831" gradientUnits="userSpaceOnUse">
<stop stop-color="#FCEEE3"/>
<stop offset="0.7" stop-color="#9C8C81"/>
<stop offset="1" stop-color="#665549"/>
</linearGradient>
</defs>
</svg>
