<svg width="35" height="37" viewBox="0 0 35 37" fill="none" xmlns="http://www.w3.org/2000/svg">
<g filter="url(#filter0_d_2_499)">
<path d="M9.46335 7.5069C10.2569 10.2549 8.60731 13.1119 5.83054 13.799C4.93839 14.0197 4.24899 14.7538 4.20372 15.6717C4.19198 15.9099 4.18604 16.1497 4.18604 16.3908C4.18604 16.7063 4.1962 17.0192 4.21623 17.3294C4.27083 18.1751 4.90984 18.8475 5.73373 19.0459C8.53826 19.7214 10.2052 22.6076 9.38873 25.374C9.1024 26.3443 9.39352 27.4118 10.2298 27.9811C10.4943 28.1611 10.7653 28.3317 11.0424 28.4924C11.9837 29.0383 13.154 28.7691 13.9038 27.9806C15.8913 25.8906 19.2245 25.891 21.2115 27.9819C21.9699 28.78 23.1534 29.0547 24.1067 28.504C24.3334 28.3731 24.556 28.2355 24.7744 28.0916C25.6908 27.4875 26.0115 26.3293 25.7071 25.2748C24.9136 22.5264 26.5631 19.6695 29.34 18.9825C30.2314 18.7619 30.9202 18.0284 30.9655 17.1112C30.9772 16.8726 30.9832 16.6324 30.9832 16.3908C30.9832 16.0749 30.973 15.7615 30.9529 15.4508C30.8983 14.6057 30.2598 13.9338 29.4365 13.7355C26.6323 13.0602 24.9654 10.174 25.7817 7.40733C26.0678 6.43775 25.7771 5.37113 24.9416 4.80206C24.6764 4.62146 24.4047 4.45035 24.1269 4.2892C23.186 3.74349 22.0162 4.01256 21.2667 4.80068C19.2791 6.89108 15.9461 6.89033 13.959 4.79942C13.2004 4.00127 12.0168 3.72648 11.0632 4.27721C10.8369 4.40795 10.6146 4.54528 10.3965 4.68896C9.47967 5.29316 9.15879 6.45193 9.46335 7.5069ZM17.5848 20.1718C15.5664 20.1718 13.9305 18.479 13.9305 16.3908C13.9305 14.3027 15.5664 12.6098 17.5848 12.6098C19.6028 12.6098 21.2387 14.3027 21.2387 16.3908C21.2387 18.479 19.6028 20.1718 17.5848 20.1718Z" fill="#6C7086"/>
</g>
<defs>
<filter id="filter0_d_2_499" x="-2.49426" y="0.313232" width="40.1566" height="40.1565" filterUnits="userSpaceOnUse" color-interpolation-filters="sRGB">
<feFlood flood-opacity="0" result="BackgroundImageFix"/>
<feColorMatrix in="SourceAlpha" type="matrix" values="0 0 0 0 0 0 0 0 0 0 0 0 0 0 0 0 0 0 127 0" result="hardAlpha"/>
<feOffset dy="4"/>
<feGaussianBlur stdDeviation="2"/>
<feComposite in2="hardAlpha" operator="out"/>
<feColorMatrix type="matrix" values="0 0 0 0 0 0 0 0 0 0 0 0 0 0 0 0 0 0 0.25 0"/>
<feBlend mode="normal" in2="BackgroundImageFix" result="effect1_dropShadow_2_499"/>
<feBlend mode="normal" in="SourceGraphic" in2="effect1_dropShadow_2_499" result="shape"/>
</filter>
</defs>
</svg>
