<svg width="34" height="33" viewBox="0 0 34 33" fill="none" xmlns="http://www.w3.org/2000/svg">
<path fill-rule="evenodd" clip-rule="evenodd" d="M16.8445 3.32324C9.73796 3.32324 3.98193 9.31911 3.98193 16.7218C3.98193 22.6225 7.62893 27.6108 12.7039 29.4082C12.7523 29.4253 12.8023 29.4392 12.8532 29.4455C13.4391 29.5184 13.6611 29.1347 13.6611 28.7973C13.6611 28.5996 13.6549 28.1176 13.6502 27.5119C13.6453 26.8841 13.0707 26.4224 12.4434 26.4477C10.1943 26.5385 9.54182 25.3776 9.31993 24.7275C9.17522 24.3423 8.54817 23.1531 8.00151 22.8349C7.55132 22.5837 6.90818 21.964 7.98543 21.9473C8.99836 21.9305 9.72189 22.9187 9.96306 23.3206C10.9596 25.0652 12.4685 24.8859 13.341 24.5779C13.5756 24.4951 13.7397 24.1819 13.8014 23.9409C13.9573 23.3318 13.5526 22.5052 12.9451 22.3432C10.6619 21.7345 8.6768 20.1938 8.6768 16.0184C8.6768 14.7964 9.02737 13.7511 9.62419 12.8923C9.83583 12.5878 9.90447 12.2022 9.83005 11.8389C9.71539 11.2791 9.64899 10.3952 9.9701 9.31786C10.0561 9.02925 10.2973 8.81911 10.5971 8.84684C11.082 8.89167 11.9515 9.11773 13.2618 9.97024C13.5166 10.136 13.8303 10.1878 14.1255 10.1154C15.0161 9.89719 15.9464 9.78806 16.8767 9.78806C17.806 9.78806 18.7354 9.89697 19.6252 10.1148C19.922 10.1874 20.2373 10.1346 20.4928 9.96698C21.8105 9.1023 22.6824 8.88136 23.1652 8.84166C23.4605 8.81737 23.6959 9.0259 23.7809 9.3097C24.1048 10.3908 24.0383 11.2777 23.9234 11.8389C23.849 12.2022 23.9176 12.5878 24.1297 12.8919C24.7262 13.7471 25.0766 14.7827 25.0766 16.0184C25.0766 19.8516 23.4055 21.4601 21.3692 22.1693C20.5561 22.4525 19.9772 23.7689 20.0549 24.6263C20.0689 24.7802 20.0763 24.9423 20.0763 25.1127C20.0763 26.9047 20.0602 28.3451 20.0602 28.7973C20.0602 29.149 20.3014 29.5677 20.9445 29.4337C23.498 28.5358 25.7168 26.8264 27.2887 24.5459C28.8607 22.2656 29.7065 19.5292 29.7072 16.7218C29.7072 9.31911 23.9511 3.32324 16.8445 3.32324Z" fill="#7F849C"/>
</svg>
