<svg width="35" height="38" viewBox="0 0 35 38" fill="none" xmlns="http://www.w3.org/2000/svg">
<g filter="url(#filter0_d_2_506)">
<path fill-rule="evenodd" clip-rule="evenodd" d="M17.8445 3.32324C10.738 3.32324 4.98193 9.31911 4.98193 16.7218C4.98193 22.6225 8.62893 27.6108 13.7039 29.4082C13.7523 29.4253 13.8023 29.4392 13.8532 29.4455C14.4391 29.5184 14.6611 29.1347 14.6611 28.7973C14.6611 28.5996 14.6549 28.1176 14.6502 27.5119C14.6453 26.8841 14.0707 26.4224 13.4434 26.4477C11.1943 26.5385 10.5418 25.3776 10.3199 24.7275C10.1752 24.3423 9.54817 23.1531 9.00151 22.8349C8.55132 22.5837 7.90818 21.964 8.98543 21.9473C9.99836 21.9305 10.7219 22.9187 10.9631 23.3206C11.9596 25.0652 13.4685 24.8859 14.341 24.5779C14.5756 24.4951 14.7397 24.1819 14.8014 23.9409C14.9573 23.3318 14.5526 22.5052 13.9451 22.3432C11.6619 21.7345 9.6768 20.1938 9.6768 16.0184C9.6768 14.7964 10.0274 13.7511 10.6242 12.8923C10.8358 12.5878 10.9045 12.2022 10.8301 11.8389C10.7154 11.2791 10.649 10.3952 10.9701 9.31786C11.0561 9.02925 11.2973 8.81911 11.5971 8.84684C12.082 8.89167 12.9515 9.11773 14.2618 9.97024C14.5166 10.136 14.8303 10.1878 15.1255 10.1154C16.0161 9.89719 16.9464 9.78806 17.8767 9.78806C18.806 9.78806 19.7354 9.89697 20.6252 10.1148C20.922 10.1874 21.2373 10.1346 21.4928 9.96698C22.8105 9.1023 23.6824 8.88136 24.1652 8.84166C24.4605 8.81737 24.6959 9.0259 24.7809 9.3097C25.1048 10.3908 25.0383 11.2777 24.9234 11.8389C24.849 12.2022 24.9176 12.5878 25.1297 12.8919C25.7262 13.7471 26.0766 14.7827 26.0766 16.0184C26.0766 19.8516 24.4055 21.4601 22.3692 22.1693C21.5561 22.4525 20.9772 23.7689 21.0549 24.6263C21.0689 24.7802 21.0763 24.9423 21.0763 25.1127C21.0763 26.9047 21.0602 28.3451 21.0602 28.7973C21.0602 29.149 21.3014 29.5677 21.9445 29.4337C24.498 28.5358 26.7168 26.8264 28.2887 24.5459C29.8607 22.2656 30.7065 19.5292 30.7072 16.7218C30.7072 9.31911 24.9511 3.32324 17.8445 3.32324Z" fill="#7F849C"/>
</g>
<defs>
<filter id="filter0_d_2_506" x="-2.02441" y="0.313232" width="40.1566" height="40.1565" filterUnits="userSpaceOnUse" color-interpolation-filters="sRGB">
<feFlood flood-opacity="0" result="BackgroundImageFix"/>
<feColorMatrix in="SourceAlpha" type="matrix" values="0 0 0 0 0 0 0 0 0 0 0 0 0 0 0 0 0 0 127 0" result="hardAlpha"/>
<feOffset dy="4"/>
<feGaussianBlur stdDeviation="2"/>
<feComposite in2="hardAlpha" operator="out"/>
<feColorMatrix type="matrix" values="0 0 0 0 0 0 0 0 0 0 0 0 0 0 0 0 0 0 0.25 0"/>
<feBlend mode="normal" in2="BackgroundImageFix" result="effect1_dropShadow_2_506"/>
<feBlend mode="normal" in="SourceGraphic" in2="effect1_dropShadow_2_506" result="shape"/>
</filter>
</defs>
</svg>
