<svg width="35" height="38" viewBox="0 0 35 38" fill="none" xmlns="http://www.w3.org/2000/svg">
<g filter="url(#filter0_d_2_508)">
<path d="M15.9247 5.46091C16.4812 4.47495 17.9033 4.47495 18.4599 5.46091L21.3762 10.6286C21.737 11.2681 22.3585 11.7188 23.0784 11.8639L28.9003 13.0372C30.0119 13.2612 30.4499 14.6111 29.6837 15.4435L25.6642 19.8107C25.4184 20.0776 25.233 20.3943 25.1209 20.7393C25.0086 21.0845 24.972 21.4496 25.0137 21.81L25.6955 27.7028C25.8255 28.8256 24.6764 29.6617 23.6447 29.1901L18.244 26.7214C17.914 26.5705 17.5552 26.4924 17.1924 26.4924C16.8294 26.4924 16.4707 26.5705 16.1406 26.7214L10.74 29.1901C9.70831 29.6616 8.55928 28.8256 8.68911 27.7028L9.371 21.81C9.4554 21.0807 9.21791 20.3509 8.72062 19.8107L4.70094 15.4435C3.9348 14.6112 4.37281 13.2612 5.48431 13.0372L11.3063 11.8639C12.0263 11.7188 12.6477 11.2681 13.0085 10.6286L15.9247 5.46091Z" fill="#F38BA8"/>
<circle cx="13.5" cy="16.2441" r="1.25" fill="black" stroke="black" stroke-width="0.5"/>
<circle cx="21.5" cy="16.2441" r="1.25" fill="black" stroke="black" stroke-width="0.5"/>
<path d="M16.1322 21.2441V21.2441C16.6059 22.6293 18.5441 22.6854 19.0971 21.3301L19.1322 21.2441" stroke="black" stroke-linecap="round"/>
</g>
<defs>
<filter id="filter0_d_2_508" x="-2.8678" y="0.313232" width="40.1566" height="40.1565" filterUnits="userSpaceOnUse" color-interpolation-filters="sRGB">
<feFlood flood-opacity="0" result="BackgroundImageFix"/>
<feColorMatrix in="SourceAlpha" type="matrix" values="0 0 0 0 0 0 0 0 0 0 0 0 0 0 0 0 0 0 127 0" result="hardAlpha"/>
<feOffset dy="4"/>
<feGaussianBlur stdDeviation="2"/>
<feComposite in2="hardAlpha" operator="out"/>
<feColorMatrix type="matrix" values="0 0 0 0 0 0 0 0 0 0 0 0 0 0 0 0 0 0 0.25 0"/>
<feBlend mode="normal" in2="BackgroundImageFix" result="effect1_dropShadow_2_508"/>
<feBlend mode="normal" in="SourceGraphic" in2="effect1_dropShadow_2_508" result="shape"/>
</filter>
</defs>
</svg>
