<svg width="33" height="33" viewBox="0 0 33 33" fill="none" xmlns="http://www.w3.org/2000/svg">
<g clip-path="url(#clip0_2_522)">
<mask id="mask0_2_522" style="mask-type:luminance" maskUnits="userSpaceOnUse" x="0" y="10" width="33" height="13">
<path d="M32.3146 10.2261H0.157959V22.8699H32.3146V10.2261Z" fill="white"/>
</mask>
<g mask="url(#mask0_2_522)">
<path fill-rule="evenodd" clip-rule="evenodd" d="M2.67543 14.131C2.61329 14.131 2.59774 14.0987 2.62882 14.05L2.95504 13.6123C2.98612 13.5637 3.06379 13.5312 3.12593 13.5312H8.67178C8.73392 13.5312 8.74945 13.5799 8.71838 13.6285L8.45429 14.05C8.42322 14.0987 8.34555 14.1472 8.29895 14.1472L2.67543 14.131Z" fill="#F38BA8"/>
<path fill-rule="evenodd" clip-rule="evenodd" d="M0.328618 15.6228C0.266479 15.6228 0.250945 15.5904 0.282014 15.5417L0.60824 15.104C0.63931 15.0554 0.716983 15.0229 0.77912 15.0229H7.86289C7.92503 15.0229 7.9561 15.0716 7.94056 15.1202L7.81629 15.5093C7.80076 15.5742 7.73862 15.6066 7.67648 15.6066L0.328618 15.6228Z" fill="#F38BA8"/>
<path fill-rule="evenodd" clip-rule="evenodd" d="M4.08741 17.1146C4.02526 17.1146 4.00973 17.066 4.04081 17.0173L4.25829 16.6122C4.28935 16.5635 4.35149 16.5149 4.41363 16.5149H7.52055C7.58269 16.5149 7.61375 16.5635 7.61375 16.6284L7.58269 17.0173C7.58269 17.0822 7.52055 17.1308 7.47395 17.1308L4.08741 17.1146Z" fill="#F38BA8"/>
<path fill-rule="evenodd" clip-rule="evenodd" d="M20.2126 13.8402C19.2339 14.0995 18.5659 14.2941 17.6028 14.5535C17.3698 14.6183 17.3543 14.6345 17.1523 14.3914C16.9192 14.1157 16.7484 13.9375 16.4221 13.7754C15.4435 13.2729 14.4959 13.4188 13.6104 14.0186C12.5541 14.7318 12.0103 15.7855 12.0259 17.0984C12.0414 18.3953 12.8958 19.4651 14.1231 19.6435C15.1794 19.7892 16.0649 19.4003 16.7639 18.5736C16.9556 18.3293 16.7618 17.9737 16.4513 17.9737C15.9568 17.9737 15.2752 17.9737 14.1852 17.9737C13.859 17.9737 13.7813 17.7631 13.8901 17.4875C14.092 16.9849 14.4649 16.142 14.6823 15.7206C14.7289 15.6234 14.8376 15.4612 15.0706 15.4612H19.4084C20.1201 15.4612 20.7319 16.0697 20.6321 16.7743C20.4611 17.9413 20.0417 19.0112 19.3581 19.9514C18.2398 21.4914 16.7795 22.4478 14.9309 22.7071C13.4085 22.9178 11.9948 22.6099 10.752 21.6373C9.60248 20.7294 8.95002 19.53 8.77915 18.0386C8.57719 16.2717 9.07431 14.6832 10.0996 13.2891C11.2025 11.7816 12.6628 10.8252 14.4493 10.4848C15.9095 10.2092 17.3076 10.3875 18.5659 11.2791C19.2804 11.7714 19.8195 12.4225 20.2033 13.2005C20.321 13.439 20.4699 13.7731 20.2126 13.8402Z" fill="#F38BA8"/>
<path d="M25.3547 22.8046C23.941 22.7722 22.6517 22.3508 21.5642 21.3782C20.6478 20.5515 20.073 19.4978 19.8866 18.2496C19.607 16.4179 20.0885 14.7969 21.1449 13.3542C22.2789 11.7981 23.6458 10.9876 25.4946 10.6471C27.0791 10.3554 28.5703 10.5175 29.9219 11.4739C31.149 12.3492 31.9103 13.5325 32.1123 15.0886C32.3763 17.277 31.7705 19.0601 30.3258 20.5839C29.3004 21.67 28.0422 22.3508 26.5974 22.6587C26.178 22.7398 25.7587 22.756 25.3547 22.8046ZM29.0519 16.2558C29.0363 16.045 29.0363 15.883 29.0053 15.7209C28.7258 14.116 27.3121 13.2083 25.8362 13.5649C24.3916 13.9054 23.4595 14.8618 23.1177 16.3855C22.838 17.6499 23.4284 18.9304 24.5469 19.4492C25.4013 19.8382 26.2557 19.7895 27.0791 19.3519C28.3063 18.6874 28.9743 17.6499 29.0519 16.2558Z" fill="#F38BA8"/>
</g>
</g>
<defs>
<clipPath id="clip0_2_522">
<rect width="32.1566" height="32.1566" fill="white" transform="translate(0.156616 0.469727)"/>
</clipPath>
</defs>
</svg>
