<svg width="33" height="33" viewBox="0 0 33 33" fill="none" xmlns="http://www.w3.org/2000/svg">
<g clip-path="url(#clip0_2_512)">
<mask id="mask0_2_512" style="mask-type:luminance" maskUnits="userSpaceOnUse" x="0" y="10" width="33" height="13">
<path d="M32.1576 10.2261H0.000976562V22.8699H32.1576V10.2261Z" fill="white"/>
</mask>
<g mask="url(#mask0_2_512)">
<path fill-rule="evenodd" clip-rule="evenodd" d="M2.51698 14.1311C2.45484 14.1311 2.4393 14.0987 2.47037 14.05L2.7966 13.6123C2.82767 13.5637 2.90534 13.5312 2.96748 13.5312H8.51333C8.57547 13.5312 8.591 13.5799 8.55993 13.6285L8.29584 14.05C8.26477 14.0987 8.1871 14.1473 8.1405 14.1473L2.51698 14.1311Z" fill="#89B4FA"/>
<path fill-rule="evenodd" clip-rule="evenodd" d="M0.171514 15.6227C0.109375 15.6227 0.0938404 15.5902 0.12491 15.5416L0.451136 15.104C0.482206 15.0554 0.559878 15.0229 0.622016 15.0229H7.70579C7.76793 15.0229 7.799 15.0716 7.78346 15.1201L7.65919 15.5092C7.64366 15.574 7.58151 15.6065 7.51937 15.6065L0.171514 15.6227Z" fill="#89B4FA"/>
<path fill-rule="evenodd" clip-rule="evenodd" d="M3.9303 17.1146C3.86816 17.1146 3.85263 17.066 3.8837 17.0175L4.10119 16.6122C4.13225 16.5635 4.19439 16.5149 4.25653 16.5149H7.36345C7.42559 16.5149 7.45665 16.5635 7.45665 16.6284L7.42559 17.0175C7.42559 17.0822 7.36345 17.1308 7.31685 17.1308L3.9303 17.1146Z" fill="#89B4FA"/>
<path fill-rule="evenodd" clip-rule="evenodd" d="M20.0553 13.8402C19.0767 14.0996 18.4087 14.2941 17.4456 14.5535C17.2126 14.6183 17.197 14.6345 16.9951 14.3913C16.762 14.1159 16.5911 13.9375 16.2649 13.7754C15.2863 13.2729 14.3387 13.4188 13.4532 14.0186C12.3968 14.7318 11.8531 15.7855 11.8686 17.0984C11.8842 18.3952 12.7386 19.4651 13.9658 19.6434C15.0222 19.7893 15.9077 19.4003 16.6067 18.5736C16.7983 18.3292 16.6046 17.9737 16.2941 17.9737C15.7995 17.9737 15.118 17.9737 14.028 17.9737C13.7017 17.9737 13.624 17.7631 13.7328 17.4875C13.9347 16.985 14.3076 16.142 14.5251 15.7206C14.5717 15.6233 14.6804 15.4612 14.9134 15.4612H19.2512C19.9628 15.4612 20.5747 16.0697 20.4749 16.7743C20.3039 17.9414 19.8845 19.0112 19.2009 19.9513C18.0825 21.4914 16.6222 22.4478 14.7736 22.7072C13.2512 22.9178 11.8376 22.6099 10.5948 21.6373C9.44525 20.7295 8.7928 19.53 8.62192 18.0386C8.41997 16.2717 8.91708 14.6831 9.94235 13.2891C11.0453 11.7816 12.5056 10.8252 14.2921 10.4848C15.7523 10.2092 17.1504 10.3875 18.4087 11.279C19.1232 11.7714 19.6622 12.4225 20.0461 13.2005C20.1638 13.439 20.3127 13.7731 20.0553 13.8402Z" fill="#89B4FA"/>
<path d="M25.1968 22.8046C23.7832 22.7722 22.4938 22.3508 21.4064 21.3782C20.4899 20.5515 19.9151 19.4978 19.7288 18.2496C19.4491 16.4179 19.9307 14.7969 20.987 13.3542C22.1211 11.7981 23.488 10.9876 25.3367 10.6471C26.9212 10.3554 28.4125 10.5175 29.764 11.4739C30.9912 12.3492 31.7525 13.5325 31.9544 15.0888C32.2185 17.277 31.6126 19.0601 30.168 20.5839C29.1426 21.67 27.8843 22.3508 26.4396 22.6588C26.0202 22.7397 25.6008 22.756 25.1968 22.8046ZM28.8941 16.2558C28.8785 16.0451 28.8785 15.883 28.8474 15.7209C28.5679 14.1161 27.1542 13.2083 25.6784 13.5649C24.2338 13.9054 23.3016 14.8618 22.9598 16.3855C22.6802 17.6499 23.2705 18.9304 24.389 19.4492C25.2435 19.8383 26.0979 19.7896 26.9212 19.3519C28.1484 18.6873 28.8165 17.6499 28.8941 16.2558Z" fill="#89B4FA"/>
</g>
</g>
<defs>
<clipPath id="clip0_2_512">
<rect width="32.1566" height="32.1566" fill="white" transform="translate(0 0.469727)"/>
</clipPath>
</defs>
</svg>
