<svg width="33" height="33" viewBox="0 0 33 33" fill="none" xmlns="http://www.w3.org/2000/svg">
<path fill-rule="evenodd" clip-rule="evenodd" d="M16.4145 7.92476C16.8125 7.92476 17.2235 8.07217 17.4225 8.41687L23.9611 19.7421C24.16 20.0866 24.0852 20.5115 23.8852 20.8553C23.6851 21.1995 23.3505 21.4872 22.9524 21.4872H9.87483C9.47696 21.4872 9.14255 21.1997 8.94257 20.8557C8.74283 20.5121 8.66822 20.0877 8.86691 19.7435L15.4063 8.41698C15.6054 8.07221 16.0164 7.92476 16.4145 7.92476ZM9.24957 22.6207C9.21866 22.6207 9.19183 22.6419 9.18386 22.6718C9.1759 22.7016 9.18855 22.7333 9.21529 22.7487L13.33 25.1243C14.1281 25.5851 15.1461 25.3354 16.0574 25.1987C16.1739 25.1813 16.2931 25.1722 16.4145 25.1722C16.5358 25.1722 16.6551 25.1813 16.7716 25.1987C17.6829 25.3354 18.7009 25.5851 19.4989 25.1243L23.6122 22.7496C23.6391 22.734 23.6518 22.7022 23.6438 22.6722C23.6357 22.6421 23.6088 22.6207 23.5777 22.6207H9.24957ZM14.027 27.5597C14.027 27.1615 13.8796 26.7504 13.5347 26.5513L9.9627 24.489C9.16438 24.0281 8.14588 24.2781 7.23426 24.4148C7.11777 24.4323 6.99853 24.4413 6.87717 24.4413C5.55863 24.4413 4.48975 23.3725 4.48975 22.054C4.48975 21.491 4.68456 20.9736 5.01046 20.5654C5.58622 19.8443 6.31175 19.0842 6.31175 18.1614V14.9354C6.31175 14.0126 5.58624 13.2525 5.01048 12.5314C4.68457 12.1232 4.48975 11.6058 4.48975 11.0429C4.48975 9.72433 5.55863 8.65545 6.87717 8.65545C6.99855 8.65545 7.11782 8.66451 7.23433 8.68198C8.14592 8.81873 9.16437 9.06867 9.96266 8.60777L13.5348 6.54537C13.8796 6.34633 14.027 5.9354 14.027 5.53733C14.027 4.21879 15.0959 3.1499 16.4145 3.1499C17.733 3.1499 18.8018 4.21879 18.8018 5.53733C18.8018 5.93536 18.9493 6.34635 19.294 6.54537L22.8658 8.60753C23.6639 9.06831 24.682 8.8186 25.5934 8.68196C25.7099 8.6645 25.8291 8.65545 25.9504 8.65545C27.2689 8.65545 28.3378 9.72433 28.3378 11.0429C28.3378 11.6056 28.1431 12.1229 27.8173 12.531C27.242 13.2519 26.5172 14.0118 26.5172 14.9341V18.1626C26.5172 19.085 27.2421 19.845 27.8174 20.5659C28.1431 20.974 28.3378 21.4913 28.3378 22.054C28.3378 23.3725 27.2689 24.4413 25.9504 24.4413C25.8291 24.4413 25.7099 24.4323 25.5935 24.4148C24.6821 24.2783 23.6639 24.0286 22.8657 24.4893L19.2942 26.5513C18.9494 26.7504 18.8018 27.1615 18.8018 27.5597C18.8018 28.8781 17.733 29.9471 16.4145 29.9471C15.0959 29.9471 14.027 28.8781 14.027 27.5597ZM7.4453 14.9328C7.4453 14.0109 8.16945 13.2513 8.74441 12.5307C9.06999 12.1226 9.2646 11.6055 9.2646 11.0429C9.2646 10.6452 9.41197 10.2346 9.75638 10.0358L14.6437 7.21414C14.6705 7.19864 14.7044 7.20357 14.7263 7.2255C14.7482 7.24739 14.7532 7.28126 14.7377 7.30808L7.57383 19.7161C7.55832 19.743 7.52656 19.7557 7.49658 19.7477C7.4666 19.7397 7.4453 19.7127 7.4453 19.6817V14.9328ZM25.2548 19.7158C25.2703 19.7427 25.3022 19.7554 25.3322 19.7473C25.3622 19.7393 25.3836 19.7123 25.3836 19.6812V14.9341C25.3836 14.0118 24.6588 13.2519 24.0834 12.531C23.7577 12.1229 23.563 11.6056 23.563 11.0429C23.563 10.6448 23.4155 10.2338 23.0708 10.0348L18.1852 7.21412C18.1584 7.19863 18.1246 7.20354 18.1027 7.22546C18.0808 7.2474 18.0758 7.2813 18.0913 7.30816L25.2548 19.7158Z" fill="#F38BA8"/>
</svg>
