<svg width="33" height="37" viewBox="0 0 33 37" fill="none" xmlns="http://www.w3.org/2000/svg">
<g filter="url(#filter0_d_2_536)">
<path d="M12.0995 21.9638C11.8758 19.7393 11.6614 17.5138 11.4564 15.2873C11.4577 15.231 11.1536 15.1855 10.7784 15.1855V15.1855C10.4025 15.1855 10.0978 14.8808 10.0978 14.5048V13.8905C10.0978 13.1753 10.6776 12.5955 11.3928 12.5955H13.4117C14.5162 12.5955 15.4117 11.7001 15.4117 10.5955V8.70221C15.4117 8.00036 15.7796 7.34987 16.3811 6.9882L17.9185 6.06374C19.446 5.14593 20.5688 4.5564 20.7912 4.5564C21.3271 4.5564 21.9515 5.23436 21.9515 5.81586C21.9515 6.0691 21.8751 6.37994 21.7814 6.50857C21.6876 6.63586 20.814 7.2187 19.8386 7.80153L19.0166 8.29496C18.4267 8.64909 18.0602 9.28159 18.0464 9.9695L18.0311 10.7291V10.7291C18.0098 11.7536 18.8344 12.5955 19.8591 12.5955H22.0192C22.7344 12.5955 23.3142 13.1753 23.3142 13.8905V14.4965C23.3142 14.877 23.0057 15.1855 22.6252 15.1855V15.1855C22.271 15.1855 21.9745 15.454 21.9395 15.8065L21.3392 21.862L20.855 26.7362C20.7534 27.7592 19.8928 28.5385 18.8648 28.5385H14.5614C13.533 28.5385 12.6723 27.7586 12.5711 26.7352L12.0995 21.9638Z" fill="#F38BA8"/>
</g>
<defs>
<filter id="filter0_d_2_536" x="-3.37354" y="0.469727" width="40.1566" height="40.1565" filterUnits="userSpaceOnUse" color-interpolation-filters="sRGB">
<feFlood flood-opacity="0" result="BackgroundImageFix"/>
<feColorMatrix in="SourceAlpha" type="matrix" values="0 0 0 0 0 0 0 0 0 0 0 0 0 0 0 0 0 0 127 0" result="hardAlpha"/>
<feOffset dy="4"/>
<feGaussianBlur stdDeviation="2"/>
<feComposite in2="hardAlpha" operator="out"/>
<feColorMatrix type="matrix" values="0 0 0 0 0 0 0 0 0 0 0 0 0 0 0 0 0 0 0.25 0"/>
<feBlend mode="normal" in2="BackgroundImageFix" result="effect1_dropShadow_2_536"/>
<feBlend mode="normal" in="SourceGraphic" in2="effect1_dropShadow_2_536" result="shape"/>
</filter>
</defs>
</svg>
