<svg width="33" height="37" viewBox="0 0 33 37" fill="none" xmlns="http://www.w3.org/2000/svg">
<g filter="url(#filter0_d_2_538)">
<path d="M13.3947 18.2008V26.4097C13.3947 27.8403 12.235 29 10.8044 29V29C9.37383 29 8.21411 27.8403 8.21411 26.4097V6.61133C8.21411 5.22104 9.34116 4.09399 10.7314 4.09399V4.09399C12.1217 4.09399 13.2488 5.22105 13.2488 6.61133V13.4864C13.2488 13.558 13.3069 13.6161 13.3785 13.6161V13.6161C13.4323 13.6161 13.4804 13.5828 13.5003 13.5329C13.924 12.47 14.5941 11.6343 15.5107 11.0258C16.4511 10.3934 17.6309 10.0773 19.0496 10.0773C20.3468 10.0773 21.4778 10.361 22.4426 10.9285C23.4156 11.4879 24.1695 12.2946 24.7045 13.3486C25.2477 14.3944 25.5154 15.6471 25.5072 17.1063V26.4097C25.5072 27.8403 24.3475 29 22.9169 29V29C21.4863 29 20.3266 27.8403 20.3266 26.4097V18.0306C20.3346 16.8793 20.0427 15.9834 19.4511 15.343C18.8672 14.7025 18.0483 14.3823 16.9945 14.3823C16.289 14.3823 15.6648 14.5322 15.1216 14.8322C14.5865 15.1322 14.1649 15.57 13.8568 16.1457C13.5568 16.7132 13.4029 17.3982 13.3947 18.2008Z" fill="#89B4FA"/>
</g>
<defs>
<filter id="filter0_d_2_538" x="-3.21704" y="0.469727" width="40.1566" height="40.1565" filterUnits="userSpaceOnUse" color-interpolation-filters="sRGB">
<feFlood flood-opacity="0" result="BackgroundImageFix"/>
<feColorMatrix in="SourceAlpha" type="matrix" values="0 0 0 0 0 0 0 0 0 0 0 0 0 0 0 0 0 0 127 0" result="hardAlpha"/>
<feOffset dy="4"/>
<feGaussianBlur stdDeviation="2"/>
<feComposite in2="hardAlpha" operator="out"/>
<feColorMatrix type="matrix" values="0 0 0 0 0 0 0 0 0 0 0 0 0 0 0 0 0 0 0.25 0"/>
<feBlend mode="normal" in2="BackgroundImageFix" result="effect1_dropShadow_2_538"/>
<feBlend mode="normal" in="SourceGraphic" in2="effect1_dropShadow_2_538" result="shape"/>
</filter>
</defs>
</svg>
