<svg width="34" height="33" viewBox="0 0 34 33" fill="none" xmlns="http://www.w3.org/2000/svg">
<path d="M9.06113 4.11124C7.43335 4.07051 6.75722 5.99008 7.47719 7.45054L10.9935 14.5834C11.3007 15.2065 11.3821 15.9168 11.2239 16.5932L9.06695 25.8144C8.81024 26.9118 9.16657 28.1299 10.2084 28.5599C10.9589 28.8697 11.6784 28.9758 12.2883 28.9861C13.3954 29.0047 14.1572 28.0533 14.3107 26.9568L15.2742 20.0764C15.3133 19.797 15.6582 19.672 15.884 19.8412C16.4509 20.2427 17.0651 20.5496 17.679 20.7858C18.2932 21.022 18.931 21.2109 19.5687 21.3527C20.1825 21.489 20.5378 22.1646 20.5341 22.7934C20.5338 22.8402 20.5348 22.8875 20.537 22.9352C20.537 22.9789 20.5573 23.0226 20.5979 23.0475C20.6043 23.0515 20.6119 23.0531 20.6194 23.0531C20.6274 23.0531 20.6352 23.055 20.6422 23.0587C21.0877 23.2923 21.5566 23.4796 22.0721 23.5967C22.5681 23.6911 23.1116 23.7384 23.6312 23.6675C24.1744 23.5968 24.7177 23.384 25.1428 23.0298C25.565 22.678 25.8707 22.2097 26.06 21.7177C26.0627 21.7107 26.0668 21.7043 26.0721 21.699C26.0821 21.6891 26.0877 21.6756 26.0877 21.6615V21.6599L26.1587 21.0223C26.1587 21.0075 26.1664 20.9939 26.179 20.9863C26.4083 20.8486 26.6378 20.7096 26.8672 20.5262C27.1506 20.29 27.4104 20.0301 27.5993 19.6994C27.7884 19.3687 27.9064 18.9672 27.8827 18.5656C27.8591 18.1878 27.7172 17.8101 27.5519 17.4794C27.3865 17.1487 27.174 16.8415 26.9379 16.558C26.4655 16.0148 25.8986 15.5662 25.2846 15.2118C24.694 14.834 24.0326 14.5266 23.3712 14.3141L23.1114 14.2431L22.8992 14.1724C22.843 14.1537 22.7904 14.1312 22.7401 14.108C22.5944 14.0407 22.4488 13.97 22.3206 13.8735C22.1866 13.7727 22.0827 13.6648 22.0012 13.5346C21.7652 13.1804 21.7416 12.6373 21.8596 12.0704C21.8832 11.9287 21.9306 11.7869 21.9779 11.6452C22.0251 11.5035 22.0723 11.3617 22.1195 11.1963C22.1858 10.8962 22.3147 10.6062 22.546 10.4038L23.9339 9.18929C24.7949 8.43593 24.7006 7.1397 23.6692 6.64465C22.7129 6.18563 21.8733 6.5254 21.0652 7.21265L17.1143 10.5727C15.6535 11.8151 13.4182 11.3867 12.5201 9.69237L9.84669 4.64858C9.68675 4.34683 9.40254 4.1197 9.06113 4.11124ZM20.1081 12.5373C20.3023 12.3674 20.6319 12.5444 20.6319 12.8024C20.6555 13.2039 20.7738 13.6531 21.0335 14.031C21.2933 14.4089 21.6474 14.6922 22.0018 14.8576C22.1761 14.9448 22.358 15.0159 22.5452 15.0702L22.8287 15.141L23.0648 15.1881C23.679 15.3535 24.2692 15.5897 24.8125 15.8968C25.3557 16.2039 25.8754 16.5817 26.3006 17.0068C26.7258 17.432 27.0565 17.9753 27.1038 18.5186C27.1274 18.8966 27.08 19.18 26.9618 19.416C26.8439 19.6758 26.6548 19.9121 26.4423 20.1246C26.3252 20.2418 26.1303 20.1473 26.1074 19.9832C26.0964 19.9044 26.0821 19.8256 26.0646 19.7467C26.041 19.6287 26.0172 19.5342 25.97 19.416C25.927 19.3299 25.884 19.2242 25.7871 19.1525C25.7684 19.1387 25.7411 19.1267 25.7205 19.1375C25.706 19.1451 25.707 19.1641 25.7008 19.1792C25.5581 19.5237 25.3266 19.8223 25.0726 20.0302C24.8127 20.2429 24.482 20.3372 24.1513 20.3609C23.8206 20.3845 23.4662 20.3137 23.112 20.2193C22.7576 20.1248 22.4036 20.0065 22.0493 19.8885L22.0018 19.8648C21.9309 19.8412 21.8368 19.865 21.7895 19.9122C21.6008 20.1485 21.4587 20.3608 21.2935 20.597C21.1044 20.8961 20.7342 21.043 20.4025 20.9197C20.1817 20.8377 19.9615 20.7561 19.7346 20.6679C19.144 20.4317 18.5534 20.1957 18.0102 19.9122C17.4433 19.6524 16.9004 19.3452 16.428 18.9909C16.3654 18.944 16.3037 18.8966 16.2433 18.8487C15.7492 18.4568 15.5922 17.81 15.6796 17.1855L15.7005 17.0357C15.7666 16.5639 16.0002 16.1316 16.3588 15.8178L20.1081 12.5373Z" fill="#FAB387"/>
</svg>
