<svg width="33" height="33" viewBox="0 0 33 33" fill="none" xmlns="http://www.w3.org/2000/svg">
<path d="M17.3733 20.5198C17.5106 20.1511 17.419 19.736 17.1391 19.4594L14.8476 17.195C14.8293 17.1769 14.8293 17.1475 14.8475 17.1294C16.5819 15.1955 17.8633 12.9988 18.683 10.6711C18.8286 10.2575 19.2134 9.97092 19.6519 9.97092H21.1265C21.6788 9.97092 22.1265 9.5232 22.1265 8.97092V8.77843C22.1265 8.22614 21.6788 7.77843 21.1265 7.77843H15.4527C14.9004 7.77843 14.4527 7.33071 14.4527 6.77843V6.58594C14.4527 6.03365 14.005 5.58594 13.4527 5.58594H13.2603C12.708 5.58594 12.2603 6.03365 12.2603 6.58594V6.77843C12.2603 7.33071 11.8126 7.77843 11.2603 7.77843H5.58655C5.03426 7.77843 4.58655 8.22614 4.58655 8.77843V8.97092C4.58655 9.5232 5.03426 9.97092 5.58655 9.97092H15.4235C16.112 9.97092 16.593 10.6506 16.3136 11.2798C15.7357 12.5813 14.9875 13.8304 14.0719 14.9882C13.7039 15.4534 13.0085 15.454 12.6404 14.9888C12.0643 14.2608 11.555 13.4952 11.1125 12.7022C10.9297 12.3746 10.5882 12.1634 10.2131 12.1634H10.1752C9.45036 12.1634 8.97034 12.9095 9.32015 13.5444C9.87549 14.5523 10.5293 15.5209 11.2771 16.4372C11.615 16.8512 11.5991 17.4576 11.2186 17.8329L7.03556 21.9584C6.64041 22.3481 6.63821 22.985 7.03065 23.3775L7.16819 23.515C7.55872 23.9055 8.19188 23.9055 8.5824 23.515L12.6494 19.448C13.0399 19.0575 13.6731 19.0575 14.0636 19.448L15.6651 21.0495C16.18 21.5645 17.0551 21.3739 17.3093 20.6915L17.3733 20.5198ZM24.0142 15.0048C23.8679 14.6145 23.4947 14.3559 23.0779 14.3559H22.2714C21.8545 14.3559 21.4814 14.6145 21.335 15.0048L17.1519 26.1598C16.9068 26.8136 17.3901 27.5109 18.0883 27.5109H18.1437C18.5611 27.5109 18.9346 27.2517 19.0806 26.8607L19.8228 24.8724C19.9688 24.4813 20.3422 24.2221 20.7596 24.2221H24.5808C24.9971 24.2221 25.3699 24.48 25.5166 24.8696L26.2676 26.8634C26.4143 27.253 26.7871 27.5109 27.2034 27.5109H27.261C27.9592 27.5109 28.4425 26.8136 28.1973 26.1598L24.0142 15.0048ZM22.3405 22.0297C21.6426 22.0297 21.1593 21.3329 21.4039 20.6793L21.738 19.7862C22.0621 18.9201 23.2872 18.9201 23.6112 19.7862L23.9454 20.6793C24.1899 21.3329 23.7067 22.0297 23.0088 22.0297H22.3405Z" fill="#CBA6F7"/>
</svg>
