<svg width="37" height="33" viewBox="0 0 37 33" fill="none" xmlns="http://www.w3.org/2000/svg">
<g filter="url(#filter0_d_2_553)">
<path fill-rule="evenodd" clip-rule="evenodd" d="M15.6573 21.3346C14.6234 21.9032 14.7624 23.3629 15.9268 23.554C16.8017 23.6976 17.7306 23.7771 18.7137 23.7771C25.7284 23.7771 30.0843 19.7359 31.7816 17.1675C32.0635 16.7411 32.0224 16.188 31.6932 15.7969C31.5085 15.5774 31.3029 15.3466 31.0774 15.108C30.22 14.2007 28.8492 14.079 27.7555 14.6806L25.4201 15.965C24.4887 16.4773 23.9642 17.475 23.5778 18.4653C22.849 20.3331 21.0323 21.6563 18.9065 21.6563C18.252 21.6563 17.6268 21.5309 17.0537 21.3028C16.6002 21.1223 16.085 21.0994 15.6573 21.3346ZM15.6985 12.7925C15.4874 12.9684 15.2696 13.1376 15.0288 13.27L7.33788 17.5001C6.80511 17.7931 6.12988 17.6593 5.80556 17.145C5.54279 16.7283 5.58321 16.1987 5.89368 15.8161C7.92085 13.3191 12.6306 9.31812 18.7137 9.31812C19.7318 9.31812 19.9505 10.5631 19.0584 11.0537L17.9642 11.6555C17.8382 11.7248 17.7028 11.7749 17.5643 11.8133C16.8702 12.0057 16.2366 12.3438 15.6985 12.7925ZM18.731 19.644C18.5288 19.7553 18.5793 20.037 18.8102 20.037C19.4643 20.037 20.0746 19.8495 20.5903 19.5253C21.2181 19.1307 20.6919 18.5656 20.0422 18.9229L18.731 19.644Z" fill="#89B4FA" fill-opacity="0.5"/>
<path d="M5.79956 22.5516L30.8357 8.78174" stroke="#6C7086" stroke-width="3.44535" stroke-linecap="round"/>
</g>
<defs>
<filter id="filter0_d_2_553" x="-1.27734" y="0.469727" width="40.1566" height="40.1565" filterUnits="userSpaceOnUse" color-interpolation-filters="sRGB">
<feFlood flood-opacity="0" result="BackgroundImageFix"/>
<feColorMatrix in="SourceAlpha" type="matrix" values="0 0 0 0 0 0 0 0 0 0 0 0 0 0 0 0 0 0 127 0" result="hardAlpha"/>
<feOffset dy="4"/>
<feGaussianBlur stdDeviation="2"/>
<feComposite in2="hardAlpha" operator="out"/>
<feColorMatrix type="matrix" values="0 0 0 0 0 0 0 0 0 0 0 0 0 0 0 0 0 0 0.25 0"/>
<feBlend mode="normal" in2="BackgroundImageFix" result="effect1_dropShadow_2_553"/>
<feBlend mode="normal" in="SourceGraphic" in2="effect1_dropShadow_2_553" result="shape"/>
</filter>
</defs>
</svg>
