<svg width="37" height="33" viewBox="0 0 37 33" fill="none" xmlns="http://www.w3.org/2000/svg">
<g filter="url(#filter0_d_2_553)">
<path fill-rule="evenodd" clip-rule="evenodd" d="M13.0148 22.788C14.6549 23.3936 16.5532 23.7771 18.7137 23.7771C25.7284 23.7771 30.0843 19.7359 31.7816 17.1675C32.0635 16.7411 32.0224 16.188 31.6932 15.7969C31.1554 15.158 30.4406 14.4222 29.5731 13.6809L23.9168 16.7918C23.8385 19.4918 21.6254 21.6563 18.9065 21.6563C17.9717 21.6563 17.0966 21.4005 16.3477 20.9549L13.0148 22.788ZM15.3917 13.0704L6.41237 18.0091C6.18013 17.7086 5.97792 17.4183 5.80556 17.145C5.54279 16.7283 5.58321 16.1987 5.89368 15.8161C7.92085 13.3191 12.6306 9.31812 18.7137 9.31812C19.7305 9.31812 20.7118 9.42989 21.6511 9.62773L17.7743 11.7599C16.8588 11.9713 16.0391 12.4336 15.3917 13.0704ZM18.1389 19.9697C18.3558 20.0138 18.5803 20.037 18.8102 20.037C20.2408 20.037 21.4619 19.1402 21.942 17.8781L18.1389 19.9697Z" fill="#89B4FA" fill-opacity="0.5"/>
<path d="M5.79956 22.5516L30.8357 8.78174" stroke="#6C7086" stroke-width="3.44535" stroke-linecap="round"/>
</g>
<defs>
<filter id="filter0_d_2_553" x="-1.27734" y="0.469727" width="40.1566" height="40.1565" filterUnits="userSpaceOnUse" color-interpolation-filters="sRGB">
<feFlood flood-opacity="0" result="BackgroundImageFix"/>
<feColorMatrix in="SourceAlpha" type="matrix" values="0 0 0 0 0 0 0 0 0 0 0 0 0 0 0 0 0 0 127 0" result="hardAlpha"/>
<feOffset dy="4"/>
<feGaussianBlur stdDeviation="2"/>
<feComposite in2="hardAlpha" operator="out"/>
<feColorMatrix type="matrix" values="0 0 0 0 0 0 0 0 0 0 0 0 0 0 0 0 0 0 0.25 0"/>
<feBlend mode="normal" in2="BackgroundImageFix" result="effect1_dropShadow_2_553"/>
<feBlend mode="normal" in="SourceGraphic" in2="effect1_dropShadow_2_553" result="shape"/>
</filter>
</defs>
</svg>
