<svg width="36" height="38" viewBox="0 0 36 38" fill="none" xmlns="http://www.w3.org/2000/svg">
<g filter="url(#filter0_d_2_560)">
<path fill-rule="evenodd" clip-rule="evenodd" d="M18.1143 6.36457C12.4904 6.36457 7.93135 10.9236 7.93135 16.5475C7.93135 22.1714 12.4904 26.7304 18.1143 26.7304C23.7382 26.7304 28.2972 22.1714 28.2972 16.5475C28.2972 16.2548 28.2849 15.9649 28.2608 15.6786C28.2487 15.537 28.234 15.3962 28.2163 15.2563C28.1489 14.7223 28.04 14.2016 27.8934 13.6974C27.8894 13.6838 27.8991 13.6701 27.9132 13.6693V13.6693C28.0512 13.6612 28.1873 13.6458 28.3211 13.6234C28.9403 13.5198 29.5091 13.2675 29.9897 12.9045C30.3643 12.6215 30.9676 12.7243 31.0855 13.1788V13.1788C31.3645 14.2561 31.5129 15.3852 31.5129 16.5475C31.5129 23.9473 25.5141 29.9461 18.1143 29.9461C10.7144 29.9461 4.7157 23.9473 4.7157 16.5475C4.7157 9.14767 10.7144 3.14893 18.1143 3.14893C20.8017 3.14893 23.3054 3.94117 25.4029 5.30328C25.8425 5.58875 26.383 5.66117 26.9071 5.66117V5.66117C28.5258 5.66117 29.838 6.9734 29.838 8.59211C29.838 10.2108 28.5258 11.5231 26.9071 11.5231C25.2884 11.5231 23.9762 10.2108 23.9762 8.59211V8.59211C23.9762 8.37154 23.8864 8.15426 23.7022 8.03304C22.0977 6.97756 20.1782 6.36457 18.1143 6.36457ZM18.1143 22.4094C21.3441 22.4094 23.9762 19.7823 23.9762 16.5475C23.9762 13.3177 21.3491 10.6857 18.1143 10.6857C14.8795 10.6857 12.2524 13.3177 12.2524 16.5475C12.2524 19.7774 14.8845 22.4094 18.1143 22.4094Z" fill="#89B4FA"/>
</g>
<defs>
<filter id="filter0_d_2_560" x="-1.96411" y="0.469727" width="40.1566" height="40.1565" filterUnits="userSpaceOnUse" color-interpolation-filters="sRGB">
<feFlood flood-opacity="0" result="BackgroundImageFix"/>
<feColorMatrix in="SourceAlpha" type="matrix" values="0 0 0 0 0 0 0 0 0 0 0 0 0 0 0 0 0 0 127 0" result="hardAlpha"/>
<feOffset dy="4"/>
<feGaussianBlur stdDeviation="2"/>
<feComposite in2="hardAlpha" operator="out"/>
<feColorMatrix type="matrix" values="0 0 0 0 0 0 0 0 0 0 0 0 0 0 0 0 0 0 0.25 0"/>
<feBlend mode="normal" in2="BackgroundImageFix" result="effect1_dropShadow_2_560"/>
<feBlend mode="normal" in="SourceGraphic" in2="effect1_dropShadow_2_560" result="shape"/>
</filter>
</defs>
</svg>
