<svg width="33" height="33" viewBox="0 0 33 33" fill="none" xmlns="http://www.w3.org/2000/svg">
<mask id="mask0_2_570" style="mask-type:luminance" maskUnits="userSpaceOnUse" x="2" y="2" width="28" height="29">
<path d="M2.19983 2.56714H29.783V30.1502H2.19983V2.56714Z" fill="#CDD6F4"/>
</mask>
<g mask="url(#mask0_2_570)">
<path fill-rule="evenodd" clip-rule="evenodd" d="M22.6484 24.2949L20.2598 24.6532L17.0353 25.0115L14.9453 25.0711L12.9152 25.0115L11.3624 24.5337L9.98919 23.0411L8.91429 19.9956L8.67555 19.3386L7.24234 18.8611L6.40637 17.4877L5.80933 15.5172L6.46634 13.7855L8.01873 13.2481L9.27259 13.8453L9.86982 15.1589L10.5864 15.0394L10.8252 14.7409L10.5864 13.3676L10.5266 11.6357L10.885 9.24734L10.8708 7.88308L11.9597 6.14238L13.8706 4.76914L17.2145 3.33594L20.9164 3.87339L24.141 6.20216L25.6339 8.59051L26.5893 10.3223L26.8281 14.6215L26.1114 18.3237L24.7979 21.6078L23.544 23.3393" fill="#F0D6B7"/>
<path fill-rule="evenodd" clip-rule="evenodd" d="M20.6177 34.6242L12.0785 34.9825V36.4155L12.7951 41.4314L12.4368 41.8495L6.46564 39.8194L6.04736 39.1027L5.45032 32.3554L4.07708 28.2949L3.77856 27.3396L8.55528 24.0554L10.0485 23.4583L11.3619 25.0704L12.4964 26.0854L13.8104 26.5033L14.4073 26.6825L15.1238 29.7875L15.6614 30.4445L17.0346 29.9666L16.0793 31.8179L21.2742 34.2661L20.6177 34.6242Z" fill="#335061"/>
<path fill-rule="evenodd" clip-rule="evenodd" d="M6.46635 13.7851L8.01874 13.2477L9.27279 13.8449L9.87002 15.1586L10.5864 15.0389L10.7656 14.3225L10.4073 12.9493L10.7656 9.66484L10.4671 7.87353L11.5418 6.61966L13.8705 4.76856L13.2135 3.8728L9.92962 5.48516L8.55618 6.55988L7.77999 8.23182L6.58572 9.84418L6.22742 11.7551L6.46635 13.7851Z" fill="#6D6B6D"/>
<path fill-rule="evenodd" clip-rule="evenodd" d="M8.91449 8.17278C8.91449 8.17278 9.81024 5.96357 13.3929 4.88867C16.9757 3.81376 13.572 4.11228 13.572 4.11228L9.69087 5.60528L8.19788 7.09807L7.54126 8.29234L8.91449 8.17278ZM7.12317 13.3668C7.12317 13.3668 5.86911 9.18676 10.6462 8.58972L10.4671 7.87311L7.18295 8.6495L6.22742 11.7545L6.46634 13.7847L7.12317 13.3668Z" fill="#DCD9D8"/>
<path fill-rule="evenodd" clip-rule="evenodd" d="M9.03442 18.9198L9.81634 18.1624C9.81634 18.1624 10.1691 18.2033 10.2289 18.6212C10.2885 19.0393 10.4676 22.8011 13.0351 24.8314C13.2695 25.0167 11.1245 24.5328 11.1245 24.5328L9.21376 21.5473M20.0218 17.7854C20.0218 17.7854 20.1611 15.9754 20.6483 16.1146C21.1359 16.2538 21.1359 16.741 21.1359 16.741C21.1359 16.741 19.9521 17.5068 20.0218 17.7854Z" fill="#F7E4CD"/>
<path d="M24.9773 11.1575C24.9773 11.1575 23.9932 11.3653 23.9025 12.2324C23.8119 13.0995 24.9773 12.4115 25.1565 12.3518M17.7516 11.2173C17.7516 11.2173 16.4377 11.3964 16.4377 12.2322C16.4377 13.0684 17.9307 13.0086 18.3486 12.6505" fill="#F7E4CD"/>
<path fill-rule="evenodd" clip-rule="evenodd" d="M9.63091 15.0977C9.63091 15.0977 7.36173 13.7242 7.12299 15.038C6.88424 16.3515 6.3466 17.3071 7.48128 18.6803L6.70509 18.4416L5.98849 16.5907L5.74976 14.7992L7.12299 13.3659L8.67556 13.4855L9.57131 14.2018L9.63091 15.0977ZM10.7058 11.3359C10.7058 11.3359 11.7209 6.08128 16.8564 5.06615C21.0842 4.23056 23.3052 5.24531 24.1412 6.20065C24.1412 6.20065 20.3794 1.72245 16.7966 3.09569C13.2137 4.46911 10.5866 6.97703 10.6462 8.589C10.7478 11.3349 10.7058 11.3359 10.7058 11.3359ZM24.5595 6.79673C24.5595 6.79673 22.8278 6.73714 22.768 8.28972C22.768 8.28972 22.768 8.52845 22.8873 8.7672C22.8873 8.7672 24.261 7.21463 25.0968 8.0508" fill="#F7E4CD"/>
<path fill-rule="evenodd" clip-rule="evenodd" d="M16.9772 8.92998C16.9772 8.92998 16.6792 6.54697 14.6471 7.93243C13.3335 8.82818 13.4531 10.082 13.6918 10.3208C13.9306 10.5595 13.8656 11.0408 14.0474 10.7104C14.2292 10.3804 14.1694 9.30547 14.8263 9.00715C15.4832 8.70843 16.5602 8.37496 16.9772 8.92998Z" fill="#F7E4CD"/>
<path fill-rule="evenodd" clip-rule="evenodd" d="M11.3621 25.0693L5.74923 27.5772C5.74923 27.5772 8.078 36.8327 6.88371 39.6989L6.04775 39.4004L5.98796 35.8774L4.43558 29.1898L3.77856 27.3386L9.63038 23.3979L11.3621 25.0693ZM11.9393 30.1885L12.7357 31.16V34.7431H11.7802C11.7802 34.7431 11.6608 32.235 11.6608 31.9362C11.6608 31.6377 11.78 30.563 11.78 30.563M11.9592 35.2803L9.27208 35.3997L10.0485 35.9369L11.9592 36.2357" fill="#49728B"/>
<path fill-rule="evenodd" clip-rule="evenodd" d="M21.7517 34.6844L25.0956 34.5053C25.0956 34.5053 26.4688 31.042 26.4688 30.8631C26.4688 30.6837 27.6632 25.8471 27.6632 25.8471L24.9761 23.0406L24.4388 22.563L23.0055 23.996V29.5493L21.7517 34.6844Z" fill="#335061"/>
<path fill-rule="evenodd" clip-rule="evenodd" d="M23.2457 34.2659L21.1558 34.6838L21.4543 36.356C22.2305 36.7142 23.5443 35.7587 23.5443 35.7587M23.3048 23.8164L27.4847 26.9214L27.6042 25.4882L24.4395 22.5623L23.3048 23.8164Z" fill="#49728B"/>
<path d="M21.6172 34.2064L20.3036 30.8625L18.9304 28.8921C18.9304 28.8921 19.2287 28.0562 19.6466 28.0562H21.0202L22.3338 28.5338L22.2144 30.7431L21.6172 34.2064Z" fill="#CDD6F4"/>
<path fill-rule="evenodd" clip-rule="evenodd" d="M21.8719 33.0722C21.8719 33.0722 20.1997 29.8479 20.1997 29.3703C20.1997 29.3703 20.4983 28.6536 20.9163 28.8327C21.3346 29.0119 22.2302 29.4897 22.2302 29.4897V28.3551L20.1999 27.9368L18.8267 28.1162L21.1555 33.6097L21.633 33.6695" fill="#DCD9D8"/>
<path d="M14.5695 25.1906L12.9153 25.0106L11.3625 24.533V25.0704L12.1212 25.907L14.5097 26.9817" fill="#CDD6F4"/>
<path fill-rule="evenodd" clip-rule="evenodd" d="M11.901 25.3694C11.901 25.3694 13.7522 26.1458 14.3492 25.9667L14.4087 26.6824L12.7371 26.325L11.7218 25.6083L11.901 25.3694Z" fill="#DCD9D8"/>
<path fill-rule="evenodd" clip-rule="evenodd" d="M23.9977 28.2597C22.9845 28.2299 22.0689 28.1096 21.2676 27.8835C21.322 27.5549 21.22 27.2325 21.302 26.9959C21.5255 26.8349 21.8997 26.8374 22.2375 26.7998C21.9454 26.6561 21.5351 26.5995 21.1984 26.6823C21.1904 26.4542 21.088 26.3129 21.0261 26.1345C21.5957 25.9313 22.9406 24.5983 23.697 25.0397C24.0574 25.2497 24.2106 26.4487 24.2384 27.0318C24.2617 27.5157 24.1945 28.0034 23.9977 28.2597Z" fill="#D33833"/>
<path d="M23.9977 28.2597C22.9845 28.2299 22.0689 28.1096 21.2676 27.8835C21.322 27.5549 21.22 27.2325 21.302 26.9959C21.5255 26.8349 21.8997 26.8374 22.2375 26.7998C21.9454 26.6561 21.5351 26.5995 21.1984 26.6823C21.1904 26.4542 21.088 26.3129 21.0261 26.1345C21.5957 25.9313 22.9406 24.5983 23.697 25.0397C24.0574 25.2497 24.2106 26.4487 24.2384 27.0318C24.2617 27.5157 24.1945 28.0034 23.9977 28.2597Z" stroke="#D33833" stroke-width="0.65483"/>
<path fill-rule="evenodd" clip-rule="evenodd" d="M19.1531 26.6039C19.1504 26.6804 19.1473 26.7577 19.1441 26.8349C18.8277 27.0429 18.317 27.0404 17.9698 27.215C18.4817 27.2374 18.8847 27.3608 19.2331 27.5343L19.2105 28.1136C18.6307 28.5105 18.1009 29.1016 17.4182 29.4738C17.0954 29.6499 15.9625 30.103 15.6191 30.0229C15.4249 29.9779 15.4072 29.7366 15.3295 29.5094C15.1642 29.0227 14.7831 28.2479 14.7499 27.5154C14.7074 26.5898 14.6143 25.0388 15.6113 25.2294C16.4159 25.383 17.3518 25.7537 17.9748 26.0941C18.3554 26.3023 18.5754 26.5593 19.1531 26.6039Z" fill="#D33833"/>
<path d="M19.1531 26.6039C19.1504 26.6804 19.1473 26.7577 19.1441 26.8349C18.8277 27.0429 18.317 27.0404 17.9698 27.215C18.4817 27.2374 18.8847 27.3608 19.2331 27.5343L19.2105 28.1136C18.6307 28.5105 18.1009 29.1016 17.4182 29.4738C17.0954 29.6499 15.9625 30.103 15.6191 30.0229C15.4249 29.9779 15.4072 29.7366 15.3295 29.5094C15.1642 29.0227 14.7831 28.2479 14.7499 27.5154C14.7074 26.5898 14.6143 25.0388 15.6113 25.2294C16.4159 25.383 17.3518 25.7537 17.9748 26.0941C18.3554 26.3023 18.5754 26.5593 19.1531 26.6039Z" stroke="#D33833" stroke-width="0.65483"/>
<path fill-rule="evenodd" clip-rule="evenodd" d="M19.7282 27.7074C19.6398 27.2032 19.5374 27.0595 19.577 26.6197C20.9217 25.7235 21.174 28.1594 19.7282 27.7074Z" fill="#D33833"/>
<path d="M19.7282 27.7074C19.6398 27.2032 19.5374 27.0595 19.577 26.6197C20.9217 25.7235 21.174 28.1594 19.7282 27.7074Z" stroke="#D33833" stroke-width="0.65483"/>
<path fill-rule="evenodd" clip-rule="evenodd" d="M21.6751 28.1163C21.6751 28.1163 21.2568 27.5192 21.5554 27.34C21.8542 27.1609 22.1527 27.34 22.3319 27.0415C22.511 26.743 22.3319 26.5638 22.3916 26.2054C22.4514 25.8472 22.7502 25.7874 23.0487 25.7278C23.347 25.668 24.1832 25.5486 24.3025 25.8472L23.9443 24.7725L23.2276 24.5337L20.9587 25.8472L20.839 26.5042V27.8177M15.4049 30.087C15.3331 29.155 15.2573 28.2245 15.1729 27.2935C15.0464 25.9033 15.5068 26.1459 16.7117 26.1459C16.8958 26.1459 17.8448 26.3655 17.9129 26.5042C18.2385 27.1695 17.3684 27.0217 18.2879 27.5232C19.0644 27.9464 20.4358 27.2661 20.122 26.3251C19.9465 26.1159 19.2075 26.26 18.9426 26.1226L17.5431 25.3968C16.9495 25.0889 15.5778 24.6401 14.9451 25.0704C13.3417 26.1609 15.0463 28.8853 15.6181 30.0228" fill="#EF3D3A"/>
<path fill-rule="evenodd" clip-rule="evenodd" d="M16.9764 8.93091C15.3489 8.55178 14.5403 9.61199 14.0469 10.7115C13.6065 10.6048 13.7816 10.0058 13.893 9.70042C14.1843 8.8994 15.3583 7.83289 16.3175 7.97767C16.7301 8.03973 17.2889 8.41733 16.9764 8.93091ZM24.9068 10.7835L24.9839 10.7866C25.3517 11.5506 25.6702 12.36 26.1341 13.0344C25.8231 13.7582 23.7806 14.3988 23.8122 13.0989C24.254 12.906 25.0164 13.0596 25.4081 12.813C25.1816 12.1915 24.8548 11.6625 24.9068 10.7835ZM17.8095 10.8045C18.1584 11.4444 18.272 12.1163 18.7681 12.5999C18.9915 12.8176 19.4258 13.0829 19.2103 13.6881C19.1602 13.8308 18.7923 14.1492 18.5801 14.2116C17.8047 14.4409 15.9978 14.259 16.6097 13.2922C17.2511 13.3222 18.113 13.7086 18.5921 13.2431C18.2241 12.6547 17.5678 11.4904 17.8095 10.8045ZM24.6145 17.3053C23.447 18.0554 22.145 18.871 20.2319 18.6818C19.8231 18.3266 19.6672 17.5355 20.0644 17.0131C20.271 17.3686 20.1411 18.0223 20.7173 18.1206C21.803 18.3064 23.0663 17.4566 23.8471 17.1596C24.3313 16.3432 23.8053 16.0429 23.3691 15.5177C22.4761 14.4413 21.2783 13.107 21.3217 11.4954C21.6827 11.2337 21.7137 11.8949 21.7657 12.0152C22.2317 13.1066 23.4053 14.5021 24.262 15.4362C24.4721 15.6664 24.8185 15.887 24.8569 16.0393C24.9681 16.4815 24.568 17.0112 24.6145 17.3053ZM9.22208 16.5158C8.85614 16.3069 8.76904 15.3871 8.33931 15.3607C7.72527 15.3234 7.8372 16.5544 7.83968 17.274C7.41701 16.8903 7.34271 15.709 7.65326 15.1025C7.29935 14.9287 7.14141 15.2939 6.94507 15.4227C7.19718 13.5902 9.62583 14.5728 9.22208 16.5158ZM25.3575 18.0685C24.8139 19.1032 24.0452 20.2424 22.4503 20.2754C22.4177 19.9412 22.3929 19.433 22.4519 19.2319C23.6713 19.1146 24.4241 18.4941 25.3575 18.0685ZM17.7176 18.7393C18.7348 19.2741 20.6042 19.3317 21.9868 19.2913C22.061 19.5942 22.0593 19.9683 22.0621 20.338C20.2849 20.4264 18.1836 19.9865 17.7176 18.7393ZM17.5241 19.7367C18.2276 21.5027 20.6452 21.2993 22.6839 21.2507C22.5942 21.4798 22.3996 21.7511 22.1578 21.8488C21.5046 22.1148 19.7026 22.3164 18.7955 21.8347C18.2205 21.529 17.8509 20.8379 17.5358 20.4328C17.3836 20.2372 16.6255 19.7376 17.5241 19.7367Z" fill="#231F20"/>
<path fill-rule="evenodd" clip-rule="evenodd" d="M24.5314 29.4792C23.7059 30.893 22.9162 32.345 21.9368 33.592C22.3474 32.3849 22.5231 30.3643 22.585 28.8238C23.4441 28.4219 24.1796 28.9147 24.5314 29.4792Z" fill="#81B0C4"/>
<path fill-rule="evenodd" clip-rule="evenodd" d="M21.5717 24.9958C21.1465 25.2733 20.7846 25.6198 20.3762 25.9161C19.4709 25.9609 18.9769 25.8534 18.3116 25.3335C18.3225 25.2917 18.3894 25.3104 18.3919 25.259C19.3612 25.6911 20.593 25.0833 21.5717 24.9958Z" fill="#F0D6B7"/>
<path fill-rule="evenodd" clip-rule="evenodd" d="M16.4845 31.6019C16.7507 30.4483 17.7942 29.8504 18.7415 29.2151C19.7193 30.4562 20.3141 32.0522 20.969 33.5927C19.4216 33.126 17.8408 32.3691 16.4845 31.6019Z" fill="#81B0C4"/>
<path fill-rule="evenodd" clip-rule="evenodd" d="M21.9254 40.8202C21.8858 41.7637 22.0182 43.2763 22.0626 44.2659C22.6896 44.2666 22.9585 44.1287 23.4265 43.9708C23.4793 42.8066 23.0579 41.7292 22.9365 40.6659C22.6885 40.5998 22.2338 40.8405 21.9254 40.8202ZM12.16 35.4552C12.5734 39.2571 13.1724 42.453 14.2711 45.8196C16.7094 46.5599 19.6489 46.6245 21.8041 45.9563C21.4084 44.0564 21.5813 41.7431 21.3499 39.7152C21.1757 38.1911 21.2645 36.6577 21.0256 35.1028C18.4143 34.5596 14.7227 34.9758 12.16 35.4552ZM21.6429 35.1268C21.6209 36.7595 21.7161 38.3702 21.8408 40.005C22.4676 39.9109 22.8931 39.848 23.4757 39.7205C23.2866 38.1465 23.3097 36.3754 22.9245 34.9831C22.4791 34.9874 22.0869 34.9779 21.6429 35.1268ZM24.8235 34.8635C24.5259 34.7953 24.1795 34.8608 23.8953 34.8664C24.0289 36.1974 24.353 37.6662 24.4673 39.0633C24.9146 39.0772 25.1536 38.8662 25.5215 38.7953C25.5411 37.5689 25.4142 35.8792 24.8235 34.8635ZM29.6395 39.2636C30.5719 39.0371 31.1582 37.8952 30.8973 36.7224C30.7223 35.9342 30.4107 34.45 30.0769 33.9458C29.8305 33.5728 29.1621 33.0844 28.6285 33.4263C27.7604 33.9821 26.2311 34.1434 25.598 34.8163C25.9154 35.8733 26.0139 37.3251 26.145 38.6641C27.2294 38.7316 28.5639 38.3657 29.4658 38.754C28.8361 38.9579 28.019 38.9597 27.475 39.2569C27.9197 39.4718 28.9605 39.4282 29.6395 39.2636ZM20.9686 33.593C20.3134 32.0531 19.7189 30.457 18.741 29.2158C17.7936 29.8513 16.7503 30.4489 16.4841 31.6027C17.8401 32.3699 19.4212 33.1266 20.9686 33.593ZM22.583 28.8238C22.5209 30.3641 22.3451 32.3846 21.9346 33.592C22.914 32.3447 23.7037 30.8928 24.5292 29.4791C24.1774 28.9142 23.4419 28.4217 22.583 28.8238ZM20.7528 28.1734C20.3818 28.1334 20.0668 28.5999 19.5846 28.3983C19.4738 28.5205 19.3736 28.6528 19.2609 28.7722C20.3264 30.0562 20.8106 31.8781 21.6335 33.3871C22.0751 31.9375 22.0241 30.3496 22.1215 28.7674C21.5148 28.8058 21.178 28.2187 20.7528 28.1734ZM19.5762 26.6203C19.5365 27.0601 19.6389 27.2039 19.7273 27.708C21.173 28.16 20.9206 25.7239 19.5762 26.6203ZM17.973 26.0941C17.3501 25.7538 16.4142 25.383 15.6097 25.2295C14.6123 25.0387 14.7059 26.59 14.7483 27.5153C14.7814 28.2479 15.1624 29.0228 15.3279 29.5094C15.4055 29.7368 15.423 29.978 15.6173 30.0232C15.9607 30.1031 17.0937 29.65 17.4165 29.474C18.0992 29.1017 18.6289 28.5105 19.2087 28.1137C19.2164 27.9206 19.2237 27.7277 19.2314 27.5346C18.8827 27.3608 18.4799 27.2375 17.9681 27.215C18.3152 27.0404 18.826 27.043 19.1422 26.8352C19.1453 26.7579 19.1485 26.6804 19.1512 26.6041C18.5737 26.5593 18.3538 26.3023 17.973 26.0941ZM12.0232 25.0132C11.5062 25.5381 13.4732 26.2535 14.0995 26.2921C14.096 25.96 14.2887 25.647 14.25 25.4086C13.5061 25.278 12.5288 25.3643 12.0232 25.0132ZM18.3919 25.2596C18.3893 25.3112 18.3225 25.2925 18.3116 25.3341C18.9767 25.854 19.471 25.9616 20.3762 25.9167C20.7845 25.6205 21.1465 25.274 21.5716 24.9965C20.593 25.084 19.361 25.6915 18.3919 25.2596ZM24.2374 27.0324C24.2094 26.4493 24.0563 25.2501 23.6958 25.0402C22.9394 24.5987 21.5945 25.9317 21.0251 26.135C21.087 26.3133 21.1894 26.4547 21.1971 26.6827C21.5341 26.5999 21.9442 26.6566 22.2362 26.8002C21.8987 26.838 21.5243 26.8356 21.3008 26.9964C21.219 27.233 21.3209 27.5554 21.2664 27.8839C22.0679 28.1101 22.9833 28.2304 23.9965 28.2601C24.1936 28.0041 24.2607 27.5162 24.2374 27.0324ZM11.1528 25.5208C10.9905 25.405 9.8923 23.9762 9.7418 24.0354C7.75452 24.8191 5.89636 26.1744 4.23587 27.4561C5.81919 30.8533 6.45806 35.0154 6.57113 39.0268C8.38479 39.8749 9.97767 41.0978 12.4388 41.2255C12.154 39.2105 11.8941 37.4128 11.7323 35.5157C11.1141 35.2551 10.2269 35.5276 9.64803 35.4349C9.64324 34.7377 10.5319 35.1294 10.6059 34.6606C10.6616 34.3058 10.1169 34.279 10.2943 33.7204C10.7466 33.8848 10.9842 34.2481 11.4667 34.3845C11.9077 33.42 11.4605 31.7135 11.5239 30.9075C11.5362 30.7563 11.5998 30.0691 11.9388 30.1895C12.2386 30.2963 11.9216 32.0172 11.9544 32.78C11.9844 33.4829 11.8696 34.1631 12.1542 34.6043C14.5974 34.2697 17.0568 34.0681 19.5219 34.0007C18.9558 33.7578 18.2833 33.528 17.5462 33.1125C17.1463 32.8872 15.8863 32.4182 15.7712 32.0388C15.5872 31.4338 16.2541 31.1115 16.3682 30.5929C15.1676 31.2476 14.9336 29.9654 14.6495 29.0569C14.3923 28.2341 14.2458 27.6195 14.1826 27.1451C13.1485 26.6522 12.0429 26.1529 11.1528 25.5208ZM23.1871 24.2083C24.843 23.4053 25.1413 27.2089 24.4924 28.4343C24.5926 28.7999 24.9375 28.9397 25.0784 29.2682C24.1545 30.9235 23.1283 32.4685 22.1853 34.1042C22.8867 33.6675 23.8884 34.0261 24.7137 33.6993C25.0155 33.58 25.2336 32.8895 25.462 32.3369C26.0903 30.817 26.7499 28.901 27.0435 27.4502C27.1095 27.1198 27.2901 26.3997 27.2497 26.1056C27.1775 25.5788 26.4628 25.1882 26.0995 24.8626C25.4299 24.2609 25.0082 23.7317 24.3098 23.1692C24.0265 23.5874 23.4186 23.8683 23.1871 24.2083ZM7.36605 9.52513C6.57724 10.3932 6.74226 12.0199 6.83777 13.1771C8.2639 12.28 10.1566 13.2481 10.1389 14.7738C10.8198 14.7558 10.3933 13.9235 10.2701 13.3874C9.86767 11.6362 10.9481 9.7337 10.319 8.13204C9.09759 8.22467 8.09392 8.72355 7.36605 9.52513ZM13.0114 4.48676C11.2252 4.99289 8.9362 6.29088 8.20221 7.8954C8.77061 7.81289 9.16501 7.52621 9.72575 7.49069C9.93776 7.47693 10.2153 7.57969 10.4588 7.51895C10.9439 7.39863 11.3536 6.31055 11.7197 5.90564C12.0765 5.51029 12.5055 5.34145 12.799 4.98105C12.9877 4.88995 13.2666 4.89625 13.2773 4.613C13.1955 4.52572 13.1094 4.45888 13.0114 4.48676ZM22.3091 4.9629C20.4551 3.91684 17.3173 3.13014 15.3452 4.11318C13.754 4.90675 11.603 6.21925 10.8696 7.88279C11.5547 9.48809 10.6668 10.9589 10.6099 12.5888C10.5799 13.456 11.0184 14.213 11.052 15.157C10.8175 15.5437 10.1012 15.5915 9.60543 15.5648C9.4387 14.7298 9.14648 13.7911 8.28643 13.697C7.06963 13.5639 6.17979 14.5709 6.1246 15.6231C6.05928 16.8607 7.07535 18.9121 8.51524 18.7698C9.07161 18.715 9.20836 18.1572 9.81438 18.1629C10.1429 18.8184 9.30767 19.0243 9.22172 19.493C9.19939 19.6141 9.29106 20.0874 9.34435 20.3093C9.60601 21.39 10.1889 22.7888 10.7628 23.6116C11.4913 24.6552 12.9224 24.8125 14.4623 24.9148C14.7374 24.3224 15.7502 24.3712 16.4105 24.5261C15.6192 24.2128 14.8839 23.4532 14.2742 22.7809C13.5743 22.0095 12.8651 21.1822 12.8292 20.1739C14.1522 22.0094 15.2452 23.6123 17.6509 24.4197C19.4711 25.0301 21.5972 24.1399 22.996 23.1575C23.5765 22.7494 23.9229 22.1016 24.3355 21.5086C25.8791 19.2882 26.5996 16.119 26.4411 13.047C26.3757 11.7802 26.3786 10.5175 25.9536 9.66532C25.5093 8.77416 24.0068 7.97696 23.1269 8.78295C22.964 7.91641 23.8584 7.38029 24.9091 7.69237C24.16 6.72538 23.3739 5.56358 22.3091 4.9629ZM25.763 33.5468C27.2116 32.8268 29.9184 31.6084 30.8266 33.5495C31.1618 34.265 31.555 35.4744 31.7287 36.2131C31.9739 37.2551 31.4627 39.4453 30.3916 39.795C29.4457 40.1038 28.3418 40.0849 27.2021 39.8561C27.068 39.7443 26.9187 39.5499 26.8144 39.347C26.0007 39.3156 25.2387 39.3909 24.5961 39.7253C24.6569 40.3269 24.25 40.4235 23.8684 40.5474C23.5857 41.669 24.4342 43.1336 24.2312 44.1565C24.0861 44.8851 23.1898 44.9978 22.531 45.1339C22.5094 45.5388 22.5596 45.8768 22.6048 46.2193C22.4541 46.7746 21.7784 47.0905 21.1382 47.1681C19.0317 47.4213 15.8333 47.5351 13.807 46.8064C13.2417 45.4197 12.7963 43.7328 12.3254 42.1494C10.3493 42.3604 8.75094 41.2967 7.24439 40.5998C6.72278 40.358 6.00102 40.2247 5.80621 39.8094C5.61713 39.4075 5.69467 38.6368 5.64769 37.9091C5.52832 36.0502 5.42613 34.2573 4.93529 32.3539C4.71488 31.4998 4.3308 30.7461 4.06284 29.9231C3.81511 29.1602 3.38233 28.2175 3.26925 27.4574C3.10176 26.3299 4.16329 26.2671 4.84209 25.7786C5.8914 25.0234 6.71496 24.6055 7.85136 23.9238C8.18789 23.722 9.20301 23.2109 9.31837 22.9754C9.54794 22.5088 8.92454 21.8508 8.75781 21.4851C8.49423 20.9063 8.35672 20.4151 8.31891 19.8445C7.36547 19.6937 6.64295 19.1263 6.20653 18.4867C5.48439 17.428 4.9836 15.4694 5.60834 13.9795C5.65743 13.8622 5.9017 13.6315 5.93781 13.4514C6.00885 13.0965 5.80411 12.6246 5.79112 12.2472C5.72562 10.3105 6.11887 8.64218 7.42239 8.05831C7.95163 5.95014 9.8457 5.24882 11.6303 4.20122C12.2975 3.80969 13.0328 3.5595 13.7924 3.27988C16.5165 2.27717 20.6967 2.46606 22.9576 4.17602C23.9162 4.90122 25.4488 6.43221 25.9969 7.54072C27.4446 10.4673 27.342 15.3582 26.3293 18.9184C26.1933 19.3964 25.9958 20.0989 25.72 20.673C25.5278 21.0741 24.9305 21.8762 25.003 22.2301C25.0778 22.5961 26.3652 23.5736 26.6413 23.8398C27.1383 24.3192 28.0828 24.9558 28.1592 25.5611C28.2413 26.205 27.8755 27.0859 27.6901 27.7074C27.0704 29.7813 26.4656 31.6978 25.763 33.5468Z" fill="#231F20"/>
<path fill-rule="evenodd" clip-rule="evenodd" d="M16.0994 19.1912C16.1779 19.0866 16.6101 18.9277 17.2148 19.2187C17.2148 19.2187 16.4981 19.3382 16.5577 20.533L16.2591 20.4731C16.2591 20.4731 15.9506 19.3898 16.0994 19.1912Z" fill="#F7E4CD"/>
<path fill-rule="evenodd" clip-rule="evenodd" d="M21.3349 29.4594C21.3349 29.5465 21.3003 29.6301 21.2387 29.6917C21.1771 29.7532 21.0935 29.7878 21.0064 29.7878C20.9193 29.7878 20.8357 29.7531 20.774 29.6916C20.7125 29.63 20.678 29.5463 20.678 29.4593C20.678 29.372 20.7125 29.2886 20.7742 29.2269C20.8358 29.1654 20.9194 29.1307 21.0065 29.1309C21.0937 29.1309 21.1772 29.1654 21.2388 29.2271C21.3003 29.2887 21.335 29.3723 21.3349 29.4594ZM21.6634 30.982C21.6634 31.0252 21.655 31.0679 21.6385 31.1077C21.6219 31.1476 21.5978 31.1838 21.5672 31.2143C21.5367 31.2448 21.5005 31.269 21.4607 31.2855C21.4208 31.302 21.3781 31.3105 21.3349 31.3105C21.2918 31.3105 21.2492 31.302 21.2092 31.2855C21.1694 31.269 21.1331 31.2448 21.1027 31.2143C21.0722 31.1838 21.0479 31.1476 21.0314 31.1077C21.015 31.0679 21.0065 31.0252 21.0065 30.982C21.0065 30.8949 21.0411 30.8113 21.1027 30.7497C21.1642 30.688 21.2478 30.6535 21.3349 30.6535C21.4221 30.6535 21.5056 30.688 21.5672 30.7497C21.6289 30.8113 21.6634 30.8949 21.6634 30.982Z" fill="#1D1919"/>
<path d="M15.2126 29.7495H4.75445C4.6715 29.7495 4.60425 29.8168 4.60425 29.8997V30.2289C4.60425 30.3118 4.6715 30.3791 4.75445 30.3791H15.2126C15.2955 30.3791 15.3628 30.3118 15.3628 30.2289V29.8997C15.3628 29.8168 15.2955 29.7495 15.2126 29.7495Z" fill="#11111B"/>
<path d="M26.428 29.7498H17.1716C17.0886 29.7498 17.0214 29.8169 17.0214 29.8998V30.2292C17.0214 30.3121 17.0886 30.3792 17.1716 30.3792H26.428C26.5109 30.3792 26.5782 30.3121 26.5782 30.2292V29.8998C26.5782 29.8169 26.5109 29.7498 26.428 29.7498Z" fill="#11111B"/>
<path d="M14.9264 29.4434H4.75437C4.67147 29.4434 4.60425 29.5106 4.60425 29.5934V29.9228C4.60425 30.0057 4.67147 30.0728 4.75437 30.0728H14.9264C15.0093 30.0728 15.0766 30.0057 15.0766 29.9228V29.5934C15.0766 29.5106 15.0093 29.4434 14.9264 29.4434Z" fill="#11111B"/>
<path d="M26.4282 29.4434H18.0873C18.0045 29.4434 17.9373 29.5106 17.9373 29.5934V29.9228C17.9373 30.0057 18.0045 30.0728 18.0873 30.0728H26.4282C26.5111 30.0728 26.5783 30.0057 26.5783 29.9228V29.5934C26.5783 29.5106 26.5111 29.4434 26.4282 29.4434Z" fill="#11111B"/>
</g>
</svg>
