<svg width="35" height="39" viewBox="0 0 35 39" fill="none" xmlns="http://www.w3.org/2000/svg">
<g filter="url(#filter0_d_2_570)">
<mask id="mask0_2_570" style="mask-type:luminance" maskUnits="userSpaceOnUse" x="3" y="2" width="28" height="29">
<path d="M3.19983 2.56714H30.783V30.1502H3.19983V2.56714Z" fill="#CDD6F4"/>
</mask>
<g mask="url(#mask0_2_570)">
<path fill-rule="evenodd" clip-rule="evenodd" d="M23.6484 24.2949L21.2598 24.6532L18.0353 25.0115L15.9453 25.0711L13.9152 25.0115L12.3624 24.5337L10.9892 23.0411L9.91429 19.9956L9.67555 19.3386L8.24234 18.8611L7.40637 17.4877L6.80933 15.5172L7.46634 13.7855L9.01873 13.2481L10.2726 13.8453L10.8698 15.1589L11.5864 15.0394L11.8252 14.7409L11.5864 13.3676L11.5266 11.6357L11.885 9.24734L11.8708 7.88308L12.9597 6.14238L14.8706 4.76914L18.2145 3.33594L21.9164 3.87339L25.141 6.20216L26.6339 8.59051L27.5893 10.3223L27.8281 14.6215L27.1114 18.3237L25.7979 21.6078L24.544 23.3393" fill="#F0D6B7"/>
<path fill-rule="evenodd" clip-rule="evenodd" d="M21.6177 34.6242L13.0785 34.9825V36.4155L13.7951 41.4314L13.4368 41.8495L7.46564 39.8194L7.04736 39.1027L6.45032 32.3554L5.07708 28.2949L4.77856 27.3396L9.55528 24.0554L11.0485 23.4583L12.3619 25.0704L13.4964 26.0854L14.8104 26.5033L15.4073 26.6825L16.1238 29.7875L16.6614 30.4445L18.0346 29.9666L17.0793 31.8179L22.2742 34.2661L21.6177 34.6242Z" fill="#335061"/>
<path fill-rule="evenodd" clip-rule="evenodd" d="M7.46635 13.7851L9.01874 13.2477L10.2728 13.8449L10.87 15.1586L11.5864 15.0389L11.7656 14.3225L11.4073 12.9493L11.7656 9.66484L11.4671 7.87353L12.5418 6.61966L14.8705 4.76856L14.2135 3.8728L10.9296 5.48516L9.55618 6.55988L8.77999 8.23182L7.58572 9.84418L7.22742 11.7551L7.46635 13.7851Z" fill="#6D6B6D"/>
<path fill-rule="evenodd" clip-rule="evenodd" d="M9.91449 8.17278C9.91449 8.17278 10.8102 5.96357 14.3929 4.88867C17.9757 3.81376 14.572 4.11228 14.572 4.11228L10.6909 5.60528L9.19788 7.09807L8.54126 8.29234L9.91449 8.17278ZM8.12317 13.3668C8.12317 13.3668 6.86911 9.18676 11.6462 8.58972L11.4671 7.87311L8.18295 8.6495L7.22742 11.7545L7.46634 13.7847L8.12317 13.3668Z" fill="#DCD9D8"/>
<path fill-rule="evenodd" clip-rule="evenodd" d="M10.0344 18.9198L10.8163 18.1624C10.8163 18.1624 11.1691 18.2033 11.2289 18.6212C11.2885 19.0393 11.4676 22.8011 14.0351 24.8314C14.2695 25.0167 12.1245 24.5328 12.1245 24.5328L10.2138 21.5473M21.0218 17.7854C21.0218 17.7854 21.1611 15.9754 21.6483 16.1146C22.1359 16.2538 22.1359 16.741 22.1359 16.741C22.1359 16.741 20.9521 17.5068 21.0218 17.7854Z" fill="#F7E4CD"/>
<path d="M25.9773 11.1575C25.9773 11.1575 24.9932 11.3653 24.9025 12.2324C24.8119 13.0995 25.9773 12.4115 26.1565 12.3518M18.7516 11.2173C18.7516 11.2173 17.4377 11.3964 17.4377 12.2322C17.4377 13.0684 18.9307 13.0086 19.3486 12.6505" fill="#F7E4CD"/>
<path fill-rule="evenodd" clip-rule="evenodd" d="M10.6309 15.0977C10.6309 15.0977 8.36173 13.7242 8.12299 15.038C7.88424 16.3515 7.3466 17.3071 8.48128 18.6803L7.70509 18.4416L6.98849 16.5907L6.74976 14.7992L8.12299 13.3659L9.67556 13.4855L10.5713 14.2018L10.6309 15.0977ZM11.7058 11.3359C11.7058 11.3359 12.7209 6.08128 17.8564 5.06615C22.0842 4.23056 24.3052 5.24531 25.1412 6.20065C25.1412 6.20065 21.3794 1.72245 17.7966 3.09569C14.2137 4.46911 11.5866 6.97703 11.6462 8.589C11.7478 11.3349 11.7058 11.3359 11.7058 11.3359ZM25.5595 6.79673C25.5595 6.79673 23.8278 6.73714 23.768 8.28972C23.768 8.28972 23.768 8.52845 23.8873 8.7672C23.8873 8.7672 25.261 7.21463 26.0968 8.0508" fill="#F7E4CD"/>
<path fill-rule="evenodd" clip-rule="evenodd" d="M17.9772 8.92998C17.9772 8.92998 17.6792 6.54697 15.6471 7.93243C14.3335 8.82818 14.4531 10.082 14.6918 10.3208C14.9306 10.5595 14.8656 11.0408 15.0474 10.7104C15.2292 10.3804 15.1694 9.30547 15.8263 9.00715C16.4832 8.70843 17.5602 8.37496 17.9772 8.92998Z" fill="#F7E4CD"/>
<path fill-rule="evenodd" clip-rule="evenodd" d="M12.3621 25.0693L6.74923 27.5772C6.74923 27.5772 9.078 36.8327 7.88371 39.6989L7.04775 39.4004L6.98796 35.8774L5.43558 29.1898L4.77856 27.3386L10.6304 23.3979L12.3621 25.0693ZM12.9393 30.1885L13.7357 31.16V34.7431H12.7802C12.7802 34.7431 12.6608 32.235 12.6608 31.9362C12.6608 31.6377 12.78 30.563 12.78 30.563M12.9592 35.2803L10.2721 35.3997L11.0485 35.9369L12.9592 36.2357" fill="#49728B"/>
<path fill-rule="evenodd" clip-rule="evenodd" d="M22.7517 34.6844L26.0956 34.5053C26.0956 34.5053 27.4688 31.042 27.4688 30.8631C27.4688 30.6837 28.6632 25.8471 28.6632 25.8471L25.9761 23.0406L25.4388 22.563L24.0055 23.996V29.5493L22.7517 34.6844Z" fill="#335061"/>
<path fill-rule="evenodd" clip-rule="evenodd" d="M24.2457 34.2659L22.1558 34.6838L22.4543 36.356C23.2305 36.7142 24.5443 35.7587 24.5443 35.7587M24.3048 23.8164L28.4847 26.9214L28.6042 25.4882L25.4395 22.5623L24.3048 23.8164Z" fill="#49728B"/>
<path d="M22.6172 34.2064L21.3036 30.8625L19.9304 28.8921C19.9304 28.8921 20.2287 28.0562 20.6466 28.0562H22.0202L23.3338 28.5338L23.2144 30.7431L22.6172 34.2064Z" fill="#CDD6F4"/>
<path fill-rule="evenodd" clip-rule="evenodd" d="M22.8719 33.0722C22.8719 33.0722 21.1997 29.8479 21.1997 29.3703C21.1997 29.3703 21.4983 28.6536 21.9163 28.8327C22.3346 29.0119 23.2302 29.4897 23.2302 29.4897V28.3551L21.1999 27.9368L19.8267 28.1162L22.1555 33.6097L22.633 33.6695" fill="#DCD9D8"/>
<path d="M15.5695 25.1906L13.9153 25.0106L12.3625 24.533V25.0704L13.1212 25.907L15.5097 26.9817" fill="#CDD6F4"/>
<path fill-rule="evenodd" clip-rule="evenodd" d="M12.901 25.3694C12.901 25.3694 14.7522 26.1458 15.3492 25.9667L15.4087 26.6824L13.7371 26.325L12.7218 25.6083L12.901 25.3694Z" fill="#DCD9D8"/>
<path fill-rule="evenodd" clip-rule="evenodd" d="M24.9977 28.2597C23.9845 28.2299 23.0689 28.1096 22.2676 27.8835C22.322 27.5549 22.22 27.2325 22.302 26.9959C22.5255 26.8349 22.8997 26.8374 23.2375 26.7998C22.9454 26.6561 22.5351 26.5995 22.1984 26.6823C22.1904 26.4542 22.088 26.3129 22.0261 26.1345C22.5957 25.9313 23.9406 24.5983 24.697 25.0397C25.0574 25.2497 25.2106 26.4487 25.2384 27.0318C25.2617 27.5157 25.1945 28.0034 24.9977 28.2597Z" fill="#D33833"/>
<path d="M24.9977 28.2597C23.9845 28.2299 23.0689 28.1096 22.2676 27.8835C22.322 27.5549 22.22 27.2325 22.302 26.9959C22.5255 26.8349 22.8997 26.8374 23.2375 26.7998C22.9454 26.6561 22.5351 26.5995 22.1984 26.6823C22.1904 26.4542 22.088 26.3129 22.0261 26.1345C22.5957 25.9313 23.9406 24.5983 24.697 25.0397C25.0574 25.2497 25.2106 26.4487 25.2384 27.0318C25.2617 27.5157 25.1945 28.0034 24.9977 28.2597Z" stroke="#D33833" stroke-width="0.65483"/>
<path fill-rule="evenodd" clip-rule="evenodd" d="M20.1531 26.6039C20.1504 26.6804 20.1473 26.7577 20.1441 26.8349C19.8277 27.0429 19.317 27.0404 18.9698 27.215C19.4817 27.2374 19.8847 27.3608 20.2331 27.5343L20.2105 28.1136C19.6307 28.5105 19.1009 29.1016 18.4182 29.4738C18.0954 29.6499 16.9625 30.103 16.6191 30.0229C16.4249 29.9779 16.4072 29.7366 16.3295 29.5094C16.1642 29.0227 15.7831 28.2479 15.7499 27.5154C15.7074 26.5898 15.6143 25.0388 16.6113 25.2294C17.4159 25.383 18.3518 25.7537 18.9748 26.0941C19.3554 26.3023 19.5754 26.5593 20.1531 26.6039Z" fill="#D33833"/>
<path d="M20.1531 26.6039C20.1504 26.6804 20.1473 26.7577 20.1441 26.8349C19.8277 27.0429 19.317 27.0404 18.9698 27.215C19.4817 27.2374 19.8847 27.3608 20.2331 27.5343L20.2105 28.1136C19.6307 28.5105 19.1009 29.1016 18.4182 29.4738C18.0954 29.6499 16.9625 30.103 16.6191 30.0229C16.4249 29.9779 16.4072 29.7366 16.3295 29.5094C16.1642 29.0227 15.7831 28.2479 15.7499 27.5154C15.7074 26.5898 15.6143 25.0388 16.6113 25.2294C17.4159 25.383 18.3518 25.7537 18.9748 26.0941C19.3554 26.3023 19.5754 26.5593 20.1531 26.6039Z" stroke="#D33833" stroke-width="0.65483"/>
<path fill-rule="evenodd" clip-rule="evenodd" d="M20.7282 27.7074C20.6398 27.2032 20.5374 27.0595 20.577 26.6197C21.9217 25.7235 22.174 28.1594 20.7282 27.7074Z" fill="#D33833"/>
<path d="M20.7282 27.7074C20.6398 27.2032 20.5374 27.0595 20.577 26.6197C21.9217 25.7235 22.174 28.1594 20.7282 27.7074Z" stroke="#D33833" stroke-width="0.65483"/>
<path fill-rule="evenodd" clip-rule="evenodd" d="M22.6751 28.1163C22.6751 28.1163 22.2568 27.5192 22.5554 27.34C22.8542 27.1609 23.1527 27.34 23.3319 27.0415C23.511 26.743 23.3319 26.5638 23.3916 26.2054C23.4514 25.8472 23.7502 25.7874 24.0487 25.7278C24.347 25.668 25.1832 25.5486 25.3025 25.8472L24.9443 24.7725L24.2276 24.5337L21.9587 25.8472L21.839 26.5042V27.8177M16.4049 30.087C16.3331 29.155 16.2573 28.2245 16.1729 27.2935C16.0464 25.9033 16.5068 26.1459 17.7117 26.1459C17.8958 26.1459 18.8448 26.3655 18.9129 26.5042C19.2385 27.1695 18.3684 27.0217 19.2879 27.5232C20.0644 27.9464 21.4358 27.2661 21.122 26.3251C20.9465 26.1159 20.2075 26.26 19.9426 26.1226L18.5431 25.3968C17.9495 25.0889 16.5778 24.6401 15.9451 25.0704C14.3417 26.1609 16.0463 28.8853 16.6181 30.0228" fill="#EF3D3A"/>
<path fill-rule="evenodd" clip-rule="evenodd" d="M17.9764 8.93091C16.3489 8.55178 15.5403 9.61199 15.0469 10.7115C14.6065 10.6048 14.7816 10.0058 14.893 9.70042C15.1843 8.8994 16.3583 7.83289 17.3175 7.97767C17.7301 8.03973 18.2889 8.41733 17.9764 8.93091ZM25.9068 10.7835L25.9839 10.7866C26.3517 11.5506 26.6702 12.36 27.1341 13.0344C26.8231 13.7582 24.7806 14.3988 24.8122 13.0989C25.254 12.906 26.0164 13.0596 26.4081 12.813C26.1816 12.1915 25.8548 11.6625 25.9068 10.7835ZM18.8095 10.8045C19.1584 11.4444 19.272 12.1163 19.7681 12.5999C19.9915 12.8176 20.4258 13.0829 20.2103 13.6881C20.1602 13.8308 19.7923 14.1492 19.5801 14.2116C18.8047 14.4409 16.9978 14.259 17.6097 13.2922C18.2511 13.3222 19.113 13.7086 19.5921 13.2431C19.2241 12.6547 18.5678 11.4904 18.8095 10.8045ZM25.6145 17.3053C24.447 18.0554 23.145 18.871 21.2319 18.6818C20.8231 18.3266 20.6672 17.5355 21.0644 17.0131C21.271 17.3686 21.1411 18.0223 21.7173 18.1206C22.803 18.3064 24.0663 17.4566 24.8471 17.1596C25.3313 16.3432 24.8053 16.0429 24.3691 15.5177C23.4761 14.4413 22.2783 13.107 22.3217 11.4954C22.6827 11.2337 22.7137 11.8949 22.7657 12.0152C23.2317 13.1066 24.4053 14.5021 25.262 15.4362C25.4721 15.6664 25.8185 15.887 25.8569 16.0393C25.9681 16.4815 25.568 17.0112 25.6145 17.3053ZM10.2221 16.5158C9.85614 16.3069 9.76904 15.3871 9.33931 15.3607C8.72527 15.3234 8.8372 16.5544 8.83968 17.274C8.41701 16.8903 8.34271 15.709 8.65326 15.1025C8.29935 14.9287 8.14141 15.2939 7.94507 15.4227C8.19718 13.5902 10.6258 14.5728 10.2221 16.5158ZM26.3575 18.0685C25.8139 19.1032 25.0452 20.2424 23.4503 20.2754C23.4177 19.9412 23.3929 19.433 23.4519 19.2319C24.6713 19.1146 25.4241 18.4941 26.3575 18.0685ZM18.7176 18.7393C19.7348 19.2741 21.6042 19.3317 22.9868 19.2913C23.061 19.5942 23.0593 19.9683 23.0621 20.338C21.2849 20.4264 19.1836 19.9865 18.7176 18.7393ZM18.5241 19.7367C19.2276 21.5027 21.6452 21.2993 23.6839 21.2507C23.5942 21.4798 23.3996 21.7511 23.1578 21.8488C22.5046 22.1148 20.7026 22.3164 19.7955 21.8347C19.2205 21.529 18.8509 20.8379 18.5358 20.4328C18.3836 20.2372 17.6255 19.7376 18.5241 19.7367Z" fill="#231F20"/>
<path fill-rule="evenodd" clip-rule="evenodd" d="M25.5314 29.4792C24.7059 30.893 23.9162 32.345 22.9368 33.592C23.3474 32.3849 23.5231 30.3643 23.585 28.8238C24.4441 28.4219 25.1796 28.9147 25.5314 29.4792Z" fill="#81B0C4"/>
<path fill-rule="evenodd" clip-rule="evenodd" d="M22.5717 24.9958C22.1465 25.2733 21.7846 25.6198 21.3762 25.9161C20.4709 25.9609 19.9769 25.8534 19.3116 25.3335C19.3225 25.2917 19.3894 25.3104 19.3919 25.259C20.3612 25.6911 21.593 25.0833 22.5717 24.9958Z" fill="#F0D6B7"/>
<path fill-rule="evenodd" clip-rule="evenodd" d="M17.4845 31.6019C17.7507 30.4483 18.7942 29.8504 19.7415 29.2151C20.7193 30.4562 21.3141 32.0522 21.969 33.5927C20.4216 33.126 18.8408 32.3691 17.4845 31.6019Z" fill="#81B0C4"/>
<path fill-rule="evenodd" clip-rule="evenodd" d="M22.9254 40.8202C22.8858 41.7637 23.0182 43.2763 23.0626 44.2659C23.6896 44.2666 23.9585 44.1287 24.4265 43.9708C24.4793 42.8066 24.0579 41.7292 23.9365 40.6659C23.6885 40.5998 23.2338 40.8405 22.9254 40.8202ZM13.16 35.4552C13.5734 39.2571 14.1724 42.453 15.2711 45.8196C17.7094 46.5599 20.6489 46.6245 22.8041 45.9563C22.4084 44.0564 22.5813 41.7431 22.3499 39.7152C22.1757 38.1911 22.2645 36.6577 22.0256 35.1028C19.4143 34.5596 15.7227 34.9758 13.16 35.4552ZM22.6429 35.1268C22.6209 36.7595 22.7161 38.3702 22.8408 40.005C23.4676 39.9109 23.8931 39.848 24.4757 39.7205C24.2866 38.1465 24.3097 36.3754 23.9245 34.9831C23.4791 34.9874 23.0869 34.9779 22.6429 35.1268ZM25.8235 34.8635C25.5259 34.7953 25.1795 34.8608 24.8953 34.8664C25.0289 36.1974 25.353 37.6662 25.4673 39.0633C25.9146 39.0772 26.1536 38.8662 26.5215 38.7953C26.5411 37.5689 26.4142 35.8792 25.8235 34.8635ZM30.6395 39.2636C31.5719 39.0371 32.1582 37.8952 31.8973 36.7224C31.7223 35.9342 31.4107 34.45 31.0769 33.9458C30.8305 33.5728 30.1621 33.0844 29.6285 33.4263C28.7604 33.9821 27.2311 34.1434 26.598 34.8163C26.9154 35.8733 27.0139 37.3251 27.145 38.6641C28.2294 38.7316 29.5639 38.3657 30.4658 38.754C29.8361 38.9579 29.019 38.9597 28.475 39.2569C28.9197 39.4718 29.9605 39.4282 30.6395 39.2636ZM21.9686 33.593C21.3134 32.0531 20.7189 30.457 19.741 29.2158C18.7936 29.8513 17.7503 30.4489 17.4841 31.6027C18.8401 32.3699 20.4212 33.1266 21.9686 33.593ZM23.583 28.8238C23.5209 30.3641 23.3451 32.3846 22.9346 33.592C23.914 32.3447 24.7037 30.8928 25.5292 29.4791C25.1774 28.9142 24.4419 28.4217 23.583 28.8238ZM21.7528 28.1734C21.3818 28.1334 21.0668 28.5999 20.5846 28.3983C20.4738 28.5205 20.3736 28.6528 20.2609 28.7722C21.3264 30.0562 21.8106 31.8781 22.6335 33.3871C23.0751 31.9375 23.0241 30.3496 23.1215 28.7674C22.5148 28.8058 22.178 28.2187 21.7528 28.1734ZM20.5762 26.6203C20.5365 27.0601 20.6389 27.2039 20.7273 27.708C22.173 28.16 21.9206 25.7239 20.5762 26.6203ZM18.973 26.0941C18.3501 25.7538 17.4142 25.383 16.6097 25.2295C15.6123 25.0387 15.7059 26.59 15.7483 27.5153C15.7814 28.2479 16.1624 29.0228 16.3279 29.5094C16.4055 29.7368 16.423 29.978 16.6173 30.0232C16.9607 30.1031 18.0937 29.65 18.4165 29.474C19.0992 29.1017 19.6289 28.5105 20.2087 28.1137C20.2164 27.9206 20.2237 27.7277 20.2314 27.5346C19.8827 27.3608 19.4799 27.2375 18.9681 27.215C19.3152 27.0404 19.826 27.043 20.1422 26.8352C20.1453 26.7579 20.1485 26.6804 20.1512 26.6041C19.5737 26.5593 19.3538 26.3023 18.973 26.0941ZM13.0232 25.0132C12.5062 25.5381 14.4732 26.2535 15.0995 26.2921C15.096 25.96 15.2887 25.647 15.25 25.4086C14.5061 25.278 13.5288 25.3643 13.0232 25.0132ZM19.3919 25.2596C19.3893 25.3112 19.3225 25.2925 19.3116 25.3341C19.9767 25.854 20.471 25.9616 21.3762 25.9167C21.7845 25.6205 22.1465 25.274 22.5716 24.9965C21.593 25.084 20.361 25.6915 19.3919 25.2596ZM25.2374 27.0324C25.2094 26.4493 25.0563 25.2501 24.6958 25.0402C23.9394 24.5987 22.5945 25.9317 22.0251 26.135C22.087 26.3133 22.1894 26.4547 22.1971 26.6827C22.5341 26.5999 22.9442 26.6566 23.2362 26.8002C22.8987 26.838 22.5243 26.8356 22.3008 26.9964C22.219 27.233 22.3209 27.5554 22.2664 27.8839C23.0679 28.1101 23.9833 28.2304 24.9965 28.2601C25.1936 28.0041 25.2607 27.5162 25.2374 27.0324ZM12.1528 25.5208C11.9905 25.405 10.8923 23.9762 10.7418 24.0354C8.75452 24.8191 6.89636 26.1744 5.23587 27.4561C6.81919 30.8533 7.45806 35.0154 7.57113 39.0268C9.38479 39.8749 10.9777 41.0978 13.4388 41.2255C13.154 39.2105 12.8941 37.4128 12.7323 35.5157C12.1141 35.2551 11.2269 35.5276 10.648 35.4349C10.6432 34.7377 11.5319 35.1294 11.6059 34.6606C11.6616 34.3058 11.1169 34.279 11.2943 33.7204C11.7466 33.8848 11.9842 34.2481 12.4667 34.3845C12.9077 33.42 12.4605 31.7135 12.5239 30.9075C12.5362 30.7563 12.5998 30.0691 12.9388 30.1895C13.2386 30.2963 12.9216 32.0172 12.9544 32.78C12.9844 33.4829 12.8696 34.1631 13.1542 34.6043C15.5974 34.2697 18.0568 34.0681 20.5219 34.0007C19.9558 33.7578 19.2833 33.528 18.5462 33.1125C18.1463 32.8872 16.8863 32.4182 16.7712 32.0388C16.5872 31.4338 17.2541 31.1115 17.3682 30.5929C16.1676 31.2476 15.9336 29.9654 15.6495 29.0569C15.3923 28.2341 15.2458 27.6195 15.1826 27.1451C14.1485 26.6522 13.0429 26.1529 12.1528 25.5208ZM24.1871 24.2083C25.843 23.4053 26.1413 27.2089 25.4924 28.4343C25.5926 28.7999 25.9375 28.9397 26.0784 29.2682C25.1545 30.9235 24.1283 32.4685 23.1853 34.1042C23.8867 33.6675 24.8884 34.0261 25.7137 33.6993C26.0155 33.58 26.2336 32.8895 26.462 32.3369C27.0903 30.817 27.7499 28.901 28.0435 27.4502C28.1095 27.1198 28.2901 26.3997 28.2497 26.1056C28.1775 25.5788 27.4628 25.1882 27.0995 24.8626C26.4299 24.2609 26.0082 23.7317 25.3098 23.1692C25.0265 23.5874 24.4186 23.8683 24.1871 24.2083ZM8.36605 9.52513C7.57724 10.3932 7.74226 12.0199 7.83777 13.1771C9.2639 12.28 11.1566 13.2481 11.1389 14.7738C11.8198 14.7558 11.3933 13.9235 11.2701 13.3874C10.8677 11.6362 11.9481 9.7337 11.319 8.13204C10.0976 8.22467 9.09392 8.72355 8.36605 9.52513ZM14.0114 4.48676C12.2252 4.99289 9.9362 6.29088 9.20221 7.8954C9.77061 7.81289 10.165 7.52621 10.7258 7.49069C10.9378 7.47693 11.2153 7.57969 11.4588 7.51895C11.9439 7.39863 12.3536 6.31055 12.7197 5.90564C13.0765 5.51029 13.5055 5.34145 13.799 4.98105C13.9877 4.88995 14.2666 4.89625 14.2773 4.613C14.1955 4.52572 14.1094 4.45888 14.0114 4.48676ZM23.3091 4.9629C21.4551 3.91684 18.3173 3.13014 16.3452 4.11318C14.754 4.90675 12.603 6.21925 11.8696 7.88279C12.5547 9.48809 11.6668 10.9589 11.6099 12.5888C11.5799 13.456 12.0184 14.213 12.052 15.157C11.8175 15.5437 11.1012 15.5915 10.6054 15.5648C10.4387 14.7298 10.1465 13.7911 9.28643 13.697C8.06963 13.5639 7.17979 14.5709 7.1246 15.6231C7.05928 16.8607 8.07535 18.9121 9.51524 18.7698C10.0716 18.715 10.2084 18.1572 10.8144 18.1629C11.1429 18.8184 10.3077 19.0243 10.2217 19.493C10.1994 19.6141 10.2911 20.0874 10.3443 20.3093C10.606 21.39 11.1889 22.7888 11.7628 23.6116C12.4913 24.6552 13.9224 24.8125 15.4623 24.9148C15.7374 24.3224 16.7502 24.3712 17.4105 24.5261C16.6192 24.2128 15.8839 23.4532 15.2742 22.7809C14.5743 22.0095 13.8651 21.1822 13.8292 20.1739C15.1522 22.0094 16.2452 23.6123 18.6509 24.4197C20.4711 25.0301 22.5972 24.1399 23.996 23.1575C24.5765 22.7494 24.9229 22.1016 25.3355 21.5086C26.8791 19.2882 27.5996 16.119 27.4411 13.047C27.3757 11.7802 27.3786 10.5175 26.9536 9.66532C26.5093 8.77416 25.0068 7.97696 24.1269 8.78295C23.964 7.91641 24.8584 7.38029 25.9091 7.69237C25.16 6.72538 24.3739 5.56358 23.3091 4.9629ZM26.763 33.5468C28.2116 32.8268 30.9184 31.6084 31.8266 33.5495C32.1618 34.265 32.555 35.4744 32.7287 36.2131C32.9739 37.2551 32.4627 39.4453 31.3916 39.795C30.4457 40.1038 29.3418 40.0849 28.2021 39.8561C28.068 39.7443 27.9187 39.5499 27.8144 39.347C27.0007 39.3156 26.2387 39.3909 25.5961 39.7253C25.6569 40.3269 25.25 40.4235 24.8684 40.5474C24.5857 41.669 25.4342 43.1336 25.2312 44.1565C25.0861 44.8851 24.1898 44.9978 23.531 45.1339C23.5094 45.5388 23.5596 45.8768 23.6048 46.2193C23.4541 46.7746 22.7784 47.0905 22.1382 47.1681C20.0317 47.4213 16.8333 47.5351 14.807 46.8064C14.2417 45.4197 13.7963 43.7328 13.3254 42.1494C11.3493 42.3604 9.75094 41.2967 8.24439 40.5998C7.72278 40.358 7.00102 40.2247 6.80621 39.8094C6.61713 39.4075 6.69467 38.6368 6.64769 37.9091C6.52832 36.0502 6.42613 34.2573 5.93529 32.3539C5.71488 31.4998 5.3308 30.7461 5.06284 29.9231C4.81511 29.1602 4.38233 28.2175 4.26925 27.4574C4.10176 26.3299 5.16329 26.2671 5.84209 25.7786C6.8914 25.0234 7.71496 24.6055 8.85136 23.9238C9.18789 23.722 10.203 23.2109 10.3184 22.9754C10.5479 22.5088 9.92454 21.8508 9.75781 21.4851C9.49423 20.9063 9.35672 20.4151 9.31891 19.8445C8.36547 19.6937 7.64295 19.1263 7.20653 18.4867C6.48439 17.428 5.9836 15.4694 6.60834 13.9795C6.65743 13.8622 6.9017 13.6315 6.93781 13.4514C7.00885 13.0965 6.80411 12.6246 6.79112 12.2472C6.72562 10.3105 7.11887 8.64218 8.42239 8.05831C8.95163 5.95014 10.8457 5.24882 12.6303 4.20122C13.2975 3.80969 14.0328 3.5595 14.7924 3.27988C17.5165 2.27717 21.6967 2.46606 23.9576 4.17602C24.9162 4.90122 26.4488 6.43221 26.9969 7.54072C28.4446 10.4673 28.342 15.3582 27.3293 18.9184C27.1933 19.3964 26.9958 20.0989 26.72 20.673C26.5278 21.0741 25.9305 21.8762 26.003 22.2301C26.0778 22.5961 27.3652 23.5736 27.6413 23.8398C28.1383 24.3192 29.0828 24.9558 29.1592 25.5611C29.2413 26.205 28.8755 27.0859 28.6901 27.7074C28.0704 29.7813 27.4656 31.6978 26.763 33.5468Z" fill="#231F20"/>
<path fill-rule="evenodd" clip-rule="evenodd" d="M17.0994 19.1912C17.1779 19.0866 17.6101 18.9277 18.2148 19.2187C18.2148 19.2187 17.4981 19.3382 17.5577 20.533L17.2591 20.4731C17.2591 20.4731 16.9506 19.3898 17.0994 19.1912Z" fill="#F7E4CD"/>
<path fill-rule="evenodd" clip-rule="evenodd" d="M22.3349 29.4594C22.3349 29.5465 22.3003 29.6301 22.2387 29.6917C22.1771 29.7532 22.0935 29.7878 22.0064 29.7878C21.9193 29.7878 21.8357 29.7531 21.774 29.6916C21.7125 29.63 21.678 29.5463 21.678 29.4593C21.678 29.372 21.7125 29.2886 21.7742 29.2269C21.8358 29.1654 21.9194 29.1307 22.0065 29.1309C22.0937 29.1309 22.1772 29.1654 22.2388 29.2271C22.3003 29.2887 22.335 29.3723 22.3349 29.4594ZM22.6634 30.982C22.6634 31.0252 22.655 31.0679 22.6385 31.1077C22.6219 31.1476 22.5978 31.1838 22.5672 31.2143C22.5367 31.2448 22.5005 31.269 22.4607 31.2855C22.4208 31.302 22.3781 31.3105 22.3349 31.3105C22.2918 31.3105 22.2492 31.302 22.2092 31.2855C22.1694 31.269 22.1331 31.2448 22.1027 31.2143C22.0722 31.1838 22.0479 31.1476 22.0314 31.1077C22.015 31.0679 22.0065 31.0252 22.0065 30.982C22.0065 30.8949 22.0411 30.8113 22.1027 30.7497C22.1642 30.688 22.2478 30.6535 22.3349 30.6535C22.4221 30.6535 22.5056 30.688 22.5672 30.7497C22.6289 30.8113 22.6634 30.8949 22.6634 30.982Z" fill="#1D1919"/>
<path d="M16.2126 29.7495H5.75445C5.6715 29.7495 5.60425 29.8168 5.60425 29.8997V30.2289C5.60425 30.3118 5.6715 30.3791 5.75445 30.3791H16.2126C16.2955 30.3791 16.3628 30.3118 16.3628 30.2289V29.8997C16.3628 29.8168 16.2955 29.7495 16.2126 29.7495Z" fill="#11111B"/>
<path d="M27.428 29.7498H18.1716C18.0886 29.7498 18.0214 29.8169 18.0214 29.8998V30.2292C18.0214 30.3121 18.0886 30.3792 18.1716 30.3792H27.428C27.5109 30.3792 27.5782 30.3121 27.5782 30.2292V29.8998C27.5782 29.8169 27.5109 29.7498 27.428 29.7498Z" fill="#11111B"/>
<path d="M15.9264 29.4434H5.75437C5.67147 29.4434 5.60425 29.5106 5.60425 29.5934V29.9228C5.60425 30.0057 5.67147 30.0728 5.75437 30.0728H15.9264C16.0093 30.0728 16.0766 30.0057 16.0766 29.9228V29.5934C16.0766 29.5106 16.0093 29.4434 15.9264 29.4434Z" fill="#11111B"/>
<path d="M27.4282 29.4434H19.0873C19.0045 29.4434 18.9373 29.5106 18.9373 29.5934V29.9228C18.9373 30.0057 19.0045 30.0728 19.0873 30.0728H27.4282C27.5111 30.0728 27.5783 30.0057 27.5783 29.9228V29.5934C27.5783 29.5106 27.5111 29.4434 27.4282 29.4434Z" fill="#11111B"/>
</g>
</g>
<defs>
<filter id="filter0_d_2_570" x="-2.65088" y="0.469727" width="40.1566" height="40.1565" filterUnits="userSpaceOnUse" color-interpolation-filters="sRGB">
<feFlood flood-opacity="0" result="BackgroundImageFix"/>
<feColorMatrix in="SourceAlpha" type="matrix" values="0 0 0 0 0 0 0 0 0 0 0 0 0 0 0 0 0 0 127 0" result="hardAlpha"/>
<feOffset dy="4"/>
<feGaussianBlur stdDeviation="2"/>
<feComposite in2="hardAlpha" operator="out"/>
<feColorMatrix type="matrix" values="0 0 0 0 0 0 0 0 0 0 0 0 0 0 0 0 0 0 0.25 0"/>
<feBlend mode="normal" in2="BackgroundImageFix" result="effect1_dropShadow_2_570"/>
<feBlend mode="normal" in="SourceGraphic" in2="effect1_dropShadow_2_570" result="shape"/>
</filter>
</defs>
</svg>
