<svg width="33" height="33" viewBox="0 0 33 33" fill="none" xmlns="http://www.w3.org/2000/svg">
<path d="M21.5602 12.2791C21.1954 11.5339 20.1341 11.5314 19.7659 12.275L19.3652 13.0841C19.1686 13.4812 19.2696 13.9526 19.5249 14.3147C19.6867 14.5441 19.8215 14.7932 19.9254 15.0579C20.0562 15.3913 20.3566 15.6476 20.7146 15.6476C21.0727 15.6476 21.3732 15.3913 21.5036 15.0578C21.5973 14.818 21.7164 14.5904 21.8581 14.3786C22.0973 14.021 22.1892 13.564 22 13.1775L21.5602 12.2791Z" fill="#F38BA8"/>
<path d="M17.4469 12.903C17.5708 12.9323 17.7008 12.8749 17.7573 12.7607L19.7666 8.69989C20.1345 7.95638 21.1955 7.95829 21.5607 8.70313L23.5649 12.7906C23.6227 12.9085 23.7594 12.9652 23.886 12.9302C23.9706 12.9069 24.0379 12.8439 24.0661 12.7607L26.4221 5.81004C26.642 5.16159 26.1598 4.48901 25.4751 4.48901H15.851C15.1663 4.48901 14.6841 5.1616 14.9039 5.81005L17.2476 12.724C17.2783 12.8144 17.3539 12.881 17.4469 12.903ZM16.6263 18.3314C17.7233 18.3314 18.6151 17.4395 18.6151 16.3426C18.6151 15.9401 18.4968 15.5691 18.2915 15.2534C18.2284 15.1509 18.1495 15.0562 18.0705 14.9694L18.0626 14.9615C17.985 14.8761 17.8921 14.7983 17.7989 14.7357C17.7958 14.7337 17.793 14.7313 17.7904 14.7287C17.7878 14.7261 17.7849 14.7237 17.7819 14.7216C17.7609 14.7074 17.7345 14.6881 17.7078 14.6737C17.7025 14.6709 17.696 14.6698 17.6918 14.6656C17.6875 14.6613 17.681 14.6603 17.6757 14.6574C17.648 14.6424 17.6204 14.6224 17.5927 14.6081C17.5904 14.6069 17.5878 14.6063 17.5852 14.6063C17.5826 14.6063 17.58 14.6057 17.5777 14.6045C17.548 14.5895 17.5119 14.568 17.4821 14.5528C17.4798 14.5517 17.4773 14.5511 17.4747 14.5511C17.4722 14.5511 17.4696 14.5505 17.4673 14.5493C17.4404 14.5359 17.4135 14.5227 17.3866 14.5146C17.3797 14.5125 17.3723 14.5117 17.3658 14.5085C17.3573 14.5044 17.3478 14.5023 17.3389 14.4989C17.3236 14.4928 17.3065 14.485 17.2909 14.4787C17.2795 14.4741 17.2701 14.4717 17.2586 14.4674C17.2497 14.4641 17.2372 14.4632 17.2282 14.4604C17.2026 14.4524 17.177 14.4408 17.1515 14.4339C17.1487 14.4331 17.1458 14.4328 17.1429 14.4328C17.1405 14.4328 17.1382 14.4325 17.1359 14.4321C17.1031 14.4254 17.0756 14.4188 17.0439 14.4122C17.0339 14.4101 17.027 14.4101 17.0168 14.4082C17.0055 14.4062 16.9917 14.3996 16.9803 14.3974C16.9609 14.3938 16.9438 14.3923 16.9242 14.3884C16.915 14.3866 16.9056 14.3857 16.8964 14.385C16.8788 14.3837 16.8618 14.3776 16.8443 14.3753C16.8264 14.3729 16.8076 14.3695 16.7921 14.3695H16.4843C16.4527 14.3695 16.4291 14.3774 16.3975 14.3774C16.3765 14.3774 16.3556 14.3803 16.3348 14.3832C16.3179 14.3856 16.301 14.3872 16.2841 14.3904C16.2755 14.3921 16.2668 14.3932 16.2581 14.3932C16.2511 14.3932 16.2441 14.3939 16.2372 14.3954C16.2024 14.4026 16.173 14.4098 16.137 14.417C15.2689 14.63 14.6217 15.4192 14.6217 16.3504C14.6376 17.4316 15.5294 18.3314 16.6263 18.3314ZM24.9917 14.3539H24.9759C24.9443 14.3539 24.9207 14.346 24.8891 14.346H24.7864C24.7584 14.346 24.7303 14.346 24.6994 14.3488C24.6732 14.3512 24.647 14.3539 24.6207 14.3539C24.5892 14.3539 24.5576 14.3618 24.5261 14.3618C24.5044 14.3618 24.4831 14.3718 24.4618 14.3761L24.3799 14.3925C24.3773 14.393 24.3748 14.3932 24.3722 14.3932C24.3696 14.3932 24.367 14.3935 24.3645 14.394C24.3315 14.4007 24.3039 14.4074 24.272 14.414C24.2625 14.416 24.2531 14.4172 24.2439 14.4203C24.2324 14.4241 24.2202 14.4263 24.2085 14.4293C24.1871 14.4349 24.1656 14.4411 24.1441 14.4505C24.1357 14.4541 24.1267 14.4568 24.1185 14.4609C24.1118 14.4642 24.1042 14.4657 24.0973 14.4685C24.0613 14.4829 24.0261 14.4973 23.9973 14.5117C23.9614 14.5259 23.932 14.5403 23.8974 14.5547C23.8905 14.5576 23.8829 14.559 23.8762 14.5624C23.868 14.5664 23.8589 14.569 23.8508 14.5731C23.8245 14.5864 23.7983 14.6003 23.7721 14.6194C23.7697 14.6211 23.7689 14.6217 23.7661 14.6225C23.7613 14.6238 23.7578 14.6315 23.7535 14.6339C23.6849 14.6726 23.6164 14.7186 23.5554 14.772L23.5475 14.7799C23.4448 14.8588 23.358 14.9457 23.2712 15.0404C23.1845 15.1351 23.1134 15.2455 23.0503 15.3561C22.8845 15.648 22.7898 15.9874 22.7898 16.3426C22.7898 17.4395 23.6816 18.3314 24.7785 18.3314C25.8756 18.3314 26.7673 17.4395 26.7673 16.3426C26.7673 15.3798 26.0728 14.5669 25.1654 14.3853C25.1179 14.3695 25.0548 14.3618 24.9917 14.3539ZM8.37936 18.3314C9.47633 18.3314 10.3681 17.4395 10.3681 16.3426C10.3681 15.2455 9.47633 14.3539 8.37936 14.3539C7.28241 14.3539 6.39062 15.2455 6.39062 16.3426C6.39062 17.4395 7.28241 18.3314 8.37936 18.3314Z" fill="#F38BA8"/>
<path d="M24.7948 19.8696C23.3873 19.8696 22.1711 19.0398 21.6043 17.8478C21.4367 17.4952 21.1052 17.2258 20.7148 17.2258C20.3244 17.2258 19.9929 17.4952 19.8252 17.8478C19.2584 19.0398 18.0423 19.8696 16.6347 19.8696C16.3011 19.8696 15.9766 20.0103 15.7798 20.2797C15.3917 20.8112 14.9492 21.3098 14.4487 21.7795C13.3201 22.8448 12.0417 23.6341 10.6606 24.1312L10.6553 24.1331C10.4526 24.2073 10.2281 24.1923 10.0371 24.0918C8.48036 23.2912 7.63388 21.7175 7.78552 20.1428C7.80174 19.9743 7.69033 19.8169 7.52685 19.7729C7.50925 19.7682 7.49173 19.7633 7.47428 19.7583C7.36251 19.726 7.24812 19.7735 7.19608 19.8775C6.69101 20.9193 6.16226 21.9925 5.97286 23.1448C5.76766 24.3759 5.68085 26.6251 7.41707 27.8246C8.17468 28.3454 8.97176 28.6059 9.86353 28.6059C11.5761 28.6059 13.4228 27.6904 15.3799 26.7198C16.911 25.9621 18.4893 25.1729 20.1308 24.7704C20.7542 24.6205 21.3856 24.5258 21.9933 24.439C23.1061 24.2811 24.1635 24.1233 25.0237 23.6262C25.9392 23.0974 26.5627 22.2135 26.7363 21.2033C26.7746 20.9899 26.792 20.7756 26.7899 20.5626C26.7836 19.9385 26.0737 19.6881 25.4609 19.8061C25.2457 19.8476 25.0232 19.8696 24.7948 19.8696Z" fill="#F38BA8"/>
</svg>
