<svg width="33" height="33" viewBox="0 0 33 33" fill="none" xmlns="http://www.w3.org/2000/svg">
<path d="M11.8938 11.6992C11.8938 10.9119 12.532 10.2737 13.3193 10.2737C14.1066 10.2737 14.7448 10.9119 14.7448 11.6992V19.7859C14.7448 20.6652 14.5472 21.429 14.1519 22.0773C13.7611 22.7257 13.2171 23.2253 12.5199 23.5761C11.8227 23.927 11.0123 24.1024 10.0886 24.1024C9.26702 24.1024 8.52096 23.9581 7.8504 23.6695C7.18428 23.3763 6.65582 22.9323 6.26503 22.3371C6.10256 22.0879 5.97425 21.8122 5.88009 21.51C5.64158 20.7445 6.33341 20.079 7.13521 20.079H7.5962C8.13035 20.079 8.5245 20.5338 8.77631 21.0049C8.91842 21.258 9.1116 21.4535 9.35584 21.5911C9.60453 21.7243 9.89763 21.791 10.2351 21.791C10.5904 21.791 10.8901 21.7154 11.1344 21.5644C11.3831 21.409 11.5718 21.1826 11.7006 20.885C11.8294 20.5875 11.8938 20.2211 11.8938 19.7859V11.6992ZM25.8326 14.1971C25.0934 14.1971 24.5279 13.5454 23.9769 13.0526C23.935 13.0151 23.8907 12.9792 23.844 12.9448C23.4399 12.6473 22.8914 12.4985 22.1987 12.4985C21.728 12.4985 21.3305 12.5651 21.0063 12.6984C20.6821 12.8271 20.4334 13.007 20.2603 13.2379C20.0915 13.4688 20.0071 13.7308 20.0071 14.024C19.9982 14.2682 20.0493 14.4814 20.1604 14.6635C20.2759 14.8456 20.4334 15.0031 20.6333 15.1363C20.8331 15.2652 21.0641 15.3784 21.326 15.4761C21.5881 15.5693 21.8679 15.6493 22.1653 15.7159L23.391 16.009C23.9861 16.1423 24.5323 16.3198 25.0297 16.5418C25.527 16.764 25.9578 17.037 26.322 17.3613C26.6861 17.6854 26.9682 18.0672 27.168 18.507C27.3723 18.9466 27.4767 19.4507 27.4811 20.019C27.4767 20.8539 27.2635 21.5778 26.8416 22.1907C26.4241 22.799 25.8202 23.2719 25.0297 23.6094C24.2437 23.9425 23.2956 24.1091 22.1854 24.1091C21.0841 24.1091 20.1249 23.9402 19.3077 23.6027C18.4951 23.2652 17.86 22.7657 17.4027 22.104C17.1916 21.7936 17.0272 21.4489 16.9097 21.0701C16.6726 20.3058 17.3483 19.6327 18.1486 19.6327H18.2523C18.9439 19.6327 19.4577 20.2261 19.8739 20.7785C20.1093 21.0805 20.4223 21.3092 20.8131 21.4646C21.2084 21.6155 21.6547 21.691 22.1521 21.691C22.6406 21.691 23.0646 21.62 23.4244 21.4779C23.7886 21.3357 24.0705 21.1381 24.2704 20.885C24.4702 20.6319 24.5701 20.341 24.5701 20.0123C24.5701 19.706 24.479 19.4484 24.2969 19.2396C24.1194 19.031 23.8573 18.8533 23.5109 18.7068C23.169 18.5602 22.7494 18.427 22.252 18.3071L20.7665 17.9341C19.6164 17.6543 18.7082 17.2168 18.042 16.6218C17.376 16.0268 17.0451 15.2251 17.0496 14.2172C17.0451 13.3911 17.2649 12.6695 17.709 12.0522C18.1575 11.4349 18.7725 10.9531 19.5542 10.6067C20.3358 10.2603 21.2239 10.0872 22.2187 10.0872C23.2312 10.0872 24.115 10.2603 24.8698 10.6067C25.6293 10.9531 26.2199 11.4349 26.6417 12.0522C26.796 12.278 26.9229 12.5168 27.0226 12.7687C27.3182 13.5158 26.6361 14.1971 25.8326 14.1971Z" fill="#F9E2AF"/>
</svg>
