<svg width="34" height="37" viewBox="0 0 34 37" fill="none" xmlns="http://www.w3.org/2000/svg">
<g filter="url(#filter0_d_2_616)">
<path d="M14.8499 22.144C14.8499 24.495 12.9441 26.4008 10.5932 26.4008C8.24228 26.4008 6.33655 24.495 6.33655 22.144C6.33655 19.7931 8.24228 17.8875 10.5932 17.8875C12.9441 17.8875 14.8499 19.7931 14.8499 22.144Z" fill="#F38BA8" stroke="#F38BA8" stroke-width="4.5938"/>
<path d="M21.3122 10.9517C21.3122 13.3026 19.4065 15.2084 17.0556 15.2084C14.7047 15.2084 12.799 13.3026 12.799 10.9517C12.799 8.60079 14.7047 6.69507 17.0556 6.69507C19.4065 6.69507 21.3122 8.60079 21.3122 10.9517Z" fill="#A6E3A1" stroke="#A6E3A1" stroke-width="4.5938"/>
<path d="M29.1141 22.1436C29.1141 25.2345 26.6084 27.7402 23.5176 27.7402C20.4267 27.7402 17.921 25.2345 17.921 22.1436C17.921 19.0528 20.4267 16.5471 23.5176 16.5471C26.6084 16.5471 29.1141 19.0528 29.1141 22.1436Z" fill="#CBA6F7"/>
</g>
<defs>
<filter id="filter0_d_2_616" x="-3.02441" y="0.469727" width="40.1566" height="40.1565" filterUnits="userSpaceOnUse" color-interpolation-filters="sRGB">
<feFlood flood-opacity="0" result="BackgroundImageFix"/>
<feColorMatrix in="SourceAlpha" type="matrix" values="0 0 0 0 0 0 0 0 0 0 0 0 0 0 0 0 0 0 127 0" result="hardAlpha"/>
<feOffset dy="4"/>
<feGaussianBlur stdDeviation="2"/>
<feComposite in2="hardAlpha" operator="out"/>
<feColorMatrix type="matrix" values="0 0 0 0 0 0 0 0 0 0 0 0 0 0 0 0 0 0 0.25 0"/>
<feBlend mode="normal" in2="BackgroundImageFix" result="effect1_dropShadow_2_616"/>
<feBlend mode="normal" in="SourceGraphic" in2="effect1_dropShadow_2_616" result="shape"/>
</filter>
</defs>
</svg>
