<svg width="33" height="33" viewBox="0 0 33 33" fill="none" xmlns="http://www.w3.org/2000/svg">
<path d="M15.3449 22.1436C15.3449 25.2345 12.8393 27.7402 9.74836 27.7402C6.65746 27.7402 4.15186 25.2345 4.15186 22.1436C4.15186 19.0528 6.65746 16.5471 9.74836 16.5471C12.8393 16.5471 15.3449 19.0528 15.3449 22.1436Z" fill="#89B4FA"/>
<path d="M21.8071 10.9515C21.8071 14.0423 19.3016 16.548 16.2106 16.548C13.1197 16.548 10.6141 14.0423 10.6141 10.9515C10.6141 7.86058 13.1197 5.35498 16.2106 5.35498C19.3016 5.35498 21.8071 7.86058 21.8071 10.9515Z" fill="#89B4FA"/>
<path d="M28.2697 22.1436C28.2697 25.2345 25.764 27.7402 22.6732 27.7402C19.5823 27.7402 17.0767 25.2345 17.0767 22.1436C17.0767 19.0528 19.5823 16.5471 22.6732 16.5471C25.764 16.5471 28.2697 19.0528 28.2697 22.1436Z" fill="#89B4FA"/>
</svg>
