<svg width="33" height="33" viewBox="0 0 33 33" fill="none" xmlns="http://www.w3.org/2000/svg">
<path d="M16.0786 5.12877C13.4797 5.13169 10.9572 6.00894 8.91728 7.61935C6.87734 9.22976 5.43854 11.4797 4.83241 14.007C5.77228 12.7652 7.33934 11.7064 9.33882 10.9622C11.3383 10.218 13.682 9.8211 16.0786 9.82095C18.4805 9.82249 20.8283 10.2224 22.8291 10.9708C24.8299 11.7192 26.395 12.783 27.3292 14.0293C26.7272 11.4971 25.2896 9.24158 23.2484 7.62671C21.2072 6.01184 18.6814 5.13182 16.0786 5.12866V5.12877ZM4.82812 19.3859C5.43009 21.9181 6.86768 24.1736 8.90889 25.7885C10.9501 27.4034 13.4759 28.2834 16.0786 28.2866C18.6776 28.2836 21.2001 27.4064 23.24 25.796C25.28 24.1856 26.7188 21.9357 27.3249 19.4083C26.385 20.6501 24.8179 21.7089 22.8185 22.4531C20.819 23.1974 18.4753 23.5942 16.0786 23.5944C13.6768 23.5928 11.329 23.1929 9.32819 22.4445C7.32739 21.6961 5.76225 20.6323 4.82812 19.386V19.3859Z" fill="#FAB387"/>
<path d="M4.16602 29.2237C4.16602 29.8669 4.42154 30.4838 4.87639 30.9387C5.33123 31.3935 5.94813 31.6491 6.59137 31.6491C7.23462 31.6491 7.85152 31.3935 8.30636 30.9387C8.7612 30.4838 9.01673 29.8669 9.01673 29.2237C9.01673 28.9052 8.954 28.5898 8.83211 28.2956C8.71023 28.0013 8.53158 27.7339 8.30636 27.5087C8.08115 27.2835 7.81378 27.1048 7.51952 26.983C7.22526 26.8611 6.90988 26.7983 6.59137 26.7983C6.27287 26.7983 5.95749 26.8611 5.66323 26.983C5.36897 27.1048 5.1016 27.2835 4.87639 27.5087C4.65117 27.7339 4.47252 28.0013 4.35063 28.2956C4.22875 28.5898 4.16602 28.9052 4.16602 29.2237Z" fill="#9399B2"/>
<path d="M3.18164 5.83633C3.18164 6.30872 3.3693 6.76176 3.70333 7.0958C4.03736 7.42983 4.4904 7.61748 4.9628 7.61748C5.43519 7.61748 5.88823 7.42983 6.22226 7.0958C6.55629 6.76176 6.74395 6.30872 6.74395 5.83633C6.74395 5.36394 6.55629 4.91089 6.22226 4.57686C5.88823 4.24283 5.43519 4.05518 4.9628 4.05518C4.4904 4.05518 4.03736 4.24283 3.70333 4.57686C3.3693 4.91089 3.18164 5.36394 3.18164 5.83633Z" fill="#6C7086"/>
<path d="M23.6436 4.20665C23.6436 4.8097 23.8831 5.38805 24.3095 5.81447C24.736 6.24089 25.3143 6.48045 25.9173 6.48045C26.5204 6.48045 27.0987 6.24089 27.5252 5.81447C27.9516 5.38805 28.1911 4.8097 28.1911 4.20665C28.1911 3.60361 27.9516 3.02526 27.5252 2.59884C27.0987 2.17242 26.5204 1.93286 25.9173 1.93286C25.3143 1.93286 24.736 2.17242 24.3095 2.59884C23.8831 3.02526 23.6436 3.60361 23.6436 4.20665Z" fill="#7F849C"/>
</svg>
