<svg width="33" height="33" viewBox="0 0 33 33" fill="none" xmlns="http://www.w3.org/2000/svg">
<path d="M28.9431 9.79138C28.9431 9.76656 28.9259 9.7441 28.919 9.72026C28.9161 9.71053 28.9132 9.70219 28.9076 9.69652C28.8877 9.67685 28.8745 9.64848 28.8582 9.62572C28.8549 9.62109 28.8516 9.61687 28.8482 9.61358L28.8127 9.57808C28.8008 9.56615 28.789 9.55436 28.7653 9.54244L24.0122 6.8043C23.9529 6.76937 23.8853 6.75093 23.8165 6.75093C23.7477 6.75093 23.6801 6.76937 23.6209 6.8043L18.8914 9.52898C18.8759 9.53791 18.8646 9.54711 18.8508 9.55855C18.8342 9.57239 18.8128 9.58586 18.7975 9.60114L18.785 9.61358C18.7732 9.62537 18.7613 9.64909 18.7495 9.66101C18.729 9.68122 18.7152 9.70814 18.7055 9.73521C18.7033 9.74137 18.702 9.74797 18.702 9.75588C18.702 9.78088 18.6852 9.80335 18.6817 9.82809C18.6783 9.85138 18.6783 9.87468 18.6783 9.89803V14.5111C18.6783 14.8691 18.487 15.1997 18.1767 15.3781L16.2178 16.5042C15.5512 16.8875 14.7194 16.4062 14.7194 15.6373V7.19541C14.7194 7.16481 14.7194 7.13421 14.7119 7.10353C14.7095 7.09364 14.7078 7.08348 14.7033 7.07431C14.6969 7.06105 14.692 7.04645 14.6877 7.03234C14.6829 7.01643 14.6804 7.00226 14.672 6.99389C14.6522 6.9741 14.6389 6.94585 14.6227 6.92307C14.6194 6.91845 14.6161 6.91424 14.6128 6.91095L14.5771 6.87545C14.5654 6.86352 14.5536 6.85173 14.5298 6.83981L9.76476 4.12539C9.7055 4.09046 9.63794 4.07202 9.56914 4.07202C9.50034 4.07202 9.4328 4.09046 9.37352 4.12539L4.64394 6.84995C4.6283 6.85896 4.61697 6.86827 4.60306 6.87977C4.58649 6.89348 4.5652 6.90691 4.55 6.92211L4.53744 6.93467C4.52551 6.94646 4.51372 6.97018 4.5018 6.9821C4.48152 7.00238 4.46767 7.02921 4.45803 7.05621C4.45582 7.0624 4.4545 7.06902 4.4545 7.07696C4.4545 7.102 4.43762 7.12447 4.4341 7.14925C4.43079 7.17251 4.43079 7.19579 4.43079 7.21912V23.481C4.43079 23.6233 4.5018 23.7536 4.6323 23.8248L14.1268 29.2891C14.1505 29.3009 14.1742 29.3129 14.186 29.3129C14.211 29.3129 14.2335 29.3296 14.2583 29.3332C14.2816 29.3366 14.3049 29.3366 14.3283 29.3366C14.3604 29.3366 14.3923 29.3366 14.4243 29.3279C14.4314 29.3259 14.4397 29.3254 14.4451 29.3204C14.4529 29.3131 14.4636 29.3101 14.4737 29.3067C14.4924 29.3004 14.5111 29.2984 14.5297 29.2891L24.0244 23.8248C24.1428 23.7536 24.2259 23.6233 24.2259 23.481V18.8676C24.2259 18.5098 24.417 18.1793 24.7271 18.0009L28.7774 15.6699C28.8959 15.5986 28.979 15.4682 28.979 15.3261V9.98737C28.979 9.9209 28.9431 9.85785 28.9431 9.79138ZM14.7996 22.7255C14.4931 22.9006 14.1169 22.9012 13.8099 22.7269L11.8776 21.6302C11.2052 21.2486 11.2017 20.2809 11.8713 19.8944L14.5067 18.3734L18.5598 16.0408C18.8684 15.8632 19.2482 15.8631 19.557 16.0405L21.5045 17.1601C22.1743 17.5451 22.1731 18.512 21.5023 18.8953L20.1132 19.689L14.7996 22.7255ZM22.9084 12.5611C23.2178 12.7397 23.4084 13.0698 23.4084 13.4271V15.6201C23.4084 16.3904 22.5743 16.8714 21.9076 16.4857L21.749 16.3939L19.9496 15.3551C19.6401 15.1764 19.4495 14.8463 19.4495 14.489V12.296C19.4495 11.5258 20.2837 11.0447 20.9503 11.4304L21.109 11.5222L22.9084 12.5611ZM23.3131 7.89711C23.6217 7.71973 24.0012 7.71973 24.3098 7.89712L26.2622 9.01941C26.931 9.40389 26.931 10.3689 26.2622 10.7533L24.3098 11.8756C24.0012 12.053 23.6217 12.053 23.3131 11.8756L21.3607 10.7533C20.6919 10.3689 20.6919 9.40389 21.3607 9.01941L23.3131 7.89711ZM11.6144 19.1439L11.4558 19.2356C10.7892 19.6214 9.95502 19.1403 9.95502 18.3701V10.7364C9.95502 10.3791 10.1456 10.049 10.455 9.87036L12.2545 8.83137L12.4131 8.73959C13.0798 8.35391 13.9139 8.83498 13.9139 9.60517V17.2296C13.9139 17.5855 13.7248 17.9146 13.4172 18.0937L11.6144 19.1439ZM9.06476 5.20829C9.37363 5.02981 9.75419 5.02938 10.0635 5.20716L12.0184 6.33097C12.6864 6.71495 12.6875 7.67828 12.0204 8.06377L10.0628 9.19498C9.75394 9.37346 9.37338 9.37389 9.06411 9.19611L7.10913 8.0723C6.44116 7.68832 6.44007 6.72499 7.10717 6.3395L9.06476 5.20829ZM5.20186 9.6172C5.20187 8.84699 6.03601 8.36592 6.70267 8.75166L6.86129 8.84343L8.66074 9.88229C8.97015 10.0609 9.16075 10.3911 9.16075 10.7483V20.7915C9.16075 20.7946 9.16075 20.7984 9.16095 20.8026C9.16214 20.8275 9.16923 20.8517 9.17561 20.8758C9.17936 20.89 9.18444 20.9061 9.19064 20.9194C9.19518 20.9291 9.20166 20.9391 9.20819 20.9456C9.21998 20.9575 9.21998 20.9812 9.2319 20.993L9.26741 21.0286C9.27725 21.0385 9.28718 21.0483 9.29705 21.0651C9.30119 21.0721 9.30695 21.0802 9.31295 21.0857C9.32778 21.0994 9.34576 21.1087 9.36195 21.1207C9.36852 21.1255 9.37626 21.1304 9.38598 21.1353L13.4061 23.4085C13.7199 23.5859 13.9139 23.9185 13.9139 24.279V26.5178C13.9139 27.287 13.0818 27.7682 12.4151 27.3846L5.70295 23.5217C5.39287 23.3432 5.20174 23.0127 5.20175 22.655L5.20186 9.6172ZM23.4092 22.6558C23.4092 23.0135 23.2181 23.344 22.908 23.5225L16.1959 27.3855C15.5292 27.7691 14.6971 27.2879 14.6971 26.5188V24.2766C14.6971 23.9178 14.8893 23.5865 15.2008 23.4085L21.1453 20.0101L21.9136 19.5716C22.5802 19.1912 23.4092 19.6726 23.4092 20.4401V22.6558ZM28.1624 14.5004C28.1624 14.8583 27.9711 15.189 27.6608 15.3674L25.7019 16.4935C25.0352 16.8767 24.2035 16.3955 24.2035 15.6265V13.4279C24.2035 13.0706 24.3941 12.7405 24.7035 12.5619L26.503 11.523L26.6616 11.4312C27.3282 11.0455 28.1624 11.5266 28.1624 12.2968V14.5004Z" fill="#F38BA8"/>
</svg>
