<svg width="36" height="39" viewBox="0 0 36 39" fill="none" xmlns="http://www.w3.org/2000/svg">
<g filter="url(#filter0_d_2_638)">
<path d="M18.8051 13.4902C19.693 13.7499 20.7608 13.8063 21.4149 13.1522V13.1522C22.069 12.4982 22.076 11.4143 21.2808 10.9418C18.7099 9.41406 15.3364 9.75611 13.1247 11.968C10.5082 14.5842 10.5082 18.8261 13.1247 21.4424C15.3364 23.6543 18.7097 23.9963 21.2807 22.4687C22.0759 21.9961 22.0689 20.9122 21.4148 20.2581V20.2581C20.7607 19.604 19.6929 19.6603 18.8051 19.9199C17.6683 20.2522 16.3899 19.9702 15.4934 19.0737C14.1855 17.7657 14.1855 15.6447 15.4934 14.3366C16.3898 13.4398 17.6683 13.1577 18.8051 13.4902Z" fill="#CDD6F4"/>
<path d="M17.8612 3.30591C10.4614 3.30591 4.46265 9.30453 4.46265 16.7045C4.46265 24.1044 10.4613 30.1031 17.8612 30.1031C25.2611 30.1031 31.2598 24.1044 31.2598 16.7045C31.2598 9.30462 25.2611 3.30591 17.8612 3.30591ZM17.8612 26.7533C12.311 26.7533 7.81247 22.2545 7.81247 16.7045C7.81247 11.1546 12.3113 6.65573 17.8612 6.65573C23.4112 6.65573 27.91 11.1546 27.91 16.7045C27.91 22.2545 23.4112 26.7533 17.8612 26.7533Z" fill="#6C7086"/>
</g>
<defs>
<filter id="filter0_d_2_638" x="-2.21704" y="0.626465" width="40.1566" height="40.1565" filterUnits="userSpaceOnUse" color-interpolation-filters="sRGB">
<feFlood flood-opacity="0" result="BackgroundImageFix"/>
<feColorMatrix in="SourceAlpha" type="matrix" values="0 0 0 0 0 0 0 0 0 0 0 0 0 0 0 0 0 0 127 0" result="hardAlpha"/>
<feOffset dy="4"/>
<feGaussianBlur stdDeviation="2"/>
<feComposite in2="hardAlpha" operator="out"/>
<feColorMatrix type="matrix" values="0 0 0 0 0 0 0 0 0 0 0 0 0 0 0 0 0 0 0.25 0"/>
<feBlend mode="normal" in2="BackgroundImageFix" result="effect1_dropShadow_2_638"/>
<feBlend mode="normal" in="SourceGraphic" in2="effect1_dropShadow_2_638" result="shape"/>
</filter>
</defs>
</svg>
