<svg width="33" height="37" viewBox="0 0 33 37" fill="none" xmlns="http://www.w3.org/2000/svg">
<g filter="url(#filter0_d_2_643)">
<path fill-rule="evenodd" clip-rule="evenodd" d="M9.47661 14.0247H22.8752C25.0952 14.0247 26.8948 15.8243 26.8948 18.0443V24.7436C26.8948 26.9635 25.0952 28.7632 22.8752 28.7632H9.47661C7.25665 28.7632 5.45703 26.9635 5.45703 24.7436V18.0443C5.45703 15.8243 7.25666 14.0247 9.47661 14.0247ZM9.47661 16.7044C8.73663 16.7044 8.13675 17.3043 8.13675 18.0443V24.7436C8.13675 25.4834 8.73663 26.0834 9.47661 26.0834H22.8752C23.6152 26.0834 24.215 25.4834 24.215 24.7436V18.0443C24.215 17.3043 23.6152 16.7044 22.8752 16.7044H9.47661Z" fill="#6C7086"/>
<path fill-rule="evenodd" clip-rule="evenodd" d="M21.8949 7.23401C20.6696 5.4658 18.427 4.74657 16.6483 4.65651C14.7716 4.56149 12.36 5.10642 10.7959 7.11276C10.1328 7.96335 9.85391 8.99827 9.7101 9.77467C9.55361 10.6196 9.49211 11.5438 9.4788 12.4377C9.4646 13.3921 9.50469 14.3965 9.57211 15.3644H12.2587C12.0619 12.6983 12.0815 9.82217 12.9093 8.76031C14.605 6.58506 18.5618 7.12887 19.6924 8.76031C20.2583 9.57703 20.2576 12.5744 20.1157 15.3644H22.7988C22.8513 14.294 22.8838 13.1845 22.8722 12.1625C22.8626 11.3127 22.8223 10.4596 22.7227 9.71186C22.6429 9.11234 22.4716 8.06629 21.8949 7.23401Z" fill="#6C7086"/>
</g>
<defs>
<filter id="filter0_d_2_643" x="-3.90381" y="0.626465" width="40.1566" height="40.1565" filterUnits="userSpaceOnUse" color-interpolation-filters="sRGB">
<feFlood flood-opacity="0" result="BackgroundImageFix"/>
<feColorMatrix in="SourceAlpha" type="matrix" values="0 0 0 0 0 0 0 0 0 0 0 0 0 0 0 0 0 0 127 0" result="hardAlpha"/>
<feOffset dy="4"/>
<feGaussianBlur stdDeviation="2"/>
<feComposite in2="hardAlpha" operator="out"/>
<feColorMatrix type="matrix" values="0 0 0 0 0 0 0 0 0 0 0 0 0 0 0 0 0 0 0.25 0"/>
<feBlend mode="normal" in2="BackgroundImageFix" result="effect1_dropShadow_2_643"/>
<feBlend mode="normal" in="SourceGraphic" in2="effect1_dropShadow_2_643" result="shape"/>
</filter>
</defs>
</svg>
