<svg width="33" height="37" viewBox="0 0 33 37" fill="none" xmlns="http://www.w3.org/2000/svg">
<g filter="url(#filter0_d_2_646)">
<path fill-rule="evenodd" clip-rule="evenodd" d="M14.791 7.72778C20.5966 7.72778 25.3097 12.4409 25.3097 18.2464C25.3097 24.052 20.5966 28.7651 14.791 28.7651C8.98541 28.7651 4.27234 24.052 4.27234 18.2464C4.27234 12.4409 8.98541 7.72778 14.791 7.72778ZM19.1496 10.8078C20.8495 10.8078 22.2297 12.188 22.2297 13.8878C22.2297 15.5876 20.8495 16.9679 19.1496 16.9679C17.4498 16.9679 16.0695 15.5876 16.0695 13.8878C16.0695 12.188 17.4498 10.8078 19.1496 10.8078Z" fill="#89B4FA"/>
<path d="M28.3891 7.72484C28.3891 6.02499 27.009 4.64478 25.3091 4.64478C23.6093 4.64478 22.229 6.02499 22.229 7.72484C22.229 9.42468 23.6093 10.8049 25.3091 10.8049C27.009 10.8049 28.3891 9.42759 28.3891 7.72484Z" fill="#89B4FA"/>
</g>
<defs>
<filter id="filter0_d_2_646" x="-3.74719" y="0.626465" width="40.1566" height="40.1565" filterUnits="userSpaceOnUse" color-interpolation-filters="sRGB">
<feFlood flood-opacity="0" result="BackgroundImageFix"/>
<feColorMatrix in="SourceAlpha" type="matrix" values="0 0 0 0 0 0 0 0 0 0 0 0 0 0 0 0 0 0 127 0" result="hardAlpha"/>
<feOffset dy="4"/>
<feGaussianBlur stdDeviation="2"/>
<feComposite in2="hardAlpha" operator="out"/>
<feColorMatrix type="matrix" values="0 0 0 0 0 0 0 0 0 0 0 0 0 0 0 0 0 0 0.25 0"/>
<feBlend mode="normal" in2="BackgroundImageFix" result="effect1_dropShadow_2_646"/>
<feBlend mode="normal" in="SourceGraphic" in2="effect1_dropShadow_2_646" result="shape"/>
</filter>
</defs>
</svg>
