<svg width="33" height="37" viewBox="0 0 33 37" fill="none" xmlns="http://www.w3.org/2000/svg">
<g filter="url(#filter0_d_2_649)">
<mask id="mask0_2_649" style="mask-type:luminance" maskUnits="userSpaceOnUse" x="4" y="4" width="25" height="25">
<path d="M28.547 4.64673H4.42957V28.7642H28.547V4.64673Z" fill="#CDD6F4"/>
</mask>
<g mask="url(#mask0_2_649)">
<path d="M16.4976 28.7645C23.1524 28.7645 28.5472 23.3697 28.5472 16.7149C28.5472 10.0601 23.1524 4.66528 16.4976 4.66528C9.84279 4.66528 4.448 10.0601 4.448 16.7149C4.448 23.3697 9.84279 28.7645 16.4976 28.7645Z" fill="#C992FB"/>
<path d="M21.8246 5.90371C20.4949 5.38633 19.0486 5.10245 17.5359 5.10245C11.0018 5.10245 5.70488 10.3994 5.70488 16.9335C5.70488 23.2944 10.7248 28.4829 17.0191 28.7534C16.8462 28.7607 16.6723 28.7645 16.4976 28.7645C9.8428 28.7645 4.448 23.3697 4.448 16.7149C4.448 10.0601 9.8428 4.66528 16.4976 4.66528C18.41 4.66528 20.2184 5.1108 21.8246 5.90371Z" fill="#E0BEFF"/>
<path d="M13.6835 26.906C20.6853 26.906 26.3615 21.2298 26.3615 14.228C26.3615 11.8887 25.728 9.69749 24.6232 7.81641C27.0347 10.0198 28.5474 13.1904 28.5474 16.7144C28.5474 23.3692 23.1526 28.764 16.4977 28.764C13.5105 28.764 10.7772 27.6769 8.67175 25.877C10.209 26.5391 11.9034 26.906 13.6835 26.906Z" fill="#6A2F9E"/>
<path d="M13.6835 26.906C20.6853 26.906 26.3615 21.2298 26.3615 14.228C26.3615 11.8887 25.728 9.69749 24.6232 7.81641C27.0347 10.0198 28.5474 13.1904 28.5474 16.7144C28.5474 23.3692 23.1526 28.764 16.4977 28.764C13.5105 28.764 10.7772 27.6769 8.67175 25.877C10.209 26.5391 11.9034 26.906 13.6835 26.906Z" fill="#6A2F9E"/>
<path d="M13.6835 26.906C20.6853 26.906 26.3615 21.2298 26.3615 14.228C26.3615 11.8887 25.728 9.69749 24.6232 7.81641C27.0347 10.0198 28.5474 13.1904 28.5474 16.7144C28.5474 23.3692 23.1526 28.764 16.4977 28.764C13.5105 28.764 10.7772 27.6769 8.67175 25.877C10.209 26.5391 11.9034 26.906 13.6835 26.906Z" fill="#A551F2"/>
<path d="M16.6411 19.8753C17.2745 20.9356 18.7739 20.9766 19.5248 20.0273C19.6418 19.8792 19.7598 19.5792 19.9407 19.4749C20.35 19.2377 20.7215 19.706 20.5817 20.0874C19.8587 22.0542 16.9335 22.2493 15.9034 20.4524C15.7286 20.1475 15.6411 19.6142 16.1022 19.5175C16.3859 19.4578 16.4963 19.6334 16.6411 19.8753Z" fill="#20103F"/>
<path d="M24.9962 15.1026C24.9962 16.6418 23.7484 17.8897 22.2092 17.8897C20.6699 17.8897 19.4221 16.6418 19.4221 15.1026C19.4221 13.5634 20.6699 12.3157 22.2092 12.3157C23.7484 12.3157 24.9962 13.5634 24.9962 15.1026Z" fill="#20103F"/>
<path d="M23.1574 15.9193C23.731 16.1326 24.3667 15.8468 24.5771 15.2809C24.7876 14.715 24.4933 14.0833 23.9197 13.87C23.3461 13.6567 22.7105 13.9425 22.5 14.5084C22.2896 15.0744 22.584 15.706 23.1574 15.9193Z" fill="#FCFCFE"/>
<path d="M15.487 15.6488C15.487 17.1881 14.2392 18.4357 12.6999 18.4357C11.1607 18.4357 9.91296 17.1881 9.91296 15.6488C9.91296 14.1096 11.1607 12.8618 12.6999 12.8618C14.2392 12.8618 15.487 14.1096 15.487 15.6488Z" fill="#20103F"/>
<path d="M13.6492 16.4664C14.2228 16.6797 14.8583 16.3939 15.0688 15.828C15.2793 15.2622 14.9849 14.6304 14.4113 14.4171C13.8377 14.2038 13.2022 14.4896 12.9917 15.0556C12.7813 15.6215 13.0756 16.2531 13.6492 16.4664Z" fill="#FCFCFE"/>
<path d="M25.6507 22.5888C25.9828 22.5888 26.2519 22.3198 26.2519 21.9878C26.2519 21.6558 25.9828 21.3867 25.6507 21.3867C25.3187 21.3867 25.0497 21.6558 25.0497 21.9878C25.0497 22.3198 25.3187 22.5888 25.6507 22.5888Z" fill="#C992FB"/>
<path d="M22.3725 25.1582C23.0666 25.1582 23.6293 24.5955 23.6293 23.9013C23.6293 23.2073 23.0666 22.6445 22.3725 22.6445C21.6783 22.6445 21.1156 23.2073 21.1156 23.9013C21.1156 24.5955 21.6783 25.1582 22.3725 25.1582Z" fill="#20103F"/>
<path d="M19.503 26.5785C19.7294 26.5785 19.9129 26.3951 19.9129 26.1687C19.9129 25.9424 19.7294 25.7588 19.503 25.7588C19.2767 25.7588 19.0933 25.9424 19.0933 26.1687C19.0933 26.3951 19.2767 26.5785 19.503 26.5785Z" fill="#20103F"/>
<path d="M14.5028 25.3215C14.8649 25.3215 15.1585 25.0279 15.1585 24.6657C15.1585 24.3036 14.8649 24.01 14.5028 24.01C14.1406 24.01 13.847 24.3036 13.847 24.6657C13.847 25.0279 14.1406 25.3215 14.5028 25.3215Z" fill="#20103F"/>
<path d="M11.3336 23.0258C12.239 23.0258 12.973 22.2919 12.973 21.3865C12.973 20.481 12.239 19.7471 11.3336 19.7471C10.4282 19.7471 9.69421 20.481 9.69421 21.3865C9.69421 22.2919 10.4282 23.0258 11.3336 23.0258Z" fill="#20103F"/>
<path d="M7.67245 19.6386C7.88372 19.6386 8.05498 19.4672 8.05498 19.2561C8.05498 19.0448 7.88372 18.8735 7.67245 18.8735C7.46118 18.8735 7.28992 19.0448 7.28992 19.2561C7.28992 19.4672 7.46118 19.6386 7.67245 19.6386Z" fill="#20103F"/>
<path d="M8.32796 14.884C8.53923 14.884 8.71049 14.7127 8.71049 14.5014C8.71049 14.2901 8.53923 14.1189 8.32796 14.1189C8.1167 14.1189 7.94543 14.2901 7.94543 14.5014C7.94543 14.7127 8.1167 14.884 8.32796 14.884Z" fill="#20103F"/>
<path d="M14.8042 10.5666C15.4531 10.5666 15.9791 10.0406 15.9791 9.39171C15.9791 8.74283 15.4531 8.2168 14.8042 8.2168C14.1553 8.2168 13.6293 8.74283 13.6293 9.39171C13.6293 10.0406 14.1553 10.5666 14.8042 10.5666Z" fill="#20103F"/>
<path d="M18.8746 11.7695C19.2368 11.7695 19.5303 11.4759 19.5303 11.1138C19.5303 10.7516 19.2368 10.458 18.8746 10.458C18.5124 10.458 18.2189 10.7516 18.2189 11.1138C18.2189 11.4759 18.5124 11.7695 18.8746 11.7695Z" fill="#20103F"/>
<path d="M18.8757 8.76327C19.0266 8.76327 19.1489 8.64094 19.1489 8.49003C19.1489 8.33913 19.0266 8.2168 18.8757 8.2168C18.7247 8.2168 18.6024 8.33913 18.6024 8.49003C18.6024 8.64094 18.7247 8.76327 18.8757 8.76327Z" fill="#20103F"/>
</g>
</g>
<defs>
<filter id="filter0_d_2_649" x="-3.59058" y="0.626465" width="40.1566" height="40.1565" filterUnits="userSpaceOnUse" color-interpolation-filters="sRGB">
<feFlood flood-opacity="0" result="BackgroundImageFix"/>
<feColorMatrix in="SourceAlpha" type="matrix" values="0 0 0 0 0 0 0 0 0 0 0 0 0 0 0 0 0 0 127 0" result="hardAlpha"/>
<feOffset dy="4"/>
<feGaussianBlur stdDeviation="2"/>
<feComposite in2="hardAlpha" operator="out"/>
<feColorMatrix type="matrix" values="0 0 0 0 0 0 0 0 0 0 0 0 0 0 0 0 0 0 0.25 0"/>
<feBlend mode="normal" in2="BackgroundImageFix" result="effect1_dropShadow_2_649"/>
<feBlend mode="normal" in="SourceGraphic" in2="effect1_dropShadow_2_649" result="shape"/>
</filter>
</defs>
</svg>
