<svg width="33" height="33" viewBox="0 0 33 33" fill="none" xmlns="http://www.w3.org/2000/svg">
<g filter="url(#filter0_d_2_676)">
<path d="M5.7428 21.681C5.19051 21.681 4.7428 21.2333 4.7428 20.681V12.345C4.7428 11.7927 5.19051 11.345 5.7428 11.345H7.38112C7.6809 11.345 7.96486 11.4795 8.15479 11.7114L10.193 14.2002C10.5931 14.6888 11.3402 14.6888 11.7403 14.2002L13.7785 11.7114C13.9684 11.4795 14.2524 11.345 14.5522 11.345H16.1905C16.7428 11.345 17.1905 11.7927 17.1905 12.345V20.681C17.1905 21.2333 16.7428 21.681 16.1905 21.681H15.0786C14.5263 21.681 14.0786 21.2333 14.0786 20.681V18.5525C14.0786 17.6129 12.9002 17.192 12.3049 17.9189L11.7403 18.6083C11.3402 19.0969 10.5931 19.0969 10.193 18.6083L9.62841 17.9189C9.03312 17.192 7.85473 17.6129 7.85473 18.5525V20.681C7.85473 21.2333 7.40701 21.681 6.85473 21.681H5.7428ZM24.9244 20.8944C24.5289 21.3194 23.8558 21.3194 23.4603 20.8944L21.0014 18.252C20.4395 17.6483 20.8677 16.665 21.6924 16.665C22.2137 16.665 22.6363 16.2424 22.6363 15.7211V12.345C22.6363 11.7927 23.0841 11.345 23.6363 11.345H24.7483C25.3006 11.345 25.7483 11.7927 25.7483 12.345V15.721C25.7483 16.2424 26.1709 16.665 26.6923 16.665C27.517 16.665 27.9452 17.6483 27.3833 18.2521L24.9244 20.8944Z" fill="#89B4FA"/>
</g>
<defs>
<filter id="filter0_d_2_676" x="-3.27734" y="0.626465" width="40.1566" height="40.1565" filterUnits="userSpaceOnUse" color-interpolation-filters="sRGB">
<feFlood flood-opacity="0" result="BackgroundImageFix"/>
<feColorMatrix in="SourceAlpha" type="matrix" values="0 0 0 0 0 0 0 0 0 0 0 0 0 0 0 0 0 0 127 0" result="hardAlpha"/>
<feOffset dy="4"/>
<feGaussianBlur stdDeviation="2"/>
<feComposite in2="hardAlpha" operator="out"/>
<feColorMatrix type="matrix" values="0 0 0 0 0 0 0 0 0 0 0 0 0 0 0 0 0 0 0.25 0"/>
<feBlend mode="normal" in2="BackgroundImageFix" result="effect1_dropShadow_2_676"/>
<feBlend mode="normal" in="SourceGraphic" in2="effect1_dropShadow_2_676" result="shape"/>
</filter>
</defs>
</svg>
