<svg width="34" height="33" viewBox="0 0 34 33" fill="none" xmlns="http://www.w3.org/2000/svg">
<g filter="url(#filter0_d_2_678)">
<path d="M28.4405 19.9976L21.4999 13M21.5592 20L28.4999 13" stroke="#89B4FA" stroke-width="3" stroke-linecap="round" stroke-linejoin="round"/>
<path d="M5.89966 21.681C5.34737 21.681 4.89966 21.2333 4.89966 20.681V12.345C4.89966 11.7927 5.34737 11.345 5.89966 11.345H7.53798C7.83776 11.345 8.12172 11.4795 8.31166 11.7114L10.3498 14.2002C10.7499 14.6888 11.4971 14.6888 11.8972 14.2002L13.9354 11.7114C14.1253 11.4795 14.4093 11.345 14.709 11.345H16.3473C16.8996 11.345 17.3473 11.7927 17.3473 12.345V20.681C17.3473 21.2333 16.8996 21.681 16.3473 21.681H15.2354C14.6832 21.681 14.2354 21.2333 14.2354 20.681V18.5525C14.2354 17.6129 13.057 17.192 12.4618 17.9189L11.8972 18.6083C11.4971 19.0969 10.7499 19.0969 10.3498 18.6083L9.78527 17.9189C9.18998 17.192 8.01159 17.6129 8.01159 18.5525V20.681C8.01159 21.2333 7.56387 21.681 7.01159 21.681H5.89966Z" fill="#89B4FA"/>
</g>
<defs>
<filter id="filter0_d_2_678" x="-3.12073" y="0.626465" width="40.1566" height="40.1565" filterUnits="userSpaceOnUse" color-interpolation-filters="sRGB">
<feFlood flood-opacity="0" result="BackgroundImageFix"/>
<feColorMatrix in="SourceAlpha" type="matrix" values="0 0 0 0 0 0 0 0 0 0 0 0 0 0 0 0 0 0 127 0" result="hardAlpha"/>
<feOffset dy="4"/>
<feGaussianBlur stdDeviation="2"/>
<feComposite in2="hardAlpha" operator="out"/>
<feColorMatrix type="matrix" values="0 0 0 0 0 0 0 0 0 0 0 0 0 0 0 0 0 0 0.25 0"/>
<feBlend mode="normal" in2="BackgroundImageFix" result="effect1_dropShadow_2_678"/>
<feBlend mode="normal" in="SourceGraphic" in2="effect1_dropShadow_2_678" result="shape"/>
</filter>
</defs>
</svg>
