<svg width="33" height="33" viewBox="0 0 33 33" fill="none" xmlns="http://www.w3.org/2000/svg">
<path fill-rule="evenodd" clip-rule="evenodd" d="M18.5689 4.64648C18.3671 4.64648 18.3222 4.90993 18.4409 5.07308C18.545 5.21615 18.616 5.37448 18.6623 5.54337C18.6686 5.58697 18.6811 5.61811 18.6872 5.66171C18.6935 5.69908 18.6997 5.73645 18.6997 5.77381C18.7246 6.32191 18.5564 6.39043 18.4381 6.7143C18.2575 7.1316 18.3074 7.58005 18.5254 7.94129C18.5409 7.97765 18.5849 7.96212 18.5813 7.92275C18.4618 6.60358 19.4931 6.29593 19.8442 5.88634C19.9028 5.81796 19.9266 5.72666 19.9137 5.63753C19.8622 5.28228 19.5534 5.0357 19.3038 4.85825C19.036 4.69631 18.7932 4.64648 18.5689 4.64648ZM20.7215 5.05997C20.6313 5.02707 20.5451 5.08651 20.537 5.18212C20.5309 5.23195 20.5309 5.29424 20.5247 5.34407C20.5122 5.39388 20.4998 5.44371 20.481 5.49354C20.4686 5.54337 20.4499 5.5932 20.4312 5.64302C20.4204 5.66456 20.4108 5.68494 20.4014 5.70516C20.3761 5.75934 20.3488 5.81325 20.3129 5.86101C20.3004 5.8797 20.2879 5.89838 20.2755 5.91707C20.2444 5.96067 20.2132 6.00427 20.1821 6.04164C20.1455 6.07825 20.1149 6.12084 20.0726 6.15185C20.0709 6.15306 20.07 6.15497 20.07 6.15702C20.07 6.1589 20.0691 6.16068 20.0677 6.16189C20.0311 6.19264 19.9943 6.22913 19.9516 6.25965C19.8209 6.35929 19.6713 6.43403 19.5343 6.52746C19.4504 6.58741 19.3642 6.64753 19.2915 6.72054C19.2478 6.75791 19.2167 6.79528 19.1793 6.83888C19.1481 6.87625 19.1107 6.91985 19.0858 6.96345C19.0547 7.00705 19.0237 7.05065 18.9987 7.09424C18.9738 7.14406 18.9551 7.18767 18.9301 7.23749C18.9115 7.28732 18.8928 7.33092 18.8803 7.38075C18.8617 7.43681 18.8492 7.48662 18.8367 7.53645C18.8306 7.56139 18.8306 7.59251 18.8243 7.61742C18.8122 7.66631 18.8118 7.71766 18.8089 7.76793C18.8073 7.7951 18.8057 7.82231 18.8057 7.84787C18.8057 7.92269 18.8092 7.99807 18.8219 8.0718C18.8243 8.08606 18.8272 8.10066 18.8306 8.1157C18.8367 8.16552 18.8492 8.21534 18.8617 8.26517C18.8804 8.315 18.8929 8.36483 18.9115 8.41465C18.9243 8.44664 18.8962 8.47909 18.8641 8.46665L17.5226 7.94753C17.2797 7.87901 17.0429 7.81674 16.8002 7.76068C16.6693 7.72954 16.5385 7.69839 16.4077 7.66725C16.034 7.59251 15.654 7.53645 15.2742 7.49908C15.2617 7.49908 15.2554 7.49285 15.243 7.49285C14.8693 7.45548 14.5018 7.43679 14.1281 7.43679C13.8541 7.43679 13.58 7.44924 13.3122 7.46793C12.9323 7.49287 12.5524 7.54268 12.1724 7.60496C12.079 7.61741 11.9856 7.63611 11.8921 7.65479C11.6991 7.69216 11.5122 7.73576 11.3316 7.77935C11.2382 7.80428 11.1447 7.82918 11.0513 7.85409C10.9579 7.89146 10.8707 7.93506 10.7835 7.97243C10.715 8.00358 10.6465 8.03472 10.578 8.06586C10.558 8.07589 10.5366 8.08344 10.5165 8.09324C10.4811 8.11051 10.4475 8.12633 10.4144 8.14323C10.3862 8.15759 10.3571 8.17004 10.3288 8.18419C10.2603 8.21533 10.1918 8.2527 10.1357 8.28384C10.0921 8.30253 10.0485 8.32744 10.0112 8.34613C9.99249 8.35858 9.96758 8.37105 9.95512 8.37727C9.89907 8.4084 9.84301 8.43956 9.79318 8.47069C9.73713 8.50183 9.68731 8.53297 9.6437 8.56412C9.60011 8.59526 9.55651 8.62017 9.51913 8.65132C9.50852 8.66193 9.49414 8.66792 9.48177 8.6764C9.45372 8.69563 9.42351 8.71753 9.39574 8.73982C9.3866 8.74717 9.37795 8.75511 9.36967 8.76341C9.3444 8.78364 9.31911 8.80385 9.29384 8.82407C9.28214 8.83343 9.2695 8.84165 9.25752 8.85064C9.24558 8.85959 9.23294 8.8677 9.22163 8.87743C9.20528 8.8915 9.18892 8.90665 9.17257 8.92107C9.15501 8.93657 9.1371 8.95242 9.12052 8.96896C9.08751 9.00197 9.05451 9.03013 9.0215 9.062C9.01305 9.07016 9.00426 9.07899 8.99597 9.0873C8.95859 9.11844 8.92122 9.15581 8.88385 9.19317C8.87556 9.20148 8.86673 9.21027 8.85845 9.21859C8.83163 9.24552 8.80481 9.27309 8.77797 9.30528C8.76553 9.31773 8.74684 9.3302 8.73439 9.34265C8.70717 9.37529 8.67522 9.40794 8.64266 9.44058C8.63329 9.44998 8.62542 9.46094 8.61604 9.47032C8.60666 9.47971 8.59877 9.49065 8.58949 9.50014C8.54538 9.54522 8.5054 9.5903 8.46032 9.63538C8.45409 9.64162 8.44787 9.64783 8.44164 9.65407C8.34198 9.75995 8.2361 9.86584 8.12399 9.95925C8.01188 10.0589 7.89355 10.1523 7.7752 10.2333C7.65063 10.3205 7.53229 10.3952 7.4015 10.47C7.27693 10.5385 7.14613 10.6008 7.00912 10.6568C6.87832 10.7129 6.7413 10.7627 6.60427 10.8063C6.34267 10.8624 6.07486 10.9682 5.84441 10.9869C5.79458 10.9869 5.73853 10.9994 5.6887 11.0056C5.63264 11.0181 5.58281 11.0305 5.533 11.043C5.48317 11.0617 5.43334 11.0804 5.38351 11.099C5.38106 11.1 5.37861 11.1009 5.37616 11.1018C5.27892 11.1395 5.18728 11.1917 5.10176 11.2514C5.10017 11.2525 5.09858 11.2536 5.09701 11.2548C5.00837 11.3181 4.92781 11.3928 4.85078 11.4698C4.84981 11.4708 4.84884 11.4718 4.84787 11.4727C4.81049 11.5164 4.77312 11.5537 4.74199 11.5973C4.73943 11.6014 4.73684 11.6054 4.73421 11.6094C4.67703 11.6967 4.61428 11.7812 4.5664 11.8739C4.56469 11.8772 4.56301 11.8805 4.56136 11.8838C4.53644 11.9399 4.51154 11.9897 4.49285 12.0458C4.47416 12.0956 4.45548 12.1516 4.43679 12.2077C4.42435 12.2575 4.41187 12.3074 4.40565 12.3572C4.40565 12.3704 4.39784 12.3823 4.39568 12.3954C4.3869 12.4482 4.38628 12.5109 4.38073 12.544C4.37449 12.5876 4.36829 12.625 4.36829 12.6686C4.36829 12.6935 4.36829 12.7247 4.37453 12.7496C4.38076 12.7932 4.38698 12.8305 4.39945 12.8679C4.41159 12.9043 4.42375 12.9408 4.44166 12.9772C4.44257 12.9791 4.44305 12.9811 4.44305 12.9831C4.44305 12.9852 4.44352 12.9872 4.44445 12.989C4.46297 13.0255 4.48727 13.0619 4.51156 13.0984C4.53648 13.1357 4.56139 13.1731 4.59252 13.2105C4.62366 13.2416 4.66103 13.279 4.69841 13.3101C4.73578 13.3475 4.77315 13.3786 4.81675 13.4098C4.96622 13.5406 5.00359 13.5842 5.19668 13.6838C5.22687 13.702 5.25706 13.7142 5.29294 13.732C5.29518 13.7331 5.29752 13.7335 5.29991 13.7343C5.30839 13.7369 5.31432 13.7472 5.31588 13.7559C5.31648 13.7593 5.31751 13.7627 5.31926 13.7668C5.3205 13.7696 5.32145 13.7726 5.32186 13.7757C5.32827 13.824 5.34033 13.8722 5.3524 13.9205C5.36485 13.9766 5.38354 14.0264 5.40223 14.07C5.42092 14.1074 5.43337 14.1447 5.45206 14.1821C5.46284 14.2037 5.47613 14.2243 5.48735 14.2456C5.50673 14.2825 5.5261 14.3164 5.54547 14.3503C5.57662 14.3938 5.60776 14.4375 5.6389 14.481C5.67004 14.5184 5.70742 14.5621 5.74479 14.5994C5.78189 14.6365 5.81898 14.6675 5.86217 14.7045C5.86281 14.7051 5.86266 14.7049 5.86327 14.7055C5.86935 14.7112 5.87908 14.7144 5.8855 14.7198C5.91956 14.7482 5.95362 14.776 5.98768 14.7987C6.03128 14.8298 6.07488 14.8547 6.12471 14.8797C6.16831 14.9046 6.21813 14.9295 6.26796 14.9483C6.29984 14.9641 6.33626 14.9755 6.37334 14.9863C6.38591 14.9899 6.39587 14.9954 6.40807 15.0002C6.41309 15.0021 6.42007 15.0049 6.4253 15.0062C6.42574 15.0063 6.42617 15.0064 6.42661 15.0065C6.46816 15.0164 6.49666 15.0538 6.49453 15.0965C6.47912 15.4048 6.47715 15.6851 6.52334 15.789C6.6243 16.0134 7.07135 15.8218 7.10156 16.066C7.10758 16.1147 7.11607 16.154 7.1275 16.1815C7.1616 16.259 7.27134 16.1775 7.41291 16.01C7.76176 15.5974 8.18935 15.2338 8.72591 15.17C12.8047 14.6853 16.366 17.6186 16.7628 21.6561C16.7008 21.1413 16.2009 20.8016 15.7994 20.7124C15.5978 20.6676 15.4305 20.8179 15.3399 21.0036C15.2013 21.2878 15.0161 21.5906 14.7731 21.8466C14.6613 21.9643 14.4804 21.869 14.4809 21.7067C14.4814 21.5065 14.2041 21.4801 14.1176 21.6606C14.0064 21.8926 13.873 22.1139 13.72 22.3216C13.6601 22.4028 13.5664 22.4534 13.4655 22.4511C12.9484 22.4389 12.4505 22.1856 12.1611 21.8172C12.1392 21.7894 12.1141 21.7634 12.0992 21.7312C12.0874 21.7056 12.0733 21.6805 12.0625 21.6544C12.0497 21.6238 12.0379 21.5933 12.0292 21.5627C12.0105 21.5192 11.9981 21.4755 11.9919 21.432C11.9856 21.3883 11.9856 21.3447 11.9856 21.2949C11.9856 21.2327 11.9892 21.1703 12.0056 21.1103C12.0092 21.0971 12.013 21.0839 12.0167 21.0707C12.0292 21.0271 12.0417 20.9835 12.0603 20.9398C12.11 20.853 12.155 20.7619 12.1787 20.6648C12.2356 20.4321 12.2089 20.2434 12.0479 20.124C12.034 20.1147 12.0201 20.1063 12.0059 20.0985C11.9565 20.0712 11.9033 20.0506 11.8486 20.0368C11.8299 20.0305 11.8174 20.0243 11.7988 20.0181C11.7552 20.0057 11.7116 19.9932 11.668 19.9869C11.5831 19.9627 11.4935 19.9568 11.4053 19.9559C11.4036 19.9558 11.4019 19.9558 11.4001 19.9558C11.369 19.9558 11.3379 19.962 11.3067 19.962C11.2569 19.962 11.2133 19.9683 11.1697 19.9808C11.1261 19.9869 11.0825 19.9932 11.0389 20.0057C10.9953 20.0181 10.9517 20.0306 10.9081 20.0492C10.8645 20.068 10.8271 20.0866 10.7835 20.1054C10.7039 20.1451 10.6263 20.191 10.5555 20.2448C9.55718 21.0036 9.83009 22.4352 10.4489 23.3383C10.6305 23.6033 10.4658 24.0085 10.2105 24.2036C10.2041 24.2099 10.2055 24.2205 10.2132 24.2251C10.4764 24.383 10.7517 24.5172 11.0389 24.6333C11.4356 24.7634 11.8569 24.8813 12.0451 24.9316C12.0468 24.9321 12.0479 24.9336 12.0479 24.9353C12.0479 24.9372 12.0492 24.9388 12.051 24.9391C12.567 25.0445 13.0891 25.0817 13.6174 25.0507C16.3217 24.8614 18.5474 22.8413 19.0219 20.1574C19.0278 20.1238 19.0785 20.1218 19.086 20.1551C19.1046 20.2672 19.1295 20.3855 19.142 20.504C19.142 20.5081 19.1424 20.5122 19.1433 20.5162C19.1549 20.5703 19.1609 20.6241 19.1669 20.6721V20.6971C19.1732 20.7531 19.1793 20.8092 19.1793 20.8589C19.1856 20.9275 19.1918 20.996 19.1918 21.0646V21.1641C19.1918 21.1953 19.1981 21.2327 19.1981 21.2638C19.1981 21.3012 19.1918 21.3386 19.1918 21.376V21.4632C19.1918 21.5067 19.1856 21.5441 19.1856 21.5877C19.1856 21.5971 19.1856 21.6066 19.1853 21.6164C19.1841 21.6514 19.1795 21.6864 19.1771 21.7213C19.1765 21.7304 19.1758 21.7396 19.1752 21.749C19.1728 21.7865 19.1669 21.8242 19.1669 21.8618C19.1606 21.9115 19.1544 21.9552 19.1481 22.005C19.1481 22.0426 19.1403 22.08 19.1348 22.1172C19.1286 22.1584 19.1213 22.1985 19.117 22.2416V22.2479C19.117 22.252 19.1166 22.2561 19.1157 22.2601C19.1044 22.3116 19.093 22.3679 19.0817 22.4195C19.0803 22.4255 19.0797 22.4317 19.0797 22.4379C19.0797 22.4441 19.079 22.4502 19.0776 22.4563C19.0668 22.5051 19.0559 22.5539 19.0451 22.6027C19.0432 22.6111 19.0419 22.6197 19.0391 22.6279C19.0364 22.636 19.0351 22.6444 19.0332 22.6528C19.0224 22.7016 19.0111 22.7504 18.9955 22.7992C18.9935 22.8054 18.9924 22.8118 18.9924 22.8183C18.9924 22.8242 18.9916 22.83 18.9899 22.8356C18.9731 22.8912 18.9565 22.9419 18.9447 22.9924C18.9433 22.9984 18.9379 23.0061 18.9367 23.0122C18.936 23.0153 18.936 23.0156 18.9351 23.0186C18.9168 23.0793 18.8986 23.1401 18.8803 23.2008C18.8554 23.2631 18.8367 23.3192 18.8118 23.3815C18.7869 23.4438 18.7683 23.5061 18.7434 23.5621C18.7188 23.6234 18.6943 23.6787 18.6698 23.7397C18.6691 23.7415 18.6673 23.7427 18.6654 23.7427C18.6635 23.7427 18.6618 23.7438 18.661 23.7455C18.6388 23.7958 18.6165 23.8508 18.5897 23.9017C18.5843 23.912 18.5797 23.9228 18.5753 23.9336C18.5727 23.9398 18.5701 23.9454 18.5676 23.9507C18.5644 23.9573 18.5598 23.9633 18.5565 23.9699C18.5531 23.9767 18.5486 23.9829 18.5452 23.9897C18.1404 24.8013 17.5443 25.5139 16.8 26.0722C16.7502 26.1032 16.7003 26.1406 16.6506 26.178C16.6413 26.1874 16.6284 26.1932 16.6173 26.2008C16.61 26.2058 16.6033 26.2117 16.5962 26.2168C16.5624 26.241 16.5282 26.2651 16.4909 26.2892C16.479 26.2969 16.4747 26.3123 16.4811 26.3249L16.4862 26.3351C16.4877 26.3381 16.4908 26.34 16.4942 26.34C16.4946 26.34 16.495 26.34 16.4954 26.3399C16.5815 26.3276 16.6675 26.3153 16.7535 26.303C16.7555 26.3028 16.7575 26.3026 16.7595 26.3026C16.7616 26.3026 16.7637 26.3025 16.7658 26.3021C16.9267 26.2773 17.0877 26.2463 17.2485 26.2154C17.2922 26.2091 17.342 26.1968 17.3855 26.1843C17.4166 26.178 17.4416 26.1718 17.4728 26.1655C17.4783 26.1648 17.4838 26.1639 17.4893 26.1629C17.5656 26.1495 17.6422 26.134 17.7157 26.1095C18.2366 25.9845 18.6491 26.5668 18.2558 26.9306C18.0157 27.1527 17.7643 27.3632 17.5026 27.5612C17.1514 27.827 17.3547 28.4239 17.7779 28.3018C19.5374 27.7823 21.1011 26.7976 22.3143 25.4721C22.6096 25.1495 23.1728 25.4067 22.999 25.8079C22.8286 26.2012 23.278 26.6015 23.5787 26.2961C23.603 26.2714 23.6272 26.2465 23.6513 26.2216C24.6304 25.1988 25.3733 23.9827 25.8369 22.6617C25.9591 22.3136 26.4793 22.3336 26.4912 22.7023C26.502 23.0416 26.9508 23.1894 27.119 22.8945C30.5041 16.9592 26.7352 11.0646 25.1039 9.44382C25.1029 9.44281 25.1021 9.44172 25.1015 9.44045C25.0984 9.43455 25.0954 9.43003 25.0932 9.42534C25.091 9.42048 25.0838 9.41833 25.0838 9.42368C25.0838 9.41824 25.0775 9.42047 25.0775 9.42591C25.0767 9.49577 25.071 9.56561 25.0651 9.63546C25.0465 9.77872 25.0277 9.91573 25.0028 10.0528C24.9717 10.1898 24.9343 10.3268 24.8969 10.4638C24.8534 10.5946 24.8035 10.7317 24.7474 10.8624C24.6914 10.987 24.6291 11.1178 24.5606 11.2424C24.4922 11.3607 24.4174 11.4853 24.3363 11.5974C24.2554 11.7157 24.1682 11.8278 24.0811 11.9337C23.9876 12.0458 23.8879 12.1455 23.7883 12.2451C23.726 12.3012 23.6699 12.351 23.6077 12.4008C23.5579 12.4445 23.5142 12.4818 23.4643 12.5254C23.3523 12.6126 23.2402 12.6936 23.1156 12.7683C22.9973 12.8431 22.8727 12.9178 22.7482 12.9801C22.6173 13.0424 22.4865 13.0984 22.3557 13.1545C22.225 13.2043 22.0879 13.2479 21.951 13.2853C21.8139 13.3227 21.6707 13.3538 21.5336 13.3787C21.3904 13.4036 21.2472 13.4161 21.1101 13.4285C21.0104 13.4348 20.9108 13.441 20.8112 13.441C20.6679 13.441 20.5246 13.4285 20.3876 13.4161C20.2444 13.4036 20.101 13.3849 19.9641 13.3538C19.8229 13.3292 19.6877 13.2926 19.5526 13.2498C19.5487 13.2485 19.5447 13.2479 19.5406 13.2479C19.6775 13.2354 19.8146 13.223 19.9516 13.1981C20.0949 13.1731 20.2319 13.142 20.3689 13.1046C20.5059 13.0673 20.643 13.0237 20.7738 12.9739C20.9107 12.924 21.0416 12.8617 21.1661 12.7995C21.297 12.7372 21.4153 12.6687 21.5398 12.5939C21.6582 12.5129 21.7765 12.432 21.8887 12.3448C22.0007 12.2576 22.1067 12.1642 22.2062 12.0645C22.3122 11.9711 22.4056 11.8652 22.499 11.7593C22.5924 11.6472 22.6796 11.5351 22.7607 11.423C22.773 11.4043 22.7856 11.3794 22.798 11.3607C22.8602 11.261 22.9225 11.1614 22.9786 11.0617C23.0471 10.9372 23.1094 10.8126 23.1654 10.6818C23.2214 10.551 23.2713 10.4202 23.315 10.2832C23.3585 10.1524 23.3897 10.0154 23.4208 9.87835C23.4457 9.73509 23.4706 9.59806 23.4831 9.46105C23.4956 9.31779 23.508 9.17454 23.508 9.03752C23.508 8.93786 23.5017 8.8382 23.4956 8.73856C23.4831 8.5953 23.4645 8.45827 23.4457 8.32126C23.4208 8.178 23.3897 8.04098 23.3523 7.90395C23.3087 7.77316 23.2651 7.63614 23.2153 7.50534C23.1654 7.37454 23.1031 7.24375 23.041 7.11918C22.9724 6.99461 22.9039 6.87005 22.8291 6.75171C22.7482 6.63337 22.6671 6.52125 22.58 6.40915C22.4865 6.30326 22.3931 6.19738 22.2934 6.09149C22.2436 6.04168 22.1876 5.98562 22.1316 5.93579C21.8513 5.7178 21.5585 5.51226 21.2658 5.32542C21.2356 5.30817 21.2085 5.29392 21.1802 5.28058C21.1545 5.2685 21.1294 5.25534 21.1051 5.24065C20.9735 5.16092 20.8467 5.10569 20.7215 5.05997Z" fill="#89B4FA"/>
</svg>
