<svg width="34" height="38" viewBox="0 0 34 38" fill="none" xmlns="http://www.w3.org/2000/svg">
<g filter="url(#filter0_d_2_689)">
<path d="M22.4633 12.8053L22.454 12.8013C22.4487 12.7993 22.4433 12.7973 22.4387 12.7926C22.4311 12.7844 22.4255 12.7746 22.4223 12.7639C22.419 12.7532 22.4182 12.7419 22.4201 12.7308L22.9338 9.58961L25.3433 11.9997L22.8375 13.0658C22.8305 13.0686 22.823 13.07 22.8155 13.0698H22.8056C22.8022 13.0678 22.7989 13.0651 22.7923 13.0585C22.6991 12.9547 22.5876 12.8688 22.4633 12.8053ZM25.9582 12.6138L28.5343 15.1901C29.0694 15.7257 29.3373 15.993 29.4349 16.3027C29.4496 16.3486 29.4616 16.3945 29.4709 16.4416L23.3141 13.8342C23.3107 13.8328 23.3074 13.8315 23.3042 13.8302C23.2795 13.8202 23.251 13.8089 23.251 13.7836C23.251 13.7584 23.2802 13.7464 23.3048 13.7365L23.3127 13.7331L25.9582 12.6138ZM29.3658 17.2684C29.2329 17.5183 28.9736 17.7776 28.535 18.2169L25.6304 21.1209L21.8737 20.3386L21.8538 20.3346C21.8205 20.3292 21.7853 20.3233 21.7853 20.2933C21.7711 20.1384 21.725 19.988 21.6501 19.8516C21.5752 19.7152 21.4731 19.5956 21.35 19.5004C21.3347 19.4851 21.3387 19.4613 21.3433 19.4393C21.3433 19.4359 21.3434 19.4326 21.3446 19.4299L22.0513 15.0924L22.0538 15.0778C22.0578 15.0445 22.0639 15.006 22.0937 15.006C22.2451 14.9871 22.3913 14.9383 22.5237 14.8625C22.6561 14.7866 22.772 14.6851 22.8648 14.5639C22.8707 14.5574 22.8747 14.55 22.8826 14.546C22.9039 14.5361 22.9293 14.546 22.9511 14.5554L29.3658 17.2684ZM24.9625 21.7889L20.1862 26.5652L21.0038 21.5403L21.0051 21.5336C21.0056 21.527 21.007 21.5203 21.009 21.5143C21.0157 21.4984 21.033 21.4918 21.0496 21.4851L21.0575 21.4818C21.2365 21.4054 21.3949 21.2876 21.5195 21.1381C21.5354 21.1196 21.5547 21.1016 21.5794 21.0983C21.5857 21.0972 21.5922 21.0972 21.5985 21.0983L24.9625 21.7889ZM19.1753 27.5761L18.6369 28.1145L12.6848 19.5124C12.6826 19.5092 12.6804 19.5061 12.6781 19.5031C12.6688 19.4905 12.6588 19.4779 12.6608 19.4633C12.6608 19.4525 12.6682 19.4433 12.6755 19.4353L12.6821 19.4267C12.7001 19.4 12.7153 19.3735 12.732 19.345L12.7452 19.3216L12.7472 19.3196C12.7565 19.3037 12.7652 19.2884 12.7811 19.2797C12.7951 19.2731 12.8144 19.2758 12.8297 19.279L19.4238 20.639C19.4423 20.6418 19.4596 20.6494 19.4743 20.661C19.4829 20.6695 19.4849 20.6789 19.4869 20.6895C19.533 20.8635 19.6185 21.0246 19.7371 21.1601C19.8556 21.2955 20.0038 21.4018 20.1702 21.4705C20.1889 21.4797 20.1808 21.5004 20.1722 21.5224C20.168 21.532 20.1646 21.5419 20.1622 21.5522C20.0791 22.0574 19.3666 26.4029 19.1753 27.5761ZM18.0506 28.7C17.6538 29.0928 17.4198 29.3009 17.1553 29.3846C16.8944 29.4672 16.6145 29.4672 16.3536 29.3846C16.044 29.2863 15.7762 29.0191 15.241 28.4833L9.26373 22.5061L10.825 20.0847C10.8323 20.0726 10.8397 20.062 10.8516 20.0535C10.8682 20.0414 10.8922 20.0468 10.9121 20.0535C11.2705 20.1616 11.6552 20.142 12.0008 19.9983C12.0188 19.9916 12.0367 19.987 12.0507 19.9996C12.0577 20.0059 12.0639 20.0131 12.0693 20.0209L18.0506 28.7ZM8.68747 21.9298L7.31627 20.5586L10.0241 19.4034C10.031 19.4004 10.0385 19.3988 10.046 19.3987C10.0686 19.3987 10.0819 19.4213 10.0939 19.442C10.1211 19.4838 10.1499 19.5246 10.1803 19.5643L10.1889 19.5749C10.1969 19.5861 10.1916 19.5975 10.1836 19.6081L8.68747 21.9298ZM6.70943 19.9518L4.97466 18.2169C4.67954 17.9219 4.46552 17.7078 4.31664 17.5237L9.59141 18.6177C9.59804 18.619 9.60468 18.6201 9.61136 18.621C9.64392 18.6264 9.67981 18.6324 9.67981 18.663C9.67981 18.6962 9.64059 18.7115 9.60736 18.7241L9.59208 18.7308L6.70943 19.9518ZM4.01355 16.6317C4.01957 16.52 4.03966 16.4095 4.07337 16.3027C4.17173 15.993 4.43894 15.7257 4.97466 15.1901L7.19463 12.9701C8.21678 14.4535 9.24169 15.9351 10.2694 17.4148C10.2873 17.4386 10.3073 17.4653 10.2866 17.4851C10.1896 17.5921 10.0926 17.7091 10.0241 17.8361C10.0167 17.8525 10.0052 17.8666 9.99087 17.8773C9.98223 17.8826 9.97293 17.8806 9.96296 17.8786L4.01355 16.6317ZM7.78884 12.3759L10.7725 9.39088C11.0537 9.51384 12.0753 9.9452 12.9879 10.3307C13.6791 10.6232 14.3092 10.889 14.5073 10.9754C14.5271 10.9834 14.5451 10.9914 14.5538 11.0113C14.5592 11.0233 14.5565 11.0386 14.5538 11.0512C14.5065 11.2667 14.5136 11.4905 14.5743 11.7026C14.6349 11.9147 14.7473 12.1083 14.9014 12.2662C14.9213 12.2862 14.9014 12.3147 14.8841 12.3393L14.8748 12.3533L11.844 17.0478C11.836 17.0612 11.8287 17.0724 11.8154 17.081C11.7994 17.091 11.7768 17.0864 11.7582 17.0817C11.6403 17.0508 11.5192 17.0344 11.3973 17.0325C11.2883 17.0325 11.17 17.0525 11.0504 17.0744C11.0371 17.0764 11.0244 17.079 11.0138 17.0711C11.002 17.0614 10.9919 17.05 10.9839 17.0372L7.78884 12.3759ZM11.3767 8.78802L15.241 4.92367C15.7762 4.38861 16.044 4.12075 16.3536 4.02304C16.6145 3.94056 16.8944 3.94056 17.1553 4.02304C17.4651 4.12075 17.7329 4.38861 18.2679 4.92367L19.1054 5.76115L16.357 10.0176C16.3503 10.03 16.3409 10.0409 16.3298 10.0496C16.3132 10.0609 16.2899 10.0562 16.2699 10.0496C16.0532 9.98379 15.8239 9.97183 15.6014 10.0147C15.3792 10.0575 15.1705 10.1539 14.9938 10.2955C14.9759 10.3141 14.9493 10.3035 14.9267 10.2935C14.5677 10.1373 11.7762 8.95751 11.3767 8.78802ZM19.689 6.34472L22.2266 8.8824L21.6151 12.6697V12.6796C21.6146 12.6883 21.6129 12.6968 21.6099 12.7049C21.6032 12.7182 21.5899 12.7208 21.5767 12.7248C21.4459 12.7644 21.3228 12.8258 21.2124 12.9063C21.2077 12.9097 21.2033 12.9134 21.1991 12.9176C21.1917 12.9256 21.1845 12.9329 21.1726 12.9342C21.1628 12.9345 21.153 12.9329 21.1439 12.9296L17.2769 11.2865L17.2696 11.2832C17.2451 11.2732 17.2158 11.2612 17.2158 11.236C17.1931 11.0205 17.1227 10.8127 17.0098 10.6278C16.9912 10.5972 16.9705 10.5653 16.9865 10.5341L19.689 6.34472ZM17.0756 12.0648L20.7007 13.6002C20.7205 13.6095 20.7425 13.6181 20.7512 13.6387C20.7545 13.6511 20.7545 13.6642 20.7512 13.6766C20.7405 13.7298 20.7312 13.7903 20.7312 13.8514V13.9531C20.7312 13.9784 20.7052 13.989 20.6814 13.999L20.674 14.0017C20.0998 14.2469 12.6116 17.4399 12.6004 17.4399C12.589 17.4399 12.5771 17.4399 12.5658 17.4287C12.5458 17.4087 12.5658 17.3809 12.5837 17.3555C12.5869 17.3511 12.59 17.3467 12.593 17.3423L15.5721 12.7295L15.5773 12.7215C15.5946 12.6936 15.6146 12.6624 15.6465 12.6624L15.6765 12.667C15.7443 12.6763 15.804 12.6849 15.8645 12.6849C16.3165 12.6849 16.7352 12.4649 16.9878 12.0887C16.9938 12.0787 17.0015 12.0697 17.0104 12.0622C17.0284 12.0489 17.0549 12.0555 17.0756 12.0648ZM12.924 18.1698L21.0862 14.6889C21.0862 14.6889 21.0981 14.6889 21.1093 14.7002C21.154 14.7447 21.1917 14.7747 21.2283 14.8026L21.2463 14.8138C21.2629 14.8232 21.2795 14.8338 21.2808 14.8511C21.2808 14.8578 21.2808 14.8618 21.2795 14.8677L20.5804 19.1627L20.5777 19.18C20.573 19.2132 20.5683 19.2512 20.5371 19.2512C20.3507 19.2638 20.1701 19.3216 20.0112 19.4197C19.8521 19.5178 19.7194 19.6531 19.6245 19.8142L19.6212 19.8194C19.6119 19.8348 19.6032 19.8494 19.5879 19.8573C19.574 19.864 19.556 19.8613 19.5414 19.858L13.0324 18.5154C13.0257 18.5141 12.9314 18.1704 12.924 18.1698Z" fill="#94E2D5"/>
</g>
<defs>
<filter id="filter0_d_2_689" x="-3.33765" y="0.626465" width="40.1566" height="40.1565" filterUnits="userSpaceOnUse" color-interpolation-filters="sRGB">
<feFlood flood-opacity="0" result="BackgroundImageFix"/>
<feColorMatrix in="SourceAlpha" type="matrix" values="0 0 0 0 0 0 0 0 0 0 0 0 0 0 0 0 0 0 127 0" result="hardAlpha"/>
<feOffset dy="4"/>
<feGaussianBlur stdDeviation="2"/>
<feComposite in2="hardAlpha" operator="out"/>
<feColorMatrix type="matrix" values="0 0 0 0 0 0 0 0 0 0 0 0 0 0 0 0 0 0 0.25 0"/>
<feBlend mode="normal" in2="BackgroundImageFix" result="effect1_dropShadow_2_689"/>
<feBlend mode="normal" in="SourceGraphic" in2="effect1_dropShadow_2_689" result="shape"/>
</filter>
</defs>
</svg>
