<svg width="33" height="33" viewBox="0 0 33 33" fill="none" xmlns="http://www.w3.org/2000/svg">
<path d="M22.1082 10.4527C22.1082 9.76189 22.6681 9.2019 23.3589 9.2019C24.0497 9.2019 24.6097 9.76189 24.6097 10.4527V19.206C24.6097 19.8967 24.0497 20.4567 23.3589 20.4567C22.6681 20.4567 22.1082 19.8967 22.1082 19.206V10.4527Z" fill="url(#paint0_linear_2_691)"/>
<path d="M10.8868 11.0537C10.7293 10.8522 10.6438 10.6038 10.6438 10.3481C10.6438 9.71506 11.157 9.2019 11.79 9.2019H11.9686C12.3764 9.2019 12.7615 9.38971 13.0125 9.71105L28.2701 29.2389C28.6954 29.7831 28.599 30.5691 28.0549 30.9945C27.5105 31.4201 26.7242 31.3236 26.2988 30.7792L10.8868 11.0537Z" fill="url(#paint1_linear_2_691)"/>
<path d="M9.39478 10.4527C9.39478 9.76189 9.95476 9.2019 10.6455 9.2019C11.3363 9.2019 11.8963 9.76189 11.8963 10.4527V22.9576C11.8963 23.6483 11.3363 24.2083 10.6455 24.2083C9.95476 24.2083 9.39478 23.6483 9.39478 22.9576V10.4527Z" fill="#6C7086"/>
<defs>
<linearGradient id="paint0_linear_2_691" x1="23.3582" y1="13.3555" x2="23.3582" y2="20.4567" gradientUnits="userSpaceOnUse">
<stop stop-color="#6C7086"/>
<stop offset="1" stop-color="#6C7086" stop-opacity="0"/>
</linearGradient>
<linearGradient id="paint1_linear_2_691" x1="20.3363" y1="21.0824" x2="28.0539" y2="30.9947" gradientUnits="userSpaceOnUse">
<stop stop-color="#6C7086"/>
<stop offset="1" stop-color="#6C7086" stop-opacity="0"/>
</linearGradient>
</defs>
</svg>
