<svg width="34" height="33" viewBox="0 0 34 33" fill="none" xmlns="http://www.w3.org/2000/svg">
<path d="M12.1527 5.15045C11.9743 4.83884 11.6425 4.64681 11.2834 4.64734L10.9173 4.64788C10.5607 4.6484 10.2313 4.83878 10.0529 5.14754L9.88344 5.44083C9.70508 5.74948 9.70452 6.12974 9.88196 6.43892L10.4717 7.46647C10.8548 8.13412 10.3716 8.96619 9.60181 8.96423L8.41691 8.96121C8.05516 8.96029 7.72112 9.15481 7.54338 9.46988L7.19858 10.0811C6.82254 10.7477 7.3042 11.5724 8.06956 11.5724H17.6734C18.4442 11.5724 18.9252 10.7373 18.5384 10.0706L18.1874 9.46572C18.0089 9.15794 17.6802 8.96823 17.3244 8.96756L14.9135 8.96303C14.5557 8.96236 14.2254 8.77049 14.0476 8.45992L12.1527 5.15045ZM19.0502 5.15414C18.8702 4.84059 18.535 4.64857 18.1735 4.65193L17.472 4.65845C16.7064 4.66558 16.2325 5.49527 16.6153 6.15836L21.4168 14.476C21.8024 15.1439 22.767 15.1424 23.1505 14.4732L23.4979 13.867C23.6746 13.5586 23.6743 13.1795 23.4971 12.8713L22.2963 10.7831C22.1179 10.4729 22.1189 10.091 22.2989 9.78174L24.2175 6.48418C24.3978 6.17422 24.3984 5.79143 24.219 5.48094L24.0352 5.1629C23.8565 4.85369 23.5265 4.66323 23.1694 4.66323H22.8306C22.4742 4.66323 22.1447 4.85296 21.9657 5.16123L21.3715 6.185C20.985 6.85088 20.0225 6.84852 19.6393 6.18074L19.0502 5.15414ZM27.319 10.8066C26.9301 10.147 25.9745 10.1514 25.5916 10.8145L20.7902 19.1303C20.4046 19.7981 20.888 20.6326 21.6591 20.6303L22.3574 20.6283C22.7129 20.6272 23.0411 20.4375 23.2194 20.13L24.4287 18.0452C24.6082 17.7357 24.9395 17.5457 25.2973 17.547L29.1108 17.5606C29.4696 17.5619 29.8016 17.3709 29.9808 17.0601L30.1647 16.7409C30.3428 16.432 30.343 16.0517 30.1651 15.7426L29.9964 15.4496C29.8184 15.1404 29.4891 14.9494 29.1323 14.9485L27.9455 14.9455C27.1758 14.9435 26.6968 14.1092 27.0832 13.4435L27.6778 12.419C27.8592 12.1064 27.8578 11.7203 27.6743 11.4091L27.319 10.8066ZM13.3174 13.4026C13.703 12.7348 13.2196 11.9002 12.4484 11.9025L11.7504 11.9046C11.3949 11.9056 11.0667 12.0953 10.8883 12.4028L9.67897 14.4876C9.49943 14.7971 9.16819 14.9871 8.81038 14.9858L4.99668 14.9722C4.63803 14.9709 4.30617 15.1618 4.12693 15.4724L3.94328 15.7907C3.76502 16.0996 3.76482 16.4802 3.94277 16.7893L4.11128 17.0821C4.28929 17.3913 4.6186 17.5823 4.97543 17.5832L6.16099 17.5862C6.93094 17.5882 7.40993 18.423 7.02306 19.0887L6.42927 20.1104C6.24759 20.423 6.24881 20.8093 6.43246 21.1208L6.78878 21.7251C7.17769 22.3846 8.13327 22.3803 8.51617 21.7172L13.3174 13.4026ZM11.8427 16.5521C11.8413 16.5497 11.8378 16.5497 11.8363 16.5521L11.8341 16.5557C11.8336 16.5566 11.8322 16.5566 11.8318 16.5556C11.8313 16.5547 11.8299 16.5546 11.8294 16.5556L10.6179 18.668C10.441 18.9764 10.4412 19.3557 10.6185 19.664L11.8192 21.7519C11.9976 22.0621 11.9966 22.444 11.8167 22.7533L9.89828 26.0506C9.71783 26.3607 9.71739 26.7437 9.8971 27.0543L10.0814 27.3727C10.2601 27.6816 10.59 27.8719 10.9469 27.8719H11.8539C11.8589 27.8719 11.8636 27.8693 11.8664 27.8652L12.7462 26.3512C13.1332 25.6854 14.0958 25.6884 14.4786 26.3566L15.0653 27.3811C15.2452 27.6952 15.5808 27.8875 15.9428 27.884L18.354 27.8606C18.3557 27.8606 18.3567 27.8587 18.3557 27.8573C18.3548 27.8558 18.3558 27.8539 18.3576 27.8539H18.3593C18.3617 27.8539 18.3632 27.8513 18.362 27.8493L11.8427 16.5521ZM16.4238 20.9347C15.6528 20.9347 15.1719 21.7702 15.559 22.4369L15.9102 23.0417C16.0888 23.3493 16.4174 23.5389 16.7731 23.5396L19.1844 23.5441C19.5422 23.5448 19.8723 23.7365 20.0502 24.0469L21.9472 27.357C22.1256 27.6684 22.4573 27.8603 22.8162 27.8598L23.1814 27.8593C23.538 27.8588 23.8674 27.6684 24.0458 27.3596L24.2153 27.0663C24.3937 26.7576 24.3943 26.3773 24.2168 26.0682L23.6271 25.0407C23.244 24.373 23.7272 23.541 24.497 23.5429L25.6819 23.546C26.0437 23.5469 26.3777 23.3524 26.5555 23.0373L26.9002 22.4261C27.2763 21.7594 26.7946 20.9347 26.0293 20.9347H16.4238Z" fill="#89B4FA"/>
</svg>
