<svg width="36" height="36" viewBox="0 0 36 36" fill="none" xmlns="http://www.w3.org/2000/svg">
<g filter="url(#filter0_d_2_695)">
<path d="M13.1527 5.15045C12.9743 4.83884 12.6425 4.64681 12.2834 4.64734L11.9173 4.64788C11.5607 4.6484 11.2313 4.83878 11.0529 5.14754L10.8834 5.44083C10.7051 5.74948 10.7045 6.12974 10.882 6.43892L11.4717 7.46647C11.8548 8.13412 11.3716 8.96619 10.6018 8.96423L9.41691 8.96121C9.05516 8.96029 8.72112 9.15481 8.54338 9.46988L8.19858 10.0811C7.82254 10.7477 8.3042 11.5724 9.06956 11.5724H18.6734C19.4442 11.5724 19.9252 10.7373 19.5384 10.0706L19.1874 9.46572C19.0089 9.15794 18.6802 8.96823 18.3244 8.96756L15.9135 8.96303C15.5557 8.96236 15.2254 8.77049 15.0476 8.45992L13.1527 5.15045ZM20.0502 5.15414C19.8702 4.84059 19.535 4.64857 19.1735 4.65193L18.472 4.65845C17.7064 4.66558 17.2325 5.49527 17.6153 6.15836L22.4168 14.476C22.8024 15.1439 23.767 15.1424 24.1505 14.4732L24.4979 13.867C24.6746 13.5586 24.6743 13.1795 24.4971 12.8713L23.2963 10.7831C23.1179 10.4729 23.1189 10.091 23.2989 9.78174L25.2175 6.48418C25.3978 6.17422 25.3984 5.79143 25.219 5.48094L25.0352 5.1629C24.8565 4.85369 24.5265 4.66323 24.1694 4.66323H23.8306C23.4742 4.66323 23.1447 4.85296 22.9657 5.16123L22.3715 6.185C21.985 6.85088 21.0225 6.84852 20.6393 6.18074L20.0502 5.15414ZM28.319 10.8066C27.9301 10.147 26.9745 10.1514 26.5916 10.8145L21.7902 19.1303C21.4046 19.7981 21.888 20.6326 22.6591 20.6303L23.3574 20.6283C23.7129 20.6272 24.0411 20.4375 24.2194 20.13L25.4287 18.0452C25.6083 17.7357 25.9395 17.5457 26.2973 17.547L30.1108 17.5606C30.4696 17.5619 30.8016 17.3709 30.9808 17.0601L31.1647 16.7409C31.3428 16.432 31.343 16.0517 31.1651 15.7426L30.9964 15.4496C30.8184 15.1404 30.4891 14.9494 30.1323 14.9485L28.9455 14.9455C28.1758 14.9435 27.6968 14.1092 28.0832 13.4435L28.6778 12.419C28.8592 12.1064 28.8578 11.7203 28.6743 11.4091L28.319 10.8066ZM14.3174 13.4026C14.703 12.7348 14.2196 11.9002 13.4484 11.9025L12.7504 11.9046C12.3949 11.9056 12.0667 12.0953 11.8883 12.4028L10.679 14.4876C10.4994 14.7971 10.1682 14.9871 9.81038 14.9858L5.99668 14.9722C5.63803 14.9709 5.30617 15.1618 5.12693 15.4724L4.94328 15.7907C4.76502 16.0996 4.76482 16.4802 4.94277 16.7893L5.11128 17.0821C5.28929 17.3913 5.6186 17.5823 5.97543 17.5832L7.16099 17.5862C7.93094 17.5882 8.40993 18.423 8.02306 19.0887L7.42927 20.1104C7.24759 20.423 7.24881 20.8093 7.43246 21.1208L7.78878 21.7251C8.17769 22.3846 9.13327 22.3803 9.51617 21.7172L14.3174 13.4026ZM12.8427 16.5521C12.8413 16.5497 12.8378 16.5497 12.8363 16.5521L12.8341 16.5557C12.8336 16.5566 12.8323 16.5566 12.8318 16.5556V16.5556C12.8313 16.5547 12.8299 16.5546 12.8294 16.5556L11.6179 18.668C11.441 18.9764 11.4412 19.3557 11.6185 19.664L12.8192 21.7519C12.9976 22.0621 12.9966 22.444 12.8167 22.7533L10.8983 26.0506C10.7178 26.3607 10.7174 26.7437 10.8971 27.0543L11.0814 27.3727C11.2601 27.6816 11.59 27.8719 11.9469 27.8719H12.8539C12.8589 27.8719 12.8636 27.8693 12.8664 27.8652V27.8652L13.7462 26.3512C14.1332 25.6854 15.0958 25.6884 15.4786 26.3566L16.0653 27.3811C16.2452 27.6952 16.5808 27.8875 16.9428 27.884L19.354 27.8606C19.3557 27.8606 19.3567 27.8587 19.3557 27.8573V27.8573C19.3548 27.8558 19.3558 27.8539 19.3576 27.8539H19.3593C19.3617 27.8539 19.3632 27.8513 19.362 27.8493L12.8427 16.5521ZM17.4238 20.9347C16.6528 20.9347 16.1719 21.7702 16.559 22.4369L16.9102 23.0417C17.0888 23.3493 17.4174 23.5389 17.7731 23.5396L20.1844 23.5441C20.5422 23.5448 20.8723 23.7365 21.0502 24.0469L22.9472 27.357C23.1256 27.6684 23.4573 27.8603 23.8162 27.8598L24.1814 27.8593C24.538 27.8588 24.8674 27.6684 25.0458 27.3596L25.2153 27.0663C25.3937 26.7576 25.3943 26.3773 25.2168 26.0682L24.6271 25.0407C24.244 24.373 24.7272 23.541 25.497 23.5429L26.6819 23.546C27.0437 23.5469 27.3777 23.3524 27.5555 23.0373L27.9002 22.4261C28.2763 21.7594 27.7946 20.9347 27.0293 20.9347H17.4238Z" fill="#89B4FA"/>
</g>
<defs>
<filter id="filter0_d_2_695" x="-2.02441" y="0.626465" width="40.1566" height="40.1565" filterUnits="userSpaceOnUse" color-interpolation-filters="sRGB">
<feFlood flood-opacity="0" result="BackgroundImageFix"/>
<feColorMatrix in="SourceAlpha" type="matrix" values="0 0 0 0 0 0 0 0 0 0 0 0 0 0 0 0 0 0 127 0" result="hardAlpha"/>
<feOffset dy="4"/>
<feGaussianBlur stdDeviation="2"/>
<feComposite in2="hardAlpha" operator="out"/>
<feColorMatrix type="matrix" values="0 0 0 0 0 0 0 0 0 0 0 0 0 0 0 0 0 0 0.25 0"/>
<feBlend mode="normal" in2="BackgroundImageFix" result="effect1_dropShadow_2_695"/>
<feBlend mode="normal" in="SourceGraphic" in2="effect1_dropShadow_2_695" result="shape"/>
</filter>
</defs>
</svg>
