<svg width="34" height="39" viewBox="0 0 34 39" fill="none" xmlns="http://www.w3.org/2000/svg">
<g filter="url(#filter0_d_2_699)">
<path d="M17.0653 2.99341C16.8377 2.99341 16.6097 3.05236 16.4057 3.17006L5.49222 9.47436C5.29184 9.59012 5.12545 9.75656 5.00974 9.95697C4.89403 10.1574 4.83307 10.3847 4.83301 10.6161V23.225C4.83303 23.4564 4.894 23.6836 5.00976 23.8839C5.12553 24.0844 5.29199 24.2507 5.49243 24.3662L16.4058 30.6652C16.6061 30.781 16.8334 30.8418 17.0646 30.8418C17.296 30.8418 17.5231 30.781 17.7234 30.6652L28.6395 24.3662C28.8401 24.2505 29.0067 24.0843 29.1224 23.8838C29.2382 23.6834 29.2991 23.4559 29.299 23.2245V10.6165C29.299 10.3851 29.238 10.1578 29.1224 9.9574C29.0068 9.757 28.8405 9.59052 28.6402 9.47468L17.7241 3.17027C17.5237 3.05451 17.2968 2.99337 17.0653 2.99341ZM9.93026 8.38607C9.93026 8.38607 11.1939 11.9266 13.733 11.809L16.7064 10.0982C16.8178 10.0334 16.9435 9.99697 17.0724 9.99208H17.141C17.2696 9.99663 17.395 10.0331 17.506 10.0982L20.4791 11.809C23.0184 11.9263 24.2816 8.38607 24.2816 8.38607C24.8425 10.8679 24.3953 12.5279 23.6467 13.6321L24.1335 13.9123C24.3823 14.0545 24.5338 14.3191 24.5342 14.608L24.5213 24.8779C24.5215 24.9478 24.5031 25.0167 24.4683 25.0774C24.4333 25.1381 24.3831 25.1886 24.3225 25.2237C24.2621 25.26 24.1928 25.2793 24.1223 25.2793C24.0517 25.2793 23.9826 25.26 23.9222 25.2237L19.9842 22.9682C19.7366 22.822 19.5832 22.5588 19.5832 22.2736V17.4754C19.5834 17.3349 19.5464 17.1967 19.4761 17.0751C19.4058 16.9534 19.3045 16.8525 19.1825 16.7824L17.506 15.8167C17.3853 15.7455 17.2478 15.7081 17.1078 15.7084C16.9668 15.7081 16.8283 15.7455 16.7066 15.8167L15.0294 16.7824C14.7811 16.9243 14.6296 17.1896 14.6296 17.4757V22.2737C14.6296 22.5591 14.4782 22.8204 14.229 22.9683L10.29 25.2235C10.2301 25.26 10.1613 25.2793 10.0911 25.2793C10.021 25.2793 9.95224 25.26 9.89231 25.2235C9.76658 25.1539 9.69251 25.0214 9.69251 24.878L9.67783 14.6081C9.67764 14.4672 9.71459 14.3286 9.78496 14.2064C9.85535 14.0843 9.95667 13.9829 10.0787 13.9124L10.5655 13.6321C9.81707 12.5278 9.36912 10.8677 9.93026 8.38607Z" fill="#94E2D5"/>
</g>
<defs>
<filter id="filter0_d_2_699" x="-3" y="0.782959" width="40.1566" height="40.1565" filterUnits="userSpaceOnUse" color-interpolation-filters="sRGB">
<feFlood flood-opacity="0" result="BackgroundImageFix"/>
<feColorMatrix in="SourceAlpha" type="matrix" values="0 0 0 0 0 0 0 0 0 0 0 0 0 0 0 0 0 0 127 0" result="hardAlpha"/>
<feOffset dy="4"/>
<feGaussianBlur stdDeviation="2"/>
<feComposite in2="hardAlpha" operator="out"/>
<feColorMatrix type="matrix" values="0 0 0 0 0 0 0 0 0 0 0 0 0 0 0 0 0 0 0.25 0"/>
<feBlend mode="normal" in2="BackgroundImageFix" result="effect1_dropShadow_2_699"/>
<feBlend mode="normal" in="SourceGraphic" in2="effect1_dropShadow_2_699" result="shape"/>
</filter>
</defs>
</svg>
