<svg width="33" height="33" viewBox="0 0 33 33" fill="none" xmlns="http://www.w3.org/2000/svg">
<path d="M16.0653 2.99341C15.8377 2.99341 15.6097 3.05236 15.4057 3.17006L4.49222 9.47436C4.29184 9.59012 4.12545 9.75656 4.00974 9.95697C3.89403 10.1574 3.83307 10.3847 3.83301 10.6161V23.225C3.83303 23.4564 3.894 23.6836 4.00976 23.8839C4.12553 24.0844 4.29199 24.2507 4.49243 24.3662L15.4058 30.6652C15.6061 30.781 15.8334 30.8418 16.0646 30.8418C16.296 30.8418 16.5231 30.781 16.7234 30.6652L27.6395 24.3662C27.8401 24.2505 28.0067 24.0843 28.1224 23.8838C28.2382 23.6834 28.2991 23.4559 28.299 23.2245V10.6165C28.299 10.3851 28.238 10.1578 28.1224 9.9574C28.0068 9.757 27.8405 9.59052 27.6402 9.47468L16.7241 3.17027C16.5237 3.05451 16.2968 2.99337 16.0653 2.99341ZM8.93026 8.38607C8.93026 8.38607 10.1939 11.9266 12.733 11.809L15.7064 10.0982C15.8178 10.0334 15.9435 9.99697 16.0724 9.99208H16.141C16.2696 9.99663 16.395 10.0331 16.506 10.0982L19.4791 11.809C22.0184 11.9263 23.2816 8.38607 23.2816 8.38607C23.8425 10.8679 23.3953 12.5279 22.6467 13.6321L23.1335 13.9123C23.3823 14.0545 23.5338 14.3191 23.5342 14.608L23.5213 24.8779C23.5215 24.9478 23.5031 25.0167 23.4683 25.0774C23.4333 25.1381 23.3831 25.1886 23.3225 25.2237C23.2621 25.26 23.1928 25.2793 23.1223 25.2793C23.0517 25.2793 22.9826 25.26 22.9222 25.2237L18.9842 22.9682C18.7366 22.822 18.5832 22.5588 18.5832 22.2736V17.4754C18.5834 17.3349 18.5464 17.1967 18.4761 17.0751C18.4058 16.9534 18.3045 16.8525 18.1825 16.7824L16.506 15.8167C16.3853 15.7455 16.2478 15.7081 16.1078 15.7084C15.9668 15.7081 15.8283 15.7455 15.7066 15.8167L14.0294 16.7824C13.7811 16.9243 13.6296 17.1896 13.6296 17.4757V22.2737C13.6296 22.5591 13.4782 22.8204 13.229 22.9683L9.28998 25.2235C9.23006 25.26 9.16128 25.2793 9.09115 25.2793C9.02102 25.2793 8.95224 25.26 8.89231 25.2235C8.76658 25.1539 8.69251 25.0214 8.69251 24.878L8.67783 14.6081C8.67764 14.4672 8.71459 14.3286 8.78496 14.2064C8.85535 14.0843 8.95667 13.9829 9.07871 13.9124L9.56546 13.6321C8.81707 12.5278 8.36912 10.8677 8.93026 8.38607Z" fill="#94E2D5"/>
</svg>
