<svg width="33" height="33" viewBox="0 0 33 33" fill="none" xmlns="http://www.w3.org/2000/svg">
<path fill-rule="evenodd" clip-rule="evenodd" d="M28.4503 6.14186C28.4503 5.40188 27.8505 4.802 27.1105 4.802H5.67274C4.93277 4.802 4.33289 5.40188 4.33289 6.14186V27.7136C4.33289 28.4536 4.93277 29.0534 5.67274 29.0534H27.1105C27.8505 29.0534 28.4503 28.4536 28.4503 27.7136V6.14186ZM16.3916 23.56C16.3916 24.3 15.7918 24.8999 15.0518 24.8999H9.69233C8.95234 24.8999 8.35247 24.3 8.35247 23.56V10.1615C8.35247 9.4215 8.95234 8.82163 9.69233 8.82163H23.0909C23.8309 8.82163 24.4308 9.4215 24.4308 10.1615V23.56C24.4308 24.3 23.8309 24.8999 23.0909 24.8999H21.751C21.011 24.8999 20.4112 24.3 20.4112 23.56V14.181C20.4112 13.4411 19.8113 12.8412 19.0713 12.8412H17.7315C16.9915 12.8412 16.3916 13.4411 16.3916 14.181V23.56Z" fill="#F38BA8"/>
</svg>
