<svg width="33" height="33" viewBox="0 0 33 33" fill="none" xmlns="http://www.w3.org/2000/svg">
<path d="M18.3402 25.6022H28.3018C28.6183 25.6022 28.929 25.5215 29.2031 25.368C29.4754 25.2163 29.7029 24.9955 29.8628 24.7279C30.0205 24.4636 30.1038 24.1614 30.1039 23.8537C30.1039 23.5467 30.0203 23.2454 29.862 22.9797L23.172 11.74C23.0122 11.4725 22.7847 11.2518 22.5124 11.1001C22.2371 10.9463 21.9269 10.8656 21.6114 10.8658C21.295 10.8658 20.9843 10.9466 20.7103 11.1001C20.4381 11.2518 20.2107 11.4725 20.0508 11.74L18.3402 14.6157L14.9958 8.99211C14.8357 8.72466 14.6082 8.50402 14.3359 8.35233C14.0605 8.19856 13.7501 8.11794 13.4346 8.11816C13.1183 8.11816 12.8074 8.19898 12.5334 8.35233C12.2611 8.50403 12.0336 8.72468 11.8736 8.99211L3.54857 22.9797C3.39061 23.2439 3.30706 23.5459 3.30676 23.8537C3.30676 24.1606 3.38977 24.4621 3.54794 24.7279C3.70784 24.9955 3.93534 25.2163 4.2076 25.368C4.48306 25.5218 4.79338 25.6024 5.10887 25.6022H11.3619C13.8395 25.6022 15.6666 24.5466 16.9237 22.4873L19.9761 17.3599L21.6108 14.6157L26.5175 22.8581H19.9761L18.3402 25.6022ZM11.2599 22.8555L6.89612 22.8544L13.4376 11.8652L16.7015 17.3599L14.5162 21.0323C13.6812 22.3686 12.7327 22.8555 11.2599 22.8555Z" fill="#A6E3A1"/>
</svg>
