<svg width="36" height="34" viewBox="0 0 36 34" fill="none" xmlns="http://www.w3.org/2000/svg">
<g filter="url(#filter0_d_2_710)">
<path d="M19.3402 25.6022H29.3018C29.6183 25.6022 29.929 25.5215 30.2031 25.368C30.4754 25.2163 30.7029 24.9955 30.8628 24.7279C31.0205 24.4636 31.1038 24.1614 31.1039 23.8537C31.1039 23.5467 31.0203 23.2454 30.862 22.9797L24.172 11.74C24.0122 11.4725 23.7847 11.2518 23.5124 11.1001C23.2371 10.9463 22.9269 10.8656 22.6114 10.8658C22.295 10.8658 21.9843 10.9466 21.7103 11.1001C21.4381 11.2518 21.2107 11.4725 21.0508 11.74L19.3402 14.6157L15.9958 8.99211C15.8357 8.72466 15.6082 8.50402 15.3359 8.35233C15.0605 8.19856 14.7501 8.11794 14.4346 8.11816C14.1183 8.11816 13.8074 8.19898 13.5334 8.35233C13.2611 8.50403 13.0336 8.72468 12.8736 8.99211L4.54857 22.9797C4.39061 23.2439 4.30706 23.5459 4.30676 23.8537C4.30676 24.1606 4.38977 24.4621 4.54794 24.7279C4.70784 24.9955 4.93534 25.2163 5.2076 25.368C5.48306 25.5218 5.79338 25.6024 6.10887 25.6022H12.3619C14.8395 25.6022 16.6666 24.5466 17.9237 22.4873L20.9761 17.3599L22.6108 14.6157L27.5175 22.8581H20.9761L19.3402 25.6022ZM12.2599 22.8555L7.89612 22.8544L14.4376 11.8652L17.7015 17.3599L15.5162 21.0323C14.6812 22.3686 13.7327 22.8555 12.2599 22.8555Z" fill="#A6E3A1"/>
</g>
<defs>
<filter id="filter0_d_2_710" x="-2.37354" y="0.782959" width="40.1566" height="40.1565" filterUnits="userSpaceOnUse" color-interpolation-filters="sRGB">
<feFlood flood-opacity="0" result="BackgroundImageFix"/>
<feColorMatrix in="SourceAlpha" type="matrix" values="0 0 0 0 0 0 0 0 0 0 0 0 0 0 0 0 0 0 127 0" result="hardAlpha"/>
<feOffset dy="4"/>
<feGaussianBlur stdDeviation="2"/>
<feComposite in2="hardAlpha" operator="out"/>
<feColorMatrix type="matrix" values="0 0 0 0 0 0 0 0 0 0 0 0 0 0 0 0 0 0 0.25 0"/>
<feBlend mode="normal" in2="BackgroundImageFix" result="effect1_dropShadow_2_710"/>
<feBlend mode="normal" in="SourceGraphic" in2="effect1_dropShadow_2_710" result="shape"/>
</filter>
</defs>
</svg>
