<svg width="33" height="33" viewBox="0 0 33 33" fill="none" xmlns="http://www.w3.org/2000/svg">
<path d="M7.84295 6.35132C7.44387 6.35116 7.04868 6.42962 6.67993 6.58223C6.31118 6.73485 5.97613 6.95861 5.69387 7.24074C5.41163 7.52289 5.18773 7.85787 5.03497 8.22656C4.88221 8.59523 4.80359 8.99041 4.80359 9.38949V14.1889C4.80359 15.0789 5.47457 15.3817 6.05956 14.7109C6.40275 14.3171 6.46536 13.8161 6.63516 13.4994C7.02411 12.7805 7.09154 12.2844 7.97542 12.2844C8.38725 12.2844 8.55101 12.3807 8.83039 12.754C9.02306 13.0141 9.35782 13.4946 9.51437 13.8161C9.695 14.1858 9.99123 14.6879 10.1201 14.7891C10.2164 14.8637 10.3127 14.9215 10.4006 14.954C10.5439 15.0071 10.6632 14.9096 10.7583 14.8336C10.8811 14.7348 10.9329 14.5361 11.0473 14.2712C11.2099 13.8895 11.3881 13.4319 11.4892 13.2718C11.665 12.9948 11.7241 12.6685 11.9131 12.5095C12.1925 12.2747 12.5573 12.2591 12.6573 12.2386C13.2184 12.1278 13.4725 12.5095 13.7495 12.7564C13.9301 12.9166 14.177 13.2417 14.3516 13.6776C14.4889 14.0184 14.6647 14.3327 14.7369 14.529C14.8079 14.7193 14.9814 15.0226 15.085 15.3876C15.1499 15.6195 15.2929 15.8137 15.4054 15.963C15.4873 16.0717 15.5481 16.196 15.6352 16.3006C15.7634 16.4545 16.0289 16.6897 16.5576 16.9121C16.7503 16.9928 17.1381 17.1239 17.3693 17.2084C17.7547 17.348 18.1279 17.3299 18.6036 17.2733C18.9419 17.2733 19.1261 16.782 19.2804 16.3894C19.3707 16.1571 19.4586 15.4923 19.5175 15.3032C19.5754 15.119 19.4405 14.9782 19.5549 14.8156C19.6897 14.6276 19.7693 14.6181 19.8463 14.3724C20.0125 13.8474 20.9734 13.8209 21.5128 13.8209C21.9633 13.8209 21.9066 14.258 22.6689 14.1087C23.1073 14.022 23.5286 14.1641 23.9934 14.2881C24.3836 14.3917 24.7522 14.5097 24.9713 14.7674C25.0914 14.9076 25.3585 15.5179 25.2302 15.7326C25.1977 15.7872 25.146 15.8778 25.1867 15.9265C25.2086 15.9527 25.2282 15.9909 25.2141 16.0219C25.1081 16.2555 24.7904 16.0557 24.6088 16.0174C24.3476 15.9632 24.1633 16.0258 23.9068 16.139C23.4697 16.3341 22.8303 16.3112 22.4498 16.6291C22.1391 16.8857 22.1264 17.4447 21.9946 17.7869C21.9825 17.8182 21.9694 17.8488 21.9561 17.8796C21.8646 18.0925 21.4438 18.9924 20.6434 19.5709C20.4099 19.7395 19.9523 20.1453 18.9576 20.2994C18.519 20.3625 18.0752 20.3799 17.633 20.3513C17.409 20.3404 17.1971 20.3295 16.9719 20.3271C16.8765 20.3254 16.6187 20.318 16.4905 20.3298C16.438 20.3346 16.4055 20.382 16.386 20.4309C16.3738 20.4614 16.3704 20.4947 16.376 20.5271L16.3963 20.6439C16.4144 20.7438 16.4192 20.8233 16.4228 20.9148C16.4301 21.1039 16.4072 21.3001 16.4168 21.4904C16.4372 21.8854 16.583 22.2454 16.6022 22.644C16.6227 23.0871 16.8418 23.5567 17.0538 23.9193C17.1344 24.0565 17.2573 24.0734 17.3102 24.2431C17.3729 24.437 17.3138 24.6442 17.344 24.8513C17.4644 25.6556 17.6956 26.4962 18.0569 27.2235C18.0621 27.2341 18.074 27.2392 18.0855 27.2372C18.5261 27.1612 18.9695 27.0031 19.5428 26.9188C20.6086 26.7599 22.0896 26.8418 23.0421 26.7527C24.8095 26.5865 25.9836 27.196 27.3385 27.3357C28.2655 27.4312 28.921 26.5823 28.921 25.6504V9.38949C28.921 8.58371 28.6009 7.81095 28.0312 7.24117C27.4614 6.67141 26.6887 6.35132 25.8829 6.35132H7.84295ZM6.75076 19.7708C6.73269 19.7708 6.71463 19.7708 6.69536 19.7744C6.5039 19.8046 6.31846 19.8708 6.19924 20.0635C6.1029 20.22 6.06919 20.4909 6.00176 20.6715C5.92469 20.8822 5.78982 21.0785 5.6718 21.2796C5.45505 21.6469 5.0649 21.9793 4.89631 22.3381C4.82406 22.4929 4.80479 22.6661 4.80479 22.8369V26.0299C4.80479 26.403 5.07538 26.7155 5.43579 26.8117C7.13008 27.2633 7.54312 27.3018 9.20489 27.1127C9.30261 27.0993 9.38709 27.0375 9.41389 26.9426C9.51571 26.5818 9.5983 25.8856 9.66851 25.6461C9.73353 25.4317 9.82144 25.2608 9.85515 25.044C9.88646 24.8356 9.85155 24.6381 9.83468 24.4503C9.78651 23.977 10.1779 23.8085 10.3645 23.4027C10.5331 23.0366 10.6294 22.6187 10.7691 22.243C10.8061 22.1428 10.8491 22.0309 10.8996 21.9176C11.0931 21.4835 11.0095 21.1503 10.5367 21.1014C10.3348 21.0834 10.1338 21.0552 9.93463 21.0172C9.55651 20.9401 9.14468 20.8654 8.77258 20.7763C8.3862 20.6634 8.00561 20.5317 7.63222 20.3813C7.27338 20.2151 7.02652 19.7829 6.75076 19.7708ZM13.6592 20.7702C12.7681 20.9498 12.4911 21.8251 12.0697 22.5175C11.8384 22.9017 11.5928 23.2281 11.4098 23.6351C11.2412 24.0108 11.2556 24.4262 10.9666 24.7477C10.6791 25.069 10.4624 25.4474 10.3308 25.8579C10.1594 26.358 10.7634 26.9495 11.2906 26.9121L11.4664 26.8997C12.7019 26.984 12.3454 27.4584 14.2745 27.3548L16.5605 27.2843C16.9384 27.2727 17.1975 26.8989 17.0453 26.5528C16.9611 26.3758 16.8527 26.0302 16.7829 25.8784C16.6773 25.657 16.5528 25.4451 16.4108 25.2451C16.1892 24.9861 16.1375 24.9681 16.0735 24.6393C15.9591 24.0698 15.6594 23.0378 15.3065 22.3237C15.1247 21.9552 14.8212 21.6469 14.543 21.3796C14.3022 21.1449 13.7543 20.7499 13.6592 20.7702Z" fill="#FAB387"/>
</svg>
