<svg width="33" height="33" viewBox="0 0 33 33" fill="none" xmlns="http://www.w3.org/2000/svg">
<path d="M28.4568 20.5755C26.5683 18.5562 21.4116 19.3788 20.1769 19.5286C18.3614 17.7333 17.1267 15.5641 16.6909 14.8161C17.3447 12.7968 17.7802 10.7771 17.8529 8.60828C17.8529 6.7381 17.1267 4.71875 15.0931 4.71875C14.3669 4.71875 13.7131 5.16749 13.35 5.76571C12.4784 7.33663 12.8415 10.4782 14.2216 13.6946C13.4227 16.0132 12.6961 18.2569 10.6626 22.2213C8.55648 23.1185 4.12611 25.2131 3.76291 27.4571C3.6177 28.1302 3.8355 28.8037 4.34391 29.327C4.85232 29.7757 5.50594 30.0001 6.15968 30.0001C8.8469 30.0001 11.4615 26.1858 13.2773 22.969C14.8024 22.4457 17.1994 21.6977 19.5961 21.2486C22.4285 23.7919 24.8979 24.1658 26.2052 24.1658C27.9484 24.1658 28.6019 23.4178 28.82 22.7447C29.1827 21.9967 28.965 21.1741 28.4568 20.5755ZM26.641 21.8472C26.5683 22.3708 25.9148 22.8941 24.7525 22.5952C23.3728 22.2213 22.1381 21.5479 21.0488 20.6504C21.9927 20.5006 24.099 20.2763 25.6241 20.5755C26.2052 20.725 26.7864 21.0992 26.641 21.8472ZM14.512 6.43883C14.6573 6.21446 14.8754 6.06498 15.0931 6.06498C15.7467 6.06498 15.892 6.88757 15.892 7.561C15.8193 9.13192 15.5286 10.7025 15.0204 12.1986C13.9308 9.20651 14.1489 7.11195 14.512 6.43883ZM14.3669 20.9497C14.9478 19.7529 15.747 17.6584 16.0374 16.7609C16.6909 17.8827 17.7802 19.2293 18.3614 19.8275C18.3614 19.9024 16.1098 20.3512 14.3669 20.9497ZM10.0817 23.9417C8.41127 26.7837 6.66809 28.579 5.72389 28.579C5.57868 28.579 5.43331 28.5041 5.2881 28.4295C5.07011 28.2797 4.99753 28.0553 5.07012 27.7561C5.28811 26.7091 7.1765 25.288 10.0817 23.9417Z" fill="#F38BA8"/>
</svg>
