<svg width="33" height="33" viewBox="0 0 33 33" fill="none" xmlns="http://www.w3.org/2000/svg">
<path d="M22.9258 9.44534C22.9262 9.44534 22.9265 9.4451 22.9265 9.44477L23.3962 6.88364C23.4682 6.4908 23.3015 6.08945 22.9576 5.88634C22.4112 5.56363 21.8398 5.28412 21.2494 5.05031C20.8776 4.90311 20.4579 5.01766 20.1917 5.31594L18.8319 6.83946C18.5997 7.09962 18.2492 7.21591 17.903 7.1741C17.2082 7.09021 16.5059 7.08569 15.81 7.16123C15.4632 7.19888 15.1139 7.07843 14.8847 6.81537L13.5398 5.27154C13.2777 4.97069 12.8604 4.85087 12.4875 4.99272C11.8931 5.2188 11.3174 5.49159 10.7655 5.80856C10.4192 6.00741 10.2475 6.40649 10.3145 6.80011L10.6573 8.81482C10.7158 9.15831 10.5883 9.50457 10.34 9.74895C9.84062 10.2402 9.3984 10.7867 9.02267 11.3789C8.83574 11.6736 8.52365 11.8716 8.17501 11.8866L6.1339 11.9745C5.73495 11.9917 5.38081 12.2435 5.25921 12.6239C5.06568 13.2292 4.92018 13.8487 4.82421 14.4769C4.76393 14.8716 4.96908 15.2545 5.31863 15.4473L7.10852 16.4348C7.41406 16.6033 7.60551 16.9195 7.64173 17.2665C7.71442 17.9629 7.86651 18.6486 8.09464 19.3109C8.20809 19.6403 8.16804 20.007 7.96282 20.2884L6.75797 21.941C6.52266 22.2637 6.49884 22.6977 6.7205 23.03C7.07303 23.5584 7.46655 24.0587 7.89704 24.5253C8.16781 24.8187 8.59513 24.8974 8.964 24.7445L10.8527 23.9618C11.1749 23.8282 11.5412 23.8757 11.8349 24.0637C12.425 24.4412 13.0567 24.7502 13.7167 24.9846C14.0453 25.1013 14.3073 25.3614 14.3994 25.6977L14.9396 27.6705C15.045 28.0555 15.369 28.3447 15.7667 28.3786C16.4 28.4325 17.0364 28.4359 17.6697 28.3897C18.0682 28.3607 18.3963 28.0754 18.5066 27.6914L19.0704 25.7284C19.1669 25.3927 19.4329 25.1356 19.7636 25.0231C20.4261 24.7978 21.0606 24.497 21.6544 24.1268C21.9508 23.9419 22.3184 23.8988 22.6394 24.0367L24.516 24.8432C24.8829 25.0009 25.3114 24.9277 25.5861 24.6377C26.0233 24.1761 26.4239 23.6805 26.783 23.1553C27.0078 22.8264 26.9889 22.3933 26.7583 22.0685L25.5737 20.3994C25.3721 20.1152 25.3367 19.748 25.4544 19.42C25.6908 18.7611 25.8521 18.0765 25.9341 17.3815C25.975 17.0354 26.1704 16.7221 26.4777 16.5576L28.2793 15.5931C28.6317 15.4045 28.8417 15.0235 28.7861 14.6277C28.6977 13.9986 28.5603 13.3769 28.3745 12.769C28.2577 12.3874 27.9069 12.1314 27.5084 12.1092L25.4682 11.9954C25.12 11.976 24.8106 11.7743 24.6275 11.4775C24.1618 10.7227 23.5889 10.0384 22.9254 9.44656C22.9249 9.44613 22.9252 9.44534 22.9258 9.44534Z" fill="#94E2D5"/>
<path d="M16.9872 23.8379C21.1993 23.8379 24.6138 20.4234 24.6138 16.2113C24.6138 11.9993 21.1993 8.58472 16.9872 8.58472C12.7751 8.58472 9.3606 11.9993 9.3606 16.2113C9.3606 20.4234 12.7751 23.8379 16.9872 23.8379Z" fill="#CCFBF1"/>
<path d="M11.5963 19.8015C13.5871 23.2455 17.6075 24.3959 16.646 17.2659C16.5709 16.7112 16.2682 16.2123 15.8104 15.8902C9.83798 11.6857 9.42382 16.0453 11.5963 19.8015ZM15.3308 17.8035C15.5005 17.7623 15.6312 17.835 15.6918 18.0045C16.4838 20.2231 15.0621 21.0295 14.0666 20.533C13.1536 20.0777 13.1536 18.3509 15.3308 17.8035ZM14.8126 16.4835C14.9289 16.6217 14.9265 16.7717 14.8053 16.8953C13.2456 18.5107 11.7489 17.6461 11.8094 16.6313C11.8748 15.522 13.2844 14.6913 14.8126 16.4835Z" fill="#94E2D5"/>
<path d="M15.6762 20.9208C16.5612 20.41 16.518 18.6782 15.5796 17.0529C14.6413 15.4277 13.1632 14.5245 12.2782 15.0354C11.3932 15.5464 11.4364 17.278 12.3747 18.9033C13.3131 20.5285 14.7912 21.4319 15.6762 20.9208Z" fill="#94E2D5"/>
<path d="M16.5739 9.74754C12.5971 9.74996 9.58909 12.6563 16.2445 15.3881C16.7628 15.6013 17.344 15.5867 17.8526 15.3518C24.4815 12.2833 20.9115 9.74269 16.5715 9.74512L16.5739 9.74754ZM16.4383 13.9811C16.3898 14.1482 16.2614 14.2257 16.0847 14.1942C13.7669 13.7703 13.779 12.1355 14.7067 11.5228C15.5567 10.9609 17.0534 11.8231 16.4383 13.9835V13.9811ZM17.8406 14.1918C17.6637 14.2233 17.5329 14.1482 17.487 13.9786C16.8669 11.8207 18.3637 10.9561 19.2138 11.5155C20.1414 12.1283 20.1584 13.7631 17.8406 14.1894V14.1918Z" fill="#94E2D5"/>
<path d="M16.9615 14.5721C18.8382 14.5721 20.3595 13.7436 20.3595 12.7217C20.3595 11.6998 18.8382 10.8713 16.9615 10.8713C15.0849 10.8713 13.5636 11.6998 13.5636 12.7217C13.5636 13.7436 15.0849 14.5721 16.9615 14.5721Z" fill="#94E2D5"/>
<path d="M22.7929 19.0874C24.7788 15.641 23.7665 11.5843 18.0701 15.9825C17.6269 16.3241 17.3459 16.8351 17.2976 17.3945C16.6412 24.6699 20.6252 22.8486 22.7929 19.0898V19.0874ZM19.1939 16.852C19.0729 16.726 19.0703 16.5758 19.1866 16.4402C20.7125 14.6456 22.122 15.4739 22.1898 16.5832C22.2528 17.6004 20.756 18.465 19.1939 16.852ZM18.31 17.9612C18.3705 17.7917 18.5013 17.719 18.6708 17.7602C20.8481 18.3028 20.8505 20.032 19.9399 20.4873C18.9469 20.9838 17.5228 20.182 18.31 17.9612Z" fill="#94E2D5"/>
<path d="M21.6229 18.8609C22.5612 17.2356 22.6043 15.5038 21.7194 14.993C20.8344 14.4819 19.3563 15.3853 18.418 17.0105C17.4797 18.6356 17.4364 20.3674 18.3215 20.8783C19.2065 21.3893 20.6845 20.486 21.6229 18.8609Z" fill="#94E2D5"/>
</svg>
