<svg width="34" height="33" viewBox="0 0 34 33" fill="none" xmlns="http://www.w3.org/2000/svg">
<path d="M27.6768 11.191C27.6768 11.9309 27.0769 12.5308 26.3369 12.5308H22.6279C21.8879 12.5308 21.2881 11.9309 21.2881 11.191V7.48195C21.2881 6.74196 21.8879 6.14209 22.6279 6.14209H26.3369C27.0769 6.14209 27.6768 6.74197 27.6768 7.48195V11.191Z" fill="#F9E2AF"/>
<path d="M20.1529 11.191C20.1529 11.9309 19.553 12.5308 18.813 12.5308H15.104C14.364 12.5308 13.7642 11.9309 13.7642 11.191V7.48195C13.7642 6.74196 14.364 6.14209 15.104 6.14209H18.813C19.553 6.14209 20.1529 6.74197 20.1529 7.48195V11.191Z" fill="#F9E2AF"/>
<path d="M12.629 11.191C12.629 11.9309 12.0291 12.5308 11.2891 12.5308H7.58009C6.8401 12.5308 6.24023 11.9309 6.24023 11.191V7.48195C6.24023 6.74196 6.84012 6.14209 7.58009 6.14209H11.2891C12.0291 6.14209 12.629 6.74197 12.629 7.48195V11.191Z" fill="#F9E2AF"/>
<path d="M27.6767 18.7154C27.6767 19.4553 27.0768 20.0553 26.3368 20.0553H22.6278C21.8878 20.0553 21.288 19.4553 21.288 18.7154V15.0063C21.288 14.2664 21.8878 13.6665 22.6278 13.6665H26.3368C27.0768 13.6665 27.6767 14.2664 27.6767 15.0063V18.7154Z" fill="#F9E2AF"/>
<path d="M20.1527 18.7154C20.1527 19.4553 19.5528 20.0553 18.8128 20.0553H15.1038C14.3638 20.0553 13.7639 19.4553 13.7639 18.7154V15.0063C13.7639 14.2664 14.3638 13.6665 15.1038 13.6665H18.8128C19.5528 13.6665 20.1527 14.2664 20.1527 15.0063V18.7154Z" fill="#7F849C"/>
<path d="M20.1527 26.2395C20.1527 26.9795 19.5528 27.5794 18.8128 27.5794H15.1038C14.3638 27.5794 13.7639 26.9795 13.7639 26.2395V22.5305C13.7639 21.7905 14.3638 21.1907 15.1038 21.1907H18.8128C19.5528 21.1907 20.1527 21.7905 20.1527 22.5305V26.2395Z" fill="#7F849C"/>
<path d="M27.6767 26.2395C27.6767 26.9795 27.0768 27.5794 26.3368 27.5794H22.6278C21.8878 27.5794 21.288 26.9795 21.288 26.2395V22.5305C21.288 21.7905 21.8878 21.1907 22.6278 21.1907H26.3368C27.0768 21.1907 27.6767 21.7905 27.6767 22.5305V26.2395Z" fill="#7F849C"/>
<path d="M12.629 26.2393C12.629 26.9793 12.0291 27.5791 11.2891 27.5791H7.58009C6.8401 27.5791 6.24023 26.9793 6.24023 26.2393V22.5303C6.24023 21.7903 6.84012 21.1904 7.58009 21.1904H11.2891C12.0291 21.1904 12.629 21.7903 12.629 22.5303V26.2393Z" fill="#7F849C"/>
</svg>
