<svg width="33" height="33" viewBox="0 0 33 33" fill="none" xmlns="http://www.w3.org/2000/svg">
<path d="M28.4615 17C28.4615 20.1825 27.1486 23.2348 24.8116 25.4852C22.4746 27.7357 19.3049 29 16 29C12.695 29 9.52533 27.7357 7.18834 25.4852C4.85136 23.2348 3.53845 20.1825 3.53845 17C3.53845 13.8174 4.85136 10.7652 7.18834 8.51471C9.52533 6.26428 12.695 5 16 5C19.3049 5 22.4746 6.26428 24.8116 8.51471C27.1486 10.7652 28.4615 13.8174 28.4615 17Z" stroke="#F38BA8" stroke-width="2.76923" stroke-linecap="round"/>
<path d="M24.4972 21.2556C25.461 23.0993 24.1235 25.3077 22.0431 25.3077H9.95689C7.87645 25.3077 6.53896 23.0994 7.50272 21.2556L13.5457 9.69495C14.5816 7.71311 17.418 7.71308 18.454 9.6949L24.4972 21.2556Z" stroke="#F38BA8" stroke-width="2.76923" stroke-linecap="square" stroke-linejoin="round"/>
<path d="M10.9231 5.92308L14.1538 5H16L15.3323 6.30495L18.7692 5.92308L24.3077 7.76923L28.4615 17L26.6154 23.4615L15.0067 6.94147L5.84614 24.8462L3.99999 21.1538L3.53845 13.3077L6.30768 9.15385L10.9231 5.92308Z" fill="#F38BA8"/>
<path d="M13.6923 28.5385C12.1538 27.6154 9.07691 25.6769 9.07691 25.3077L22.4615 26.2308L21.5385 28.0769L13.6923 28.5385Z" fill="#F38BA8"/>
</svg>
