<svg width="36" height="39" viewBox="0 0 36 39" fill="none" xmlns="http://www.w3.org/2000/svg">
<g filter="url(#filter0_d_2_745)">
<path d="M30.4615 17C30.4615 20.1825 29.1486 23.2348 26.8116 25.4852C24.4746 27.7357 21.3049 29 18 29C14.695 29 11.5253 27.7357 9.18834 25.4852C6.85136 23.2348 5.53845 20.1825 5.53845 17C5.53845 13.8174 6.85136 10.7652 9.18834 8.51471C11.5253 6.26428 14.695 5 18 5C21.3049 5 24.4746 6.26428 26.8116 8.51471C29.1486 10.7652 30.4615 13.8174 30.4615 17Z" stroke="#F38BA8" stroke-width="2.76923" stroke-linecap="round"/>
<path d="M26.4972 21.2556C27.461 23.0993 26.1235 25.3077 24.0431 25.3077H11.9569C9.87645 25.3077 8.53896 23.0994 9.50272 21.2556L15.5457 9.69495C16.5816 7.71311 19.418 7.71308 20.454 9.6949L26.4972 21.2556Z" stroke="#F38BA8" stroke-width="2.76923" stroke-linecap="square" stroke-linejoin="round"/>
<path d="M12.9231 5.92308L16.1538 5H18L17.3323 6.30495L20.7692 5.92308L26.3077 7.76923L30.4615 17L28.6154 23.4615L17.0067 6.94147L7.84614 24.8462L5.99999 21.1538L5.53845 13.3077L8.30768 9.15385L12.9231 5.92308Z" fill="#F38BA8"/>
<path d="M15.6923 28.5385C14.1538 27.6154 11.0769 25.6769 11.0769 25.3077L24.4615 26.2308L23.5385 28.0769L15.6923 28.5385Z" fill="#F38BA8"/>
</g>
<defs>
<filter id="filter0_d_2_745" x="-1.96411" y="0.782959" width="40.1566" height="40.1565" filterUnits="userSpaceOnUse" color-interpolation-filters="sRGB">
<feFlood flood-opacity="0" result="BackgroundImageFix"/>
<feColorMatrix in="SourceAlpha" type="matrix" values="0 0 0 0 0 0 0 0 0 0 0 0 0 0 0 0 0 0 127 0" result="hardAlpha"/>
<feOffset dy="4"/>
<feGaussianBlur stdDeviation="2"/>
<feComposite in2="hardAlpha" operator="out"/>
<feColorMatrix type="matrix" values="0 0 0 0 0 0 0 0 0 0 0 0 0 0 0 0 0 0 0.25 0"/>
<feBlend mode="normal" in2="BackgroundImageFix" result="effect1_dropShadow_2_745"/>
<feBlend mode="normal" in="SourceGraphic" in2="effect1_dropShadow_2_745" result="shape"/>
</filter>
</defs>
</svg>
