<svg width="33" height="33" viewBox="0 0 33 33" fill="none" xmlns="http://www.w3.org/2000/svg">
<path d="M12.9345 29.4351H5.00423C4.63926 29.4351 4.34338 29.731 4.34338 30.096C4.34338 30.4609 4.63926 30.7569 5.00423 30.7569H12.9345C13.2994 30.7569 13.5953 30.4609 13.5953 30.096C13.5953 29.731 13.2994 29.4351 12.9345 29.4351Z" fill="#F38BA8"/>
<path d="M12.9335 26.7908H10.2901C9.92515 26.7908 9.62927 27.0867 9.62927 27.4517C9.62927 27.8167 9.92515 28.1124 10.2901 28.1124H12.9335C13.2985 28.1124 13.5944 27.8167 13.5944 27.4517C13.5944 27.0867 13.2985 26.7908 12.9335 26.7908Z" fill="#F9E2AF"/>
<path d="M7.64765 26.7908H5.00423C4.63926 26.7908 4.34338 27.0867 4.34338 27.4517C4.34338 27.8167 4.63926 28.1124 5.00423 28.1124H7.64765C8.01263 28.1124 8.3085 27.8167 8.3085 27.4517C8.3085 27.0867 8.01263 26.7908 7.64765 26.7908Z" fill="#94E2D5"/>
<path d="M12.9345 24.1479H5.00423C4.63926 24.1479 4.34338 24.4439 4.34338 24.8088C4.34338 25.1738 4.63926 25.4697 5.00423 25.4697H12.9345C13.2994 25.4697 13.5953 25.1738 13.5953 24.8088C13.5953 24.4439 13.2994 24.1479 12.9345 24.1479Z" fill="#CBA6F7"/>
<path d="M20.8647 21.5034H8.96932C8.60435 21.5034 8.30847 21.7993 8.30847 22.1643C8.30847 22.5293 8.60435 22.8251 8.96932 22.8251H20.8647C21.2297 22.8251 21.5256 22.5293 21.5256 22.1643C21.5256 21.7993 21.2297 21.5034 20.8647 21.5034Z" fill="#F9E2AF"/>
<path d="M6.32594 21.5034H5.00423C4.63926 21.5034 4.34338 21.7993 4.34338 22.1643C4.34338 22.5293 4.63926 22.8251 5.00423 22.8251H6.32594C6.69092 22.8251 6.9868 22.5293 6.9868 22.1643C6.9868 21.7993 6.69092 21.5034 6.32594 21.5034Z" fill="#CBA6F7"/>
<path d="M24.829 18.8606H20.8639C20.4989 18.8606 20.203 19.1563 20.203 19.5213C20.203 19.8863 20.4989 20.1822 20.8639 20.1822H24.829C25.194 20.1822 25.4899 19.8863 25.4899 19.5213C25.4899 19.1563 25.194 18.8606 24.829 18.8606Z" fill="#CBA6F7"/>
<path d="M18.2212 18.8606H12.9344C12.5694 18.8606 12.2736 19.1563 12.2736 19.5213C12.2736 19.8863 12.5694 20.1822 12.9344 20.1822H18.2212C18.5862 20.1822 18.8821 19.8863 18.8821 19.5213C18.8821 19.1563 18.5862 18.8606 18.2212 18.8606Z" fill="#F38BA8"/>
<path d="M10.2911 18.8606H5.00423C4.63926 18.8606 4.34338 19.1563 4.34338 19.5213C4.34338 19.8863 4.63926 20.1822 5.00423 20.1822H10.2911C10.656 20.1822 10.9519 19.8863 10.9519 19.5213C10.9519 19.1563 10.656 18.8606 10.2911 18.8606Z" fill="#94E2D5"/>
<path d="M26.151 16.2168H15.5773C15.2123 16.2168 14.9164 16.5127 14.9164 16.8777C14.9164 17.2427 15.2123 17.5386 15.5773 17.5386H26.151C26.516 17.5386 26.8118 17.2427 26.8118 16.8777C26.8118 16.5127 26.516 16.2168 26.151 16.2168Z" fill="#94E2D5"/>
<path d="M12.9344 16.2168H8.96932C8.60435 16.2168 8.30847 16.5127 8.30847 16.8777C8.30847 17.2427 8.60435 17.5386 8.96932 17.5386H12.9344C13.2994 17.5386 13.5953 17.2427 13.5953 16.8777C13.5953 16.5127 13.2994 16.2168 12.9344 16.2168Z" fill="#F9E2AF"/>
<path d="M6.32594 16.2168H5.00423C4.63926 16.2168 4.34338 16.5127 4.34338 16.8777C4.34338 17.2427 4.63926 17.5386 5.00423 17.5386H6.32594C6.69092 17.5386 6.9868 17.2427 6.9868 16.8777C6.9868 16.5127 6.69092 16.2168 6.32594 16.2168Z" fill="#F38BA8"/>
<path d="M27.4724 13.574H20.8639C20.4989 13.574 20.203 13.8699 20.203 14.2347C20.203 14.5997 20.4989 14.8956 20.8639 14.8956H27.4724C27.8374 14.8956 28.1333 14.5997 28.1333 14.2347C28.1333 13.8699 27.8374 13.574 27.4724 13.574Z" fill="#F9E2AF"/>
<path d="M10.2911 13.574H5.00423C4.63926 13.574 4.34338 13.8699 4.34338 14.2347C4.34338 14.5997 4.63926 14.8956 5.00423 14.8956H10.2911C10.656 14.8956 10.9519 14.5997 10.9519 14.2347C10.9519 13.8699 10.656 13.574 10.2911 13.574Z" fill="#CBA6F7"/>
<path d="M27.4724 10.9299H20.8639C20.4989 10.9299 20.203 11.2258 20.203 11.5908C20.203 11.9558 20.4989 12.2516 20.8639 12.2516H27.4724C27.8374 12.2516 28.1333 11.9558 28.1333 11.5908C28.1333 11.2258 27.8374 10.9299 27.4724 10.9299Z" fill="#F38BA8"/>
<path d="M10.2911 10.9299H5.00423C4.63926 10.9299 4.34338 11.2258 4.34338 11.5908C4.34338 11.9558 4.63926 12.2516 5.00423 12.2516H10.2911C10.656 12.2516 10.9519 11.9558 10.9519 11.5908C10.9519 11.2258 10.656 10.9299 10.2911 10.9299Z" fill="#F9E2AF"/>
<path d="M26.1508 8.28711H24.829C24.464 8.28711 24.1681 8.58299 24.1681 8.94796C24.1681 9.31293 24.464 9.60881 24.829 9.60881H26.1508C26.5158 9.60881 26.8115 9.31293 26.8115 8.94796C26.8115 8.58299 26.5158 8.28711 26.1508 8.28711Z" fill="#94E2D5"/>
<path d="M22.186 8.28711H16.8993C16.5343 8.28711 16.2384 8.58299 16.2384 8.94796C16.2384 9.31293 16.5343 9.60881 16.8993 9.60881H22.186C22.551 9.60881 22.8469 9.31293 22.8469 8.94796C22.8469 8.58299 22.551 8.28711 22.186 8.28711Z" fill="#CBA6F7"/>
<path d="M14.2562 8.28711H5.00423C4.63926 8.28711 4.34338 8.58299 4.34338 8.94796C4.34338 9.31293 4.63926 9.60881 5.00423 9.60881H14.2562C14.6212 9.60881 14.917 9.31293 14.917 8.94796C14.917 8.58299 14.6212 8.28711 14.2562 8.28711Z" fill="#94E2D5"/>
<path d="M24.8292 5.64355H11.6121C11.2472 5.64355 10.9513 5.93942 10.9513 6.30441C10.9513 6.66938 11.2472 6.96526 11.6121 6.96526H24.8292C25.1942 6.96526 25.4901 6.66938 25.4901 6.30441C25.4901 5.93942 25.1942 5.64355 24.8292 5.64355Z" fill="#F9E2AF"/>
<path d="M8.96935 5.64355H5.00423C4.63926 5.64355 4.34338 5.93942 4.34338 6.30441C4.34338 6.66938 4.63926 6.96526 5.00423 6.96526H8.96935C9.33433 6.96526 9.6302 6.66938 9.6302 6.30441C9.6302 5.93942 9.33433 5.64355 8.96935 5.64355Z" fill="#F38BA8"/>
<path d="M20.8647 3H5.00423C4.63926 3 4.34338 3.29588 4.34338 3.66085C4.34338 4.02582 4.63926 4.3217 5.00423 4.3217H20.8647C21.2297 4.3217 21.5256 4.02582 21.5256 3.66085C21.5256 3.29588 21.2297 3 20.8647 3Z" fill="#94E2D5"/>
</svg>
