<svg width="33" height="37" viewBox="0 0 33 37" fill="none" xmlns="http://www.w3.org/2000/svg">
<g filter="url(#filter0_d_2_772)">
<path fill-rule="evenodd" clip-rule="evenodd" d="M6.13726 21.3558C5.88123 20.9689 5.87737 20.4758 6.12728 20.0851L15.5373 5.37508C16.0606 4.55691 17.3245 4.62846 17.7437 5.49997L26.3403 23.3709C26.6592 24.0339 26.292 24.814 25.5622 25.0238L12.1897 28.8684C11.6517 29.023 11.072 28.8159 10.7712 28.3612L6.13726 21.3558ZM16.623 9.67618C16.7137 9.24344 17.3324 9.18104 17.5151 9.5862L23.4448 22.7356C23.5564 22.9832 23.4175 23.2688 23.1478 23.3458L13.9085 25.9889C13.5689 26.0861 13.2436 25.8018 13.3134 25.4687L16.623 9.67618Z" fill="#94E2D5"/>
</g>
<defs>
<filter id="filter0_d_2_772" x="-3.65088" y="0.782959" width="40.1566" height="40.1565" filterUnits="userSpaceOnUse" color-interpolation-filters="sRGB">
<feFlood flood-opacity="0" result="BackgroundImageFix"/>
<feColorMatrix in="SourceAlpha" type="matrix" values="0 0 0 0 0 0 0 0 0 0 0 0 0 0 0 0 0 0 127 0" result="hardAlpha"/>
<feOffset dy="4"/>
<feGaussianBlur stdDeviation="2"/>
<feComposite in2="hardAlpha" operator="out"/>
<feColorMatrix type="matrix" values="0 0 0 0 0 0 0 0 0 0 0 0 0 0 0 0 0 0 0.25 0"/>
<feBlend mode="normal" in2="BackgroundImageFix" result="effect1_dropShadow_2_772"/>
<feBlend mode="normal" in="SourceGraphic" in2="effect1_dropShadow_2_772" result="shape"/>
</filter>
</defs>
</svg>
