<svg width="34" height="33" viewBox="0 0 34 33" fill="none" xmlns="http://www.w3.org/2000/svg">
<path d="M19.0256 3.72192C20.8178 3.72192 22.2705 5.17473 22.2705 6.96686C22.2701 7.35154 22.5818 7.66363 22.9665 7.66363H26.909C27.6347 7.66363 28.2229 8.25189 28.2229 8.97753L28.222 12.5436C28.2218 13.1133 27.7601 13.5752 27.1904 13.5756L26.2123 13.5762C24.4919 13.5762 23.0842 14.915 22.9742 16.6077L22.9673 16.8211V16.9008C22.9673 18.6212 24.3063 20.0288 25.9988 20.1388L26.2123 20.1457L27.189 20.145C27.7593 20.1446 28.2218 20.6067 28.222 21.177L28.2229 24.7482C28.2229 25.4738 27.6347 26.0621 26.909 26.0621L22.9639 26.0611C22.5807 26.061 22.2701 26.3718 22.2705 26.755C22.2705 28.5472 20.8178 30 19.0256 30C17.2335 30 15.7807 28.5472 15.7807 26.755C15.7805 26.3716 15.4695 26.061 15.0861 26.0611L11.1422 26.0621C10.4166 26.0621 9.8283 25.4738 9.8283 24.7482L9.82719 20.803C9.82708 20.4189 9.51562 20.1077 9.13155 20.1078C7.33941 20.1078 5.8866 18.6549 5.8866 16.8629C5.8866 15.0707 7.33941 13.6179 9.13155 13.6179C9.51583 13.6174 9.82708 13.3058 9.82719 12.9215L9.8283 8.97753C9.8283 8.25189 10.4166 7.66363 11.1422 7.66363H15.0835C15.4684 7.66363 15.7805 7.35174 15.7807 6.96686C15.7807 5.17473 17.2335 3.72192 19.0256 3.72192Z" fill="#89B4FA"/>
</svg>
