<svg width="33" height="33" viewBox="0 0 33 33" fill="none" xmlns="http://www.w3.org/2000/svg">
<path fill-rule="evenodd" clip-rule="evenodd" d="M17.9002 27.8838C17.0956 28.0326 16.1807 28.1178 15.2226 28.1225C14.2642 28.127 13.2656 28.0518 12.3028 27.8846C10.7812 27.6185 9.49988 26.429 9.49988 24.8442V19.2765C9.49988 19.2762 9.49991 19.2759 9.49997 19.2756C9.80862 17.8706 10.8533 16.7426 12.2305 16.3272L12.3022 16.3056C12.3026 16.3055 12.303 16.3054 12.3034 16.3054H17.9003H18.0556C20.0187 16.3054 21.563 14.6283 21.4013 12.6718V11C21.4013 10.4477 21.8491 10 22.4013 10H23.3283C24.9569 10 25.9084 11.2327 26.3068 12.9641C26.8441 15.289 26.8213 16.6806 26.3068 18.9074C25.8616 20.8498 24.4344 21.8715 22.8058 21.8715H20.703H15.4707C15.2656 21.8715 15.0993 22.0378 15.0993 22.2429C15.0993 22.448 15.2656 22.6143 15.4707 22.6143H19.703C20.2553 22.6143 20.703 23.062 20.703 23.6143V24.8434C20.703 26.5315 20.2725 27.4465 17.9002 27.8838ZM17.6647 24.0822C16.9518 24.0822 16.3738 24.6853 16.3738 25.4293C16.3738 26.1732 16.9518 26.7764 17.6647 26.7764C18.3777 26.7764 18.9557 26.1732 18.9557 25.4293C18.9557 24.6853 18.3777 24.0822 17.6647 24.0822Z" fill="#F9E2AF"/>
<path fill-rule="evenodd" clip-rule="evenodd" d="M12.6976 4.37137C13.5021 4.22267 14.417 4.1374 15.3751 4.13277C16.3335 4.12818 17.3321 4.20327 18.2949 4.3705C19.8166 4.63658 21.0978 5.82613 21.0978 7.41089V12.9791C21.0408 14.447 19.9603 15.6728 18.5113 15.9137L18.2952 15.9497C18.295 15.9497 18.2948 15.9497 18.2946 15.9497H12.701C12.6986 15.9497 12.6962 15.9499 12.6938 15.9503L12.5533 15.9745C10.7497 16.2849 9.37564 17.7621 9.19635 19.5834V21.2551C9.19635 21.8074 8.74863 22.2551 8.19635 22.2551H7.2694C5.64074 22.2551 4.68929 21.0224 4.29091 19.2911C3.75352 16.9661 3.7763 15.5746 4.29091 13.3477C4.73612 11.4053 6.16328 10.3837 7.79195 10.3837H9.89467H15.1271C15.3322 10.3837 15.4985 10.2174 15.4985 10.0122C15.4985 9.8071 15.3322 9.6408 15.1271 9.6408H10.8947C10.3424 9.6408 9.89467 9.19309 9.89467 8.6408V7.41176C9.89467 5.72362 10.3252 4.80867 12.6976 4.37137ZM12.9329 8.17379C13.6459 8.17379 14.2239 7.57068 14.2239 6.82671C14.2239 6.08274 13.6459 5.47965 12.9329 5.47965C12.22 5.47965 11.642 6.08274 11.642 6.82671C11.642 7.57068 12.22 8.17379 12.9329 8.17379Z" fill="#89B4FA"/>
</svg>
