<svg width="33" height="34" viewBox="0 0 33 34" fill="none" xmlns="http://www.w3.org/2000/svg">
<path fill-rule="evenodd" clip-rule="evenodd" d="M26.6045 17.6065C26.6045 18.3304 27.4399 18.5975 27.7131 17.9272C27.9899 17.2481 28.1377 16.5332 28.1377 15.7953C28.1377 11.335 22.7389 7.71924 16.079 7.71924C9.41916 7.71924 4.02026 11.335 4.02026 15.7953C4.02026 19.0375 6.87286 21.8333 10.9888 23.1188C11.8307 23.3817 12.6404 22.7161 12.6404 21.8342C12.6404 21.2735 12.3005 20.7758 11.8072 20.5093C9.9362 19.4985 8.75911 18.031 8.75911 16.3978C8.75911 13.3486 12.8627 10.8767 17.9248 10.8767C22.9868 10.8767 26.7226 12.5679 26.7226 16.3978C26.7226 16.7643 26.6884 17.1113 26.622 17.439C26.6109 17.4942 26.6045 17.5502 26.6045 17.6065Z" fill="#7F849C"/>
<path fill-rule="evenodd" clip-rule="evenodd" d="M23.5796 19.9327C23.3428 20.0244 23.3127 20.5474 23.5394 20.6621C23.6865 20.7366 23.9411 20.8852 24.1247 21.0801C24.2493 21.2125 24.3296 21.346 24.3673 21.4156C24.3847 21.448 24.4016 21.4806 24.4204 21.5123L26.3734 24.805C26.7687 25.4715 26.2886 26.3148 25.5137 26.3152L23.2204 26.3162C22.8508 26.3163 22.5111 26.1125 22.3374 25.7862L20.4545 22.2507C20.4486 22.2396 20.4427 22.2289 20.4363 22.2181C20.371 22.1075 19.9772 21.4503 19.7266 21.2473C19.4981 21.0624 19.4007 20.9965 19.1748 20.9965C19.1534 20.9965 19.1172 20.9965 19.0708 20.9965C18.5184 20.9965 18.0703 21.4443 18.0704 21.9967L18.0709 25.3138C18.071 25.866 17.6235 26.3138 17.0713 26.314L14.9577 26.3148C14.4052 26.315 13.9573 25.8673 13.9573 25.3148V13.7334C13.9573 13.1811 14.405 12.7334 14.9573 12.7334H22.2093C22.2153 12.7334 22.2199 12.7334 22.2259 12.7336C22.4121 12.7393 25.9809 12.8947 25.9809 16.3811C25.9809 18.5786 24.626 19.5275 23.5796 19.9327ZM20.6234 15.679C20.6051 15.679 20.587 15.6795 20.5687 15.6795L19.1059 15.6786C18.5535 15.6782 18.1055 16.1257 18.1052 16.6781L18.1051 16.9865C18.1048 17.5391 18.5528 17.9872 19.1054 17.987L20.5947 17.9865C20.5957 17.9865 20.5958 17.9865 20.5967 17.9865C20.6266 17.9862 21.75 17.9674 21.75 16.8117C21.75 15.7263 20.7977 15.6786 20.6234 15.679Z" fill="#89B4FA"/>
</svg>
