<svg width="37" height="39" viewBox="0 0 37 39" fill="none" xmlns="http://www.w3.org/2000/svg">
<g filter="url(#filter0_d_2_804)">
<path d="M18.5 20.15C19.9912 20.15 21.2 18.9412 21.2 17.45C21.2 15.9588 19.9912 14.75 18.5 14.75C17.0089 14.75 15.8 15.9588 15.8 17.45C15.8 18.9412 17.0089 20.15 18.5 20.15Z" fill="#74C7EC"/>
<path opacity="0.8" d="M18.5 23.525C25.9558 23.525 32 20.8051 32 17.45C32 14.0949 25.9558 11.375 18.5 11.375C11.0442 11.375 5 14.0949 5 17.45C5 20.8051 11.0442 23.525 18.5 23.525Z" stroke="#74C7EC" stroke-width="1.35"/>
<path opacity="0.9" d="M13.2389 20.4875C16.9668 26.9445 22.3444 30.8189 25.25 29.1414C28.1556 27.4638 27.489 20.8695 23.7611 14.4125C20.0332 7.95558 14.6556 4.08113 11.75 5.75869C8.84438 7.43626 9.51098 14.0306 13.2389 20.4875Z" stroke="#74C7EC" stroke-width="1.35"/>
<path opacity="0.6" d="M13.2389 14.4125C9.51098 20.8694 8.84438 27.4638 11.75 29.1413C14.6556 30.8189 20.0332 26.9444 23.7611 20.4875C27.489 14.0305 28.1556 7.43621 25.25 5.75864C22.3444 4.08108 16.9668 7.95553 13.2389 14.4125Z" stroke="#74C7EC" stroke-width="1.35"/>
</g>
<defs>
<filter id="filter0_d_2_804" x="-1.68677" y="0.939697" width="40.1566" height="40.1565" filterUnits="userSpaceOnUse" color-interpolation-filters="sRGB">
<feFlood flood-opacity="0" result="BackgroundImageFix"/>
<feColorMatrix in="SourceAlpha" type="matrix" values="0 0 0 0 0 0 0 0 0 0 0 0 0 0 0 0 0 0 127 0" result="hardAlpha"/>
<feOffset dy="4"/>
<feGaussianBlur stdDeviation="2"/>
<feComposite in2="hardAlpha" operator="out"/>
<feColorMatrix type="matrix" values="0 0 0 0 0 0 0 0 0 0 0 0 0 0 0 0 0 0 0.25 0"/>
<feBlend mode="normal" in2="BackgroundImageFix" result="effect1_dropShadow_2_804"/>
<feBlend mode="normal" in="SourceGraphic" in2="effect1_dropShadow_2_804" result="shape"/>
</filter>
</defs>
</svg>
