<svg width="33" height="34" viewBox="0 0 33 34" fill="none" xmlns="http://www.w3.org/2000/svg">
<path d="M16.5 20.15C17.9912 20.15 19.2 18.9412 19.2 17.45C19.2 15.9588 17.9912 14.75 16.5 14.75C15.0089 14.75 13.8 15.9588 13.8 17.45C13.8 18.9412 15.0089 20.15 16.5 20.15Z" fill="#74C7EC"/>
<path opacity="0.8" d="M16.5 23.525C23.9558 23.525 30 20.8051 30 17.45C30 14.0949 23.9558 11.375 16.5 11.375C9.04416 11.375 3 14.0949 3 17.45C3 20.8051 9.04416 23.525 16.5 23.525Z" stroke="#74C7EC" stroke-width="1.35"/>
<path opacity="0.9" d="M11.2389 20.4875C14.9668 26.9445 20.3444 30.8189 23.25 29.1414C26.1556 27.4638 25.489 20.8695 21.7611 14.4125C18.0332 7.95558 12.6556 4.08113 9.75 5.75869C6.84438 7.43626 7.51098 14.0306 11.2389 20.4875Z" stroke="#74C7EC" stroke-width="1.35"/>
<path opacity="0.6" d="M11.2389 14.4125C7.51098 20.8694 6.84438 27.4638 9.75 29.1413C12.6556 30.8189 18.0332 26.9444 21.7611 20.4875C25.489 14.0305 26.1556 7.43621 23.25 5.75864C20.3444 4.08108 14.9668 7.95553 11.2389 14.4125Z" stroke="#74C7EC" stroke-width="1.35"/>
</svg>
