<svg width="34" height="34" viewBox="0 0 34 34" fill="none" xmlns="http://www.w3.org/2000/svg">
<path d="M20.8473 22.3986C21.4176 21.5323 22.5103 20.969 23.0004 20.0549C23.1407 19.7931 23.216 19.4905 23.2052 19.1691C23.1747 18.2485 22.4073 17.5119 21.4866 17.5119H21.4253C20.4738 17.5425 19.7373 18.3406 19.7679 19.2919C19.8181 20.0442 20.0414 20.8921 19.6195 21.5171C18.5958 23.0336 17.1754 24.2213 15.2258 25.246C13.5992 26.1054 11.9113 26.4124 10.2233 26.1976C8.84222 26.0134 7.76804 25.3996 7.09275 24.3867C6.11073 22.8828 6.01868 21.2562 6.84734 19.6295C7.31228 18.6997 7.99175 17.9649 8.54366 17.4874C8.77065 17.2911 8.88722 17.0263 8.80691 16.7371C8.66826 16.2378 8.05155 15.9626 7.66471 16.3074C4.15459 19.4355 4.64088 23.335 5.89592 25.246C6.90867 26.7807 8.96496 27.7322 11.2361 27.7322C11.8498 27.7322 12.4636 27.6708 13.0775 27.5174C16.4305 26.8624 19.0905 25.0671 20.8473 22.3986ZM27.0723 17.1435C24.7399 14.412 21.3025 12.9081 17.3742 12.9081C17.0732 12.9081 16.8091 12.7258 16.6009 12.5085C16.2911 12.1852 15.8516 11.9873 15.3792 11.9873H15.3179C14.3666 12.018 13.63 12.816 13.6606 13.7675C13.6913 14.6882 14.4586 15.4249 15.3792 15.4249H15.4406C15.9191 15.403 16.3514 15.1809 16.65 14.8458C16.8727 14.5958 17.1621 14.3813 17.4969 14.3813C19.8294 14.3813 22.0391 15.0564 24.0341 16.3762C25.5685 17.3891 26.6734 18.7089 27.2871 20.3048C27.8088 21.5939 27.7782 22.8521 27.2257 23.9264C26.3665 25.553 24.924 26.4431 23.0213 26.4431C22.0508 26.4431 21.1187 26.2129 20.4676 25.98C20.1878 25.8799 19.9077 25.897 19.6798 26.0876C19.2412 26.4543 19.2784 27.1971 19.8207 27.3779C20.7533 27.6888 21.6875 27.8549 22.5916 27.8549C25.5378 27.8549 27.7168 26.2282 28.5455 24.6016C29.4356 22.8214 29.3741 19.7524 27.0723 17.1435ZM11.4816 21.471C11.5123 22.3918 12.2795 23.1283 13.2002 23.1283H13.2616C14.2131 23.0977 14.9495 22.2996 14.9189 21.3483C14.8883 20.4274 14.1209 19.6909 13.2002 19.6909H13.1389C13.0154 19.6909 12.8747 19.64 12.8128 19.5331C11.6351 17.498 11.1495 15.2897 11.3282 12.908C11.4509 11.0665 12.0647 9.47054 13.1389 8.15078C14.0289 7.01519 15.7476 6.46275 16.9138 6.43213C19.8547 6.3766 21.2656 9.68208 21.5774 11.519C21.6304 11.8309 21.809 12.0866 22.1128 12.1748C22.6008 12.3164 23.1317 11.9482 23.05 11.4467C22.3537 7.17037 19.5197 4.95898 16.791 4.95898C14.0289 4.95898 11.4816 6.95395 10.4687 9.90033C9.18389 13.4757 9.83104 16.9241 11.2534 19.7593C11.5084 20.2676 11.4301 20.9047 11.4816 21.471Z" fill="#A6E3A1"/>
</svg>
