<svg width="33" height="36" viewBox="0 0 33 36" fill="none" xmlns="http://www.w3.org/2000/svg">
<g filter="url(#filter0_d_2_819)">
<path d="M21.5141 20.9493C22.404 20.8572 23.0793 20.09 23.0485 19.1691C23.0179 18.2485 22.2506 17.5119 21.3298 17.5119H21.2686C20.317 17.5425 19.5805 18.3406 19.6112 19.2919C19.6419 19.7524 19.826 20.1512 20.1023 20.4275C19.0588 22.4839 17.4629 23.9878 15.0691 25.246C13.4425 26.1054 11.7545 26.4124 10.0666 26.1976C8.68548 26.0134 7.6113 25.3996 6.93601 24.3867C5.95399 22.8828 5.86194 21.2562 6.6906 19.6295C7.27375 18.4633 8.19437 17.6039 8.77751 17.1742C8.65475 16.7752 8.47058 16.1 8.37854 15.609C3.9284 18.8316 4.38879 23.1898 5.73918 25.246C6.75193 26.7807 8.80822 27.7322 11.0793 27.7322C11.6931 27.7322 12.3069 27.6708 12.9207 27.5174C16.8491 26.75 19.8261 24.4175 21.5141 20.9493ZM26.9156 17.1435C24.5832 14.412 21.1457 12.9081 17.2174 12.9081H16.7264C16.4502 12.3557 15.867 11.9873 15.2225 11.9873H15.1611C14.2098 12.018 13.4733 12.816 13.5039 13.7675C13.5346 14.6882 14.3019 15.4249 15.2225 15.4249H15.2839C15.959 15.3941 16.5423 14.9644 16.7877 14.3813H17.3401C19.6727 14.3813 21.8824 15.0564 23.8773 16.3762C25.4117 17.3891 26.5167 18.7089 27.1304 20.3048C27.6521 21.5939 27.6214 22.8521 27.069 23.9264C26.2097 25.553 24.7672 26.4431 22.8645 26.4431C21.6368 26.4431 20.4706 26.0748 19.8568 25.7985C19.5192 26.1054 18.9054 26.5965 18.4757 26.9035C19.7954 27.5172 21.1457 27.8549 22.4348 27.8549C25.381 27.8549 27.56 26.2282 28.3888 24.6016C29.2788 22.8214 29.2173 19.7524 26.9156 17.1435ZM11.3248 21.471C11.3555 22.3918 12.1228 23.1283 13.0435 23.1283H13.1049C14.0563 23.0977 14.7928 22.2996 14.7621 21.3483C14.7316 20.4274 13.9642 19.6909 13.0435 19.6909H12.9821C12.9207 19.6909 12.8286 19.6909 12.7674 19.7215C11.509 17.6344 10.9873 15.3634 11.1715 12.908C11.2941 11.0665 11.908 9.47054 12.9821 8.15078C13.8721 7.01519 15.5908 6.46275 16.757 6.43213C20.0102 6.3707 21.3912 10.422 21.4834 12.0487C21.8824 12.1407 22.5576 12.3556 23.0179 12.5091C22.6496 7.5371 19.5805 4.95898 16.6343 4.95898C13.8721 4.95898 11.3248 6.95395 10.312 9.90033C8.90027 13.8288 9.82097 17.6039 11.5396 20.5809C11.3862 20.7957 11.2941 21.1334 11.3248 21.471Z" fill="#CBA6F7"/>
</g>
<defs>
<filter id="filter0_d_2_819" x="-3.21704" y="0.939697" width="40.1566" height="40.1565" filterUnits="userSpaceOnUse" color-interpolation-filters="sRGB">
<feFlood flood-opacity="0" result="BackgroundImageFix"/>
<feColorMatrix in="SourceAlpha" type="matrix" values="0 0 0 0 0 0 0 0 0 0 0 0 0 0 0 0 0 0 127 0" result="hardAlpha"/>
<feOffset dy="4"/>
<feGaussianBlur stdDeviation="2"/>
<feComposite in2="hardAlpha" operator="out"/>
<feColorMatrix type="matrix" values="0 0 0 0 0 0 0 0 0 0 0 0 0 0 0 0 0 0 0.25 0"/>
<feBlend mode="normal" in2="BackgroundImageFix" result="effect1_dropShadow_2_819"/>
<feBlend mode="normal" in="SourceGraphic" in2="effect1_dropShadow_2_819" result="shape"/>
</filter>
</defs>
</svg>
