<svg width="33" height="36" viewBox="0 0 33 36" fill="none" xmlns="http://www.w3.org/2000/svg">
<g filter="url(#filter0_d_2_823)">
<path d="M20.0041 22.3986C20.5744 21.5323 21.6671 20.969 22.1571 20.0549C22.2975 19.7931 22.3727 19.4905 22.362 19.1691C22.3314 18.2485 21.5641 17.5119 20.6433 17.5119H20.5821C19.6305 17.5425 18.894 18.3406 18.9247 19.2919V19.2919C18.9748 20.0442 19.1982 20.8921 18.7763 21.5171C17.7525 23.0336 16.3322 24.2213 14.3826 25.246C12.7559 26.1054 11.068 26.4124 9.38005 26.1976C7.99895 26.0134 6.92478 25.3996 6.24949 24.3867C5.26747 22.8828 5.17542 21.2562 6.00408 19.6295C6.46902 18.6997 7.14849 17.9649 7.7004 17.4874C7.92738 17.2911 8.04396 17.0263 7.96365 16.7371V16.7371C7.82499 16.2378 7.20828 15.9626 6.82144 16.3074C3.31133 19.4355 3.79761 23.335 5.05266 25.246C6.06541 26.7807 8.1217 27.7322 10.3928 27.7322C11.0066 27.7322 11.6203 27.6708 12.2342 27.5174C15.5873 26.8624 18.2472 25.0671 20.0041 22.3986ZM26.2291 17.1435C23.8966 14.412 20.4592 12.9081 16.5309 12.9081V12.9081C16.2299 12.9081 15.9659 12.7258 15.7576 12.5085C15.4479 12.1852 15.0084 11.9873 14.536 11.9873H14.4746C13.5233 12.018 12.7867 12.816 12.8174 13.7675C12.8481 14.6882 13.6154 15.4249 14.536 15.4249H14.5973C15.0758 15.403 15.5081 15.1809 15.8067 14.8458C16.0295 14.5958 16.3189 14.3813 16.6536 14.3813V14.3813C18.9862 14.3813 21.1959 15.0564 23.1908 16.3762C24.7252 17.3891 25.8302 18.7089 26.4438 20.3048C26.9656 21.5939 26.9349 22.8521 26.3825 23.9264C25.5232 25.553 24.0807 26.4431 22.178 26.4431C21.2075 26.4431 20.2755 26.2129 19.6243 25.98C19.3445 25.8799 19.0645 25.897 18.8365 26.0876V26.0876C18.3979 26.4543 18.4351 27.1971 18.9775 27.3779C19.9101 27.6888 20.8443 27.8549 21.7483 27.8549C24.6945 27.8549 26.8735 26.2282 27.7022 24.6016C28.5923 22.8214 28.5308 19.7524 26.2291 17.1435ZM10.6383 21.471C10.669 22.3917 11.4363 23.1283 12.357 23.1283H12.4184C13.3698 23.0977 14.1063 22.2996 14.0756 21.3483C14.0451 20.4274 13.2777 19.6909 12.357 19.6909H12.2956V19.6909C12.1721 19.6909 12.0314 19.64 11.9695 19.5331C10.7918 17.498 10.3063 15.2897 10.4849 12.908C10.6076 11.0665 11.2215 9.47054 12.2956 8.15078C13.1856 7.01519 14.9043 6.46275 16.0705 6.43213C19.0114 6.3766 20.4223 9.68208 20.7342 11.519C20.7871 11.8309 20.9657 12.0866 21.2696 12.1748V12.1748C21.7575 12.3164 22.2884 11.9482 22.2067 11.4467C21.5104 7.17037 18.6764 4.95898 15.9478 4.95898C13.1856 4.95898 10.6383 6.95395 9.62546 9.90033C8.34063 13.4757 8.98778 16.9241 10.4101 19.7593C10.6651 20.2676 10.5868 20.9047 10.6383 21.471V21.471Z" fill="#F9E2AF"/>
</g>
<defs>
<filter id="filter0_d_2_823" x="-3.90381" y="0.939697" width="40.1566" height="40.1565" filterUnits="userSpaceOnUse" color-interpolation-filters="sRGB">
<feFlood flood-opacity="0" result="BackgroundImageFix"/>
<feColorMatrix in="SourceAlpha" type="matrix" values="0 0 0 0 0 0 0 0 0 0 0 0 0 0 0 0 0 0 127 0" result="hardAlpha"/>
<feOffset dy="4"/>
<feGaussianBlur stdDeviation="2"/>
<feComposite in2="hardAlpha" operator="out"/>
<feColorMatrix type="matrix" values="0 0 0 0 0 0 0 0 0 0 0 0 0 0 0 0 0 0 0.25 0"/>
<feBlend mode="normal" in2="BackgroundImageFix" result="effect1_dropShadow_2_823"/>
<feBlend mode="normal" in="SourceGraphic" in2="effect1_dropShadow_2_823" result="shape"/>
</filter>
</defs>
</svg>
