<svg width="33" height="34" viewBox="0 0 33 34" fill="none" xmlns="http://www.w3.org/2000/svg">
<path d="M20.3167 22.3986C20.887 21.5323 21.9797 20.969 22.4697 20.0549C22.6101 19.7931 22.6853 19.4905 22.6746 19.1691C22.644 18.2485 21.8767 17.5119 20.9559 17.5119H20.8947C19.9431 17.5425 19.2066 18.3406 19.2373 19.2919C19.2874 20.0442 19.5108 20.8921 19.0889 21.5171C18.0652 23.0336 16.6448 24.2213 14.6952 25.246C13.0686 26.1054 11.3806 26.4124 9.69268 26.1976C8.31158 26.0134 7.2374 25.3996 6.56211 24.3867C5.58009 22.8828 5.48804 21.2562 6.3167 19.6295C6.78164 18.6997 7.46111 17.9649 8.01303 17.4874C8.24001 17.2911 8.35658 17.0263 8.27627 16.7371C8.13762 16.2378 7.52091 15.9626 7.13407 16.3074C3.62395 19.4355 4.11024 23.335 5.36528 25.246C6.37803 26.7807 8.43432 27.7322 10.7054 27.7322C11.3192 27.7322 11.933 27.6708 12.5468 27.5174C15.8999 26.8624 18.5599 25.0671 20.3167 22.3986ZM26.5417 17.1435C24.2092 14.412 20.7718 12.9081 16.8435 12.9081C16.5426 12.9081 16.2785 12.7258 16.0703 12.5085C15.7605 12.1852 15.321 11.9873 14.8486 11.9873H14.7872C13.8359 12.018 13.0994 12.816 13.13 13.7675C13.1607 14.6882 13.928 15.4249 14.8486 15.4249H14.91C15.3884 15.403 15.8207 15.1809 16.1194 14.8458C16.3421 14.5958 16.6315 14.3813 16.9662 14.3813C19.2988 14.3813 21.5085 15.0564 23.5034 16.3762C25.0378 17.3891 26.1428 18.7089 26.7565 20.3048C27.2782 21.5939 27.2475 22.8521 26.6951 23.9264C25.8358 25.553 24.3933 26.4431 22.4906 26.4431C21.5201 26.4431 20.5881 26.2129 19.9369 25.98C19.6571 25.8799 19.3771 25.897 19.1491 26.0876C18.7106 26.4543 18.7477 27.1971 19.2901 27.3779C20.2227 27.6888 21.1569 27.8549 22.0609 27.8549C25.0071 27.8549 27.1861 26.2282 28.0149 24.6016C28.9049 22.8214 28.8434 19.7524 26.5417 17.1435ZM10.9509 21.471C10.9816 22.3918 11.7489 23.1283 12.6696 23.1283H12.731C13.6824 23.0977 14.4189 22.2996 14.3882 21.3483C14.3577 20.4274 13.5903 19.6909 12.6696 19.6909H12.6082C12.4847 19.6909 12.344 19.64 12.2821 19.5331C11.1044 17.498 10.6189 15.2897 10.7975 12.908C10.9202 11.0665 11.5341 9.47054 12.6082 8.15078C13.4982 7.01519 15.2169 6.46275 16.3831 6.43213C19.324 6.3766 20.7349 9.68208 21.0468 11.519C21.0998 11.8309 21.2783 12.0866 21.5822 12.1748C22.0701 12.3164 22.601 11.9482 22.5194 11.4467C21.8231 7.17037 18.989 4.95898 16.2604 4.95898C13.4982 4.95898 10.9509 6.95395 9.93808 9.90033C8.65325 13.4757 9.3004 16.9241 10.7228 19.7593C10.9777 20.2676 10.8994 20.9047 10.9509 21.471Z" fill="#F38BA8"/>
</svg>
