<svg width="33" height="34" viewBox="0 0 33 34" fill="none" xmlns="http://www.w3.org/2000/svg">
<path d="M12.2285 4.30347C8.83531 4.30347 7.13841 4.30379 5.9499 5.1688C5.56637 5.44663 5.22954 5.78378 4.95208 6.16759C4.08643 7.35577 4.08643 9.05203 4.08643 12.45V21.585C4.08643 24.9782 4.08643 26.6735 4.95144 27.8631C5.23006 28.2475 5.56693 28.5861 5.9499 28.8666C7.13809 29.7319 8.83531 29.7319 12.2285 29.7319H21.368C24.7612 29.7319 26.4565 29.7319 27.6459 28.8666C28.0295 28.585 28.3678 28.2465 28.6496 27.8631C29.5152 26.6751 29.5152 24.9786 29.5152 21.585V12.45C29.514 9.05203 29.514 7.35577 28.6496 6.16759C28.3691 5.78453 28.0306 5.44756 27.6463 5.1688C26.4581 4.30379 24.7619 4.30347 21.368 4.30347H12.2285ZM12.7372 5.72029H20.8593C23.8749 5.72029 25.3821 5.71996 26.4378 6.48851C26.7793 6.73622 27.08 7.03565 27.3292 7.37603C28.0971 8.43173 28.0971 9.93988 28.0984 12.9594V21.076C28.0984 24.0914 28.0984 25.5988 27.3292 26.6545C27.079 26.9951 26.7784 27.2955 26.4378 27.5457C25.3809 28.3145 23.8746 28.3151 20.8593 28.3151H12.7372C9.72187 28.3151 8.21469 28.3145 7.15867 27.5457C6.81832 27.2966 6.51888 26.9959 6.27115 26.6545C5.5026 25.5976 5.50325 24.0911 5.50325 21.076V12.9594C5.50325 9.93988 5.50228 8.43173 6.27115 7.37603C6.51795 7.03492 6.81755 6.73531 7.15867 6.48851C8.21469 5.71996 9.72187 5.72029 12.7372 5.72029Z" fill="#F38BA8"/>
<path d="M13.4689 10.472C12.5119 10.472 12.0302 10.472 11.6659 10.6566C11.3437 10.8216 11.0816 11.0837 10.9166 11.4058C10.7314 11.7708 10.7311 12.2519 10.7311 13.2134V21.5991C10.7311 22.3944 10.7317 22.7969 10.8613 23.1111C11.0349 23.5296 11.3674 23.8621 11.7858 24.0356C12.0997 24.1649 12.5023 24.1649 13.2972 24.1649C14.0976 24.1649 14.495 24.1649 14.8092 24.0356C15.2278 23.862 15.5602 23.5292 15.7337 23.1105C15.8629 22.7967 15.8629 22.3944 15.8629 21.5991V10.4717L13.4689 10.472ZM21.3189 10.5727C20.526 10.5842 19.7695 10.9073 19.2128 11.4722C18.6562 12.037 18.3442 12.7982 18.3442 13.5912C18.3442 14.3842 18.6562 15.1454 19.2128 15.7102C19.7695 16.275 20.526 16.5982 21.3189 16.6097H21.3228C22.1229 16.6092 22.8898 16.291 23.4552 15.7249C24.0205 15.1589 24.3379 14.3915 24.3375 13.5915C24.3375 13.1951 24.2595 12.8025 24.1079 12.4362C23.9562 12.0699 23.7338 11.7371 23.4535 11.4568C23.1732 11.1764 22.8405 10.954 22.4742 10.8023C22.108 10.6505 21.7154 10.5727 21.3189 10.5727Z" fill="#F38BA8"/>
</svg>
