<svg width="35" height="38" viewBox="0 0 35 38" fill="none" xmlns="http://www.w3.org/2000/svg">
<g filter="url(#filter0_d_2_829)">
<path d="M29.493 6.168C29.2124 5.78494 28.8739 5.44797 28.4897 5.16921C27.3018 4.3042 25.6052 4.3042 22.2114 4.3042H13.0715C9.67833 4.3042 7.98175 4.3042 6.79324 5.16921C6.40948 5.44699 6.07242 5.78415 5.79478 6.168C4.92944 7.35618 4.92944 9.05278 4.92944 12.4508V21.5858C4.92944 24.979 4.92944 26.6746 5.79446 27.864C6.0732 28.2484 6.41017 28.5869 6.79324 28.8673C7.98143 29.7327 9.67801 29.7327 13.0715 29.7327H22.2114C25.6046 29.7327 27.3001 29.7327 28.4897 28.8673C28.873 28.5858 29.2113 28.2475 29.493 27.864C30.3585 26.6762 30.3585 24.9793 30.3585 21.5858V12.4508C30.3573 9.05278 30.3573 7.35618 29.493 6.168ZM16.7059 21.5999C16.7059 22.3952 16.7059 22.7975 16.5766 23.1113C16.4029 23.53 16.0704 23.8625 15.6517 24.0362C15.3376 24.1655 14.9401 24.1655 14.1401 24.1655C13.3448 24.1655 12.9425 24.1655 12.6287 24.0362C12.2101 23.8627 11.8775 23.5301 11.7039 23.1117C11.5743 22.7975 11.5743 22.3952 11.5743 21.5999V13.2138C11.5743 12.2523 11.5743 11.7716 11.7595 11.4066C11.9244 11.0845 12.1864 10.8224 12.5084 10.6574C12.8728 10.4725 13.3545 10.4725 14.3115 10.4725H16.7062L16.7059 21.5999ZM22.1615 16.6108C21.5645 16.6108 20.9808 16.4338 20.4843 16.1021C19.9879 15.7703 19.6009 15.299 19.3725 14.7472C19.144 14.1956 19.0841 13.5887 19.2007 13.003C19.3171 12.4174 19.6047 11.8795 20.0269 11.4573C20.449 11.0351 20.987 10.7476 21.5725 10.6311C22.1582 10.5147 22.7651 10.5744 23.3167 10.8029C23.8684 11.0314 24.3399 11.4184 24.6716 11.9148C25.0034 12.4113 25.1804 12.9949 25.1804 13.592C25.1806 13.9882 25.1029 14.3805 24.9516 14.7467C24.8002 15.1127 24.5782 15.4455 24.2983 15.7258C24.0184 16.0061 23.686 16.2286 23.3201 16.3805C22.954 16.5323 22.5619 16.6105 22.1657 16.6108H22.1615Z" fill="#F38BA8"/>
</g>
<defs>
<filter id="filter0_d_2_829" x="-2.43396" y="0.939697" width="40.1566" height="40.1565" filterUnits="userSpaceOnUse" color-interpolation-filters="sRGB">
<feFlood flood-opacity="0" result="BackgroundImageFix"/>
<feColorMatrix in="SourceAlpha" type="matrix" values="0 0 0 0 0 0 0 0 0 0 0 0 0 0 0 0 0 0 127 0" result="hardAlpha"/>
<feOffset dy="4"/>
<feGaussianBlur stdDeviation="2"/>
<feComposite in2="hardAlpha" operator="out"/>
<feColorMatrix type="matrix" values="0 0 0 0 0 0 0 0 0 0 0 0 0 0 0 0 0 0 0.25 0"/>
<feBlend mode="normal" in2="BackgroundImageFix" result="effect1_dropShadow_2_829"/>
<feBlend mode="normal" in="SourceGraphic" in2="effect1_dropShadow_2_829" result="shape"/>
</filter>
</defs>
</svg>
