<svg width="34" height="34" viewBox="0 0 34 34" fill="none" xmlns="http://www.w3.org/2000/svg">
<rect x="16" y="5" width="2.5" height="7" rx="1.25" fill="#585B70"/>
<mask id="mask0_2_834" style="mask-type:alpha" maskUnits="userSpaceOnUse" x="4" y="9" width="26" height="19">
<rect x="4" y="9" width="26" height="19" rx="5" fill="#6C7086"/>
</mask>
<g mask="url(#mask0_2_834)">
<path d="M25.5 23C25.5 22.3724 25.3348 21.7834 25.0456 21.2741C27.0737 20.4322 28.5 18.4326 28.5 16.0999C28.5 13.0072 25.9929 10.5 22.9002 10.5C20.0692 10.5 17.7289 12.6007 17.353 15.3283C16.9771 12.6007 14.6368 10.5 11.8058 10.5C8.71309 10.5 6.20593 13.0072 6.20593 16.0999C6.20593 18.5245 7.7469 20.5893 9.9029 21.3682C9.64564 21.8554 9.5 22.4107 9.5 23C9.5 24.933 11.067 26.5 13 26.5H22C23.933 26.5 25.5 24.933 25.5 23ZM16.2557 19.5C16.8294 18.7503 17.218 17.8513 17.353 16.8714C17.488 17.8513 17.8766 18.7503 18.4503 19.5H16.2557Z" stroke="#6C7086" stroke-width="5"/>
<path d="M5.20593 16.0999C5.20593 18.5968 6.59251 20.7698 8.63767 21.8911C8.54777 22.2458 8.5 22.6173 8.5 23C8.5 25.4853 10.5147 27.5 13 27.5H22C24.4853 27.5 26.5 25.4853 26.5 23C26.5 22.5642 26.438 22.1428 26.3225 21.7443C28.2275 20.5867 29.5 18.4919 29.5 16.0999C29.5 12.4549 26.5452 9.5 22.9002 9.5C20.5736 9.5 18.5283 10.7038 17.353 12.5225C16.1777 10.7038 14.1323 9.5 11.8058 9.5C8.1608 9.5 5.20593 12.4549 5.20593 16.0999Z" stroke="#6C7086" stroke-width="7"/>
<path d="M4.70593 16.0999C4.70593 18.6519 6.05234 20.8894 8.07354 22.1408C8.0252 22.4199 8 22.707 8 23C8 25.7614 10.2386 28 13 28H22C24.7614 28 27 25.7614 27 23C27 22.6472 26.9635 22.303 26.894 21.9708C28.769 20.6928 30 18.5401 30 16.0999C30 12.1787 26.8213 9 22.9002 9C20.6554 9 18.654 10.0417 17.353 11.6681C16.0519 10.0417 14.0505 9 11.8058 9C7.88466 9 4.70593 12.1787 4.70593 16.0999Z" stroke="#6C7086" stroke-width="8"/>
</g>
</svg>
