<svg width="33" height="34" viewBox="0 0 33 34" fill="none" xmlns="http://www.w3.org/2000/svg">
<path d="M13.335 8.55106C13.4973 8.89126 13.3559 9.2995 13.0157 9.46175C12.9948 9.47221 12.9739 9.48269 12.9529 9.49315C9.50907 10.7231 7.05441 13.9053 7.05441 17.6369C7.05441 18.0185 6.7451 18.3279 6.36355 18.3279H3.86178C3.48311 18.3279 3.17615 18.0209 3.17615 17.6422C3.17615 12.3508 6.61477 7.83926 11.4665 6.04406C11.791 5.92369 12.1574 6.07023 12.3092 6.39473L13.335 8.55106ZM3.17615 20.9709C3.17615 20.2309 3.77603 19.631 4.51601 19.631H5.71455C6.45454 19.631 7.05441 20.2309 7.05441 20.9709V28.7275C7.05441 29.4675 6.45454 30.0673 5.71455 30.0673H4.51601C3.77603 30.0673 3.17615 29.4675 3.17615 28.7275V20.9709ZM29.0521 17.6422C29.0521 18.0209 28.7451 18.3279 28.3665 18.3279H25.8595C25.4808 18.3279 25.1739 18.0209 25.1739 17.6422C25.1739 13.9053 22.7193 10.7231 19.2754 9.49315C19.1079 9.43034 18.9666 9.30473 18.8881 9.14248C18.8209 8.99375 18.8065 8.82302 18.853 8.66256C18.8614 8.63351 18.8682 8.60333 18.8796 8.57527C18.8859 8.55935 18.8918 8.54326 18.8992 8.52777L19.9139 6.38949C20.0657 6.07023 20.4321 5.92369 20.7565 6.04406C25.6135 7.83926 29.0521 12.3508 29.0521 17.6422ZM25.1739 20.9709C25.1739 20.2309 25.7737 19.631 26.5137 19.631H27.7124C28.4522 19.631 29.0521 20.2309 29.0521 20.9709V28.7275C29.0521 29.4675 28.4522 30.0673 27.7124 30.0673H26.5137C25.7737 30.0673 25.1739 29.4675 25.1739 28.7275V20.9709Z" fill="#7F849C"/>
<path d="M18.5783 4.14462C18.7929 4.17601 18.9813 4.30163 19.0807 4.49528C19.1855 4.68894 19.1907 4.91922 19.1018 5.11811L18.9132 5.50541L17.474 8.5515C17.3536 8.80272 17.092 8.9545 16.8145 8.9388C16.5843 8.92833 16.3487 8.92309 16.1132 8.92309C15.8777 8.92309 15.6421 8.92833 15.4119 8.9388C15.1344 8.9545 14.8728 8.80272 14.7524 8.5515L13.3131 5.50541L13.1247 5.11811C12.9677 4.77268 13.109 4.36444 13.4544 4.20218C13.512 4.17601 13.5801 4.15509 13.6481 4.14462C15.2862 3.91957 16.9402 3.91957 18.5783 4.14462ZM23.875 17.6426V30.0625H19.9966V17.6426C19.9966 15.5805 18.2539 13.9109 16.1132 13.9109C13.9725 13.9109 12.2297 15.5805 12.2297 17.6426V30.0625H8.35144V17.6426C8.35144 13.5236 11.8267 10.1844 16.1132 10.1844C20.3997 10.1844 23.875 13.5236 23.875 17.6426Z" fill="#F9E2AF"/>
</svg>
