<svg width="35" height="39" viewBox="0 0 35 39" fill="none" xmlns="http://www.w3.org/2000/svg">
<g filter="url(#filter0_d_2_836)">
<path d="M14.335 8.55106C14.4973 8.89126 14.3559 9.2995 14.0157 9.46175C13.9948 9.47221 13.9739 9.48269 13.9529 9.49315C10.5091 10.7231 8.05441 13.9053 8.05441 17.6369C8.05441 18.0185 7.7451 18.3279 7.36355 18.3279H4.86178C4.48311 18.3279 4.17615 18.0209 4.17615 17.6422C4.17615 12.3508 7.61477 7.83926 12.4665 6.04406C12.791 5.92369 13.1574 6.07023 13.3092 6.39473L14.335 8.55106ZM4.17615 20.9709C4.17615 20.2309 4.77603 19.631 5.51601 19.631H6.71455C7.45454 19.631 8.05441 20.2309 8.05441 20.9709V28.7275C8.05441 29.4675 7.45454 30.0673 6.71455 30.0673H5.51601C4.77603 30.0673 4.17615 29.4675 4.17615 28.7275V20.9709ZM30.0521 17.6422C30.0521 18.0209 29.7451 18.3279 29.3665 18.3279H26.8595C26.4808 18.3279 26.1739 18.0209 26.1739 17.6422C26.1739 13.9053 23.7193 10.7231 20.2754 9.49315C20.1079 9.43034 19.9666 9.30473 19.8881 9.14248C19.8209 8.99375 19.8065 8.82302 19.853 8.66256C19.8614 8.63351 19.8682 8.60333 19.8796 8.57527C19.8859 8.55935 19.8918 8.54326 19.8992 8.52777L20.9139 6.38949C21.0657 6.07023 21.4321 5.92369 21.7565 6.04406C26.6135 7.83926 30.0521 12.3508 30.0521 17.6422ZM26.1739 20.9709C26.1739 20.2309 26.7737 19.631 27.5137 19.631H28.7124C29.4522 19.631 30.0521 20.2309 30.0521 20.9709V28.7275C30.0521 29.4675 29.4522 30.0673 28.7124 30.0673H27.5137C26.7737 30.0673 26.1739 29.4675 26.1739 28.7275V20.9709Z" fill="#7F849C"/>
<path d="M19.5783 4.14462C19.7929 4.17601 19.9813 4.30163 20.0807 4.49528C20.1855 4.68894 20.1907 4.91922 20.1018 5.11811L19.9132 5.50541L18.474 8.5515C18.3536 8.80272 18.092 8.9545 17.8145 8.9388C17.5843 8.92833 17.3487 8.92309 17.1132 8.92309C16.8777 8.92309 16.6421 8.92833 16.4119 8.9388C16.1344 8.9545 15.8728 8.80272 15.7524 8.5515L14.3131 5.50541L14.1247 5.11811C13.9677 4.77268 14.109 4.36444 14.4544 4.20218C14.512 4.17601 14.5801 4.15509 14.6481 4.14462C16.2862 3.91957 17.9402 3.91957 19.5783 4.14462ZM24.875 17.6426V30.0625H20.9966V17.6426C20.9966 15.5805 19.2539 13.9109 17.1132 13.9109C14.9725 13.9109 13.2297 15.5805 13.2297 17.6426V30.0625H9.35144V17.6426C9.35144 13.5236 12.8267 10.1844 17.1132 10.1844C21.3997 10.1844 24.875 13.5236 24.875 17.6426Z" fill="#F9E2AF"/>
</g>
<defs>
<filter id="filter0_d_2_836" x="-2.96411" y="0.939697" width="40.1566" height="40.1565" filterUnits="userSpaceOnUse" color-interpolation-filters="sRGB">
<feFlood flood-opacity="0" result="BackgroundImageFix"/>
<feColorMatrix in="SourceAlpha" type="matrix" values="0 0 0 0 0 0 0 0 0 0 0 0 0 0 0 0 0 0 127 0" result="hardAlpha"/>
<feOffset dy="4"/>
<feGaussianBlur stdDeviation="2"/>
<feComposite in2="hardAlpha" operator="out"/>
<feColorMatrix type="matrix" values="0 0 0 0 0 0 0 0 0 0 0 0 0 0 0 0 0 0 0.25 0"/>
<feBlend mode="normal" in2="BackgroundImageFix" result="effect1_dropShadow_2_836"/>
<feBlend mode="normal" in="SourceGraphic" in2="effect1_dropShadow_2_836" result="shape"/>
</filter>
</defs>
</svg>
