<svg width="35" height="37" viewBox="0 0 35 37" fill="none" xmlns="http://www.w3.org/2000/svg">
<g filter="url(#filter0_d_2_839)">
<path d="M10.4437 6.15679H24.114C24.7418 6.15679 25.3183 6.50365 25.6123 7.05835L29.253 13.927C29.5826 14.5489 29.4938 15.3097 29.0298 15.839L18.5916 27.7456C17.9295 28.5009 16.7597 28.5184 16.0753 27.7832L5.01815 15.9058C4.50124 15.3505 4.41602 14.5195 4.80948 13.8709L8.99386 6.97301C9.30127 6.46626 9.85096 6.15679 10.4437 6.15679Z" fill="#EBA0AC" fill-opacity="0.15" stroke="#F38BA8" stroke-width="1.13047"/>
<mask id="mask0_2_839" style="mask-type:alpha" maskUnits="userSpaceOnUse" x="3" y="5" width="28" height="24">
<path d="M26.1117 6.79364C25.7197 6.05404 24.9511 5.59155 24.114 5.59155H10.4437C9.65339 5.59155 8.92047 6.00418 8.51059 6.67985L4.32621 13.5777C3.8016 14.4425 3.91522 15.5506 4.60444 16.2909L15.6616 28.1684C16.5741 29.1485 18.1338 29.1252 19.0166 28.1183L29.4549 16.2116C30.0735 15.5059 30.1919 14.4914 29.7524 13.6623L26.1117 6.79364Z" fill="#BAC2DE"/>
</mask>
<g mask="url(#mask0_2_839)">
<path d="M17.7103 4.10913L11.9619 14.0787C11.6267 14.6602 11.5671 15.3605 11.7993 15.9902L17.7183 32.0452" stroke="#F38BA8" stroke-width="1.13047" stroke-linecap="round" stroke-linejoin="round"/>
<path d="M15.9484 4.12256L21.7141 14.0996C22.0498 14.6806 22.1102 15.3807 21.8787 16.0106L15.9747 32.0794" stroke="#F38BA8" stroke-width="1.13047" stroke-linecap="round" stroke-linejoin="round"/>
</g>
<path d="M5.28364 14.9971H28.7312H4.74573" stroke="#F38BA8" stroke-width="1.13047" stroke-linejoin="round"/>
</g>
<defs>
<filter id="filter0_d_2_839" x="-2.8075" y="0.939697" width="40.1566" height="40.1565" filterUnits="userSpaceOnUse" color-interpolation-filters="sRGB">
<feFlood flood-opacity="0" result="BackgroundImageFix"/>
<feColorMatrix in="SourceAlpha" type="matrix" values="0 0 0 0 0 0 0 0 0 0 0 0 0 0 0 0 0 0 127 0" result="hardAlpha"/>
<feOffset dy="4"/>
<feGaussianBlur stdDeviation="2"/>
<feComposite in2="hardAlpha" operator="out"/>
<feColorMatrix type="matrix" values="0 0 0 0 0 0 0 0 0 0 0 0 0 0 0 0 0 0 0.25 0"/>
<feBlend mode="normal" in2="BackgroundImageFix" result="effect1_dropShadow_2_839"/>
<feBlend mode="normal" in="SourceGraphic" in2="effect1_dropShadow_2_839" result="shape"/>
</filter>
</defs>
</svg>
