<svg width="34" height="34" viewBox="0 0 34 34" fill="none" xmlns="http://www.w3.org/2000/svg">
<path fill-rule="evenodd" clip-rule="evenodd" d="M9.03772 13.9341C9.24809 14.2241 11.022 14.7711 13.6681 15.3407C16.3142 15.848 19.0661 17.8504 21.2062 17.233C22.6537 16.8145 24.2242 13.0858 24.2242 12.5321V12.4752C24.2242 12.0886 23.9341 11.7781 23.4418 11.52C21.4233 10.4886 21.0414 10.1088 20.293 10.3146C16.4087 11.387 9.55058 10.8389 9.03772 13.9341Z" fill="#7F849C"/>
<path fill-rule="evenodd" clip-rule="evenodd" d="M9.03772 21.5054C9.24809 21.7999 11.022 22.3424 13.6681 22.9132C16.6246 23.4522 19.1957 25.209 21.3369 24.5904C22.7845 24.172 24.2242 20.6583 24.2242 20.1034V20.0488C24.2242 19.6632 23.9341 19.3517 23.4418 19.0947C21.9021 18.2759 19.8678 17.3742 19.1207 17.58C15.2294 18.6502 10.0282 18.8854 9.03772 21.5054Z" fill="#7F849C"/>
<path fill-rule="evenodd" clip-rule="evenodd" d="M21.3308 6.42369C18.4345 7.26058 14.1628 7.80228 11.0186 7.9782C9.91578 8.0399 9.02026 8.93613 9.02026 10.0407V13.8799C9.02208 13.9178 9.06115 13.9345 9.09908 13.9343C11.2439 13.9222 17.6053 13.2426 21.4571 12.1833C22.1349 12.0107 22.7996 11.79 23.4459 11.5226C23.9212 11.3088 24.2283 11.0837 24.2283 10.8494V4.96021C24.2237 5.51512 22.7784 6.00637 21.3308 6.42369Z" fill="#F38BA8"/>
<path fill-rule="evenodd" clip-rule="evenodd" d="M21.3308 13.9967C19.1896 14.6142 16.3002 15.0736 13.6677 15.342C12.7378 15.4371 11.84 15.5083 11.0189 15.5544C9.91609 15.6163 9.02026 16.5125 9.02026 17.6171V21.4517C9.02208 21.4896 9.06113 21.5063 9.09903 21.5061C11.2438 21.494 17.6052 20.8144 21.4571 19.7563C22.1348 19.5832 22.7993 19.3625 23.4459 19.0956C23.9212 18.8807 24.2283 18.6567 24.2283 18.4225V12.5332C24.2237 13.087 22.7784 13.5782 21.3308 13.9967Z" fill="#F38BA8"/>
<path fill-rule="evenodd" clip-rule="evenodd" d="M21.3314 21.5717C19.1902 22.1892 16.3008 22.6475 13.6683 22.9169C12.7366 23.0121 11.8372 23.0834 11.0149 23.1295C9.91206 23.1913 9.01624 24.0875 9.01624 25.1921V27.0768C9.01624 28.1813 9.91063 29.063 11.0118 28.9763C13.8767 28.7506 18.4369 28.1575 21.4531 27.3268C22.8893 26.931 24.2243 26.4807 24.2243 25.9918V20.1025C24.2243 20.6621 22.779 21.1487 21.3314 21.5717Z" fill="#F38BA8"/>
</svg>
