<svg width="33" height="34" viewBox="0 0 33 34" fill="none" xmlns="http://www.w3.org/2000/svg">
<path d="M11.6472 11.6676C12.0753 11.6676 12.4558 11.3952 12.5938 10.9901L13.311 8.88497C13.532 8.23625 13.0497 7.5625 12.3644 7.5625H5.52502C4.97274 7.5625 4.52502 8.01022 4.52502 8.5625V10.6676C4.52502 11.2199 4.97274 11.6676 5.52502 11.6676H11.6472ZM27.6425 11.6676C28.1948 11.6676 28.6425 11.2199 28.6425 10.6676V8.5625C28.6425 8.01022 28.1948 7.5625 27.6425 7.5625H18.8969C18.4633 7.5625 18.0792 7.84193 17.9456 8.25444L17.2639 10.3595C17.0548 11.0055 17.5363 11.6676 18.2153 11.6676H27.6425ZM9.22107 18.8515C9.66276 18.8515 10.0521 18.5617 10.179 18.1386L10.81 16.0336C11.0023 15.392 10.5219 14.7464 9.85208 14.7464H5.52502C4.97274 14.7464 4.52502 15.1941 4.52502 15.7464V17.8515C4.52502 18.4038 4.97274 18.8515 5.52502 18.8515H9.22107ZM27.6425 18.8515C28.1948 18.8515 28.6425 18.4038 28.6425 17.8515V15.7464C28.6425 15.1941 28.1948 14.7464 27.6425 14.7464H16.2626C15.8222 14.7464 15.4337 15.0345 15.3057 15.4559L14.6665 17.5609C14.4715 18.2032 14.9521 18.8515 15.6234 18.8515H27.6425ZM6.66516 26.5486C7.10782 26.5486 7.49782 26.2575 7.6238 25.8332L8.24875 23.7281C8.43905 23.0871 7.95877 22.4435 7.2901 22.4435H5.52502C4.97274 22.4435 4.52502 22.8912 4.52502 23.4435V25.5486C4.52502 26.1009 4.97274 26.5486 5.52502 26.5486H6.66516ZM27.6425 26.5486C28.1948 26.5486 28.6425 26.1009 28.6425 25.5486V23.4435C28.6425 22.8912 28.1948 22.4435 27.6425 22.4435H13.7768C13.3443 22.4435 12.9609 22.7215 12.8264 23.1326L12.1378 25.2377C11.9263 25.8842 12.408 26.5486 13.0882 26.5486H27.6425Z" fill="#F38BA8"/>
</svg>
