<svg width="33" height="33" viewBox="0 0 33 33" fill="none" xmlns="http://www.w3.org/2000/svg">
<path fill-rule="evenodd" clip-rule="evenodd" d="M17.2146 28.1708C17.2151 28.1708 17.2155 28.1705 17.2157 28.17C19.8912 18.5432 19.8852 18.2516 21.7174 11.7309C21.7929 11.4618 22.103 11.3338 22.3446 11.4743C22.6042 11.6245 22.8163 11.5008 22.8163 11.2005V8.2585C22.8163 7.98178 22.8547 7.70607 22.9303 7.43987C23.1428 6.69158 23.3333 6.02438 23.4887 5.48053C23.7186 4.67549 24.4555 4.11841 25.2927 4.11841C25.7646 4.11841 26.2189 4.29736 26.564 4.61917L28.4192 6.34909C29.0503 6.93765 29.0242 7.95079 28.373 8.51712C27.7643 9.04651 27.7046 9.98078 28.2507 10.5746C28.7055 11.0692 28.7554 11.8135 28.3707 12.3644L17.3329 28.1708C17.2757 28.2651 17.1966 28.2444 17.2135 28.1717C17.2136 28.1712 17.2141 28.1708 17.2146 28.1708Z" fill="#CBA6F7"/>
<path fill-rule="evenodd" clip-rule="evenodd" d="M18.4927 6.87052C18.5987 6.87052 18.6844 6.92882 18.6844 7.00302V8.72541C18.6844 8.79607 18.605 8.85612 18.4989 8.85612H15.6107C15.5047 8.85612 15.4163 8.79696 15.4163 8.72364V7.00125C15.4163 6.92882 15.5047 6.87052 15.6107 6.87052H18.4989H18.4927ZM22.0527 4.96309C22.0539 4.96299 22.0544 4.96456 22.0533 4.96515L19.0577 6.70525C18.9608 6.76157 18.9387 6.8909 18.9387 7.00302V8.72541C18.9387 8.85835 18.9512 9.02316 19.0661 9.08997L22.0479 10.8232C22.2598 10.9513 22.4454 10.847 22.4454 10.5935V5.19495C22.4454 4.94225 22.2623 4.83772 22.0521 4.96103C22.0511 4.96162 22.0515 4.9632 22.0527 4.96309ZM15.1566 8.72541V7.00302C15.1566 6.89069 15.1342 6.76185 15.0371 6.70543L12.0369 4.96264C11.8187 4.83633 11.6394 4.94056 11.6394 5.19406V10.5909C11.6394 10.847 11.8178 10.9442 12.0369 10.8205L15.0221 9.08772C15.1405 9.01897 15.1558 8.85528 15.1558 8.71833L15.1566 8.72541Z" fill="#CBA6F7"/>
<path fill-rule="evenodd" clip-rule="evenodd" d="M16.7544 28.1681C16.7549 28.1697 16.7564 28.1709 16.7581 28.1709H16.7987C16.8363 28.1709 16.863 28.133 16.8529 28.0968C14.1977 18.5416 14.199 18.2351 12.3723 11.731C12.2968 11.4619 11.9868 11.3339 11.7452 11.4744C11.4855 11.6245 11.2727 11.5009 11.2727 11.2006V8.26039C11.2727 7.98247 11.234 7.70556 11.1577 7.4383C10.9431 6.68625 10.7509 6.01621 10.5942 5.47094C10.3637 4.66911 9.62959 4.1167 8.7953 4.1167C8.32179 4.1167 7.86594 4.29646 7.51988 4.61965L5.66918 6.34804C5.03864 6.93691 5.06517 7.94974 5.71606 8.51605C6.32463 9.04554 6.38435 9.97987 5.83835 10.5737C5.38349 11.0684 5.33359 11.8127 5.71834 12.3637L16.7539 28.1669C16.7541 28.1672 16.7543 28.1676 16.7544 28.1681Z" fill="#CBA6F7"/>
<path d="M16.9571 12.4507C17.4361 12.4507 17.8244 12.06 17.8244 11.578C17.8244 11.096 17.4361 10.7053 16.9571 10.7053C16.4781 10.7053 16.0897 11.096 16.0897 11.578C16.0897 12.06 16.4781 12.4507 16.9571 12.4507Z" fill="#CBA6F7"/>
<path d="M16.957 17.642C17.436 17.642 17.8243 17.2513 17.8243 16.7694C17.8243 16.2874 17.436 15.8967 16.957 15.8967C16.478 15.8967 16.0896 16.2874 16.0896 16.7694C16.0896 17.2513 16.478 17.642 16.957 17.642Z" fill="#CBA6F7"/>
<path d="M16.957 22.8316C17.436 22.8316 17.8243 22.4408 17.8243 21.9588C17.8243 21.4769 17.436 21.0862 16.957 21.0862C16.478 21.0862 16.0896 21.4769 16.0896 21.9588C16.0896 22.4408 16.478 22.8316 16.957 22.8316Z" fill="#CBA6F7"/>
</svg>
