<svg width="33" height="33" viewBox="0 0 33 33" fill="none" xmlns="http://www.w3.org/2000/svg">
<g clip-path="url(#clip0_2_893)">
<path d="M19.5794 31.4797C18.7357 32.5047 17.0224 31.946 17.0018 30.6369L16.7059 11.4971H30.0458C32.4627 11.4971 33.8094 14.1929 32.307 16.0124L19.5794 31.4797Z" fill="url(#paint0_linear_2_893)"/>
<path d="M19.5794 31.4797C18.7357 32.5047 17.0224 31.946 17.0018 30.6369L16.7059 11.4971H30.0458C32.4627 11.4971 33.8094 14.1929 32.307 16.0124L19.5794 31.4797Z" fill="url(#paint1_linear_2_893)"/>
<path d="M14.1543 0.688458C14.998 -0.336534 16.7062 0.223527 16.7268 1.53257L16.8567 20.6711H3.68278C1.26589 20.6711 -0.0808251 17.9767 1.42153 16.1558L14.1543 0.688458Z" fill="#A6E3A1"/>
</g>
<defs>
<linearGradient id="paint0_linear_2_893" x1="16.7065" y1="15.7416" x2="28.4319" y2="20.8397" gradientUnits="userSpaceOnUse">
<stop stop-color="#94E2D5"/>
<stop offset="1" stop-color="#A6E3A1"/>
</linearGradient>
<linearGradient id="paint1_linear_2_893" x1="11.4499" y1="8.79921" x2="16.5591" y2="18.7705" gradientUnits="userSpaceOnUse">
<stop stop-opacity="0.2"/>
<stop offset="1" stop-opacity="0"/>
</linearGradient>
<clipPath id="clip0_2_893">
<rect width="32.1566" height="32.1566" fill="white" transform="translate(0.782959 0.0961914)"/>
</clipPath>
</defs>
</svg>
