<svg width="33" height="33" viewBox="0 0 33 33" fill="none" xmlns="http://www.w3.org/2000/svg">
<mask id="mask0_2_903" style="mask-type:luminance" maskUnits="userSpaceOnUse" x="4" y="2" width="23" height="28">
<path d="M26.3085 2.77466H4.87073V29.5718H26.3085V2.77466Z" fill="#CDD6F4"/>
<path d="M13.6793 26.7259C12.7044 26.9904 11.6752 26.9363 10.7307 26.5709C9.78616 26.2056 8.97184 25.5466 8.39765 24.683C8.04526 24.1681 7.7949 23.5851 7.66129 22.968C7.52768 22.3509 7.51348 21.7121 7.61954 21.0892C7.65544 20.8848 7.70488 20.6831 7.76752 20.4858L7.88414 20.114L8.2017 20.3572C8.93441 20.9192 9.75375 21.3468 10.6244 21.621L10.8545 21.6939L10.8334 21.9339C10.8054 22.2748 10.894 22.6149 11.0835 22.8943C11.2564 23.1546 11.5017 23.3533 11.7863 23.4635C12.0709 23.5736 12.3811 23.59 12.6749 23.5101C12.8093 23.4729 12.9374 23.4143 13.0549 23.3367L19.2498 19.216C19.4015 19.1164 19.5314 18.985 19.6318 18.83C19.732 18.6751 19.8002 18.5001 19.832 18.3161C19.8637 18.1283 19.8594 17.9358 19.8191 17.7498C19.7788 17.5638 19.7033 17.388 19.5974 17.2327C19.4244 16.9724 19.1791 16.7737 18.8945 16.6636C18.6099 16.5533 18.2997 16.5368 18.006 16.6164C17.8715 16.6536 17.7434 16.7122 17.6259 16.7899L15.2618 18.3624C14.8729 18.6203 14.4484 18.8147 14.003 18.9389C13.0281 19.2034 11.9989 19.1493 11.0544 18.784C10.1099 18.4186 9.29555 17.7596 8.72139 16.8959C8.36889 16.3811 8.11847 15.7981 7.9848 15.181C7.85115 14.5639 7.83695 13.9252 7.94304 13.3022C8.04832 12.6915 8.2746 12.1104 8.60738 11.5961C8.94017 11.0819 9.37217 10.6458 9.87572 10.3157L16.0714 6.19576C16.4603 5.93749 16.8848 5.74283 17.3302 5.61853C18.3051 5.3541 19.3343 5.4082 20.2788 5.77356C21.2234 6.1389 22.0376 6.79788 22.6119 7.66151C22.9643 8.17632 23.2147 8.75938 23.3484 9.37648C23.482 9.99359 23.4962 10.6323 23.3902 11.2553C23.354 11.4597 23.3045 11.6613 23.242 11.8587L23.1253 12.2305L22.8081 11.9879C22.0754 11.4256 21.2561 10.9982 20.3853 10.7239L20.155 10.651L20.1763 10.4111C20.2043 10.07 20.1157 9.72959 19.9266 9.44995C19.7536 9.18963 19.5083 8.99097 19.2237 8.88082C18.9391 8.77067 18.6289 8.75435 18.3351 8.83406C18.2007 8.87136 18.0726 8.92986 17.9551 9.00756L11.7585 13.1285C11.6069 13.228 11.4769 13.3594 11.3768 13.5142C11.2766 13.6692 11.2085 13.8442 11.1768 14.0282C11.1449 14.2159 11.1492 14.4084 11.1894 14.5946C11.2296 14.7805 11.3049 14.9564 11.411 15.1117C11.584 15.3721 11.8293 15.5706 12.1139 15.6809C12.3984 15.7912 12.7086 15.8077 13.0024 15.7281C13.1368 15.6907 13.2649 15.6323 13.3824 15.5546L15.7462 13.9828C16.135 13.7245 16.5596 13.5298 17.005 13.4058C17.9799 13.1413 19.0092 13.1954 19.9536 13.5609C20.8981 13.9261 21.7123 14.5852 22.2864 15.4487C22.639 15.9635 22.8894 16.5466 23.0231 17.1637C23.1567 17.7809 23.1709 18.4196 23.0648 19.0425C22.9597 19.6532 22.7337 20.2344 22.4013 20.7488C22.0687 21.2632 21.637 21.6996 21.1338 22.0301L14.9381 26.1487C14.5493 26.407 14.1247 26.6017 13.6793 26.7259Z" fill="#11111B"/>
</mask>
<g mask="url(#mask0_2_903)">
<path d="M8.39854 24.6843L10.6301 23.2006C10.6234 23.1906 10.6166 23.1805 10.6098 23.1706L8.39854 24.6843ZM7.62043 21.0905L4.98103 20.6272L4.97873 20.6407L7.62043 21.0905ZM7.7684 20.487L10.3226 21.2976L10.3253 21.2891L7.7684 20.487ZM7.88502 20.1152L9.51406 17.9875C8.81972 17.4559 7.90966 17.2966 7.07599 17.5605C6.24231 17.8246 5.5899 18.4787 5.32816 19.3132L7.88502 20.1152ZM8.20258 20.3584L9.83376 18.2323L9.83162 18.2306L8.20258 20.3584ZM10.6253 21.6223L11.4341 19.0676L11.4307 19.0665L10.6253 21.6223ZM10.8554 21.6952L13.5248 21.9305C13.6351 20.6793 12.8616 19.5195 11.6642 19.1405L10.8554 21.6952ZM10.8343 21.9351L8.16485 21.6999L8.16352 21.7161L10.8343 21.9351ZM11.0844 22.8956L13.3167 21.4131C13.3118 21.4058 13.3069 21.3984 13.3019 21.391L11.0844 22.8956ZM12.6758 23.5114L13.3778 26.0975L13.3922 26.0935L12.6758 23.5114ZM13.0558 23.338L14.534 25.573L14.5399 25.5691L13.0558 23.338ZM19.2507 19.2172L17.7795 16.9774L17.7665 16.9861L19.2507 19.2172ZM19.8328 18.3174L22.4734 18.774L22.475 18.7644L19.8328 18.3174ZM19.5982 17.234L17.366 18.7167C17.3725 18.7264 17.379 18.7361 17.3856 18.7457L19.5982 17.234ZM18.0069 16.6176L17.3065 14.0309L17.2898 14.0356L18.0069 16.6176ZM17.6268 16.7912L16.1489 14.5557L16.1426 14.5599L17.6268 16.7912ZM15.2627 18.3636L16.7434 20.5972L16.747 20.5949L15.2627 18.3636ZM14.0039 18.9402L14.7056 21.5265L14.7237 21.5214L14.0039 18.9402ZM8.72227 16.8971L10.9539 15.4137C10.9471 15.4035 10.9402 15.3933 10.9333 15.3831L8.72227 16.8971ZM7.94392 13.3035L5.30315 12.8482L5.30224 12.8535L7.94392 13.3035ZM9.8766 10.3169L11.3457 12.5581L11.3604 12.5483L9.8766 10.3169ZM16.0723 6.19701L14.5898 3.96464L14.5884 3.96561L16.0723 6.19701ZM17.3311 5.61978L16.6296 3.03352C16.6234 3.03522 16.6171 3.03695 16.6108 3.03869L17.3311 5.61978ZM22.6128 7.66276L20.3813 9.14638C20.3879 9.15649 20.3948 9.16653 20.4016 9.17654L22.6128 7.66276ZM23.3911 11.2565L26.0298 11.7237L26.0328 11.7061L23.3911 11.2565ZM23.2429 11.86L20.6881 11.0513L20.6861 11.0579L23.2429 11.86ZM23.1262 12.2318L21.4986 14.3605C22.193 14.8915 23.1028 15.0504 23.9362 14.7862C24.7694 14.522 25.4215 13.868 25.6831 13.0338L23.1262 12.2318ZM22.8089 11.9891L21.1775 14.1151L21.1813 14.1179L22.8089 11.9891ZM20.3862 10.7251L19.5783 13.2801L19.5811 13.281L20.3862 10.7251ZM20.1559 10.6523L17.4868 10.4144C17.3751 11.6667 18.1492 12.8281 19.3478 13.2072L20.1559 10.6523ZM20.1772 10.4123L22.8465 10.6502C22.847 10.6437 22.8475 10.6372 22.8481 10.6307L20.1772 10.4123ZM19.9274 9.4512L17.6952 10.9338C17.6995 10.9403 17.7038 10.9468 17.7082 10.9532L19.9274 9.4512ZM18.336 8.83531L17.6343 6.24906L17.6195 6.25316L18.336 8.83531ZM17.956 9.00881L16.4777 6.77369L16.4721 6.77746L17.956 9.00881ZM11.7594 13.1297L13.23 15.37L13.2433 15.361L11.7594 13.1297ZM11.1777 14.0294L8.53686 13.5747L8.53592 13.5802L11.1777 14.0294ZM11.4119 15.113L13.6439 13.63C13.6376 13.6205 13.6312 13.611 13.6247 13.6015L11.4119 15.113ZM13.0033 15.7293L13.7033 18.3161C13.7094 18.3143 13.7155 18.3127 13.7216 18.311L13.0033 15.7293ZM13.3833 15.5558L14.8601 17.792L14.8671 17.7872L13.3833 15.5558ZM17.0059 13.4071L16.3043 10.8207L16.2872 10.8255L17.0059 13.4071ZM22.2873 15.45L20.0558 16.9336C20.0625 16.9438 20.0695 16.954 20.0763 16.964L22.2873 15.45ZM23.0657 19.0437L25.7067 19.4981L25.7073 19.4937L23.0657 19.0437ZM21.1347 22.0313L19.6638 19.7912L19.6512 19.7997L21.1347 22.0313ZM12.9787 24.141C12.5564 24.2555 12.1117 24.2329 11.6983 24.0729L9.76483 29.0715C11.2405 29.6423 12.8541 29.7278 14.3818 29.3135L12.9787 24.141ZM11.6983 24.0729C11.2833 23.9124 10.9056 23.6151 10.6301 23.2006L6.167 26.1679C7.03984 27.4807 8.29078 28.5013 9.76483 29.0715L11.6983 24.0729ZM10.6098 23.1706C10.4557 22.9454 10.3423 22.6845 10.2812 22.4021L5.04314 23.5363C5.24924 24.4881 5.63655 25.3933 6.18725 26.1979L10.6098 23.1706ZM10.2812 22.4021C10.22 22.1196 10.2135 21.8261 10.2621 21.5403L4.97873 20.6407C4.81529 21.6006 4.83707 22.5846 5.04314 23.5363L10.2812 22.4021ZM10.2598 21.5538C10.2751 21.4665 10.2961 21.3808 10.3226 21.2976L5.21423 19.6764C5.1154 19.9878 5.0375 20.3055 4.98103 20.6272L10.2598 21.5538ZM10.3253 21.2891L10.4419 20.9173L5.32816 19.3132L5.21153 19.6849L10.3253 21.2891ZM6.25598 22.2429L6.57354 22.4861L9.83162 18.2306L9.51406 17.9875L6.25598 22.2429ZM6.5714 22.4844C7.54923 23.2347 8.64745 23.8087 9.81984 24.1782L11.4307 19.0665C10.8618 18.8872 10.3214 18.6064 9.83376 18.2323L6.5714 22.4844ZM9.81644 24.1771L10.0466 24.2499L11.6642 19.1405L11.4341 19.0676L9.81644 24.1771ZM8.18603 21.46L8.16485 21.6999L13.5036 22.1703L13.5248 21.9305L8.18603 21.46ZM8.16352 21.7161C8.08634 22.6573 8.32906 23.6073 8.86686 24.3999L13.3019 21.391C13.4608 21.6252 13.5263 21.8947 13.505 22.1542L8.16352 21.7161ZM8.85204 24.378C9.32351 25.088 10.0056 25.6486 10.82 25.9638L12.7544 20.9656C12.9996 21.0605 13.191 21.2238 13.3167 21.4131L8.85204 24.378ZM10.82 25.9638C11.636 26.2796 12.531 26.3273 13.3778 26.0975L11.9737 20.9253C12.2329 20.8549 12.5076 20.8701 12.7544 20.9656L10.82 25.9638ZM13.3922 26.0935C13.7999 25.9804 14.1847 25.804 14.534 25.573L11.5775 21.1028C11.6919 21.0271 11.8205 20.9678 11.9592 20.9293L13.3922 26.0935ZM14.5399 25.5691L20.7348 21.4485L17.7665 16.9861L11.5717 21.1067L14.5399 25.5691ZM20.7218 21.4571C21.1903 21.1493 21.5836 20.7488 21.8826 20.2867L17.3826 17.3757C17.4811 17.2235 17.6143 17.0858 17.7795 16.9774L20.7218 21.4571ZM21.8826 20.2867C22.1814 19.825 22.3807 19.3096 22.4734 18.774L17.1924 17.8606C17.2213 17.693 17.2843 17.5277 17.3826 17.3757L21.8826 20.2867ZM22.475 18.7644C22.5637 18.2403 22.5516 17.7036 22.4389 17.1837L17.201 18.3183C17.1689 18.1705 17.1656 18.0187 17.1906 17.8703L22.475 18.7644ZM22.4389 17.1837C22.3263 16.6639 22.1144 16.1667 21.8107 15.7222L17.3856 18.7457C17.2941 18.6119 17.233 18.4662 17.201 18.3183L22.4389 17.1837ZM21.8303 15.7513C21.3589 15.0417 20.6772 14.4812 19.8633 14.166L17.9274 19.1635C17.6826 19.0688 17.4916 18.9057 17.366 18.7167L21.8303 15.7513ZM19.8633 14.166C19.0477 13.85 18.1531 13.8017 17.3065 14.0309L18.7071 19.2042C18.4482 19.2743 18.174 19.259 17.9274 19.1635L19.8633 14.166ZM17.2898 14.0356C16.8826 14.1487 16.4979 14.3249 16.1489 14.5557L19.1046 19.0264C18.9905 19.1019 18.8623 19.1612 18.7238 19.1997L17.2898 14.0356ZM16.1426 14.5599L13.7786 16.1325L16.747 20.5949L19.1109 19.0223L16.1426 14.5599ZM13.7822 16.1302C13.6246 16.2346 13.4565 16.3108 13.2842 16.3589L14.7237 21.5214C15.442 21.3211 16.1229 21.0086 16.7434 20.5972L13.7822 16.1302ZM13.3024 16.354C12.8801 16.4685 12.4354 16.4459 12.022 16.2859L10.0886 21.2845C11.5642 21.8553 13.1781 21.9409 14.7056 21.5265L13.3024 16.354ZM12.022 16.2859C11.6071 16.1254 11.2293 15.8281 10.9539 15.4137L6.49068 18.3808C7.36351 19.6937 8.61447 20.7143 10.0886 21.2845L12.022 16.2859ZM10.9333 15.3831C10.7792 15.1581 10.6658 14.8973 10.6047 14.615L5.36669 15.7494C5.57287 16.7014 5.96035 17.6067 6.51125 18.4112L10.9333 15.3831ZM10.6047 14.615C10.5435 14.3327 10.5369 14.0391 10.5856 13.7533L5.30224 12.8535C5.13874 13.8136 5.16054 14.7976 5.36669 15.7494L10.6047 14.615ZM10.5847 13.7587C10.6293 13.5002 10.7241 13.2601 10.858 13.0533L6.35853 10.1415C5.82682 10.9632 5.46915 11.8853 5.30315 12.8482L10.5847 13.7587ZM10.858 13.0533C10.9917 12.8467 11.1597 12.68 11.3457 12.5581L8.40751 8.0758C7.58639 8.61406 6.89042 9.31961 6.35853 10.1415L10.858 13.0533ZM11.3604 12.5483L17.556 8.42842L14.5884 3.96561L8.39279 8.08552L11.3604 12.5483ZM17.5546 8.42938C17.7117 8.32505 17.8795 8.24887 18.0514 8.20087L16.6108 3.03869C15.8921 3.23928 15.2106 3.55242 14.5898 3.96464L17.5546 8.42938ZM18.0326 8.20606C18.4548 8.09151 18.8996 8.11417 19.313 8.27407L21.2464 3.27554C19.7708 2.70475 18.1572 2.61918 16.6296 3.03352L18.0326 8.20606ZM19.313 8.27407C19.7279 8.43458 20.1056 8.73196 20.3813 9.14638L24.8443 6.17915C23.9714 4.86627 22.7205 3.8457 21.2464 3.27554L19.313 8.27407ZM20.4016 9.17654C20.5557 9.40168 20.6691 9.66259 20.7303 9.94496L25.9682 8.81049C25.7621 7.85866 25.3746 6.95346 24.824 6.14897L20.4016 9.17654ZM20.7303 9.94496C20.7914 10.2274 20.7981 10.521 20.7494 10.8069L26.0328 11.7061C26.1962 10.7462 26.1744 9.76225 25.9682 8.81049L20.7303 9.94496ZM20.7524 10.7893C20.7366 10.8785 20.7151 10.9661 20.6881 11.0513L25.7976 12.6687C25.8957 12.3591 25.9732 12.0434 26.0298 11.7237L20.7524 10.7893ZM20.6861 11.0579L20.5694 11.4297L25.6831 13.0338L25.7998 12.6621L20.6861 11.0579ZM24.754 10.1031L24.4366 9.86042L21.1813 14.1179L21.4986 14.3605L24.754 10.1031ZM24.4404 9.86322C23.4624 9.11281 22.3641 8.53864 21.1915 8.16924L19.5811 13.281C20.1499 13.4602 20.6901 13.741 21.1775 14.1151L24.4404 9.86322ZM21.1943 8.17015L20.964 8.09727L19.3478 13.2072L19.5783 13.2801L21.1943 8.17015ZM22.825 10.8901L22.8465 10.6502L17.5081 10.1745L17.4868 10.4144L22.825 10.8901ZM22.8481 10.6307C22.925 9.69045 22.6829 8.74156 22.1466 7.94921L17.7082 10.9532C17.5504 10.7201 17.4854 10.452 17.5065 10.194L22.8481 10.6307ZM22.1595 7.96857C21.688 7.2587 21.006 6.69815 20.1918 6.38299L18.2573 11.3812C18.0122 11.2863 17.8209 11.1231 17.6952 10.9338L22.1595 7.96857ZM20.1918 6.38299C19.3758 6.0672 18.4809 6.01934 17.6343 6.24906L19.0378 11.4215C18.7786 11.4918 18.5041 11.4766 18.2573 11.3812L20.1918 6.38299ZM17.6195 6.25316C17.2119 6.36626 16.8271 6.54265 16.4777 6.77369L19.4342 11.2439C19.3198 11.3196 19.1913 11.379 19.0525 11.4175L17.6195 6.25316ZM16.4721 6.77746L10.2755 10.8984L13.2433 15.361L19.4399 11.2402L16.4721 6.77746ZM10.2889 10.8895C9.82003 11.1973 9.42631 11.5981 9.1273 12.0606L13.628 14.9704C13.5292 15.1232 13.3956 15.2613 13.23 15.37L10.2889 10.8895ZM9.1273 12.0606C8.82846 12.5228 8.62914 13.0387 8.53686 13.5747L13.8186 14.4841C13.7897 14.6522 13.7264 14.8181 13.628 14.9704L9.1273 12.0606ZM8.53592 13.5802C8.44677 14.1045 8.4586 14.6416 8.57103 15.1619L13.8095 14.0297C13.8415 14.1778 13.8448 14.3298 13.8196 14.4786L8.53592 13.5802ZM8.57103 15.1619C8.68348 15.6822 8.89537 16.1796 9.19913 16.6243L13.6247 13.6015C13.7163 13.7356 13.7775 13.8815 13.8095 14.0297L8.57103 15.1619ZM9.1799 16.5958C9.6513 17.3054 10.333 17.8657 11.1469 18.181L13.0826 13.1833C13.3274 13.2781 13.5184 13.4411 13.6439 13.63L9.1799 16.5958ZM11.1469 18.181C11.9624 18.4968 12.8568 18.545 13.7033 18.3161L12.3033 13.1427C12.5621 13.0726 12.8363 13.0879 13.0826 13.1833L11.1469 18.181ZM13.7216 18.311C14.1279 18.198 14.5116 18.0222 14.8601 17.792L11.9066 13.3198C12.02 13.2448 12.1475 13.186 12.285 13.1477L13.7216 18.311ZM14.8671 17.7872L17.2308 16.2154L14.2641 11.752L11.8995 13.3244L14.8671 17.7872ZM17.2308 16.2154C17.3873 16.1116 17.5535 16.0363 17.7247 15.9886L16.2872 10.8255C15.5675 11.0259 14.8854 11.3392 14.2641 11.752L17.2308 16.2154ZM17.7074 15.9933C18.1298 15.8787 18.5745 15.9014 18.9877 16.0613L20.9212 11.0628C19.4456 10.492 17.8319 10.4064 16.3043 10.8207L17.7074 15.9933ZM18.9877 16.0613C19.4026 16.2219 19.7803 16.5192 20.0558 16.9336L24.519 13.9665C23.6462 12.6536 22.3953 11.633 20.9212 11.0628L18.9877 16.0613ZM20.0763 16.964C20.2304 17.1891 20.3439 17.45 20.405 17.7321L25.6429 16.5977C25.4368 15.6458 25.0493 14.7405 24.4984 13.9361L20.0763 16.964ZM20.405 17.7321C20.4661 18.0146 20.4728 18.308 20.424 18.5938L25.7073 19.4937C25.8709 18.5336 25.8491 17.5497 25.6429 16.5977L20.405 17.7321ZM20.4248 18.5894C20.3803 18.8481 20.2855 19.0882 20.1516 19.2954L24.6527 22.2047C25.1838 21.383 25.541 20.4609 25.7067 19.4981L20.4248 18.5894ZM20.1516 19.2954C20.0179 19.5022 19.8497 19.669 19.6638 19.7912L22.6056 24.2713C23.4261 23.7324 24.1213 23.0267 24.6527 22.2047L20.1516 19.2954ZM19.6512 19.7997L13.4555 23.9184L16.4217 28.3821L22.6181 24.2629L19.6512 19.7997ZM13.4555 23.9184C13.2986 24.0226 13.1319 24.0981 12.9602 24.146L14.4003 29.3084C15.1192 29.1078 15.8008 28.7945 16.4217 28.3821L13.4555 23.9184Z" fill="#89B4FA"/>
</g>
</svg>
