<svg width="33" height="33" viewBox="0 0 33 33" fill="none" xmlns="http://www.w3.org/2000/svg">
<g filter="url(#filter0_d_2_915)">
<path d="M27.1481 19.1501L20.4952 12.4995M20.5521 19.1524L27.205 12.4995" stroke="#FAB387" stroke-width="3.30754" stroke-linecap="round" stroke-linejoin="round"/>
<path d="M5.43005 21.1503C4.87777 21.1503 4.43005 20.7026 4.43005 20.1503V11.8142C4.43005 11.2619 4.87777 10.8142 5.43005 10.8142H7.06838C7.36815 10.8142 7.65212 10.9487 7.84205 11.1806L9.88024 13.6695C10.2803 14.158 11.0275 14.158 11.4276 13.6695L13.4658 11.1806C13.6557 10.9487 13.9397 10.8142 14.2394 10.8142H15.8777C16.43 10.8142 16.8777 11.2619 16.8777 11.8142V20.1503C16.8777 20.7026 16.43 21.1503 15.8777 21.1503H14.7658C14.2136 21.1503 13.7658 20.7026 13.7658 20.1503V18.0217C13.7658 17.0821 12.5874 16.6612 11.9922 17.3881L11.4276 18.0775C11.0275 18.5661 10.2803 18.5661 9.88023 18.0775L9.31566 17.3881C8.72038 16.6612 7.54198 17.0821 7.54198 18.0217V20.1503C7.54198 20.7026 7.09427 21.1503 6.54198 21.1503H5.43005Z" fill="#FAB387"/>
</g>
<defs>
<filter id="filter0_d_2_915" x="-3.59058" y="0.0961914" width="40.1566" height="40.1565" filterUnits="userSpaceOnUse" color-interpolation-filters="sRGB">
<feFlood flood-opacity="0" result="BackgroundImageFix"/>
<feColorMatrix in="SourceAlpha" type="matrix" values="0 0 0 0 0 0 0 0 0 0 0 0 0 0 0 0 0 0 127 0" result="hardAlpha"/>
<feOffset dy="4"/>
<feGaussianBlur stdDeviation="2"/>
<feComposite in2="hardAlpha" operator="out"/>
<feColorMatrix type="matrix" values="0 0 0 0 0 0 0 0 0 0 0 0 0 0 0 0 0 0 0.25 0"/>
<feBlend mode="normal" in2="BackgroundImageFix" result="effect1_dropShadow_2_915"/>
<feBlend mode="normal" in="SourceGraphic" in2="effect1_dropShadow_2_915" result="shape"/>
</filter>
</defs>
</svg>
