<svg width="36" height="33" viewBox="0 0 36 33" fill="none" xmlns="http://www.w3.org/2000/svg">
<g filter="url(#filter0_d_2_918)">
<path d="M6.78421 11.5985C6.7822 11.6012 6.72124 11.6079 6.64955 11.6166C6.57988 11.6233 6.49882 11.6346 6.46934 11.6413C6.44255 11.648 6.39565 11.6574 6.36417 11.6614C6.28779 11.6728 6.11696 11.7204 6.06069 11.7452C6.0359 11.7539 5.95283 11.7874 5.87378 11.8189C5.47852 11.9763 5.07388 12.2952 4.79318 12.675C4.73021 12.7608 4.66924 12.8419 4.66054 12.8553C4.55938 12.9879 4.34567 13.5091 4.30547 13.7201C4.23312 14.096 4.22441 14.5113 4.2827 14.788C4.37984 15.2509 4.51851 15.5611 4.78648 15.9182C4.85347 16.0079 5.33716 16.5117 5.86306 17.0356C6.5484 17.721 6.82709 18.0177 6.85857 18.0847C6.96844 18.3272 6.85388 18.622 6.60199 18.7346C6.52361 18.7681 6.44255 18.7748 6.00642 18.7768C5.73041 18.7768 5.45574 18.7882 5.40014 18.7995C4.90975 18.9054 4.55 19.3341 4.53459 19.8353C4.52119 20.2265 4.69872 20.5728 5.029 20.802C5.25342 20.9547 5.41555 20.9842 6.08279 20.9842C6.57988 20.9842 6.75942 20.9708 6.97045 20.9232C7.00194 20.9165 7.0562 20.9051 7.09238 20.8984C7.29671 20.8629 7.88557 20.5883 7.98204 20.4851C7.98874 20.4784 8.03162 20.4449 8.07851 20.4107C8.22724 20.2988 8.45434 20.065 8.59101 19.8781C8.8429 19.5345 9.04522 19.0199 9.09681 18.5972C9.11489 18.4398 9.1169 18.0378 9.09882 17.9454C9.09212 17.9139 9.07671 17.8261 9.06063 17.7478C8.99565 17.3833 8.78864 16.9365 8.55081 16.635C8.48114 16.5452 7.99544 16.0461 7.47424 15.5229C6.43585 14.4825 6.43384 14.4825 6.46063 14.2594C6.50083 13.9137 6.83848 13.7161 7.14597 13.8555C7.21766 13.887 8.03832 14.6956 10.4407 17.0959C12.1986 18.8558 13.6724 20.323 13.7153 20.3591C13.7582 20.3953 13.8727 20.4764 13.9712 20.5414C14.9178 21.1617 16.1378 21.1255 17.0616 20.4556C17.2056 20.3504 17.4883 20.0691 17.6009 19.921L17.6799 19.8152L17.9379 20.0717C18.165 20.2942 18.2259 20.3504 18.3318 20.4355C18.3452 20.4449 18.4189 20.4965 18.4979 20.5481C19.3923 21.1416 20.6511 21.1302 21.5474 20.5166C21.7049 20.4087 21.7565 20.3658 21.9253 20.2044C22.2984 19.8426 22.5858 19.2939 22.687 18.7433C22.7205 18.5724 22.7252 17.9769 22.6957 17.8328C22.689 17.8013 22.6783 17.7411 22.6709 17.6982C22.6126 17.3994 22.413 16.9659 22.1946 16.6732C22.1296 16.5834 21.6533 16.087 21.1361 15.5698C20.6196 15.0533 20.1721 14.5944 20.1426 14.5542C20.0729 14.4577 20.0555 14.2393 20.1044 14.1228C20.1493 14.0149 20.2371 13.9111 20.3268 13.8622C20.3898 13.826 20.4756 13.8213 21.0691 13.8146L21.7384 13.8079L21.7203 13.9271C21.6982 14.0685 21.7002 14.5991 21.7203 14.709C21.7297 14.7518 21.741 14.8168 21.7477 14.855C21.7766 15.0084 21.8576 15.2489 21.9407 15.4264C22.1477 15.8686 22.1209 15.8371 24.4087 18.1323C25.5771 19.3053 26.6155 20.3277 26.7146 20.404C27.0985 20.7028 27.4495 20.8602 27.9278 20.946C28.1349 20.9815 28.4966 20.9929 28.6695 20.9681C28.908 20.9326 29.0339 20.9051 29.1933 20.8535C30.1909 20.532 30.9191 19.6376 31.0296 18.6019C31.0852 18.076 30.9506 17.7096 30.6049 17.4396C30.2565 17.1703 29.7842 17.1408 29.389 17.3632C29.0654 17.5434 28.8564 17.8985 28.8356 18.2937C28.8182 18.6307 28.5596 18.831 28.24 18.7526C28.1349 18.7279 28.0538 18.6488 26.0782 16.6779C24.95 15.5517 23.9994 14.5857 23.9679 14.5341C23.862 14.3566 23.9029 14.0913 24.0577 13.9426C24.1789 13.826 24.2533 13.8106 24.7363 13.8106C25.2783 13.8106 25.4357 13.7791 25.6695 13.619C26.3749 13.1407 26.312 12.1069 25.5523 11.7157C25.3252 11.5985 25.3546 11.6012 22.8263 11.5985C20.3181 11.5985 20.1922 11.6032 19.9048 11.6795C19.8552 11.6909 19.7989 11.707 19.7808 11.709C19.7138 11.7244 19.4506 11.8283 19.3541 11.8772C19.0553 12.0279 18.6527 12.3562 18.4396 12.6215C18.2909 12.8077 18.0933 13.1788 18.0075 13.426C17.7288 14.2393 17.8441 15.0935 18.3244 15.813C18.4396 15.9858 18.6393 16.1995 19.4506 17.0128C19.9925 17.5568 20.4528 18.0311 20.4735 18.0693C20.5539 18.2268 20.5137 18.4713 20.3791 18.6153C20.2665 18.7366 20.1969 18.7634 19.9945 18.7634C19.8485 18.7634 19.7989 18.7547 19.736 18.7138C19.6931 18.687 18.1228 17.1294 16.2416 15.2509C13.6677 12.6777 12.7915 11.8149 12.693 11.7559C12.4498 11.6099 12.1463 11.565 11.8656 11.63C11.4724 11.7224 11.122 12.0889 11.0456 12.4841C10.9914 12.7655 11.059 13.0891 11.2205 13.3269C11.2546 13.3765 12.3172 14.453 13.5847 15.7205C15.6842 17.8221 15.8906 18.0331 15.9153 18.1256C15.9649 18.3031 15.9381 18.4398 15.8236 18.6019C15.711 18.7567 15.4162 18.815 15.23 18.7185C15.1871 18.6937 13.6925 17.2172 11.9085 15.4372C9.3353 12.864 8.63188 12.1739 8.49253 12.0822C8.02023 11.7673 7.5486 11.6146 7.00931 11.6012C6.88738 11.5985 6.78622 11.5965 6.78421 11.5985Z" fill="url(#paint0_linear_2_918)"/>
</g>
<defs>
<filter id="filter0_d_2_918" x="-2.43396" y="0.0961914" width="40.1566" height="40.1565" filterUnits="userSpaceOnUse" color-interpolation-filters="sRGB">
<feFlood flood-opacity="0" result="BackgroundImageFix"/>
<feColorMatrix in="SourceAlpha" type="matrix" values="0 0 0 0 0 0 0 0 0 0 0 0 0 0 0 0 0 0 127 0" result="hardAlpha"/>
<feOffset dy="4"/>
<feGaussianBlur stdDeviation="2"/>
<feComposite in2="hardAlpha" operator="out"/>
<feColorMatrix type="matrix" values="0 0 0 0 0 0 0 0 0 0 0 0 0 0 0 0 0 0 0.25 0"/>
<feBlend mode="normal" in2="BackgroundImageFix" result="effect1_dropShadow_2_918"/>
<feBlend mode="normal" in="SourceGraphic" in2="effect1_dropShadow_2_918" result="shape"/>
</filter>
<linearGradient id="paint0_linear_2_918" x1="4.24451" y1="16.2913" x2="31.0417" y2="16.2913" gradientUnits="userSpaceOnUse">
<stop stop-color="#FAB387"/>
<stop offset="1" stop-color="#F9E2AF"/>
</linearGradient>
</defs>
</svg>
