<svg width="33" height="35" viewBox="0 0 33 35" fill="none" xmlns="http://www.w3.org/2000/svg">
<g filter="url(#filter0_d_2_920)">
<path d="M22.5222 25.1616C22.5804 25.1318 22.6357 25.098 22.688 25.0608C23.1608 24.8806 23.6679 24.7449 24.1212 24.7733C24.5289 24.7986 24.9706 24.9482 25.3562 25.71L25.3618 25.7209C25.4292 25.8512 25.6331 26.2096 26.082 26.4016C26.6754 26.6556 27.2186 26.4396 27.5184 26.194C27.7632 25.9935 27.8865 25.7574 27.9399 25.6434C28.0049 25.5054 28.0477 25.3696 28.0769 25.2552C28.1892 24.8172 28.2168 24.2467 28.1609 23.6375C28.057 22.5076 27.645 21.012 26.6116 19.5224C27.7526 14.5022 24.6103 8.93926 19.7907 6.02623C19.2342 5.68998 18.5169 5.80159 18.0889 6.29096C17.661 6.78033 17.6461 7.50625 18.0535 8.01276C18.9198 9.08947 19.5333 10.3468 19.8492 11.6921C20.079 12.6711 20.1468 13.6786 20.0525 14.6747C17.1795 12.6798 14.4992 10.4191 12.047 7.92188C11.5659 7.43193 10.7923 7.385 10.2555 7.81319C9.88684 8.10722 9.71184 8.55994 9.75842 9.00191C9.66033 8.92973 9.56099 8.85688 9.46039 8.78338C8.94735 8.40851 8.24154 8.44555 7.77055 8.87206C7.29956 9.29858 7.19292 9.99726 7.51524 10.5449C7.86568 11.1403 8.26957 11.7025 8.72188 12.2246C10.7729 14.9611 13.0977 17.4787 15.6592 19.7386C13.9369 20.1431 11.8302 19.9437 9.62753 18.9175L9.61574 18.9122C8.88992 18.5826 8.20651 18.1666 7.58034 17.6732C7.0679 17.2695 6.33919 17.2935 5.85446 17.7302C5.36974 18.1667 5.26989 18.889 5.61801 19.4406C7.25481 22.0347 9.63739 24.0733 12.4529 25.2891C14.0222 26.0451 15.745 26.4283 17.487 26.4086C19.2394 26.3889 20.9632 25.962 22.5222 25.1616Z" fill="url(#paint0_linear_2_920)"/>
</g>
<defs>
<filter id="filter0_d_2_920" x="-3.27734" y="0.0961914" width="40.1566" height="40.1565" filterUnits="userSpaceOnUse" color-interpolation-filters="sRGB">
<feFlood flood-opacity="0" result="BackgroundImageFix"/>
<feColorMatrix in="SourceAlpha" type="matrix" values="0 0 0 0 0 0 0 0 0 0 0 0 0 0 0 0 0 0 127 0" result="hardAlpha"/>
<feOffset dy="4"/>
<feGaussianBlur stdDeviation="2"/>
<feComposite in2="hardAlpha" operator="out"/>
<feColorMatrix type="matrix" values="0 0 0 0 0 0 0 0 0 0 0 0 0 0 0 0 0 0 0.25 0"/>
<feBlend mode="normal" in2="BackgroundImageFix" result="effect1_dropShadow_2_920"/>
<feBlend mode="normal" in="SourceGraphic" in2="effect1_dropShadow_2_920" result="shape"/>
</filter>
<linearGradient id="paint0_linear_2_920" x1="16.8001" y1="5.83301" x2="16.8001" y2="26.5155" gradientUnits="userSpaceOnUse">
<stop stop-color="#FAB387"/>
<stop offset="1" stop-color="#F9E2AF"/>
</linearGradient>
</defs>
</svg>
