<svg width="34" height="33" viewBox="0 0 34 33" fill="none" xmlns="http://www.w3.org/2000/svg">
<path fill-rule="evenodd" clip-rule="evenodd" d="M16.9579 8.13452C13.717 8.13452 11.5788 9.59546 10.5423 12.5173C10.4694 12.7228 10.7472 12.8688 10.9002 12.7135C12.0904 11.5059 13.4396 11.0895 14.9479 11.4641C15.9671 11.7172 16.6959 12.4524 17.5019 13.2663C18.8156 14.5916 20.3364 16.1254 23.6571 16.1254C26.8974 16.1254 29.036 14.6646 30.0722 11.7434C30.1451 11.5379 29.8673 11.3919 29.7142 11.5472C28.5245 12.7546 27.1754 13.1708 25.6671 12.7958C24.6474 12.5427 23.9186 11.8076 23.1126 10.9942C21.7988 9.6678 20.2786 8.13452 16.9579 8.13452ZM10.2582 16.1254C7.01764 16.1254 4.87907 17.5864 3.84293 20.5085C3.77007 20.714 4.0478 20.8599 4.20083 20.7046C5.39099 19.4968 6.74021 19.0804 8.24818 19.455C9.26791 19.7081 9.99674 20.4433 10.8028 21.2572C12.1166 22.5825 13.6367 24.1164 16.9579 24.1164C20.1985 24.1164 22.3371 22.6557 23.3732 19.7337C23.4461 19.5282 23.1684 19.3823 23.0153 19.5376C21.8252 20.7454 20.4759 21.1619 18.9675 20.7872C17.9482 20.5336 17.2195 19.7984 16.4134 18.9851C15.0997 17.6597 13.5789 16.1254 10.2582 16.1254Z" fill="url(#paint0_linear_2_922)"/>
<defs>
<linearGradient id="paint0_linear_2_922" x1="16.9577" y1="8.13452" x2="16.9577" y2="24.1164" gradientUnits="userSpaceOnUse">
<stop stop-color="#89DCEB"/>
<stop offset="1" stop-color="#A6E3A1"/>
</linearGradient>
</defs>
</svg>
