<svg width="37" height="38" viewBox="0 0 37 38" fill="none" xmlns="http://www.w3.org/2000/svg">
<g clip-path="url(#clip0_2_935)" filter="url(#filter0_d_2_935)">
<path d="M22.059 18.2643C22.4557 19.6899 21.6309 21.1719 20.2426 21.5285V21.5285C19.7962 21.643 19.4539 22.0132 19.4304 22.4734C19.4237 22.6056 19.4203 22.7388 19.4203 22.8729C19.4203 23.0448 19.4259 23.2153 19.4369 23.3841C19.4647 23.8081 19.782 24.1472 20.1942 24.2503V24.2503C21.5964 24.6008 22.4299 26.0979 22.0216 27.533V27.533C21.8778 28.0388 22.0257 28.5929 22.4559 28.8951C22.5807 28.9828 22.7085 29.0662 22.8389 29.145C23.311 29.4302 23.9065 29.2918 24.2792 28.8852V28.8852C25.2729 27.801 26.9394 27.8013 27.9331 28.8859V28.8859C28.31 29.2975 28.9123 29.4386 29.3905 29.1509C29.4951 29.0879 29.598 29.022 29.699 28.9533C30.1709 28.6326 30.3338 28.0312 30.1808 27.4816V27.4816C29.7841 26.0558 30.6089 24.5738 31.9973 24.2174V24.2174C32.4432 24.1029 32.7852 23.733 32.8087 23.2732C32.8155 23.1407 32.8189 23.0072 32.8189 22.8729C32.8189 22.7008 32.8132 22.53 32.8022 22.3609C32.7744 21.9373 32.4573 21.5984 32.0455 21.4955V21.4955C30.6433 21.1451 29.81 19.648 30.2182 18.2127V18.2127C30.3619 17.7073 30.2142 17.1537 29.7844 16.8515C29.6592 16.7635 29.5311 16.6799 29.4003 16.6009C28.9284 16.3159 28.3331 16.4541 27.9607 16.8605V16.8605C26.9669 17.9449 25.3003 17.9445 24.3068 16.8599V16.8599C23.9297 16.4483 23.3274 16.3071 22.8491 16.5948C22.7446 16.6576 22.6419 16.7234 22.541 16.7919C22.0689 17.1127 21.906 17.7144 22.059 18.2643V18.2643ZM26.1196 24.8344C25.1105 24.8344 24.2925 23.9562 24.2925 22.8729C24.2925 21.7897 25.1105 20.9115 26.1196 20.9115C27.1286 20.9115 27.9466 21.7897 27.9466 22.8729C27.9466 23.9562 27.1286 24.8344 26.1196 24.8344Z" fill="#6C7086"/>
<path fill-rule="evenodd" clip-rule="evenodd" d="M6.18513 9.90038C5.52844 9.90038 4.99609 10.4327 4.99609 11.0894C4.99609 11.7461 5.52844 12.2784 6.18512 12.2784H7.17267C8.27724 12.2784 9.17267 13.1739 9.17267 14.2784V22.1171C9.17267 22.9044 9.8109 23.5426 10.5982 23.5426C11.3855 23.5426 12.0237 22.9044 12.0237 22.1171V14.2784C12.0237 13.1739 12.9191 12.2784 14.0237 12.2784H15.0113C15.6679 12.2784 16.2003 11.7461 16.2003 11.0894C16.2003 10.4327 15.6679 9.90038 15.0113 9.90038H6.18513ZM24.76 12.5715C24.7883 12.5924 24.8158 12.6138 24.8424 12.6359C25.4408 13.1315 26.0381 13.8238 26.8151 13.8238H26.9699C27.1094 13.8238 27.2466 13.7878 27.3749 13.7332C27.8111 13.5475 28.1762 13.1368 28.0388 12.6832C27.9299 12.3238 27.7695 11.989 27.5576 11.6789C27.1358 11.0617 26.5452 10.5798 25.7858 10.2334C25.0309 9.88706 24.1471 9.71387 23.1346 9.71387C22.1399 9.71387 21.2517 9.88706 20.4702 10.2334C19.6885 10.5798 19.0735 11.0617 18.6249 11.6789C18.1809 12.2962 17.961 13.0178 17.9656 13.8439C17.961 14.8518 18.2919 15.6535 18.958 16.2485C19.1007 16.3759 19.3214 16.3124 19.4136 16.1448C19.566 15.8678 19.7653 15.6134 20.0078 15.3945C20.327 15.1062 20.6662 14.839 21.0233 14.5959C21.1218 14.5288 21.1402 14.3908 21.0763 14.2902C20.9652 14.1081 20.9142 13.8949 20.923 13.6507C20.923 13.3576 21.0074 13.0955 21.1763 12.8646C21.3494 12.6337 21.598 12.4539 21.9223 12.3251C22.2464 12.1918 22.6439 12.1252 23.1146 12.1252C23.8073 12.1252 24.3559 12.274 24.76 12.5715ZM17.6133 19.4565C17.6194 19.5712 17.7595 19.6226 17.8473 19.5483C17.9527 19.4592 17.8939 19.2594 17.7558 19.2594H17.7466C17.6694 19.2594 17.6071 19.323 17.6105 19.4002C17.6114 19.419 17.6123 19.4378 17.6133 19.4565Z" fill="#89B4FA"/>
</g>
<defs>
<filter id="filter0_d_2_935" x="-3.33765" y="0.0961914" width="40.1566" height="40.1565" filterUnits="userSpaceOnUse" color-interpolation-filters="sRGB">
<feFlood flood-opacity="0" result="BackgroundImageFix"/>
<feColorMatrix in="SourceAlpha" type="matrix" values="0 0 0 0 0 0 0 0 0 0 0 0 0 0 0 0 0 0 127 0" result="hardAlpha"/>
<feOffset dy="4"/>
<feGaussianBlur stdDeviation="2"/>
<feComposite in2="hardAlpha" operator="out"/>
<feColorMatrix type="matrix" values="0 0 0 0 0 0 0 0 0 0 0 0 0 0 0 0 0 0 0.25 0"/>
<feBlend mode="normal" in2="BackgroundImageFix" result="effect1_dropShadow_2_935"/>
<feBlend mode="normal" in="SourceGraphic" in2="effect1_dropShadow_2_935" result="shape"/>
</filter>
<clipPath id="clip0_2_935">
<rect width="32.1566" height="32.1566" fill="white" transform="translate(0.662354 0.0961914)"/>
</clipPath>
</defs>
</svg>
