<svg width="36" height="38" viewBox="0 0 36 38" fill="none" xmlns="http://www.w3.org/2000/svg">
<g filter="url(#filter0_d_2_940)">
<path d="M18.0544 8.13452C13.6216 8.13452 10.0153 11.7409 10.0153 16.1737C10.0153 20.6065 13.6216 24.2128 18.0544 24.2128C22.4872 24.2128 26.0936 20.6065 26.0936 16.1737C26.0936 11.7409 22.4872 8.13452 18.0544 8.13452ZM18.0544 20.3339C15.7564 20.3339 13.8941 18.4717 13.8941 16.1737C13.8941 13.8757 15.7564 12.0134 18.0544 12.0134C20.3524 12.0134 22.2147 13.8757 22.2147 16.1737C22.2147 18.4717 20.3524 20.3339 18.0544 20.3339Z" fill="#F5E0DC"/>
<path fill-rule="evenodd" clip-rule="evenodd" d="M20.2791 6.24644C19.4413 6.05764 18.7723 5.359 18.7723 4.50021V4.50021C18.7723 3.56183 19.5639 2.80605 20.4868 2.97589C26.7253 4.12398 31.4518 9.59115 31.4518 16.1614C31.4518 22.7317 26.7253 28.1975 20.487 29.3467C19.564 29.5167 18.7723 28.761 18.7723 27.8226V27.8226C18.7723 26.9638 19.4413 26.2653 20.279 26.0765C24.8124 25.055 28.209 20.9992 28.209 16.1614C28.209 11.3239 24.8125 7.26806 20.2791 6.24644ZM10.3623 22.8093C10.3628 22.8093 10.3631 22.8086 10.3628 22.8082C9.28552 21.5642 8.50381 20.0576 8.12946 18.3985C7.94033 17.5604 7.2414 16.8911 6.38214 16.8911V16.8911C5.44338 16.8911 4.6872 17.6823 4.8574 18.6055C5.18066 20.3589 5.84575 21.9922 6.77971 23.4346C7.40322 24.3975 8.74318 24.4281 9.55437 23.617L10.3619 22.8094C10.362 22.8093 10.3622 22.8093 10.3623 22.8093V22.8093ZM17.3115 29.5496C17.3124 29.5496 17.3131 29.5488 17.3131 29.5479V27.8663C17.3131 26.983 16.6249 26.2649 15.764 26.0672C14.6309 25.807 13.5698 25.3568 12.6156 24.7519C11.89 24.2918 10.9225 24.313 10.3149 24.9206V24.9206C9.65082 25.5847 9.67615 26.6792 10.4497 27.2119C12.4208 28.5694 14.7719 29.4136 17.3115 29.5496V29.5496Z" fill="url(#paint0_linear_2_940)"/>
</g>
<defs>
<filter id="filter0_d_2_940" x="-2.02441" y="0.0961914" width="40.1566" height="40.1565" filterUnits="userSpaceOnUse" color-interpolation-filters="sRGB">
<feFlood flood-opacity="0" result="BackgroundImageFix"/>
<feColorMatrix in="SourceAlpha" type="matrix" values="0 0 0 0 0 0 0 0 0 0 0 0 0 0 0 0 0 0 127 0" result="hardAlpha"/>
<feOffset dy="4"/>
<feGaussianBlur stdDeviation="2"/>
<feComposite in2="hardAlpha" operator="out"/>
<feColorMatrix type="matrix" values="0 0 0 0 0 0 0 0 0 0 0 0 0 0 0 0 0 0 0.25 0"/>
<feBlend mode="normal" in2="BackgroundImageFix" result="effect1_dropShadow_2_940"/>
<feBlend mode="normal" in="SourceGraphic" in2="effect1_dropShadow_2_940" result="shape"/>
</filter>
<linearGradient id="paint0_linear_2_940" x1="19.2978" y1="4.6561" x2="6.11893" y2="17.835" gradientUnits="userSpaceOnUse">
<stop stop-color="#74C7EC"/>
<stop offset="1" stop-color="#F38BA8"/>
</linearGradient>
</defs>
</svg>
