<svg width="34" height="33" viewBox="0 0 34 33" fill="none" xmlns="http://www.w3.org/2000/svg">
<path d="M17.0544 8.13452C12.6216 8.13452 9.01526 11.7409 9.01526 16.1737C9.01526 20.6065 12.6216 24.2128 17.0544 24.2128C21.4872 24.2128 25.0936 20.6065 25.0936 16.1737C25.0936 11.7409 21.4872 8.13452 17.0544 8.13452ZM17.0544 20.3339C14.7564 20.3339 12.8941 18.4717 12.8941 16.1737C12.8941 13.8757 14.7564 12.0134 17.0544 12.0134C19.3524 12.0134 21.2147 13.8757 21.2147 16.1737C21.2147 18.4717 19.3524 20.3339 17.0544 20.3339Z" fill="#F5E0DC"/>
<path fill-rule="evenodd" clip-rule="evenodd" d="M19.2791 6.24644C18.4413 6.05764 17.7723 5.359 17.7723 4.50021C17.7723 3.56183 18.5639 2.80605 19.4868 2.97589C25.7253 4.12398 30.4518 9.59115 30.4518 16.1614C30.4518 22.7317 25.7253 28.1975 19.487 29.3467C18.564 29.5167 17.7723 28.761 17.7723 27.8226C17.7723 26.9638 18.4413 26.2653 19.279 26.0765C23.8124 25.055 27.209 20.9992 27.209 16.1614C27.209 11.3239 23.8125 7.26806 19.2791 6.24644ZM9.36232 22.8093C9.36285 22.8093 9.36314 22.8086 9.36279 22.8082C8.28552 21.5642 7.50381 20.0576 7.12946 18.3985C6.94033 17.5604 6.2414 16.8911 5.38214 16.8911C4.44338 16.8911 3.6872 17.6823 3.8574 18.6055C4.18066 20.3589 4.84575 21.9922 5.77971 23.4346C6.40322 24.3975 7.74319 24.4281 8.55437 23.617L9.36188 22.8094C9.36199 22.8093 9.36215 22.8093 9.36232 22.8093ZM16.3115 29.5496C16.3124 29.5496 16.3131 29.5488 16.3131 29.5479V27.8663C16.3131 26.983 15.6249 26.2649 14.764 26.0672C13.6309 25.807 12.5698 25.3568 11.6156 24.7519C10.89 24.2918 9.92251 24.313 9.31494 24.9206C8.65082 25.5847 8.67615 26.6792 9.44966 27.2119C11.4208 28.5694 13.7719 29.4136 16.3115 29.5496Z" fill="url(#paint0_linear_2_940)"/>
<defs>
<linearGradient id="paint0_linear_2_940" x1="18.2978" y1="4.6561" x2="5.11893" y2="17.835" gradientUnits="userSpaceOnUse">
<stop stop-color="#74C7EC"/>
<stop offset="1" stop-color="#F38BA8"/>
</linearGradient>
</defs>
</svg>
