<svg width="33" height="33" viewBox="0 0 33 33" fill="none" xmlns="http://www.w3.org/2000/svg">
<path d="M25.9579 17.3758C25.9111 17.3981 25.8644 17.4265 25.8176 17.4551C25.8156 17.158 25.659 17.0136 25.5491 16.857C25.0202 16.1004 23.9991 16.3871 23.6981 17.0827C23.6573 17.1784 24.3206 18.0429 24.292 18.1364C23.8527 18.3338 23.4296 18.7873 23.3441 19.184C23.4316 18.7751 23.1265 18.5839 22.6648 18.7365C22.2031 18.889 21.7657 19.3285 21.7026 19.7353C21.7677 19.3285 21.4383 19.1067 20.9664 19.2206C20.4943 19.3345 20.0734 19.7393 20.0306 20.1441C20.0734 19.7393 19.7194 19.4851 19.2434 19.5563C18.7674 19.6274 18.3606 19.9976 18.3402 20.4004C18.3586 19.9956 17.9844 19.7089 17.5043 19.7353C17.0242 19.7617 16.6357 20.0953 16.6398 20.5001C16.6357 20.0973 16.2411 19.7718 15.761 19.7556C15.2811 19.7393 14.9109 20.0343 14.9373 20.4391C14.9109 20.0343 14.4959 19.6742 14.0199 19.6132C13.5419 19.5522 13.1941 19.8126 13.2429 20.2173C13.1941 19.8126 12.7628 19.4158 12.2909 19.3121C11.819 19.2084 11.4936 19.4362 11.5648 19.843C11.4936 19.4382 11.0481 19.007 10.5823 18.8626C10.1165 18.7202 9.81546 18.9175 9.91106 19.3243C9.81748 18.9175 8.79028 17.1988 8.6784 16.9445C8.37736 16.2488 7.79765 16.0292 7.30132 16.4807C7.09792 16.6658 6.97181 17.0014 7.07554 17.4957C6.75213 17.4062 6.59144 17.5628 6.70941 17.9066C7.35421 19.7902 7.99088 21.7063 8.51974 23.6325C8.74553 24.4564 8.97944 25.5243 9.64255 26.1386C10.1185 26.5779 10.7125 26.883 11.2841 27.1291C12.9907 27.8614 14.8843 28.0851 16.648 28.0973C18.5356 28.1095 20.9358 27.654 22.6058 26.704C23.2384 26.346 23.8405 25.929 24.1232 25.2272C24.5889 24.0638 24.9267 22.8433 25.2826 21.6758C25.6874 20.3496 25.9926 18.9419 26.5173 17.7032C26.6475 17.2963 26.3994 17.156 25.9579 17.3758Z" fill="#7F849C"/>
<path d="M16.5849 22.7226C21.6413 22.7226 25.7403 21.0752 25.7403 19.0429C25.7403 17.0108 21.6413 15.3633 16.5849 15.3633C11.5285 15.3633 7.42944 17.0108 7.42944 19.0429C7.42944 21.0752 11.5285 22.7226 16.5849 22.7226Z" fill="#854D0E"/>
<path d="M24.3589 13.7883C24.1881 13.6154 23.9785 13.4527 23.7284 13.3103C23.7284 13.3103 17.8946 15.2081 13.8346 15.0026C9.77453 14.7972 10.3726 14.3538 8.30999 15.6678C8.30999 15.6678 7.74655 16.4732 8.43407 16.9635C9.33313 17.6042 10.4682 18.133 11.713 18.5358C11.8635 18.4261 12.0141 18.3568 12.1422 18.3568C16.0131 17.0124 23.5432 18.7168 24.3589 13.7883Z" fill="#F38BA8"/>
<path d="M24.3581 13.7883C23.5424 18.7169 16.0123 17.0123 12.1434 18.3568C12.0153 18.3568 11.8648 18.424 11.7142 18.5359C14.8365 19.5448 18.6566 19.7502 21.2073 18.902C24.411 17.8402 25.8573 15.3079 24.3581 13.7883Z" fill="#DB2777"/>
<path opacity="0.5" d="M24.3581 13.7883C23.5424 18.7169 16.0123 17.0123 12.1434 18.3568C12.0153 18.3568 11.8648 18.424 11.7142 18.5359C14.8365 19.5448 18.6566 19.7502 21.2073 18.902C24.411 17.8402 25.8573 15.3079 24.3581 13.7883Z" fill="#F38BA8"/>
<path d="M22.7049 10.158C22.7049 10.158 23.8095 10.8129 23.8095 12.5073C23.8095 14.2017 22.3998 16.3986 16.1451 15.77C9.94513 15.1455 8.34431 15.6744 8.34431 15.6744C8.34431 15.6744 6.44449 13.0952 10.415 13.1094C13.9686 13.1216 19.2531 13.5406 20.498 12.7514C22.351 11.5716 22.4202 11.5391 22.7049 10.158Z" fill="#F9A8D4"/>
<path d="M15.4835 8.89996C17.4076 7.69781 17.3039 5.95054 16.3865 4.46362C16.2868 4.52058 16.2279 4.64059 16.2787 4.76468C16.48 5.24878 16.659 5.93223 16.3336 6.39193C15.7824 7.16896 14.7613 7.36627 13.0913 8.29787C11.4986 9.18473 10.8864 10.0309 10.7745 11.0927C10.7643 11.1924 10.8213 11.288 10.9148 11.3348C11.0938 11.4243 11.4356 11.5707 11.9522 11.705C12.5136 10.3157 14.2039 9.53866 15.4835 8.89996Z" fill="#F38BA8"/>
<path d="M19.682 6.66441C18.8216 5.73686 17.8045 4.98019 16.6267 4.45132C16.5414 4.41268 16.4539 4.42489 16.3848 4.46353C17.3022 5.94841 17.4059 7.69568 15.4816 8.89985C14.2041 9.53856 12.5139 10.3156 11.9504 11.7048C12.5118 11.8513 13.2807 11.9835 14.2814 12.014C16.7346 12.0873 20.04 11.953 20.6014 10.9909C21.1648 10.0308 20.6949 7.7567 19.682 6.66441Z" fill="#F9A8D4"/>
<path d="M22.5315 9.82591C22.5782 9.70793 22.6128 9.58589 22.6372 9.46384C21.9782 8.45494 20.4363 8.14575 20.4363 8.14575C22.1083 11.7054 13.4066 10.9304 10.9413 11.0769C9.89169 11.1399 9.2896 11.6017 8.94177 12.1143C9.4564 11.8457 10.0585 11.6973 10.6626 11.4959C14.5558 10.5683 20.8615 14.4636 22.5315 9.82591Z" fill="#F38BA8"/>
<path d="M22.8818 10.0232C22.8337 9.82449 22.7512 9.63583 22.6377 9.46582C22.6133 9.58989 22.5787 9.7099 22.5319 9.82789C20.8619 14.4655 14.5563 10.5703 10.661 11.4979C10.0589 11.6992 9.45479 11.8457 8.94017 12.1162C8.4703 12.8058 8.46826 13.5828 8.46826 13.5828C11.0048 12.8139 12.8761 13.5869 17.7519 13.658C22.6275 13.7251 23.2316 11.4796 22.8818 10.0232Z" fill="#DB2777"/>
<path opacity="0.5" d="M22.8818 10.0232C22.8337 9.82449 22.7512 9.63583 22.6377 9.46582C22.6133 9.58989 22.5787 9.7099 22.5319 9.82789C20.8619 14.4655 14.5563 10.5703 10.661 11.4979C10.0589 11.6992 9.45479 11.8457 8.94017 12.1162C8.4703 12.8058 8.46826 13.5828 8.46826 13.5828C11.0048 12.8139 12.8761 13.5869 17.7519 13.658C22.6275 13.7251 23.2316 11.4796 22.8818 10.0232Z" fill="#F38BA8"/>
<path d="M25.9611 18.7847C25.5156 18.9922 25.0497 19.4682 24.9338 19.8649C25.0519 19.4682 24.7772 19.2993 24.3217 19.4682C23.864 19.637 23.4083 20.0743 23.3127 20.4629C23.4083 20.0743 23.1072 19.8811 22.6415 20.0113C22.1756 20.1414 21.7302 20.5422 21.659 20.9246C21.7322 20.5422 21.4068 20.3225 20.9349 20.414C20.463 20.5056 20.0317 20.8717 19.9829 21.25C20.0337 20.8717 19.6839 20.6235 19.208 20.6764C18.7299 20.7294 18.3169 21.0629 18.2906 21.4372C18.3169 21.0629 17.9488 20.7842 17.4688 20.7985C16.9887 20.8127 16.5942 21.1138 16.59 21.488C16.5942 21.1138 16.2056 20.8045 15.7255 20.7801C15.2476 20.7558 14.8712 21.0263 14.8916 21.4026C14.8732 21.0263 14.4665 20.6866 13.9884 20.6235C13.5125 20.5605 13.1585 20.8025 13.2013 21.1809C13.1585 20.8025 12.7375 20.4263 12.2656 20.3266C11.7937 20.2269 11.4662 20.4385 11.5293 20.8229C11.4642 20.4385 11.0289 20.0296 10.5651 19.8893C10.1013 19.7489 9.79825 19.938 9.88572 20.3286C9.79825 19.938 9.35075 19.4905 8.89714 19.3135C8.44355 19.1367 8.1669 19.2993 8.27675 19.6981C8.1669 19.2993 7.71127 18.8132 7.26988 18.5977C6.82848 18.3819 6.58033 18.5224 6.71051 18.9311C7.2353 20.1638 7.54245 21.5449 7.94724 22.8224C8.30523 23.9472 8.64289 25.1127 9.11073 26.1969C9.39347 26.8519 9.99148 27.1977 10.6302 27.4865C12.4588 28.3103 14.5946 28.5239 16.5758 28.5422C18.3659 28.5606 20.2209 28.4039 21.9275 27.8364C22.5011 27.6452 23.095 27.4072 23.5711 27.0268C24.2362 26.496 24.4701 25.4809 24.6979 24.6958C25.2411 22.8163 25.8818 20.9835 26.5123 19.1325C26.6506 18.7217 26.4065 18.5773 25.9611 18.7847Z" fill="#74C7EC"/>
</svg>
