<svg width="33" height="33" viewBox="0 0 33 33" fill="none" xmlns="http://www.w3.org/2000/svg">
<path fill-rule="evenodd" clip-rule="evenodd" d="M5.98501 8.2908H27.4227V24.3691H5.98501V8.2908ZM3.3053 8.2908C3.3053 6.81083 4.50505 5.61108 5.98501 5.61108H27.4227C28.9028 5.61108 30.1025 6.81083 30.1025 8.2908V24.3691C30.1025 25.8491 28.9028 27.0488 27.4227 27.0488H5.98501C4.50505 27.0488 3.3053 25.8491 3.3053 24.3691V8.2908ZM13.3542 19.8353V12.8256C13.3542 12.0625 14.1714 11.5778 14.8411 11.9438L21.2538 15.4482C21.951 15.8292 21.9512 16.8307 21.2539 17.2118L14.8411 20.717C14.1714 21.0831 13.3542 20.5985 13.3542 19.8353Z" fill="#6C7086"/>
</svg>
