<svg width="33" height="33" viewBox="0 0 33 33" fill="none" xmlns="http://www.w3.org/2000/svg">
<path d="M9.22355 24.67L5.20421 21.6553C5.07889 21.5624 4.9772 21.441 4.90735 21.3013C4.83751 21.1617 4.80146 21.0077 4.80213 20.8516V11.8075C4.80146 11.6514 4.83751 11.4973 4.90735 11.3577C4.9772 11.218 5.07889 11.0968 5.20421 11.0037L9.22355 7.98901C9.11557 8.0904 9.03397 8.2166 8.98583 8.35668C8.9377 8.49677 8.92448 8.64647 8.94732 8.79281V23.8662C8.92448 24.0127 8.9377 24.1623 8.98583 24.3024C9.03397 24.4425 9.11557 24.5686 9.22355 24.67Z" fill="#7E22CE"/>
<path d="M28.4719 8.45748C28.3063 8.34871 28.1124 8.29104 27.9143 8.29169C27.7859 8.29064 27.6585 8.31495 27.5395 8.3632C27.4205 8.41143 27.3123 8.48266 27.2209 8.5728L27.1508 8.64327L22.8796 12.7383L19.1318 16.3307L14.6948 20.5864L10.59 24.5205L10.5195 24.5909C10.4282 24.6813 10.3199 24.7525 10.2009 24.8009C10.0819 24.8491 9.95454 24.8735 9.82611 24.8724C9.60872 24.872 9.39727 24.8014 9.22319 24.6712L5.20386 21.6565C5.40805 21.8099 5.66304 21.8797 5.9169 21.8517C6.17077 21.8237 6.40441 21.7001 6.57026 21.5058L8.82147 18.8932L11.032 16.3258L14.6948 12.0751L21.1111 4.62356C21.2044 4.51321 21.3205 4.42456 21.4516 4.36383C21.5826 4.30309 21.7254 4.27175 21.8698 4.27198C22.0679 4.27133 22.2619 4.329 22.4275 4.43779L28.4719 8.45748Z" fill="#9333EA"/>
<path d="M28.4719 24.2041L22.4425 28.2238C22.2375 28.3578 21.991 28.4131 21.7482 28.3799C21.5054 28.3466 21.283 28.2271 21.1214 28.0428L14.6948 20.5865L11.032 16.326L8.82147 13.7635L6.57026 11.1505C6.40292 10.9582 6.16906 10.8364 5.91563 10.8094C5.66218 10.7824 5.40792 10.8523 5.20386 11.005L9.22319 7.99033C9.39727 7.8601 9.60872 7.78953 9.82611 7.7891C9.95454 7.788 10.0819 7.81232 10.2009 7.86063C10.3199 7.90894 10.4282 7.9803 10.5195 8.07059L10.59 8.14105L14.6948 12.0752L19.1318 16.3308L22.885 19.9285L27.1508 24.0182L27.2209 24.0888C27.3123 24.1789 27.4205 24.25 27.5395 24.2983C27.6585 24.3465 27.7859 24.3709 27.9143 24.3698C28.1124 24.3705 28.3063 24.3129 28.4719 24.2041Z" fill="#CBA6F7"/>
<path d="M28.9206 9.29604V23.3647C28.9207 23.5307 28.88 23.6939 28.8019 23.8403C28.7239 23.9866 28.611 24.1114 28.4732 24.2038L22.4437 28.2233C22.5817 28.131 22.6945 28.0061 22.7725 27.8598C22.8505 27.7134 22.8912 27.5501 22.8911 27.3842V5.27671C22.889 5.10963 22.8455 4.94564 22.7649 4.79928C22.6844 4.65291 22.5689 4.52865 22.4287 4.4375L28.4732 8.45721C28.6106 8.54983 28.7232 8.67472 28.8012 8.82097C28.8792 8.9672 28.9202 9.13033 28.9206 9.29604Z" fill="#CBA6F7"/>
<path opacity="0.4" d="M28.9206 9.29604V23.3647C28.9207 23.5307 28.88 23.6939 28.8019 23.8403C28.7239 23.9866 28.611 24.1114 28.4732 24.2038L22.4437 28.2233C22.5817 28.131 22.6945 28.0061 22.7725 27.8598C22.8505 27.7134 22.8912 27.5501 22.8911 27.3842V5.27671C22.889 5.10963 22.8455 4.94564 22.7649 4.79928C22.6844 4.65291 22.5689 4.52865 22.4287 4.4375L28.4732 8.45721C28.6106 8.54983 28.7232 8.67472 28.8012 8.82097C28.8792 8.9672 28.9202 9.13033 28.9206 9.29604Z" fill="#7E22CE"/>
</svg>
