<svg width="33" height="33" viewBox="0 0 33 33" fill="none" xmlns="http://www.w3.org/2000/svg">
<path fill-rule="evenodd" clip-rule="evenodd" d="M17.0464 21.1821C17.0464 21.6118 17.5116 21.8804 17.8838 21.6655L21.5273 19.5619C21.7 19.4622 21.8063 19.2779 21.8063 19.0785V14.8714C21.8063 14.4417 21.3411 14.173 20.9689 14.3879L17.3255 16.4915C17.1527 16.5912 17.0464 16.7754 17.0464 16.9749V21.1821ZM20.4106 13.4209C20.7828 13.2061 20.7828 12.6689 20.4106 12.454L16.7673 10.3504C16.5944 10.2507 16.3817 10.2507 16.209 10.3504L12.5053 12.4887C12.1331 12.7036 12.1331 13.2408 12.5053 13.4557L16.1488 15.5592C16.3215 15.6589 16.5343 15.6589 16.707 15.5592L20.4106 13.4209ZM12.0072 14.4575C11.635 14.2426 11.1698 14.5111 11.1698 14.9409V19.0785C11.1698 19.2779 11.2762 19.4622 11.4489 19.5619L15.0924 21.6655C15.4645 21.8804 15.9299 21.6118 15.9299 21.1821V17.0445C15.9299 16.845 15.8233 16.6607 15.6506 16.5609L12.0072 14.4575Z" fill="#89B4FA"/>
<path d="M7.79318 10.6656L9.45925 11.6275C9.63199 11.7273 9.8448 11.7273 10.0175 11.6275L15.6496 8.37585C15.8224 8.27612 15.9288 8.09182 15.9288 7.89237V5.96854C15.9288 5.53878 15.4636 5.27017 15.0914 5.48505L7.79318 9.69867C7.42099 9.91356 7.42099 10.4508 7.79318 10.6656Z" fill="#93C5FD"/>
<path d="M17.0463 5.96854V7.89236C17.0463 8.09181 17.1526 8.27611 17.3254 8.37583L22.9576 11.6275C23.1303 11.7273 23.3431 11.7273 23.5158 11.6275L25.1819 10.6656C25.5541 10.4508 25.5541 9.91356 25.1819 9.69867L17.8837 5.48505C17.5115 5.27017 17.0463 5.53878 17.0463 5.96854Z" fill="#93C5FD"/>
<path d="M23.7949 13.0777V19.5811C23.7949 19.7806 23.9013 19.9649 24.074 20.0646L25.7401 21.0265C26.1123 21.2414 26.5775 20.9728 26.5775 20.5431V12.1158C26.5775 11.686 26.1123 11.4174 25.7401 11.6323L24.074 12.5942C23.9013 12.6939 23.7949 12.8782 23.7949 13.0777Z" fill="#93C5FD"/>
<path d="M22.9573 21.0326L17.3251 24.2843C17.1524 24.384 17.046 24.5684 17.046 24.7678V26.6917C17.046 27.1213 17.5112 27.39 17.8834 27.1751L25.1816 22.9615C25.5539 22.7466 25.5539 22.2094 25.1816 21.9945L23.5155 21.0326C23.3428 20.9328 23.13 20.9328 22.9573 21.0326Z" fill="#93C5FD"/>
<path d="M15.6497 24.2842L10.0177 21.0325C9.84492 20.9328 9.63211 20.9328 9.45938 21.0325L7.79329 21.9945C7.42112 22.2093 7.42112 22.7466 7.79329 22.9615L15.0915 27.1751C15.4637 27.39 15.9289 27.1214 15.9289 26.6916V24.7678C15.9289 24.5683 15.8226 24.384 15.6497 24.2842Z" fill="#93C5FD"/>
<path d="M9.18192 19.5827V13.0794C9.18192 12.8799 9.07551 12.6956 8.90279 12.5959L7.2367 11.634C6.86452 11.4191 6.39929 11.6877 6.39929 12.1175V20.5446C6.39929 20.9744 6.86452 21.2431 7.2367 21.0282L8.90279 20.0663C9.07551 19.9665 9.18192 19.7822 9.18192 19.5827Z" fill="#93C5FD"/>
</svg>
