<svg width="33" height="33" viewBox="0 0 33 33" fill="none" xmlns="http://www.w3.org/2000/svg">
<g clip-path="url(#clip0_2_1003)">
<path d="M8.00012 29C9.93312 29 11.5001 27.433 11.5001 25.5C11.5001 23.567 9.93312 22 8.00012 22C6.06713 22 4.50012 23.567 4.50012 25.5C4.50012 27.433 6.06713 29 8.00012 29Z" fill="#FAB387"/>
<mask id="mask0_2_1003" style="mask-type:alpha" maskUnits="userSpaceOnUse" x="5" y="0" width="28" height="30">
<path d="M32.724 0.253662H5.92688V29.7305H32.724V0.253662Z" fill="#BAC2DE"/>
</mask>
<g mask="url(#mask0_2_1003)">
<path d="M7.26599 36.4285C13.1859 36.4285 17.9849 31.6295 17.9849 25.7096C17.9849 19.7897 13.1859 14.9907 7.26599 14.9907C1.34612 14.9907 -3.45288 19.7897 -3.45288 25.7096C-3.45288 31.6295 1.34612 36.4285 7.26599 36.4285Z" stroke="#FAB387" stroke-width="4.5938"/>
</g>
<mask id="mask1_2_1003" style="mask-type:alpha" maskUnits="userSpaceOnUse" x="6" y="0" width="27" height="30">
<path d="M32.5002 0H6.50024V30H32.5002V0Z" fill="#BAC2DE"/>
</mask>
<g mask="url(#mask1_2_1003)">
<path d="M7.26523 45.8088C18.365 45.8088 27.3631 36.8107 27.3631 25.7109C27.3631 14.6112 18.365 5.61304 7.26523 5.61304C-3.83452 5.61304 -12.8326 14.6112 -12.8326 25.7109C-12.8326 36.8107 -3.83452 45.8088 7.26523 45.8088Z" stroke="#FAB387" stroke-width="4.5938"/>
</g>
</g>
<defs>
<clipPath id="clip0_2_1003">
<rect width="32.1566" height="32.1566" fill="white" transform="translate(0.56604 0.25293)"/>
</clipPath>
</defs>
</svg>
