<svg width="33" height="33" viewBox="0 0 33 33" fill="none" xmlns="http://www.w3.org/2000/svg">
<path d="M9.38193 9.1873C8.63792 7.86861 9.59071 6.23706 11.1048 6.23706C11.8375 6.23706 12.5102 6.64205 12.8531 7.28957L16.6601 14.4797C16.6873 14.531 16.7406 14.5631 16.7986 14.5631C16.8567 14.5631 16.91 14.531 16.9372 14.4797L20.7441 7.2896C21.087 6.64206 21.7597 6.23706 22.4924 6.23706C24.0065 6.23706 24.9593 7.86861 24.2153 9.18731L19.4735 17.5918C19.0505 18.3416 18.8282 19.1879 18.8282 20.0487V23.5404C18.8282 24.6613 17.9195 25.57 16.7986 25.57C15.6777 25.57 14.769 24.6613 14.769 23.5404V20.0488C14.769 19.1879 14.5468 18.3416 14.1238 17.5918L9.38193 9.1873Z" fill="#CBA6F7"/>
</svg>
