<svg width="37" height="40" viewBox="0 0 37 40" fill="none" xmlns="http://www.w3.org/2000/svg">
<g filter="url(#filter0_d_2_1017)">
<path fill-rule="evenodd" clip-rule="evenodd" d="M9.54961 27.8452C9.3144 27.8176 9.07919 27.7001 8.84396 27.5824C8.73896 27.5299 8.64933 27.4723 8.57509 27.4094C8.31721 27.1915 8.24483 26.9118 8.35794 26.5701C8.40228 26.4362 8.44481 26.2969 8.50787 26.1707C8.56091 26.0648 8.47824 25.9717 8.36124 25.9531C7.96345 25.8897 7.7493 25.6427 7.63402 25.2969C6.9882 23.6177 7.08696 22.311 8.28798 21.0187C8.38693 20.9123 8.47342 20.7939 8.54614 20.6681C8.63748 20.5098 8.70952 20.3851 8.70952 20.1883C8.70952 18.4406 8.9784 16.8272 10.1883 15.3484C10.5917 14.8108 11.1294 14.2729 11.8016 13.8696C11.8907 13.8251 11.9503 13.7806 11.9852 13.7312C12.1478 13.5011 11.8418 13.2246 11.6856 12.9901C11.3112 12.4285 11.1067 11.8511 10.995 11.1809C10.8874 10.6431 11.124 10.1054 11.3607 9.56762C11.3779 9.52842 11.3952 9.48921 11.4123 9.45001C11.4941 9.26252 11.6101 9.05148 11.7849 8.94503C11.8903 8.88077 11.9978 8.8833 12.1135 8.8401C12.4294 8.72213 12.6995 8.51814 12.9557 8.32457C12.9572 8.32348 12.9586 8.3224 12.96 8.32132C13.1701 8.16259 13.3709 7.99097 13.5706 7.81932C14.4421 7.07019 15.4332 6.74441 16.6415 6.74441C16.9022 6.74441 17.0366 6.6179 17.0444 6.4876C17.0449 6.4796 17.0457 6.4716 17.0477 6.46383C17.0596 6.41652 17.0727 6.3692 17.0868 6.3219C17.1583 6.08162 17.2566 5.84134 17.3819 5.60108C17.4794 5.41384 17.5933 5.2266 17.7234 5.03937C17.7644 4.98034 17.807 4.9213 17.8514 4.86227L18.2547 4.45896C18.4606 4.25306 18.7453 4.20483 18.9278 4.37465C18.931 4.37766 18.9342 4.38071 18.9373 4.38385C19.0533 4.49886 19.1046 4.66352 19.1845 4.80593C19.4021 5.19353 19.5795 5.57639 19.7427 5.92857C19.7481 5.94005 19.7533 5.95149 19.7586 5.9629C19.8423 6.14333 19.9222 6.3154 20.0024 6.47554C20.0036 6.47799 20.0048 6.48042 20.006 6.48283C20.0077 6.48604 20.0093 6.48922 20.0109 6.49235C20.1686 6.79432 20.5617 6.5281 20.8831 6.41501C21.0624 6.35189 21.1804 6.33469 21.2692 6.37772C21.4159 6.44876 21.4832 6.68398 21.6156 7.14773C21.6827 7.42945 21.7391 7.70984 21.7846 7.98889C21.8315 8.27646 21.8669 8.5626 21.8906 8.84732C22.0747 11.055 21.5577 13.1773 20.2713 15.2141C20.204 15.3484 20.1031 15.483 20.0024 15.6174C19.9015 15.7517 19.8007 15.8863 19.7335 16.0206C19.5991 16.2896 19.5991 16.4239 19.868 16.6929C21.0779 17.7684 21.8845 19.2472 22.1534 20.8605C22.1839 21.0739 22.2075 21.2942 22.2241 21.5184C22.2265 21.5509 22.2288 21.5835 22.231 21.6162C22.2623 22.0984 22.2619 22.5959 22.2299 23.0777C22.2269 23.1226 22.2237 23.1672 22.2201 23.2118C22.2038 23.4181 22.1815 23.6211 22.1534 23.8181C22.1199 23.9519 22.1031 24.0524 22.103 24.1259C22.1025 24.3476 22.2537 24.3224 22.5567 24.2214C22.7359 24.1702 22.9152 24.1141 23.0936 24.0531C23.1614 24.0299 23.2291 24.0061 23.2967 23.9814C23.6144 23.8657 23.9279 23.7342 24.232 23.5872C24.2533 23.5769 24.2745 23.5666 24.2958 23.5561C24.4179 23.496 24.5383 23.4333 24.6568 23.368C24.7408 23.3218 24.8237 23.2744 24.9057 23.2256C25.0212 23.1567 25.1346 23.0853 25.2455 23.0115C25.3609 22.9456 25.4742 22.8797 25.5862 22.8145C26.1586 22.4816 26.6976 22.1681 27.3023 21.973C27.5451 21.8946 27.7983 21.8354 28.0687 21.8015C28.2085 21.8015 28.3321 21.7854 28.4508 21.7698C28.4833 21.7657 28.5152 21.7614 28.547 21.7577C28.6253 21.7484 28.7027 21.7413 28.7827 21.7418C28.8951 21.7424 29.0125 21.7577 29.1442 21.8015C29.5475 21.936 29.8164 22.3393 29.8164 22.7426C29.8164 23.1459 29.5475 23.4148 29.1442 23.5492C28.9289 23.5923 28.7169 23.6456 28.5086 23.7084C28.4436 23.7279 28.379 23.7483 28.3147 23.7696C28.2322 23.7969 28.1502 23.8257 28.0687 23.8559C27.9446 23.9017 27.8219 23.9506 27.7005 24.0026C27.2399 24.1993 26.7976 24.4376 26.3738 24.704C26.3343 24.7288 26.2949 24.7538 26.2556 24.7793C26.0019 24.943 25.7548 25.1167 25.5143 25.2969C24.835 25.7725 24.0868 26.1795 23.3221 26.5176C23.2897 26.532 23.2574 26.5462 23.225 26.5602C22.873 26.713 22.5182 26.8511 22.1653 26.9749C21.9294 27.0576 21.6945 27.1338 21.462 27.2035C21.208 27.2797 20.9439 27.3109 20.7171 27.4482C20.5964 27.5213 20.4853 27.6282 20.3642 27.7005C20.0013 27.9172 19.6316 27.9776 19.2143 28.0457C19.0792 28.0679 18.9389 28.0908 18.7925 28.1201C18.6779 28.1306 18.5643 28.141 18.4513 28.1513C17.1048 28.2746 15.8548 28.389 14.4904 28.389C14.4071 28.389 14.3238 28.389 14.2394 28.3878C14.2161 28.3875 14.1934 28.3954 14.175 28.4097C14.1501 28.429 14.1256 28.4468 14.1018 28.4629C14.0979 28.4655 14.0926 28.4645 14.0899 28.4605C14.0882 28.4578 14.088 28.4544 14.0897 28.4516C14.0925 28.4467 14.0953 28.4417 14.0981 28.4368C14.1113 28.4135 14.0949 28.3845 14.068 28.3835C14.058 28.3831 14.0479 28.3827 14.0378 28.3823C13.7716 28.3708 13.4856 28.3394 13.146 28.2546C13.0398 28.2191 12.9335 28.1744 12.8322 28.1204C12.7538 28.0786 12.6784 28.0311 12.6082 27.9782C12.5061 27.9012 12.415 27.8123 12.342 27.7117C12.2836 27.6313 12.2367 27.5434 12.2049 27.4479C12.1089 27.0639 12.1501 26.7484 12.3284 26.5014C12.3386 26.4872 12.3494 26.4732 12.3605 26.4595C12.4976 26.2907 12.7305 26.2501 12.9322 26.1689C12.9347 26.1679 12.9371 26.1669 12.9395 26.1659C12.9497 26.1618 12.9596 26.1578 12.9694 26.1536C13.0119 26.136 13.0239 26.0378 12.9853 26.0126C12.8753 25.9406 12.7924 25.8609 12.7189 25.7555C12.7098 25.7425 12.7008 25.729 12.6919 25.7151C12.6309 25.6195 12.5872 25.465 12.4738 25.465C12.3604 25.465 12.3106 25.6166 12.2738 25.7239C12.2728 25.7266 12.2719 25.7293 12.271 25.7321C12.2707 25.733 12.2704 25.734 12.2701 25.7349C12.244 25.813 12.2245 25.891 12.2049 25.9691C12.1984 25.9951 12.1919 26.0211 12.1852 26.0471C12.1275 26.2697 12.0419 26.485 11.9598 26.6997C11.7831 27.1618 11.5601 27.484 11.267 27.6824C11.2199 27.7143 11.171 27.7429 11.1202 27.7685C11.0755 27.791 11.0293 27.811 10.9816 27.8287C10.7781 27.9041 10.5464 27.9363 10.2814 27.9288C10.1175 27.9242 9.94076 27.9044 9.75005 27.8701C9.68379 27.8582 9.61646 27.8531 9.54961 27.8452ZM9.30636 30.513C8.50462 30.4304 7.85359 30.0884 7.67912 29.9966C7.66454 29.9889 7.6533 29.983 7.64557 29.9792C7.00723 29.66 6.16886 29.0394 5.79762 27.9257C5.64746 27.4751 5.47598 27.0255 5.27287 26.5961C5.21005 26.4634 5.15818 26.3344 5.11524 26.2127C4.69268 25.0994 4.41788 23.8382 4.63622 22.4969C4.74593 21.8229 4.96732 21.2051 5.27528 20.6376C5.69631 19.8616 6.03619 19.0336 6.16346 18.16C6.37751 16.6907 6.89988 15.1538 8.07886 13.6952C8.43334 13.2288 8.55975 12.6221 8.43419 12.0499C8.40562 11.9197 8.38018 11.7885 8.35759 11.6562C8.17103 10.6577 8.40217 9.80499 8.58335 9.28735C8.67801 9.01689 8.7845 8.76998 8.86133 8.59438C8.88226 8.54654 8.90091 8.50412 8.9178 8.4657C8.97287 8.34043 9.00922 8.25774 9.04469 8.16909C9.17946 7.83213 9.38127 7.52608 9.6379 7.26946C9.64017 7.26718 9.64335 7.26398 9.64734 7.25992C9.6997 7.20694 9.89492 7.00942 10.1266 6.83568C10.255 6.73935 10.5269 6.54582 10.9168 6.40047C11.0739 6.34191 11.2273 6.27187 11.361 6.17084L11.3664 6.16677C11.419 6.1271 11.4889 6.07431 11.5691 6.0161C12.3119 5.31859 13.1236 4.82403 13.9944 4.50732C14.671 4.26121 15.2756 3.83045 15.7076 3.25444C15.7837 3.153 15.8669 3.05709 15.9565 2.96743L16.3598 2.56412C16.9293 1.99461 17.8652 1.48421 19.0043 1.61078C20.1713 1.74044 21.0294 2.4789 21.4576 3.38282C21.5755 3.58925 21.7791 3.72974 22.0068 3.79817C22.1197 3.83212 22.2347 3.87425 22.351 3.92595C23.4138 4.39829 23.8098 5.31727 23.919 5.57932C24.0353 5.85851 24.1273 6.18238 24.1787 6.36404C24.1835 6.3812 24.1881 6.39709 24.1922 6.41156C24.2032 6.44983 24.2133 6.48834 24.2225 6.52706C24.8912 9.33568 24.6953 12.0926 23.5632 14.7093C23.2055 15.5359 23.2764 16.4906 23.7097 17.2802C24.4462 18.6223 26.1492 19.3587 27.6661 19.1517C27.6894 19.1485 27.7128 19.1455 27.7363 19.1425C27.8337 19.1303 27.9318 19.1235 28.03 19.1222C28.0311 19.122 28.0321 19.1219 28.0333 19.1217C28.0513 19.1196 28.0656 19.1177 28.0923 19.1142C28.104 19.1126 28.1179 19.1109 28.1354 19.1086C28.1827 19.1025 28.2568 19.0929 28.3398 19.0846C28.7259 19.046 29.3066 19.031 29.9915 19.2594C31.5462 19.7776 32.4961 21.2472 32.4961 22.7426C32.4961 24.687 31.0699 25.7319 29.9915 26.0914C29.8862 26.1265 29.7786 26.1551 29.6697 26.1769C28.858 26.3393 28.0162 26.7702 27.1222 27.4407C27.0988 27.4582 27.0751 27.4755 27.0511 27.4922C25.6555 28.4692 24.0752 29.1806 22.5934 29.6578C22.1918 29.7872 21.8113 29.9748 21.432 30.1597C20.5402 30.5945 19.6403 30.7068 19.3842 30.7389C19.3504 30.743 19.3279 30.7458 19.318 30.7478C19.2244 30.7665 19.13 30.7803 19.035 30.7888C18.9168 30.7996 18.7984 30.8104 18.6795 30.8214C17.3509 30.9432 15.9831 31.0687 14.4904 31.0687H14.4592C14.03 31.0689 13.3553 31.0691 12.4961 30.8542C12.4295 30.8376 12.3637 30.8184 12.2986 30.7967C11.7891 30.627 11.2447 30.5595 10.709 30.5972C10.2025 30.6328 9.72329 30.586 9.30636 30.513ZM14.0062 28.6247C14.0092 28.6235 14.0097 28.6234 14.0062 28.6247V28.6247ZM22.3849 5.24804C22.39 5.2586 22.3948 5.2683 22.3992 5.27713C22.3986 5.27574 22.3939 5.26543 22.3849 5.24804ZM10.5866 11.4812C10.5921 11.4784 10.5977 11.4756 10.6032 11.4728L10.6015 11.4737C10.598 11.4755 10.593 11.478 10.5866 11.4812Z" fill="#89B4FA"/>
</g>
<defs>
<filter id="filter0_d_2_1017" x="-2.12073" y="0.25293" width="40.1566" height="40.1565" filterUnits="userSpaceOnUse" color-interpolation-filters="sRGB">
<feFlood flood-opacity="0" result="BackgroundImageFix"/>
<feColorMatrix in="SourceAlpha" type="matrix" values="0 0 0 0 0 0 0 0 0 0 0 0 0 0 0 0 0 0 127 0" result="hardAlpha"/>
<feOffset dy="4"/>
<feGaussianBlur stdDeviation="2"/>
<feComposite in2="hardAlpha" operator="out"/>
<feColorMatrix type="matrix" values="0 0 0 0 0 0 0 0 0 0 0 0 0 0 0 0 0 0 0.25 0"/>
<feBlend mode="normal" in2="BackgroundImageFix" result="effect1_dropShadow_2_1017"/>
<feBlend mode="normal" in="SourceGraphic" in2="effect1_dropShadow_2_1017" result="shape"/>
</filter>
</defs>
</svg>
