<svg width="33" height="34" viewBox="0 0 33 34" fill="none" xmlns="http://www.w3.org/2000/svg">
<g filter="url(#filter0_d_2_1019)">
<path fill-rule="evenodd" clip-rule="evenodd" d="M17.3264 20.1596C16.4774 20.1595 16.0146 19.1683 16.5598 18.5174L24.5735 8.95023C25.2553 8.13625 24.3659 6.96094 23.3973 7.39585L20.0614 8.8936C19.9326 8.95143 19.793 8.98133 19.6518 8.98133H13.4329C13.1423 8.98133 12.8661 9.10776 12.6761 9.32771L11.494 10.6965C10.9344 11.3444 11.3947 12.3501 12.2508 12.3501H14.9377C15.7847 12.3501 16.2482 13.3374 15.707 13.989L7.72422 23.6009C7.04141 24.4231 7.95097 25.5992 8.91842 25.1451L12.1608 23.6231C12.2938 23.5607 12.4388 23.5283 12.5857 23.5283H18.7957C19.0863 23.5283 19.3626 23.4019 19.5525 23.182L20.7346 21.8132C21.2942 21.1653 20.8339 20.1596 19.9778 20.1596L17.3264 20.1596Z" fill="#F9E2AF"/>
</g>
<defs>
<filter id="filter0_d_2_1019" x="-3.96411" y="0.25293" width="40.1566" height="40.1565" filterUnits="userSpaceOnUse" color-interpolation-filters="sRGB">
<feFlood flood-opacity="0" result="BackgroundImageFix"/>
<feColorMatrix in="SourceAlpha" type="matrix" values="0 0 0 0 0 0 0 0 0 0 0 0 0 0 0 0 0 0 127 0" result="hardAlpha"/>
<feOffset dy="4"/>
<feGaussianBlur stdDeviation="2"/>
<feComposite in2="hardAlpha" operator="out"/>
<feColorMatrix type="matrix" values="0 0 0 0 0 0 0 0 0 0 0 0 0 0 0 0 0 0 0.25 0"/>
<feBlend mode="normal" in2="BackgroundImageFix" result="effect1_dropShadow_2_1019"/>
<feBlend mode="normal" in="SourceGraphic" in2="effect1_dropShadow_2_1019" result="shape"/>
</filter>
</defs>
</svg>
