<svg width="33" height="33" viewBox="0 0 33 33" fill="none" xmlns="http://www.w3.org/2000/svg">
<path d="M25.9712 27.4486C25.6547 27.8177 25.012 27.6165 25.0043 27.1451L24.8933 20.2524H29.8975C30.8042 20.2524 31.3094 21.2231 30.7458 21.8784L25.9712 27.4486Z" fill="url(#paint0_linear_2_1241)"/>
<path d="M25.9712 27.4486C25.6547 27.8177 25.012 27.6165 25.0043 27.1451L24.8933 20.2524H29.8975C30.8042 20.2524 31.3094 21.2231 30.7458 21.8784L25.9712 27.4486Z" fill="url(#paint1_linear_2_1241)"/>
<path d="M23.9361 16.3599C24.2526 15.9909 24.8934 16.1925 24.9012 16.664L24.9498 23.5563H20.0079C19.1013 23.5563 18.5961 22.5858 19.1597 21.9302L23.9361 16.3599Z" fill="#3ECF8E"/>
<path d="M16.5 25.2158H5.68C4.19988 25.2158 3 24.016 3 22.5358V9.13581C3 7.65569 4.19988 6.45581 5.68 6.45581H9.4104C10.0308 6.45581 10.6321 6.67108 11.1115 7.06491L14.3184 9.69921C14.7979 10.093 15.3992 10.3083 16.0196 10.3083H24.44C25.9202 10.3083 27.12 11.5082 27.12 12.9883" stroke="#6C7086" stroke-width="2" stroke-linecap="round"/>
<defs>
<linearGradient id="paint0_linear_2_1241" x1="24.8936" y1="21.781" x2="29.2333" y2="23.7465" gradientUnits="userSpaceOnUse">
<stop stop-color="#249361"/>
<stop offset="1" stop-color="#3ECF8E"/>
</linearGradient>
<linearGradient id="paint1_linear_2_1241" x1="22.9216" y1="19.2808" x2="24.7172" y2="22.9312" gradientUnits="userSpaceOnUse">
<stop stop-opacity="0.2"/>
<stop offset="1" stop-opacity="0"/>
</linearGradient>
</defs>
</svg>
