<svg width="33" height="33" viewBox="0 0 33 33" fill="none" xmlns="http://www.w3.org/2000/svg">
<g clip-path="url(#clip0_2_1228)">
<path d="M15.3184 25.2158H6.68C5.19988 25.2158 4 24.016 4 22.5358V9.13581C4 7.65569 5.19988 6.45581 6.68 6.45581H10.4104C11.0308 6.45581 11.6321 6.67108 12.1115 7.06491L15.3184 9.69921C15.7979 10.093 16.3992 10.3083 17.0196 10.3083H25.44C26.9202 10.3083 28.12 11.5082 28.12 12.9883" stroke="#6C7086" stroke-width="2" stroke-linecap="round"/>
<path d="M20.7354 18.8838L17.86 21.7592L20.7354 24.6345" stroke="#89DCEB" stroke-width="1.5" stroke-linecap="round" stroke-linejoin="round"/>
<path d="M28.6826 18.8838L31.558 21.7592L28.6826 24.6345" stroke="#89DCEB" stroke-width="1.5" stroke-linecap="round" stroke-linejoin="round"/>
<path d="M22.6322 26.5514L26.7855 16.9668" stroke="#89DCEB" stroke-width="1.5" stroke-linecap="round" stroke-linejoin="round"/>
</g>
<defs>
<clipPath id="clip0_2_1228">
<rect width="32.16" height="32.16" fill="white" transform="translate(0.439941 0.395752)"/>
</clipPath>
</defs>
</svg>
