<svg width="33" height="33" viewBox="0 0 33 33" fill="none" xmlns="http://www.w3.org/2000/svg">
<g clip-path="url(#clip0_2_1059)">
<path d="M23.075 18.7178C23.4321 20.001 22.6897 21.335 21.44 21.6558L21.4191 21.6612C21.03 21.761 20.7319 22.0837 20.7102 22.4848C20.7034 22.6109 20.7 22.738 20.7 22.8659C20.7 23.0207 20.705 23.1742 20.715 23.3262C20.7399 23.7078 21.0255 24.013 21.3965 24.1057C22.6586 24.4211 23.4089 25.7688 23.0415 27.0605L22.9996 27.2077C22.8957 27.5727 23.0033 27.971 23.3083 28.197C23.4923 28.3334 23.6838 28.4591 23.8818 28.5733C24.2487 28.7847 24.705 28.6796 24.9911 28.3675L25.0734 28.2777C25.9679 27.3017 27.4679 27.302 28.3622 28.2782L28.4522 28.3764C28.7375 28.688 29.1923 28.7937 29.5591 28.5841C29.7565 28.4713 29.9474 28.347 30.131 28.2122C30.4365 27.9879 30.5459 27.5908 30.4443 27.2257L30.3855 27.0142C30.0284 25.7309 30.7707 24.3969 32.0204 24.0762L32.0411 24.0709C32.43 23.971 32.728 23.6483 32.7497 23.2474C32.7565 23.1212 32.76 22.994 32.76 22.8659C32.76 22.711 32.7549 22.5573 32.7449 22.4051C32.7199 22.0238 32.4345 21.7188 32.0638 21.6262C30.8018 21.3109 30.0517 19.9632 30.4191 18.6713L30.4609 18.5243C30.5646 18.1595 30.4571 17.7615 30.1524 17.5356C29.9683 17.399 29.7767 17.2732 29.5785 17.159C29.2115 16.9475 28.7552 17.0527 28.469 17.3649L28.3871 17.4542C27.4925 18.4303 25.9925 18.4299 25.0982 17.4537L25.008 17.3552C24.7227 17.0438 24.2681 16.9381 23.9013 17.1476C23.7038 17.2604 23.5129 17.3846 23.3292 17.5195C23.0238 17.7438 22.9144 18.1409 23.016 18.5059L23.075 18.7178ZM26.73 24.6315C25.8217 24.6315 25.0854 23.8411 25.0854 22.8659C25.0854 21.891 25.8217 21.1005 26.73 21.1005C27.6382 21.1005 28.3745 21.891 28.3745 22.8659C28.3745 23.8411 27.6382 24.6315 26.73 24.6315Z" fill="#89DCEB"/>
<path d="M19.5 26.2158H5.70002C4.2199 26.2158 3.02002 25.016 3.02002 23.5358V10.1358C3.02002 8.65569 4.2199 7.45581 5.70002 7.45581H9.43042C10.0509 7.45581 10.6521 7.67108 11.1315 8.06491L14.3385 10.6992C14.8179 11.093 15.4192 11.3083 16.0396 11.3083H24.46C25.9402 11.3083 27.14 12.5082 27.14 13.9883" stroke="#6C7086" stroke-width="2" stroke-linecap="round"/>
</g>
<defs>
<clipPath id="clip0_2_1059">
<rect width="32.16" height="32.16" fill="white" transform="translate(0.599976 0.755859)"/>
</clipPath>
</defs>
</svg>
