<svg width="38" height="38" viewBox="0 0 38 38" fill="none" xmlns="http://www.w3.org/2000/svg">
<g filter="url(#filter0_d_2_1130)">
<path d="M20 25.2158H7.68C6.19988 25.2158 5 24.016 5 22.5358V9.13581C5 7.65569 6.19988 6.45581 7.68 6.45581H11.4104C12.0308 6.45581 12.6321 6.67108 13.1115 7.06491L16.3184 9.69921C16.7979 10.093 17.3992 10.3083 18.0196 10.3083H26.44C27.9202 10.3083 29.12 11.5082 29.12 12.9883" stroke="#6C7086" stroke-width="2" stroke-linecap="round"/>
<path d="M31.454 17.8462C33.0359 18.0655 32.5168 19.9838 32.2616 21.5603C32.2341 21.7299 32.2189 21.9096 32.2189 22.0999C32.2189 22.663 32.3456 23.1329 32.535 23.5208C33.1247 24.7283 33.9493 26.089 33.1894 27.1974V27.1974C32.5553 28.1099 31.8931 29.021 30.8858 29.021C29.8784 29.021 29.6192 28.4358 28.4562 28.4358C27.323 28.4358 26.9201 29.0403 25.9987 29.0403C25.0773 29.0403 24.4344 28.1958 23.6951 27.1589C22.8388 25.9411 22.147 24.0494 22.147 22.254C22.147 19.3742 24.0195 17.8469 25.8624 17.8469C26.8415 17.8469 27.6579 18.4898 28.2726 18.4898C28.8577 18.4898 29.7702 17.8084 30.8843 17.8084C31.0014 17.8084 31.2028 17.8114 31.454 17.8462ZM30.3554 16.5891C30.8161 16.0425 31.142 15.2841 31.142 14.5255V14.5255C31.142 14.3519 30.9873 14.2301 30.8163 14.2604C30.139 14.3806 29.4028 14.8079 28.9347 15.3507C28.5125 15.8307 28.1185 16.5891 28.1185 17.358C28.1185 17.3807 28.1193 17.4034 28.1206 17.4255C28.1276 17.5485 28.2249 17.6453 28.3481 17.6453V17.6453C29.0206 17.6453 29.8666 17.1951 30.3554 16.5891Z" fill="#BAC2DE"/>
</g>
<defs>
<filter id="filter0_d_2_1130" x="-1.19995" y="0.0759277" width="40.16" height="40.1599" filterUnits="userSpaceOnUse" color-interpolation-filters="sRGB">
<feFlood flood-opacity="0" result="BackgroundImageFix"/>
<feColorMatrix in="SourceAlpha" type="matrix" values="0 0 0 0 0 0 0 0 0 0 0 0 0 0 0 0 0 0 127 0" result="hardAlpha"/>
<feOffset dy="4"/>
<feGaussianBlur stdDeviation="2"/>
<feComposite in2="hardAlpha" operator="out"/>
<feColorMatrix type="matrix" values="0 0 0 0 0 0 0 0 0 0 0 0 0 0 0 0 0 0 0.25 0"/>
<feBlend mode="normal" in2="BackgroundImageFix" result="effect1_dropShadow_2_1130"/>
<feBlend mode="normal" in="SourceGraphic" in2="effect1_dropShadow_2_1130" result="shape"/>
</filter>
</defs>
</svg>
