<svg width="33" height="33" viewBox="0 0 33 33" fill="none" xmlns="http://www.w3.org/2000/svg">
<g clip-path="url(#clip0_2_1048)">
<path d="M26.9199 27.5559C29.8802 27.5559 32.2799 25.1562 32.2799 22.1959C32.2799 19.2357 29.8802 16.8359 26.9199 16.8359C23.9597 16.8359 21.5599 19.2357 21.5599 22.1959C21.5599 25.1562 23.9597 27.5559 26.9199 27.5559Z" fill="#89B4FA"/>
<path d="M20 26.2158H5.70002C4.2199 26.2158 3.02002 25.016 3.02002 23.5358V10.1358C3.02002 8.65569 4.2199 7.45581 5.70002 7.45581H9.43042C10.0509 7.45581 10.6521 7.67108 11.1315 8.06491L14.3385 10.6992C14.8179 11.093 15.4192 11.3083 16.0396 11.3083H24.46C25.9402 11.3083 27.14 12.5082 27.14 13.9883" stroke="#6C7086" stroke-width="2" stroke-linecap="round"/>
</g>
<defs>
<clipPath id="clip0_2_1048">
<rect width="32.16" height="32.16" fill="white" transform="translate(0.119995 0.755859)"/>
</clipPath>
</defs>
</svg>
