<svg width="33" height="33" viewBox="0 0 33 33" fill="none" xmlns="http://www.w3.org/2000/svg">
<path d="M18.5 25.2158H6.68C5.19988 25.2158 4 24.016 4 22.5358V9.13581C4 7.65569 5.19988 6.45581 6.68 6.45581H10.4104C11.0308 6.45581 11.6321 6.67108 12.1115 7.06491L15.3184 9.69921C15.7979 10.093 16.3992 10.3083 17.0196 10.3083H25.44C26.9202 10.3083 28.12 11.5082 28.12 12.9883" stroke="#6C7086" stroke-width="2" stroke-linecap="round"/>
<path fill-rule="evenodd" clip-rule="evenodd" d="M20.4818 24.0029C20.348 23.7918 20.346 23.523 20.4766 23.3099L25.3941 15.2884C25.6676 14.8423 26.3281 14.8813 26.5472 15.3565L31.0396 25.1017C31.2063 25.4632 31.0144 25.8886 30.633 26.0031L23.6446 28.0996C23.3635 28.1839 23.0605 28.0708 22.9033 27.8229L20.4818 24.0029ZM25.9615 17.6338C26.0088 17.3979 26.3321 17.3638 26.4277 17.5848L29.5264 24.7553C29.5847 24.8903 29.5122 25.0459 29.3713 25.088L24.543 26.5293C24.3654 26.5823 24.1954 26.4273 24.232 26.2456L25.9615 17.6338Z" fill="#94E2D5"/>
</svg>
