<svg width="33" height="33" viewBox="0 0 33 33" fill="none" xmlns="http://www.w3.org/2000/svg">
<g clip-path="url(#clip0_2_1209)">
<path d="M19.5 25.2158H5.68C4.19988 25.2158 3 24.016 3 22.5358V9.13581C3 7.65569 4.19988 6.45581 5.68 6.45581H9.4104C10.0308 6.45581 10.6321 6.67108 11.1115 7.06491L14.3184 9.69921C14.7979 10.093 15.3992 10.3083 16.0196 10.3083H24.44C25.9202 10.3083 27.12 11.5082 27.12 12.9883" stroke="#6C7086" stroke-width="2" stroke-linecap="round"/>
<path d="M27.28 25.8557C29.5002 25.8557 31.3 24.0559 31.3 21.8357C31.3 19.6155 29.5002 17.8157 27.28 17.8157C25.0598 17.8157 23.26 19.6155 23.26 21.8357C23.26 24.0559 25.0598 25.8557 27.28 25.8557Z" stroke="#F38BA8" stroke-width="2"/>
</g>
<defs>
<clipPath id="clip0_2_1209">
<rect width="32.16" height="32.16" fill="white" transform="translate(0.47998 0.395752)"/>
</clipPath>
</defs>
</svg>
