<svg width="41" height="35" viewBox="0 0 41 35" fill="none" xmlns="http://www.w3.org/2000/svg">
<g clip-path="url(#clip0_2_1113)" filter="url(#filter0_d_2_1113)">
<path d="M23 25.2158H7.70002C6.2199 25.2158 5.02002 24.016 5.02002 22.5358V9.13581C5.02002 7.65569 6.2199 6.45581 7.70002 6.45581H11.4304C12.0509 6.45581 12.6521 6.67108 13.1315 7.06491L16.3385 9.69921C16.8179 10.093 17.4192 10.3083 18.0396 10.3083H26.46C27.9402 10.3083 29.14 11.5082 29.14 12.9883" stroke="#6C7086" stroke-width="2" stroke-linecap="round"/>
<path d="M30.7999 26.876C33.7602 26.876 36.1599 24.4763 36.1599 21.516C36.1599 18.5558 33.7602 16.156 30.7999 16.156C27.8397 16.156 25.4399 18.5558 25.4399 21.516C25.4399 24.4763 27.8397 26.876 30.7999 26.876Z" fill="#A6E3A1"/>
</g>
<defs>
<filter id="filter0_d_2_1113" x="0" y="0.0759277" width="40.16" height="40.1599" filterUnits="userSpaceOnUse" color-interpolation-filters="sRGB">
<feFlood flood-opacity="0" result="BackgroundImageFix"/>
<feColorMatrix in="SourceAlpha" type="matrix" values="0 0 0 0 0 0 0 0 0 0 0 0 0 0 0 0 0 0 127 0" result="hardAlpha"/>
<feOffset dy="4"/>
<feGaussianBlur stdDeviation="2"/>
<feComposite in2="hardAlpha" operator="out"/>
<feColorMatrix type="matrix" values="0 0 0 0 0 0 0 0 0 0 0 0 0 0 0 0 0 0 0.25 0"/>
<feBlend mode="normal" in2="BackgroundImageFix" result="effect1_dropShadow_2_1113"/>
<feBlend mode="normal" in="SourceGraphic" in2="effect1_dropShadow_2_1113" result="shape"/>
</filter>
<clipPath id="clip0_2_1113">
<rect width="32.16" height="32.16" fill="white" transform="translate(4 0.0759277)"/>
</clipPath>
</defs>
</svg>
