<svg width="38" height="39" viewBox="0 0 38 39" fill="none" xmlns="http://www.w3.org/2000/svg">
<g clip-path="url(#clip0_2_1032)" filter="url(#filter0_d_2_1032)">
<path d="M33.3976 17.8367C33.5442 17.9072 33.6335 18.0594 33.6235 18.2217L33.2558 24.2227C33.2302 24.6402 32.662 24.7433 32.4913 24.3615L28.9753 16.4927C28.8233 16.1525 29.1781 15.8076 29.5139 15.969L33.3976 17.8367ZM30.3096 27.8457C30.3822 28.0285 30.3111 28.237 30.1418 28.3373L27.144 30.1149C27.0182 30.1895 26.8618 30.1895 26.736 30.1149L23.7381 28.3373C23.5689 28.237 23.4978 28.0285 23.5704 27.8457L24.0551 26.6249C24.1156 26.4725 24.263 26.3725 24.4269 26.3725H29.4531C29.617 26.3725 29.7644 26.4725 29.8249 26.6249L30.3096 27.8457ZM26.5681 20.3654C26.7015 20.0284 27.1785 20.0284 27.3119 20.3654L28.5552 23.5063C28.6591 23.7688 28.4656 24.0535 28.1832 24.0535H25.6967C25.4144 24.0535 25.2209 23.7688 25.3248 23.5063L26.5681 20.3654ZM21.3846 24.361C21.2138 24.7428 20.6455 24.6394 20.6202 24.2219L20.2563 18.2215C20.2464 18.0593 20.3357 17.9072 20.4822 17.8368L24.3655 15.9693C24.7014 15.8078 25.0562 16.1529 24.904 16.4931L21.3846 24.361Z" fill="#F38BA8"/>
<path d="M17.5 26.2158H7.70002C6.2199 26.2158 5.02002 25.016 5.02002 23.5358V10.1358C5.02002 8.65569 6.2199 7.45581 7.70002 7.45581H11.4304C12.0509 7.45581 12.6521 7.67108 13.1315 8.06491L16.3385 10.6992C16.8179 11.093 17.4192 11.3083 18.0396 11.3083H26.46C27.9402 11.3083 29.14 12.5082 29.14 13.9883" stroke="#6C7086" stroke-width="2" stroke-linecap="round"/>
</g>
<defs>
<filter id="filter0_d_2_1032" x="-2.52002" y="0.755859" width="40.16" height="40.1599" filterUnits="userSpaceOnUse" color-interpolation-filters="sRGB">
<feFlood flood-opacity="0" result="BackgroundImageFix"/>
<feColorMatrix in="SourceAlpha" type="matrix" values="0 0 0 0 0 0 0 0 0 0 0 0 0 0 0 0 0 0 127 0" result="hardAlpha"/>
<feOffset dy="4"/>
<feGaussianBlur stdDeviation="2"/>
<feComposite in2="hardAlpha" operator="out"/>
<feColorMatrix type="matrix" values="0 0 0 0 0 0 0 0 0 0 0 0 0 0 0 0 0 0 0.25 0"/>
<feBlend mode="normal" in2="BackgroundImageFix" result="effect1_dropShadow_2_1032"/>
<feBlend mode="normal" in="SourceGraphic" in2="effect1_dropShadow_2_1032" result="shape"/>
</filter>
<clipPath id="clip0_2_1032">
<rect width="32.16" height="32.16" fill="white" transform="translate(1.47998 0.755859)"/>
</clipPath>
</defs>
</svg>
