<svg width="34" height="33" viewBox="0 0 34 33" fill="none" xmlns="http://www.w3.org/2000/svg">
<g clip-path="url(#clip0_2_1260)">
<path d="M27.7599 27.356C30.7201 27.356 33.1199 24.9562 33.1199 21.996C33.1199 19.0357 30.7201 16.636 27.7599 16.636C24.7997 16.636 22.3999 19.0357 22.3999 21.996C22.3999 24.9562 24.7997 27.356 27.7599 27.356Z" fill="#F9E2AF"/>
<path d="M20 25.76H8.68C7.19988 25.76 6 24.5602 6 23.08V9.68C6 8.19988 7.19988 7 8.68 7H12.4104C13.0308 7 13.6321 7.21527 14.1115 7.6091L17.3184 10.2434C17.7979 10.6372 18.3992 10.8525 19.0196 10.8525H25.82C27.3002 10.8525 28.5 12.0524 28.5 13.5325" stroke="#6C7086" stroke-width="2" stroke-linecap="round"/>
</g>
<defs>
<clipPath id="clip0_2_1260">
<rect width="32.16" height="32.16" fill="white" transform="translate(0.959961 0.555908)"/>
</clipPath>
</defs>
</svg>
