<svg width="33" height="33" viewBox="0 0 33 33" fill="none" xmlns="http://www.w3.org/2000/svg">
<path d="M19 25.76H7.68C6.19988 25.76 5 24.5602 5 23.08V9.68C5 8.19988 6.19988 7 7.68 7H11.4104C12.0308 7 12.6321 7.21527 13.1115 7.6091L16.3184 10.2434C16.7979 10.6372 17.3992 10.8525 18.0196 10.8525H24.82C26.3002 10.8525 27.5 12.0524 27.5 13.5325" stroke="#6C7086" stroke-width="2" stroke-linecap="round"/>
<path d="M25.1869 19.0648C25.9515 17.7055 27.9086 17.7055 28.6732 19.0648L31.2835 23.7053C32.0334 25.0385 31.07 26.6858 29.5403 26.6858H24.3197C22.7901 26.6858 21.8266 25.0385 22.5766 23.7053L25.1869 19.0648Z" fill="#6C7086"/>
</svg>
