<svg width="33" height="33" viewBox="0 0 33 33" fill="none" xmlns="http://www.w3.org/2000/svg">
<g clip-path="url(#clip0_2_1051)">
<path d="M17 26.2158H5.70002C4.2199 26.2158 3.02002 25.016 3.02002 23.5358V10.1358C3.02002 8.65569 4.2199 7.45581 5.70002 7.45581H9.43042C10.0509 7.45581 10.6521 7.67108 11.1315 8.06491L14.3385 10.6992C14.8179 11.093 15.4192 11.3083 16.0396 11.3083H24.46C25.9402 11.3083 27.14 12.5082 27.14 13.9883" stroke="#6C7086" stroke-width="2" stroke-linecap="round"/>
<path d="M20.5754 19.2439L17.7001 22.1193L20.5754 24.9946" stroke="#89B4FA" stroke-width="1.5" stroke-linecap="round" stroke-linejoin="round"/>
<path d="M28.5227 19.2439L31.3981 22.1193L28.5227 24.9946" stroke="#89B4FA" stroke-width="1.5" stroke-linecap="round" stroke-linejoin="round"/>
<path d="M22.4723 26.9115L26.6256 17.3269" stroke="#89B4FA" stroke-width="1.5" stroke-linecap="round" stroke-linejoin="round"/>
</g>
<defs>
<clipPath id="clip0_2_1051">
<rect width="32.16" height="32.16" fill="white" transform="translate(0.280029 0.755859)"/>
</clipPath>
</defs>
</svg>
