<svg width="33" height="33" viewBox="0 0 33 33" fill="none" xmlns="http://www.w3.org/2000/svg">
<g clip-path="url(#clip0_2_1201)">
<path d="M19 25.2158H5.68C4.19988 25.2158 3 24.016 3 22.5358V9.13581C3 7.65569 4.19988 6.45581 5.68 6.45581H9.4104C10.0308 6.45581 10.6321 6.67108 11.1115 7.06491L14.3184 9.69921C14.7979 10.093 15.3992 10.3083 16.0196 10.3083H24.44C25.9202 10.3083 27.12 11.5082 27.12 12.9883" stroke="#6C7086" stroke-width="2" stroke-linecap="round"/>
<path d="M26.96 27.1958C29.9202 27.1958 32.32 24.7961 32.32 21.8358C32.32 18.8756 29.9202 16.4758 26.96 16.4758C23.9997 16.4758 21.6 18.8756 21.6 21.8358C21.6 24.7961 23.9997 27.1958 26.96 27.1958Z" fill="#F38BA8"/>
</g>
<defs>
<clipPath id="clip0_2_1201">
<rect width="32.16" height="32.16" fill="white" transform="translate(0.160034 0.395752)"/>
</clipPath>
</defs>
</svg>
