<svg width="33" height="33" viewBox="0 0 33 33" fill="none" xmlns="http://www.w3.org/2000/svg">
<g clip-path="url(#clip0_2_1233)">
<path d="M19.5 25.2158H6.68C5.19988 25.2158 4 24.016 4 22.5358V9.13581C4 7.65569 5.19988 6.45581 6.68 6.45581H10.4104C11.0308 6.45581 11.6321 6.67108 12.1115 7.06491L15.3184 9.69921C15.7979 10.093 16.3992 10.3083 17.0196 10.3083H25.44C26.9202 10.3083 28.12 11.5082 28.12 12.9883" stroke="#6C7086" stroke-width="2" stroke-linecap="round"/>
<path d="M27.4 25.8557C29.6202 25.8557 31.42 24.0559 31.42 21.8357C31.42 19.6155 29.6202 17.8157 27.4 17.8157C25.1798 17.8157 23.38 19.6155 23.38 21.8357C23.38 24.0559 25.1798 25.8557 27.4 25.8557Z" stroke="#89DCEB" stroke-width="2"/>
</g>
<defs>
<clipPath id="clip0_2_1233">
<rect width="32.16" height="32.16" fill="white" transform="translate(0.599976 0.395752)"/>
</clipPath>
</defs>
</svg>
