<svg width="39" height="36" viewBox="0 0 39 36" fill="none" xmlns="http://www.w3.org/2000/svg">
<g clip-path="url(#clip0_2_1056)" filter="url(#filter0_d_2_1056)">
<path d="M29.24 26.2158C31.4602 26.2158 33.26 24.416 33.26 22.1958C33.26 19.9756 31.4602 18.1758 29.24 18.1758C27.0198 18.1758 25.22 19.9756 25.22 22.1958C25.22 24.416 27.0198 26.2158 29.24 26.2158Z" stroke="#89B4FA" stroke-width="2"/>
<path d="M22 26.2158H7.70002C6.2199 26.2158 5.02002 25.016 5.02002 23.5358V10.1358C5.02002 8.65569 6.2199 7.45581 7.70002 7.45581H11.4304C12.0509 7.45581 12.6521 7.67108 13.1315 8.06491L16.3385 10.6992C16.8179 11.093 17.4192 11.3083 18.0396 11.3083H26.46C27.9402 11.3083 29.14 12.5082 29.14 13.9883" stroke="#6C7086" stroke-width="2" stroke-linecap="round"/>
</g>
<defs>
<filter id="filter0_d_2_1056" x="-1.56006" y="0.755859" width="40.16" height="40.1599" filterUnits="userSpaceOnUse" color-interpolation-filters="sRGB">
<feFlood flood-opacity="0" result="BackgroundImageFix"/>
<feColorMatrix in="SourceAlpha" type="matrix" values="0 0 0 0 0 0 0 0 0 0 0 0 0 0 0 0 0 0 127 0" result="hardAlpha"/>
<feOffset dy="4"/>
<feGaussianBlur stdDeviation="2"/>
<feComposite in2="hardAlpha" operator="out"/>
<feColorMatrix type="matrix" values="0 0 0 0 0 0 0 0 0 0 0 0 0 0 0 0 0 0 0.25 0"/>
<feBlend mode="normal" in2="BackgroundImageFix" result="effect1_dropShadow_2_1056"/>
<feBlend mode="normal" in="SourceGraphic" in2="effect1_dropShadow_2_1056" result="shape"/>
</filter>
<clipPath id="clip0_2_1056">
<rect width="32.16" height="32.16" fill="white" transform="translate(2.43994 0.755859)"/>
</clipPath>
</defs>
</svg>
