<svg width="39" height="37" viewBox="0 0 39 37" fill="none" xmlns="http://www.w3.org/2000/svg">
<g clip-path="url(#clip0_2_1246)" filter="url(#filter0_d_2_1246)">
<path d="M19 25.2158H7.68C6.19988 25.2158 5 24.016 5 22.5358V9.13581C5 7.65569 6.19988 6.45581 7.68 6.45581H11.4104C12.0308 6.45581 12.6321 6.67108 13.1115 7.06491L16.3184 9.69921C16.7979 10.093 17.3992 10.3083 18.0196 10.3083H26.44C27.9202 10.3083 29.12 11.5082 29.12 12.9883" stroke="#6C7086" stroke-width="2" stroke-linecap="round"/>
<path fill-rule="evenodd" clip-rule="evenodd" d="M27.78 20.5069C26.9578 20.5069 26.2911 21.1736 26.2911 21.9958C26.2911 22.818 26.9578 23.4847 27.78 23.4847C28.6022 23.4847 29.2689 22.818 29.2689 21.9958C29.2689 21.1736 28.6022 20.5069 27.78 20.5069ZM24.8022 21.9958C24.8022 20.3512 26.1354 19.0181 27.78 19.0181C29.4246 19.0181 30.7577 20.3512 30.7577 21.9958C30.7577 23.6404 29.4246 24.9736 27.78 24.9736C26.1354 24.9736 24.8022 23.6404 24.8022 21.9958Z" fill="#CBA6F7"/>
<path fill-rule="evenodd" clip-rule="evenodd" d="M27.78 16.7848C24.9019 16.7848 22.5688 19.1178 22.5688 21.9959C22.5688 24.874 24.9019 27.207 27.78 27.207C30.658 27.207 32.9911 24.874 32.9911 21.9959C32.9911 19.1178 30.658 16.7848 27.78 16.7848ZM21.08 21.9959C21.08 18.2956 24.0797 15.2959 27.78 15.2959C31.4802 15.2959 34.48 18.2956 34.48 21.9959C34.48 25.6962 31.4802 28.6959 27.78 28.6959C24.0797 28.6959 21.08 25.6962 21.08 21.9959Z" fill="#CBA6F7"/>
</g>
<defs>
<filter id="filter0_d_2_1246" x="-1.68005" y="0.555908" width="40.16" height="40.1599" filterUnits="userSpaceOnUse" color-interpolation-filters="sRGB">
<feFlood flood-opacity="0" result="BackgroundImageFix"/>
<feColorMatrix in="SourceAlpha" type="matrix" values="0 0 0 0 0 0 0 0 0 0 0 0 0 0 0 0 0 0 127 0" result="hardAlpha"/>
<feOffset dy="4"/>
<feGaussianBlur stdDeviation="2"/>
<feComposite in2="hardAlpha" operator="out"/>
<feColorMatrix type="matrix" values="0 0 0 0 0 0 0 0 0 0 0 0 0 0 0 0 0 0 0.25 0"/>
<feBlend mode="normal" in2="BackgroundImageFix" result="effect1_dropShadow_2_1246"/>
<feBlend mode="normal" in="SourceGraphic" in2="effect1_dropShadow_2_1246" result="shape"/>
</filter>
<clipPath id="clip0_2_1246">
<rect width="32.16" height="32.16" fill="white" transform="translate(2.31995 0.555908)"/>
</clipPath>
</defs>
</svg>
