<svg width="33" height="33" viewBox="0 0 33 33" fill="none" xmlns="http://www.w3.org/2000/svg">
<g clip-path="url(#clip0_2_1190)">
<path d="M18.5 25.2158H6.68C5.19988 25.2158 4 24.016 4 22.5358V9.13581C4 7.65569 5.19988 6.45581 6.68 6.45581H10.4104C11.0308 6.45581 11.6321 6.67108 12.1115 7.06491L15.3184 9.69921C15.7979 10.093 16.3992 10.3083 17.0196 10.3083H25.44C26.9202 10.3083 28.12 11.5082 28.12 12.9883" stroke="#6C7086" stroke-width="2" stroke-linecap="round"/>
<path d="M27.2399 27.0359C30.2001 27.0359 32.5999 24.6362 32.5999 21.6759C32.5999 18.7157 30.2001 16.3159 27.2399 16.3159C24.2796 16.3159 21.8799 18.7157 21.8799 21.6759C21.8799 24.6362 24.2796 27.0359 27.2399 27.0359Z" fill="#CBA6F7"/>
</g>
<defs>
<clipPath id="clip0_2_1190">
<rect width="32.16" height="32.16" fill="white" transform="translate(0.439941 0.23584)"/>
</clipPath>
</defs>
</svg>
