<svg width="37" height="36" viewBox="0 0 37 36" fill="none" xmlns="http://www.w3.org/2000/svg">
<g clip-path="url(#clip0_2_1268)" filter="url(#filter0_d_2_1268)">
<path d="M27.0801 26.0158C29.3002 26.0158 31.1001 24.216 31.1001 21.9958C31.1001 19.7756 29.3002 17.9758 27.0801 17.9758C24.8599 17.9758 23.0601 19.7756 23.0601 21.9958C23.0601 24.216 24.8599 26.0158 27.0801 26.0158Z" stroke="#F9E2AF" stroke-width="2"/>
<path d="M19 25.76H7.68C6.19988 25.76 5 24.5602 5 23.08V9.68C5 8.19988 6.19988 7 7.68 7H11.4104C12.0308 7 12.6321 7.21527 13.1115 7.6091L16.3184 10.2434C16.7979 10.6372 17.3992 10.8525 18.0196 10.8525H24.82C26.3002 10.8525 27.5 12.0524 27.5 13.5325" stroke="#6C7086" stroke-width="2" stroke-linecap="round"/>
</g>
<defs>
<filter id="filter0_d_2_1268" x="-3.71997" y="0.555908" width="40.16" height="40.1599" filterUnits="userSpaceOnUse" color-interpolation-filters="sRGB">
<feFlood flood-opacity="0" result="BackgroundImageFix"/>
<feColorMatrix in="SourceAlpha" type="matrix" values="0 0 0 0 0 0 0 0 0 0 0 0 0 0 0 0 0 0 127 0" result="hardAlpha"/>
<feOffset dy="4"/>
<feGaussianBlur stdDeviation="2"/>
<feComposite in2="hardAlpha" operator="out"/>
<feColorMatrix type="matrix" values="0 0 0 0 0 0 0 0 0 0 0 0 0 0 0 0 0 0 0.25 0"/>
<feBlend mode="normal" in2="BackgroundImageFix" result="effect1_dropShadow_2_1268"/>
<feBlend mode="normal" in="SourceGraphic" in2="effect1_dropShadow_2_1268" result="shape"/>
</filter>
<clipPath id="clip0_2_1268">
<rect width="32.16" height="32.16" fill="white" transform="translate(0.280029 0.555908)"/>
</clipPath>
</defs>
</svg>
