<svg width="33" height="34" viewBox="0 0 33 34" fill="none" xmlns="http://www.w3.org/2000/svg">
<g clip-path="url(#clip0_2_1105)">
<path d="M15.0396 26.2158H4.70002C3.2199 26.2158 2.02002 25.016 2.02002 23.5358V10.1358C2.02002 8.65569 3.2199 7.45581 4.70002 7.45581H8.43042C9.05087 7.45581 9.6521 7.67108 10.1315 8.06491L13.3385 10.6992C13.8179 11.093 14.4192 11.3083 15.0396 11.3083H23.46C24.9402 11.3083 26.14 12.5082 26.14 13.9883" stroke="#6C7086" stroke-width="2" stroke-linecap="round"/>
<path d="M20.7354 19.4038L17.86 22.2792L20.7354 25.1546" stroke="#7F849C" stroke-width="1.5" stroke-linecap="round" stroke-linejoin="round"/>
<path d="M28.6826 19.4038L31.558 22.2792L28.6826 25.1546" stroke="#7F849C" stroke-width="1.5" stroke-linecap="round" stroke-linejoin="round"/>
<path d="M22.6322 27.0714L26.7855 17.4868" stroke="#7F849C" stroke-width="1.5" stroke-linecap="round" stroke-linejoin="round"/>
</g>
<defs>
<clipPath id="clip0_2_1105">
<rect width="32.16" height="32.16" fill="white" transform="translate(0.439941 0.915771)"/>
</clipPath>
</defs>
</svg>
