<svg width="39" height="37" viewBox="0 0 39 37" fill="none" xmlns="http://www.w3.org/2000/svg">
<g clip-path="url(#clip0_2_1059)" filter="url(#filter0_d_2_1059)">
<path d="M25.075 18.7178C25.4321 20.001 24.6897 21.335 23.44 21.6558L23.4191 21.6612C23.03 21.761 22.7319 22.0837 22.7102 22.4848C22.7034 22.6109 22.7 22.738 22.7 22.8659C22.7 23.0207 22.705 23.1742 22.715 23.3262C22.7399 23.7078 23.0255 24.013 23.3965 24.1057V24.1057C24.6586 24.4211 25.4089 25.7688 25.0415 27.0605L24.9996 27.2077C24.8957 27.5727 25.0033 27.971 25.3083 28.197C25.4923 28.3334 25.6838 28.4591 25.8818 28.5733C26.2487 28.7847 26.705 28.6796 26.9911 28.3675L27.0734 28.2777C27.9679 27.3017 29.4679 27.302 30.3622 28.2782L30.4522 28.3764C30.7375 28.688 31.1923 28.7937 31.5591 28.5841C31.7565 28.4713 31.9474 28.347 32.131 28.2122C32.4365 27.9879 32.5459 27.5908 32.4443 27.2257L32.3855 27.0142C32.0284 25.7309 32.7707 24.3969 34.0204 24.0762L34.0411 24.0709C34.43 23.971 34.728 23.6483 34.7497 23.2474C34.7565 23.1212 34.76 22.994 34.76 22.8659C34.76 22.711 34.7549 22.5573 34.7449 22.4051C34.7199 22.0238 34.4345 21.7188 34.0638 21.6262V21.6262C32.8018 21.3109 32.0517 19.9632 32.4191 18.6713L32.4609 18.5243C32.5646 18.1595 32.4571 17.7615 32.1524 17.5356C31.9683 17.399 31.7767 17.2732 31.5785 17.159C31.2115 16.9475 30.7552 17.0527 30.469 17.3649L30.3871 17.4542C29.4925 18.4303 27.9926 18.4299 27.0982 17.4537L27.008 17.3552C26.7227 17.0438 26.2681 16.9381 25.9013 17.1476C25.7038 17.2604 25.5129 17.3846 25.3292 17.5195C25.0238 17.7438 24.9144 18.1409 25.016 18.5059L25.075 18.7178ZM28.73 24.6315C27.8217 24.6315 27.0854 23.8411 27.0854 22.8659C27.0854 21.891 27.8217 21.1005 28.73 21.1005C29.6382 21.1005 30.3745 21.891 30.3745 22.8659C30.3745 23.8411 29.6382 24.6315 28.73 24.6315Z" fill="#89DCEB"/>
<path d="M21.5 26.2158H7.70002C6.2199 26.2158 5.02002 25.016 5.02002 23.5358V10.1358C5.02002 8.65569 6.2199 7.45581 7.70002 7.45581H11.4304C12.0509 7.45581 12.6521 7.67108 13.1315 8.06491L16.3385 10.6992C16.8179 11.093 17.4192 11.3083 18.0396 11.3083H26.46C27.9402 11.3083 29.14 12.5082 29.14 13.9883" stroke="#6C7086" stroke-width="2" stroke-linecap="round"/>
</g>
<defs>
<filter id="filter0_d_2_1059" x="-1.40002" y="0.755859" width="40.16" height="40.1599" filterUnits="userSpaceOnUse" color-interpolation-filters="sRGB">
<feFlood flood-opacity="0" result="BackgroundImageFix"/>
<feColorMatrix in="SourceAlpha" type="matrix" values="0 0 0 0 0 0 0 0 0 0 0 0 0 0 0 0 0 0 127 0" result="hardAlpha"/>
<feOffset dy="4"/>
<feGaussianBlur stdDeviation="2"/>
<feComposite in2="hardAlpha" operator="out"/>
<feColorMatrix type="matrix" values="0 0 0 0 0 0 0 0 0 0 0 0 0 0 0 0 0 0 0.25 0"/>
<feBlend mode="normal" in2="BackgroundImageFix" result="effect1_dropShadow_2_1059"/>
<feBlend mode="normal" in="SourceGraphic" in2="effect1_dropShadow_2_1059" result="shape"/>
</filter>
<clipPath id="clip0_2_1059">
<rect width="32.16" height="32.16" fill="white" transform="translate(2.59998 0.755859)"/>
</clipPath>
</defs>
</svg>
