<svg width="33" height="34" viewBox="0 0 33 34" fill="none" xmlns="http://www.w3.org/2000/svg">
<path d="M27.251 25.5897C27.7155 24.9884 28.642 24.4706 28.6167 23.7111C28.6023 23.2763 28.2399 22.9283 27.8051 22.9283H27.7762C27.3267 22.9429 26.9789 23.3197 26.9935 23.769C27.0171 24.1244 27.1226 24.5248 26.9233 24.82C26.4398 25.5361 25.769 26.097 24.8483 26.581C24.08 26.9869 23.2829 27.1319 22.4857 27.0304C21.8335 26.9435 21.3262 26.6535 21.0073 26.1751C20.5435 25.4649 20.5 24.6967 20.8914 23.9285C21.1109 23.4893 21.4319 23.1423 21.6925 22.9168C21.7997 22.824 21.8547 22.699 21.8168 22.5625C21.7513 22.3267 21.4601 22.1967 21.2774 22.3595C19.6197 23.8369 19.8493 25.6785 20.4421 26.581C20.9203 27.3058 21.8914 27.7551 22.9641 27.7551C23.2539 27.7551 23.5438 27.7262 23.8336 27.6537C25.2643 27.3743 26.4278 26.6553 27.251 25.5897ZM30.443 22.7545C29.3415 21.4643 27.7181 20.7541 25.8629 20.7541C25.7208 20.7541 25.596 20.668 25.4976 20.5654C25.3514 20.4127 25.1438 20.3193 24.9208 20.3193H24.8917C24.4425 20.3338 24.0946 20.7106 24.1091 21.16C24.1236 21.5949 24.4859 21.9427 24.9208 21.9427H24.9497C25.1757 21.9325 25.3798 21.8275 25.5209 21.6693C25.626 21.5512 25.7627 21.4499 25.9208 21.4499C27.0224 21.4499 28.066 21.7688 29.0082 22.392C29.7328 22.8704 30.2546 23.4936 30.5445 24.2474C30.7909 24.8562 30.7764 25.4504 30.5155 25.9578C30.1096 26.726 29.4285 27.1463 28.5298 27.1463C28.0716 27.1463 27.6313 27.0377 27.3238 26.9277C27.1917 26.8804 27.0594 26.8884 26.9518 26.9785C26.7446 27.1517 26.7622 27.5025 27.0183 27.5879C27.4588 27.7347 27.9 27.8131 28.3269 27.8131C29.7184 27.8131 30.7475 27.0449 31.1388 26.2767C31.5591 25.436 31.5302 23.9865 30.443 22.7545ZM23.08 24.7981C23.0945 25.233 23.4568 25.5808 23.8916 25.5808H23.9207C24.37 25.5664 24.7179 25.1895 24.7033 24.7401C24.6888 24.3053 24.3265 23.9574 23.8916 23.9574H23.8627C23.8043 23.9574 23.7379 23.9334 23.7087 23.8829C23.1525 22.9219 22.9231 21.879 23.0075 20.7541C23.0655 19.8845 23.3554 19.1307 23.8627 18.5074C24.283 17.9711 25.0947 17.7102 25.6454 17.6957C27.0344 17.6694 27.7007 19.2306 27.848 20.0981C27.873 20.2454 27.9573 20.3661 28.1008 20.4078C28.3312 20.4747 28.582 20.3009 28.5434 20.0641C28.2146 18.0443 26.8761 17 25.5875 17C24.283 17 23.08 17.9422 22.6016 19.3336C21.9949 21.0222 22.3005 22.6508 22.9722 23.9897C23.0926 24.2298 23.0557 24.5307 23.08 24.7981Z" fill="#F9E2AF" stroke="#F9E2AF" stroke-width="0.25"/>
<path d="M17.5 26.2158H5.70002C4.2199 26.2158 3.02002 25.016 3.02002 23.5358V10.1358C3.02002 8.65569 4.2199 7.45581 5.70002 7.45581H9.43042C10.0509 7.45581 10.6521 7.67108 11.1315 8.06491L14.3385 10.6992C14.8179 11.093 15.4192 11.3083 16.0396 11.3083H24.46C25.9402 11.3083 27.14 12.5082 27.14 13.9883" stroke="#6C7086" stroke-width="2" stroke-linecap="round"/>
</svg>
