<svg width="37" height="37" viewBox="0 0 37 37" fill="none" xmlns="http://www.w3.org/2000/svg">
<g filter="url(#filter0_d_2_1044)">
<path fill-rule="evenodd" clip-rule="evenodd" d="M22.9533 20.707H30.3979C31.6313 20.707 32.6312 21.7069 32.6312 22.9404V26.6627C32.6312 27.8961 31.6313 28.896 30.3979 28.896H22.9533C21.7199 28.896 20.72 27.8961 20.72 26.6627V22.9404C20.72 21.7069 21.7199 20.707 22.9533 20.707ZM22.9533 22.1959C22.5422 22.1959 22.2088 22.5293 22.2088 22.9404V26.6627C22.2088 27.0739 22.5422 27.4072 22.9533 27.4072H30.3979C30.8091 27.4072 31.1424 27.0739 31.1424 26.6627V22.9404C31.1424 22.5293 30.8091 22.1959 30.3979 22.1959H22.9533Z" fill="#BAC2DE"/>
<path fill-rule="evenodd" clip-rule="evenodd" d="M29.8535 16.9339C29.1728 15.9514 27.9268 15.5518 26.9385 15.5018C25.8957 15.449 24.5559 15.7517 23.6867 16.8665C23.3184 17.3391 23.1633 17.9142 23.0835 18.3455C22.9965 18.8149 22.9623 19.3284 22.955 19.8252C22.9504 20.1305 22.9558 20.4449 22.9684 20.7594C22.9841 21.1494 23.3095 21.4513 23.6997 21.4513V21.4513C24.1316 21.4513 24.4706 21.0843 24.4544 20.6527C24.4084 19.4313 24.4832 18.2666 24.861 17.7819C25.8033 16.5733 28.0017 16.8754 28.6299 17.7819C28.8916 18.1597 28.9351 19.3775 28.8969 20.6693C28.8843 21.0947 29.222 21.4513 29.6476 21.4513V21.4513C30.0443 21.4513 30.3722 21.14 30.3843 20.7435C30.3954 20.379 30.4005 20.0167 30.3966 19.6723C30.3913 19.2001 30.3689 18.7261 30.3136 18.3106C30.2692 17.9776 30.1741 17.3963 29.8535 16.9339Z" fill="#BAC2DE"/>
<path d="M18.5 26.2158H7.70002C6.2199 26.2158 5.02002 25.016 5.02002 23.5358V10.1358C5.02002 8.65569 6.2199 7.45581 7.70002 7.45581H11.4304C12.0509 7.45581 12.6521 7.67108 13.1315 8.06491L16.3385 10.6992C16.8179 11.093 17.4192 11.3083 18.0396 11.3083H26.46C27.9402 11.3083 29.14 12.5082 29.14 13.9883" stroke="#6C7086" stroke-width="2" stroke-linecap="round"/>
</g>
<defs>
<filter id="filter0_d_2_1044" x="-2.04004" y="0.755859" width="40.16" height="40.1599" filterUnits="userSpaceOnUse" color-interpolation-filters="sRGB">
<feFlood flood-opacity="0" result="BackgroundImageFix"/>
<feColorMatrix in="SourceAlpha" type="matrix" values="0 0 0 0 0 0 0 0 0 0 0 0 0 0 0 0 0 0 127 0" result="hardAlpha"/>
<feOffset dy="4"/>
<feGaussianBlur stdDeviation="2"/>
<feComposite in2="hardAlpha" operator="out"/>
<feColorMatrix type="matrix" values="0 0 0 0 0 0 0 0 0 0 0 0 0 0 0 0 0 0 0.25 0"/>
<feBlend mode="normal" in2="BackgroundImageFix" result="effect1_dropShadow_2_1044"/>
<feBlend mode="normal" in="SourceGraphic" in2="effect1_dropShadow_2_1044" result="shape"/>
</filter>
</defs>
</svg>
