<svg width="38" height="36" viewBox="0 0 38 36" fill="none" xmlns="http://www.w3.org/2000/svg">
<g filter="url(#filter0_d_2_1127)">
<path d="M21.4 16.1559C21.4 15.4158 21.9999 14.8159 22.74 14.8159H32.12C32.8601 14.8159 33.46 15.4158 33.46 16.1559V25.5359C33.46 26.276 32.8601 26.8759 32.12 26.8759H22.74C21.9999 26.8759 21.4 26.276 21.4 25.5359V16.1559ZM23.4964 18.958C22.9441 18.958 22.4964 19.4057 22.4964 19.958V24.7795C22.4964 25.3318 22.9441 25.7795 23.4964 25.7795H31.3636C31.9159 25.7795 32.3636 25.3318 32.3636 24.7795V19.958C32.3636 19.4057 31.9159 18.958 31.3636 18.958H23.4964ZM31.389 17.8616C31.9273 17.8616 32.3636 17.4252 32.3636 16.887V16.887C32.3636 16.3487 31.9273 15.9123 31.389 15.9123H23.4711C22.9328 15.9123 22.4964 16.3487 22.4964 16.887V16.887C22.4964 17.4252 22.9328 17.8616 23.4711 17.8616H31.389ZM24.141 20.847C24.141 20.5436 24.3869 20.2977 24.6903 20.2977C24.9936 20.2977 25.2395 20.5436 25.2395 20.847C25.2395 21.1504 24.9936 21.3963 24.6903 21.3963C24.3869 21.3963 24.141 21.1504 24.141 20.847ZM26.3336 20.847C26.3336 20.5436 26.5795 20.2977 26.8829 20.2977C27.1863 20.2977 27.4322 20.5436 27.4322 20.847C27.4322 21.1504 27.1863 21.3963 26.8829 21.3963C26.5795 21.3963 26.3336 21.1504 26.3336 20.847ZM28.5264 20.847C28.5264 20.5436 28.7723 20.2977 29.0757 20.2977C29.3791 20.2977 29.6249 20.5436 29.6249 20.847C29.6249 21.1504 29.3791 21.3963 29.0757 21.3963C28.7723 21.3963 28.5264 21.1504 28.5264 20.847Z" fill="#89B4FA" stroke="#89B4FA" stroke-width="0.5"/>
<path d="M19 25.2158H7.68C6.19988 25.2158 5 24.016 5 22.5358V9.13581C5 7.65569 6.19988 6.45581 7.68 6.45581H11.4104C12.0308 6.45581 12.6321 6.67108 13.1115 7.06491L16.3184 9.69921C16.7979 10.093 17.3992 10.3083 18.0196 10.3083H26.44C27.9202 10.3083 29.12 11.5082 29.12 12.9883" stroke="#6C7086" stroke-width="2" stroke-linecap="round"/>
</g>
<defs>
<filter id="filter0_d_2_1127" x="-1.35999" y="0.0759277" width="40.16" height="40.1599" filterUnits="userSpaceOnUse" color-interpolation-filters="sRGB">
<feFlood flood-opacity="0" result="BackgroundImageFix"/>
<feColorMatrix in="SourceAlpha" type="matrix" values="0 0 0 0 0 0 0 0 0 0 0 0 0 0 0 0 0 0 127 0" result="hardAlpha"/>
<feOffset dy="4"/>
<feGaussianBlur stdDeviation="2"/>
<feComposite in2="hardAlpha" operator="out"/>
<feColorMatrix type="matrix" values="0 0 0 0 0 0 0 0 0 0 0 0 0 0 0 0 0 0 0.25 0"/>
<feBlend mode="normal" in2="BackgroundImageFix" result="effect1_dropShadow_2_1127"/>
<feBlend mode="normal" in="SourceGraphic" in2="effect1_dropShadow_2_1127" result="shape"/>
</filter>
</defs>
</svg>
