<svg width="33" height="33" viewBox="0 0 33 33" fill="none" xmlns="http://www.w3.org/2000/svg">
<path d="M18 25.2158H5.68C4.19988 25.2158 3 24.016 3 22.5358V9.13581C3 7.65569 4.19988 6.45581 5.68 6.45581H9.4104C10.0308 6.45581 10.6321 6.67108 11.1115 7.06491L14.3184 9.69921C14.7979 10.093 15.3992 10.3083 16.0196 10.3083H24.44C25.9202 10.3083 27.12 11.5082 27.12 12.9883" stroke="#6C7086" stroke-width="2" stroke-linecap="round"/>
<path d="M29.454 17.8462C31.0359 18.0655 30.5168 19.9838 30.2616 21.5603C30.2341 21.7299 30.2189 21.9096 30.2189 22.0999C30.2189 22.663 30.3456 23.1329 30.535 23.5208C31.1247 24.7283 31.9493 26.089 31.1894 27.1974C30.5553 28.1099 29.8931 29.021 28.8858 29.021C27.8784 29.021 27.6192 28.4358 26.4562 28.4358C25.323 28.4358 24.9201 29.0403 23.9987 29.0403C23.0773 29.0403 22.4344 28.1958 21.6951 27.1589C20.8388 25.9411 20.147 24.0494 20.147 22.254C20.147 19.3742 22.0195 17.8469 23.8624 17.8469C24.8415 17.8469 25.6579 18.4898 26.2726 18.4898C26.8577 18.4898 27.7702 17.8084 28.8843 17.8084C29.0014 17.8084 29.2028 17.8114 29.454 17.8462ZM28.3554 16.5891C28.8161 16.0425 29.142 15.2841 29.142 14.5255C29.142 14.3519 28.9873 14.2301 28.8163 14.2604C28.139 14.3806 27.4028 14.8079 26.9347 15.3507C26.5125 15.8307 26.1185 16.5891 26.1185 17.358C26.1185 17.3807 26.1193 17.4034 26.1206 17.4255C26.1276 17.5485 26.2249 17.6453 26.3481 17.6453C27.0206 17.6453 27.8666 17.1951 28.3554 16.5891Z" fill="#BAC2DE"/>
</svg>
