<svg width="38" height="35" viewBox="0 0 38 35" fill="none" xmlns="http://www.w3.org/2000/svg">
<g filter="url(#filter0_d_2_1198)">
<path d="M21 25.2158H7.68C6.19988 25.2158 5 24.016 5 22.5358V9.13581C5 7.65569 6.19988 6.45581 7.68 6.45581H11.4104C12.0308 6.45581 12.6321 6.67108 13.1115 7.06491L16.3184 9.69921C16.7979 10.093 17.3992 10.3083 18.0196 10.3083H26.44C27.9202 10.3083 29.12 11.5082 29.12 12.9883" stroke="#6C7086" stroke-width="2" stroke-linecap="round"/>
<path d="M28.8 25.8557C31.0202 25.8557 32.82 24.0559 32.82 21.8357C32.82 19.6155 31.0202 17.8157 28.8 17.8157C26.5798 17.8157 24.78 19.6155 24.78 21.8357C24.78 24.0559 26.5798 25.8557 28.8 25.8557Z" stroke="#CBA6F7" stroke-width="2"/>
</g>
<defs>
<filter id="filter0_d_2_1198" x="-2" y="0.395752" width="40.16" height="40.1599" filterUnits="userSpaceOnUse" color-interpolation-filters="sRGB">
<feFlood flood-opacity="0" result="BackgroundImageFix"/>
<feColorMatrix in="SourceAlpha" type="matrix" values="0 0 0 0 0 0 0 0 0 0 0 0 0 0 0 0 0 0 127 0" result="hardAlpha"/>
<feOffset dy="4"/>
<feGaussianBlur stdDeviation="2"/>
<feComposite in2="hardAlpha" operator="out"/>
<feColorMatrix type="matrix" values="0 0 0 0 0 0 0 0 0 0 0 0 0 0 0 0 0 0 0.25 0"/>
<feBlend mode="normal" in2="BackgroundImageFix" result="effect1_dropShadow_2_1198"/>
<feBlend mode="normal" in="SourceGraphic" in2="effect1_dropShadow_2_1198" result="shape"/>
</filter>
</defs>
</svg>
