<svg width="34" height="33" viewBox="0 0 34 33" fill="none" xmlns="http://www.w3.org/2000/svg">
<path d="M27.641 23.7255C28.1055 23.1241 29.032 22.6063 29.0068 21.8469C28.9923 21.412 28.6299 21.064 28.1951 21.064H28.1662C27.7167 21.0786 27.3689 21.4555 27.3835 21.9048C27.4071 22.2601 27.5126 22.6606 27.3133 22.9557C26.8299 23.6718 26.159 24.2327 25.2383 24.7167C24.47 25.1226 23.6729 25.2676 22.8757 25.1662C22.2235 25.0792 21.7162 24.7892 21.3973 24.3109C20.9335 23.6007 20.89 22.8324 21.2814 22.0642C21.501 21.6251 21.8219 21.278 22.0826 21.0525C22.1897 20.9598 22.2447 20.8347 22.2068 20.6982C22.1413 20.4625 21.8501 20.3325 21.6674 20.4952C20.0097 21.9726 20.2393 23.8142 20.8321 24.7167C21.3103 25.4415 22.2814 25.8908 23.3541 25.8908C23.6439 25.8908 23.9338 25.8619 24.2236 25.7894C25.6543 25.51 26.8178 24.791 27.641 23.7255ZM30.833 20.8902C29.7316 19.6001 28.1082 18.8899 26.2529 18.8899C26.1108 18.8899 25.986 18.8037 25.8877 18.7011C25.7414 18.5485 25.5338 18.4551 25.3108 18.4551H25.2817C24.8325 18.4695 24.4847 18.8463 24.4991 19.2958C24.5136 19.7306 24.8759 20.0785 25.3108 20.0785H25.3397C25.5657 20.0682 25.7699 19.9633 25.9109 19.805C26.016 19.687 26.1527 19.5856 26.3108 19.5856C27.4124 19.5856 28.456 19.9045 29.3982 20.5278C30.1228 21.0061 30.6446 21.6294 30.9345 22.3831C31.1809 22.9919 31.1664 23.5862 30.9055 24.0935C30.4996 24.8617 29.8185 25.2821 28.9198 25.2821C28.4616 25.2821 28.0214 25.1734 27.7138 25.0634C27.5817 25.0161 27.4494 25.0242 27.3418 25.1142C27.1347 25.2874 27.1522 25.6382 27.4084 25.7236C27.8488 25.8704 28.29 25.9489 28.7169 25.9489C30.1084 25.9489 31.1375 25.1806 31.5288 24.4124C31.9491 23.5717 31.9202 22.1222 30.833 20.8902ZM23.47 22.9339C23.4845 23.3687 23.8468 23.7166 24.2816 23.7166H24.3107C24.76 23.7021 25.1079 23.3253 25.0933 22.8758C25.0788 22.441 24.7165 22.0932 24.2816 22.0932H24.2527C24.1944 22.0932 24.1279 22.0691 24.0987 22.0187C23.5425 21.0576 23.3132 20.0147 23.3975 18.8899C23.4555 18.0202 23.7454 17.2665 24.2527 16.6431C24.6731 16.1068 25.4847 15.8459 26.0354 15.8315C27.4244 15.8052 28.0907 17.3663 28.238 18.2338C28.263 18.3812 28.3473 18.5019 28.4908 18.5435C28.7213 18.6105 28.972 18.4366 28.9334 18.1998C28.6046 16.1801 27.2661 15.1357 25.9776 15.1357C24.6731 15.1357 23.47 16.0779 22.9916 17.4694C22.3849 19.1579 22.6905 20.7865 23.3622 22.1255C23.4827 22.3655 23.4457 22.6664 23.47 22.9339Z" fill="#F38BA8" stroke="#F38BA8" stroke-width="0.25"/>
<path d="M17.5 25.2158H5.68C4.19988 25.2158 3 24.016 3 22.5358V9.13581C3 7.65569 4.19988 6.45581 5.68 6.45581H9.4104C10.0308 6.45581 10.6321 6.67108 11.1115 7.06491L14.3184 9.69921C14.7979 10.093 15.3992 10.3083 16.0196 10.3083H24.44C25.9202 10.3083 27.12 11.5082 27.12 12.9883" stroke="#6C7086" stroke-width="2" stroke-linecap="round"/>
</svg>
