<svg width="38" height="35" viewBox="0 0 38 35" fill="none" xmlns="http://www.w3.org/2000/svg">
<g clip-path="url(#clip0_2_1121)" filter="url(#filter0_d_2_1121)">
<path d="M19.98 25.2158H7.68C6.19988 25.2158 5 24.016 5 22.5358V9.13581C5 7.65569 6.19988 6.45581 7.68 6.45581H11.4104C12.0308 6.45581 12.6321 6.67108 13.1115 7.06491L16.3184 9.69921C16.7979 10.093 17.3992 10.3083 18.0196 10.3083H26.44C27.9202 10.3083 29.12 11.5082 29.12 12.9883" stroke="#6C7086" stroke-width="2" stroke-linecap="round"/>
<path d="M28.12 25.5358C30.3402 25.5358 32.14 23.736 32.14 21.5158C32.14 19.2957 30.3402 17.4958 28.12 17.4958C25.8998 17.4958 24.1 19.2957 24.1 21.5158C24.1 23.736 25.8998 25.5358 28.12 25.5358Z" stroke="#A6E3A1" stroke-width="2"/>
</g>
<defs>
<filter id="filter0_d_2_1121" x="-2.68005" y="0.0759277" width="40.16" height="40.1599" filterUnits="userSpaceOnUse" color-interpolation-filters="sRGB">
<feFlood flood-opacity="0" result="BackgroundImageFix"/>
<feColorMatrix in="SourceAlpha" type="matrix" values="0 0 0 0 0 0 0 0 0 0 0 0 0 0 0 0 0 0 127 0" result="hardAlpha"/>
<feOffset dy="4"/>
<feGaussianBlur stdDeviation="2"/>
<feComposite in2="hardAlpha" operator="out"/>
<feColorMatrix type="matrix" values="0 0 0 0 0 0 0 0 0 0 0 0 0 0 0 0 0 0 0.25 0"/>
<feBlend mode="normal" in2="BackgroundImageFix" result="effect1_dropShadow_2_1121"/>
<feBlend mode="normal" in="SourceGraphic" in2="effect1_dropShadow_2_1121" result="shape"/>
</filter>
<clipPath id="clip0_2_1121">
<rect width="32.16" height="32.16" fill="white" transform="translate(1.31995 0.0759277)"/>
</clipPath>
</defs>
</svg>
