<svg width="33" height="33" viewBox="0 0 33 33" fill="none" xmlns="http://www.w3.org/2000/svg">
<path d="M17 25.2158H5.68C4.19988 25.2158 3 24.016 3 22.5358V9.13581C3 7.65569 4.19988 6.45581 5.68 6.45581H9.4104C10.0308 6.45581 10.6321 6.67108 11.1115 7.06491L14.3184 9.69921C14.7979 10.093 15.3992 10.3083 16.0196 10.3083H22.82C24.3002 10.3083 25.5 11.5082 25.5 12.9883" stroke="#6C7086" stroke-width="2" stroke-linecap="round"/>
<path d="M26.7422 17.6186C27.5916 16.916 27.9682 12.7628 28.336 11.2699C28.4663 10.7413 28.7412 10.4094 29.0419 10.2011C29.5129 9.87493 29.8195 10.5064 29.991 11.053C30.0941 11.3813 30.5833 11.6872 30.9221 11.8649C31.1047 11.9607 31.1975 12.1774 31.1244 12.3702C31.0618 12.5353 30.8879 12.6353 30.7226 12.6974C30.5632 12.7572 30.3699 12.8898 30.2249 13.1797C29.9855 13.6582 30.2579 17.5827 30.3708 19.0647C30.3989 19.434 30.3267 19.8016 30.1675 20.136C29.6788 21.1621 28.6375 23.4817 28.6375 24.6144C28.6375 25.4057 28.8378 26.1285 29.0242 26.6299C29.1445 26.9536 28.9108 27.3352 28.5654 27.3352C28.4322 27.3352 28.3059 27.2764 28.2218 27.1731C27.8576 26.7254 26.8577 25.4589 26.617 24.7612C26.3118 23.876 25.6388 23.0012 24.7024 23.0066C24.3094 23.0089 23.888 23.0196 23.4817 23.0456C22.0919 23.1344 21.1646 24.3293 20.9974 24.9977C20.8846 25.4479 20.8163 26.3521 20.7838 26.8944C20.769 27.141 20.5656 27.3352 20.3186 27.3352C20.1189 27.3352 19.9422 27.2057 19.8773 27.0169C19.4564 25.7939 19.1499 25.2955 19.3384 24.6144C19.903 22.5723 19.7922 21.414 19.6614 20.8982C19.4658 20.1268 18.8659 19.2301 19.5852 18.8895C19.9838 18.7008 20.5503 18.6001 21.4255 18.5797C23.3294 18.5355 25.8926 18.3214 26.7422 17.6186Z" fill="#FAB387"/>
<path d="M21.7979 24.5291C21.7979 24.5291 21.9986 26.388 23.0659 27.3353H23.9804C23.0659 26.2992 22.9663 23.5989 22.9663 23.5989C22.5009 23.7504 21.8571 24.2926 21.7979 24.5291Z" fill="#F9E2AF"/>
</svg>
