<svg width="40" height="36" viewBox="0 0 40 36" fill="none" xmlns="http://www.w3.org/2000/svg">
<g clip-path="url(#clip0_2_1133)" filter="url(#filter0_d_2_1133)">
<path d="M19 25.2158H7.68C6.19988 25.2158 5 24.016 5 22.5358V9.13581C5 7.65569 6.19988 6.45581 7.68 6.45581H11.4104C12.0308 6.45581 12.6321 6.67108 13.1115 7.06491L16.3184 9.69921C16.7979 10.093 17.3992 10.3083 18.0196 10.3083H26.44C27.9202 10.3083 29.12 11.5082 29.12 12.9883" stroke="#6C7086" stroke-width="2" stroke-linecap="round"/>
<path fill-rule="evenodd" clip-rule="evenodd" d="M21.72 17.8754C21.72 16.9258 22.4898 16.156 23.4393 16.156H26.4996C27.4491 16.156 28.219 16.9258 28.219 17.8754V26.093C28.219 27.0426 27.4491 27.8124 26.4996 27.8124H23.4393C22.4898 27.8124 21.72 27.0426 21.72 26.093V17.8754ZM29.9618 17.8754C29.9618 16.9258 30.7316 16.156 31.6811 16.156H33.4006C34.3501 16.156 35.12 16.9258 35.12 17.8754V19.5948C35.12 20.5444 34.3501 21.3142 33.4006 21.3142H31.6811C30.7316 21.3142 29.9618 20.5444 29.9618 19.5948V17.8754ZM31.3018 22.6542C30.5617 22.6542 29.9618 23.2541 29.9618 23.9942V26.4724C29.9618 27.2125 30.5617 27.8124 31.3018 27.8124H33.78C34.5201 27.8124 35.12 27.2125 35.12 26.4724V23.9942C35.12 23.2541 34.5201 22.6542 33.78 22.6542H31.3018Z" fill="#89DCEB"/>
</g>
<defs>
<filter id="filter0_d_2_1133" x="-1.04004" y="0.0759277" width="40.16" height="40.1599" filterUnits="userSpaceOnUse" color-interpolation-filters="sRGB">
<feFlood flood-opacity="0" result="BackgroundImageFix"/>
<feColorMatrix in="SourceAlpha" type="matrix" values="0 0 0 0 0 0 0 0 0 0 0 0 0 0 0 0 0 0 127 0" result="hardAlpha"/>
<feOffset dy="4"/>
<feGaussianBlur stdDeviation="2"/>
<feComposite in2="hardAlpha" operator="out"/>
<feColorMatrix type="matrix" values="0 0 0 0 0 0 0 0 0 0 0 0 0 0 0 0 0 0 0.25 0"/>
<feBlend mode="normal" in2="BackgroundImageFix" result="effect1_dropShadow_2_1133"/>
<feBlend mode="normal" in="SourceGraphic" in2="effect1_dropShadow_2_1133" result="shape"/>
</filter>
<clipPath id="clip0_2_1133">
<rect width="32.16" height="32.16" fill="white" transform="translate(2.95996 0.0759277)"/>
</clipPath>
</defs>
</svg>
