<svg width="33" height="33" viewBox="0 0 33 33" fill="none" xmlns="http://www.w3.org/2000/svg">
<g clip-path="url(#clip0_2_1164)">
<path d="M16.48 25.2158H6.68C5.19988 25.2158 4 24.016 4 22.5358V9.13581C4 7.65569 5.19988 6.45581 6.68 6.45581H10.4104C11.0308 6.45581 11.6321 6.67108 12.1115 7.06491L15.3184 9.69921C15.7979 10.093 16.3992 10.3083 17.0196 10.3083H25.44C26.9202 10.3083 28.12 11.5082 28.12 12.9883" stroke="#6C7086" stroke-width="2" stroke-linecap="round"/>
<path d="M22.0417 18.281L19.5028 20.8199L22.0417 23.3589" stroke="#A6E3A1" stroke-width="1.25" stroke-linecap="round" stroke-linejoin="round"/>
<path d="M29.0591 18.281L31.598 20.8199L29.0591 23.3589" stroke="#A6E3A1" stroke-width="1.25" stroke-linecap="round" stroke-linejoin="round"/>
<path d="M23.7167 25.0516L27.3841 16.5884" stroke="#A6E3A1" stroke-width="1.25" stroke-linecap="round" stroke-linejoin="round"/>
</g>
<defs>
<clipPath id="clip0_2_1164">
<rect width="32.16" height="32.16" fill="white" transform="translate(0.47998 0.23584)"/>
</clipPath>
</defs>
</svg>
