<svg width="33" height="33" viewBox="0 0 33 33" fill="none" xmlns="http://www.w3.org/2000/svg">
<path d="M17.0396 26.2158H6.70002C5.2199 26.2158 4.02002 25.016 4.02002 23.5358V10.1358C4.02002 8.65569 5.2199 7.45581 6.70002 7.45581H10.4304C11.0509 7.45581 11.6521 7.67108 12.1315 8.06491L15.3385 10.6992C15.8179 11.093 16.4192 11.3083 17.0396 11.3083H25.46C26.9402 11.3083 28.14 12.5082 28.14 13.9883" stroke="#6C7086" stroke-width="2" stroke-linecap="round"/>
<path d="M28.94 27.5558C30.4201 27.5558 31.62 26.3559 31.62 24.8758C31.62 23.3957 30.4201 22.1958 28.94 22.1958C27.4599 22.1958 26.26 23.3957 26.26 24.8758C26.26 26.3559 27.4599 27.5558 28.94 27.5558Z" fill="#89B4FA"/>
<path d="M23.5801 15.4958H20.9001C20.16 15.4958 19.5601 16.0958 19.5601 16.8358V19.5158C19.5601 20.2559 20.16 20.8558 20.9001 20.8558H23.5801C24.3201 20.8558 24.9201 20.2559 24.9201 19.5158V16.8358C24.9201 16.0958 24.3201 15.4958 23.5801 15.4958Z" fill="#94E2D5"/>
<path d="M21.7205 23.7659C21.9514 23.3659 22.5288 23.3659 22.7597 23.7659L24.0415 25.986C24.2724 26.386 23.9837 26.886 23.5218 26.886H20.9583C20.4964 26.886 20.2078 26.386 20.4387 25.986L21.7205 23.7659Z" fill="#74C7EC"/>
<path d="M28.0121 16.6633C28.3309 15.802 29.5493 15.802 29.868 16.6633C29.9681 16.9342 30.1817 17.1478 30.4525 17.2479C31.3139 17.5666 31.3139 18.785 30.4525 19.1038C30.1817 19.2039 29.9681 19.4175 29.868 19.6883C29.5493 20.5496 28.3309 20.5496 28.0121 19.6883C27.912 19.4175 27.6984 19.2039 27.4276 19.1038C26.5663 18.785 26.5663 17.5666 27.4276 17.2479C27.6984 17.1478 27.912 16.9342 28.0121 16.6633Z" fill="#CBA6F7"/>
</svg>
