<svg width="33" height="33" viewBox="0 0 33 33" fill="none" xmlns="http://www.w3.org/2000/svg">
<g clip-path="url(#clip0_2_1254)">
<path d="M18 25.76H6.68C5.19988 25.76 4 24.5602 4 23.08V9.68C4 8.19988 5.19988 7 6.68 7H10.4104C11.0308 7 11.6321 7.21527 12.1115 7.6091L15.3184 10.2434C15.7979 10.6372 16.3992 10.8525 17.0196 10.8525H23.82C25.3002 10.8525 26.5 12.0524 26.5 13.5325" stroke="#6C7086" stroke-width="2" stroke-linecap="round"/>
<path d="M32.7174 19.6823L32.7164 19.6772C32.5427 18.85 31.8129 18.8483 31.2052 19.4358C30.9408 19.6915 30.6814 19.9525 30.5155 20.1448C30.3505 20.3365 30.1125 20.4444 29.8599 20.4444C29.38 20.4444 28.9916 20.0559 28.9916 19.5761C28.9916 19.3235 29.0994 19.0855 29.2912 18.9204C29.4826 18.7554 29.742 18.4977 29.9964 18.2347C30.5865 17.6246 30.5852 16.8914 29.7552 16.7137L29.7517 16.713C29.5036 16.6618 29.2472 16.636 28.9916 16.636C26.8911 16.636 25.1831 18.3606 25.1831 20.48C25.1831 20.5145 25.1837 20.5491 25.1848 20.5836C25.1987 21.0304 25.0857 21.4867 24.7669 21.7998L21.3359 25.1695C20.5413 25.975 20.5413 27.2844 21.3365 28.0899C21.7238 28.4802 22.2398 28.6961 22.7907 28.6961C23.341 28.6961 23.8578 28.4802 24.2379 28.0957L27.733 24.6616C28.0218 24.378 28.4282 24.25 28.8329 24.2525C28.8858 24.2528 28.9388 24.2528 28.9916 24.2528C31.1269 24.2528 32.8 22.5956 32.8 20.48C32.8 20.2131 32.7722 19.9442 32.7174 19.6823Z" fill="#CBA6F7"/>
</g>
<defs>
<clipPath id="clip0_2_1254">
<rect width="32.16" height="32.16" fill="white" transform="translate(0.640015 0.555908)"/>
</clipPath>
</defs>
</svg>
