<svg width="37" height="37" viewBox="0 0 37 37" fill="none" xmlns="http://www.w3.org/2000/svg">
<g filter="url(#filter0_d_2_1187)">
<path d="M19.5 25.2158H7.68C6.19988 25.2158 5 24.016 5 22.5358V9.13581C5 7.65569 6.19988 6.45581 7.68 6.45581H11.4104C12.0308 6.45581 12.6321 6.67108 13.1115 7.06491L16.3184 9.69921C16.7979 10.093 17.3992 10.3083 18.0196 10.3083H26.44C27.9202 10.3083 29.12 11.5082 29.12 12.9883" stroke="#6C7086" stroke-width="2" stroke-linecap="round"/>
<path fill-rule="evenodd" clip-rule="evenodd" d="M21.4818 24.0029C21.348 23.7918 21.346 23.523 21.4766 23.3099L26.3941 15.2884C26.6676 14.8423 27.3281 14.8813 27.5472 15.3565L32.0396 25.1017C32.2063 25.4632 32.0144 25.8886 31.633 26.0031L24.6446 28.0996C24.3635 28.1839 24.0605 28.0708 23.9033 27.8229L21.4818 24.0029ZM26.9615 17.6338C27.0088 17.3979 27.3321 17.3638 27.4277 17.5848L30.5264 24.7553C30.5847 24.8903 30.5122 25.0459 30.3713 25.088L25.543 26.5293C25.3654 26.5823 25.1954 26.4273 25.232 26.2456L26.9615 17.6338Z" fill="#94E2D5"/>
</g>
<defs>
<filter id="filter0_d_2_1187" x="-2.71997" y="0.23584" width="40.16" height="40.1599" filterUnits="userSpaceOnUse" color-interpolation-filters="sRGB">
<feFlood flood-opacity="0" result="BackgroundImageFix"/>
<feColorMatrix in="SourceAlpha" type="matrix" values="0 0 0 0 0 0 0 0 0 0 0 0 0 0 0 0 0 0 127 0" result="hardAlpha"/>
<feOffset dy="4"/>
<feGaussianBlur stdDeviation="2"/>
<feComposite in2="hardAlpha" operator="out"/>
<feColorMatrix type="matrix" values="0 0 0 0 0 0 0 0 0 0 0 0 0 0 0 0 0 0 0.25 0"/>
<feBlend mode="normal" in2="BackgroundImageFix" result="effect1_dropShadow_2_1187"/>
<feBlend mode="normal" in="SourceGraphic" in2="effect1_dropShadow_2_1187" result="shape"/>
</filter>
</defs>
</svg>
