<svg width="33" height="33" viewBox="0 0 33 33" fill="none" xmlns="http://www.w3.org/2000/svg">
<g clip-path="url(#clip0_2_1124)">
<path d="M32.4437 15.9595C32.5658 15.8332 32.6333 15.6639 32.6317 15.4882C32.6302 15.3126 32.5597 15.1445 32.4355 15.0203C32.3113 14.896 32.1433 14.8256 31.9676 14.824C31.7919 14.8225 31.6227 14.8901 31.4963 15.0121L30.8535 15.6549C30.5249 15.9836 30.016 16.0231 29.569 15.8957C29.2122 15.794 28.8364 15.7623 28.4627 15.8053C27.8241 15.8788 27.2288 16.1661 26.7742 16.6208L26.0586 17.337C25.8388 17.5568 25.7154 17.8549 25.7154 18.1658C25.7154 18.4766 25.8388 18.7747 26.0586 18.9946L28.4606 21.3972C28.5695 21.506 28.6987 21.5925 28.841 21.6514C28.9833 21.7103 29.1356 21.7407 29.2897 21.7407C29.4437 21.7407 29.5962 21.7103 29.7384 21.6514C29.8807 21.5925 30.01 21.506 30.1188 21.3972L30.8344 20.6817C31.2889 20.227 31.5763 19.6321 31.6499 18.9935C31.6929 18.6198 31.6613 18.2439 31.5596 17.887C31.4324 17.4403 31.4719 16.9318 31.8003 16.6033L32.4437 15.9595ZM25.0737 21.3195C25.1958 21.1932 25.2633 21.0239 25.2617 20.8482C25.2602 20.6726 25.1897 20.5045 25.0655 20.3803C24.9413 20.256 24.7733 20.1856 24.5976 20.184C24.4219 20.1825 24.2527 20.2501 24.1263 20.3721L23.3377 21.1607C23.2293 21.2691 23.0535 21.2691 22.9451 21.1607C22.8509 21.0665 22.7232 21.0137 22.59 21.0137C22.4568 21.0137 22.3291 21.0665 22.2349 21.1607L21.0457 22.35C20.5911 22.8045 20.3037 23.3995 20.2301 24.0381C20.1871 24.4118 20.2188 24.7877 20.3204 25.1446C20.4477 25.5914 20.4081 26.0998 20.0797 26.4284L19.4363 27.0721C19.3724 27.1339 19.3214 27.2079 19.2862 27.2896C19.2511 27.3714 19.2326 27.4593 19.2318 27.5482C19.231 27.6371 19.2481 27.7254 19.2817 27.8077C19.3153 27.8901 19.3652 27.9648 19.428 28.0278C19.491 28.0907 19.5658 28.1404 19.648 28.1742C19.7305 28.2078 19.8186 28.2248 19.9076 28.224C19.9966 28.2232 20.0845 28.2047 20.1662 28.1696C20.248 28.1345 20.3219 28.0834 20.3837 28.0195L21.0275 27.3761C21.356 27.0477 21.8645 27.0082 22.3112 27.1354C22.6681 27.2371 23.044 27.2687 23.4177 27.2256C24.0564 27.152 24.6513 26.8646 25.1059 26.4102L26.2951 25.2209C26.3892 25.1266 26.4421 24.9989 26.4421 24.8658C26.4421 24.7326 26.3892 24.6049 26.2951 24.5107C26.1867 24.4023 26.1867 24.2265 26.2951 24.1181L27.0837 23.3295C27.2058 23.2032 27.2733 23.0339 27.2717 22.8582C27.2702 22.6826 27.1997 22.5145 27.0755 22.3903C26.9513 22.266 26.7833 22.1956 26.6076 22.194C26.4319 22.1925 26.2627 22.2601 26.1363 22.3821L25.6827 22.8357C25.3893 23.1292 24.9135 23.1292 24.6201 22.8357C24.3267 22.5423 24.3267 22.0665 24.6201 21.7731L25.0737 21.3195Z" fill="#F9E2AF"/>
<path d="M17.98 25.2158H5.68C4.19988 25.2158 3 24.016 3 22.5358V9.13581C3 7.65569 4.19988 6.45581 5.68 6.45581H9.4104C10.0308 6.45581 10.6321 6.67108 11.1115 7.06491L14.3184 9.69921C14.7979 10.093 15.3992 10.3083 16.0196 10.3083H24.44C25.9202 10.3083 27.12 11.5082 27.12 12.9883" stroke="#6C7086" stroke-width="2" stroke-linecap="round"/>
</g>
<defs>
<clipPath id="clip0_2_1124">
<rect width="32.16" height="32.16" fill="white" transform="translate(0.47998 0.0759277)"/>
</clipPath>
</defs>
</svg>
