<svg width="39" height="37" viewBox="0 0 39 37" fill="none" xmlns="http://www.w3.org/2000/svg">
<g clip-path="url(#clip0_2_1145)" filter="url(#filter0_d_2_1145)">
<path d="M19 25.2158H7.68C6.19988 25.2158 5 24.016 5 22.5358V9.13581C5 7.65569 6.19988 6.45581 7.68 6.45581H11.4104C12.0308 6.45581 12.6321 6.67108 13.1115 7.06491L16.3184 9.69921C16.7979 10.093 17.3992 10.3083 18.0196 10.3083H26.44C27.9202 10.3083 29.12 11.5082 29.12 12.9883" stroke="#6C7086" stroke-width="2" stroke-linecap="round"/>
<path d="M27.2615 16.156C26.4683 16.156 25.8257 16.7987 25.8257 17.5917V17.5917C25.8257 18.0675 25.44 18.4532 24.9642 18.4532H23.5285C22.894 18.4532 22.38 18.9672 22.38 19.6017V21.3245C22.38 21.6416 22.6373 21.8988 22.9543 21.8988H23.1596C23.9107 21.8988 24.5941 22.4394 24.6693 23.1866C24.7554 24.0462 24.0833 24.7703 23.2415 24.7703H22.9543C22.6373 24.7703 22.38 25.0276 22.38 25.3445V27.0675C22.38 27.702 22.894 28.216 23.5285 28.216H25.2515C25.5684 28.216 25.8257 27.9587 25.8257 27.6417V27.4364C25.8257 26.6853 26.3662 26.0019 27.1134 25.9267C27.973 25.8406 28.6972 26.5127 28.6972 27.3545V27.6417C28.6972 27.9587 28.9544 28.216 29.2715 28.216H30.9943C31.6288 28.216 32.1428 27.702 32.1428 27.0675V25.6318C32.1428 25.156 32.5285 24.7703 33.0043 24.7703V24.7703C33.7973 24.7703 34.44 24.1277 34.44 23.3345C34.44 22.5415 33.7973 21.8988 33.0043 21.8988V21.8988C32.5285 21.8988 32.1428 21.5131 32.1428 21.0374V19.6017C32.1428 18.9672 31.6288 18.4532 30.9943 18.4532H29.5587C29.0829 18.4532 28.6972 18.0675 28.6972 17.5917V17.5917C28.6972 16.7987 28.0545 16.156 27.2615 16.156Z" fill="#94E2D5"/>
</g>
<defs>
<filter id="filter0_d_2_1145" x="-1.71997" y="0.0759277" width="40.16" height="40.1599" filterUnits="userSpaceOnUse" color-interpolation-filters="sRGB">
<feFlood flood-opacity="0" result="BackgroundImageFix"/>
<feColorMatrix in="SourceAlpha" type="matrix" values="0 0 0 0 0 0 0 0 0 0 0 0 0 0 0 0 0 0 127 0" result="hardAlpha"/>
<feOffset dy="4"/>
<feGaussianBlur stdDeviation="2"/>
<feComposite in2="hardAlpha" operator="out"/>
<feColorMatrix type="matrix" values="0 0 0 0 0 0 0 0 0 0 0 0 0 0 0 0 0 0 0.25 0"/>
<feBlend mode="normal" in2="BackgroundImageFix" result="effect1_dropShadow_2_1145"/>
<feBlend mode="normal" in="SourceGraphic" in2="effect1_dropShadow_2_1145" result="shape"/>
</filter>
<clipPath id="clip0_2_1145">
<rect width="32.16" height="32.16" fill="white" transform="translate(2.28003 0.0759277)"/>
</clipPath>
</defs>
</svg>
