<svg width="41" height="35" viewBox="0 0 41 35" fill="none" xmlns="http://www.w3.org/2000/svg">
<g clip-path="url(#clip0_2_1116)" filter="url(#filter0_d_2_1116)">
<path d="M20 25.2158H7.70002C6.2199 25.2158 5.02002 24.016 5.02002 22.5358V9.13581C5.02002 7.65569 6.2199 6.45581 7.70002 6.45581H11.4304C12.0509 6.45581 12.6521 6.67108 13.1315 7.06491L16.3385 9.69921C16.8179 10.093 17.4192 10.3083 18.0396 10.3083H26.46C27.9402 10.3083 29.14 11.5082 29.14 12.9883" stroke="#6C7086" stroke-width="2" stroke-linecap="round"/>
<path d="M24.4554 18.564L21.5801 21.4393L24.4554 24.3147" stroke="#A6E3A1" stroke-width="1.5" stroke-linecap="round" stroke-linejoin="round"/>
<path d="M32.4027 18.564L35.2781 21.4393L32.4027 24.3147" stroke="#A6E3A1" stroke-width="1.5" stroke-linecap="round" stroke-linejoin="round"/>
<path d="M26.3523 26.2316L30.5056 16.647" stroke="#A6E3A1" stroke-width="1.5" stroke-linecap="round" stroke-linejoin="round"/>
</g>
<defs>
<filter id="filter0_d_2_1116" x="0.160034" y="0.0759277" width="40.16" height="40.1599" filterUnits="userSpaceOnUse" color-interpolation-filters="sRGB">
<feFlood flood-opacity="0" result="BackgroundImageFix"/>
<feColorMatrix in="SourceAlpha" type="matrix" values="0 0 0 0 0 0 0 0 0 0 0 0 0 0 0 0 0 0 127 0" result="hardAlpha"/>
<feOffset dy="4"/>
<feGaussianBlur stdDeviation="2"/>
<feComposite in2="hardAlpha" operator="out"/>
<feColorMatrix type="matrix" values="0 0 0 0 0 0 0 0 0 0 0 0 0 0 0 0 0 0 0.25 0"/>
<feBlend mode="normal" in2="BackgroundImageFix" result="effect1_dropShadow_2_1116"/>
<feBlend mode="normal" in="SourceGraphic" in2="effect1_dropShadow_2_1116" result="shape"/>
</filter>
<clipPath id="clip0_2_1116">
<rect width="32.16" height="32.16" fill="white" transform="translate(4.16003 0.0759277)"/>
</clipPath>
</defs>
</svg>
