<svg width="33" height="33" viewBox="0 0 33 33" fill="none" xmlns="http://www.w3.org/2000/svg">
<path fill-rule="evenodd" clip-rule="evenodd" d="M25.4481 17.3689C25.4481 16.1361 26.4531 15.1357 27.6912 15.1357C27.9852 15.1351 28.2764 15.1923 28.5483 15.3041C28.8202 15.4159 29.0673 15.5802 29.2756 15.7877C29.484 15.995 29.6495 16.2414 29.7626 16.5126C29.8757 16.7839 29.9344 17.0749 29.935 17.3689C29.935 18.6023 28.93 19.6026 27.6912 19.6026C27.3941 19.603 27.0999 19.5443 26.8257 19.43C26.3508 19.2318 25.785 19.147 25.3596 19.4366L23.4713 20.7224C23.1787 20.9217 23.0501 21.2792 23.0277 21.6325C23.0011 22.0527 23.1203 22.5023 23.4721 22.7336L24.9868 23.7291C25.7515 24.2316 26.7769 24.0674 27.6919 24.0689C27.9859 24.0682 28.2771 24.1255 28.5488 24.2374C28.8207 24.3493 29.0678 24.5137 29.276 24.7212C29.4844 24.9286 29.6498 25.175 29.7629 25.4464C29.8759 25.7177 29.9344 26.0086 29.935 26.3026C29.935 27.5354 28.93 28.5357 27.6912 28.5357C27.0976 28.537 26.528 28.3025 26.1072 27.8837C25.6866 27.465 25.4495 26.8963 25.4481 26.3026C25.4471 25.7633 25.3102 25.1764 24.8594 24.8804L23.6083 24.0589C22.8131 23.5366 21.7396 23.7277 20.7882 23.7258C20.4942 23.7265 20.203 23.6693 19.9311 23.5574C19.6593 23.4455 19.4122 23.2812 19.2038 23.0736C18.9954 22.8662 18.8301 22.6198 18.7171 22.3484C18.604 22.0771 18.5456 21.786 18.545 21.492C18.5457 21.1982 18.6041 20.9071 18.7172 20.6359C18.8303 20.3646 18.9957 20.1181 19.2041 19.9108C19.4123 19.7034 19.6595 19.5391 19.9313 19.4272C20.203 19.3155 20.4943 19.2583 20.7882 19.2589C21.9245 19.2589 23.2713 19.6097 24.2105 18.9703L24.98 18.4464C25.3214 18.2139 25.4478 17.7818 25.4481 17.3689Z" fill="#CBA6F7" stroke="#CBA6F7" stroke-width="0.5"/>
<path d="M17 25.2158H4.68C3.19988 25.2158 2 24.016 2 22.5358V9.13581C2 7.65569 3.19988 6.45581 4.68 6.45581H8.4104C9.03085 6.45581 9.63208 6.67108 10.1115 7.06491L13.3184 9.69921C13.7979 10.093 14.3992 10.3083 15.0196 10.3083H23.44C24.9202 10.3083 26.12 11.5082 26.12 12.9883" stroke="#6C7086" stroke-width="2" stroke-linecap="round"/>
</svg>
