<svg width="33" height="34" viewBox="0 0 33 34" fill="none" xmlns="http://www.w3.org/2000/svg">
<path fill-rule="evenodd" clip-rule="evenodd" d="M24.91 16.2188C21.5784 16.2188 18.88 19.0345 18.88 22.5109C18.88 25.0968 20.3689 27.3096 22.5014 28.2797C22.8288 28.4287 23.3567 28.5935 23.4131 28.2382C23.4161 28.2193 23.4175 28.2004 23.4175 28.1817C23.4175 27.5737 22.8375 27.1695 22.2461 27.0281C21.6658 26.8893 21.4632 26.5076 21.3825 26.2705C21.3145 26.0896 21.0207 25.5311 20.7643 25.3817C20.5533 25.2637 20.2518 24.9727 20.7568 24.9648C21.2317 24.957 21.5709 25.4211 21.684 25.6097C22.151 26.4288 22.8581 26.3449 23.2672 26.2003C23.3774 26.1613 23.4544 26.0141 23.4834 25.9009C23.5565 25.6148 23.3664 25.2268 23.0811 25.1506C22.011 24.8646 21.081 24.1409 21.081 22.1805C21.081 21.8637 21.131 21.5721 21.223 21.3066C21.4146 20.7534 21.5894 20.4017 21.5777 19.8164C21.5681 19.3403 22.0485 18.7708 22.4912 18.9461C22.5352 18.9635 22.5813 18.9831 22.6296 19.005C23.1557 19.2435 23.7387 19.3524 24.3128 19.2885C24.5156 19.2659 24.7203 19.2547 24.925 19.2547C25.1258 19.2547 25.3267 19.2655 25.5257 19.2872C26.1068 19.3507 26.6965 19.238 27.2293 18.9976C27.2769 18.9761 27.3223 18.957 27.3657 18.9399C27.8052 18.7672 28.2804 19.3361 28.2725 19.8081C28.2627 20.3982 28.4391 20.7549 28.6305 21.3132C28.7203 21.5753 28.7692 21.864 28.7692 22.1805C28.7692 23.844 28.1002 24.6153 27.2454 24.9857C26.7927 25.1818 26.425 25.9581 26.425 26.4514C26.425 27.2929 26.4175 27.9693 26.4175 28.1817C26.4175 28.3468 26.5305 28.5435 26.832 28.4806C28.0291 28.0589 29.0692 27.2561 29.8062 26.1853C30.5431 25.1143 30.9396 23.8293 30.94 22.5109C30.94 19.0345 28.2415 16.2188 24.91 16.2188Z" fill="#BAC2DE"/>
<path d="M17 26.2158H4.70002C3.2199 26.2158 2.02002 25.016 2.02002 23.5358V10.1358C2.02002 8.65569 3.2199 7.45581 4.70002 7.45581H8.43042C9.05087 7.45581 9.6521 7.67108 10.1315 8.06491L13.3385 10.6992C13.8179 11.093 14.4192 11.3083 15.0396 11.3083H23.46C24.9402 11.3083 26.14 12.5082 26.14 13.9883" stroke="#6C7086" stroke-width="2" stroke-linecap="round"/>
</svg>
