<svg width="33" height="33" viewBox="0 0 33 33" fill="none" xmlns="http://www.w3.org/2000/svg">
<g clip-path="url(#clip0_2_1225)">
<path d="M19 25.2158H6.68C5.19988 25.2158 4 24.016 4 22.5358V9.13581C4 7.65569 5.19988 6.45581 6.68 6.45581H10.4104C11.0308 6.45581 11.6321 6.67108 12.1115 7.06491L15.3184 9.69921C15.7979 10.093 16.3992 10.3083 17.0196 10.3083H25.44C26.9202 10.3083 28.12 11.5082 28.12 12.9883" stroke="#6C7086" stroke-width="2" stroke-linecap="round"/>
<path d="M27.08 27.1958C30.0402 27.1958 32.44 24.7961 32.44 21.8358C32.44 18.8756 30.0402 16.4758 27.08 16.4758C24.1197 16.4758 21.72 18.8756 21.72 21.8358C21.72 24.7961 24.1197 27.1958 27.08 27.1958Z" fill="#89DCEB"/>
</g>
<defs>
<clipPath id="clip0_2_1225">
<rect width="32.16" height="32.16" fill="white" transform="translate(0.280029 0.395752)"/>
</clipPath>
</defs>
</svg>
