<svg width="37" height="36" viewBox="0 0 37 36" fill="none" xmlns="http://www.w3.org/2000/svg">
<g filter="url(#filter0_d_2_1035)">
<path d="M18.0396 26.2158H7.70002C6.2199 26.2158 5.02002 25.016 5.02002 23.5358V10.1358C5.02002 8.65569 6.2199 7.45581 7.70002 7.45581H11.4304C12.0509 7.45581 12.6521 7.67108 13.1315 8.06491L16.3385 10.6992C16.8179 11.093 17.4192 11.3083 18.0396 11.3083H26.46C27.9402 11.3083 29.14 12.5082 29.14 13.9883" stroke="#6C7086" stroke-width="2" stroke-linecap="round"/>
<path fill-rule="evenodd" clip-rule="evenodd" d="M23.08 16.8359C22.3399 16.8359 21.74 17.4359 21.74 18.1759V20.2604C21.74 21.0004 22.3399 21.6004 23.08 21.6004H25.1645C25.9044 21.6004 26.5045 21.0004 26.5045 20.2604V18.1759C26.5045 17.4359 25.9044 16.8359 25.1645 16.8359H23.08ZM23.08 22.7914C22.3399 22.7914 21.74 23.3915 21.74 24.1314V26.2159C21.74 26.956 22.3399 27.5559 23.08 27.5559H25.1645C25.9044 27.5559 26.5045 26.956 26.5045 26.2159V24.1314C26.5045 23.3915 25.9044 22.7914 25.1645 22.7914H23.08ZM27.6955 18.1759C27.6955 17.4359 28.2955 16.8359 29.0355 16.8359H31.12C31.8601 16.8359 32.46 17.4359 32.46 18.1759V20.2604C32.46 21.0004 31.8601 21.6004 31.12 21.6004H29.0355C28.2955 21.6004 27.6955 21.0004 27.6955 20.2604V18.1759ZM29.0355 22.7914C28.2955 22.7914 27.6955 23.3915 27.6955 24.1314V26.2159C27.6955 26.956 28.2955 27.5559 29.0355 27.5559H31.12C31.8601 27.5559 32.46 26.956 32.46 26.2159V24.1314C32.46 23.3915 31.8601 22.7914 31.12 22.7914H29.0355Z" fill="#F38BA8"/>
</g>
<defs>
<filter id="filter0_d_2_1035" x="-2.35999" y="0.755859" width="40.16" height="40.1599" filterUnits="userSpaceOnUse" color-interpolation-filters="sRGB">
<feFlood flood-opacity="0" result="BackgroundImageFix"/>
<feColorMatrix in="SourceAlpha" type="matrix" values="0 0 0 0 0 0 0 0 0 0 0 0 0 0 0 0 0 0 127 0" result="hardAlpha"/>
<feOffset dy="4"/>
<feGaussianBlur stdDeviation="2"/>
<feComposite in2="hardAlpha" operator="out"/>
<feColorMatrix type="matrix" values="0 0 0 0 0 0 0 0 0 0 0 0 0 0 0 0 0 0 0.25 0"/>
<feBlend mode="normal" in2="BackgroundImageFix" result="effect1_dropShadow_2_1035"/>
<feBlend mode="normal" in="SourceGraphic" in2="effect1_dropShadow_2_1035" result="shape"/>
</filter>
</defs>
</svg>
