<svg width="40" height="36" viewBox="0 0 40 36" fill="none" xmlns="http://www.w3.org/2000/svg">
<g clip-path="url(#clip0_2_1062)" filter="url(#filter0_d_2_1062)">
<path d="M28.9788 21.2751C30.336 21.2751 31.4362 20.1749 31.4362 18.8177C31.4362 17.4605 30.336 16.3604 28.9788 16.3604C27.6217 16.3604 26.5215 17.4605 26.5215 18.8177C26.5215 20.1749 27.6217 21.2751 28.9788 21.2751Z" fill="#CBA6F7"/>
<path d="M25.255 27.7157C26.6121 27.7157 27.7123 26.6155 27.7123 25.2584C27.7123 23.9012 26.6121 22.801 25.255 22.801C23.8978 22.801 22.7976 23.9012 22.7976 25.2584C22.7976 26.6155 23.8978 27.7157 25.255 27.7157Z" fill="#CBA6F7"/>
<path d="M20.5 26.2158H7.70002C6.2199 26.2158 5.02002 25.016 5.02002 23.5358V10.1358C5.02002 8.65569 6.2199 7.45581 7.70002 7.45581H11.4304C12.0509 7.45581 12.6521 7.67108 13.1315 8.06491L16.3385 10.6992C16.8179 11.093 17.4192 11.3083 18.0396 11.3083H26.46C27.9402 11.3083 29.14 12.5082 29.14 13.9883" stroke="#6C7086" stroke-width="2" stroke-linecap="round"/>
<path d="M32.7027 27.7157C34.0599 27.7157 35.1601 26.6155 35.1601 25.2584C35.1601 23.9012 34.0599 22.801 32.7027 22.801C31.3456 22.801 30.2454 23.9012 30.2454 25.2584C30.2454 26.6155 31.3456 27.7157 32.7027 27.7157Z" fill="#CBA6F7"/>
</g>
<defs>
<filter id="filter0_d_2_1062" x="-1" y="0.915771" width="40.16" height="40.1599" filterUnits="userSpaceOnUse" color-interpolation-filters="sRGB">
<feFlood flood-opacity="0" result="BackgroundImageFix"/>
<feColorMatrix in="SourceAlpha" type="matrix" values="0 0 0 0 0 0 0 0 0 0 0 0 0 0 0 0 0 0 127 0" result="hardAlpha"/>
<feOffset dy="4"/>
<feGaussianBlur stdDeviation="2"/>
<feComposite in2="hardAlpha" operator="out"/>
<feColorMatrix type="matrix" values="0 0 0 0 0 0 0 0 0 0 0 0 0 0 0 0 0 0 0.25 0"/>
<feBlend mode="normal" in2="BackgroundImageFix" result="effect1_dropShadow_2_1062"/>
<feBlend mode="normal" in="SourceGraphic" in2="effect1_dropShadow_2_1062" result="shape"/>
</filter>
<clipPath id="clip0_2_1062">
<rect width="32.16" height="32.16" fill="white" transform="translate(3 0.915771)"/>
</clipPath>
</defs>
</svg>
