<svg width="34" height="33" viewBox="0 0 34 33" fill="none" xmlns="http://www.w3.org/2000/svg">
<path fill-rule="evenodd" clip-rule="evenodd" d="M21.9533 20.707H29.3979C30.6313 20.707 31.6312 21.7069 31.6312 22.9404V26.6627C31.6312 27.8961 30.6313 28.896 29.3979 28.896H21.9533C20.7199 28.896 19.72 27.8961 19.72 26.6627V22.9404C19.72 21.7069 20.7199 20.707 21.9533 20.707ZM21.9533 22.1959C21.5422 22.1959 21.2088 22.5293 21.2088 22.9404V26.6627C21.2088 27.0739 21.5422 27.4072 21.9533 27.4072H29.3979C29.8091 27.4072 30.1424 27.0739 30.1424 26.6627V22.9404C30.1424 22.5293 29.8091 22.1959 29.3979 22.1959H21.9533Z" fill="#BAC2DE"/>
<path fill-rule="evenodd" clip-rule="evenodd" d="M28.8535 16.9339C28.1728 15.9514 26.9268 15.5518 25.9385 15.5018C24.8957 15.449 23.5559 15.7517 22.6867 16.8665C22.3184 17.3391 22.1633 17.9142 22.0835 18.3455C21.9965 18.8149 21.9623 19.3284 21.955 19.8252C21.9504 20.1305 21.9558 20.4449 21.9684 20.7594C21.9841 21.1494 22.3095 21.4513 22.6997 21.4513C23.1316 21.4513 23.4706 21.0843 23.4544 20.6527C23.4084 19.4313 23.4832 18.2666 23.861 17.7819C24.8033 16.5733 27.0017 16.8754 27.6299 17.7819C27.8916 18.1597 27.9351 19.3775 27.8969 20.6693C27.8843 21.0947 28.222 21.4513 28.6476 21.4513C29.0443 21.4513 29.3722 21.14 29.3843 20.7435C29.3954 20.379 29.4005 20.0167 29.3966 19.6723C29.3913 19.2001 29.3689 18.7261 29.3136 18.3106C29.2692 17.9776 29.1741 17.3963 28.8535 16.9339Z" fill="#BAC2DE"/>
<path d="M17.5 26.2158H6.70002C5.2199 26.2158 4.02002 25.016 4.02002 23.5358V10.1358C4.02002 8.65569 5.2199 7.45581 6.70002 7.45581H10.4304C11.0509 7.45581 11.6521 7.67108 12.1315 8.06491L15.3385 10.6992C15.8179 11.093 16.4192 11.3083 17.0396 11.3083H25.46C26.9402 11.3083 28.14 12.5082 28.14 13.9883" stroke="#6C7086" stroke-width="2" stroke-linecap="round"/>
</svg>
