<svg width="33" height="33" viewBox="0 0 33 33" fill="none" xmlns="http://www.w3.org/2000/svg">
<g clip-path="url(#clip0_2_1215)">
<path d="M19.5601 19.9933V16.4758H23.0776M27.7676 16.4758H31.2851V19.9933" stroke="#A6E3A1" stroke-width="1.7" stroke-linecap="round" stroke-linejoin="round"/>
<path d="M19.5601 16.4758L24.7354 21.6512C25.1753 22.091 25.4224 22.6873 25.4226 23.3092M25.4226 23.3092V27.1958M25.4226 23.3092C25.4227 22.6873 25.6698 22.091 26.1096 21.6512L31.2851 16.4758" stroke="#A6E3A1" stroke-width="1.7" stroke-linecap="round" stroke-linejoin="round"/>
<path d="M18.5 25.2158H5.68C4.19988 25.2158 3 24.016 3 22.5358V9.13581C3 7.65569 4.19988 6.45581 5.68 6.45581H9.4104C10.0308 6.45581 10.6321 6.67108 11.1115 7.06491L14.3184 9.69921C14.7979 10.093 15.3992 10.3083 16.0196 10.3083H24.44C25.9202 10.3083 27.12 11.5082 27.12 12.9883" stroke="#6C7086" stroke-width="2" stroke-linecap="round"/>
</g>
<defs>
<clipPath id="clip0_2_1215">
<rect width="32.16" height="32.16" fill="white" transform="translate(0.800049 0.395752)"/>
</clipPath>
</defs>
</svg>
