<svg width="34" height="33" viewBox="0 0 34 33" fill="none" xmlns="http://www.w3.org/2000/svg">
<g clip-path="url(#clip0_2_1133)">
<path d="M17 25.2158H5.68C4.19988 25.2158 3 24.016 3 22.5358V9.13581C3 7.65569 4.19988 6.45581 5.68 6.45581H9.4104C10.0308 6.45581 10.6321 6.67108 11.1115 7.06491L14.3184 9.69921C14.7979 10.093 15.3992 10.3083 16.0196 10.3083H24.44C25.9202 10.3083 27.12 11.5082 27.12 12.9883" stroke="#6C7086" stroke-width="2" stroke-linecap="round"/>
<path fill-rule="evenodd" clip-rule="evenodd" d="M19.72 17.8754C19.72 16.9258 20.4898 16.156 21.4393 16.156H24.4996C25.4491 16.156 26.219 16.9258 26.219 17.8754V26.093C26.219 27.0426 25.4491 27.8124 24.4996 27.8124H21.4393C20.4898 27.8124 19.72 27.0426 19.72 26.093V17.8754ZM27.9618 17.8754C27.9618 16.9258 28.7316 16.156 29.6811 16.156H31.4006C32.3501 16.156 33.12 16.9258 33.12 17.8754V19.5948C33.12 20.5444 32.3501 21.3142 31.4006 21.3142H29.6811C28.7316 21.3142 27.9618 20.5444 27.9618 19.5948V17.8754ZM29.3018 22.6542C28.5617 22.6542 27.9618 23.2541 27.9618 23.9942V26.4724C27.9618 27.2125 28.5617 27.8124 29.3018 27.8124H31.78C32.5201 27.8124 33.12 27.2125 33.12 26.4724V23.9942C33.12 23.2541 32.5201 22.6542 31.78 22.6542H29.3018Z" fill="#89DCEB"/>
</g>
<defs>
<clipPath id="clip0_2_1133">
<rect width="32.16" height="32.16" fill="white" transform="translate(0.959961 0.0759277)"/>
</clipPath>
</defs>
</svg>
