<svg width="33" height="34" viewBox="0 0 33 34" fill="none" xmlns="http://www.w3.org/2000/svg">
<path d="M25.7803 21.5163C26.7286 21.5163 27.6215 21.3666 28.3047 21.0981C28.6442 20.9648 28.9699 20.7873 29.2233 20.552C29.4778 20.3157 29.7135 19.9658 29.7135 19.5147C29.7135 19.0637 29.4778 18.7138 29.2233 18.4774C28.9699 18.2421 28.6442 18.0647 28.3047 17.9313C27.6215 17.6629 26.7286 17.5132 25.7803 17.5132C24.8321 17.5132 23.9393 17.6629 23.2559 17.9313C22.9165 18.0647 22.5909 18.2421 22.3375 18.4774C22.083 18.7138 21.8473 19.0637 21.8473 19.5147C21.8473 19.9658 22.083 20.3157 22.3375 20.552C22.5909 20.7873 22.9165 20.9648 23.2559 21.0981C23.9393 21.3666 24.8321 21.5163 25.7803 21.5163Z" stroke="#F38BA8" stroke-width="1.12188"/>
<path d="M21.8521 19.7608V26.6958C21.8521 27.5853 22.5732 28.3065 23.4627 28.3065H28.0973C28.9867 28.3065 29.7079 27.5853 29.7079 26.6958V19.5" stroke="#F38BA8" stroke-width="1.12188" stroke-linejoin="round"/>
<path d="M18.5 26.2158H5.70002C4.2199 26.2158 3.02002 25.016 3.02002 23.5358V10.1358C3.02002 8.65569 4.2199 7.45581 5.70002 7.45581H9.43042C10.0509 7.45581 10.6521 7.67108 11.1315 8.06491L14.3385 10.6992C14.8179 11.093 15.4192 11.3083 16.0396 11.3083H24.46C25.9402 11.3083 27.14 12.5082 27.14 13.9883" stroke="#6C7086" stroke-width="2" stroke-linecap="round"/>
</svg>
