<svg width="36" height="35" viewBox="0 0 36 35" fill="none" xmlns="http://www.w3.org/2000/svg">
<g filter="url(#filter0_d_2_1257)">
<path d="M19 25.76H7.68C6.19988 25.76 5 24.5602 5 23.08V9.68C5 8.19988 6.19988 7 7.68 7H11.4104C12.0308 7 12.6321 7.21527 13.1115 7.6091L16.3184 10.2434C16.7979 10.6372 17.3992 10.8525 18.0196 10.8525H24.82C26.3002 10.8525 27.5 12.0524 27.5 13.5325" stroke="#6C7086" stroke-width="2" stroke-linecap="round"/>
<path d="M25.1869 19.0648C25.9515 17.7055 27.9086 17.7055 28.6732 19.0648L31.2835 23.7053C32.0334 25.0385 31.07 26.6858 29.5403 26.6858H24.3197C22.7901 26.6858 21.8266 25.0385 22.5766 23.7053L25.1869 19.0648Z" fill="#6C7086"/>
</g>
<defs>
<filter id="filter0_d_2_1257" x="-3.19995" y="0.555908" width="40.16" height="40.1599" filterUnits="userSpaceOnUse" color-interpolation-filters="sRGB">
<feFlood flood-opacity="0" result="BackgroundImageFix"/>
<feColorMatrix in="SourceAlpha" type="matrix" values="0 0 0 0 0 0 0 0 0 0 0 0 0 0 0 0 0 0 127 0" result="hardAlpha"/>
<feOffset dy="4"/>
<feGaussianBlur stdDeviation="2"/>
<feComposite in2="hardAlpha" operator="out"/>
<feColorMatrix type="matrix" values="0 0 0 0 0 0 0 0 0 0 0 0 0 0 0 0 0 0 0.25 0"/>
<feBlend mode="normal" in2="BackgroundImageFix" result="effect1_dropShadow_2_1257"/>
<feBlend mode="normal" in="SourceGraphic" in2="effect1_dropShadow_2_1257" result="shape"/>
</filter>
</defs>
</svg>
