<svg width="33" height="33" viewBox="0 0 33 33" fill="none" xmlns="http://www.w3.org/2000/svg">
<path d="M19 25.2158H5.68C4.19988 25.2158 3 24.016 3 22.5358V9.13581C3 7.65569 4.19988 6.45581 5.68 6.45581H9.4104C10.0308 6.45581 10.6321 6.67108 11.1115 7.06491L14.3184 9.69921C14.7979 10.093 15.3992 10.3083 16.0196 10.3083H24.44C25.9202 10.3083 27.12 11.5082 27.12 12.9883" stroke="#6C7086" stroke-width="2" stroke-linecap="round"/>
<path d="M26.8 25.8557C29.0202 25.8557 30.82 24.0559 30.82 21.8357C30.82 19.6155 29.0202 17.8157 26.8 17.8157C24.5798 17.8157 22.78 19.6155 22.78 21.8357C22.78 24.0559 24.5798 25.8557 26.8 25.8557Z" stroke="#CBA6F7" stroke-width="2"/>
</svg>
