<svg width="38" height="35" viewBox="0 0 38 35" fill="none" xmlns="http://www.w3.org/2000/svg">
<g filter="url(#filter0_d_2_1212)">
<path d="M29.321 23.7255C29.7856 23.1241 30.7121 22.6063 30.6868 21.8469V21.8469C30.6723 21.412 30.31 21.064 29.8752 21.064H29.8462C29.3968 21.0786 29.0489 21.4555 29.0635 21.9048V21.9048C29.0872 22.2601 29.1926 22.6606 28.9933 22.9557C28.5099 23.6718 27.8391 24.2327 26.9183 24.7167C26.1501 25.1226 25.3529 25.2676 24.5558 25.1662C23.9036 25.0792 23.3963 24.7892 23.0774 24.3109C22.6136 23.6007 22.57 22.8324 22.9614 22.0642C23.181 21.6251 23.502 21.278 23.7626 21.0525C23.8698 20.9598 23.9248 20.8347 23.8869 20.6982V20.6982C23.8214 20.4625 23.5301 20.3325 23.3475 20.4952C21.6897 21.9726 21.9193 23.8142 22.5121 24.7167C22.9904 25.4415 23.9615 25.8908 25.0342 25.8908C25.324 25.8908 25.6138 25.8619 25.9037 25.7894C27.3344 25.51 28.4979 24.791 29.321 23.7255ZM32.5131 20.8902C31.4116 19.6001 29.7882 18.8899 27.933 18.8899V18.8899C27.7908 18.8899 27.6661 18.8037 27.5677 18.7011C27.4214 18.5485 27.2139 18.4551 26.9908 18.4551H26.9617C26.5126 18.4695 26.1647 18.8463 26.1792 19.2958C26.1937 19.7306 26.556 20.0785 26.9908 20.0785H27.0198C27.2458 20.0682 27.4499 19.9633 27.5909 19.805C27.6961 19.687 27.8328 19.5856 27.9909 19.5856V19.5856C29.0925 19.5856 30.1361 19.9045 31.0782 20.5278C31.8029 21.0061 32.3247 21.6294 32.6145 22.3831C32.861 22.9919 32.8465 23.5862 32.5856 24.0935C32.1797 24.8617 31.4986 25.2821 30.5998 25.2821C30.1416 25.2821 29.7014 25.1734 29.3939 25.0634C29.2617 25.0161 29.1295 25.0242 29.0218 25.1142V25.1142C28.8147 25.2874 28.8323 25.6382 29.0884 25.7236C29.5289 25.8704 29.97 25.9489 30.397 25.9489C31.7884 25.9489 32.8175 25.1806 33.2088 24.4124C33.6292 23.5717 33.6002 22.1222 32.5131 20.8902ZM25.1501 22.9339C25.1645 23.3687 25.5269 23.7166 25.9617 23.7166H25.9908C26.4401 23.7021 26.7879 23.3253 26.7733 22.8758C26.7589 22.441 26.3965 22.0932 25.9617 22.0932H25.9328V22.0932C25.8744 22.0932 25.808 22.0691 25.7788 22.0187C25.2225 21.0576 24.9932 20.0147 25.0776 18.8899C25.1356 18.0202 25.4254 17.2665 25.9328 16.6431C26.3531 16.1068 27.1648 15.8459 27.7155 15.8315C29.1044 15.8052 29.7708 17.3663 29.9181 18.2338C29.9431 18.3812 30.0274 18.5019 30.1709 18.5435V18.5435C30.4013 18.6105 30.652 18.4366 30.6135 18.1998C30.2846 16.1801 28.9462 15.1357 27.6576 15.1357C26.3531 15.1357 25.1501 16.0779 24.6717 17.4694C24.065 19.1579 24.3706 20.7865 25.0423 22.1255C25.1627 22.3655 25.1258 22.6664 25.1501 22.9339V22.9339Z" fill="#FAB387" stroke="#FAB387" stroke-width="0.25"/>
<path d="M19.5 25.2158H7.68C6.19988 25.2158 5 24.016 5 22.5358V9.13581C5 7.65569 6.19988 6.45581 7.68 6.45581H11.4104C12.0308 6.45581 12.6321 6.67108 13.1115 7.06491L16.3184 9.69921C16.7979 10.093 17.3992 10.3083 18.0196 10.3083H26.44C27.9202 10.3083 29.12 11.5082 29.12 12.9883" stroke="#6C7086" stroke-width="2" stroke-linecap="round"/>
</g>
<defs>
<filter id="filter0_d_2_1212" x="-1.35999" y="0.395752" width="40.16" height="40.1599" filterUnits="userSpaceOnUse" color-interpolation-filters="sRGB">
<feFlood flood-opacity="0" result="BackgroundImageFix"/>
<feColorMatrix in="SourceAlpha" type="matrix" values="0 0 0 0 0 0 0 0 0 0 0 0 0 0 0 0 0 0 127 0" result="hardAlpha"/>
<feOffset dy="4"/>
<feGaussianBlur stdDeviation="2"/>
<feComposite in2="hardAlpha" operator="out"/>
<feColorMatrix type="matrix" values="0 0 0 0 0 0 0 0 0 0 0 0 0 0 0 0 0 0 0.25 0"/>
<feBlend mode="normal" in2="BackgroundImageFix" result="effect1_dropShadow_2_1212"/>
<feBlend mode="normal" in="SourceGraphic" in2="effect1_dropShadow_2_1212" result="shape"/>
</filter>
</defs>
</svg>
