<svg width="38" height="35" viewBox="0 0 38 35" fill="none" xmlns="http://www.w3.org/2000/svg">
<g filter="url(#filter0_d_2_1219)">
<path d="M29.641 23.7255C30.1055 23.1241 31.032 22.6063 31.0068 21.8469V21.8469C30.9923 21.412 30.6299 21.064 30.1951 21.064H30.1662C29.7167 21.0786 29.3689 21.4555 29.3835 21.9048V21.9048C29.4071 22.2601 29.5126 22.6606 29.3133 22.9557C28.8299 23.6718 28.159 24.2327 27.2383 24.7167C26.47 25.1226 25.6729 25.2676 24.8757 25.1662C24.2235 25.0792 23.7162 24.7892 23.3973 24.3109C22.9335 23.6007 22.89 22.8324 23.2814 22.0642C23.501 21.6251 23.8219 21.278 24.0826 21.0525C24.1897 20.9598 24.2447 20.8347 24.2068 20.6982V20.6982C24.1413 20.4625 23.8501 20.3325 23.6674 20.4952C22.0097 21.9726 22.2393 23.8142 22.8321 24.7167C23.3103 25.4415 24.2814 25.8908 25.3541 25.8908C25.6439 25.8908 25.9338 25.8619 26.2236 25.7894C27.6543 25.51 28.8178 24.791 29.641 23.7255ZM32.833 20.8902C31.7316 19.6001 30.1081 18.8899 28.2529 18.8899V18.8899C28.1108 18.8899 27.986 18.8037 27.8877 18.7011C27.7414 18.5485 27.5338 18.4551 27.3108 18.4551H27.2817C26.8325 18.4695 26.4847 18.8463 26.4991 19.2958C26.5136 19.7306 26.8759 20.0785 27.3108 20.0785H27.3397C27.5657 20.0682 27.7699 19.9633 27.9109 19.805C28.016 19.687 28.1527 19.5856 28.3108 19.5856V19.5856C29.4124 19.5856 30.456 19.9045 31.3982 20.5278C32.1228 21.0061 32.6446 21.6294 32.9345 22.3831C33.1809 22.9919 33.1664 23.5862 32.9055 24.0935C32.4996 24.8617 31.8185 25.2821 30.9198 25.2821C30.4616 25.2821 30.0214 25.1734 29.7138 25.0634C29.5817 25.0161 29.4494 25.0242 29.3418 25.1142V25.1142C29.1347 25.2874 29.1522 25.6382 29.4084 25.7236C29.8488 25.8704 30.29 25.9489 30.7169 25.9489C32.1084 25.9489 33.1375 25.1806 33.5288 24.4124C33.9491 23.5717 33.9202 22.1222 32.833 20.8902ZM25.47 22.9339C25.4845 23.3687 25.8468 23.7166 26.2816 23.7166H26.3107C26.76 23.7021 27.1079 23.3253 27.0933 22.8758C27.0788 22.441 26.7165 22.0932 26.2816 22.0932H26.2527V22.0932C26.1944 22.0932 26.1279 22.0691 26.0987 22.0187C25.5425 21.0576 25.3132 20.0147 25.3975 18.8899C25.4555 18.0202 25.7454 17.2665 26.2527 16.6431C26.6731 16.1068 27.4847 15.8459 28.0354 15.8315C29.4244 15.8052 30.0907 17.3663 30.238 18.2338C30.263 18.3812 30.3473 18.5019 30.4908 18.5435V18.5435C30.7213 18.6105 30.972 18.4366 30.9334 18.1998C30.6046 16.1801 29.2661 15.1357 27.9776 15.1357C26.6731 15.1357 25.47 16.0779 24.9916 17.4694C24.3849 19.1579 24.6905 20.7865 25.3622 22.1255C25.4827 22.3655 25.4457 22.6664 25.47 22.9339V22.9339Z" fill="#F38BA8" stroke="#F38BA8" stroke-width="0.25"/>
<path d="M19.5 25.2158H7.68C6.19988 25.2158 5 24.016 5 22.5358V9.13581C5 7.65569 6.19988 6.45581 7.68 6.45581H11.4104C12.0308 6.45581 12.6321 6.67108 13.1115 7.06491L16.3184 9.69921C16.7979 10.093 17.3992 10.3083 18.0196 10.3083H26.44C27.9202 10.3083 29.12 11.5082 29.12 12.9883" stroke="#6C7086" stroke-width="2" stroke-linecap="round"/>
</g>
<defs>
<filter id="filter0_d_2_1219" x="-1.04004" y="0.395752" width="40.16" height="40.1599" filterUnits="userSpaceOnUse" color-interpolation-filters="sRGB">
<feFlood flood-opacity="0" result="BackgroundImageFix"/>
<feColorMatrix in="SourceAlpha" type="matrix" values="0 0 0 0 0 0 0 0 0 0 0 0 0 0 0 0 0 0 127 0" result="hardAlpha"/>
<feOffset dy="4"/>
<feGaussianBlur stdDeviation="2"/>
<feComposite in2="hardAlpha" operator="out"/>
<feColorMatrix type="matrix" values="0 0 0 0 0 0 0 0 0 0 0 0 0 0 0 0 0 0 0.25 0"/>
<feBlend mode="normal" in2="BackgroundImageFix" result="effect1_dropShadow_2_1219"/>
<feBlend mode="normal" in="SourceGraphic" in2="effect1_dropShadow_2_1219" result="shape"/>
</filter>
</defs>
</svg>
