<svg width="33" height="33" viewBox="0 0 33 33" fill="none" xmlns="http://www.w3.org/2000/svg">
<path d="M18.5 25.2158H6.68C5.19988 25.2158 4 24.016 4 22.5358V9.13581C4 7.65569 5.19988 6.45581 6.68 6.45581H10.4104C11.0308 6.45581 11.6321 6.67108 12.1115 7.06491L15.3184 9.69921C15.7979 10.093 16.3992 10.3083 17.0196 10.3083H25.44C26.9202 10.3083 28.12 11.5082 28.12 12.9883" stroke="#6C7086" stroke-width="2" stroke-linecap="round"/>
<path d="M26.92 25.6958C29.1402 25.6958 30.94 23.8959 30.94 21.6758C30.94 19.4556 29.1402 17.6558 26.92 17.6558C24.6998 17.6558 22.9 19.4556 22.9 21.6758C22.9 23.8959 24.6998 25.6958 26.92 25.6958Z" stroke="#FAB387" stroke-width="2"/>
</svg>
