<svg width="33" height="33" viewBox="0 0 33 33" fill="none" xmlns="http://www.w3.org/2000/svg">
<path d="M19.4 16.1559C19.4 15.4158 19.9999 14.8159 20.74 14.8159H30.12C30.8601 14.8159 31.46 15.4158 31.46 16.1559V25.5359C31.46 26.276 30.8601 26.8759 30.12 26.8759H20.74C19.9999 26.8759 19.4 26.276 19.4 25.5359V16.1559ZM21.4964 18.958C20.9441 18.958 20.4964 19.4057 20.4964 19.958V24.7795C20.4964 25.3318 20.9441 25.7795 21.4964 25.7795H29.3636C29.9159 25.7795 30.3636 25.3318 30.3636 24.7795V19.958C30.3636 19.4057 29.9159 18.958 29.3636 18.958H21.4964ZM29.389 17.8616C29.9273 17.8616 30.3636 17.4252 30.3636 16.887C30.3636 16.3487 29.9273 15.9123 29.389 15.9123H21.4711C20.9328 15.9123 20.4964 16.3487 20.4964 16.887C20.4964 17.4252 20.9328 17.8616 21.4711 17.8616H29.389ZM22.141 20.847C22.141 20.5436 22.3869 20.2977 22.6903 20.2977C22.9936 20.2977 23.2395 20.5436 23.2395 20.847C23.2395 21.1504 22.9936 21.3963 22.6903 21.3963C22.3869 21.3963 22.141 21.1504 22.141 20.847ZM24.3336 20.847C24.3336 20.5436 24.5795 20.2977 24.8829 20.2977C25.1863 20.2977 25.4322 20.5436 25.4322 20.847C25.4322 21.1504 25.1863 21.3963 24.8829 21.3963C24.5795 21.3963 24.3336 21.1504 24.3336 20.847ZM26.5264 20.847C26.5264 20.5436 26.7723 20.2977 27.0757 20.2977C27.3791 20.2977 27.6249 20.5436 27.6249 20.847C27.6249 21.1504 27.3791 21.3963 27.0757 21.3963C26.7723 21.3963 26.5264 21.1504 26.5264 20.847Z" fill="#89B4FA" stroke="#89B4FA" stroke-width="0.5"/>
<path d="M17 25.2158H5.68C4.19988 25.2158 3 24.016 3 22.5358V9.13581C3 7.65569 4.19988 6.45581 5.68 6.45581H9.4104C10.0308 6.45581 10.6321 6.67108 11.1115 7.06491L14.3184 9.69921C14.7979 10.093 15.3992 10.3083 16.0196 10.3083H24.44C25.9202 10.3083 27.12 11.5082 27.12 12.9883" stroke="#6C7086" stroke-width="2" stroke-linecap="round"/>
</svg>
