<svg width="33" height="33" viewBox="0 0 33 33" fill="none" xmlns="http://www.w3.org/2000/svg">
<g clip-path="url(#clip0_2_1136)">
<mask id="mask0_2_1136" style="mask-type:luminance" maskUnits="userSpaceOnUse" x="0" y="0" width="33" height="33">
<path d="M0.119995 0.0759277H32.28V32.2359H0.119995V0.0759277Z" fill="white"/>
</mask>
<g mask="url(#mask0_2_1136)">
<path d="M19.6237 19.7726C19.3572 19.6086 19.014 19.8003 19.014 20.1133V24.8178C19.014 25.8643 19.8623 26.7139 20.9088 26.7139H30.3853C31.4318 26.7139 32.28 25.8643 32.28 24.8178V20.1133C32.28 19.8003 31.9369 19.6086 31.6704 19.7726L26.64 22.8681C26.0316 23.2433 25.2625 23.2433 24.6541 22.8681L19.6237 19.7726Z" fill="#F38BA8" fill-opacity="0.7"/>
<path d="M32.0937 18.3025C32.2097 18.2292 32.2832 18.1011 32.2674 17.9647C32.1584 17.0219 31.3574 16.29 30.3853 16.29H20.9088C19.9367 16.29 19.1357 17.0219 19.0267 17.9647C19.0109 18.1011 19.0844 18.2292 19.2004 18.3025L25.1499 22.0614C25.4554 22.249 25.8387 22.249 26.1442 22.0614L32.0937 18.3025Z" fill="#F38BA8"/>
</g>
<path d="M16 25.2158H4.68C3.19988 25.2158 2 24.016 2 22.5358V9.13581C2 7.65569 3.19988 6.45581 4.68 6.45581H8.4104C9.03085 6.45581 9.63208 6.67108 10.1115 7.06491L13.3184 9.69921C13.7979 10.093 14.3992 10.3083 15.0196 10.3083H23.44C24.9202 10.3083 26.12 11.5082 26.12 12.9883" stroke="#6C7086" stroke-width="2" stroke-linecap="round"/>
</g>
<defs>
<clipPath id="clip0_2_1136">
<rect width="32.16" height="32.16" fill="white" transform="translate(0.119995 0.0759277)"/>
</clipPath>
</defs>
</svg>
