<svg width="38" height="36" viewBox="0 0 38 36" fill="none" xmlns="http://www.w3.org/2000/svg">
<g clip-path="url(#clip0_2_1228)" filter="url(#filter0_d_2_1228)">
<path d="M16.3184 25.2158H7.68C6.19988 25.2158 5 24.016 5 22.5358V9.13581C5 7.65569 6.19988 6.45581 7.68 6.45581H11.4104C12.0308 6.45581 12.6321 6.67108 13.1115 7.06491L16.3184 9.69921C16.7979 10.093 17.3992 10.3083 18.0196 10.3083H26.44C27.9202 10.3083 29.12 11.5082 29.12 12.9883" stroke="#6C7086" stroke-width="2" stroke-linecap="round"/>
<path d="M21.7354 18.8838L18.86 21.7592L21.7354 24.6345" stroke="#89DCEB" stroke-width="1.5" stroke-linecap="round" stroke-linejoin="round"/>
<path d="M29.6826 18.8838L32.558 21.7592L29.6826 24.6345" stroke="#89DCEB" stroke-width="1.5" stroke-linecap="round" stroke-linejoin="round"/>
<path d="M23.6322 26.5514L27.7855 16.9668" stroke="#89DCEB" stroke-width="1.5" stroke-linecap="round" stroke-linejoin="round"/>
</g>
<defs>
<filter id="filter0_d_2_1228" x="-2.56006" y="0.395752" width="40.16" height="40.1599" filterUnits="userSpaceOnUse" color-interpolation-filters="sRGB">
<feFlood flood-opacity="0" result="BackgroundImageFix"/>
<feColorMatrix in="SourceAlpha" type="matrix" values="0 0 0 0 0 0 0 0 0 0 0 0 0 0 0 0 0 0 127 0" result="hardAlpha"/>
<feOffset dy="4"/>
<feGaussianBlur stdDeviation="2"/>
<feComposite in2="hardAlpha" operator="out"/>
<feColorMatrix type="matrix" values="0 0 0 0 0 0 0 0 0 0 0 0 0 0 0 0 0 0 0.25 0"/>
<feBlend mode="normal" in2="BackgroundImageFix" result="effect1_dropShadow_2_1228"/>
<feBlend mode="normal" in="SourceGraphic" in2="effect1_dropShadow_2_1228" result="shape"/>
</filter>
<clipPath id="clip0_2_1228">
<rect width="32.16" height="32.16" fill="white" transform="translate(1.43994 0.395752)"/>
</clipPath>
</defs>
</svg>
