<svg width="33" height="33" viewBox="0 0 33 33" fill="none" xmlns="http://www.w3.org/2000/svg">
<g clip-path="url(#clip0_2_1148)">
<path d="M20 16.34C20 15.5999 20.5999 15 21.34 15H30.72C31.4601 15 32.06 15.5999 32.06 16.34V25.72C32.06 26.4601 31.4601 27.06 30.72 27.06H21.34C20.5999 27.06 20 26.4601 20 25.72V16.34ZM22.0964 19.1421C21.5441 19.1421 21.0964 19.5898 21.0964 20.1421V24.9636C21.0964 25.5159 21.5441 25.9636 22.0964 25.9636H29.9636C30.5159 25.9636 30.9636 25.5159 30.9636 24.9636V20.1421C30.9636 19.5898 30.5159 19.1421 29.9636 19.1421H22.0964ZM29.989 18.0457C30.5272 18.0457 30.9636 17.6093 30.9636 17.071C30.9636 16.5328 30.5272 16.0964 29.989 16.0964H22.071C21.5328 16.0964 21.0964 16.5328 21.0964 17.071C21.0964 17.6093 21.5328 18.0457 22.071 18.0457H29.989ZM22.741 21.0311C22.741 20.7277 22.9869 20.4818 23.2902 20.4818C23.5936 20.4818 23.8395 20.7277 23.8395 21.0311C23.8395 21.3344 23.5936 21.5803 23.2902 21.5803C22.9869 21.5803 22.741 21.3344 22.741 21.0311ZM24.9336 21.0311C24.9336 20.7277 25.1795 20.4818 25.4829 20.4818C25.7863 20.4818 26.0321 20.7277 26.0321 21.0311C26.0321 21.3344 25.7863 21.5803 25.4829 21.5803C25.1795 21.5803 24.9336 21.3344 24.9336 21.0311ZM27.1264 21.0311C27.1264 20.7277 27.3723 20.4818 27.6757 20.4818C27.979 20.4818 28.2249 20.7277 28.2249 21.0311C28.2249 21.3344 27.979 21.5803 27.6757 21.5803C27.3723 21.5803 27.1264 21.3344 27.1264 21.0311Z" fill="#F38BA8"/>
<path d="M17 24.2158H5.68C4.19988 24.2158 3 23.016 3 21.5358V8.13581C3 6.65569 4.19988 5.45581 5.68 5.45581H9.4104C10.0308 5.45581 10.6321 5.67108 11.1115 6.06491L14.3184 8.69921C14.7979 9.09304 15.3992 9.30831 16.0196 9.30831H24.44C25.9202 9.30831 27.12 10.5082 27.12 11.9883" stroke="#6C7086" stroke-width="2" stroke-linecap="round"/>
</g>
<defs>
<clipPath id="clip0_2_1148">
<rect width="32.16" height="32.16" fill="white" transform="translate(0.439941 0.0759277)"/>
</clipPath>
</defs>
</svg>
