<svg width="33" height="33" viewBox="0 0 33 33" fill="none" xmlns="http://www.w3.org/2000/svg">
<g clip-path="url(#clip0_2_1151)">
<path d="M25.8472 16.156C25.0835 16.156 24.4647 16.7748 24.4647 17.5386C24.4647 17.9967 24.0934 18.3681 23.6353 18.3681H22.2526C21.6415 18.3681 21.1466 18.8631 21.1466 19.4741V21.1332C21.1466 21.4384 21.3944 21.6862 21.6996 21.6862H21.8973C22.6206 21.6862 23.2787 22.2066 23.351 22.9262C23.434 23.7541 22.7869 24.4513 21.9761 24.4513H21.6996C21.3944 24.4513 21.1466 24.699 21.1466 25.0043V26.6633C21.1466 27.2745 21.6415 27.7694 22.2526 27.7694H23.9117C24.2169 27.7694 24.4647 27.5216 24.4647 27.2164V27.0187C24.4647 26.2954 24.9852 25.6373 25.7046 25.565C26.5326 25.482 27.2298 26.1291 27.2298 26.9399V27.2164C27.2298 27.5216 27.4776 27.7694 27.7828 27.7694H29.4419C30.0529 27.7694 30.5479 27.2745 30.5479 26.6633V25.2807C30.5479 24.8226 30.9193 24.4513 31.3774 24.4513C32.1412 24.4513 32.76 23.8325 32.76 23.0688C32.76 22.305 32.1412 21.6862 31.3774 21.6862C30.9193 21.6862 30.5479 21.3148 30.5479 20.8567V19.4741C30.5479 18.8631 30.0529 18.3681 29.4419 18.3681H28.0593C27.6012 18.3681 27.2298 17.9967 27.2298 17.5386C27.2298 16.7748 26.611 16.156 25.8472 16.156Z" fill="#89DCEB"/>
<path d="M18 24.2158H5.68C4.19988 24.2158 3 23.016 3 21.5358V8.13581C3 6.65569 4.19988 5.45581 5.68 5.45581H9.4104C10.0308 5.45581 10.6321 5.67108 11.1115 6.06491L14.3184 8.69921C14.7979 9.09304 15.3992 9.30831 16.0196 9.30831H24.44C25.9202 9.30831 27.12 10.5082 27.12 11.9883" stroke="#6C7086" stroke-width="2" stroke-linecap="round"/>
</g>
<defs>
<clipPath id="clip0_2_1151">
<rect width="32.16" height="32.16" fill="white" transform="translate(0.599976 0.0759277)"/>
</clipPath>
</defs>
</svg>
