<svg width="33" height="33" viewBox="0 0 33 33" fill="none" xmlns="http://www.w3.org/2000/svg">
<g clip-path="url(#clip0_2_1116)">
<path d="M16 25.2158H3.70002C2.2199 25.2158 1.02002 24.016 1.02002 22.5358V9.13581C1.02002 7.65569 2.2199 6.45581 3.70002 6.45581H7.43042C8.05087 6.45581 8.6521 6.67108 9.13152 7.06491L12.3385 9.69921C12.8179 10.093 13.4192 10.3083 14.0396 10.3083H22.46C23.9402 10.3083 25.14 11.5082 25.14 12.9883" stroke="#6C7086" stroke-width="2" stroke-linecap="round"/>
<path d="M20.4554 18.564L17.5801 21.4393L20.4554 24.3147" stroke="#A6E3A1" stroke-width="1.5" stroke-linecap="round" stroke-linejoin="round"/>
<path d="M28.4027 18.564L31.2781 21.4393L28.4027 24.3147" stroke="#A6E3A1" stroke-width="1.5" stroke-linecap="round" stroke-linejoin="round"/>
<path d="M22.3523 26.2316L26.5056 16.647" stroke="#A6E3A1" stroke-width="1.5" stroke-linecap="round" stroke-linejoin="round"/>
</g>
<defs>
<clipPath id="clip0_2_1116">
<rect width="32.16" height="32.16" fill="white" transform="translate(0.160034 0.0759277)"/>
</clipPath>
</defs>
</svg>
