<svg width="41" height="36" viewBox="0 0 41 36" fill="none" xmlns="http://www.w3.org/2000/svg">
<g clip-path="url(#clip0_2_1156)" filter="url(#filter0_d_2_1156)">
<path d="M23 25.2158H7.70002C6.2199 25.2158 5.02002 24.016 5.02002 22.5358V9.13581C5.02002 7.65569 6.2199 6.45581 7.70002 6.45581H11.4304C12.0509 6.45581 12.6521 6.67108 13.1315 7.06491L16.3385 9.69921C16.8179 10.093 17.4192 10.3083 18.0396 10.3083H26.46C27.9402 10.3083 29.14 11.5082 29.14 12.9883" stroke="#6C7086" stroke-width="2" stroke-linecap="round"/>
<path d="M30.96 27.0359C33.9202 27.0359 36.32 24.6362 36.32 21.6759C36.32 18.7157 33.9202 16.3159 30.96 16.3159C27.9997 16.3159 25.6 18.7157 25.6 21.6759C25.6 24.6362 27.9997 27.0359 30.96 27.0359Z" fill="#FAB387"/>
</g>
<defs>
<filter id="filter0_d_2_1156" x="0.160034" y="0.23584" width="40.16" height="40.1599" filterUnits="userSpaceOnUse" color-interpolation-filters="sRGB">
<feFlood flood-opacity="0" result="BackgroundImageFix"/>
<feColorMatrix in="SourceAlpha" type="matrix" values="0 0 0 0 0 0 0 0 0 0 0 0 0 0 0 0 0 0 127 0" result="hardAlpha"/>
<feOffset dy="4"/>
<feGaussianBlur stdDeviation="2"/>
<feComposite in2="hardAlpha" operator="out"/>
<feColorMatrix type="matrix" values="0 0 0 0 0 0 0 0 0 0 0 0 0 0 0 0 0 0 0.25 0"/>
<feBlend mode="normal" in2="BackgroundImageFix" result="effect1_dropShadow_2_1156"/>
<feBlend mode="normal" in="SourceGraphic" in2="effect1_dropShadow_2_1156" result="shape"/>
</filter>
<clipPath id="clip0_2_1156">
<rect width="32.16" height="32.16" fill="white" transform="translate(4.16003 0.23584)"/>
</clipPath>
</defs>
</svg>
