<svg width="33" height="33" viewBox="0 0 33 33" fill="none" xmlns="http://www.w3.org/2000/svg">
<path d="M27.321 23.7255C27.7856 23.1241 28.7121 22.6063 28.6868 21.8469C28.6723 21.412 28.31 21.064 27.8752 21.064H27.8462C27.3968 21.0786 27.0489 21.4555 27.0635 21.9048C27.0872 22.2601 27.1926 22.6606 26.9933 22.9557C26.5099 23.6718 25.8391 24.2327 24.9183 24.7167C24.1501 25.1226 23.3529 25.2676 22.5558 25.1662C21.9036 25.0792 21.3963 24.7892 21.0774 24.3109C20.6136 23.6007 20.57 22.8324 20.9614 22.0642C21.181 21.6251 21.502 21.278 21.7626 21.0525C21.8698 20.9598 21.9248 20.8347 21.8869 20.6982C21.8214 20.4625 21.5301 20.3325 21.3475 20.4952C19.6897 21.9726 19.9193 23.8142 20.5121 24.7167C20.9904 25.4415 21.9615 25.8908 23.0342 25.8908C23.324 25.8908 23.6138 25.8619 23.9037 25.7894C25.3344 25.51 26.4979 24.791 27.321 23.7255ZM30.5131 20.8902C29.4116 19.6001 27.7882 18.8899 25.933 18.8899C25.7908 18.8899 25.6661 18.8037 25.5677 18.7011C25.4214 18.5485 25.2139 18.4551 24.9908 18.4551H24.9617C24.5126 18.4695 24.1647 18.8463 24.1792 19.2958C24.1937 19.7306 24.556 20.0785 24.9908 20.0785H25.0198C25.2458 20.0682 25.4499 19.9633 25.5909 19.805C25.6961 19.687 25.8328 19.5856 25.9909 19.5856C27.0925 19.5856 28.1361 19.9045 29.0782 20.5278C29.8029 21.0061 30.3247 21.6294 30.6145 22.3831C30.861 22.9919 30.8465 23.5862 30.5856 24.0935C30.1797 24.8617 29.4986 25.2821 28.5998 25.2821C28.1416 25.2821 27.7014 25.1734 27.3939 25.0634C27.2617 25.0161 27.1295 25.0242 27.0218 25.1142C26.8147 25.2874 26.8323 25.6382 27.0884 25.7236C27.5289 25.8704 27.97 25.9489 28.397 25.9489C29.7884 25.9489 30.8175 25.1806 31.2088 24.4124C31.6292 23.5717 31.6002 22.1222 30.5131 20.8902ZM23.1501 22.9339C23.1645 23.3687 23.5269 23.7166 23.9617 23.7166H23.9908C24.4401 23.7021 24.7879 23.3253 24.7733 22.8758C24.7589 22.441 24.3965 22.0932 23.9617 22.0932H23.9328C23.8744 22.0932 23.808 22.0691 23.7788 22.0187C23.2225 21.0576 22.9932 20.0147 23.0776 18.8899C23.1356 18.0202 23.4254 17.2665 23.9328 16.6431C24.3531 16.1068 25.1648 15.8459 25.7155 15.8315C27.1044 15.8052 27.7708 17.3663 27.9181 18.2338C27.9431 18.3812 28.0274 18.5019 28.1709 18.5435C28.4013 18.6105 28.652 18.4366 28.6135 18.1998C28.2846 16.1801 26.9462 15.1357 25.6576 15.1357C24.3531 15.1357 23.1501 16.0779 22.6717 17.4694C22.065 19.1579 22.3706 20.7865 23.0423 22.1255C23.1627 22.3655 23.1258 22.6664 23.1501 22.9339Z" fill="#FAB387" stroke="#FAB387" stroke-width="0.25"/>
<path d="M17.5 25.2158H5.68C4.19988 25.2158 3 24.016 3 22.5358V9.13581C3 7.65569 4.19988 6.45581 5.68 6.45581H9.4104C10.0308 6.45581 10.6321 6.67108 11.1115 7.06491L14.3184 9.69921C14.7979 10.093 15.3992 10.3083 16.0196 10.3083H24.44C25.9202 10.3083 27.12 11.5082 27.12 12.9883" stroke="#6C7086" stroke-width="2" stroke-linecap="round"/>
</svg>
