<svg width="38" height="35" viewBox="0 0 38 35" fill="none" xmlns="http://www.w3.org/2000/svg">
<g clip-path="url(#clip0_2_1164)" filter="url(#filter0_d_2_1164)">
<path d="M17.48 25.2158H7.68C6.19988 25.2158 5 24.016 5 22.5358V9.13581C5 7.65569 6.19988 6.45581 7.68 6.45581H11.4104C12.0308 6.45581 12.6321 6.67108 13.1115 7.06491L16.3184 9.69921C16.7979 10.093 17.3992 10.3083 18.0196 10.3083H26.44C27.9202 10.3083 29.12 11.5082 29.12 12.9883" stroke="#6C7086" stroke-width="2" stroke-linecap="round"/>
<path d="M23.0417 18.281L20.5028 20.8199L23.0417 23.3589" stroke="#A6E3A1" stroke-width="1.25" stroke-linecap="round" stroke-linejoin="round"/>
<path d="M30.0591 18.281L32.598 20.8199L30.0591 23.3589" stroke="#A6E3A1" stroke-width="1.25" stroke-linecap="round" stroke-linejoin="round"/>
<path d="M24.7167 25.0516L28.3841 16.5884" stroke="#A6E3A1" stroke-width="1.25" stroke-linecap="round" stroke-linejoin="round"/>
</g>
<defs>
<filter id="filter0_d_2_1164" x="-2.52002" y="0.23584" width="40.16" height="40.1599" filterUnits="userSpaceOnUse" color-interpolation-filters="sRGB">
<feFlood flood-opacity="0" result="BackgroundImageFix"/>
<feColorMatrix in="SourceAlpha" type="matrix" values="0 0 0 0 0 0 0 0 0 0 0 0 0 0 0 0 0 0 127 0" result="hardAlpha"/>
<feOffset dy="4"/>
<feGaussianBlur stdDeviation="2"/>
<feComposite in2="hardAlpha" operator="out"/>
<feColorMatrix type="matrix" values="0 0 0 0 0 0 0 0 0 0 0 0 0 0 0 0 0 0 0.25 0"/>
<feBlend mode="normal" in2="BackgroundImageFix" result="effect1_dropShadow_2_1164"/>
<feBlend mode="normal" in="SourceGraphic" in2="effect1_dropShadow_2_1164" result="shape"/>
</filter>
<clipPath id="clip0_2_1164">
<rect width="32.16" height="32.16" fill="white" transform="translate(1.47998 0.23584)"/>
</clipPath>
</defs>
</svg>
