<svg width="33" height="36" viewBox="0 0 33 36" fill="none" xmlns="http://www.w3.org/2000/svg">
<g filter="url(#filter0_d_2_204)">
<path d="M26.6231 7.82516C26.8478 7.92918 26.9856 8.16063 26.9699 8.40781L26.3232 18.5636C26.2836 19.1843 25.4421 19.3423 25.1802 18.7782L18.9967 5.46152C18.7613 4.95468 19.2857 4.42961 19.7929 4.66431L26.6231 7.82516ZM21.3462 24.2146C21.4614 24.4937 21.3512 24.815 21.089 24.9646L15.9013 27.9246C15.717 28.0298 15.4909 28.0298 15.3066 27.9246L10.119 24.9646C9.85674 24.815 9.74655 24.4937 9.86172 24.2146L10.716 22.1443C10.8087 21.9197 11.0277 21.7731 11.2706 21.7731H19.9373C20.1802 21.7731 20.3992 21.9196 20.4919 22.1442L21.3462 24.2146ZM15.0491 11.756C15.253 11.2603 15.955 11.2603 16.1589 11.756L18.3778 17.1507C18.5402 17.5455 18.2499 17.9789 17.8229 17.9789H13.385C12.958 17.9789 12.6677 17.5455 12.8301 17.1507L15.0491 11.756ZM6.02072 18.7775C5.75852 19.3416 4.91694 19.1831 4.87781 18.5624L4.23774 8.40755C4.22217 8.1605 4.35992 7.92924 4.58457 7.82528L11.4142 4.66473C11.9215 4.42999 12.4459 4.95531 12.2103 5.46217L6.02072 18.7775Z" fill="#F38BA8"/>
</g>
<defs>
<filter id="filter0_d_2_204" x="-3.84338" y="0" width="40.1566" height="40.1565" filterUnits="userSpaceOnUse" color-interpolation-filters="sRGB">
<feFlood flood-opacity="0" result="BackgroundImageFix"/>
<feColorMatrix in="SourceAlpha" type="matrix" values="0 0 0 0 0 0 0 0 0 0 0 0 0 0 0 0 0 0 127 0" result="hardAlpha"/>
<feOffset dy="4"/>
<feGaussianBlur stdDeviation="2"/>
<feComposite in2="hardAlpha" operator="out"/>
<feColorMatrix type="matrix" values="0 0 0 0 0 0 0 0 0 0 0 0 0 0 0 0 0 0 0.25 0"/>
<feBlend mode="normal" in2="BackgroundImageFix" result="effect1_dropShadow_2_204"/>
<feBlend mode="normal" in="SourceGraphic" in2="effect1_dropShadow_2_204" result="shape"/>
</filter>
</defs>
</svg>
