<svg width="33" height="33" viewBox="0 0 33 33" fill="none" xmlns="http://www.w3.org/2000/svg">
<path d="M6.9827 12.0579C6.9827 11.3179 6.38282 10.718 5.64284 10.718C4.90285 10.718 4.30298 11.3179 4.30298 12.0579V20.097C4.30298 20.837 4.90285 21.4369 5.64284 21.4369C6.38282 21.4369 6.9827 20.837 6.9827 20.097V12.0579Z" fill="#6C7086"/>
<path d="M12.3421 9.37843C12.3421 8.63845 11.7422 8.03857 11.0022 8.03857C10.2622 8.03857 9.66235 8.63845 9.66235 9.37843V22.777C9.66235 23.517 10.2622 24.1169 11.0022 24.1169C11.7422 24.1169 12.3421 23.517 12.3421 22.777V9.37843Z" fill="#6C7086"/>
<path d="M17.7005 5.35915C17.7005 4.61916 17.1006 4.01929 16.3606 4.01929C15.6206 4.01929 15.0208 4.61916 15.0208 5.35915V26.7969C15.0208 27.5369 15.6206 28.1367 16.3606 28.1367C17.1006 28.1367 17.7005 27.5369 17.7005 26.7969V5.35915Z" fill="#6C7086"/>
<path d="M23.0608 9.37843C23.0608 8.63845 22.4609 8.03857 21.721 8.03857C20.981 8.03857 20.3811 8.63845 20.3811 9.37843V22.777C20.3811 23.517 20.981 24.1169 21.721 24.1169C22.4609 24.1169 23.0608 23.517 23.0608 22.777V9.37843Z" fill="#6C7086"/>
<path d="M28.4202 12.0579C28.4202 11.3179 27.8203 10.718 27.0803 10.718C26.3404 10.718 25.7405 11.3179 25.7405 12.0579V20.097C25.7405 20.837 26.3404 21.4369 27.0803 21.4369C27.8203 21.4369 28.4202 20.837 28.4202 20.097V12.0579Z" fill="#6C7086"/>
</svg>
