<svg width="34" height="38" viewBox="0 0 34 38" fill="none" xmlns="http://www.w3.org/2000/svg">
<g filter="url(#filter0_d_2_218)">
<path d="M25.3656 15.0193C25.3254 14.8049 24.7359 14.068 23.597 12.8085C23.5702 12.554 23.9856 12.2056 24.8029 11.7366L27.1343 9.65986C27.6568 8.98993 27.965 7.94484 28.0588 6.471L28.032 6.12264C27.9382 5.07755 27.1878 4.24683 25.7676 3.5903C24.9235 3.02756 23.4094 2.71939 21.2389 2.6792C19.4301 2.82658 17.0719 3.46972 14.1644 4.5952C13.3605 5.17134 12.4494 5.74748 11.4311 6.31022L11.4445 6.4978L11.7259 6.39061C11.8331 6.37721 11.9001 6.4308 11.9135 6.53799L12.0877 6.4442L12.1814 6.4308L12.1948 6.51119C12.1948 6.60498 11.5651 7.10073 9.8367 8.32L9.75631 8.48079C9.34095 8.50758 8.93899 8.81575 8.53703 9.37849L8.64422 9.53927L8.97919 9.41869L9.22036 9.74025C9.64912 9.2981 10.1047 8.90954 10.6004 8.57458C10.855 8.64157 10.989 8.72196 11.19 8.78895C12.5566 7.78406 13.9099 7.04714 15.2631 6.59159L15.2765 6.77917C15.0085 7.14093 14.8478 7.34191 14.7674 7.34191L14.9013 7.65007C14.9147 7.90465 11.4847 17.0291 5.97791 26.9976L6.08509 27.2522C6.55404 27.145 6.86221 27.0244 7.08999 26.9038L7.10339 27.078L7.63933 27.0378L6.74162 29.396L6.9292 29.4764C7.69292 28.6189 8.26906 27.748 8.67102 26.9574C10.9086 26.3009 12.6102 25.6578 13.7893 25.028C14.9683 24.9208 15.8794 24.6127 16.4958 24.0901L17.7284 23.4604C19.4301 22.1473 20.7029 21.2228 21.5738 20.6735C23.3559 19.3604 24.5215 18.0876 25.0575 16.8549L25.3656 15.0193ZM20.7297 18.1144L18.3582 19.9768C16.6298 21.1157 15.6785 21.7186 15.5579 21.7186C12.7844 23.2326 11.056 24.0231 10.386 24.0767L10.319 24.0901C10.3726 23.782 11.6053 21.2496 14.0037 16.4931C15.0487 16.4127 16.7102 15.917 18.9745 15.0193L19.5239 14.9791C20.6627 14.8719 21.5202 15.0997 22.083 15.6356L22.1232 15.984C21.7078 17.1899 21.2255 17.9134 20.7297 18.1144ZM22.1902 10.37C21.949 10.6648 21.2791 11.1605 20.1804 11.8572C19.8186 11.8974 18.4788 12.42 16.1474 13.4383L15.7723 13.3713L15.7589 13.2105C15.7321 12.8755 15.8794 12.4468 16.2144 11.9376C16.3886 10.9997 16.5896 10.437 16.8039 10.3298L18.7467 5.93506C18.7199 5.64029 19.1353 5.4661 19.9928 5.31872L20.2742 5.29192L20.2876 5.5331L21.8418 5.31872C23.3827 5.18473 24.1866 5.5063 24.2536 6.25662L24.4277 6.22982L24.3875 5.80107L24.5885 5.77427C25.0575 6.02885 25.2853 6.31022 25.312 6.68538C25.3388 6.92655 25.2049 7.23472 24.9235 7.59648C24.8029 7.60988 24.7359 7.51609 24.7225 7.3553L24.5349 7.3687L24.4947 7.90465C23.7176 9.07032 23.1415 9.65986 22.7931 9.70006L22.1902 10.37Z" fill="#F9E2AF"/>
</g>
<defs>
<filter id="filter0_d_2_218" x="-3.06042" y="0" width="40.1566" height="40.1565" filterUnits="userSpaceOnUse" color-interpolation-filters="sRGB">
<feFlood flood-opacity="0" result="BackgroundImageFix"/>
<feColorMatrix in="SourceAlpha" type="matrix" values="0 0 0 0 0 0 0 0 0 0 0 0 0 0 0 0 0 0 127 0" result="hardAlpha"/>
<feOffset dy="4"/>
<feGaussianBlur stdDeviation="2"/>
<feComposite in2="hardAlpha" operator="out"/>
<feColorMatrix type="matrix" values="0 0 0 0 0 0 0 0 0 0 0 0 0 0 0 0 0 0 0.25 0"/>
<feBlend mode="normal" in2="BackgroundImageFix" result="effect1_dropShadow_2_218"/>
<feBlend mode="normal" in="SourceGraphic" in2="effect1_dropShadow_2_218" result="shape"/>
</filter>
</defs>
</svg>
