<svg width="33" height="33" viewBox="0 0 33 33" fill="none" xmlns="http://www.w3.org/2000/svg">
<path d="M6.99867 8.93258C6.99867 6.95929 8.59834 5.35962 10.5716 5.35962C11.2294 5.35962 11.7626 5.89284 11.7626 6.55061C11.7626 7.20836 11.2294 7.74159 10.5716 7.74159C9.91387 7.74159 9.38065 8.27482 9.38065 8.93258V13.6232C9.38065 14.562 9.0148 15.4317 8.40343 16.0785C9.0148 16.7252 9.38065 17.5949 9.38065 18.5338V23.2244C9.38065 23.8822 9.91387 24.4154 10.5716 24.4154C11.2294 24.4154 11.7626 24.9486 11.7626 25.6063C11.7626 26.2641 11.2294 26.7974 10.5716 26.7974C8.59834 26.7974 6.99867 25.1977 6.99867 23.2244V18.5338C6.99867 17.9872 6.62673 17.5109 6.09655 17.3783L5.51883 17.2338C4.98864 17.1015 4.6167 16.625 4.6167 16.0785C4.6167 15.532 4.98864 15.0555 5.51883 14.9231L6.09655 14.7787C6.62673 14.646 6.99867 14.1697 6.99867 13.6232V8.93258ZM26.0544 8.93258C26.0544 6.95929 24.4548 5.35962 22.4814 5.35962C21.8237 5.35962 21.2904 5.89284 21.2904 6.55061C21.2904 7.20836 21.8237 7.74159 22.4814 7.74159C23.1393 7.74159 23.6724 8.27482 23.6724 8.93258V13.6232C23.6724 14.562 24.0383 15.4317 24.6497 16.0785C24.0383 16.7252 23.6724 17.5949 23.6724 18.5338V23.2244C23.6724 23.8822 23.1393 24.4154 22.4814 24.4154C21.8237 24.4154 21.2904 24.9486 21.2904 25.6063C21.2904 26.2641 21.8237 26.7974 22.4814 26.7974C24.4548 26.7974 26.0544 25.1977 26.0544 23.2244V18.5338C26.0544 17.9872 26.4264 17.5109 26.9566 17.3783L27.5342 17.2338C28.0645 17.1015 28.4364 16.625 28.4364 16.0785C28.4364 15.532 28.0645 15.0555 27.5342 14.9231L26.9566 14.7787C26.4264 14.646 26.0544 14.1697 26.0544 13.6232V8.93258Z" fill="#89B4FA"/>
</svg>
