<svg width="33" height="33" viewBox="0 0 33 33" fill="none" xmlns="http://www.w3.org/2000/svg">
<path d="M6.46693 8.93258C6.46693 6.95929 8.0666 5.35962 10.0399 5.35962C10.6976 5.35962 11.2309 5.89284 11.2309 6.55061C11.2309 7.20836 10.6976 7.74159 10.0399 7.74159C9.38213 7.74159 8.84891 8.27482 8.84891 8.93258V13.6232C8.84891 14.562 8.48306 15.4317 7.8717 16.0785C8.48306 16.7252 8.84891 17.5949 8.84891 18.5338V23.2244C8.84891 23.8822 9.38213 24.4154 10.0399 24.4154C10.6976 24.4154 11.2309 24.9486 11.2309 25.6063C11.2309 26.2641 10.6976 26.7974 10.0399 26.7974C8.0666 26.7974 6.46693 25.1977 6.46693 23.2244V18.5338C6.46693 17.9872 6.09499 17.5109 5.56481 17.3783L4.98709 17.2338C4.45691 17.1015 4.08496 16.625 4.08496 16.0785C4.08496 15.532 4.45691 15.0555 4.98709 14.9231L5.56481 14.7787C6.09499 14.646 6.46693 14.1697 6.46693 13.6232V8.93258ZM25.5227 8.93258C25.5227 6.95929 23.923 5.35962 21.9497 5.35962C21.292 5.35962 20.7587 5.89284 20.7587 6.55061C20.7587 7.20836 21.292 7.74159 21.9497 7.74159C22.6076 7.74159 23.1407 8.27482 23.1407 8.93258V13.6232C23.1407 14.562 23.5066 15.4317 24.118 16.0785C23.5066 16.7252 23.1407 17.5949 23.1407 18.5338V23.2244C23.1407 23.8822 22.6076 24.4154 21.9497 24.4154C21.292 24.4154 20.7587 24.9486 20.7587 25.6063C20.7587 26.2641 21.292 26.7974 21.9497 26.7974C23.923 26.7974 25.5227 25.1977 25.5227 23.2244V18.5338C25.5227 17.9872 25.8946 17.5109 26.4248 17.3783L27.0024 17.2338C27.5327 17.1015 27.9047 16.625 27.9047 16.0785C27.9047 15.532 27.5327 15.0555 27.0024 14.9231L26.4248 14.7787C25.8946 14.646 25.5227 14.1697 25.5227 13.6232V8.93258Z" fill="#FAB387"/>
</svg>
