<svg width="33" height="35" viewBox="0 0 33 35" fill="none" xmlns="http://www.w3.org/2000/svg">
<g filter="url(#filter0_d_2_228)">
<path d="M6.96718 8.93258C6.96718 6.95929 8.56685 5.35962 10.5401 5.35962C11.1979 5.35962 11.7311 5.89284 11.7311 6.55061C11.7311 7.20836 11.1979 7.74159 10.5401 7.74159C9.88237 7.74159 9.34915 8.27482 9.34915 8.93258V13.6232C9.34915 14.562 8.9833 15.4317 8.37194 16.0785C8.9833 16.7252 9.34915 17.5949 9.34915 18.5338V23.2244C9.34915 23.8822 9.88237 24.4154 10.5401 24.4154C11.1979 24.4154 11.7311 24.9486 11.7311 25.6063C11.7311 26.2641 11.1979 26.7974 10.5401 26.7974C8.56685 26.7974 6.96718 25.1977 6.96718 23.2244V18.5338C6.96718 17.9872 6.59523 17.5109 6.06505 17.3783L5.48733 17.2338C4.95715 17.1015 4.58521 16.625 4.58521 16.0785C4.58521 15.532 4.95715 15.0555 5.48733 14.9231L6.06505 14.7787C6.59523 14.646 6.96718 14.1697 6.96718 13.6232V8.93258ZM26.0229 8.93258C26.0229 6.95929 24.4233 5.35962 22.4499 5.35962C21.7922 5.35962 21.2589 5.89284 21.2589 6.55061C21.2589 7.20836 21.7922 7.74159 22.4499 7.74159C23.1078 7.74159 23.6409 8.27482 23.6409 8.93258V13.6232C23.6409 14.562 24.0069 15.4317 24.6182 16.0785C24.0069 16.7252 23.6409 17.5949 23.6409 18.5338V23.2244C23.6409 23.8822 23.1078 24.4154 22.4499 24.4154C21.7922 24.4154 21.2589 24.9486 21.2589 25.6063C21.2589 26.2641 21.7922 26.7974 22.4499 26.7974C24.4233 26.7974 26.0229 25.1977 26.0229 23.2244V18.5338C26.0229 17.9872 26.3949 17.5109 26.9251 17.3783L27.5027 17.2338C28.033 17.1015 28.4049 16.625 28.4049 16.0785C28.4049 15.532 28.033 15.0555 27.5027 14.9231L26.9251 14.7787C26.3949 14.646 26.0229 14.1697 26.0229 13.6232V8.93258Z" fill="#FAB387"/>
</g>
<defs>
<filter id="filter0_d_2_228" x="-3.43396" y="0" width="40.1566" height="40.1565" filterUnits="userSpaceOnUse" color-interpolation-filters="sRGB">
<feFlood flood-opacity="0" result="BackgroundImageFix"/>
<feColorMatrix in="SourceAlpha" type="matrix" values="0 0 0 0 0 0 0 0 0 0 0 0 0 0 0 0 0 0 127 0" result="hardAlpha"/>
<feOffset dy="4"/>
<feGaussianBlur stdDeviation="2"/>
<feComposite in2="hardAlpha" operator="out"/>
<feColorMatrix type="matrix" values="0 0 0 0 0 0 0 0 0 0 0 0 0 0 0 0 0 0 0.25 0"/>
<feBlend mode="normal" in2="BackgroundImageFix" result="effect1_dropShadow_2_228"/>
<feBlend mode="normal" in="SourceGraphic" in2="effect1_dropShadow_2_228" result="shape"/>
</filter>
</defs>
</svg>
