<svg width="33" height="33" viewBox="0 0 33 33" fill="none" xmlns="http://www.w3.org/2000/svg">
<path d="M27.4749 11.1987C27.4205 11.141 27.3629 11.0834 27.3053 11.0291C27.2475 10.9748 27.1932 10.9138 27.1356 10.8595C27.078 10.8052 27.0236 10.7442 26.966 10.6899C26.9084 10.6356 26.8541 10.5746 26.7964 10.5203C26.7388 10.466 26.6845 10.405 26.6267 10.3507C26.5691 10.2964 26.5149 10.2354 26.4573 10.1811C26.3995 10.1268 26.3452 10.0657 26.2876 10.0115C27.9701 11.665 28.934 13.9145 28.9707 16.2733C28.9707 21.8939 23.2653 26.4664 16.2505 26.4664C12.3225 26.4664 8.80832 25.0315 6.47119 22.7826L6.64079 22.9522L6.81039 23.1218L6.97999 23.2915L7.1496 23.461L7.3192 23.6306L7.4888 23.8002L7.65841 23.9698C9.99214 26.3138 13.5843 27.8233 17.6074 27.8233C24.6221 27.8233 30.3276 23.2507 30.3276 17.647C30.3276 15.2522 29.2964 12.9829 27.4749 11.1987Z" fill="#11111B"/>
<path d="M28.1216 16.2737C28.1216 21.4331 22.8062 25.6154 16.2494 25.6154C9.69256 25.6154 4.3772 21.4331 4.3772 16.2737C4.3772 13.075 6.41244 10.2494 9.53991 8.57372C12.6674 6.89803 14.6145 5.18164 16.2494 5.18164C17.8844 5.18164 19.2819 6.58257 22.9588 8.57372C26.0863 10.2494 28.1216 13.075 28.1216 16.2737Z" fill="#FBF0DF"/>
<path d="M28.1219 16.2736C28.1201 15.6108 28.0289 14.9513 27.8504 14.313C26.9244 25.6085 13.1459 26.1512 7.72876 22.7727C10.1639 24.6602 13.169 25.6627 16.2496 25.6152C22.7963 25.6152 28.1219 21.426 28.1219 16.2736Z" fill="#F6DECE"/>
<path d="M11.6803 7.95296C13.1966 7.0439 15.2114 5.33768 17.1924 5.33429C16.8877 5.23578 16.5697 5.18431 16.2494 5.18164C15.4286 5.18164 14.5534 5.60565 13.451 6.24336C13.0677 6.46723 12.6708 6.71485 12.2502 6.97266C11.4598 7.46111 10.5541 8.01402 9.53652 8.56693C6.30729 10.3138 4.3772 13.1937 4.3772 16.2737C4.3772 16.4094 4.3772 16.5451 4.3772 16.6774C6.43279 9.41495 10.1674 8.86204 11.6803 7.95296Z" fill="#FFFEFC"/>
<path fill-rule="evenodd" clip-rule="evenodd" d="M15.273 6.03922C15.2777 6.84017 15.1096 7.6327 14.78 8.36271C14.4504 9.0927 13.9671 9.74299 13.3632 10.2691C13.2683 10.3539 13.3429 10.5168 13.465 10.4693C14.6082 10.0249 16.1516 8.69521 15.5003 6.01209C15.4731 5.85945 15.273 5.90016 15.273 6.03922ZM16.0429 6.03922C16.458 6.71642 16.7217 7.47537 16.816 8.26403C16.9102 9.05268 16.8329 9.85239 16.589 10.6083C16.5484 10.7271 16.6942 10.8288 16.7757 10.7305C17.5185 9.78068 18.1665 7.89468 16.2261 5.85945C16.1277 5.77125 15.9751 5.90694 16.0429 6.02566V6.03922ZM16.9792 5.98157C17.6292 6.44171 18.1729 7.03589 18.5736 7.72402C18.9745 8.41216 19.2231 9.17825 19.3028 9.97063C19.2993 9.99918 19.3069 10.028 19.3242 10.051C19.3414 10.074 19.3668 10.0896 19.3952 10.0944C19.4235 10.0992 19.4527 10.0929 19.4766 10.0768C19.5003 10.0607 19.517 10.036 19.5232 10.0079C19.8352 8.82412 19.6589 6.80583 17.0911 5.75769C16.9555 5.70341 16.8672 5.88658 16.9792 5.96799V5.98157ZM10.7174 9.50931C11.4906 9.27833 12.2064 8.88712 12.8183 8.36111C13.4302 7.83513 13.9245 7.18615 14.2689 6.45645C14.33 6.33434 14.5234 6.38182 14.4928 6.51751C13.906 9.23116 11.942 9.79763 10.7208 9.72301C10.5919 9.7264 10.5953 9.54662 10.7174 9.50931Z" fill="#CCBEA7"/>
<path d="M16.249 26.4668C9.23425 26.4668 3.52881 21.8942 3.52881 16.2735C3.52881 12.8815 5.6251 9.71671 9.13589 7.82054C10.1535 7.27781 11.0253 6.73168 11.802 6.25341C12.2294 5.98882 12.6331 5.7412 13.0232 5.51055C14.2138 4.80499 15.2314 4.3335 16.249 4.3335C17.2666 4.3335 18.1554 4.74054 19.268 5.3986C19.6071 5.59196 19.9464 5.80226 20.3093 6.03292C21.154 6.5553 22.1071 7.14552 23.3622 7.82054C26.873 9.71671 28.9692 12.8781 28.9692 16.2735C28.9692 21.8942 23.2638 26.4668 16.249 26.4668ZM16.249 5.18152C15.4281 5.18152 14.553 5.60552 13.4506 6.24324C13.0673 6.4671 12.6704 6.71473 12.2498 6.97252C11.4594 7.46098 10.5538 8.01389 9.53614 8.56679C6.30691 10.3137 4.37682 13.1936 4.37682 16.2735C4.37682 21.4261 9.70235 25.6188 16.249 25.6188C22.7957 25.6188 28.1212 21.4261 28.1212 16.2735C28.1212 13.1936 26.1912 10.3137 22.9585 8.57359C21.6764 7.89516 20.6756 7.25746 19.865 6.75544C19.4952 6.52816 19.156 6.31785 18.8474 6.13129C17.8196 5.52072 17.07 5.18152 16.249 5.18152Z" fill="#11111B"/>
<path d="M18.6407 18.7499C18.4882 19.374 18.1413 19.9336 17.6501 20.3476C17.2814 20.7051 16.8038 20.9295 16.2934 20.9852C15.7673 20.9383 15.2732 20.7134 14.8924 20.3476C14.4062 19.9316 14.0642 19.3723 13.9155 18.7499C13.9105 18.713 13.9141 18.6753 13.926 18.6401C13.9378 18.6047 13.9576 18.5725 13.9838 18.546C14.01 18.5195 14.0419 18.4992 14.0771 18.4871C14.1123 18.4747 14.1498 18.4707 14.1868 18.4751H18.3727C18.4094 18.4712 18.4465 18.4757 18.4814 18.4883C18.5161 18.5007 18.5475 18.5211 18.5733 18.5475C18.5991 18.5739 18.6186 18.6059 18.6302 18.641C18.6419 18.676 18.6455 18.7132 18.6407 18.7499Z" fill="#B71422"/>
<path d="M14.8933 20.3743C15.2734 20.7403 15.7658 20.9675 16.2909 21.0189C16.8147 20.9667 17.3058 20.7397 17.685 20.3743C17.8062 20.2613 17.9196 20.1401 18.0241 20.0115C17.8152 19.7743 17.56 19.5826 17.274 19.4478C16.9883 19.313 16.6779 19.2382 16.362 19.2278C16.0241 19.2358 15.6932 19.3259 15.3977 19.4901C15.1023 19.6544 14.8512 19.8881 14.666 20.1708C14.744 20.2421 14.8119 20.3099 14.8933 20.3743Z" fill="#FF6164"/>
<path d="M14.9474 20.1061C15.1157 19.8888 15.3309 19.7124 15.577 19.5902C15.8233 19.468 16.0939 19.4031 16.3687 19.4007C16.8767 19.4156 17.3608 19.6202 17.7256 19.9739C17.8036 19.8891 17.8782 19.8009 17.9495 19.7128C17.5179 19.3017 16.9476 19.068 16.3517 19.0581C16.0334 19.0608 15.7194 19.1339 15.4327 19.2723C15.146 19.4108 14.8933 19.6109 14.6931 19.8585C14.7732 19.9458 14.8582 20.0284 14.9474 20.1061Z" fill="#11111B"/>
<path d="M16.2796 21.189C15.7143 21.1396 15.1824 20.9005 14.7701 20.5106C14.245 20.0666 13.8754 19.4663 13.7151 18.7976C13.7036 18.7381 13.7056 18.6768 13.7209 18.6181C13.7361 18.5594 13.7643 18.5049 13.8033 18.4585C13.8498 18.4024 13.9085 18.3575 13.975 18.3276C14.0414 18.2976 14.1138 18.2831 14.1866 18.2854H18.3724C18.4452 18.2839 18.5174 18.2987 18.5837 18.3285C18.65 18.3585 18.7087 18.4029 18.7558 18.4585C18.7943 18.505 18.8221 18.5597 18.8368 18.6183C18.8514 18.6772 18.8528 18.7384 18.8406 18.7976C18.6803 19.4663 18.3107 20.0666 17.7856 20.5106C17.3742 20.8997 16.8436 21.1388 16.2796 21.189ZM14.1866 18.6789C14.1324 18.6789 14.1188 18.7026 14.1154 18.7095C14.2588 19.2893 14.5832 19.8085 15.0414 20.1917C15.3765 20.522 15.8122 20.7309 16.2796 20.7854C16.7456 20.7314 17.1809 20.5252 17.5176 20.1986C17.9745 19.8147 18.2977 19.2956 18.4402 18.7163C18.4329 18.7054 18.4227 18.6969 18.4106 18.6914C18.3987 18.686 18.3854 18.684 18.3724 18.6857L14.1866 18.6789Z" fill="#11111B"/>
<path d="M21.4117 18.959C22.5076 18.959 23.396 18.4366 23.396 17.7921C23.396 17.1478 22.5076 16.6252 21.4117 16.6252C20.3157 16.6252 19.4272 17.1478 19.4272 17.7921C19.4272 18.4366 20.3157 18.959 21.4117 18.959Z" fill="#FEBBD0"/>
<path d="M11.145 18.959C12.2409 18.959 13.1294 18.4366 13.1294 17.7921C13.1294 17.1478 12.2409 16.6252 11.145 16.6252C10.0491 16.6252 9.16064 17.1478 9.16064 17.7921C9.16064 18.4366 10.0491 18.959 11.145 18.959Z" fill="#FEBBD0"/>
<path fill-rule="evenodd" clip-rule="evenodd" d="M12.0771 17.3243C12.4469 17.325 12.8086 17.2159 13.1164 17.0109C13.4242 16.8059 13.6643 16.5142 13.8062 16.1728C13.9482 15.8313 13.9857 15.4555 13.914 15.0926C13.8423 14.7299 13.6645 14.3966 13.4032 14.1348C13.142 13.8731 12.809 13.6948 12.4463 13.6224C12.0837 13.5499 11.7077 13.5868 11.366 13.7281C11.0243 13.8695 10.7322 14.109 10.5267 14.4165C10.3211 14.7239 10.2114 15.0854 10.2114 15.4552C10.2114 15.9503 10.4079 16.4253 10.7577 16.7756C11.1074 17.126 11.582 17.3234 12.0771 17.3243ZM20.4792 17.3243C20.8494 17.327 21.2121 17.2197 21.5213 17.0159C21.8304 16.8122 22.072 16.5212 22.2156 16.1799C22.3591 15.8387 22.3981 15.4624 22.3275 15.0989C22.2569 14.7356 22.08 14.4013 21.8192 14.1385C21.5583 13.8758 21.2253 13.6964 20.8624 13.6232C20.4995 13.5499 20.123 13.5861 19.7807 13.7272C19.4384 13.8683 19.1457 14.1078 18.9397 14.4155C18.7337 14.7231 18.6237 15.085 18.6237 15.4552C18.6228 15.9488 18.8176 16.4227 19.1654 16.7731C19.5131 17.1233 19.9856 17.3216 20.4792 17.3243Z" fill="#11111B"/>
<path fill-rule="evenodd" clip-rule="evenodd" d="M11.5003 15.5756C11.6393 15.5763 11.7754 15.5357 11.8913 15.4589C12.0072 15.3823 12.0977 15.2728 12.1514 15.1446C12.2051 15.0164 12.2194 14.875 12.1927 14.7386C12.166 14.6022 12.0994 14.4768 12.0014 14.3782C11.9033 14.2797 11.7782 14.2124 11.6419 14.1851C11.5056 14.1578 11.3643 14.1714 11.2357 14.2245C11.1073 14.2776 10.9974 14.3675 10.9201 14.4831C10.8428 14.5986 10.8015 14.7345 10.8015 14.8735C10.8015 15.0591 10.875 15.2372 11.006 15.3687C11.1369 15.5005 11.3146 15.5748 11.5003 15.5756ZM19.9024 15.5756C20.0414 15.5763 20.1775 15.5357 20.2934 15.4589C20.4093 15.3823 20.4999 15.2728 20.5535 15.1446C20.6072 15.0164 20.6215 14.875 20.5949 14.7386C20.5682 14.6022 20.5016 14.4768 20.4035 14.3782C20.3055 14.2797 20.1803 14.2124 20.044 14.1851C19.9078 14.1578 19.7664 14.1714 19.6379 14.2245C19.5094 14.2776 19.3996 14.3675 19.3223 14.4831C19.245 14.5986 19.2037 14.7345 19.2037 14.8735C19.2037 15.058 19.2762 15.235 19.4057 15.3665C19.5352 15.4978 19.7112 15.5729 19.8956 15.5756H19.9024Z" fill="#CDD6F4"/>
</svg>
