<svg width="33" height="33" viewBox="0 0 33 33" fill="none" xmlns="http://www.w3.org/2000/svg">
<path d="M27.4485 4.86924C26.4983 3.919 24.9577 3.919 24.0074 4.86924L21.424 7.45267C20.2527 8.62397 18.3537 8.62428 17.182 7.45336L14.7723 5.04518C13.8218 4.09525 12.2813 4.0952 11.3307 5.04506C10.3794 5.9956 10.379 7.53738 11.3299 8.48839L15.8573 13.0167L19.3007 16.4602L23.883 21.0425C24.8339 21.9934 26.3756 21.9934 27.3264 21.0425C28.2773 20.0916 28.2773 18.5499 27.3264 17.599L24.865 15.1376C23.6936 13.9662 23.6934 12.0671 24.8646 10.8954L27.4489 8.31C28.3988 7.3597 28.3986 5.81934 27.4485 4.86924ZM8.65262 11.1679C7.70187 10.217 6.16022 10.2169 5.20937 11.1677C4.25852 12.1186 4.25861 13.6602 5.20956 14.611L7.61609 17.017C8.78797 18.1886 8.78797 20.0885 7.6161 21.2601L5.03278 23.8429C4.08178 24.7937 4.0817 26.3354 5.0326 27.2863C5.98343 28.2371 7.52503 28.2371 8.47585 27.2863L11.0586 24.7035C12.2303 23.5319 14.13 23.532 15.3015 24.7037L17.7613 27.164C18.7121 28.115 20.2538 28.1151 21.2047 27.1642C22.1555 26.2134 22.1555 24.6718 21.2047 23.7209L13.1802 15.6964L8.65262 11.1679Z" fill="#89B4FA"/>
</svg>
