<svg width="33" height="36" viewBox="0 0 33 36" fill="none" xmlns="http://www.w3.org/2000/svg">
<g filter="url(#filter0_d_2_255)">
<path d="M27.9484 4.86924C26.9982 3.919 25.4575 3.919 24.5073 4.86924L21.9239 7.45267C20.7526 8.62397 18.8536 8.62428 17.6819 7.45336L15.2722 5.04518C14.3216 4.09525 12.7812 4.0952 11.8306 5.04506C10.8793 5.9956 10.8789 7.53738 11.8297 8.48839L16.3571 13.0167L19.8006 16.4602L24.3829 21.0425C25.3338 21.9934 26.8754 21.9934 27.8263 21.0425C28.7772 20.0916 28.7772 18.5499 27.8263 17.599L25.3649 15.1376C24.1935 13.9662 24.1933 12.0671 25.3644 10.8954L27.9488 8.31C28.8987 7.3597 28.8985 5.81934 27.9484 4.86924ZM9.1525 11.1679C8.20175 10.217 6.6601 10.2169 5.70925 11.1677C4.7584 12.1186 4.75848 13.6602 5.70944 14.611L8.11597 17.017C9.28784 18.1886 9.28785 20.0885 8.11598 21.2601L5.53266 23.8429C4.58166 24.7937 4.58158 26.3354 5.53248 27.2863C6.48331 28.2371 8.0249 28.2371 8.97573 27.2863L11.5585 24.7035C12.7302 23.5319 14.6298 23.532 15.8014 24.7037L18.2612 27.164C19.212 28.115 20.7537 28.1151 21.7046 27.1642C22.6554 26.2134 22.6554 24.6718 21.7046 23.7209L13.6801 15.6964L9.1525 11.1679Z" fill="#89B4FA"/>
</g>
<defs>
<filter id="filter0_d_2_255" x="-3.33765" y="0" width="40.1566" height="40.1565" filterUnits="userSpaceOnUse" color-interpolation-filters="sRGB">
<feFlood flood-opacity="0" result="BackgroundImageFix"/>
<feColorMatrix in="SourceAlpha" type="matrix" values="0 0 0 0 0 0 0 0 0 0 0 0 0 0 0 0 0 0 127 0" result="hardAlpha"/>
<feOffset dy="4"/>
<feGaussianBlur stdDeviation="2"/>
<feComposite in2="hardAlpha" operator="out"/>
<feColorMatrix type="matrix" values="0 0 0 0 0 0 0 0 0 0 0 0 0 0 0 0 0 0 0.25 0"/>
<feBlend mode="normal" in2="BackgroundImageFix" result="effect1_dropShadow_2_255"/>
<feBlend mode="normal" in="SourceGraphic" in2="effect1_dropShadow_2_255" result="shape"/>
</filter>
</defs>
</svg>
