<svg width="33" height="33" viewBox="0 0 33 33" fill="none" xmlns="http://www.w3.org/2000/svg">
<path d="M12.0295 26.9725C11.5656 26.9725 11.1017 26.8623 10.6958 26.6651L16.2742 16.6044C16.4481 16.2913 16.4481 15.9086 16.2742 15.5955L10.6958 5.54043C11.1105 5.3351 11.5668 5.22796 12.0295 5.22729H16.5525L22.1773 15.3693C22.3011 15.5928 22.3661 15.8443 22.3661 16.0999C22.3661 16.3556 22.3011 16.6069 22.1773 16.8305L16.5525 26.9725H12.0295Z" fill="#FEF3C7"/>
<path fill-rule="evenodd" clip-rule="evenodd" d="M28.2076 14.5922L23.6846 6.73497C23.4201 6.27686 23.0397 5.89639 22.5818 5.63176C22.1237 5.36712 21.6042 5.22763 21.0752 5.22729H16.5521L22.177 15.3693C22.3008 15.5928 22.3658 15.8443 22.3658 16.0999C22.3658 16.3556 22.3008 16.6069 22.177 16.8305L16.5521 26.9725H21.0752C21.6042 26.9722 22.1237 26.8327 22.5818 26.568C23.0397 26.3033 23.4201 25.923 23.6846 25.4649L28.2076 17.6075C28.7469 16.6798 28.7469 15.52 28.2076 14.5922ZM10.6955 5.54043L10.9816 6.05652H10.9855L13.5369 10.6665L10.9275 15.3634C10.8026 15.5878 10.737 15.8403 10.737 16.097C10.737 16.3537 10.8026 16.6063 10.9275 16.8305L13.5369 21.5391L10.6955 26.6651C10.1609 26.4001 9.71691 25.9823 9.41983 25.4649L4.89683 17.6075C4.6333 17.1488 4.49463 16.6289 4.49463 16.0999C4.49463 15.5708 4.6333 15.0509 4.89683 14.5922L8.10281 9.02286C8.07606 9.06745 8.04918 9.1128 8.02219 9.15892L8.16731 8.90948L9.3918 6.78366L9.41983 6.73497L9.42224 6.73079C9.71713 6.21902 10.1558 5.80508 10.684 5.54043L10.6865 5.5449L10.6955 5.54043Z" fill="#F9E2AF"/>
</svg>
