<svg width="34" height="33" viewBox="0 0 34 33" fill="none" xmlns="http://www.w3.org/2000/svg">
<path d="M18.9722 12.3357C19.3496 13.2633 18.5461 14.1557 17.5447 14.1557H17.3074C16.6102 14.1557 16.0597 13.6144 15.7188 13.0062C15.5309 12.6661 15.2899 12.3768 14.9955 12.1383C14.7012 11.8998 14.3611 11.717 13.9754 11.5902C13.5948 11.4633 13.1811 11.3998 12.7345 11.3998C11.9276 11.3998 11.2246 11.6003 10.6258 12.0013C10.0269 12.3971 9.56251 12.9757 9.23262 13.737C8.90274 14.4932 8.73779 15.4119 8.73779 16.4929C8.73779 17.6043 8.90274 18.5381 9.23262 19.2944C9.56759 20.0506 10.0345 20.6215 10.6334 21.0072C11.2323 21.393 11.925 21.5858 12.7117 21.5858C13.1532 21.5858 13.5618 21.5275 13.9373 21.4107C14.318 21.294 14.6555 21.1239 14.9499 20.9007C15.2442 20.6723 15.4878 20.3957 15.6807 20.0708C16.0395 19.482 16.594 18.9617 17.2835 18.9649L17.5166 18.9659C18.5336 18.9706 19.3298 19.8803 18.8992 20.8018C18.8611 20.8833 18.8211 20.9645 18.7792 21.0453C18.4391 21.705 17.9798 22.2963 17.4013 22.8191C16.8277 23.3367 16.1426 23.7479 15.3458 24.0523C14.5541 24.3518 13.6582 24.5016 12.6584 24.5016C11.2678 24.5016 10.0244 24.1869 8.92811 23.5575C7.83693 22.9282 6.97414 22.0172 6.33975 20.8245C5.71042 19.6319 5.39575 18.1879 5.39575 16.4929C5.39575 14.7926 5.7155 13.3462 6.35497 12.1535C6.99444 10.9608 7.86231 10.0524 8.95856 9.42811C10.0548 8.7988 11.2881 8.48413 12.6584 8.48413C13.5618 8.48413 14.3992 8.61102 15.1707 8.86477C15.9471 9.11853 16.6349 9.48902 17.2338 9.97624C17.8326 10.4584 18.3199 11.0497 18.6954 11.75C18.7976 11.9379 18.8898 12.1332 18.9722 12.3357Z" fill="#89B4FA"/>
<path d="M26.7989 12.5954C27.4716 12.5954 28.0169 13.1408 28.0169 13.8135C28.0169 14.4862 27.4716 15.0315 26.7989 15.0315H22.0181C21.3454 15.0315 20.8 14.4862 20.8 13.8135C20.8 13.1408 21.3454 12.5954 22.0181 12.5954H26.7989ZM24.0697 24.2888C23.1763 24.2888 22.452 23.5645 22.452 22.671V11.7504C22.452 10.9028 22.6169 10.1999 22.9469 9.64162C23.2819 9.08335 23.7386 8.66465 24.3172 8.3855C24.8957 8.10637 25.5529 7.9668 26.2889 7.9668C26.7863 7.9668 27.2405 8.00486 27.6515 8.08099C28.1772 8.17715 28.4839 8.69259 28.3604 9.21246L28.1141 10.2499C28.0535 10.5049 27.7873 10.6572 27.5298 10.6085C27.347 10.5729 27.1593 10.5552 26.9665 10.5552C26.4894 10.5552 26.1569 10.6668 25.9691 10.8901C25.7814 11.1084 25.6875 11.4154 25.6875 11.8113V22.671C25.6875 23.5645 24.9632 24.2888 24.0697 24.2888Z" fill="#89B4FA"/>
</svg>
