<svg width="33" height="33" viewBox="0 0 33 33" fill="none" xmlns="http://www.w3.org/2000/svg">
<path d="M16.1494 4.25583C15.7917 4.37504 15.9736 4.24956 12.3408 6.92245C10.584 8.22124 8.94634 9.41965 8.71419 9.58906C7.73539 10.2792 6.91344 11.2329 6.34875 12.3372C4.92446 15.1356 5.40132 18.6618 7.50951 20.9143C7.67892 21.1025 8.24988 21.6233 8.76439 22.0814C9.28515 22.5331 10.9792 24.0452 12.529 25.4319C14.5243 27.2137 15.4529 28.0044 15.6976 28.1236C16.005 28.2742 16.1179 28.293 16.6701 28.293C17.1783 28.293 17.3541 28.2679 17.5798 28.1613C17.8497 28.0357 25.768 22.1567 26.1256 21.8179C26.3765 21.5794 26.6651 20.9896 26.728 20.5755C26.8283 19.9418 26.6714 19.3017 26.2825 18.7748C26.2135 18.6806 25.4981 18.072 24.6887 17.4258C23.8856 16.7795 23.2268 16.2273 23.2268 16.2022C23.2268 16.1772 23.8856 15.6501 24.695 15.0289C26.2699 13.818 26.4707 13.6047 26.659 12.9584C26.7844 12.5129 26.7467 11.7725 26.5711 11.3772C26.5021 11.2141 26.3327 10.9632 26.2009 10.8188C25.8746 10.4549 18.2325 4.5821 17.8183 4.37504C17.4168 4.16799 16.5886 4.11152 16.1494 4.25583ZM20.943 8.97417C23.0825 10.6118 24.8645 12.0235 24.9083 12.1051C25.0715 12.4251 24.9775 12.5255 23.3084 13.8055C22.3737 14.5268 21.0664 14.5133 20.1468 13.7729L19.9767 13.636C19.023 12.8643 18.0943 12.1553 17.9187 12.0612C17.2912 11.7161 16.5007 11.6972 15.8607 12.011C15.4654 12.2055 12.6796 14.3638 12.4412 14.665C12.071 15.1293 11.9769 15.4242 11.9706 16.0893C11.9643 16.6038 11.9831 16.7293 12.1274 17.0304C12.2153 17.2187 12.3659 17.4697 12.46 17.5764C12.6984 17.8587 15.5156 20.0171 15.9109 20.2178C16.1932 20.3684 16.3062 20.3873 16.827 20.3873C17.2599 20.3873 17.5047 20.3559 17.7243 20.268C17.9124 20.199 18.7281 19.6155 19.8261 18.7685C20.8175 18.0093 21.6582 17.3881 21.6959 17.3881C21.7335 17.3881 22.4676 17.9591 23.3334 18.6555C24.9272 19.9355 25.0465 20.061 24.946 20.3684C24.9272 20.4374 23.1515 21.8116 20.8928 23.4994C16.4254 26.8374 16.6639 26.6931 16.2184 26.2977C16.0866 26.1786 14.7941 25.0303 13.3447 23.7377C11.8953 22.4453 10.3455 21.0649 9.89377 20.6759C8.63263 19.5779 8.12439 18.9254 7.72911 17.8901C7.45304 17.1873 7.35265 16.6164 7.35265 15.8007C7.35265 13.7803 8.20596 12.1678 9.92515 10.9443C10.2577 10.7122 11.9078 9.50122 13.5893 8.25262C16.1242 6.38285 16.6953 5.98756 16.8583 5.98756C17.0278 5.98756 17.674 6.45815 20.943 8.97417ZM18.5775 14.8344C19.4371 15.5247 20.1587 16.1082 20.1775 16.1395C20.2089 16.1959 17.2035 18.5426 16.9963 18.6179C16.9399 18.6368 16.8207 18.6305 16.7391 18.5991C16.5948 18.5426 14.2481 16.7795 13.9282 16.4784C13.7212 16.2901 13.6961 15.9826 13.8655 15.7881C13.9595 15.6814 16.1744 13.9623 16.576 13.6863C16.6576 13.6297 16.7956 13.5796 16.8709 13.5796C16.965 13.5796 17.5798 14.0313 18.5775 14.8344Z" fill="#CBA6F7"/>
</svg>
