<svg width="33" height="33" viewBox="0 0 33 33" fill="none" xmlns="http://www.w3.org/2000/svg">
<g clip-path="url(#clip0_2_311)">
<mask id="mask0_2_311" style="mask-type:luminance" maskUnits="userSpaceOnUse" x="0" y="0" width="32" height="33">
<path d="M31.5259 0.15625H0.655518V32.3129H31.5259V0.15625Z" fill="white"/>
</mask>
<g mask="url(#mask0_2_311)">
<path d="M22.3276 19.1614C21.9352 19.1614 21.617 18.8433 21.617 18.4508V14.0167C21.617 13.6243 21.9352 13.3062 22.3276 13.3062C22.7201 13.3062 23.0382 13.6243 23.0382 14.0167V18.4508C23.0382 18.8433 22.7201 19.1614 22.3276 19.1614ZM20.2573 16.974C19.8485 16.974 19.5171 16.6426 19.5171 16.2338C19.5171 15.825 19.8485 15.4936 20.2573 15.4936H24.398C24.8068 15.4936 25.1382 15.825 25.1382 16.2338C25.1382 16.6426 24.8068 16.974 24.398 16.974H20.2573Z" fill="#89B4FA"/>
<path d="M28.7159 19.1614C28.3235 19.1614 28.0054 18.8433 28.0054 18.4509V14.0167C28.0054 13.6243 28.3235 13.3062 28.7159 13.3062C29.1083 13.3062 29.4264 13.6243 29.4264 14.0167V18.4509C29.4264 18.8433 29.1083 19.1614 28.7159 19.1614ZM26.6455 16.974C26.2367 16.974 25.9053 16.6426 25.9053 16.2338C25.9053 15.825 26.2367 15.4936 26.6455 15.4936H30.7862C31.195 15.4936 31.5264 15.825 31.5264 16.2338C31.5264 16.6426 31.195 16.974 30.7862 16.974H26.6455Z" fill="#89B4FA"/>
<path d="M18.5942 11.724C18.9316 12.6212 18.1624 13.4706 17.2038 13.4706H17.0115C16.3181 13.4706 15.7713 12.9317 15.4428 12.3211C15.2625 11.9811 15.0311 11.6918 14.7485 11.4532C14.4659 11.2147 14.1395 11.032 13.7692 10.9051C13.4037 10.7782 13.0067 10.7148 12.5779 10.7148C11.8033 10.7148 11.1285 10.9152 10.5535 11.3162C9.97861 11.7121 9.5328 12.2906 9.21611 13.0519C8.89941 13.8081 8.74107 14.7267 8.74107 15.8077C8.74107 16.9193 8.89941 17.853 9.21611 18.6093C9.53768 19.3655 9.98591 19.9365 10.5608 20.3221C11.1358 20.7079 11.8008 20.9008 12.556 20.9008C12.9799 20.9008 13.3721 20.8424 13.7326 20.7257C14.098 20.609 14.4221 20.439 14.7047 20.2156C14.9872 19.9872 15.2211 19.7106 15.4063 19.3858C15.752 18.7946 16.3018 18.2767 16.9867 18.2799L17.1784 18.2809C18.1512 18.2855 18.9156 19.1513 18.5283 20.0437C18.4822 20.1498 18.433 20.2553 18.3808 20.3602C18.0543 21.0201 17.6134 21.6113 17.0579 22.134C16.5074 22.6517 15.8497 23.0628 15.0847 23.3674C14.3246 23.6667 13.4647 23.8165 12.5048 23.8165C11.1699 23.8165 9.97617 23.5017 8.92377 22.8724C7.87625 22.2431 7.04797 21.3321 6.43894 20.1395C5.83479 18.9468 5.53271 17.5029 5.53271 15.8077C5.53271 14.1076 5.83967 12.6611 6.45356 11.4684C7.06746 10.2758 7.90061 9.36731 8.95301 8.74306C10.0054 8.11372 11.1894 7.79907 12.5048 7.79907C13.3721 7.79907 14.176 7.92594 14.9166 8.17971C15.662 8.43347 16.3223 8.80397 16.8971 9.29118C17.472 9.77333 17.9399 10.3646 18.3004 11.065C18.4102 11.2755 18.5081 11.4952 18.5942 11.724Z" fill="#89B4FA"/>
</g>
</g>
<defs>
<clipPath id="clip0_2_311">
<rect width="32.1566" height="32.1566" fill="white" transform="translate(0.222656 0.156494)"/>
</clipPath>
</defs>
</svg>
