<svg width="35" height="33" viewBox="0 0 35 33" fill="none" xmlns="http://www.w3.org/2000/svg">
<g filter="url(#filter0_d_2_322)">
<path d="M18.0323 11.6506C18.4097 12.5782 17.6063 13.4706 16.605 13.4706H16.3674C15.6703 13.4706 15.1199 12.9292 14.7789 12.3211C14.5912 11.9811 14.3501 11.6918 14.0558 11.4532C13.7614 11.2147 13.4213 11.032 13.0356 10.9051C12.6549 10.7782 12.2413 10.7148 11.7948 10.7148C10.9877 10.7148 10.2848 10.9152 9.68595 11.3162C9.08707 11.7121 8.62269 12.2906 8.2928 13.0519C7.96292 13.8081 7.79797 14.7267 7.79797 15.8077C7.79797 16.9193 7.96292 17.853 8.2928 18.6093C8.62777 19.3655 9.09468 19.9365 9.69356 20.3221C10.2924 20.7079 10.9852 20.9008 11.7718 20.9008C12.2135 20.9008 12.622 20.8424 12.9975 20.7257C13.3782 20.609 13.7157 20.439 14.0101 20.2156C14.3044 19.9872 14.548 19.7106 14.7408 19.3858C15.0997 18.797 15.6541 18.2766 16.3437 18.2797L16.5767 18.2808C17.5938 18.2855 18.3901 19.1953 17.9593 20.1167C17.9212 20.1982 17.8812 20.2794 17.8393 20.3602C17.4992 21.0201 17.0399 21.6113 16.4613 22.134C15.8879 22.6517 15.2027 23.0628 14.4059 23.3674C13.6141 23.6667 12.7185 23.8165 11.7185 23.8165C10.328 23.8165 9.08454 23.5017 7.98829 22.8724C6.89711 22.2431 6.03433 21.3321 5.39993 20.1395C4.7706 18.9468 4.45593 17.5029 4.45593 15.8077C4.45593 14.1076 4.77568 12.6611 5.41515 11.4684C6.05464 10.2758 6.92249 9.36731 8.01874 8.74306C9.115 8.11372 10.3483 7.79907 11.7185 7.79907C12.622 7.79907 13.4594 7.92594 14.2307 8.17971C15.0073 8.43347 15.6951 8.80397 16.2939 9.29118C16.8928 9.77333 17.38 10.3646 17.7555 11.065C17.8576 11.2529 17.9499 11.4481 18.0323 11.6506Z" fill="#94E2D5"/>
<path d="M26.286 22.2231C25.7164 22.2231 25.2826 21.7124 25.3748 21.1503L27.0368 11.0204C27.11 10.5742 27.4957 10.2466 27.9479 10.2466V10.2466C28.5175 10.2466 28.9513 10.7573 28.8591 11.3194L27.1972 21.4493C27.1239 21.8955 26.7382 22.2231 26.286 22.2231V22.2231ZM20.9396 19.2524C20.3619 19.2524 19.9222 18.7339 20.0166 18.1639V18.1639C20.0914 17.7123 20.4819 17.3811 20.9396 17.3811H28.3997C28.9774 17.3811 29.4171 17.8996 29.3227 18.4696V18.4696C29.2479 18.9212 28.8574 19.2524 28.3997 19.2524H20.9396ZM22.0755 22.2231C21.5059 22.2231 21.0721 21.7124 21.1643 21.1503L22.8263 11.0204C22.8995 10.5742 23.2852 10.2466 23.7374 10.2466V10.2466C24.307 10.2466 24.7408 10.7573 24.6486 11.3194L22.9867 21.4493C22.9134 21.8955 22.5277 22.2231 22.0755 22.2231V22.2231ZM21.6273 15.0886C21.0484 15.0886 20.6084 14.5682 20.7047 13.9974V13.9974C20.7806 13.547 21.1706 13.2173 21.6273 13.2173H29.0862C29.6652 13.2173 30.1052 13.7378 30.0088 14.3087V14.3087C29.9328 14.759 29.5429 15.0886 29.0862 15.0886H21.6273Z" fill="#94E2D5"/>
</g>
<defs>
<filter id="filter0_d_2_322" x="-2.96411" y="0.156494" width="40.1566" height="40.1565" filterUnits="userSpaceOnUse" color-interpolation-filters="sRGB">
<feFlood flood-opacity="0" result="BackgroundImageFix"/>
<feColorMatrix in="SourceAlpha" type="matrix" values="0 0 0 0 0 0 0 0 0 0 0 0 0 0 0 0 0 0 127 0" result="hardAlpha"/>
<feOffset dy="4"/>
<feGaussianBlur stdDeviation="2"/>
<feComposite in2="hardAlpha" operator="out"/>
<feColorMatrix type="matrix" values="0 0 0 0 0 0 0 0 0 0 0 0 0 0 0 0 0 0 0.25 0"/>
<feBlend mode="normal" in2="BackgroundImageFix" result="effect1_dropShadow_2_322"/>
<feBlend mode="normal" in="SourceGraphic" in2="effect1_dropShadow_2_322" result="shape"/>
</filter>
</defs>
</svg>
