<svg width="33" height="33" viewBox="0 0 33 33" fill="none" xmlns="http://www.w3.org/2000/svg">
<g clip-path="url(#clip0_2_322)">
<path d="M20.5324 11.6506C20.9098 12.5782 20.1065 13.4706 19.1051 13.4706H18.8676C18.1704 13.4706 17.62 12.9292 17.279 12.3211C17.0913 11.9811 16.8503 11.6918 16.5559 11.4532C16.2615 11.2147 15.9215 11.032 15.5357 10.9051C15.1551 10.7782 14.7414 10.7148 14.2949 10.7148C13.4879 10.7148 12.7849 10.9152 12.1861 11.3162C11.5872 11.7121 11.1228 12.2906 10.7929 13.0519C10.463 13.8081 10.2981 14.7267 10.2981 15.8077C10.2981 16.9193 10.463 17.853 10.7929 18.6093C11.1279 19.3655 11.5948 19.9365 12.1937 20.3221C12.7926 20.7079 13.4853 20.9008 14.272 20.9008C14.7136 20.9008 15.1221 20.8424 15.4977 20.7257C15.8783 20.609 16.2158 20.439 16.5102 20.2156C16.8046 19.9872 17.0481 19.7106 17.241 19.3858C17.5998 18.797 18.1543 18.2766 18.8438 18.2797L19.0768 18.2808C20.0939 18.2855 20.8902 19.1953 20.4595 20.1167C20.4214 20.1982 20.3813 20.2794 20.3394 20.3602C19.9993 21.0201 19.54 21.6113 18.9615 22.134C18.388 22.6517 17.7028 23.0628 16.906 23.3674C16.1143 23.6667 15.2186 23.8165 14.2186 23.8165C12.8281 23.8165 11.5847 23.5017 10.4884 22.8724C9.39724 22.2431 8.53445 21.3321 7.90005 20.1395C7.27072 18.9468 6.95605 17.5029 6.95605 15.8077C6.95605 14.1076 7.2758 12.6611 7.91527 11.4684C8.55476 10.2758 9.42261 9.36731 10.5189 8.74306C11.6151 8.11372 12.8484 7.79907 14.2186 7.79907C15.1221 7.79907 15.9595 7.92594 16.7309 8.17971C17.5075 8.43347 18.1952 8.80397 18.794 9.29118C19.3929 9.77333 19.8801 10.3646 20.2556 11.065C20.3578 11.2529 20.45 11.4481 20.5324 11.6506Z" fill="#94E2D5"/>
<path d="M27.6987 22.2231L29.6636 10.2466H31.535L29.5701 22.2231H27.6987ZM22.3362 19.2524L22.6461 17.3811H32.0029L31.6929 19.2524H22.3362ZM23.4882 22.2231L25.4531 10.2466H27.3245L25.3596 22.2231H23.4882ZM23.0204 15.0886L23.3361 13.2173H32.6929L32.3771 15.0886H23.0204Z" fill="#94E2D5"/>
</g>
<defs>
<clipPath id="clip0_2_322">
<rect width="32.1566" height="32.1566" fill="white" transform="translate(0.535889 0.156494)"/>
</clipPath>
</defs>
</svg>
