<svg width="33" height="33" viewBox="0 0 33 33" fill="none" xmlns="http://www.w3.org/2000/svg">
<mask id="mask0_2_325" style="mask-type:luminance" maskUnits="userSpaceOnUse" x="4" y="4" width="25" height="25">
<path d="M28.8299 4.17578H4.7124V28.2932H28.8299V4.17578Z" fill="#CDD6F4"/>
<path fill-rule="evenodd" clip-rule="evenodd" d="M21.9807 6.85547H11.5596C9.25739 6.85547 7.39111 8.72174 7.39111 11.0239V21.4451C7.39111 23.7472 9.25739 25.6135 11.5596 25.6135H21.9807C24.2828 25.6135 26.1491 23.7472 26.1491 21.4451V11.0239C26.1491 8.72174 24.2828 6.85547 21.9807 6.85547Z" fill="#11111B"/>
</mask>
<g mask="url(#mask0_2_325)">
<path d="M21.9817 26.2082C23.4617 26.2082 24.6614 25.0085 24.6614 23.5285C24.6614 22.0486 23.4617 20.8488 21.9817 20.8488V26.2082ZM11.3475 23.5178L11.6182 20.8517C10.1458 20.7023 8.83099 21.7746 8.68146 23.247C8.53194 24.7195 9.60432 26.0343 11.0767 26.1838L11.3475 23.5178ZM22.1947 23.5178L21.924 20.8519C20.4516 21.0014 19.3793 22.3162 19.5288 23.7886C19.6784 25.2609 20.9932 26.3334 22.4655 26.1838L22.1947 23.5178ZM26.7456 11.0232C26.7456 9.54324 25.5459 8.3435 24.0659 8.3435C22.586 8.3435 21.3861 9.54324 21.3861 11.0232H26.7456ZM11.5606 9.53448H21.9817V4.17505H11.5606V9.53448ZM10.0718 11.0232C10.0718 10.201 10.7384 9.53448 11.5606 9.53448V4.17505C7.77843 4.17505 4.7124 7.24107 4.7124 11.0232H10.0718ZM10.0718 21.4443V11.0232H4.7124V21.4443H10.0718ZM11.5606 22.9331C10.7384 22.9331 10.0718 22.2665 10.0718 21.4443H4.7124C4.7124 25.2265 7.77843 28.2925 11.5606 28.2925V22.9331ZM21.9817 22.9331H11.5606V28.2925H21.9817V22.9331ZM23.4704 21.4443C23.4704 22.2665 22.8038 22.9331 21.9817 22.9331V28.2925C25.7639 28.2925 28.8299 25.2265 28.8299 21.4443H23.4704ZM23.4704 11.0232V21.4443H28.8299V11.0232H23.4704ZM21.9817 9.53448C22.8038 9.53448 23.4704 10.201 23.4704 11.0232H28.8299C28.8299 7.24107 25.7639 4.17505 21.9817 4.17505V9.53448ZM21.9817 20.8488H11.5606L11.5606 26.2082H21.9817V20.8488ZM11.5606 20.8488C11.579 20.8488 11.5983 20.8497 11.6182 20.8517L11.0767 26.1838C11.2367 26.2 11.3982 26.2082 11.5606 26.2082L11.5606 20.8488ZM11.0767 26.1838C11.2367 26.2 11.3982 26.2082 11.5606 26.2082L11.5606 20.8488C11.579 20.8488 11.5983 20.8497 11.6182 20.8517L11.0767 26.1838ZM11.5606 26.2082H21.9817V20.8488H11.5606L11.5606 26.2082ZM22.4655 26.1838C24.8707 25.9396 26.7456 23.9126 26.7456 21.4443H21.3861C21.3861 21.1343 21.6207 20.8827 21.924 20.8519L22.4655 26.1838ZM21.3861 21.4443C21.3861 21.1343 21.6207 20.8827 21.924 20.8519L22.4655 26.1838C24.8707 25.9396 26.7456 23.9126 26.7456 21.4443H21.3861ZM21.3861 11.0232V21.4443H26.7456V11.0232H21.3861ZM26.7456 11.0232C26.7456 10.9273 26.7405 10.8276 26.729 10.7249C26.7174 10.622 26.6997 10.5175 26.675 10.4121C26.6503 10.3067 26.6192 10.2024 26.5816 10.0999C26.5439 9.99744 26.5006 9.89887 26.4525 9.80454C26.4043 9.71027 26.3522 9.62193 26.2974 9.53952C26.2427 9.45719 26.1859 9.38175 26.1288 9.31292C26.0149 9.17557 25.9005 9.06534 25.7982 8.97863C25.7468 8.93515 25.6978 8.8969 25.6522 8.86348C25.6067 8.83006 25.5639 8.80088 25.5251 8.77564C25.4862 8.75041 25.4503 8.7285 25.4183 8.7098C25.3863 8.69109 25.3572 8.67499 25.332 8.66148C25.3068 8.64798 25.2845 8.63651 25.266 8.62721C25.2473 8.61791 25.2315 8.61022 25.2193 8.60442C25.2073 8.59867 25.1975 8.59412 25.1916 8.59141C25.1887 8.59002 25.1862 8.5889 25.1848 8.58822C25.184 8.58789 25.1834 8.5876 25.183 8.58743C25.1822 8.58707 25.1862 8.58893 25.1916 8.59141C25.1975 8.59412 25.2073 8.59867 25.2193 8.60442C25.2315 8.61022 25.2473 8.61791 25.266 8.62721C25.2845 8.63651 25.3068 8.64798 25.332 8.66148C25.3572 8.67499 25.3863 8.69109 25.4183 8.7098C25.4503 8.7285 25.4862 8.75041 25.5251 8.77564C25.5639 8.80088 25.6067 8.83006 25.6522 8.86348C25.6978 8.8969 25.7468 8.93515 25.7982 8.97863C25.9005 9.06534 26.0149 9.17557 26.1288 9.31292C26.1859 9.38175 26.2427 9.45719 26.2974 9.53952C26.3522 9.62193 26.4043 9.71027 26.4525 9.80454C26.5006 9.89887 26.5439 9.99744 26.5816 10.0999C26.6192 10.2024 26.6503 10.3067 26.675 10.4121C26.6997 10.5175 26.7174 10.622 26.729 10.7249C26.7405 10.8276 26.7456 10.9273 26.7456 11.0232H21.3861C21.3861 11.1191 21.3914 11.2188 21.4029 11.3216C21.4144 11.4244 21.4321 11.5289 21.4567 11.6343C21.4815 11.7397 21.5126 11.844 21.5503 11.9465C21.5879 12.049 21.6312 12.1476 21.6793 12.2419C21.7275 12.3362 21.7797 12.4245 21.8345 12.5069C21.8891 12.5892 21.9459 12.6647 22.003 12.7335C22.1168 12.8708 22.2313 12.9811 22.3337 13.0678C22.385 13.1113 22.434 13.1495 22.4796 13.1829C22.525 13.2163 22.5678 13.2455 22.6067 13.2708C22.6456 13.296 22.6815 13.3179 22.7135 13.3366C22.7456 13.3553 22.7746 13.3714 22.7998 13.3849C22.825 13.3984 22.8472 13.4099 22.8659 13.4192C22.8845 13.4285 22.9003 13.4362 22.9125 13.442C22.9246 13.4478 22.9343 13.4523 22.9402 13.455C22.9432 13.4564 22.9456 13.4575 22.9471 13.4582C22.9479 13.4585 22.9484 13.4588 22.9488 13.459C22.9496 13.4593 22.9456 13.4575 22.9402 13.455C22.9343 13.4523 22.9246 13.4478 22.9125 13.442C22.9003 13.4362 22.8845 13.4285 22.8659 13.4192C22.8472 13.4099 22.825 13.3984 22.7998 13.3849C22.7746 13.3714 22.7456 13.3553 22.7135 13.3366C22.6815 13.3179 22.6456 13.296 22.6067 13.2708C22.5678 13.2455 22.525 13.2163 22.4796 13.1829C22.434 13.1495 22.385 13.1113 22.3337 13.0678C22.2313 12.9811 22.1168 12.8708 22.003 12.7335C21.9459 12.6647 21.8891 12.5892 21.8345 12.5069C21.7797 12.4245 21.7275 12.3362 21.6793 12.2419C21.6312 12.1476 21.5879 12.049 21.5503 11.9465C21.5126 11.844 21.4815 11.7397 21.4567 11.6343C21.4321 11.5289 21.4144 11.4244 21.4029 11.3216C21.3914 11.2188 21.3861 11.1191 21.3861 11.0232H26.7456ZM26.7456 21.4443V11.0232H21.3861V21.4443H26.7456Z" fill="#94E2D5"/>
</g>
<path d="M14.0918 9.53589H11.4121C10.6721 9.53589 10.0723 10.1358 10.0723 10.8757C10.0723 11.6157 10.6721 12.2156 11.4121 12.2156H14.0918C14.8318 12.2156 15.4317 11.6157 15.4317 10.8757C15.4317 10.1358 14.8318 9.53589 14.0918 9.53589Z" fill="#94E2D5"/>
<path d="M14.0918 14.8943H11.4121C10.6721 14.8943 10.0723 15.4942 10.0723 16.2341C10.0723 16.9741 10.6721 17.574 11.4121 17.574H14.0918C14.8318 17.574 15.4317 16.9741 15.4317 16.2341C15.4317 15.4942 14.8318 14.8943 14.0918 14.8943Z" fill="#94E2D5"/>
<path d="M14.0918 20.2537H11.4121C10.6721 20.2537 10.0723 20.8535 10.0723 21.5935C10.0723 22.3335 10.6721 22.9334 11.4121 22.9334H14.0918C14.8318 22.9334 15.4317 22.3335 15.4317 21.5935C15.4317 20.8535 14.8318 20.2537 14.0918 20.2537Z" fill="#94E2D5"/>
<path d="M22.1309 9.53589H19.4512C18.7112 9.53589 18.1113 10.1358 18.1113 10.8757C18.1113 11.6157 18.7112 12.2156 19.4512 12.2156H22.1309C22.8709 12.2156 23.4708 11.6157 23.4708 10.8757C23.4708 10.1358 22.8709 9.53589 22.1309 9.53589Z" fill="#94E2D5"/>
<path d="M22.1309 14.8943H19.4512C18.7112 14.8943 18.1113 15.4942 18.1113 16.2341C18.1113 16.9741 18.7112 17.574 19.4512 17.574H22.1309C22.8709 17.574 23.4708 16.9741 23.4708 16.2341C23.4708 15.4942 22.8709 14.8943 22.1309 14.8943Z" fill="#94E2D5"/>
<path d="M22.1309 20.2537H19.4512C18.7112 20.2537 18.1113 20.8535 18.1113 21.5935C18.1113 22.3335 18.7112 22.9334 19.4512 22.9334H22.1309C22.8709 22.9334 23.4708 22.3335 23.4708 21.5935C23.4708 20.8535 22.8709 20.2537 22.1309 20.2537Z" fill="#94E2D5"/>
</svg>
