<svg width="33" height="37" viewBox="0 0 33 37" fill="none" xmlns="http://www.w3.org/2000/svg">
<g filter="url(#filter0_d_2_325)">
<mask id="mask0_2_325" style="mask-type:luminance" maskUnits="userSpaceOnUse" x="4" y="4" width="25" height="25">
<path d="M28.3301 4.17578H4.21265V28.2932H28.3301V4.17578Z" fill="#CDD6F4"/>
<path fill-rule="evenodd" clip-rule="evenodd" d="M21.4808 6.85547H11.0597C8.75751 6.85547 6.89124 8.72174 6.89124 11.0239V21.4451C6.89124 23.7472 8.75751 25.6135 11.0597 25.6135H21.4808C23.783 25.6135 25.6493 23.7472 25.6493 21.4451V11.0239C25.6493 8.72174 23.783 6.85547 21.4808 6.85547Z" fill="#11111B"/>
</mask>
<g mask="url(#mask0_2_325)">
<path d="M21.4821 26.2082C22.9621 26.2082 24.1618 25.0085 24.1618 23.5285C24.1618 22.0486 22.9621 20.8488 21.4821 20.8488V26.2082ZM10.8478 23.5178L11.1186 20.8517C9.64618 20.7023 8.33136 21.7746 8.18183 23.247C8.0323 24.7195 9.10468 26.0343 10.5771 26.1838L10.8478 23.5178ZM21.6951 23.5178L21.4243 20.8519C19.952 21.0014 18.8797 22.3162 19.0292 23.7886C19.1787 25.2609 20.4935 26.3334 21.9659 26.1838L21.6951 23.5178ZM26.2459 11.0232C26.2459 9.54324 25.0462 8.3435 23.5662 8.3435C22.0863 8.3435 20.8865 9.54324 20.8865 11.0232H26.2459ZM11.0609 9.53448H21.4821V4.17505H11.0609V9.53448ZM9.5722 11.0232C9.5722 10.201 10.2387 9.53448 11.0609 9.53448V4.17505C7.27879 4.17505 4.21277 7.24107 4.21277 11.0232H9.5722ZM9.5722 21.4443V11.0232H4.21277V21.4443H9.5722ZM11.0609 22.9331C10.2387 22.9331 9.5722 22.2665 9.5722 21.4443H4.21277C4.21277 25.2265 7.27879 28.2925 11.0609 28.2925V22.9331ZM21.4821 22.9331H11.0609V28.2925H21.4821V22.9331ZM22.9708 21.4443C22.9708 22.2665 22.3042 22.9331 21.4821 22.9331V28.2925C25.2642 28.2925 28.3302 25.2265 28.3302 21.4443H22.9708ZM22.9708 11.0232V21.4443H28.3302V11.0232H22.9708ZM21.4821 9.53448C22.3042 9.53448 22.9708 10.201 22.9708 11.0232H28.3302C28.3302 7.24107 25.2642 4.17505 21.4821 4.17505V9.53448ZM21.4821 20.8488H11.0609L11.0609 26.2082H21.4821V20.8488ZM11.0609 20.8488C11.0794 20.8488 11.0986 20.8497 11.1186 20.8517L10.5771 26.1838C10.7371 26.2 10.8986 26.2082 11.0609 26.2082L11.0609 20.8488ZM10.5771 26.1838C10.7371 26.2 10.8986 26.2082 11.0609 26.2082L11.0609 20.8488C11.0794 20.8488 11.0986 20.8497 11.1186 20.8517L10.5771 26.1838ZM11.0609 26.2082H21.4821V20.8488H11.0609L11.0609 26.2082ZM21.9659 26.1838C24.3711 25.9396 26.2459 23.9126 26.2459 21.4443H20.8865C20.8865 21.1343 21.1211 20.8827 21.4243 20.8519L21.9659 26.1838ZM20.8865 21.4443C20.8865 21.1343 21.1211 20.8827 21.4243 20.8519L21.9659 26.1838C24.3711 25.9396 26.2459 23.9126 26.2459 21.4443H20.8865ZM20.8865 11.0232V21.4443H26.2459V11.0232H20.8865ZM26.2459 11.0232C26.2459 10.9273 26.2408 10.8276 26.2293 10.7249C26.2178 10.622 26.2001 10.5175 26.1753 10.4121C26.1507 10.3067 26.1196 10.2024 26.0819 10.0999C26.0443 9.99744 26.001 9.89887 25.9529 9.80454C25.9047 9.71027 25.8526 9.62193 25.7978 9.53952C25.7431 9.45719 25.6863 9.38175 25.6292 9.31292C25.5153 9.17557 25.4009 9.06534 25.2985 8.97863C25.2472 8.93515 25.1982 8.8969 25.1526 8.86348C25.1071 8.83006 25.0643 8.80088 25.0255 8.77564C24.9866 8.75041 24.9507 8.7285 24.9187 8.7098C24.8866 8.69109 24.8576 8.67499 24.8324 8.66148C24.8072 8.64798 24.7848 8.63651 24.7663 8.62721C24.7477 8.61791 24.7319 8.61022 24.7197 8.60442C24.7076 8.59867 24.6979 8.59412 24.692 8.59141C24.689 8.59002 24.6866 8.5889 24.6851 8.58822C24.6843 8.58789 24.6838 8.5876 24.6834 8.58743C24.6826 8.58707 24.6866 8.58893 24.692 8.59141C24.6979 8.59412 24.7076 8.59867 24.7197 8.60442C24.7319 8.61022 24.7477 8.61791 24.7663 8.62721C24.7848 8.63651 24.8072 8.64798 24.8324 8.66148C24.8576 8.67499 24.8866 8.69109 24.9187 8.7098C24.9507 8.7285 24.9866 8.75041 25.0255 8.77564C25.0643 8.80088 25.1071 8.83006 25.1526 8.86348C25.1982 8.8969 25.2472 8.93515 25.2985 8.97863C25.4009 9.06534 25.5153 9.17557 25.6292 9.31292C25.6863 9.38175 25.7431 9.45719 25.7978 9.53952C25.8526 9.62193 25.9047 9.71027 25.9529 9.80454C26.001 9.89887 26.0443 9.99744 26.0819 10.0999C26.1196 10.2024 26.1507 10.3067 26.1753 10.4121C26.2001 10.5175 26.2178 10.622 26.2293 10.7249C26.2408 10.8276 26.2459 10.9273 26.2459 11.0232H20.8865C20.8865 11.1191 20.8917 11.2188 20.9032 11.3216C20.9148 11.4244 20.9325 11.5289 20.9571 11.6343C20.9819 11.7397 21.013 11.844 21.0506 11.9465C21.0883 12.049 21.1316 12.1476 21.1797 12.2419C21.2279 12.3362 21.28 12.4245 21.3348 12.5069C21.3895 12.5892 21.4463 12.6647 21.5034 12.7335C21.6171 12.8708 21.7317 12.9811 21.834 13.0678C21.8854 13.1113 21.9344 13.1495 21.98 13.1829C22.0254 13.2163 22.0681 13.2455 22.1071 13.2708C22.146 13.296 22.1819 13.3179 22.2139 13.3366C22.2459 13.3553 22.275 13.3714 22.3002 13.3849C22.3254 13.3984 22.3476 13.4099 22.3662 13.4192C22.3849 13.4285 22.4007 13.4362 22.4129 13.442C22.4249 13.4478 22.4347 13.4523 22.4406 13.455C22.4436 13.4564 22.446 13.4575 22.4474 13.4582C22.4482 13.4585 22.4488 13.4588 22.4492 13.459C22.45 13.4593 22.446 13.4575 22.4406 13.455C22.4347 13.4523 22.4249 13.4478 22.4129 13.442C22.4007 13.4362 22.3849 13.4285 22.3662 13.4192C22.3476 13.4099 22.3254 13.3984 22.3002 13.3849C22.275 13.3714 22.2459 13.3553 22.2139 13.3366C22.1819 13.3179 22.146 13.296 22.1071 13.2708C22.0681 13.2455 22.0254 13.2163 21.98 13.1829C21.9344 13.1495 21.8854 13.1113 21.834 13.0678C21.7317 12.9811 21.6171 12.8708 21.5034 12.7335C21.4463 12.6647 21.3895 12.5892 21.3348 12.5069C21.28 12.4245 21.2279 12.3362 21.1797 12.2419C21.1316 12.1476 21.0883 12.049 21.0506 11.9465C21.013 11.844 20.9819 11.7397 20.9571 11.6343C20.9325 11.5289 20.9148 11.4244 20.9032 11.3216C20.8917 11.2188 20.8865 11.1191 20.8865 11.0232H26.2459ZM26.2459 21.4443V11.0232H20.8865V21.4443H26.2459Z" fill="#94E2D5"/>
</g>
<path d="M13.5918 9.53589H10.9121C10.1721 9.53589 9.57227 10.1358 9.57227 10.8757C9.57227 11.6157 10.1721 12.2156 10.9121 12.2156H13.5918C14.3318 12.2156 14.9317 11.6157 14.9317 10.8757C14.9317 10.1358 14.3318 9.53589 13.5918 9.53589Z" fill="#94E2D5"/>
<path d="M13.5918 14.8943H10.9121C10.1721 14.8943 9.57227 15.4942 9.57227 16.2341C9.57227 16.9741 10.1721 17.574 10.9121 17.574H13.5918C14.3318 17.574 14.9317 16.9741 14.9317 16.2341C14.9317 15.4942 14.3318 14.8943 13.5918 14.8943Z" fill="#94E2D5"/>
<path d="M13.5918 20.2537H10.9121C10.1721 20.2537 9.57227 20.8535 9.57227 21.5935C9.57227 22.3335 10.1721 22.9334 10.9121 22.9334H13.5918C14.3318 22.9334 14.9317 22.3335 14.9317 21.5935C14.9317 20.8535 14.3318 20.2537 13.5918 20.2537Z" fill="#94E2D5"/>
<path d="M21.631 9.53589H18.9513C18.2113 9.53589 17.6115 10.1358 17.6115 10.8757C17.6115 11.6157 18.2113 12.2156 18.9513 12.2156H21.631C22.371 12.2156 22.9709 11.6157 22.9709 10.8757C22.9709 10.1358 22.371 9.53589 21.631 9.53589Z" fill="#94E2D5"/>
<path d="M21.631 14.8943H18.9513C18.2113 14.8943 17.6115 15.4942 17.6115 16.2341C17.6115 16.9741 18.2113 17.574 18.9513 17.574H21.631C22.371 17.574 22.9709 16.9741 22.9709 16.2341C22.9709 15.4942 22.371 14.8943 21.631 14.8943Z" fill="#94E2D5"/>
<path d="M21.631 20.2537H18.9513C18.2113 20.2537 17.6115 20.8535 17.6115 21.5935C17.6115 22.3335 18.2113 22.9334 18.9513 22.9334H21.631C22.371 22.9334 22.9709 22.3335 22.9709 21.5935C22.9709 20.8535 22.371 20.2537 21.631 20.2537Z" fill="#94E2D5"/>
</g>
<defs>
<filter id="filter0_d_2_325" x="-3.8075" y="0.156494" width="40.1566" height="40.1565" filterUnits="userSpaceOnUse" color-interpolation-filters="sRGB">
<feFlood flood-opacity="0" result="BackgroundImageFix"/>
<feColorMatrix in="SourceAlpha" type="matrix" values="0 0 0 0 0 0 0 0 0 0 0 0 0 0 0 0 0 0 127 0" result="hardAlpha"/>
<feOffset dy="4"/>
<feGaussianBlur stdDeviation="2"/>
<feComposite in2="hardAlpha" operator="out"/>
<feColorMatrix type="matrix" values="0 0 0 0 0 0 0 0 0 0 0 0 0 0 0 0 0 0 0.25 0"/>
<feBlend mode="normal" in2="BackgroundImageFix" result="effect1_dropShadow_2_325"/>
<feBlend mode="normal" in="SourceGraphic" in2="effect1_dropShadow_2_325" result="shape"/>
</filter>
</defs>
</svg>
