<svg width="33" height="33" viewBox="0 0 33 33" fill="none" xmlns="http://www.w3.org/2000/svg">
<path fill-rule="evenodd" clip-rule="evenodd" d="M16.8301 4.1756C14.1882 4.17911 11.6423 5.1658 9.68819 6.94353C7.73402 8.72124 6.51152 11.1627 6.25877 13.7924C6.00602 16.422 6.74112 19.0516 8.3209 21.169C9.90068 23.2863 12.212 24.74 14.8047 25.2466V28.293C21.1713 27.3323 26.8088 22.2792 27.2299 15.6427C27.3631 13.6646 26.9599 11.6872 26.0629 9.91905C25.1659 8.15093 23.8082 6.65768 22.1334 5.59682C21.7419 5.36022 21.3327 5.15431 20.9094 4.98096L20.7055 4.89937C20.5186 4.82962 20.3305 4.7533 20.137 4.69541C19.0694 4.34733 17.953 4.17184 16.8301 4.1756ZM19.0277 8.11423C18.8383 8.09331 18.6467 8.11936 18.4697 8.19004C18.2928 8.26073 18.1359 8.37389 18.013 8.51955C17.8397 8.76172 17.6899 9.01995 17.5657 9.29069C17.3742 9.7116 17.3032 10.1773 17.3607 10.6362C17.418 11.095 17.6014 11.5289 17.8907 11.8897C18.3468 11.7986 18.7737 11.5976 19.1345 11.304C19.4952 11.0105 19.7788 10.6333 19.9607 10.2053C20.0895 9.93866 20.1591 9.6473 20.1646 9.35123C20.171 9.03813 20.0565 8.73461 19.8446 8.50394C19.6328 8.27326 19.3402 8.1345 19.0277 8.11423ZM14.2902 8.17476C13.9865 8.19478 13.7006 8.32589 13.4873 8.54311C13.274 8.76032 13.1481 9.04843 13.1335 9.35254C13.139 9.64821 13.2086 9.93916 13.3375 10.2053C13.5318 10.6362 13.8268 11.0142 14.1975 11.3076C14.5683 11.6009 15.004 11.801 15.468 11.891C15.811 11.3977 15.9791 10.804 15.946 10.2041C15.9129 9.60422 15.6802 9.03261 15.2851 8.58009C15.1654 8.43622 15.0122 8.32401 14.8389 8.25333C14.6657 8.18266 14.4777 8.15567 14.2916 8.17476H14.2902ZM11.1083 11.2975C10.8771 11.306 10.6542 11.386 10.4703 11.5265C10.2865 11.6669 10.1507 11.8609 10.0817 12.0818C10.0127 12.3026 10.0139 12.5394 10.0851 12.7595C10.1563 12.9797 10.294 13.1723 10.4793 13.3109C10.7213 13.4902 10.9794 13.6466 11.2504 13.778C11.6938 13.9627 12.1758 14.0353 12.6539 13.9893C13.132 13.9435 13.5914 13.7804 13.9915 13.5149C13.8725 13.0659 13.651 12.6506 13.3443 12.3017C13.0377 11.9528 12.6542 11.6798 12.2242 11.5041C11.9373 11.3742 11.6271 11.304 11.3123 11.2975C11.2444 11.2916 11.1762 11.2916 11.1083 11.2975ZM21.1174 15.2453C20.5196 15.2349 19.9325 15.405 19.433 15.7336C19.552 16.1823 19.7735 16.5971 20.0799 16.9459C20.3863 17.2945 20.7694 17.5673 21.1989 17.7431C21.489 17.8729 21.8024 17.9423 22.1201 17.947C22.3689 17.9764 22.6205 17.923 22.8361 17.7953C23.0517 17.6676 23.2193 17.4726 23.3131 17.2402C23.4069 17.0079 23.4218 16.7512 23.3552 16.5096C23.2887 16.268 23.1447 16.055 22.9452 15.9033C22.7031 15.7299 22.4449 15.5801 22.1741 15.4559C21.8409 15.3142 21.4834 15.2382 21.1214 15.2322L21.1174 15.2453ZM12.2453 15.3059C11.8833 15.3123 11.5258 15.3883 11.1925 15.5296C10.9057 15.6307 10.6427 15.7897 10.42 15.9967C10.2353 16.1587 10.1072 16.3755 10.0544 16.6155C10.0017 16.8554 10.0271 17.106 10.1269 17.3305C10.2268 17.555 10.3958 17.7416 10.6093 17.8633C10.8228 17.9848 11.0696 18.0349 11.3136 18.0062C11.6289 18.006 11.9401 17.9349 12.2242 17.7983C12.6508 17.6311 13.0287 17.3595 13.3232 17.0084C13.6177 16.6574 13.8194 16.238 13.9099 15.7889C13.4177 15.4605 12.8369 15.2902 12.2453 15.3007V15.3059ZM15.5351 17.2956C15.0787 17.3867 14.6515 17.5879 14.2905 17.8816C13.9295 18.1755 13.6458 18.5529 13.4638 18.9814C13.3354 19.2401 13.2658 19.5242 13.2599 19.813C13.2542 20.058 13.323 20.2989 13.4573 20.5039C13.5916 20.7089 13.785 20.8682 14.0119 20.9608C14.2387 21.0533 14.4884 21.0749 14.7277 21.0224C14.9671 20.97 15.1849 20.8461 15.3522 20.6671C15.5253 20.4243 15.6751 20.1655 15.7996 19.8946C15.9825 19.4754 16.0543 19.0162 16.0082 18.5613C15.9621 18.1063 15.7996 17.6709 15.5364 17.2969L15.5351 17.2956ZM17.9513 17.3561C17.6088 17.8495 17.4409 18.4429 17.474 19.0423C17.5072 19.6419 17.7394 20.2132 18.1342 20.6657C18.3043 20.8333 18.5184 20.9494 18.7517 21.0007C18.9848 21.0519 19.2279 21.0363 19.4526 20.9555C19.6774 20.8749 19.8749 20.7324 20.0222 20.5445C20.1695 20.3565 20.2609 20.1308 20.2857 19.8933C20.2798 19.5977 20.2103 19.3068 20.0818 19.0406C19.8872 18.6096 19.5922 18.2316 19.2212 17.9384C18.8502 17.6454 18.4155 17.4456 17.9513 17.3561Z" fill="#A6E3A1"/>
</svg>
