<svg width="34" height="33" viewBox="0 0 34 33" fill="none" xmlns="http://www.w3.org/2000/svg">
<g filter="url(#filter0_d_2_339)">
<path d="M16.4716 12.5966C16.8018 13.4082 16.0988 14.1891 15.2226 14.1891H15.0149C14.4049 14.1891 13.9232 13.7154 13.6249 13.1833C13.4606 12.8858 13.2497 12.6327 12.9921 12.4239C12.7345 12.2152 12.437 12.0554 12.0995 11.9443C11.7664 11.8333 11.4045 11.7778 11.0137 11.7778C10.3076 11.7778 9.69256 11.9532 9.16854 12.304C8.64453 12.6504 8.2382 13.1567 7.94954 13.8228C7.6609 14.4844 7.51657 15.2882 7.51657 16.2342C7.51657 17.2068 7.6609 18.0238 7.94954 18.6856C8.24264 19.3472 8.6512 19.8468 9.1752 20.1843C9.69922 20.5218 10.3054 20.6905 10.9937 20.6905C11.3801 20.6905 11.7376 20.6395 12.0662 20.5374C12.3992 20.4351 12.6946 20.2864 12.9521 20.0911C13.2097 19.8912 13.4228 19.6492 13.5916 19.365C13.9055 18.8497 14.3908 18.3944 14.9942 18.3971L15.198 18.3981C16.0879 18.4021 16.7847 19.1981 16.4078 20.0043C16.3744 20.0757 16.3394 20.1468 16.3027 20.2176C16.0052 20.7949 15.6033 21.3122 15.0971 21.7696C14.5952 22.2227 13.9957 22.5823 13.2985 22.8488C12.6057 23.1108 11.8219 23.2418 10.9471 23.2418C9.73031 23.2418 8.64232 22.9664 7.6831 22.4157C6.72831 21.8652 5.97338 21.068 5.41828 20.0243C4.86761 18.9809 4.59229 17.7174 4.59229 16.2342C4.59229 14.7465 4.87206 13.4809 5.4316 12.4373C5.99114 11.3937 6.75053 10.5988 7.70973 10.0525C8.66895 9.50189 9.74807 9.22656 10.9471 9.22656C11.7376 9.22656 12.4703 9.33758 13.1453 9.55962C13.8248 9.78167 14.4265 10.1058 14.9505 10.5322C15.4745 10.954 15.9008 11.4714 16.2295 12.0842C16.3188 12.2486 16.3995 12.4194 16.4716 12.5966Z" fill="#94E2D5"/>
<path d="M18.9366 11.4946C18.4116 10.5641 19.084 9.41284 20.1524 9.41284C20.6694 9.41284 21.1441 9.69861 21.386 10.1555L24.0725 15.2291C24.0916 15.2653 24.1293 15.288 24.1702 15.288C24.2112 15.288 24.2488 15.2653 24.268 15.2291L26.9543 10.1556C27.1962 9.69863 27.6709 9.41284 28.188 9.41284C29.2564 9.41284 29.9288 10.5642 29.4038 11.4947L25.9896 17.5461C25.7358 17.996 25.6024 18.5037 25.6024 19.0202V21.6228C25.6024 22.4138 24.9612 23.055 24.1702 23.055C23.3793 23.055 22.7381 22.4138 22.7381 21.6228V19.0202C22.7381 18.5037 22.6047 17.996 22.3509 17.5461L18.9366 11.4946Z" fill="#94E2D5"/>
</g>
<defs>
<filter id="filter0_d_2_339" x="-2.49426" y="0.156494" width="40.1566" height="40.1565" filterUnits="userSpaceOnUse" color-interpolation-filters="sRGB">
<feFlood flood-opacity="0" result="BackgroundImageFix"/>
<feColorMatrix in="SourceAlpha" type="matrix" values="0 0 0 0 0 0 0 0 0 0 0 0 0 0 0 0 0 0 127 0" result="hardAlpha"/>
<feOffset dy="4"/>
<feGaussianBlur stdDeviation="2"/>
<feComposite in2="hardAlpha" operator="out"/>
<feColorMatrix type="matrix" values="0 0 0 0 0 0 0 0 0 0 0 0 0 0 0 0 0 0 0.25 0"/>
<feBlend mode="normal" in2="BackgroundImageFix" result="effect1_dropShadow_2_339"/>
<feBlend mode="normal" in="SourceGraphic" in2="effect1_dropShadow_2_339" result="shape"/>
</filter>
</defs>
</svg>
