<svg width="34" height="37" viewBox="0 0 34 37" fill="none" xmlns="http://www.w3.org/2000/svg">
<g filter="url(#filter0_d_2_348)">
<mask id="mask0_2_348" style="mask-type:alpha" maskUnits="userSpaceOnUse" x="5" y="4" width="24" height="25">
<path d="M16.9357 19.7217C16.8004 19.0456 16.2063 18.5639 15.5176 18.5291C13.9954 18.4521 12.4831 18.227 11.0027 17.857L10.9159 17.8353L9.0698 17.2199C8.8541 17.148 8.64378 17.0609 8.44042 16.9592C7.69251 16.5852 7.05514 16.0226 6.59131 15.3268L6.4235 15.0751C6.04557 14.5082 5.76792 13.8806 5.60267 13.2196L5.50905 12.8451C5.26085 11.8523 5.3009 10.8093 5.62451 9.83848C5.77575 9.38477 5.98681 8.95324 6.25209 8.5553L6.48717 8.20269C7.02455 7.39661 7.70443 6.68078 8.47946 6.09952C9.59614 5.262 10.9113 4.69489 12.2881 4.46542L13.7919 4.21479C14.285 4.13261 14.784 4.09131 15.2839 4.09131H15.8087C16.8725 4.09131 17.9216 4.33897 18.873 4.81467L19.9364 5.34641C21.1485 5.95244 22.2549 6.74992 23.2132 7.70814L23.4066 7.90162C24.2367 8.73169 24.9275 9.69015 25.4525 10.7401C25.8867 11.6084 26.2031 12.5307 26.3935 13.4826L26.83 15.6652L28.7749 23.4447C28.9121 23.9935 28.719 24.5749 28.2649 24.9123C26.0575 26.5524 23.6019 27.8328 20.9893 28.7037L20.4295 28.8903C19.604 29.1654 18.7242 28.655 18.5534 27.8018L16.9357 19.7217Z" fill="#A6E3A1"/>
</mask>
<g mask="url(#mask0_2_348)">
<circle cx="16.5229" cy="8.65791" r="2.89346" stroke="#A6E3A1" stroke-width="2.89346"/>
<circle cx="16.5229" cy="8.65791" r="4.3402" stroke="#A6E3A1" stroke-width="5.78693"/>
<circle cx="16.5229" cy="8.65791" r="5.78693" stroke="#A6E3A1" stroke-width="8.68039"/>
<circle cx="16.5229" cy="8.65791" r="6.51029" stroke="#A6E3A1" stroke-width="10.1271"/>
<circle cx="16.5229" cy="8.65791" r="7.95702" stroke="#A6E3A1" stroke-width="13.0206"/>
<circle cx="16.5229" cy="8.65791" r="9.40376" stroke="#A6E3A1" stroke-width="15.914"/>
<circle cx="16.5229" cy="8.65791" r="10.8505" stroke="#A6E3A1" stroke-width="18.8075"/>
<circle cx="16.5229" cy="8.65791" r="11.5739" stroke="#A6E3A1" stroke-width="20.2542"/>
</g>
</g>
<defs>
<filter id="filter0_d_2_348" x="-3.02441" y="0.156494" width="40.1566" height="40.1565" filterUnits="userSpaceOnUse" color-interpolation-filters="sRGB">
<feFlood flood-opacity="0" result="BackgroundImageFix"/>
<feColorMatrix in="SourceAlpha" type="matrix" values="0 0 0 0 0 0 0 0 0 0 0 0 0 0 0 0 0 0 127 0" result="hardAlpha"/>
<feOffset dy="4"/>
<feGaussianBlur stdDeviation="2"/>
<feComposite in2="hardAlpha" operator="out"/>
<feColorMatrix type="matrix" values="0 0 0 0 0 0 0 0 0 0 0 0 0 0 0 0 0 0 0.25 0"/>
<feBlend mode="normal" in2="BackgroundImageFix" result="effect1_dropShadow_2_348"/>
<feBlend mode="normal" in="SourceGraphic" in2="effect1_dropShadow_2_348" result="shape"/>
</filter>
</defs>
</svg>
