<svg width="33" height="33" viewBox="0 0 33 33" fill="none" xmlns="http://www.w3.org/2000/svg">
<path fill-rule="evenodd" clip-rule="evenodd" d="M26.0286 6.75931C23.5158 4.2466 20.1079 2.83496 16.5543 2.83496C13.0008 2.83496 9.59284 4.2466 7.08011 6.75931C4.5674 9.27204 3.15576 12.68 3.15576 16.2335C3.15576 19.7871 4.5674 23.195 7.08011 25.7078C9.59284 28.2205 13.0008 29.6321 16.5543 29.6321C20.1079 29.6321 23.5158 28.2205 26.0286 25.7078C28.5413 23.195 29.9529 19.7871 29.9529 16.2335C29.9529 12.68 28.5413 9.27204 26.0286 6.75931ZM9.06998 7.78091C9.16942 7.44595 9.52533 7.24706 9.86552 7.33603C10.2109 7.43025 10.4151 7.78091 10.3313 8.1211L10.3261 8.14205L9.43635 11.4394L9.43111 11.455C9.38105 11.6174 9.26979 11.754 9.12085 11.8357C8.97191 11.9175 8.79701 11.9382 8.63312 11.8933C8.46924 11.8484 8.32925 11.7415 8.24278 11.5953C8.15629 11.449 8.13011 11.2748 8.16977 11.1096L8.17499 11.0939L9.06475 7.7966L9.06998 7.78091ZM20.5006 8.40373C20.6 8.06877 20.956 7.86988 21.3015 7.95886C21.6393 8.05241 21.8428 8.39883 21.7637 8.7419C21.7626 8.74671 21.762 8.75166 21.762 8.7566C21.762 8.76208 21.7612 8.76755 21.7598 8.77285L21.0801 11.2838C21.071 11.3175 21.0301 11.3306 21.0031 11.3085C20.3974 10.8636 20.0394 10.1153 20.2346 9.38962L20.4954 8.41944L20.5006 8.40373ZM14.2357 4.42079C14.5509 4.35882 14.8683 4.30949 15.1872 4.27292C15.3549 4.25369 15.5173 4.37227 15.4762 4.53594L15.4709 4.55164L14.5811 7.84895L14.5759 7.86466C14.5235 8.0234 14.4122 8.15605 14.2651 8.23534C14.1178 8.31463 13.9459 8.33456 13.7844 8.29101C13.623 8.24748 13.4843 8.14377 13.397 8.00121C13.3096 7.85867 13.2801 7.68806 13.3146 7.52445L13.3198 7.50875L14.1233 4.52373C14.1376 4.4705 14.1814 4.43037 14.2357 4.42079ZM23.4944 7.16855L23.6421 6.61365C23.6541 6.56841 23.7079 6.54945 23.7456 6.57713C24.086 6.83145 24.4129 7.10352 24.7246 7.39219C24.7565 7.42179 24.7685 7.46711 24.7558 7.50875L24.7505 7.52445C24.698 7.68321 24.5868 7.81586 24.4395 7.89515C24.2924 7.97443 24.1204 7.99435 23.9589 7.95082C23.7975 7.90728 23.6589 7.80359 23.5716 7.66102C23.4841 7.51846 23.4546 7.34786 23.4892 7.18425L23.4944 7.16855ZM18.1768 5.5199L18.466 4.44496C18.4801 4.39264 18.5316 4.35955 18.585 4.36846C19.2463 4.47999 19.6277 5.15301 19.454 5.80075L19.4381 5.86009L19.4329 5.8758C19.3805 6.03456 19.2692 6.1672 19.1221 6.24649C18.9748 6.32579 18.8029 6.3457 18.6414 6.30217C18.48 6.25862 18.3413 6.15493 18.254 6.01237C18.1666 5.86981 18.1371 5.6992 18.1716 5.53559L18.1768 5.5199ZM9.10138 15.9247C9.10138 12.8734 12.137 10.4188 16.031 10.4188C17.9047 10.4188 19.5114 10.9369 20.778 11.9261C21.8562 12.7687 22.6465 13.9306 23.0548 15.2443L23.0653 15.2757L23.0757 15.3124L23.0966 15.3805L23.1281 15.506L23.2118 15.7992L23.3008 16.1341L23.6932 17.5682L25.4717 24.2112C25.4854 24.2625 25.472 24.3173 25.4361 24.3564C23.6104 26.3514 21.1213 27.7283 18.3185 28.1423C18.2226 28.1565 18.1338 28.0898 18.1193 27.9939L18.0721 27.6485L18.0303 27.3972L17.9832 27.0675L17.9203 26.6645L17.8942 26.5076L17.8366 26.1255L17.8 25.9004L17.7528 25.6073L17.7058 25.3246L17.6587 25.0525L17.6116 24.7856L17.5697 24.5239L17.5227 24.2727L17.4807 24.0319L17.4494 23.854L17.4127 23.6813L17.35 23.3515L17.3185 23.1945L17.2819 23.0009L17.2504 22.8648L17.2243 22.734L17.1981 22.6083L17.1823 22.5246L17.1458 22.3676L17.0934 22.1372L17.0725 22.0641L17.0463 21.9593L17.0254 21.8599L16.9992 21.7605L16.9731 21.6663L16.9574 21.6087L16.9312 21.5197L16.9102 21.4359L16.8945 21.3783L16.8736 21.3261L16.858 21.2789L16.8369 21.2056L16.8212 21.1534L16.8108 21.1219C16.7825 21.0388 16.751 20.9567 16.7166 20.8759C16.7066 20.8559 16.7055 20.8327 16.7135 20.8118L16.7281 20.7735C16.7723 20.6581 16.6846 20.535 16.5611 20.539L16.3449 20.5461L16.2142 20.5514C11.891 20.6405 9.10138 18.8034 9.10138 15.9247ZM11.8125 24.8328C11.912 24.4926 12.2678 24.2936 12.608 24.3878C12.9535 24.4768 13.1576 24.8275 13.0738 25.1729L13.0686 25.1886L12.4603 27.4561C12.447 27.5054 12.3935 27.5319 12.3464 27.5125C11.6783 27.2632 11.3546 26.5298 11.54 25.8413L11.8073 24.8484L11.8125 24.8328ZM15.4553 23.2365C15.5547 22.8961 15.9105 22.6973 16.256 22.7915C16.3432 22.8153 16.4244 22.8569 16.4946 22.9137C16.5398 22.9501 16.5798 22.9923 16.6136 23.0391C16.6512 23.091 16.6713 23.1529 16.6853 23.2154L16.7166 23.3672L16.7325 23.4508C16.7358 23.4682 16.7357 23.486 16.7323 23.5033L16.7181 23.5698C16.7171 23.5744 16.7166 23.579 16.7166 23.5836C16.7166 23.5894 16.7158 23.5951 16.7143 23.6007L15.8268 26.8896L15.8216 26.9052C15.7692 27.064 15.6578 27.1967 15.5107 27.276C15.3635 27.3553 15.1914 27.3751 15.0301 27.3317C14.8687 27.2882 14.73 27.1845 14.6426 27.0419C14.5565 26.9013 14.5266 26.7333 14.5588 26.5718C14.5597 26.5673 14.5602 26.5627 14.5602 26.5582C14.5602 26.5523 14.561 26.5465 14.5625 26.5409L15.45 23.2521L15.4553 23.2365ZM10.0107 19.4997C10.0116 19.4961 10.0128 19.4925 10.0143 19.489C10.0338 19.4426 10.093 19.4289 10.1316 19.4613C10.3222 19.6214 10.5292 19.7728 10.7496 19.9127C10.9976 20.0701 11.1302 20.3657 11.0538 20.6493L10.3784 23.1579L10.3732 23.1736C10.3231 23.336 10.2119 23.4725 10.0629 23.5543C9.91401 23.6361 9.73909 23.6568 9.57521 23.6119C9.41133 23.567 9.27133 23.4601 9.18486 23.3138C9.09838 23.1676 9.0722 22.9934 9.11185 22.8282L9.11709 22.8124L10.0068 19.5151L10.0107 19.4997ZM7.13347 16.0452C7.23291 15.7102 7.5888 15.5112 7.93425 15.6002C8.27205 15.6937 8.4757 16.0403 8.39654 16.3833C8.39543 16.3881 8.39482 16.3931 8.39482 16.398C8.39482 16.4035 8.3941 16.4089 8.39267 16.4142L7.50506 19.7035L7.49984 19.7193C7.44977 19.8816 7.33851 20.0181 7.18957 20.1C7.04064 20.1817 6.86572 20.2023 6.70184 20.1575C6.53797 20.1126 6.39796 20.0058 6.31149 19.8595C6.22627 19.7153 6.19961 19.5442 6.2368 19.381C6.23789 19.3762 6.23848 19.3713 6.23848 19.3664C6.23848 19.3609 6.23921 19.3554 6.24064 19.3501L7.12823 16.0608L7.13347 16.0452ZM27.0848 15.2967C27.1842 14.9618 27.5401 14.7628 27.8803 14.8517C28.2224 14.9452 28.426 15.2901 28.3485 15.6272C28.347 15.6336 28.3462 15.6402 28.3462 15.6469C28.3462 15.6541 28.3452 15.6614 28.3433 15.6684L27.4532 18.9475C27.4518 18.9525 27.4511 18.9577 27.4511 18.9629C27.4511 18.9682 27.4505 18.9735 27.449 18.9785C27.4019 19.1431 27.2924 19.283 27.1435 19.368C26.9924 19.4544 26.8131 19.4772 26.6451 19.4314C26.4772 19.3856 26.3344 19.2749 26.248 19.1238C26.1615 18.9726 26.1388 18.7933 26.1846 18.6253L26.1898 18.6097L27.0796 15.3124L27.0848 15.2967ZM4.91956 15.035C4.68147 14.9736 4.60945 14.6963 4.64547 14.4531C4.84544 13.1027 5.27532 11.796 5.91699 10.5898C5.96289 10.5036 6.05488 10.4467 6.14951 10.4711C6.49494 10.5653 6.69906 10.916 6.61532 11.2614L6.61008 11.2771L5.72033 14.5744L5.71511 14.5901C5.61566 14.925 5.25975 15.124 4.91956 15.035ZM24.829 10.9244C24.829 10.9188 24.8299 10.9132 24.8316 10.9079C24.9393 10.5778 25.2871 10.3828 25.6297 10.4711C25.9699 10.5653 26.1794 10.916 26.0956 11.2614L26.0904 11.2771L25.2006 14.5744L25.1954 14.5901C25.1454 14.7525 25.034 14.889 24.8852 14.9709C24.7362 15.0526 24.5613 15.0732 24.3973 15.0283C24.2335 14.9835 24.0935 14.8765 24.007 14.7304C23.9206 14.584 23.8944 14.4099 23.934 14.2447L23.9392 14.229L24.8271 10.9387C24.8284 10.934 24.829 10.9292 24.829 10.9244Z" fill="#89B4FA"/>
<path d="M16.8677 12.6228C17.0897 12.6228 17.3027 12.711 17.4598 12.8681C17.6168 13.0251 17.7051 13.2381 17.7051 13.4602C17.7051 13.6822 17.6168 13.8953 17.4598 14.0523C17.3027 14.2093 17.0897 14.2976 16.8677 14.2976C16.6455 14.2976 16.4325 14.2093 16.2755 14.0523C16.1184 13.8953 16.0303 13.6822 16.0303 13.4602C16.0303 13.2381 16.1184 13.0251 16.2755 12.8681C16.4325 12.711 16.6455 12.6228 16.8677 12.6228Z" fill="#89B4FA"/>
</svg>
