<svg width="33" height="33" viewBox="0 0 33 33" fill="none" xmlns="http://www.w3.org/2000/svg">
<path d="M29.8454 14.2644C29.7727 14.2055 29.0942 13.6826 27.6635 13.6826C27.2856 13.6842 26.9086 13.7173 26.5361 13.7815C26.2592 11.844 24.6899 10.8994 24.6196 10.857L24.2353 10.6309L23.9826 11.0031C23.6662 11.5031 23.4352 12.0542 23.2996 12.6331C23.0434 13.7391 23.1992 14.7779 23.7495 15.666C23.0849 16.0441 22.0188 16.1371 21.8031 16.1454H4.15132C3.69026 16.1459 3.31615 16.5263 3.31363 16.9969C3.29303 18.5754 3.55503 20.1445 4.08671 21.6269C4.69478 23.2546 5.59941 24.4536 6.77636 25.1873C8.09521 26.0118 10.2379 26.4829 12.6668 26.4829C13.764 26.4864 14.8593 26.3851 15.938 26.1803C17.4376 25.8992 18.8806 25.3642 20.2073 24.5972C21.3004 23.951 22.2842 23.129 23.1207 22.1627C24.5192 20.5468 25.3524 18.7471 25.9719 17.1476H26.2189C27.75 17.1476 28.6916 16.5222 29.2108 15.9981C29.5559 15.6638 29.8252 15.2567 30.0001 14.805L30.1097 14.4775L29.8454 14.2644Z" fill="#89B4FA"/>
<path d="M5.78711 15.6178H8.1525C8.26658 15.6178 8.35903 15.5233 8.35903 15.4069V13.2562C8.35967 13.1397 8.26771 13.0448 8.15367 13.0442C8.1533 13.0442 8.15405 13.0442 8.15367 13.0442H5.78711C5.67302 13.0442 5.58057 13.1386 5.58057 13.255V15.4069C5.58057 15.5233 5.67302 15.6178 5.78711 15.6178Z" fill="#89B4FA"/>
<path d="M9.04733 15.6178H11.4127C11.5268 15.6178 11.6193 15.5233 11.6193 15.4069V13.2562C11.6199 13.1397 11.5279 13.0448 11.4139 13.0442C11.4135 13.0442 11.4142 13.0442 11.4139 13.0442H9.04729C8.93257 13.0442 8.8396 13.1391 8.8396 13.2562V15.4069C8.84027 15.5234 8.93305 15.6178 9.04733 15.6178Z" fill="#89B4FA"/>
<path d="M12.3565 15.6175H14.7219C14.8359 15.6175 14.9284 15.5231 14.9284 15.4066V13.2559C14.929 13.1395 14.8371 13.0446 14.723 13.0439C14.7226 13.0439 14.7232 13.0439 14.723 13.0439H12.3564C12.2424 13.0439 12.1499 13.1383 12.1499 13.2547V15.4066C12.1499 15.5231 12.2424 15.6175 12.3565 15.6175Z" fill="#89B4FA"/>
<path d="M15.6275 15.6175H17.9929C18.1072 15.6175 18.1999 15.5233 18.2006 15.4066V13.2559C18.2006 13.1388 18.1076 13.0439 17.9929 13.0439H15.6275C15.5133 13.0439 15.4209 13.1383 15.4209 13.2547V15.4066C15.4209 15.5231 15.5133 15.6175 15.6275 15.6175Z" fill="#89B4FA"/>
<path d="M9.04729 12.5242H11.4127C11.5269 12.5235 11.6192 12.4288 11.6192 12.3122V10.1615C11.6192 10.045 11.5267 9.95068 11.4127 9.95068H9.04729C8.93306 9.95068 8.84024 10.0448 8.8396 10.1615V12.3122C8.84024 12.429 8.93283 12.5235 9.04729 12.5242Z" fill="#89B4FA"/>
<path d="M12.3564 12.5242H14.7219C14.836 12.5235 14.9283 12.4288 14.9283 12.3122V10.1615C14.9283 10.045 14.8359 9.95068 14.7219 9.95068H12.3564C12.2424 9.95068 12.1499 10.0451 12.1499 10.1615V12.3122C12.1499 12.4288 12.2422 12.5235 12.3564 12.5242Z" fill="#89B4FA"/>
<path d="M15.6275 12.5242H17.9929C18.1073 12.5235 18.1999 12.429 18.2006 12.3122V10.1615C18.1999 10.0448 18.1072 9.95068 17.9929 9.95068H15.6275C15.5133 9.95068 15.4209 10.0451 15.4209 10.1615V12.3122C15.4209 12.4288 15.5132 12.5235 15.6275 12.5242Z" fill="#89B4FA"/>
<path d="M15.6275 9.4285H17.9929C18.1072 9.4285 18.1999 9.33428 18.2006 9.21769V7.06579C18.1999 6.94915 18.1072 6.85498 17.9929 6.85498H15.6275C15.5133 6.85498 15.4209 6.94935 15.4209 7.06579V9.21765C15.4209 9.33409 15.5133 9.4285 15.6275 9.4285Z" fill="#89B4FA"/>
<path d="M18.9256 15.6178H21.291C21.4053 15.6178 21.498 15.5236 21.4987 15.4069V13.2562C21.4987 13.1391 21.4057 13.0442 21.291 13.0442H18.9256C18.8116 13.0442 18.719 13.1386 18.719 13.255V15.4069C18.719 15.5233 18.8116 15.6178 18.9256 15.6178Z" fill="#89B4FA"/>
</svg>
