<svg width="36" height="35" viewBox="0 0 36 35" fill="none" xmlns="http://www.w3.org/2000/svg">
<g filter="url(#filter0_d_2_351)">
<path d="M31.3454 14.2644C31.2727 14.2055 30.5942 13.6826 29.1635 13.6826V13.6826C28.5431 13.6852 27.9762 13.262 27.7192 12.6973C27.1694 11.489 26.1753 10.8905 26.1196 10.857V10.857C25.9035 10.7298 25.6235 10.7956 25.4826 11.0031V11.0031C25.1662 11.5031 24.9352 12.0542 24.7996 12.6331C24.711 13.0157 24.6716 13.3901 24.6809 13.7531C24.7089 14.8556 24.4052 16.103 23.3031 16.1454V16.1454H5.65132C5.19026 16.1459 4.81615 16.5263 4.81363 16.9969C4.79303 18.5754 5.05503 20.1445 5.58671 21.6269C6.19478 23.2546 7.09941 24.4536 8.27636 25.1873C9.59521 26.0118 11.7379 26.4829 14.1668 26.4829C15.264 26.4864 16.3593 26.3851 17.438 26.1803C18.9376 25.8992 20.3806 25.3642 21.7073 24.5972C22.8004 23.951 23.7842 23.129 24.6207 22.1627C25.9527 20.6238 26.7718 18.9181 27.3819 17.3774C27.4367 17.239 27.57 17.1476 27.7189 17.1476V17.1476C29.25 17.1476 30.1916 16.5222 30.7108 15.9981C31.0559 15.6638 31.3252 15.2567 31.5001 14.805L31.5019 14.7995C31.5667 14.6059 31.5043 14.3925 31.3454 14.2644V14.2644Z" fill="#89B4FA"/>
<path d="M7.28698 15.6178H9.65238C9.76646 15.6178 9.85891 15.5233 9.85891 15.4069V13.2562C9.85955 13.1397 9.76758 13.0448 9.65355 13.0442C9.65317 13.0442 9.65392 13.0442 9.65355 13.0442H7.28698C7.17289 13.0442 7.08044 13.1386 7.08044 13.255V15.4069C7.08044 15.5233 7.17289 15.6178 7.28698 15.6178Z" fill="#89B4FA"/>
<path d="M10.5472 15.6178H12.9126C13.0267 15.6178 13.1191 15.5233 13.1191 15.4069V13.2562C13.1198 13.1397 13.0278 13.0448 12.9137 13.0442C12.9134 13.0442 12.9141 13.0442 12.9137 13.0442H10.5472C10.4325 13.0442 10.3395 13.1391 10.3395 13.2562V15.4069C10.3401 15.5234 10.4329 15.6178 10.5472 15.6178Z" fill="#89B4FA"/>
<path d="M13.8565 15.6175H16.2219C16.3359 15.6175 16.4284 15.5231 16.4284 15.4066V13.2559C16.429 13.1395 16.3371 13.0446 16.223 13.0439C16.2226 13.0439 16.2232 13.0439 16.223 13.0439H13.8564C13.7424 13.0439 13.6499 13.1383 13.6499 13.2547V15.4066C13.6499 15.5231 13.7424 15.6175 13.8565 15.6175Z" fill="#89B4FA"/>
<path d="M17.1275 15.6175H19.4929C19.6072 15.6175 19.6999 15.5233 19.7006 15.4066V13.2559C19.7006 13.1388 19.6076 13.0439 19.4929 13.0439H17.1275C17.0133 13.0439 16.9209 13.1383 16.9209 13.2547V15.4066C16.9209 15.5231 17.0133 15.6175 17.1275 15.6175Z" fill="#89B4FA"/>
<path d="M10.5472 12.5242H12.9126C13.0268 12.5235 13.1191 12.4288 13.1191 12.3122V10.1615C13.1191 10.045 13.0266 9.95068 12.9126 9.95068H10.5472C10.4329 9.95068 10.3401 10.0448 10.3395 10.1615V12.3122C10.3401 12.429 10.4327 12.5235 10.5472 12.5242Z" fill="#89B4FA"/>
<path d="M13.8564 12.5242H16.2219C16.336 12.5235 16.4283 12.4288 16.4283 12.3122V10.1615C16.4283 10.045 16.3359 9.95068 16.2219 9.95068H13.8564C13.7424 9.95068 13.6499 10.0451 13.6499 10.1615V12.3122C13.6499 12.4288 13.7422 12.5235 13.8564 12.5242Z" fill="#89B4FA"/>
<path d="M17.1275 12.5242H19.4929C19.6073 12.5235 19.6999 12.429 19.7006 12.3122V10.1615C19.6999 10.0448 19.6072 9.95068 19.4929 9.95068H17.1275C17.0133 9.95068 16.9209 10.0451 16.9209 10.1615V12.3122C16.9209 12.4288 17.0132 12.5235 17.1275 12.5242Z" fill="#89B4FA"/>
<path d="M17.1275 9.4285H19.4929C19.6072 9.4285 19.6999 9.33428 19.7006 9.21769V7.06579C19.6999 6.94915 19.6072 6.85498 19.4929 6.85498H17.1275C17.0133 6.85498 16.9209 6.94935 16.9209 7.06579V9.21765C16.9209 9.33409 17.0133 9.4285 17.1275 9.4285Z" fill="#89B4FA"/>
<path d="M20.4254 15.6178H22.7907C22.905 15.6178 22.9978 15.5236 22.9984 15.4069V13.2562C22.9984 13.1391 22.9054 13.0442 22.7907 13.0442H20.4254C20.3113 13.0442 20.2188 13.1386 20.2188 13.255V15.4069C20.2188 15.5233 20.3113 15.6178 20.4254 15.6178Z" fill="#89B4FA"/>
</g>
<defs>
<filter id="filter0_d_2_351" x="-1.8678" y="0.156494" width="40.1566" height="40.1565" filterUnits="userSpaceOnUse" color-interpolation-filters="sRGB">
<feFlood flood-opacity="0" result="BackgroundImageFix"/>
<feColorMatrix in="SourceAlpha" type="matrix" values="0 0 0 0 0 0 0 0 0 0 0 0 0 0 0 0 0 0 127 0" result="hardAlpha"/>
<feOffset dy="4"/>
<feGaussianBlur stdDeviation="2"/>
<feComposite in2="hardAlpha" operator="out"/>
<feColorMatrix type="matrix" values="0 0 0 0 0 0 0 0 0 0 0 0 0 0 0 0 0 0 0.25 0"/>
<feBlend mode="normal" in2="BackgroundImageFix" result="effect1_dropShadow_2_351"/>
<feBlend mode="normal" in="SourceGraphic" in2="effect1_dropShadow_2_351" result="shape"/>
</filter>
</defs>
</svg>
