<svg width="33" height="33" viewBox="0 0 33 33" fill="none" xmlns="http://www.w3.org/2000/svg">
<path d="M10.2128 15.6087C10.5024 15.1035 10.325 14.4637 9.81655 14.1797C9.30815 13.8957 8.66126 14.0751 8.3717 14.5804L4.97275 20.5114C4.68319 21.0168 4.86062 21.6566 5.36904 21.9407C5.87745 22.2246 6.52434 22.0452 6.81389 21.5399L10.2128 15.6087Z" fill="#A6E3A1"/>
<path d="M17.5385 11.0607C17.828 10.5555 17.6507 9.91562 17.1422 9.63162C16.6338 9.34763 15.9869 9.52701 15.6974 10.0323L12.2984 15.9634C12.0089 16.4687 12.1863 17.1085 12.6947 17.3925C13.2031 17.6765 13.85 17.4972 14.1396 16.9918L17.5385 11.0607Z" fill="#A6E3A1"/>
<path d="M28.813 11.0605C29.1025 10.5552 28.9251 9.91539 28.4167 9.63138C27.9083 9.34738 27.2614 9.52676 26.9718 10.032L23.5728 15.9631C23.2833 16.4684 23.4608 17.1083 23.9691 17.3922C24.4776 17.6763 25.1245 17.4969 25.4141 16.9916L28.813 11.0605Z" fill="#A6E3A1"/>
<path d="M21.4849 15.6087C21.7744 15.1035 21.5969 14.4637 21.0886 14.1797C20.5801 13.8957 19.9332 14.0751 19.6437 14.5804L16.2447 20.5114C15.9552 21.0168 16.1326 21.6566 16.6411 21.9407C17.1494 22.2246 17.7963 22.0452 18.086 21.5399L21.4849 15.6087Z" fill="#A6E3A1"/>
</svg>
