<svg width="34" height="33" viewBox="0 0 34 33" fill="none" xmlns="http://www.w3.org/2000/svg">
<path d="M4.63428 12.4957C4.63428 12.8657 4.9342 13.1657 5.30421 13.1657H8.81086V23.7599C8.81086 24.1298 9.1108 24.4298 9.48079 24.4298H12.3318C12.7018 24.4298 13.0017 24.1298 13.0017 23.7599V13.1657H16.5084C16.8783 13.1657 17.1783 12.8657 17.1783 12.4957V10.1177C17.1783 9.74768 16.8783 9.44774 16.5084 9.44774H5.30421C4.9342 9.44774 4.63428 9.74768 4.63428 10.1177V12.4957ZM26.4274 14.1073C26.4614 14.45 26.7496 14.711 27.094 14.711H29.8585C30.038 14.711 30.2101 14.6389 30.336 14.511C30.462 14.3829 30.5312 14.2098 30.5283 14.0301C30.513 13.0983 30.2611 12.2532 29.7587 11.5182C29.2602 10.789 28.5693 10.2325 27.7124 9.84154C26.8531 9.44734 25.8705 9.26123 24.7826 9.26123C23.7095 9.26123 22.7266 9.4483 21.8467 9.83825C20.9705 10.2266 20.2569 10.7786 19.7309 11.5024L19.7292 11.505C19.1958 12.2464 18.939 13.108 18.9435 14.0613C18.939 15.2324 19.332 16.226 20.1597 16.9655C20.9297 17.6533 21.947 18.1307 23.1697 18.4284C23.1705 18.4286 23.1713 18.4289 23.1721 18.429L24.6527 18.8009L24.6589 18.8024C25.1323 18.9166 25.5137 19.0392 25.8109 19.1666L25.8139 19.1678C26.0979 19.288 26.2611 19.4126 26.3507 19.5179L26.3561 19.5241C26.4201 19.5975 26.4641 19.6934 26.4641 19.8563C26.4641 20.0375 26.413 20.1814 26.3084 20.3139C26.1967 20.4555 26.0214 20.5898 25.7447 20.6978L25.7422 20.6988C25.4784 20.8029 25.1415 20.8651 24.716 20.8651C24.2883 20.8651 23.9263 20.8005 23.6204 20.6844C23.3334 20.5694 23.1237 20.4109 22.9696 20.215C22.8328 20.0315 22.737 19.782 22.7132 19.4313C22.6893 19.0798 22.3972 18.8068 22.0448 18.8068H19.2538C19.0734 18.8068 18.9007 18.8794 18.7748 19.0083C18.6487 19.1374 18.58 19.3115 18.584 19.4919C18.6085 20.574 18.8725 21.5305 19.4126 22.3248L19.4155 22.3289C19.9528 23.1064 20.6948 23.6835 21.6147 24.0655C22.5303 24.4436 23.581 24.623 24.7493 24.623C25.9236 24.623 26.9655 24.4472 27.855 24.0703L27.8567 24.0695C28.7445 23.6905 29.4572 23.1433 29.9579 22.4136C30.4648 21.6769 30.7098 20.8185 30.7149 19.8667L30.7148 19.8578C30.7098 19.2111 30.5907 18.6107 30.3406 18.0712C30.1018 17.5467 29.7639 17.0899 29.3314 16.7049C28.9101 16.33 28.4196 16.021 27.8667 15.7742C27.3255 15.5325 26.7378 15.3421 26.1061 15.2003L24.8851 14.9084L24.8757 14.9061C24.604 14.8454 24.3522 14.7733 24.1193 14.6906C23.8992 14.6082 23.7158 14.517 23.5646 14.4201C23.4386 14.3354 23.3527 14.2457 23.2936 14.1542C23.2617 14.1 23.2358 14.0214 23.2405 13.8924C23.2408 13.8842 23.2409 13.876 23.2409 13.868C23.2409 13.7147 23.2815 13.5928 23.3626 13.4806C23.4479 13.3683 23.5863 13.2568 23.8176 13.165L23.8248 13.162C24.0458 13.0713 24.351 13.0125 24.7626 13.0125C25.3657 13.0125 25.7583 13.1424 26.0107 13.3283C26.2494 13.5041 26.3912 13.7426 26.4274 14.1073Z" stroke="#89B4FA" stroke-width="2.2969" stroke-linejoin="round"/>
</svg>
