<svg width="33" height="33" viewBox="0 0 33 33" fill="none" xmlns="http://www.w3.org/2000/svg">
<path fill-rule="evenodd" clip-rule="evenodd" d="M17.8122 9.55811C19.6133 11.5969 19.6548 13.7691 17.9376 16.125C16.0655 18.6934 15.7945 19.2013 15.7945 20.1404C15.7945 21.2723 16.4756 22.2654 17.9816 23.3297L18.789 23.9001C18.9578 24.0193 19.1593 24.0833 19.366 24.0833H23.384C26.4541 24.0833 27.7991 24.0046 27.9919 23.813C28.187 23.6189 28.2639 22.133 28.2639 18.5519V13.9918C28.2639 13.7169 28.1508 13.4541 27.9511 13.2653L26.9603 12.3281C24.7031 10.1931 22.362 9.19262 18.8597 8.86657L18.195 8.80465C17.785 8.76647 17.5396 9.24953 17.8122 9.55811ZM14.823 11.0917C12.9986 13.727 9.70241 15.2801 5.90808 15.2915C4.86155 15.2947 4.56727 15.3792 4.37773 15.7312C4.0694 16.304 4.0694 23.0748 4.37773 23.6476C4.60015 24.0604 4.90781 24.0833 10.2034 24.0833H14.7819C15.1631 24.0833 15.3585 23.6266 15.0953 23.351C13.9536 22.1551 13.6035 21.2541 13.7103 19.7863C13.8081 18.4439 13.8795 18.3072 15.9611 15.4841C17.2314 13.7615 17.3808 12.453 16.4651 11.0703C16.1165 10.5437 15.7566 10.1127 15.6659 10.1127C15.5751 10.1127 15.1958 10.5532 14.823 11.0917Z" fill="#FAB387"/>
</svg>
