<svg width="34" height="35" viewBox="0 0 34 35" fill="none" xmlns="http://www.w3.org/2000/svg">
<g filter="url(#filter0_d_2_380)">
<path d="M18.5435 11.4263L15.7374 16.2965H15.7184L12.9408 11.4738L18.5435 11.4263Z" fill="#83FF50" stroke="#83FF50" stroke-width="0.163067" stroke-miterlimit="5.3333"/>
<mask id="mask0_2_380" style="mask-type:luminance" maskUnits="userSpaceOnUse" x="5" y="5" width="16" height="8">
<path d="M20.4542 12.3031H5.38684V5.6731H20.4542V12.3031Z" fill="#CDD6F4"/>
</mask>
<g mask="url(#mask0_2_380)">
<g opacity="0.83">
<path d="M18.5692 11.3988L18.5597 11.4178H18.5502V11.4274L12.938 11.4749V11.4654H7.31624L7.2782 11.3988L10.1033 6.50952H15.7536L18.5692 11.3988Z" fill="#96FF5B" fill-opacity="0.6471"/>
</g>
</g>
<path d="M18.5556 11.4187L15.7495 16.2889H15.74L18.5461 11.4187H18.5556Z" fill="#CDD6F4"/>
<path d="M15.7528 16.3589L15.7433 16.378L12.9277 21.2484H7.28692L4.46179 16.3589L7.28692 11.4697H7.31546L10.093 16.2924H15.7147L15.7528 16.3589Z" fill="#00D6FF" stroke="#00D6FF" stroke-width="0.163067" stroke-miterlimit="5.3333"/>
<path d="M15.7147 16.2915H10.1025L7.31543 11.4688H12.9372L15.7147 16.2915Z" fill="#7DFFFF" stroke="#7DFFFF" stroke-width="0.163067" stroke-miterlimit="5.3333"/>
<path d="M18.5842 21.1279L18.6318 21.204H18.5462L16.4059 21.2231L12.934 21.2516L15.7496 16.3813H21.3332L18.5842 21.1279Z" fill="#32E6FF" stroke="#32E6FF" stroke-width="0.163067" stroke-miterlimit="5.3333"/>
<mask id="mask1_2_380" style="mask-type:luminance" maskUnits="userSpaceOnUse" x="11" y="14" width="12" height="14">
<path d="M22.89 27.7968H11.4847V14.7461H22.89V27.7968Z" fill="#CDD6F4"/>
</mask>
<g mask="url(#mask1_2_380)">
<g opacity="0.86">
<path d="M21.4664 26.0204L21.3808 26.1631H15.74L12.9149 21.2738L12.9244 21.2548L15.74 16.3845H15.7495L12.9339 21.2453L16.4059 21.2167L18.5557 21.1977H18.6413L21.4094 26.0204H21.4664Z" fill="#00D5FF" fill-opacity="0.5451"/>
</g>
</g>
<path d="M18.585 21.1279L18.6326 21.204H18.5469L15.7694 16.3813H21.334L18.585 21.1279Z" fill="#20E6FF" stroke="#20E6FF" stroke-width="0.163067" stroke-miterlimit="5.3333"/>
<path d="M24.1681 21.2042H18.6319L18.5844 21.1281L21.3238 16.3813H21.3809L24.1681 21.2042Z" fill="#2AF0FF" stroke="#2AF0FF" stroke-width="0.163067" stroke-miterlimit="5.3333"/>
<mask id="mask2_2_380" style="mask-type:luminance" maskUnits="userSpaceOnUse" x="17" y="20" width="9" height="7">
<path d="M25.1438 26.8272H17.7052V20.4065H25.1438V26.8272Z" fill="#CDD6F4"/>
</mask>
<g mask="url(#mask2_2_380)">
<g opacity="0.95">
<path d="M24.2074 21.2718L21.4679 26.0185H21.4108L18.6333 21.2053H24.1695L24.2074 21.2718Z" fill="#29EFFF" fill-opacity="0.8"/>
</g>
</g>
<path d="M27.0212 16.3122L24.1961 21.2015H24.1676L21.3901 16.3788H15.7683L15.7302 16.3122L15.7397 16.2932L18.5459 11.4228V11.4133H24.1961L26.9736 16.2266L27.0212 16.3122Z" fill="#32F8B9" stroke="#32F8B9" stroke-width="0.163067" stroke-miterlimit="5.3333"/>
<mask id="mask3_2_380" style="mask-type:luminance" maskUnits="userSpaceOnUse" x="19" y="14" width="13" height="14">
<path d="M31.2581 27.7975H19.9672V14.6611H31.2581V27.7975Z" fill="#CDD6F4"/>
</mask>
<g mask="url(#mask3_2_380)">
<g opacity="0.85">
<path d="M29.8409 21.1976L27.0158 26.0869L21.375 26.163L24.1717 21.3403L24.1336 21.2737H24.1622L26.9873 16.3845L26.9397 16.3083H27.0253L29.8409 21.1976Z" fill="#32F6B8" fill-opacity="0.5647"/>
</g>
</g>
</g>
<defs>
<filter id="filter0_d_2_380" x="-2.21704" y="0.313232" width="40.1566" height="40.1565" filterUnits="userSpaceOnUse" color-interpolation-filters="sRGB">
<feFlood flood-opacity="0" result="BackgroundImageFix"/>
<feColorMatrix in="SourceAlpha" type="matrix" values="0 0 0 0 0 0 0 0 0 0 0 0 0 0 0 0 0 0 127 0" result="hardAlpha"/>
<feOffset dy="4"/>
<feGaussianBlur stdDeviation="2"/>
<feComposite in2="hardAlpha" operator="out"/>
<feColorMatrix type="matrix" values="0 0 0 0 0 0 0 0 0 0 0 0 0 0 0 0 0 0 0.25 0"/>
<feBlend mode="normal" in2="BackgroundImageFix" result="effect1_dropShadow_2_380"/>
<feBlend mode="normal" in="SourceGraphic" in2="effect1_dropShadow_2_380" result="shape"/>
</filter>
</defs>
</svg>
