<svg width="33" height="33" viewBox="0 0 33 33" fill="none" xmlns="http://www.w3.org/2000/svg">
<path fill-rule="evenodd" clip-rule="evenodd" d="M5.07304 25.9334C5.07304 26.4071 5.19333 26.9184 5.52411 27.0987C6.74202 27.7829 11.0122 27.2491 12.4631 26.9259C13.2224 26.7529 13.8388 26.1891 14.5531 25.8808C16.1619 25.1816 17.3272 24.6178 18.6127 23.6781C19.545 22.9939 21.026 21.0694 21.1838 19.9192L19.9133 19.6334C19.8833 20.9265 19.59 21.2198 18.4398 21.5205C17.6655 21.731 16.1544 21.7761 15.3651 21.6408C14.32 21.4678 13.8465 20.919 13.3728 20.2951C12.4556 19.0771 13.5758 18.2276 12.1248 18.145C10.5987 20.0169 7.90728 18.6711 6.72697 18.4833C6.22328 19.2124 5.04297 23.9487 5.058 25.0313C5.78725 24.7833 6.24583 25.0538 6.89988 25.3095C9.2154 26.2041 7.19308 26.9935 6.26838 26.7604C5.63689 26.6101 5.44142 26.1966 5.07304 25.9334ZM8.10275 15.1303C9.04247 15.3106 9.87698 15.7016 10.6739 16.1001C11.9745 16.7466 12.2075 16.6564 12.3278 17.5585C12.3428 17.724 12.3128 17.8142 12.7864 17.9645C13.5833 18.2126 12.3278 17.769 14.4629 17.7765C15.7334 17.784 18.6428 18.2953 19.5825 18.8893C19.9735 19.1373 19.8983 19.4531 21.2215 19.4154C21.2064 17.8593 20.793 15.5363 20.184 14.1079C19.4397 12.3787 18.4549 12.1156 16.4477 11.4691C15.2748 11.0932 11.8316 10.6797 10.7641 11.3413C9.7642 11.9652 9.57625 12.7095 8.64404 14.0177C8.37339 14.401 8.27566 14.6942 8.10275 15.1303Z" fill="#FAFAFA"/>
<path fill-rule="evenodd" clip-rule="evenodd" d="M16.3805 18.326C17.1323 18.6342 16.3428 20.6264 15.2979 20.1453C14.9595 19.1905 15.764 18.6492 15.982 18.2207C15.5309 18.1531 14.2453 17.9501 13.8619 18.0929C13.3657 18.2809 13.253 19.3408 13.5086 19.8371C14.7114 22.1977 20.0266 21.694 19.4627 19.8596C19.2372 19.1153 19.0267 18.995 18.2674 18.7394C17.6584 18.5365 17.0495 18.326 16.3805 18.326ZM6.93042 18.0629C7.53186 18.6417 8.89259 18.7319 9.77218 18.777C9.88495 17.6118 9.98268 16.7396 10.9149 16.8073C11.3735 17.4313 11.1329 18.1681 10.6518 18.6417C11.4712 18.6342 11.9449 18.0177 11.8246 17.1231C11.1329 16.627 9.03543 15.6345 7.98293 15.4917C7.68973 15.8075 6.96802 17.5366 6.93042 18.0629Z" fill="#FAFAFA"/>
<path fill-rule="evenodd" clip-rule="evenodd" d="M5.51665 25.5056C6.01283 25.4605 7.30591 25.8364 7.41116 26.2574C6.60675 26.3552 5.58432 26.2799 5.51665 25.5056ZM5.07309 25.9341C5.44147 26.1973 5.63694 26.6107 6.26845 26.7611C7.19314 26.9942 9.21545 26.2048 6.89995 25.3101C6.24588 25.0546 5.78729 24.784 5.05806 25.032C5.04303 23.9494 6.22333 19.2131 6.72703 18.484C7.90734 18.6719 10.5987 20.0176 12.1249 18.1457C13.5758 18.2283 12.4557 19.0779 13.3728 20.2957C13.8465 20.9197 14.3201 21.4685 15.3651 21.6415C16.1545 21.7768 17.6656 21.7316 18.4399 21.5212C19.5902 21.2205 19.8833 20.9272 19.9133 19.6342L21.1839 19.9199C21.0261 21.0702 19.545 22.9947 18.6129 23.6789C17.3273 24.6185 16.162 25.1823 14.5531 25.8816C13.839 26.1898 13.2225 26.7536 12.4632 26.9265C11.0122 27.2499 6.74207 27.7835 5.52417 27.0994C5.19338 26.919 5.07309 26.4078 5.07309 25.9341ZM15.5906 19.7094C15.6432 19.2131 15.8312 18.935 16.1244 18.732C16.3273 19.1681 15.9665 19.5891 15.5906 19.7094ZM16.38 18.3261C17.0491 18.3261 17.6581 18.5366 18.2669 18.7396C19.0264 18.9951 19.2368 19.1154 19.4623 19.8597C20.0262 21.6941 14.7111 22.1978 13.5082 19.8372C13.2526 19.3409 13.3653 18.281 13.8615 18.093C14.2449 17.9502 15.5305 18.1532 15.9815 18.2208C15.7635 18.6493 14.9591 19.1906 15.2974 20.1454C16.3423 20.6265 17.1318 18.6343 16.38 18.3261ZM10.2379 18.4163C10.2454 17.8975 10.2229 17.4315 10.6965 17.2285C10.8694 17.6269 10.5837 18.1908 10.2379 18.4163ZM6.93002 18.063C6.9676 17.5367 7.68933 15.8076 7.98251 15.4918C9.03503 15.6346 11.1325 16.6271 11.8242 17.1232C11.9444 18.0178 11.4708 18.6343 10.6514 18.6418C11.1325 18.1682 11.3731 17.4315 10.9145 16.8074C9.98228 16.7397 9.88454 17.6119 9.77177 18.7771C8.89218 18.732 7.53145 18.6418 6.93002 18.063ZM6.17822 17.4615C5.90007 16.6947 5.90007 15.4993 7.08037 15.4016L6.47894 17.0781C6.32106 17.439 6.32106 17.3562 6.17822 17.4615ZM8.10281 15.131C8.27572 14.695 8.37344 14.4017 8.6441 14.0184C9.57632 12.7102 9.76426 11.9659 10.7641 11.342C11.8317 10.6804 15.2749 11.0939 16.4477 11.4698C18.4549 12.1163 19.4398 12.3794 20.184 14.1085C20.793 15.5369 21.2064 17.86 21.2216 19.4161C19.8983 19.4538 19.9735 19.138 19.5827 18.8899C18.6429 18.296 15.7335 17.7848 14.4629 17.7773C12.3278 17.7697 13.5833 18.2133 12.7864 17.9652C12.3128 17.8148 12.3429 17.7247 12.3278 17.5592C12.2076 16.6571 11.9745 16.7474 10.6739 16.1008C9.87702 15.7023 9.04254 15.3115 8.10281 15.131ZM21.4094 14.7626C21.2666 14.289 21.5297 14.319 21.9884 13.9957C22.2515 13.8079 22.462 13.6124 22.7852 13.4319C23.9956 12.7553 26.251 12.6426 27.2133 13.447C27.6043 13.7702 28.2432 14.4017 28.1454 15.2286C27.9424 16.8751 26.8148 17.7773 25.8902 18.5291C24.9504 19.2959 23.3867 20.0852 21.7704 19.5591C21.6351 19.2283 21.7402 17.1307 21.5824 16.3564C21.4396 15.6648 21.5147 15.5896 21.9132 15.1761C23.086 13.9582 25.627 13.0711 27.0705 14.116C27.6794 14.5672 27.5064 14.74 27.8223 15.0858C28.2131 14.6648 27.4839 13.2515 24.7926 13.3417C22.9657 13.4019 22.1762 14.8303 21.4094 14.7626ZM10.4634 10.4849C10.501 9.43994 11.4633 7.27479 12.4256 6.523C13.5909 5.62086 14.8087 4.77134 16.598 5.78625C17.0416 6.03434 17.019 6.16215 17.0641 6.7786C17.1018 7.37252 17.0491 7.59054 16.8988 8.07169C15.7109 11.9058 14.7186 9.70306 10.9145 10.6127C11.0573 9.36476 12.1399 8.25211 12.7413 7.67324C13.7713 6.67336 14.5156 6.02682 16.0642 6.23733C16.4928 6.95153 16.5378 7.40259 16.0192 8.23708C15.3275 9.34972 15.1546 9.28206 15.2599 10.0414C15.8012 9.90605 15.9665 9.37979 16.2147 8.85355C17.7257 5.69604 15.5305 5.31262 14.1848 5.8915C13.2826 6.27491 11.6738 8.04914 11.1475 9.11667C11.0423 9.32717 10.9295 9.59781 10.8318 9.83087L10.4634 10.4849ZM16.4176 10.6428C16.5755 9.70306 17.5076 9.47002 17.5076 6.57563C17.5076 5.32766 15.974 4.2075 13.9668 5.04199C12.2452 5.74865 11.982 6.28994 11.0648 7.67324C10.2003 8.98134 10.2304 10.4173 9.48609 11.6276C9.26808 11.9735 9.07261 12.0938 8.83204 12.4396C8.65913 12.6952 8.53132 13.0184 8.35841 13.3192C8.00508 13.898 7.64421 14.319 7.35853 15.0107C6.45639 15.0333 5.69708 15.0483 5.60686 15.9804C5.48659 17.2585 6.08801 17.5743 6.08801 18.0555C6.08049 18.5741 3.97548 23.8066 4.56188 26.9265C4.72727 27.7835 5.29111 27.791 6.19327 27.8963C8.36593 28.1595 11.1851 28.0692 13.1323 27.2874L16.6657 25.5958C17.5603 25.0921 19.0639 24.1374 19.733 23.4382C20.2066 22.9496 20.4546 22.5361 20.8606 21.9571C21.4169 21.1453 21.4321 21.1603 21.5522 20.0552C22.289 20.1905 23.6648 20.5137 24.1234 20.9122C24.0708 21.431 23.8151 21.1828 23.8151 21.649C24.1084 21.6565 24.5971 21.2882 24.7173 20.8822C24.4091 20.431 24.0858 20.5062 23.6423 20.1454C23.9956 19.8672 24.6346 19.7394 25.1232 19.5364C26.1758 19.1004 27.9726 17.7773 28.4161 16.5744C28.7695 15.6046 28.5064 13.9882 27.9349 13.3568C27.3336 12.6952 25.9352 12.3569 24.7926 12.3569C23.4318 12.3569 22.0259 13.3342 20.9283 13.7552C20.5073 13.3868 20.4773 12.9658 20.169 12.5599C19.8157 12.0787 17.5153 10.8758 16.4176 10.6428Z" fill="#475569" stroke="#475569" stroke-width="0.833981" stroke-linejoin="round"/>
<path fill-rule="evenodd" clip-rule="evenodd" d="M10.2385 18.4157C10.5843 18.1901 10.87 17.6263 10.6971 17.2278C10.2235 17.4308 10.246 17.8969 10.2385 18.4157ZM15.5912 19.7087C15.9672 19.5885 16.328 19.1675 16.125 18.7314C15.8319 18.9344 15.6439 19.2125 15.5912 19.7087Z" fill="#BFDBFE"/>
<path fill-rule="evenodd" clip-rule="evenodd" d="M21.4103 14.7619C22.1771 14.8296 22.9665 13.4012 24.7933 13.3411C27.4848 13.2509 28.2139 14.6642 27.823 15.0852C27.5073 14.7394 27.6801 14.5664 27.0713 14.1154C25.6277 13.0704 23.0867 13.9576 21.9139 15.1754C21.5156 15.5889 21.4403 15.664 21.5832 16.3558C21.7411 17.1301 21.6358 19.2275 21.7711 19.5583C23.3875 20.0846 24.9512 19.2952 25.8909 18.5284C26.8156 17.7766 27.9433 16.8745 28.1463 15.228C28.2441 14.4011 27.605 13.7696 27.2141 13.4463C26.2518 12.6419 23.9965 12.7547 22.786 13.4313C22.4627 13.6117 22.2522 13.8071 21.9891 13.9951C21.5306 14.3184 21.2674 14.2883 21.4103 14.7619Z" fill="#FECACA"/>
<path fill-rule="evenodd" clip-rule="evenodd" d="M10.4641 10.4848L10.8325 9.83078C10.9302 9.59772 11.043 9.32708 11.1482 9.11658C11.6745 8.04905 13.2833 6.27482 14.1855 5.8914C15.5311 5.31253 17.7263 5.69595 16.2153 8.85346C15.9672 9.37971 15.8018 9.90596 15.2605 10.0413C15.1553 9.28197 15.3281 9.34963 16.0198 8.23699C16.5386 7.40251 16.4934 6.95143 16.0649 6.23724C14.5163 6.02673 13.772 6.67327 12.742 7.67315C12.1406 8.25202 11.058 9.36467 10.9152 10.6126C14.7192 9.70298 15.7116 11.9057 16.8994 8.0716C17.0497 7.59045 17.1024 7.37243 17.0649 6.77852C17.0197 6.16206 17.0422 6.03425 16.5987 5.78616C14.8095 4.77124 13.5915 5.62077 12.4263 6.52291C11.464 7.2747 10.5017 9.43985 10.4641 10.4848Z" fill="#FECACA"/>
<path fill-rule="evenodd" clip-rule="evenodd" d="M7.41184 26.2574C7.30659 25.8365 6.01351 25.4605 5.51733 25.5056C5.585 26.2799 6.60743 26.3551 7.41184 26.2574Z" fill="#FECACA"/>
</svg>
