<svg width="33" height="33" viewBox="0 0 33 33" fill="none" xmlns="http://www.w3.org/2000/svg">
<path d="M23.8157 15.5871L17.095 4.84659C16.9022 4.52512 16.5162 4.33203 16.1303 4.33203C15.7444 4.33203 15.3908 4.52485 15.1656 4.84659L8.44507 15.5871C8.44507 15.5871 8.44507 15.6191 8.41297 15.6191C6.90165 18.1917 6.93377 21.343 8.44507 23.9797C10.0208 26.7452 12.979 28.4495 16.0981 28.4495C19.2172 28.4495 22.1757 26.745 23.7511 23.9797C25.2625 21.343 25.2945 18.2238 23.7833 15.6191C23.8156 15.6194 23.8157 15.6194 23.8157 15.5871ZM21.854 22.8545C20.6644 24.9124 18.4779 26.1988 16.1303 26.1988C13.7829 26.1988 11.5963 24.9127 10.4064 22.8545C9.28105 20.9251 9.28107 18.642 10.3423 16.7768L16.1302 7.57971L21.8862 16.7768C22.9797 18.642 22.9476 20.9251 21.854 22.8545Z" fill="#CBA6F7"/>
</svg>
