<svg width="35" height="35" viewBox="0 0 35 35" fill="none" xmlns="http://www.w3.org/2000/svg">
<g filter="url(#filter0_d_2_423)">
<path d="M8.81984 5.80225C8.68736 5.80225 8.55798 5.85498 8.47008 5.95409C6.11202 8.596 4.93298 12.1837 4.93298 16.7192C4.93298 20.7242 5.88937 23.9227 7.79762 26.3208C8.14363 26.7556 8.68156 26.9811 9.23724 26.9811H27.204C27.4876 26.9811 27.7699 26.9237 28.0221 26.7939C29.0393 26.2707 29.8809 25.5826 30.5039 24.9772C31.2567 24.2454 31.0949 23.0684 30.2754 22.4122L29.9686 22.1665C29.1884 21.5417 28.0667 21.5889 27.3417 22.277L27.1639 22.4457C26.3035 23.2128 26.3253 23.3697 24.8663 24.2122C23.3827 24.8812 21.8494 25.171 20.2674 25.171C17.7714 25.171 15.8778 24.2687 14.5875 23.1274C13.6828 22.3184 13.0708 20.4067 12.7519 18.5954C12.5529 17.465 13.4727 16.5016 14.6204 16.5061L28.365 16.5588C29.144 16.5618 29.7485 15.8801 29.6523 15.1071C29.652 15.1047 29.6521 15.1053 29.6518 15.1029C29.6437 15.0352 28.9716 9.42811 27.6351 6.65659C27.3627 6.09168 26.7615 5.80225 26.1343 5.80225H8.81984ZM17.3059 6.64185C18.8591 6.64185 20.5016 7.17281 21.2369 8.10175C21.6179 8.58412 21.8523 9.01121 21.9954 9.56781C22.275 10.6548 21.2791 11.5991 20.1568 11.5991H14.6034C13.4539 11.5991 12.4493 10.6035 12.8091 9.51172C13.019 8.87452 13.3443 8.4066 13.8482 7.92907C14.7771 7.04876 15.8629 6.64185 17.3059 6.64185Z" fill="#F38BA8"/>
</g>
<defs>
<filter id="filter0_d_2_423" x="-1.74719" y="0.313232" width="40.1566" height="40.1565" filterUnits="userSpaceOnUse" color-interpolation-filters="sRGB">
<feFlood flood-opacity="0" result="BackgroundImageFix"/>
<feColorMatrix in="SourceAlpha" type="matrix" values="0 0 0 0 0 0 0 0 0 0 0 0 0 0 0 0 0 0 127 0" result="hardAlpha"/>
<feOffset dy="4"/>
<feGaussianBlur stdDeviation="2"/>
<feComposite in2="hardAlpha" operator="out"/>
<feColorMatrix type="matrix" values="0 0 0 0 0 0 0 0 0 0 0 0 0 0 0 0 0 0 0.25 0"/>
<feBlend mode="normal" in2="BackgroundImageFix" result="effect1_dropShadow_2_423"/>
<feBlend mode="normal" in="SourceGraphic" in2="effect1_dropShadow_2_423" result="shape"/>
</filter>
</defs>
</svg>
