<svg width="33" height="33" viewBox="0 0 33 33" fill="none" xmlns="http://www.w3.org/2000/svg">
<path d="M7.31997 5.80225C7.18748 5.80225 7.05811 5.85498 6.9702 5.95409C4.61214 8.596 3.43311 12.1837 3.43311 16.7192C3.43311 20.7242 4.38949 23.9227 6.29774 26.3208C6.64375 26.7556 7.18168 26.9811 7.73736 26.9811H25.7041C25.9878 26.9811 26.27 26.9237 26.5223 26.7939C27.5394 26.2707 28.3811 25.5826 29.004 24.9772C29.7568 24.2454 29.5951 23.0684 28.7756 22.4122L28.4687 22.1665C27.6885 21.5417 26.5668 21.5889 25.8418 22.277L25.664 22.4457C24.8036 23.2128 24.8254 23.3697 23.3664 24.2122C21.8828 24.8812 20.3495 25.171 18.7675 25.171C16.2715 25.171 14.3779 24.2687 13.0877 23.1274C12.1829 22.3184 11.5709 20.4067 11.252 18.5954C11.053 17.465 11.9728 16.5016 13.1205 16.5061L26.8652 16.5588C27.6441 16.5618 28.2486 15.8801 28.1525 15.1071C28.1522 15.1047 28.1522 15.1053 28.1519 15.1029C28.1439 15.0352 27.4717 9.42811 26.1352 6.65659C25.8628 6.09168 25.2616 5.80225 24.6345 5.80225H7.31997ZM15.806 6.64185C17.3592 6.64185 19.0017 7.17281 19.737 8.10175C20.118 8.58412 20.3524 9.01121 20.4955 9.56781C20.7751 10.6548 19.7793 11.5991 18.6569 11.5991H13.1035C11.954 11.5991 10.9494 10.6035 11.3092 9.51172C11.5191 8.87452 11.8444 8.4066 12.3483 7.92907C13.2772 7.04876 14.363 6.64185 15.806 6.64185Z" fill="#F38BA8"/>
</svg>
