<svg width="35" height="36" viewBox="0 0 35 36" fill="none" xmlns="http://www.w3.org/2000/svg">
<g filter="url(#filter0_d_2_425)">
<path d="M16.5423 10.5224L13.0423 12.4315C12.3998 12.7819 12 13.4554 12 14.1873V18.3127C12 19.0446 12.3998 19.7181 13.0423 20.0685L16.5423 21.9776C17.1393 22.3032 17.8607 22.3032 18.4577 21.9776L21.9577 20.0685C22.6002 19.7181 23 19.0446 23 18.3127V14.1873C23 13.4554 22.6002 12.7819 21.9577 12.4315L18.4577 10.5224C17.8607 10.1968 17.1393 10.1968 16.5423 10.5224Z" fill="#B8C1F9"/>
<mask id="mask0_2_425" style="mask-type:alpha" maskUnits="userSpaceOnUse" x="4" y="4" width="27" height="24">
<path d="M9.06809 6.55698L4.92694 13.9519C4.04533 15.5262 4.08031 17.4534 5.01848 18.9946L9.03897 25.5997C9.94626 27.0903 11.565 28 13.31 28H21.69C23.435 28 25.0537 27.0903 25.961 25.5997L29.9815 18.9946C30.9197 17.4534 30.9547 15.5262 30.0731 13.9519L25.9319 6.55698C25.0477 4.97795 23.3791 4 21.5694 4H13.4306C11.6209 4 9.95235 4.97795 9.06809 6.55698Z" fill="#89B4FA"/>
</mask>
<g mask="url(#mask0_2_425)">
<mask id="path-3-outside-1_2_425" maskUnits="userSpaceOnUse" x="-1.6377" y="-3.50024" width="38" height="40" fill="black">
<rect fill="white" x="-1.6377" y="-3.50024" width="38" height="40"/>
<path d="M16.2572 8.81668L11.715 11.2943C10.8811 11.7491 10.3623 12.6231 10.3623 13.5729V18.9268C10.3623 19.8767 10.8811 20.7506 11.715 21.2055L16.2572 23.683C17.0319 24.1056 17.9683 24.1056 18.743 23.683L23.2852 21.2055C24.119 20.7506 24.6379 19.8767 24.6379 18.9268V13.5729C24.6379 12.6231 24.119 11.7491 23.2852 11.2943L18.743 8.81668C17.9683 8.39411 17.0319 8.39411 16.2572 8.81668Z"/>
</mask>
<path d="M11.715 11.2943L17.308 21.5481L17.308 21.5481L11.715 11.2943ZM16.2572 8.81668L21.8502 19.0705L16.2572 8.81668ZM18.743 8.81668L24.336 -1.43713L24.336 -1.43713L18.743 8.81668ZM23.2852 11.2943L28.8782 1.04044L23.2852 11.2943ZM23.2852 21.2055L28.8782 31.4593L28.8782 31.4593L23.2852 21.2055ZM18.743 23.683L24.3359 33.9368L24.336 33.9368L18.743 23.683ZM16.2572 23.683L21.8502 13.4292L21.8502 13.4292L16.2572 23.683ZM11.715 21.2055L17.308 10.9516L17.308 10.9516L11.715 21.2055ZM17.308 21.5481L21.8502 19.0705L10.6642 -1.43713L6.12198 1.04044L17.308 21.5481ZM13.15 19.0705L17.6922 21.5481L28.8782 1.04044L24.336 -1.43713L13.15 19.0705ZM12.9579 13.5729V18.9268H36.3179V13.5729H12.9579ZM17.6922 10.9516L13.15 13.4292L24.336 33.9368L28.8782 31.4593L17.6922 10.9516ZM21.8502 13.4292L17.308 10.9516L6.12198 31.4593L10.6642 33.9368L21.8502 13.4292ZM22.0423 18.9268V13.5729H-1.31769V18.9268H22.0423ZM17.308 10.9516C20.2264 12.5435 22.0423 15.6024 22.0423 18.9268H-1.31769C-1.31769 24.1509 1.5358 28.9577 6.12199 31.4593L17.308 10.9516ZM13.15 13.4292C15.8615 11.9502 19.1387 11.9502 21.8502 13.4292L10.6642 33.9368C14.9251 36.261 20.075 36.261 24.3359 33.9368L13.15 13.4292ZM12.9579 18.9268C12.9579 15.6024 14.7737 12.5435 17.6922 10.9516L28.8782 31.4593C33.4644 28.9577 36.3179 24.1509 36.3179 18.9268H12.9579ZM17.6922 21.5481C14.7737 19.9562 12.9579 16.8973 12.9579 13.5729H36.3179C36.3179 8.34883 33.4644 3.54199 28.8782 1.04044L17.6922 21.5481ZM21.8502 19.0705C19.1387 20.5495 15.8615 20.5495 13.15 19.0705L24.336 -1.43713C20.075 -3.76127 14.9251 -3.76128 10.6642 -1.43713L21.8502 19.0705ZM6.12198 1.04044C1.5358 3.54199 -1.31769 8.34883 -1.31769 13.5729H22.0423C22.0423 16.8973 20.2264 19.9562 17.308 21.5481L6.12198 1.04044Z" fill="#89B4FA" mask="url(#path-3-outside-1_2_425)"/>
</g>
</g>
<defs>
<filter id="filter0_d_2_425" x="-2.59058" y="0.313232" width="40.1566" height="40.1565" filterUnits="userSpaceOnUse" color-interpolation-filters="sRGB">
<feFlood flood-opacity="0" result="BackgroundImageFix"/>
<feColorMatrix in="SourceAlpha" type="matrix" values="0 0 0 0 0 0 0 0 0 0 0 0 0 0 0 0 0 0 127 0" result="hardAlpha"/>
<feOffset dy="4"/>
<feGaussianBlur stdDeviation="2"/>
<feComposite in2="hardAlpha" operator="out"/>
<feColorMatrix type="matrix" values="0 0 0 0 0 0 0 0 0 0 0 0 0 0 0 0 0 0 0.25 0"/>
<feBlend mode="normal" in2="BackgroundImageFix" result="effect1_dropShadow_2_425"/>
<feBlend mode="normal" in="SourceGraphic" in2="effect1_dropShadow_2_425" result="shape"/>
</filter>
</defs>
</svg>
