<svg width="33" height="33" viewBox="0 0 33 33" fill="none" xmlns="http://www.w3.org/2000/svg">
<path d="M12.084 13.1225C12.4807 14.5481 11.656 16.0301 10.2676 16.3866L9.53126 16.5755C9.47468 16.9518 9.44531 17.3378 9.44531 17.731C9.44531 18.1426 9.47746 18.5461 9.53933 18.9385L10.2192 19.1084C11.6214 19.4589 12.4549 20.9561 12.0467 22.3912L11.8119 23.2167C12.3654 23.721 12.9961 24.1305 13.6825 24.4217L14.3042 23.7434C15.2979 22.6592 16.9645 22.6594 17.9581 23.744L18.5866 24.4303C19.2716 24.1423 19.9017 23.7367 20.4555 23.2366L20.2058 22.3397C19.8091 20.914 20.6339 19.432 22.0223 19.0756L22.7579 18.8867C22.8146 18.5104 22.8439 18.1244 22.8439 17.731C22.8439 17.3196 22.8117 16.916 22.7498 16.5234L22.0705 16.3537C20.6684 16.0033 19.835 14.5061 20.2432 13.0709L20.4777 12.246C19.9243 11.7415 19.2935 11.332 18.6071 11.0406L17.9857 11.7186C16.9919 12.803 15.3253 12.8027 14.3318 11.718L13.7031 11.0317C13.0181 11.3197 12.388 11.7252 11.8343 12.2252L12.084 13.1225ZM16.1446 19.6926C15.1356 19.6926 14.3176 18.8143 14.3176 17.731C14.3176 16.6479 15.1356 15.7696 16.1446 15.7696C17.1537 15.7696 17.9716 16.6479 17.9716 17.731C17.9716 18.8143 17.1537 19.6926 16.1446 19.6926Z" fill="#6C7086"/>
<path fill-rule="evenodd" clip-rule="evenodd" d="M7.42532 27.1091C6.32075 27.1091 5.42532 26.2137 5.42532 25.1091V10.3511C5.42532 9.24657 6.32075 8.35113 7.42532 8.35113H24.8631C25.9676 8.35113 26.8631 9.24656 26.8631 10.3511V25.1091C26.8631 26.2137 25.9676 27.1091 24.8631 27.1091H7.42532ZM2.74561 5.67142C2.74561 4.19145 3.94535 2.9917 5.42532 2.9917H26.8631C28.3431 2.9917 29.5428 4.19145 29.5428 5.67142V27.1091C29.5428 28.5892 28.3431 29.7889 26.8631 29.7889H5.42532C3.94535 29.7889 2.74561 28.5892 2.74561 27.1091V5.67142Z" fill="#6C7086"/>
</svg>
