<svg width="33" height="33" viewBox="0 0 33 33" fill="none" xmlns="http://www.w3.org/2000/svg">
<path fill-rule="evenodd" clip-rule="evenodd" d="M24.5595 8.94818C24.5581 8.5632 24.4047 8.19436 24.1324 7.92214C23.8602 7.64992 23.4913 7.49642 23.1064 7.49512H7.42914C7.04417 7.49642 6.67533 7.64992 6.40311 7.92214C6.13089 8.19436 5.97739 8.5632 5.97607 8.94818V24.2301C5.97739 24.615 6.13089 24.9839 6.40311 25.256C6.67533 25.5283 7.04417 25.6818 7.42914 25.6832H23.1064C23.4913 25.6818 23.8602 25.5283 24.1324 25.256C24.4047 24.9839 24.5581 24.615 24.5595 24.2301V8.94818Z" fill="#292929" fill-opacity="0.3"/>
<path fill-rule="evenodd" clip-rule="evenodd" d="M24.1655 8.37549C24.1655 8.03729 24.0311 7.71297 23.7919 7.47383C23.5527 7.23469 23.2285 7.10034 22.8903 7.10034H6.85716C6.51898 7.10034 6.19464 7.23469 5.9555 7.47383C5.71638 7.71297 5.58203 8.03729 5.58203 8.37549V24.0131C5.58203 24.3515 5.71638 24.6757 5.9555 24.9149C6.19464 25.154 6.51898 25.2883 6.85716 25.2883H22.8903C23.2285 25.2883 23.5527 25.154 23.7919 24.9149C24.0311 24.6757 24.1655 24.3515 24.1655 24.0131V8.37549Z" fill="url(#paint0_radial_2_431)"/>
<mask id="mask0_2_431" style="mask-type:luminance" maskUnits="userSpaceOnUse" x="5" y="7" width="20" height="19">
<path d="M24.1655 8.37549C24.1655 8.03729 24.0311 7.71297 23.7919 7.47383C23.5527 7.23469 23.2285 7.10034 22.8903 7.10034H6.85716C6.51898 7.10034 6.19464 7.23469 5.9555 7.47383C5.71638 7.71297 5.58203 8.03729 5.58203 8.37549V24.0131C5.58203 24.3515 5.71638 24.6757 5.9555 24.9149C6.19464 25.154 6.51898 25.2883 6.85716 25.2883H22.8903C23.2285 25.2883 23.5527 25.154 23.7919 24.9149C24.0311 24.6757 24.1655 24.3515 24.1655 24.0131V8.37549Z" fill="#CDD6F4"/>
</mask>
<g mask="url(#mask0_2_431)">
<path fill-rule="evenodd" clip-rule="evenodd" d="M5.2168 6.70508H24.5267V9.27511H5.2168V6.70508Z" fill="url(#paint1_linear_2_431)"/>
<path d="M7.26378 8.68111C7.53673 8.68111 7.75801 8.45983 7.75801 8.18686C7.75801 7.9139 7.53673 7.69263 7.26378 7.69263C6.99081 7.69263 6.76953 7.9139 6.76953 8.18686C6.76953 8.45983 6.99081 8.68111 7.26378 8.68111Z" fill="#363152" fill-opacity="0.6"/>
<path d="M8.6478 8.68111C8.92077 8.68111 9.14204 8.45983 9.14204 8.18686C9.14204 7.9139 8.92077 7.69263 8.6478 7.69263C8.37484 7.69263 8.15356 7.9139 8.15356 8.18686C8.15356 8.45983 8.37484 8.68111 8.6478 8.68111Z" fill="#363152" fill-opacity="0.6"/>
<path d="M10.0318 8.68111C10.3048 8.68111 10.5261 8.45983 10.5261 8.18686C10.5261 7.9139 10.3048 7.69263 10.0318 7.69263C9.75887 7.69263 9.5376 7.9139 9.5376 8.18686C9.5376 8.45983 9.75887 8.68111 10.0318 8.68111Z" fill="#363152" fill-opacity="0.6"/>
</g>
<path fill-rule="evenodd" clip-rule="evenodd" d="M5.58203 14.4153H24.1654V19.9508H5.58203V14.4153Z" fill="url(#paint2_linear_2_431)"/>
<path fill-rule="evenodd" clip-rule="evenodd" d="M15.0708 17.1033C15.0708 16.9304 14.9275 16.787 14.7545 16.787H8.66544C8.58155 16.787 8.50109 16.8204 8.44177 16.8797C8.38246 16.9391 8.34912 17.0195 8.34912 17.1033V17.2616C8.34912 17.4346 8.49246 17.5778 8.66544 17.5778H14.7545C14.9275 17.5778 15.0708 17.4346 15.0708 17.2616V17.1033ZM13.0938 15.5218C13.0938 15.3488 12.9505 15.2056 12.7775 15.2056H8.66544C8.58155 15.2056 8.50109 15.2388 8.44177 15.2982C8.38246 15.3575 8.34912 15.4379 8.34912 15.5218V15.68C8.34912 15.853 8.49246 15.9962 8.66544 15.9962H12.7775C12.9505 15.9962 13.0938 15.853 13.0938 15.68V15.5218ZM10.3261 18.6849C10.3261 18.5119 10.1828 18.3686 10.0098 18.3686H8.66544C8.58155 18.3686 8.50109 18.4019 8.44177 18.4613C8.38246 18.5206 8.34912 18.601 8.34912 18.6849V18.8431C8.34912 19.0161 8.49246 19.1594 8.66544 19.1594H10.0098C10.1828 19.1594 10.3261 19.0161 10.3261 18.8431V18.6849ZM15.8616 15.5218C15.8616 15.3488 15.7182 15.2056 15.5453 15.2056H14.2009C14.117 15.2056 14.0366 15.2388 13.9772 15.2982C13.9179 15.3575 13.8847 15.4379 13.8847 15.5218V15.68C13.8847 15.853 14.0279 15.9962 14.2009 15.9962H15.5453C15.7182 15.9962 15.8616 15.853 15.8616 15.68V15.5218Z" fill="#CDD6F4" fill-opacity="0.8"/>
<path fill-rule="evenodd" clip-rule="evenodd" d="M15.0708 11.5673C15.0708 11.3943 14.9275 11.251 14.7545 11.251H8.66544C8.58155 11.251 8.50109 11.2843 8.44177 11.3436C8.38246 11.4029 8.34912 11.4834 8.34912 11.5673V11.7254C8.34912 11.8984 8.49246 12.0418 8.66544 12.0418H14.7545C14.9275 12.0418 15.0708 11.8984 15.0708 11.7254V11.5673ZM11.9077 13.1489C11.9077 12.9759 11.7643 12.8325 11.5913 12.8325H8.66544C8.58155 12.8325 8.50109 12.8659 8.44177 12.9252C8.38246 12.9845 8.34912 13.065 8.34912 13.1489V13.307C8.34912 13.48 8.49246 13.6233 8.66544 13.6233H11.5913C11.7643 13.6233 11.9077 13.48 11.9077 13.307V13.1489ZM14.6754 13.1489C14.6754 12.9759 14.5321 12.8325 14.3591 12.8325H13.0147C12.9308 12.8325 12.8504 12.8659 12.7911 12.9252C12.7318 12.9845 12.6984 13.065 12.6984 13.1489V13.307C12.6984 13.48 12.8418 13.6233 13.0147 13.6233H14.3591C14.5321 13.6233 14.6754 13.48 14.6754 13.307V13.1489ZM17.6408 11.5673C17.6408 11.3943 17.4974 11.251 17.3245 11.251H16.1778C16.0939 11.251 16.0136 11.2843 15.9542 11.3436C15.8948 11.4029 15.8616 11.4834 15.8616 11.5673V11.7254C15.8616 11.8984 16.0048 12.0418 16.1778 12.0418H17.3245C17.4974 12.0418 17.6408 11.8984 17.6408 11.7254V11.5673ZM20.2109 13.1489C20.2109 12.9759 20.0676 12.8325 19.8946 12.8325H15.7824C15.6986 12.8325 15.6182 12.8659 15.5588 12.9252C15.4994 12.9845 15.4662 13.065 15.4662 13.1489V13.307C15.4662 13.48 15.6095 13.6233 15.7824 13.6233H19.8946C20.0676 13.6233 20.2109 13.48 20.2109 13.307V13.1489Z" fill="#CDD6F4" fill-opacity="0.6"/>
<path fill-rule="evenodd" clip-rule="evenodd" d="M7.40032 19.1596C7.48929 19.1596 7.55848 19.0905 7.55848 19.0015V15.3639C7.55848 15.2749 7.48929 15.2058 7.40032 15.2058H7.32124C7.27929 15.2058 7.23907 15.2224 7.20941 15.252C7.17975 15.2818 7.16309 15.322 7.16309 15.3639V19.0015C7.16309 19.0905 7.23228 19.1596 7.32124 19.1596H7.40032Z" fill="#89FF94"/>
<path fill-rule="evenodd" clip-rule="evenodd" d="M8.16683 23.9389C8.07144 23.8871 7.98749 23.8165 7.91993 23.7314C7.85238 23.6463 7.80259 23.5486 7.77355 23.444C7.74451 23.3393 7.73679 23.2299 7.75086 23.1222C7.76492 23.0146 7.8005 22.9107 7.85545 22.8171C8.02843 22.4908 8.40899 22.2338 8.94772 22.2239C9.45679 22.2239 10.3612 22.5007 11.4288 22.8961C12.5655 23.3211 13.8753 23.8847 15.1355 24.2207C15.7287 24.3788 16.3119 24.5025 16.8555 24.5321C17.2954 24.5567 17.7056 24.5123 18.0812 24.4332C18.6618 24.2624 19.1836 23.934 19.5887 23.4843C20.0385 22.99 20.3745 22.3327 20.8243 21.5815C21.0774 21.1657 21.3444 20.7585 21.625 20.3607C21.6302 20.3541 21.6326 20.3457 21.6317 20.3374C21.6308 20.3291 21.6266 20.3214 21.62 20.3162C21.6135 20.311 21.605 20.3086 21.5967 20.3095C21.5884 20.3103 21.5808 20.3146 21.5756 20.3212C21.2888 20.6671 21.0418 21.0032 20.7848 21.3046C20.3399 21.8384 19.9149 22.2783 19.4997 22.654C19.0586 23.0909 18.485 23.3691 17.8687 23.4448C17.4295 23.5177 16.9829 23.536 16.5393 23.4991C15.8202 23.472 15.1036 23.3976 14.3942 23.2766C13.4847 23.1171 12.5813 22.9241 11.6858 22.6985C10.4848 22.3969 9.48644 22.1053 8.94772 22.1399C8.3744 22.1597 7.97901 22.4365 7.79614 22.7825C7.73801 22.8839 7.70081 22.9961 7.68676 23.1122C7.6727 23.2283 7.68208 23.346 7.71435 23.4585C7.7466 23.571 7.80107 23.6758 7.87455 23.7668C7.94803 23.8579 8.03901 23.9332 8.14211 23.9884C8.14569 23.9904 8.1496 23.9916 8.15364 23.992C8.15769 23.9924 8.16178 23.9921 8.16568 23.9909C8.16958 23.9897 8.17321 23.9878 8.17638 23.9853C8.17954 23.9827 8.18217 23.9797 8.18413 23.976C8.18607 23.9724 8.18729 23.9685 8.18773 23.9645C8.18816 23.9605 8.1878 23.9564 8.18665 23.9525C8.18549 23.9486 8.18359 23.945 8.18104 23.9417C8.17849 23.9387 8.17534 23.936 8.17176 23.934L8.16683 23.9389Z" fill="url(#paint3_linear_2_431)"/>
<path fill-rule="evenodd" clip-rule="evenodd" d="M8.14186 24.0022C7.77118 23.8885 7.54877 23.3596 7.72176 22.8802C7.84038 22.5541 8.15669 22.2527 8.74977 22.1389C8.99689 22.0895 9.57515 22.1883 10.3214 22.3663C10.786 22.4749 11.3198 22.6133 11.8734 22.7765C12.9063 23.0681 14.0134 23.4041 15.0068 23.6068C15.5593 23.7265 16.1221 23.7927 16.6872 23.8045C17.1025 23.7896 17.4484 23.7008 17.735 23.5277C18.0464 23.3449 18.2984 23.083 18.4863 22.7567C18.8866 22.045 18.9558 21.0417 19.2375 19.9099C19.3418 19.5183 19.4705 19.1337 19.623 18.7583H19.6131C19.3809 19.1883 19.2079 19.6184 19.0201 20.0186C18.7332 20.6399 18.4047 21.2409 18.0365 21.8176C17.8655 22.0864 17.6459 22.3211 17.3891 22.5096C17.1649 22.6829 16.8955 22.7875 16.6131 22.8111C15.8224 22.9396 14.6856 22.8852 13.5142 22.7517C12.7174 22.6625 11.923 22.5521 11.132 22.4207C9.98537 22.2229 9.06608 22.04 8.73989 22.1093C8.1468 22.2328 7.82555 22.5392 7.70198 22.8753C7.52407 23.3596 7.75636 23.8984 8.13692 24.017L8.14107 24.0206L8.14646 24.0213L8.15144 24.0191L8.15451 24.0147L8.15475 24.0092L8.15207 24.0045L8.14729 24.0018L8.14186 24.0022Z" fill="url(#paint4_linear_2_431)"/>
<path fill-rule="evenodd" clip-rule="evenodd" d="M19.6133 18.3537C19.6133 18.3537 19.89 17.978 21.0712 15.9466C21.1849 15.749 21.3726 15.6007 21.5901 15.5315C22.2031 15.3338 23.3546 14.8742 23.8834 13.9351C24.4766 12.8873 25.04 11.2069 26.2756 9.40295C26.7056 8.76045 28.1438 7.11463 29.152 7.57427C30.1553 8.03885 29.5968 10.0603 28.9246 11.2514C27.9362 13.006 26.3646 14.4936 25.8308 15.6402C25.521 16.3762 25.4552 17.192 25.6429 17.9681C25.6924 18.2004 25.6578 18.4425 25.5343 18.6452C25.0688 19.4679 24.591 20.2835 24.1009 21.0917L19.6133 18.3537ZM27.6644 9.12125C27.8373 8.90377 28.1932 8.60229 28.5145 8.79999C28.811 8.9878 28.6924 9.40789 28.5886 9.67972C28.4601 10.0158 28.0597 10.5446 27.6002 10.2975C27.1603 10.0603 27.4271 9.41778 27.6644 9.12125Z" fill="#371B01" fill-opacity="0.3"/>
<path d="M19.3999 18.3051L19.5334 18.3891C19.5779 18.399 19.6224 18.4237 19.6718 18.4582C19.6966 18.4781 19.7014 18.5077 19.6817 18.5325C19.5828 18.661 19.4839 18.7944 19.3802 18.913C19.2319 19.0711 19.1084 19.2589 18.9749 19.4319C18.8464 19.595 18.7279 19.7631 18.629 19.9311C18.5055 20.1536 18.3374 20.3611 18.2731 20.6082C18.2533 20.6725 18.2286 20.7318 18.2138 20.796C18.199 20.8455 18.1742 20.89 18.1496 20.9344C18.1101 21.0135 18.0853 21.0925 18.0507 21.1717L18.0062 21.3052C17.9309 21.5455 17.8683 21.7897 17.8184 22.0366C17.8014 22.1458 17.7699 22.2522 17.7244 22.3529C17.7097 22.3925 17.6948 22.432 17.6899 22.4666L17.68 22.5802C17.68 22.6198 17.6603 22.6445 17.6307 22.6495L17.6948 23.0597C17.7048 23.109 17.7147 23.109 17.7244 23.0597C17.7492 22.9114 17.7739 22.7483 17.8086 22.5802C17.8558 22.347 17.9134 22.1162 17.9816 21.8883C18.0408 21.6857 18.1397 21.4929 18.2286 21.3052C18.2558 21.2393 18.2925 21.1776 18.3374 21.1223C18.372 21.0778 18.4115 21.0728 18.461 21.0925C18.4707 21.0975 18.4707 21.1074 18.4707 21.1173L18.372 21.5127C18.3374 21.6313 18.3226 21.7598 18.2978 21.8784C18.2682 22.0086 18.2483 22.1407 18.2386 22.2738C18.2573 22.2909 18.279 22.3043 18.3027 22.3134V22.2936L18.3126 22.2886C18.3176 22.2886 18.3226 22.2837 18.3226 22.2738C18.3621 22.1107 18.4165 21.9526 18.4411 21.7796C18.5395 21.1337 18.7327 20.5058 19.0145 19.9163C19.049 19.8916 19.054 19.8372 19.0788 19.8027C19.263 19.4871 19.4643 19.1819 19.6817 18.8883C19.7472 18.8037 19.8067 18.7144 19.8596 18.6214C19.8646 18.6115 19.8793 18.6066 19.8942 18.6066C19.9337 18.6214 19.9782 18.6461 20.0277 18.6856L20.1611 18.7598C20.171 18.7696 20.176 18.7795 20.171 18.7895L20.092 18.9575L19.9041 19.3183C19.8744 19.3874 19.8349 19.4517 19.8003 19.5159L19.4198 20.2177L19.2764 20.4946C19.2173 20.6307 19.1597 20.7675 19.1034 20.9048C19.0689 20.9839 19.054 21.0679 19.0045 21.142C18.9601 21.226 18.9205 21.315 18.886 21.399L18.7031 21.8388C18.6636 21.9377 18.6141 22.0217 18.5845 22.1256C18.5131 22.307 18.4504 22.4918 18.3967 22.6791C18.372 22.7384 18.3571 22.8026 18.3522 22.8669C18.3522 22.8768 18.3522 22.8818 18.3423 22.8916L18.3275 22.9311L18.3226 22.9559L18.2336 23.1042C18.2294 23.1105 18.2231 23.1151 18.2158 23.1169C18.2084 23.1188 18.2006 23.1177 18.1941 23.114C18.1643 23.0893 18.1595 23.0645 18.1742 23.03L18.1792 23.0053L18.1693 22.9559C18.1347 23.2524 18.0902 23.5143 18.0457 23.7367C17.9816 24.0777 17.8481 24.3941 17.6553 24.6955V24.7253C17.6553 24.7351 17.6603 24.74 17.6702 24.74C17.8184 24.7154 17.9469 24.6759 18.0557 24.6215C18.2682 24.5078 18.4906 24.4189 18.6389 24.3249C19.4428 23.7984 20.1598 23.1496 20.7641 22.4024C20.8284 22.3232 20.8975 22.2541 20.9618 22.1701C21.2574 21.7709 21.5217 21.3495 21.7526 20.9098C21.8921 20.615 22.0239 20.3168 22.148 20.0152C22.1627 19.9657 22.148 19.8966 22.1826 19.8521C22.2023 19.8273 22.2171 19.8076 22.2171 19.7977C22.0689 19.7087 21.9157 19.6247 21.7673 19.5308C21.456 19.333 21.1793 19.165 20.937 19.0218C20.8006 18.9442 20.6672 18.8618 20.5367 18.7746L19.5631 18.1766C19.5603 18.1742 19.5568 18.1729 19.5532 18.1729C19.5496 18.1729 19.546 18.1742 19.5433 18.1766L19.3999 18.3051ZM20.8333 19.1453L20.937 19.2244L20.9519 19.2293C20.9717 19.2293 20.9815 19.2244 20.9914 19.2095C20.9932 19.2048 20.9961 19.2007 21 19.1973C21.0039 19.1941 21.0084 19.1918 21.0134 19.1909C21.0184 19.1898 21.0234 19.1902 21.0283 19.1917C21.0331 19.1933 21.0374 19.196 21.0409 19.1996L21.1397 19.2689C21.1644 19.2837 21.1842 19.3034 21.1892 19.3282L21.2089 19.3529C21.2782 19.422 21.3719 19.4665 21.456 19.5209C21.5401 19.5802 21.6388 19.6247 21.7278 19.6889C21.7377 19.6988 21.7427 19.7137 21.7328 19.7284C21.6655 19.8415 21.6092 19.9606 21.5647 20.0843C21.5647 20.1091 21.5647 20.114 21.5894 20.0992C21.6162 20.0737 21.638 20.0436 21.6537 20.0102C21.7032 19.9163 21.7526 19.8619 21.802 19.7681C21.8118 19.7433 21.8316 19.7383 21.8513 19.7532L22.0293 19.8668C22.0392 19.8767 22.0442 19.8916 22.0442 19.9064C21.9509 20.1664 21.8351 20.4178 21.6982 20.6576L21.4263 21.1025C21.1218 21.6022 20.7602 22.065 20.349 22.4814C20.0696 22.7766 19.7462 23.0268 19.3902 23.2228C19.2402 23.3099 19.0764 23.3702 18.9058 23.4007C18.9018 23.4027 18.8972 23.4034 18.8928 23.4025C18.8884 23.4016 18.8844 23.3992 18.8815 23.3958C18.8786 23.3923 18.877 23.388 18.8769 23.3834C18.8769 23.379 18.8783 23.3746 18.881 23.371C18.9563 23.1528 19.0421 22.9385 19.138 22.7285C19.1529 22.6691 19.1874 22.6149 19.2122 22.5555V22.5259L19.222 22.511L19.2418 22.4913L19.3407 22.2145L19.5878 21.5918L19.7459 21.2458C19.7448 21.1906 19.7622 21.1368 19.7953 21.0925L19.8003 21.0629C19.8003 21.0383 19.8102 21.0135 19.8251 20.9987C19.8349 20.9938 19.8349 20.9839 19.8349 20.9789C19.8349 20.9493 19.8448 20.9295 19.8596 20.9048C19.8992 20.8356 19.8893 20.7664 19.83 20.7071C19.8152 20.6874 19.7953 20.6824 19.7756 20.6824C19.7508 20.6824 19.7361 20.6874 19.7262 20.7071C19.7262 20.717 19.7163 20.7219 19.7113 20.7219C19.7014 20.7318 19.6916 20.7416 19.6916 20.7565L19.6867 20.7714L19.5383 20.9591L19.4297 21.1173L19.4198 21.1223H19.4099V21.1124C19.4495 21.0431 19.4826 20.9703 19.5087 20.8949C19.5654 20.779 19.6198 20.662 19.6718 20.544L19.7856 20.3117L19.9091 20.0843C20.1413 19.7038 20.3934 19.338 20.6701 18.9821C20.68 18.9674 20.685 18.9674 20.6949 18.9821C20.7048 18.9871 20.7097 19.002 20.7048 19.0119C20.7048 19.0365 20.7048 19.0514 20.7196 19.0711C20.7344 19.0909 20.769 19.1156 20.8333 19.1404V19.1453ZM19.3999 18.3051L19.0045 18.7202C18.4524 19.319 18.0405 20.0331 17.7987 20.8109C17.8344 20.784 17.8646 20.7505 17.8876 20.712C17.9024 20.6874 17.9173 20.6626 17.9371 20.6527C17.9616 20.6327 17.9863 20.613 18.0112 20.5934C18.0211 20.5687 18.0358 20.5539 18.0557 20.544L18.0754 20.5242C18.1248 20.4402 18.1496 20.3462 18.1941 20.2573C18.367 19.9311 18.5499 19.6297 18.7525 19.343C18.8365 19.2244 18.9354 19.1156 19.0244 18.997C19.1978 18.7958 19.3674 18.5914 19.5334 18.3841L19.3999 18.3051ZM19.5334 18.3891C19.3674 18.5964 19.1978 18.8007 19.0244 19.002C18.9354 19.1156 18.8365 19.2244 18.7525 19.3479C18.5549 19.6297 18.367 19.9311 18.1941 20.2573C18.1446 20.3462 18.1248 20.4402 18.0754 20.5242L18.0557 20.544C18.0358 20.5539 18.0211 20.5687 18.0062 20.5934C17.9813 20.6146 17.9566 20.636 17.9321 20.6576L17.8827 20.712C17.8611 20.7499 17.8326 20.7836 17.7987 20.8109C17.6901 21.1266 17.6269 21.456 17.6108 21.7894C17.596 22.0662 17.6059 22.3529 17.6356 22.6495C17.6603 22.6445 17.6751 22.6198 17.68 22.5802C17.68 22.5407 17.68 22.5011 17.6899 22.4666C17.6948 22.432 17.7097 22.3925 17.7244 22.3529C17.7699 22.2522 17.8014 22.1458 17.8184 22.0366C17.8796 21.7437 17.9588 21.4548 18.0557 21.1717C18.0853 21.0925 18.1051 21.0135 18.1496 20.9344C18.1742 20.885 18.199 20.8504 18.2138 20.796C18.2286 20.7318 18.2533 20.6725 18.2731 20.6082C18.3374 20.3611 18.5055 20.1536 18.6339 19.9311C18.7328 19.7631 18.8464 19.595 18.9749 19.4369C19.1084 19.2639 19.2319 19.0711 19.3802 18.913C19.4889 18.7944 19.5828 18.661 19.6817 18.5325C19.7014 18.5077 19.6966 18.4781 19.6718 18.4632C19.6224 18.4237 19.5729 18.399 19.5334 18.3891ZM19.0738 19.8027L19.054 19.8767V19.8867C19.054 19.8966 19.0639 19.9064 19.0788 19.9064H19.0837L19.1084 19.8817L19.2073 19.7582L19.3654 19.5604C19.5137 19.3529 19.6718 19.1503 19.8448 18.9575C19.9189 18.8735 19.9782 18.7845 20.0227 18.6856C19.9733 18.6461 19.9238 18.6214 19.8893 18.6066C19.8745 18.6066 19.8596 18.6066 19.8547 18.6214C19.802 18.7146 19.7425 18.8038 19.6768 18.8883L19.5187 19.1108C19.3604 19.333 19.2171 19.5654 19.0788 19.8027H19.0738ZM20.0227 18.6856C19.9733 18.7845 19.9189 18.8735 19.8448 18.9575C19.6718 19.1552 19.5137 19.3529 19.3654 19.5604L19.2073 19.7582C19.1655 19.8086 19.1226 19.858 19.0788 19.9064C19.0748 19.9085 19.0702 19.9092 19.0658 19.9082C19.0614 19.9073 19.0573 19.905 19.0545 19.9015C19.0516 19.8981 19.05 19.8938 19.0498 19.8892C19.0498 19.8847 19.0513 19.8804 19.054 19.8767L19.0738 19.8027C19.0441 19.8372 19.0441 19.8916 19.0095 19.9163L18.9948 19.9361C18.721 20.5219 18.5345 21.1447 18.4411 21.7846C18.4115 21.9526 18.3571 22.1107 18.3176 22.2787L18.3077 22.2886H18.2978V22.3134C18.2781 22.3085 18.2582 22.2936 18.2336 22.2738L18.1643 22.9559L18.1742 23.0053V23.03C18.1545 23.0645 18.1595 23.0893 18.1891 23.114C18.1951 23.1183 18.2025 23.1201 18.2099 23.1192C18.2171 23.1183 18.2238 23.1147 18.2286 23.109L18.3176 22.9559L18.3226 22.9311C18.3226 22.9164 18.3325 22.9015 18.3374 22.8916L18.3472 22.8669C18.3522 22.8026 18.367 22.7384 18.3917 22.6791C18.435 22.559 18.4778 22.4387 18.5202 22.3182C18.5424 22.2531 18.5623 22.1872 18.5795 22.1206C18.6092 22.0217 18.6586 21.9377 18.6981 21.8388C18.7575 21.6906 18.8217 21.5522 18.881 21.3941C18.9156 21.315 18.9551 21.226 19.0045 21.142C19.0441 21.0679 19.0639 20.9839 19.0985 20.9048C19.1547 20.7675 19.2124 20.6307 19.2714 20.4946C19.311 20.3957 19.3703 20.3117 19.4198 20.2177C19.5729 19.9144 19.7328 19.6145 19.8992 19.3183L20.087 18.9575L20.1661 18.7895C20.171 18.7795 20.1661 18.7696 20.1562 18.7598L20.0227 18.6856ZM19.5284 20.9591C19.7052 20.6642 19.8848 20.3709 20.0672 20.0793C20.1512 19.9508 20.2797 19.7828 20.4626 19.5802C20.5021 19.5308 20.5319 19.4764 20.5664 19.422L20.6652 19.3183C20.7245 19.2689 20.7789 19.2095 20.8284 19.1404C20.764 19.1156 20.7295 19.0909 20.7146 19.0711C20.6999 19.0514 20.6999 19.0365 20.6999 19.0119C20.6999 19.002 20.6999 18.9871 20.69 18.9773C20.68 18.9674 20.6751 18.9674 20.6652 18.9773C20.3404 19.4015 20.0448 19.8473 19.7806 20.3117C19.7183 20.4469 19.6524 20.5803 19.5828 20.712C19.5267 20.8484 19.4673 20.9836 19.4049 21.1173L19.4148 21.1223H19.4247L19.5334 20.9591H19.5284ZM20.8284 19.1404C20.7789 19.2095 20.7295 19.2689 20.6701 19.3183C20.6207 19.3578 20.5911 19.3924 20.5714 19.422C20.5319 19.4714 20.5021 19.5308 20.4576 19.5802C20.3168 19.7363 20.1864 19.9014 20.0672 20.0745L19.5927 20.8356C19.568 20.8701 19.5483 20.9146 19.5334 20.9591L19.6817 20.7714L19.6867 20.7565C19.6867 20.7416 19.6966 20.7318 19.7064 20.7219C19.7163 20.7219 19.7212 20.712 19.7212 20.7071C19.7312 20.6874 19.7459 20.6824 19.7707 20.6824C19.7904 20.6824 19.8102 20.6874 19.8201 20.7021C19.8843 20.7664 19.8942 20.8356 19.8547 20.8999C19.8398 20.9245 19.8349 20.9493 19.83 20.9789C19.83 20.9839 19.83 20.9938 19.8201 20.9987C19.8052 21.0135 19.8003 21.0383 19.7953 21.0629C19.7953 21.0728 19.7953 21.0828 19.7856 21.0925C19.7558 21.142 19.7361 21.1914 19.7411 21.2508C19.8406 21.0691 19.9313 20.8827 20.0128 20.6922C20.0551 20.6162 20.0947 20.5388 20.1315 20.46C20.2725 20.1928 20.431 19.9353 20.6059 19.6889C20.7097 19.5407 20.8333 19.4023 20.9469 19.254C20.9569 19.2392 20.9815 19.2343 20.9964 19.2441L21.1495 19.338C21.1694 19.3479 21.1694 19.3628 21.1545 19.3775C20.8925 19.6593 20.6603 19.9657 20.4429 20.292L20.1462 20.7367C20.0128 20.9543 19.914 21.1914 19.7904 21.4138C19.6521 21.6609 19.5582 21.8982 19.4346 22.1403C19.4346 22.1552 19.4198 22.1651 19.4099 22.175C19.3999 22.1848 19.395 22.1997 19.3902 22.2195L19.3802 22.2441C19.3703 22.259 19.3654 22.2541 19.3604 22.2441C19.3604 22.2195 19.3505 22.2096 19.3407 22.2096L19.2418 22.4864L19.222 22.5061L19.2171 22.521V22.5506C19.1874 22.6099 19.1529 22.6643 19.138 22.7235L19.1084 22.8076C19.0244 22.9954 18.9485 23.1866 18.881 23.3809C18.881 23.3908 18.8959 23.3958 18.9058 23.3958C19.0764 23.3652 19.2402 23.3049 19.3902 23.2178C19.568 23.1189 19.7163 23.0201 19.8448 22.9213C20.0177 22.7879 20.2056 22.6445 20.349 22.4765C20.4477 22.3579 20.5466 22.2441 20.6504 22.1355C21.0561 21.6848 21.4062 21.187 21.6932 20.6527C21.8302 20.4128 21.9459 20.1615 22.0392 19.9015C22.0442 19.8867 22.0392 19.8718 22.0293 19.8619L21.8563 19.7483C21.8316 19.7334 21.8118 19.7383 21.7971 19.7631C21.7476 19.8521 21.6982 19.9113 21.6537 20.0052C21.638 20.0386 21.6162 20.0689 21.5894 20.0942C21.5697 20.1091 21.5598 20.1041 21.5647 20.0793L21.5796 20.0152C21.6241 19.9163 21.6784 19.8174 21.7328 19.7186C21.7427 19.7087 21.7377 19.6939 21.7278 19.6839C21.6388 19.6198 21.5401 19.5753 21.4511 19.5159C21.3719 19.4617 21.2782 19.4172 21.2089 19.3479L21.194 19.3233C21.1842 19.2985 21.1644 19.2738 21.1397 19.2639L21.0409 19.1948C21.0374 19.191 21.0331 19.1883 21.0283 19.1867C21.0234 19.1852 21.0184 19.1848 21.0134 19.1859C21.0084 19.1869 21.0039 19.1891 21 19.1924C20.9961 19.1957 20.9932 19.1999 20.9914 19.2045C20.9815 19.2194 20.9717 19.2293 20.9519 19.2244L20.937 19.2194L20.8333 19.1354L20.8284 19.1404ZM19.7411 21.2508C19.6831 21.3636 19.6303 21.4791 19.5828 21.5967L19.3358 22.2145C19.3457 22.2145 19.3505 22.2244 19.3555 22.2441C19.3555 22.259 19.3654 22.264 19.3753 22.2491L19.3852 22.2244C19.3852 22.2046 19.395 22.1897 19.4049 22.18L19.4297 22.1453C19.5532 21.9032 19.6471 21.6609 19.7856 21.4188C19.9091 21.1964 20.0078 20.9591 20.1462 20.7466L20.4379 20.2968C20.6504 19.9707 20.8876 19.6642 21.1495 19.3825C21.1644 19.3677 21.1644 19.3529 21.1495 19.343L20.9964 19.249C20.9878 19.2433 20.9774 19.2411 20.9672 19.243C20.957 19.2447 20.948 19.2505 20.942 19.2589C20.8284 19.4073 20.7048 19.5457 20.601 19.6939C20.3431 20.0499 20.1212 20.4306 19.9387 20.8306C19.8799 20.9738 19.8138 21.1141 19.7411 21.2508ZM22.2122 19.7977C22.2122 19.8076 22.1974 19.8273 22.1776 19.8521C22.143 19.8966 22.1578 19.9608 22.1381 20.0152C22.014 20.3168 21.8822 20.615 21.7427 20.9098C21.5231 21.3558 21.2581 21.7783 20.9519 22.1701C20.8925 22.2541 20.8234 22.3232 20.7591 22.4072C20.1545 23.1528 19.4375 23.7999 18.6339 24.3249C18.4856 24.4189 18.2632 24.5078 18.0507 24.6215C17.942 24.6759 17.8134 24.7203 17.6652 24.74C17.6553 24.74 17.6504 24.74 17.6504 24.7253V24.6955L17.6009 24.7845L17.596 24.7895C17.5943 24.7923 17.5934 24.7955 17.5933 24.7989C17.5931 24.8021 17.5939 24.8054 17.5954 24.8084C17.5969 24.8113 17.599 24.8139 17.6017 24.8157C17.6044 24.8176 17.6076 24.8188 17.6108 24.8191C17.9173 24.8488 18.2237 24.7698 18.5152 24.7104C18.6735 24.6759 18.8266 24.6314 18.9749 24.577C19.3505 24.4386 19.7212 24.2755 20.092 24.0877C20.3143 23.974 20.5319 23.8406 20.7344 23.6923C20.7839 23.6527 20.8431 23.6281 20.8828 23.5886C20.9321 23.5489 20.9914 23.5292 21.0409 23.4996C21.0655 23.4897 21.0903 23.4946 21.1199 23.4897C21.1249 23.4885 21.1301 23.489 21.1349 23.491C21.1396 23.4929 21.1436 23.4964 21.1463 23.5007C21.149 23.505 21.1503 23.51 21.1501 23.5151C21.1497 23.5204 21.1478 23.5252 21.1447 23.5292C20.9977 23.763 20.8142 23.9716 20.601 24.147C20.5812 24.1618 20.5812 24.1667 20.6109 24.1569C21.5414 23.7992 22.346 23.1752 22.9239 22.3627C23.2862 21.871 23.5697 21.3257 23.7641 20.7466C23.7641 20.7367 23.7641 20.7219 23.7493 20.712L22.746 20.114C22.8152 20.1881 22.7708 20.2622 22.8152 20.3413C22.8399 20.3512 22.8645 20.3661 22.8794 20.3907H22.8992C22.9041 20.3858 22.914 20.3907 22.9189 20.3907C22.993 20.4479 23.0768 20.4913 23.1661 20.5192C23.1759 20.5192 23.1858 20.5242 23.1908 20.5341C23.2105 20.5637 23.2402 20.5736 23.2649 20.5934C23.3292 20.6527 23.4132 20.6922 23.4972 20.7219C23.5318 20.7318 23.5467 20.7515 23.5268 20.7812C23.3354 21.31 23.0563 21.8029 22.7015 22.2392C22.5032 22.4887 22.2702 22.7084 22.0096 22.8916C21.9701 22.9213 21.9601 22.9164 21.9997 22.8719C22.1182 22.7335 22.2122 22.6 22.321 22.4221L22.5087 22.1355C22.6007 22.0047 22.6834 21.8676 22.7559 21.7252C22.8506 21.537 22.9429 21.3475 23.0327 21.1569L23.0673 21.0728L23.1167 20.969C23.1562 20.8701 23.171 20.7714 23.2106 20.6725C23.2204 20.6478 23.2204 20.6231 23.2204 20.5934C23.2204 20.5786 23.2155 20.5736 23.2007 20.5885C23.2007 20.5934 23.1958 20.5984 23.2007 20.6082L23.1908 20.628C23.0631 20.948 22.9007 21.2529 22.7064 21.5374C22.6839 21.569 22.6554 21.5959 22.6224 21.6164C22.5655 21.6482 22.5178 21.6941 22.484 21.7499L22.2616 22.1453C22.0952 22.4094 21.9049 22.6575 21.6932 22.8866C21.5548 23.03 21.4115 23.1634 21.2633 23.287L21.115 23.4254C21.11 23.4353 21.1002 23.4402 21.0903 23.4402H21.031C21.0161 23.4402 21.0063 23.4402 21.0013 23.4204L20.9865 23.4057L20.9223 23.3809L20.8728 23.3314C20.8481 23.2919 20.8184 23.2722 20.7839 23.2772C20.618 23.3793 20.4445 23.4685 20.265 23.5441C20.586 23.2024 20.8833 22.839 21.1545 22.4566C21.3177 22.1997 21.5004 21.8833 21.7081 21.5127C21.8069 21.3348 21.9157 21.0975 22.0293 20.89C22.1472 20.6666 22.2496 20.4353 22.3357 20.198C22.3357 20.1585 22.3357 20.119 22.3605 20.0843C22.3605 20.0745 22.3704 20.0696 22.3802 20.0745H22.405C22.4149 20.0793 22.4247 20.0745 22.4296 20.0646L22.4692 19.9459L22.2221 19.7977H22.2122ZM22.4643 19.9459L22.4247 20.0646C22.4198 20.0793 22.4099 20.0793 22.4 20.0793L22.3754 20.0745C22.3654 20.0745 22.3605 20.0745 22.3555 20.0843C22.3357 20.119 22.3259 20.1585 22.3309 20.198L22.3605 20.1486C22.364 20.1418 22.3689 20.1357 22.3751 20.1309C22.3811 20.1262 22.3881 20.1227 22.3956 20.1209C22.4031 20.119 22.4109 20.1187 22.4184 20.1201C22.426 20.1215 22.4332 20.1245 22.4395 20.1288L22.5087 20.1782L22.8152 20.3413C22.7658 20.2672 22.8152 20.1881 22.746 20.114L22.4643 19.9459ZM22.3357 20.198C22.2496 20.4353 22.1472 20.6666 22.0293 20.89C21.9157 21.0975 21.8069 21.3348 21.7081 21.5127C21.5342 21.8344 21.3478 22.1493 21.1495 22.4566C21.1249 22.5011 21.0557 22.5901 20.9519 22.7285C20.9519 22.7533 20.9717 22.7581 21.0013 22.7533C21.0161 22.7533 21.026 22.7434 21.0359 22.7335C21.1249 22.6445 21.2039 22.5506 21.2633 22.4517L21.4115 22.2244L21.6735 21.8537C21.7131 21.7944 21.7526 21.7302 21.7822 21.6561C21.8316 21.5504 21.8878 21.448 21.9502 21.3497L21.9848 21.2754C22.1331 20.9493 22.3011 20.633 22.489 20.3315C22.5039 20.3083 22.5138 20.2822 22.5181 20.255C22.5223 20.2278 22.5209 20.1999 22.5136 20.1733L22.4445 20.1288C22.4149 20.114 22.3802 20.119 22.3654 20.1486L22.3357 20.198ZM22.5136 20.1733C22.5209 20.1999 22.5223 20.2278 22.5181 20.255C22.5138 20.2822 22.5039 20.3083 22.489 20.3315C22.2763 20.6821 22.0849 21.0452 21.9157 21.4188C21.8662 21.5028 21.8168 21.5819 21.7822 21.6609C21.7526 21.7302 21.7131 21.7944 21.6735 21.8537C21.5382 22.0524 21.4016 22.2502 21.2633 22.4469C21.2004 22.552 21.1241 22.6484 21.0359 22.7335L21.0013 22.7533C20.9717 22.7581 20.9519 22.7533 20.9519 22.7285C20.739 23.0136 20.5114 23.2875 20.2698 23.5489C20.4992 23.4456 20.7177 23.3198 20.9223 23.1733C21.0606 23.0745 21.1892 22.9559 21.3177 22.8423C21.401 22.7727 21.4787 22.6968 21.5499 22.6149C21.969 22.177 22.3069 21.6683 22.5483 21.1124C22.5743 21.0586 22.6023 21.0058 22.6323 20.9543C22.6755 20.8786 22.7119 20.7991 22.741 20.717L22.7509 20.7021L22.7805 20.628C22.8201 20.5589 22.8399 20.4797 22.8449 20.4056C22.8449 20.3809 22.83 20.3562 22.8201 20.3413L22.5136 20.1733ZM22.8201 20.3413C22.83 20.3611 22.8498 20.3809 22.8449 20.4056C22.8449 20.4846 22.8201 20.5539 22.7805 20.628C22.7685 20.6517 22.7586 20.6766 22.7509 20.7021L22.741 20.717L22.7263 20.7367C22.6965 20.8208 22.6669 20.89 22.6323 20.9543C22.3262 21.6647 21.8808 22.3066 21.3226 22.8423C21.1892 22.9559 21.0606 23.0745 20.9223 23.1733L20.7839 23.2772C20.8184 23.2772 20.8481 23.2919 20.8778 23.3364L20.9223 23.3809L20.9865 23.4057L21.0013 23.4204C21.0013 23.4353 21.0161 23.4452 21.031 23.4452L21.0903 23.4402C21.1002 23.4402 21.11 23.4353 21.115 23.4254L21.2633 23.287C21.4115 23.1634 21.5598 23.03 21.6932 22.8916C22.0073 22.5504 22.2733 22.1679 22.484 21.7548C22.5087 21.7054 22.5532 21.6561 22.6224 21.6164C22.6554 21.5959 22.6839 21.569 22.7064 21.5374C22.9068 21.2409 23.0725 20.9225 23.2007 20.5885C23.2155 20.5736 23.2204 20.5786 23.2204 20.5934C23.2204 20.6231 23.2204 20.6429 23.2106 20.6725C23.171 20.7714 23.1562 20.8701 23.1118 20.969C23.0825 21.0304 23.0561 21.0931 23.0327 21.1569L23.0079 21.2162L22.9833 21.2754L22.7608 21.7203C22.6869 21.8646 22.6026 22.0032 22.5087 22.1355C22.4428 22.2287 22.3801 22.3243 22.321 22.4221C22.2249 22.5796 22.1176 22.73 21.9997 22.8719C21.9651 22.9164 21.9701 22.9213 22.0145 22.8916C22.2734 22.708 22.5048 22.4883 22.7015 22.2392C23.0563 21.8029 23.3354 21.31 23.5268 20.7812C23.5417 20.7515 23.5318 20.7318 23.4972 20.7219C23.4111 20.6971 23.3316 20.6532 23.2649 20.5934C23.2402 20.5736 23.2155 20.5637 23.1958 20.5341C23.1879 20.5259 23.1774 20.5207 23.1661 20.5192C23.0768 20.4913 22.993 20.4479 22.9189 20.3907C22.9159 20.3894 22.9125 20.3887 22.909 20.3887C22.9057 20.3887 22.9023 20.3894 22.8992 20.3907H22.8893C22.8695 20.3661 22.8448 20.3512 22.8201 20.3413Z" fill="#292929" fill-opacity="0.6"/>
<path d="M19.3962 18.0237C19.3962 18.0237 18.2348 19.0961 17.8394 20.1488C17.5626 20.8902 17.3945 21.3745 17.4934 22.5015L17.5526 22.9067C17.5626 22.9611 17.5675 22.9611 17.5774 22.9067L17.6664 22.4322C17.7059 22.1901 17.7751 21.9677 17.8394 21.7403C17.8938 21.5328 17.9877 21.3449 18.0815 21.1521C18.1112 21.0879 18.1508 21.0286 18.1903 20.9692C18.2248 20.9297 18.2644 20.9199 18.3138 20.9446C18.3237 20.9446 18.3287 20.9545 18.3237 20.9644L18.2248 21.3598C18.1903 21.4833 18.1754 21.6069 18.1557 21.7254C18.1244 21.8554 18.1029 21.9877 18.0914 22.1208C18.1162 22.1456 18.0272 22.803 18.0272 22.803C17.9947 23.0645 17.9534 23.325 17.9035 23.5838C17.8344 23.9298 17.7059 24.2461 17.5082 24.5426V24.5772C17.5082 24.5871 17.5181 24.5921 17.528 24.5871C17.6763 24.5673 17.8048 24.5278 17.9085 24.4685C18.126 24.3548 18.3484 24.2708 18.4967 24.1719C19.3004 23.6468 20.0173 22.9999 20.622 22.2543L20.8147 22.022C21.0025 21.7551 21.1606 21.5328 21.2694 21.3548C21.4176 21.1076 21.5363 20.91 21.6054 20.7617C21.7451 20.4653 21.8769 20.1654 22.0008 19.8622C22.0157 19.8128 22.0008 19.7485 22.0354 19.704L22.0749 19.6448C21.9267 19.5558 21.7685 19.4718 21.6203 19.3779C21.3139 19.1801 21.0371 19.0121 20.79 18.8687C20.6417 18.7847 20.5132 18.7057 20.3946 18.6266L19.411 18.0237H19.3913H19.3962Z" fill="url(#paint5_linear_2_431)"/>
<path d="M22.0741 19.6436C22.0741 19.6583 22.0592 19.6732 22.0344 19.7028C21.9999 19.7473 22.0197 19.8116 21.9999 19.861L21.9208 20.0636C21.8214 20.2969 21.716 20.5276 21.6045 20.7555C21.5353 20.9088 21.4216 21.1064 21.2684 21.3487C21.1547 21.5315 21.0015 21.7538 20.8137 22.0207C20.7495 22.0999 20.6803 22.1691 20.6161 22.2531C20.0114 22.9987 19.2944 23.6456 18.4908 24.1707C18.3426 24.2695 18.125 24.3536 17.9075 24.4673C17.8038 24.5265 17.6754 24.5661 17.527 24.5859C17.5171 24.5859 17.5122 24.5859 17.5122 24.576V24.5414L17.4579 24.6353C17.4561 24.6381 17.4552 24.6414 17.4551 24.6447C17.4551 24.6479 17.4557 24.6513 17.4572 24.6541C17.4587 24.657 17.4608 24.6596 17.4635 24.6615C17.4663 24.6635 17.4694 24.6645 17.4726 24.6649C17.7741 24.6946 18.0807 24.6205 18.3772 24.5563C18.5303 24.5265 18.6836 24.4821 18.8367 24.4228C19.2124 24.2844 19.5781 24.1262 19.9488 23.9385C20.1712 23.8247 20.3887 23.6913 20.5962 23.5381C20.6457 23.5036 20.705 23.4738 20.7446 23.4392C20.789 23.3997 20.8434 23.3751 20.8977 23.3503C20.9275 23.3354 20.9472 23.3404 20.9817 23.3354C20.9868 23.3343 20.992 23.3347 20.9967 23.3367C21.0014 23.3388 21.0054 23.3421 21.0081 23.3465C21.0108 23.3508 21.0121 23.3559 21.0119 23.361C21.0116 23.3661 21.0097 23.371 21.0065 23.3751C20.8597 23.6087 20.6761 23.8173 20.4628 23.9927C21.3952 23.6409 22.2031 23.022 22.7857 22.2135C23.1465 21.7391 23.4184 21.1707 23.621 20.5974C23.6259 20.5825 23.621 20.5677 23.6062 20.5628L22.0741 19.6436Z" fill="url(#paint6_linear_2_431)"/>
<path d="M19.2575 18.1565L18.8621 18.5716C18.3184 19.1647 17.8785 19.8912 17.6511 20.6623C17.6869 20.6354 17.7172 20.6017 17.7401 20.5634C17.755 20.5337 17.7747 20.514 17.7895 20.5041C17.814 20.4824 17.8387 20.4609 17.8636 20.4399C17.8735 20.4201 17.8884 20.4052 17.9131 20.3904L17.9279 20.3706C17.9774 20.2866 18.002 20.1927 18.0465 20.1037C18.2195 19.7825 18.4073 19.4761 18.605 19.1943L18.8768 18.8484L19.0746 18.6012L19.386 18.2355L19.2575 18.1565Z" fill="#FEF8FE" fill-opacity="0.9"/>
<path d="M18.936 19.6531L18.9113 19.7272V19.7322C18.9109 19.7359 18.9114 19.7397 18.9129 19.743C18.9143 19.7465 18.9169 19.7493 18.92 19.7515C18.9231 19.7535 18.9267 19.7547 18.9304 19.7547C18.934 19.7548 18.9378 19.7539 18.941 19.752C18.9832 19.7035 19.0245 19.6541 19.0645 19.6037L19.2276 19.4061C19.3759 19.1984 19.534 19.0007 19.702 18.8079C19.7736 18.725 19.835 18.6336 19.8849 18.5362C19.8355 18.4966 19.7862 18.4669 19.7465 18.457C19.7318 18.457 19.7169 18.457 19.712 18.4719C19.6593 18.5652 19.6 18.6544 19.534 18.7388L19.371 18.9563C19.2177 19.1836 19.0745 19.416 18.936 19.6482V19.6531Z" fill="#CDD6F4" fill-opacity="0.7"/>
<path d="M19.3904 20.8052C19.4051 20.7607 19.4249 20.7212 19.4496 20.6817L19.929 19.9254C20.013 19.797 20.1416 19.6289 20.3196 19.4312C20.3591 19.3817 20.3887 19.3225 20.4233 19.2731C20.4538 19.2331 20.4887 19.1967 20.5271 19.1643C20.5871 19.1139 20.6403 19.0557 20.6852 18.9913C20.626 18.9617 20.5863 18.9419 20.5716 18.9172C20.5617 18.9023 20.5567 18.8826 20.5617 18.8628C20.5617 18.8479 20.5617 18.8382 20.5518 18.8282C20.5419 18.8183 20.5321 18.8183 20.5222 18.8282C20.199 19.2526 19.9052 19.6985 19.6424 20.1626C19.58 20.2978 19.514 20.4312 19.4446 20.563C19.3885 20.6993 19.3291 20.8345 19.2668 20.9683H19.2865L19.3904 20.8052Z" fill="#CDD6F4" fill-opacity="0.6"/>
<path d="M19.5982 21.0969C19.5402 21.2097 19.4874 21.325 19.4399 21.4428L19.1929 22.0656C19.2028 22.0656 19.2126 22.0754 19.2175 22.0952C19.2175 22.1099 19.2225 22.1099 19.2324 22.0952L19.2423 22.0704C19.2423 22.0557 19.2522 22.0408 19.267 22.0309L19.2918 21.9914C19.4103 21.7542 19.5043 21.512 19.6427 21.2698C19.7712 21.0425 19.8699 20.8101 20.0034 20.5927L20.3 20.1478C20.5117 19.8225 20.7498 19.515 21.0116 19.2286C21.0265 19.2137 21.0215 19.199 21.0068 19.189L20.8584 19.1001C20.854 19.0965 20.8489 19.0938 20.8434 19.0922C20.8379 19.0907 20.8322 19.0904 20.8266 19.0914C20.8209 19.0923 20.8156 19.0945 20.8108 19.0977C20.8061 19.1009 20.802 19.105 20.7991 19.11C20.6904 19.2582 20.5669 19.3916 20.4581 19.54C20.2015 19.8977 19.9814 20.2802 19.8008 20.6816L19.6031 21.0969H19.5982ZM22.188 20.049C22.0643 20.3703 21.9606 20.6026 21.8865 20.741C21.7728 20.9436 21.6591 21.1809 21.5603 21.3638C21.3577 21.7294 21.1698 22.0458 21.0018 22.3077L20.8041 22.5796C20.809 22.5993 20.8239 22.6092 20.8535 22.6042L20.8881 22.5845C20.9777 22.5008 21.0543 22.4042 21.1154 22.2978L21.2638 22.0754L21.5257 21.6998C21.5652 21.6404 21.6048 21.5763 21.6393 21.507C21.6888 21.4014 21.7449 21.2991 21.8073 21.2006L21.8371 21.1265C21.9853 20.8002 22.1582 20.484 22.3411 20.1776C22.3709 20.1282 22.3807 20.0787 22.3659 20.0243L22.2967 19.9749C22.29 19.9707 22.2826 19.968 22.2747 19.967C22.2669 19.9659 22.259 19.9666 22.2514 19.969C22.2439 19.9713 22.237 19.9753 22.2311 19.9805C22.2252 19.9859 22.2207 19.9923 22.2176 19.9997L22.1929 20.049H22.188Z" fill="#CDD6F4" fill-opacity="0.7"/>
<path d="M19.3858 18.2351C19.2197 18.4422 19.0499 18.6466 18.8767 18.848L18.6048 19.1939C18.4072 19.4757 18.2194 19.7821 18.0464 20.1033C18.0019 20.1922 17.9773 20.2862 17.9278 20.3702L17.908 20.39C17.8883 20.4047 17.8734 20.4196 17.8635 20.4394C17.8386 20.4605 17.8139 20.4819 17.7894 20.5036C17.7745 20.5135 17.7548 20.5332 17.74 20.563C17.7171 20.6013 17.6868 20.6349 17.651 20.6619C17.5423 20.983 17.483 21.3043 17.4632 21.6354C17.4484 21.9122 17.4632 22.1989 17.4879 22.5004C17.5175 22.4905 17.5324 22.4707 17.5324 22.4262L17.5423 22.3126C17.5502 22.273 17.5635 22.2349 17.5819 22.1989C17.6254 22.0979 17.6553 21.9915 17.6708 21.8826C17.7322 21.5913 17.8114 21.3042 17.908 21.0225C17.9426 20.9435 17.9624 20.8595 18.0019 20.7854C18.0267 20.736 18.0513 20.6964 18.0662 20.647C18.0859 20.5827 18.1107 20.5235 18.1254 20.4591C18.1947 20.2121 18.3578 19.9996 18.4863 19.7821C18.5851 19.614 18.6988 19.4459 18.8322 19.2829C18.9657 19.1099 19.0842 18.9171 19.2326 18.759C19.3414 18.6452 19.4401 18.5119 19.539 18.3785C19.5539 18.3586 19.5489 18.329 19.5291 18.3092C19.4796 18.2746 19.4303 18.2498 19.3858 18.2351Z" fill="#FDB5CC" fill-opacity="0.6"/>
<path d="M19.8854 18.5361C19.8359 18.6349 19.7767 18.7238 19.7025 18.8079C19.5345 19.0007 19.3714 19.2032 19.228 19.406C19.1786 19.4751 19.1194 19.5394 19.065 19.6036C19.0232 19.654 18.9804 19.7034 18.9365 19.7519C18.933 19.753 18.9294 19.7531 18.9259 19.7522C18.9224 19.7514 18.9192 19.7495 18.9166 19.747C18.9141 19.7444 18.9124 19.7412 18.9114 19.7377C18.9106 19.7342 18.9108 19.7306 18.9117 19.7271L18.9365 19.653C18.9069 19.6876 18.9019 19.737 18.8722 19.7618L18.8525 19.7865C18.5787 20.3724 18.3922 20.995 18.2988 21.635C18.2692 21.798 18.2198 21.9612 18.1803 22.1243L18.1654 22.1342L18.1556 22.139V22.1588C18.1322 22.1513 18.1105 22.1397 18.0913 22.1243L18.0271 22.8013L18.0319 22.8507V22.8755C18.0122 22.9101 18.0222 22.9397 18.0468 22.9645C18.0503 22.9672 18.0543 22.9689 18.0585 22.97C18.0628 22.9709 18.0672 22.9709 18.0713 22.97C18.0756 22.9691 18.0796 22.9672 18.0831 22.9645C18.0865 22.9618 18.0893 22.9585 18.0913 22.9546L18.1753 22.8063L18.1852 22.7766C18.1852 22.7618 18.1902 22.752 18.2001 22.7371L18.2099 22.7173C18.2099 22.6482 18.2297 22.5888 18.2494 22.5246C18.2928 22.4046 18.3357 22.2843 18.378 22.1638C18.4027 22.0995 18.4273 22.0353 18.4422 21.971C18.4718 21.8722 18.5213 21.7833 18.556 21.6844L18.7387 21.2445C18.7734 21.1605 18.8129 21.0765 18.8624 20.9875C18.9019 20.9133 18.9266 20.8343 18.9611 20.7552C19.0106 20.6168 19.0699 20.4833 19.1291 20.3449C19.1736 20.2462 19.228 20.1572 19.2775 20.0633C19.4308 19.7616 19.5906 19.4633 19.7569 19.1687C19.8162 19.0451 19.8903 18.9266 19.9447 18.8029L20.0238 18.6398C20.0287 18.6299 20.0238 18.6152 20.0188 18.6102L19.8854 18.5361Z" fill="#FFFAA5" fill-opacity="0.5"/>
<path d="M21.0662 19.2046C21.0563 19.1947 21.0266 19.2145 21.0118 19.2292C20.7484 19.5139 20.5087 19.8198 20.2951 20.1435L20.0036 20.5933C19.8701 20.8108 19.7713 21.0431 19.6428 21.2705C19.5044 21.5126 19.4104 21.7549 19.2919 21.992L19.2672 22.0315C19.2523 22.0415 19.2474 22.0563 19.2424 22.0711C19.2424 22.081 19.2424 22.0909 19.2325 22.1008C19.2227 22.1107 19.2178 22.1107 19.2178 22.0959C19.2128 22.076 19.2029 22.0662 19.193 22.0662L19.0942 22.338C19.0942 22.3479 19.0843 22.3528 19.0794 22.3578C19.0694 22.3628 19.0694 22.3677 19.0694 22.3775V22.4072C19.0448 22.4665 19.0101 22.5159 18.9904 22.5802C18.8942 22.7934 18.8084 23.0111 18.7334 23.2326C18.7334 23.2425 18.7481 23.2524 18.7581 23.2524C18.9304 23.2224 19.0961 23.1621 19.2474 23.0745C19.4203 22.9756 19.5736 22.8767 19.6922 22.7778C19.8701 22.6444 20.058 22.5012 20.2012 22.333L20.5027 21.9871C20.6264 21.8635 20.7201 21.7499 20.7993 21.651C21.0839 21.2923 21.3354 20.9086 21.5506 20.5044C21.6874 20.2644 21.8031 20.013 21.8965 19.7531C21.8965 19.7384 21.8965 19.7235 21.8817 19.7185L21.7087 19.6049C21.684 19.5901 21.6642 19.595 21.6543 19.6197C21.6048 19.7086 21.5554 19.768 21.5061 19.857C21.4903 19.8903 21.4686 19.9205 21.4418 19.9459C21.422 19.9656 21.4171 19.9608 21.4171 19.936C21.4171 19.9113 21.4269 19.8866 21.4368 19.8718C21.4764 19.7729 21.5308 19.6741 21.5852 19.5752C21.5951 19.5654 21.5901 19.5456 21.5802 19.5406C21.4912 19.4764 21.3973 19.4319 21.3083 19.3676C21.2293 19.3182 21.1354 19.2737 21.0613 19.2046H21.0662Z" fill="url(#paint7_linear_2_431)"/>
<path d="M22.3657 20.0239C22.3721 20.0498 22.3732 20.0767 22.3689 20.1031C22.3648 20.1294 22.3551 20.1546 22.3409 20.1772C22.128 20.5295 21.9365 20.8942 21.7676 21.2695L21.6391 21.5066L21.5255 21.7044C21.3903 21.9031 21.2535 22.1008 21.1152 22.2974C21.0558 22.3963 20.9817 22.4952 20.8878 22.5841L20.8533 22.6038C20.8236 22.6088 20.8088 22.6038 20.8038 22.5792C20.5908 22.8627 20.3631 23.1348 20.1218 23.3946C20.3511 23.2913 20.5696 23.1655 20.7742 23.019C20.9176 22.9202 21.0411 22.8016 21.1746 22.6878C21.2567 22.6188 21.3343 22.5446 21.4068 22.4654C21.8259 22.0275 22.1638 21.5189 22.4052 20.963L22.4843 20.8048C22.5275 20.7292 22.564 20.6498 22.5929 20.5676L22.6028 20.5478L22.6374 20.4787C22.6747 20.4099 22.6965 20.3341 22.7017 20.2563C22.7017 20.2315 22.6869 20.2068 22.6721 20.1919L22.3657 20.0239Z" fill="#CFE2FF" fill-opacity="0.8"/>
<path d="M22.6719 20.1922C22.6867 20.2071 22.7015 20.2317 22.7015 20.2565C22.6963 20.3344 22.6745 20.4102 22.6372 20.4788C22.6238 20.5009 22.6122 20.5241 22.6026 20.5481C22.6026 20.558 22.6026 20.563 22.5929 20.5678L22.583 20.5826C22.5532 20.6667 22.5186 20.7409 22.4841 20.8051L22.405 20.9632C22.1511 21.5122 21.8144 22.019 21.4067 22.4657C21.3341 22.5449 21.2565 22.6191 21.1744 22.6881C21.0409 22.8019 20.9174 22.9204 20.774 23.0193L20.3242 23.3109C20.3588 23.3109 21.0161 23.0539 21.3177 22.8166C21.5352 22.6436 21.7872 22.4113 22.1085 21.9912C22.2073 21.8727 22.746 21.072 22.919 20.7409C22.9672 20.6396 23.0133 20.5375 23.0574 20.4345C23.0673 20.4245 23.0723 20.4245 23.0723 20.4442C23.0723 20.469 23.0723 20.4937 23.0624 20.5185C23.0278 20.6172 23.0129 20.7161 22.9635 20.815C22.9341 20.8762 22.9077 20.9389 22.8844 21.0028L22.8596 21.067C22.7794 21.2361 22.697 21.4041 22.6126 21.5712C22.5403 21.7154 22.4577 21.854 22.3655 21.9863C22.2996 22.0779 22.2369 22.172 22.1776 22.2681C22.0802 22.4275 21.9713 22.5794 21.8514 22.7227C21.8168 22.7622 21.8218 22.7721 21.8663 22.7425L22.0343 22.614C22.2468 22.441 22.4198 22.2631 22.5532 22.0901C22.9099 21.6541 23.1906 21.1612 23.3835 20.6321C23.3934 20.5975 23.3835 20.5826 23.3539 20.5678C23.2664 20.5453 23.1854 20.5029 23.1168 20.4442C23.092 20.4196 23.0673 20.4097 23.0475 20.385C23.0416 20.3759 23.033 20.3689 23.0228 20.3652C22.9289 20.3405 22.8449 20.2961 22.7756 20.2417C22.7724 20.2387 22.7684 20.2367 22.764 20.2358C22.7597 20.235 22.7551 20.2352 22.751 20.2367H22.7411C22.7214 20.212 22.7015 20.1972 22.6719 20.1873V20.1922Z" fill="#88B5FF" fill-opacity="0.7"/>
<path fill-rule="evenodd" clip-rule="evenodd" d="M19.218 17.9583C19.218 17.9583 19.4948 17.5827 20.6761 15.5514C20.7898 15.3538 20.9775 15.2054 21.195 15.1363C21.8078 14.9385 22.9594 14.479 23.4883 13.5399C24.0814 12.4921 24.6448 10.8117 25.8805 9.0077C26.3104 8.36518 27.7486 6.71937 28.7569 7.17901C29.7602 7.6436 29.2017 9.66503 28.5295 10.8562C27.5411 12.6107 25.9694 14.0983 25.4356 15.245C25.1259 15.9809 25.0601 16.7968 25.2478 17.5728C25.2972 17.8052 25.2627 18.0473 25.1391 18.25C24.6737 19.0727 24.1959 19.8882 23.7057 20.6964L19.218 17.9583ZM27.2692 8.72598C27.4422 8.50852 27.7981 8.20703 28.1194 8.40472C28.4159 8.59253 28.2973 9.01264 28.1935 9.28447C28.065 9.62055 27.6646 10.1494 27.205 9.90227C26.7652 9.66503 27.0319 9.02252 27.2692 8.72598Z" fill="#371B01"/>
<mask id="mask1_2_431" style="mask-type:luminance" maskUnits="userSpaceOnUse" x="19" y="7" width="11" height="14">
<path d="M19.218 17.9583C19.218 17.9583 19.4948 17.5827 20.6761 15.5514C20.7898 15.3538 20.9775 15.2054 21.195 15.1363C21.8078 14.9385 22.9594 14.479 23.4883 13.5399C24.0814 12.4921 24.6448 10.8117 25.8805 9.0077C26.3104 8.36518 27.7486 6.71937 28.7569 7.17901C29.7602 7.6436 29.2017 9.66503 28.5295 10.8562C27.5411 12.6107 25.9694 14.0983 25.4356 15.245C25.1259 15.9809 25.0601 16.7968 25.2478 17.5728C25.2972 17.8052 25.2627 18.0473 25.1391 18.25C24.6737 19.0727 24.1959 19.8882 23.7057 20.6964L19.218 17.9583ZM27.2692 8.72598C27.4422 8.50852 27.7981 8.20703 28.1194 8.40472C28.4159 8.59253 28.2973 9.01264 28.1935 9.28447C28.065 9.62055 27.6646 10.1494 27.205 9.90227C26.7652 9.66503 27.0319 9.02252 27.2692 8.72598Z" fill="#CDD6F4"/>
</mask>
<g mask="url(#mask1_2_431)">
<path fill-rule="evenodd" clip-rule="evenodd" d="M26.5234 5.50928L20.3455 15.6461L25.278 18.656L31.456 8.51424L26.5234 5.50928Z" fill="url(#paint8_linear_2_431)"/>
<path fill-rule="evenodd" clip-rule="evenodd" d="M20.1327 15.947L19.678 16.6983L24.6105 19.7132L25.0701 18.962L20.1278 15.947H20.1327Z" fill="url(#paint9_linear_2_431)"/>
<path fill-rule="evenodd" clip-rule="evenodd" d="M19.3422 16.9062L18.8875 17.6575L23.825 20.6674L24.2796 19.9162L19.3422 16.9062Z" fill="url(#paint10_linear_2_431)"/>
</g>
<defs>
<radialGradient id="paint0_radial_2_431" cx="0" cy="0" r="1" gradientUnits="userSpaceOnUse" gradientTransform="translate(14.8737 16.1944) scale(9.29169 9.09399)">
<stop stop-color="#675F90"/>
<stop offset="1" stop-color="#363152"/>
</radialGradient>
<linearGradient id="paint1_linear_2_431" x1="5.2168" y1="7.9901" x2="24.5267" y2="7.9901" gradientUnits="userSpaceOnUse">
<stop stop-color="#EFA5E3"/>
<stop offset="1" stop-color="#B38AF3"/>
</linearGradient>
<linearGradient id="paint2_linear_2_431" x1="23.8195" y1="20.9393" x2="8.85496" y2="15.1128" gradientUnits="userSpaceOnUse">
<stop stop-color="#40449D"/>
<stop offset="0.4" stop-color="#2185CB" stop-opacity="0.7"/>
<stop offset="1" stop-color="#03FF85" stop-opacity="0.6"/>
</linearGradient>
<linearGradient id="paint3_linear_2_431" x1="9.30358" y1="23.5584" x2="21.452" y2="23.5584" gradientUnits="userSpaceOnUse">
<stop stop-color="#B7BCFF"/>
<stop offset="0.4" stop-color="#20B0FC"/>
<stop offset="1" stop-color="#35FFA5"/>
</linearGradient>
<linearGradient id="paint4_linear_2_431" x1="9.2539" y1="23.508" x2="21.4023" y2="23.508" gradientUnits="userSpaceOnUse">
<stop stop-color="#FF6033" stop-opacity="0"/>
<stop offset="0.3" stop-color="#FC8D20"/>
<stop offset="1" stop-color="#DDFF35"/>
</linearGradient>
<linearGradient id="paint5_linear_2_431" x1="17.2462" y1="20.5442" x2="21.2001" y2="23.7074" gradientUnits="userSpaceOnUse">
<stop stop-color="#F31FA1"/>
<stop offset="0.3" stop-color="#F7E930"/>
<stop offset="0.5" stop-color="#74FD65"/>
<stop offset="0.6" stop-color="#48EDFF"/>
<stop offset="1" stop-color="#5913FF"/>
</linearGradient>
<linearGradient id="paint6_linear_2_431" x1="17.8384" y1="17.3799" x2="21.7923" y2="23.3107" gradientUnits="userSpaceOnUse">
<stop stop-color="#FF1313"/>
<stop offset="0.3" stop-color="#FFEE10"/>
<stop offset="0.5" stop-color="#1CFF03"/>
<stop offset="0.7" stop-color="#48EDFF"/>
<stop offset="1" stop-color="#5632FF"/>
</linearGradient>
<linearGradient id="paint7_linear_2_431" x1="20.0135" y1="20.5439" x2="21.0019" y2="21.1371" gradientUnits="userSpaceOnUse">
<stop stop-color="#89FF70"/>
<stop offset="1" stop-color="#A6F0FF" stop-opacity="0.4"/>
</linearGradient>
<linearGradient id="paint8_linear_2_431" x1="22.4805" y1="13.9509" x2="25.1711" y2="15.5967" gradientUnits="userSpaceOnUse">
<stop stop-color="#FBE99A"/>
<stop offset="0.7" stop-color="#E48827"/>
<stop offset="1" stop-color="#A34F04"/>
</linearGradient>
<linearGradient id="paint9_linear_2_431" x1="19.757" y1="18.0822" x2="23.3729" y2="20.2249" gradientUnits="userSpaceOnUse">
<stop stop-color="#FCEEE3"/>
<stop offset="0.7" stop-color="#9C8C81"/>
<stop offset="1" stop-color="#665549"/>
</linearGradient>
<linearGradient id="paint10_linear_2_431" x1="19.6981" y1="17.8404" x2="23.3139" y2="19.9831" gradientUnits="userSpaceOnUse">
<stop stop-color="#FCEEE3"/>
<stop offset="0.7" stop-color="#9C8C81"/>
<stop offset="1" stop-color="#665549"/>
</linearGradient>
</defs>
</svg>
