<svg width="33" height="33" viewBox="0 0 33 33" fill="none" xmlns="http://www.w3.org/2000/svg">
<g clip-path="url(#clip0_2_483)">
<mask id="mask0_2_483" style="mask-type:luminance" maskUnits="userSpaceOnUse" x="0" y="0" width="33" height="33">
<path d="M32.694 0.313477H0.537354V32.4701H32.694V0.313477Z" fill="white"/>
</mask>
<g mask="url(#mask0_2_483)">
<path d="M18.5024 24.4927C18.5024 24.8251 18.233 25.0946 17.9006 25.0946H10.7433C10.4109 25.0946 10.1414 24.8251 10.1414 24.4927C10.1414 24.1603 10.4111 23.8938 10.7431 23.8769C11.1486 23.8564 11.4627 23.8131 11.6854 23.7468C12.0081 23.6422 12.1695 23.4023 12.1695 23.0272C12.1695 22.7655 12.1172 22.4994 12.0125 22.229L11.512 20.9777C11.3085 20.4691 10.8158 20.1355 10.268 20.1355H6.34642C5.7879 20.1355 5.28797 20.482 5.09187 21.0049L4.9861 21.287C4.74186 21.9325 4.61974 22.3992 4.61974 22.687C4.61974 23.2103 4.82036 23.5418 5.22162 23.6814C5.47231 23.7668 5.74745 23.826 6.04704 23.8592C6.37743 23.8958 6.64785 24.1603 6.64785 24.4927C6.64785 24.8251 6.37836 25.0946 6.04595 25.0946H1.13924C0.806828 25.0946 0.537354 24.8251 0.537354 24.4927C0.537354 24.1603 0.809448 23.9 1.13607 23.8382C1.37429 23.793 1.58906 23.7191 1.78039 23.616C2.12058 23.4329 2.44334 23.0883 2.74864 22.5823C3.06268 22.0677 3.39851 21.3436 3.75615 20.4103L8.64955 7.59485C8.78363 7.2437 9.12053 7.01172 9.49641 7.01172C9.86963 7.01172 10.2047 7.24046 10.3406 7.58805L15.5191 20.829C15.9117 21.806 16.1996 22.469 16.3828 22.8179C16.5659 23.1581 16.8189 23.424 17.1417 23.616C17.3439 23.7307 17.5974 23.8095 17.9022 23.8524C18.2314 23.8988 18.5024 24.1603 18.5024 24.4927ZM8.73358 18.8533C9.67918 18.8533 10.3272 17.9002 9.97959 17.0207L9.53409 15.8939C9.08348 14.7541 7.46572 14.7675 7.03406 15.9145L6.60999 17.0415C6.28028 17.9176 6.92785 18.8533 7.86399 18.8533H8.73358Z" fill="#6C7086"/>
<path d="M32.7914 22.3327C33.0587 22.3327 33.2793 22.5503 33.2497 22.816C33.1988 23.2755 33.0721 23.6815 32.87 24.0338C32.5994 24.496 32.2331 24.8406 31.7707 25.0675C31.3172 25.2854 30.8026 25.3945 30.2268 25.3945C29.494 25.3945 28.8835 25.2245 28.395 24.8842C27.8168 24.4712 26.8509 24.1707 26.2322 24.52C25.1998 25.103 24.163 25.3945 23.122 25.3945C22.1798 25.3945 21.4079 25.1677 20.806 24.7141C20.204 24.2517 19.9031 23.6456 19.9031 22.8954C19.9031 22.276 20.0645 21.7178 20.3873 21.2206C20.7099 20.7147 21.181 20.2654 21.8003 19.8728C22.4284 19.4802 23.1742 19.1358 24.0379 18.8391C24.7353 18.5926 25.5722 18.3375 26.5484 18.0738C26.9722 17.9594 27.2698 17.5771 27.2698 17.1382C27.2698 16.5189 27.1214 16.0347 26.8248 15.6858C26.537 15.3282 26.0005 15.1493 25.2155 15.1493C24.5438 15.1493 24.0596 15.2889 23.7631 15.568C23.4664 15.8472 23.2701 16.2702 23.1742 16.8372C23.1044 17.2385 22.9736 17.57 22.7818 17.8317C22.5985 18.0846 22.2103 18.2111 21.6172 18.2111C21.2508 18.2111 20.9281 18.1064 20.649 17.8971C20.3697 17.6878 20.2303 17.378 20.2303 16.968C20.2303 16.1569 20.6707 15.4502 21.5518 14.8484C22.4327 14.2465 23.7849 13.9456 25.6079 13.9456C27.527 13.9456 28.8442 14.2683 29.5596 14.9137C30.2835 15.5593 30.6455 16.4228 30.6455 17.5045V21.6393C30.6455 22.1626 30.6587 22.5465 30.6848 22.7906C30.7109 23.0349 30.7807 23.2225 30.8941 23.3534C31.0163 23.4754 31.2038 23.5365 31.4568 23.5365C31.6835 23.5365 31.8798 23.4188 32.0455 23.1832C32.1296 23.0699 32.1933 22.9454 32.2369 22.8098C32.3186 22.5552 32.524 22.3327 32.7914 22.3327ZM26.7599 22.8237C27.0906 22.5906 27.2698 22.2023 27.2698 21.7977V21.0207C27.2698 20.1151 26.3832 19.4576 25.5546 19.823C24.8572 20.1306 24.3735 20.435 24.1033 20.7364C23.6584 21.2336 23.4359 21.7221 23.4359 22.2019C23.4359 22.6032 23.5581 22.926 23.8023 23.1701C24.0466 23.4143 24.3911 23.5365 24.836 23.5365C25.3157 23.5365 25.7388 23.4362 26.1051 23.2356C26.3162 23.12 26.5344 22.9828 26.7599 22.8237Z" fill="#6C7086"/>
</g>
</g>
<defs>
<clipPath id="clip0_2_483">
<rect width="32.1566" height="32.1566" fill="white" transform="translate(0.535889 0.313232)"/>
</clipPath>
</defs>
</svg>
