<svg width="41" height="34" viewBox="0 0 41 34" fill="none" xmlns="http://www.w3.org/2000/svg">
<g clip-path="url(#clip0_2_483)" filter="url(#filter0_d_2_483)">
<mask id="mask0_2_483" style="mask-type:luminance" maskUnits="userSpaceOnUse" x="4" y="0" width="33" height="33">
<path d="M36.194 0.313477H4.03735V32.4701H36.194V0.313477Z" fill="white"/>
</mask>
<g mask="url(#mask0_2_483)">
<path d="M22.0024 24.4927C22.0024 24.8251 21.733 25.0946 21.4006 25.0946H14.2433C13.9109 25.0946 13.6414 24.8251 13.6414 24.4927C13.6414 24.1603 13.9111 23.8938 14.2431 23.8769C14.6486 23.8564 14.9627 23.8131 15.1854 23.7468C15.5081 23.6422 15.6695 23.4023 15.6695 23.0272C15.6695 22.7655 15.6172 22.4994 15.5125 22.229L15.012 20.9777C14.8085 20.4691 14.3158 20.1355 13.768 20.1355H9.84642C9.2879 20.1355 8.78797 20.482 8.59187 21.0049L8.4861 21.287C8.24186 21.9325 8.11974 22.3992 8.11974 22.687C8.11974 23.2103 8.32036 23.5418 8.72162 23.6814C8.97231 23.7668 9.24745 23.826 9.54704 23.8592C9.87743 23.8958 10.1478 24.1603 10.1478 24.4927C10.1478 24.8251 9.87836 25.0946 9.54595 25.0946H4.63924C4.30683 25.0946 4.03735 24.8251 4.03735 24.4927C4.03735 24.1603 4.30945 23.9 4.63607 23.8382C4.87429 23.793 5.08906 23.7191 5.28039 23.616C5.62058 23.4329 5.94334 23.0883 6.24864 22.5823C6.56268 22.0677 6.89851 21.3436 7.25615 20.4103L12.1496 7.59485C12.2836 7.2437 12.6205 7.01172 12.9964 7.01172C13.3696 7.01172 13.7047 7.24046 13.8406 7.58805L19.0191 20.829C19.4117 21.806 19.6996 22.469 19.8828 22.8179C20.0659 23.1581 20.3189 23.424 20.6417 23.616C20.8439 23.7307 21.0974 23.8095 21.4022 23.8524C21.7314 23.8988 22.0024 24.1603 22.0024 24.4927ZM12.2336 18.8533C13.1792 18.8533 13.8272 17.9002 13.4796 17.0207L13.0341 15.8939C12.5835 14.7541 10.9657 14.7675 10.5341 15.9145L10.11 17.0415C9.78028 17.9176 10.4278 18.8533 11.364 18.8533H12.2336Z" fill="#6C7086"/>
<path d="M36.2916 22.3327C36.5589 22.3327 36.7794 22.5503 36.7498 22.816C36.6989 23.2755 36.5723 23.6815 36.3701 24.0338C36.0996 24.496 35.7332 24.8406 35.2709 25.0675C34.8173 25.2854 34.3027 25.3945 33.7269 25.3945C32.9942 25.3945 32.3836 25.2245 31.8951 24.8842C31.3169 24.4712 30.351 24.1707 29.7323 24.52C28.6999 25.103 27.6631 25.3945 26.6221 25.3945C25.6799 25.3945 24.908 25.1677 24.3061 24.7141C23.7041 24.2517 23.4032 23.6456 23.4032 22.8954C23.4032 22.276 23.5647 21.7178 23.8874 21.2206C24.2101 20.7147 24.6812 20.2654 25.3004 19.8728C25.9286 19.4802 26.6743 19.1358 27.538 18.8391C28.2354 18.5926 29.0723 18.3375 30.0485 18.0738C30.4723 17.9594 30.7699 17.5771 30.7699 17.1382C30.7699 16.5189 30.6216 16.0347 30.3249 15.6858C30.0371 15.3282 29.5006 15.1493 28.7156 15.1493C28.0439 15.1493 27.5597 15.2889 27.2632 15.568C26.9666 15.8472 26.7703 16.2702 26.6743 16.8372C26.6045 17.2385 26.4738 17.57 26.2819 17.8317C26.0986 18.0846 25.7104 18.2111 25.1173 18.2111C24.751 18.2111 24.4282 18.1064 24.1491 17.8971C23.8699 17.6878 23.7304 17.378 23.7304 16.968C23.7304 16.1569 24.1708 15.4502 25.0519 14.8484C25.9329 14.2465 27.285 13.9456 29.108 13.9456C31.0271 13.9456 32.3443 14.2683 33.0597 14.9137C33.7836 15.5593 34.1456 16.4228 34.1456 17.5045V21.6393C34.1456 22.1626 34.1588 22.5465 34.1849 22.7906C34.211 23.0349 34.2808 23.2225 34.3942 23.3534C34.5164 23.4754 34.704 23.5365 34.9569 23.5365C35.1836 23.5365 35.3799 23.4188 35.5457 23.1832C35.6297 23.0699 35.6935 22.9454 35.737 22.8098C35.8187 22.5552 36.0241 22.3327 36.2916 22.3327ZM30.2601 22.8237C30.5907 22.5906 30.7699 22.2023 30.7699 21.7977V21.0207C30.7699 20.1151 29.8833 19.4576 29.0547 19.823C28.3573 20.1306 27.8736 20.435 27.6034 20.7364C27.1586 21.2336 26.936 21.7221 26.936 22.2019C26.936 22.6032 27.0582 22.926 27.3025 23.1701C27.5467 23.4143 27.8912 23.5365 28.3362 23.5365C28.8158 23.5365 29.239 23.4362 29.6053 23.2356C29.8163 23.12 30.0346 22.9828 30.2601 22.8237Z" fill="#6C7086"/>
</g>
</g>
<defs>
<filter id="filter0_d_2_483" x="0.0358887" y="0.313232" width="40.1566" height="40.1565" filterUnits="userSpaceOnUse" color-interpolation-filters="sRGB">
<feFlood flood-opacity="0" result="BackgroundImageFix"/>
<feColorMatrix in="SourceAlpha" type="matrix" values="0 0 0 0 0 0 0 0 0 0 0 0 0 0 0 0 0 0 127 0" result="hardAlpha"/>
<feOffset dy="4"/>
<feGaussianBlur stdDeviation="2"/>
<feComposite in2="hardAlpha" operator="out"/>
<feColorMatrix type="matrix" values="0 0 0 0 0 0 0 0 0 0 0 0 0 0 0 0 0 0 0.25 0"/>
<feBlend mode="normal" in2="BackgroundImageFix" result="effect1_dropShadow_2_483"/>
<feBlend mode="normal" in="SourceGraphic" in2="effect1_dropShadow_2_483" result="shape"/>
</filter>
<clipPath id="clip0_2_483">
<rect width="32.1566" height="32.1566" fill="white" transform="translate(4.03589 0.313232)"/>
</clipPath>
</defs>
</svg>
