<svg width="33" height="33" viewBox="0 0 33 33" fill="none" xmlns="http://www.w3.org/2000/svg">
<g clip-path="url(#clip0_2_490)">
<mask id="mask0_2_490" style="mask-type:luminance" maskUnits="userSpaceOnUse" x="0" y="0" width="33" height="33">
<path d="M32.849 0.313965H0.692383V32.4706H32.849V0.313965Z" fill="white"/>
</mask>
<g mask="url(#mask0_2_490)">
<path d="M10.1545 23.7608C9.24426 23.7608 8.50635 23.0228 8.50635 22.1126V11.1697C8.50635 9.51283 9.84949 8.16968 11.5063 8.16968H17.4704C18.2209 8.16968 18.8293 8.77807 18.8293 9.52857C18.8293 10.2791 18.2209 10.8875 17.4704 10.8875H13.6602C12.6343 10.8875 11.8027 11.7191 11.8027 12.745C11.8027 13.7709 12.6343 14.6026 13.6602 14.6026H16.7854C17.5359 14.6026 18.1442 15.2109 18.1442 15.9614C18.1442 16.7119 17.5359 17.3203 16.7854 17.3203H14.8027C13.1458 17.3203 11.8027 18.6635 11.8027 20.3203V22.1126C11.8027 23.0228 11.0648 23.7608 10.1545 23.7608Z" fill="#94E2D5"/>
<path d="M27.8557 22.3803L29.8206 10.4038H31.692L29.7271 22.3803H27.8557ZM22.4932 19.4096L22.8031 17.5384H32.1598L31.8499 19.4096H22.4932ZM23.6452 22.3803L25.6101 10.4038H27.4815L25.5166 22.3803H23.6452ZM23.1774 15.2459L23.4931 13.3746H32.8499L32.5341 15.2459H23.1774Z" fill="#94E2D5"/>
</g>
</g>
<defs>
<clipPath id="clip0_2_490">
<rect width="32.1566" height="32.1566" fill="white" transform="translate(0.692383 0.313232)"/>
</clipPath>
</defs>
</svg>
