<svg width="33" height="33" viewBox="0 0 33 33" fill="none" xmlns="http://www.w3.org/2000/svg">
<path fill-rule="evenodd" clip-rule="evenodd" d="M4.86938 16.3912C4.86938 9.75895 10.2958 4.33252 16.9281 4.33252C23.5604 4.33252 28.9868 9.75895 28.9868 16.3912C28.9868 23.0235 23.5604 28.45 16.9281 28.45C10.2958 28.45 4.86938 23.0235 4.86938 16.3912ZM7.38549 14.2515C8.36572 9.8818 12.2867 6.58139 16.9281 6.58139C20.2278 6.58139 23.0823 8.1882 24.863 10.5937L25.0475 10.843L23.2477 12.4027L23.0325 12.1116C21.6265 10.2097 19.3976 8.97386 16.9281 8.97386C13.7851 8.97386 11.0382 10.9433 9.9934 13.7208L19.5983 23.3257C21.7558 22.51 23.4189 20.6729 24.0734 18.4487H20.0382V16.0563H26.738V16.3912C26.738 21.0313 23.439 24.9496 19.1626 26.0188L18.9785 26.0648L7.34513 14.4313L7.38549 14.2515ZM7.11822 15.6693L17.5644 26.1145H16.7557C14.3415 26.1145 11.8439 25.1314 9.97257 23.2602C8.10246 21.39 7.11822 18.9796 7.11822 16.4779V15.6693Z" fill="#CBA6F7"/>
</svg>
