<svg width="33" height="37" viewBox="0 0 33 37" fill="none" xmlns="http://www.w3.org/2000/svg">
<g filter="url(#filter0_d_2_497)">
<path fill-rule="evenodd" clip-rule="evenodd" d="M4.36926 16.3912C4.36926 9.75895 9.79569 4.33252 16.428 4.33252C23.0603 4.33252 28.4867 9.75895 28.4867 16.3912C28.4867 23.0235 23.0603 28.45 16.428 28.45C9.79569 28.45 4.36926 23.0235 4.36926 16.3912ZM6.88537 14.2515C7.8656 9.8818 11.7866 6.58139 16.428 6.58139C19.7277 6.58139 22.5822 8.1882 24.3629 10.5937C24.467 10.7344 24.4453 10.9315 24.313 11.0461L23.0211 12.1656C22.8736 12.2935 22.6484 12.2686 22.5324 12.1116C21.1263 10.2097 18.8975 8.97386 16.428 8.97386C15.6943 8.97386 14.9822 9.08118 14.3082 9.28105C10.3472 10.4558 11.3698 15.5973 14.2913 18.5188L17.5186 21.7461C18.4801 22.7076 19.967 23.0705 21.0319 22.225C21.6358 21.7454 22.1637 21.1721 22.5953 20.5298C23.2384 19.5729 22.418 18.4487 21.265 18.4487H20.7343C20.0736 18.4487 19.5381 17.9132 19.5381 17.2525C19.5381 16.5918 20.0736 16.0563 20.7343 16.0563H25.9029C26.0879 16.0563 26.2379 16.2062 26.2379 16.3912C26.2379 21.0313 22.9389 24.9496 18.6625 26.0188C18.5483 26.0473 18.4274 26.0138 18.3442 25.9306L6.97532 14.5616C6.89419 14.4805 6.86024 14.3634 6.88537 14.2515ZM6.61809 16.4779C6.61809 16.1795 6.97888 16.0301 7.18989 16.2411L16.4924 25.5426C16.7034 25.7536 16.554 26.1145 16.2555 26.1145C13.8414 26.1145 11.3438 25.1314 9.47245 23.2602C7.60234 21.39 6.61809 18.9796 6.61809 16.4779Z" fill="#CBA6F7"/>
</g>
<defs>
<filter id="filter0_d_2_497" x="-3.65088" y="0.313232" width="40.1566" height="40.1565" filterUnits="userSpaceOnUse" color-interpolation-filters="sRGB">
<feFlood flood-opacity="0" result="BackgroundImageFix"/>
<feColorMatrix in="SourceAlpha" type="matrix" values="0 0 0 0 0 0 0 0 0 0 0 0 0 0 0 0 0 0 127 0" result="hardAlpha"/>
<feOffset dy="4"/>
<feGaussianBlur stdDeviation="2"/>
<feComposite in2="hardAlpha" operator="out"/>
<feColorMatrix type="matrix" values="0 0 0 0 0 0 0 0 0 0 0 0 0 0 0 0 0 0 0.25 0"/>
<feBlend mode="normal" in2="BackgroundImageFix" result="effect1_dropShadow_2_497"/>
<feBlend mode="normal" in="SourceGraphic" in2="effect1_dropShadow_2_497" result="shape"/>
</filter>
</defs>
</svg>
