<svg width="35" height="38" viewBox="0 0 35 38" fill="none" xmlns="http://www.w3.org/2000/svg">
<g filter="url(#filter0_d_2_501)">
<path opacity="0.2" d="M25.625 3.24414H9.375C6.68261 3.24414 4.5 5.42675 4.5 8.11914V24.3691C4.5 27.0615 6.68261 29.2441 9.375 29.2441H25.625C28.3174 29.2441 30.5 27.0615 30.5 24.3691V8.11914C30.5 5.42675 28.3174 3.24414 25.625 3.24414Z" fill="url(#paint0_linear_2_501)"/>
<path d="M14.8423 15.2143C14.5347 15.2143 14.2822 14.9948 14.108 14.7413V14.7413C14.0142 14.6021 13.8991 14.4842 13.7628 14.3876C13.6264 14.291 13.4702 14.2186 13.294 14.1703C13.1179 14.1191 12.9247 14.0936 12.7145 14.0936C12.2912 14.0936 11.9247 14.1958 11.6151 14.4004C11.3082 14.6049 11.071 14.9032 10.9034 15.2953C10.7358 15.6845 10.652 16.1575 10.652 16.7143C10.652 17.274 10.733 17.7512 10.8949 18.1461C11.0568 18.541 11.2912 18.8422 11.598 19.0495C11.9048 19.2569 12.277 19.3606 12.7145 19.3606C13.1009 19.3606 13.4276 19.2981 13.6946 19.1731C13.9645 19.0453 14.169 18.8649 14.3082 18.6319C14.3862 18.5014 14.4424 18.3579 14.4767 18.2015C14.5217 17.9963 14.7005 17.8314 14.9091 17.8564V17.8564H13.5561C13.1313 17.8564 12.7869 17.512 12.7869 17.0872V17.0872C12.7869 16.6624 13.1313 16.318 13.5561 16.318H15.5497C16.102 16.318 16.5497 16.7657 16.5497 17.318V17.4728C16.5497 18.2541 16.3835 18.9231 16.0511 19.4799C15.7216 20.0368 15.267 20.4643 14.6875 20.7626C14.1108 21.0609 13.4474 21.21 12.6974 21.21C11.8651 21.21 11.1335 21.0297 10.5028 20.6689C9.87216 20.3081 9.38068 19.7939 9.02841 19.1262C8.67614 18.4558 8.5 17.6603 8.5 16.7399C8.5 16.024 8.60653 15.389 8.8196 14.8351C9.03267 14.2782 9.32955 13.8066 9.71023 13.4203C10.0938 13.0339 10.5369 12.7413 11.0398 12.5424C11.5455 12.3436 12.0895 12.2441 12.6719 12.2441C13.1776 12.2441 13.6477 12.3166 14.0824 12.4615C14.5199 12.6064 14.9062 12.8109 15.2415 13.0751C15.5795 13.3393 15.8537 13.6532 16.0639 14.0169C16.088 14.0586 16.1111 14.1008 16.1332 14.1435C16.4078 14.6754 15.93 15.2143 15.3314 15.2143H14.8423Z" fill="#CBA6F7"/>
<path d="M18.9023 12.3635C19.4546 12.3635 19.9023 12.8112 19.9023 13.3635V20.0907C19.9023 20.643 19.4546 21.0907 18.9023 21.0907H18.793C18.2407 21.0907 17.793 20.643 17.793 20.0907V13.3635C17.793 12.8112 18.2407 12.3635 18.793 12.3635H18.9023Z" fill="#CBA6F7"/>
<path d="M22.2266 21.0907C21.6743 21.0907 21.2266 20.643 21.2266 20.0907V13.3635C21.2266 12.8112 21.6743 12.3635 22.2266 12.3635H26.3274C26.8005 12.3635 27.1839 12.7469 27.1839 13.22V13.22C27.1839 13.693 26.8005 14.0765 26.3274 14.0765H24.2308C23.7366 14.0765 23.3359 14.4772 23.3359 14.9714V14.9714C23.3359 15.4656 23.7366 15.8663 24.2308 15.8663H25.946C26.4202 15.8663 26.8047 16.2507 26.8047 16.725V16.725C26.8047 17.1992 26.4202 17.5836 25.946 17.5836H24.3359C23.7837 17.5836 23.3359 18.0313 23.3359 18.5836V20.0907C23.3359 20.643 22.8882 21.0907 22.3359 21.0907H22.2266Z" fill="#CBA6F7"/>
</g>
<defs>
<filter id="filter0_d_2_501" x="-2.33765" y="0.313232" width="40.1566" height="40.1565" filterUnits="userSpaceOnUse" color-interpolation-filters="sRGB">
<feFlood flood-opacity="0" result="BackgroundImageFix"/>
<feColorMatrix in="SourceAlpha" type="matrix" values="0 0 0 0 0 0 0 0 0 0 0 0 0 0 0 0 0 0 127 0" result="hardAlpha"/>
<feOffset dy="4"/>
<feGaussianBlur stdDeviation="2"/>
<feComposite in2="hardAlpha" operator="out"/>
<feColorMatrix type="matrix" values="0 0 0 0 0 0 0 0 0 0 0 0 0 0 0 0 0 0 0.25 0"/>
<feBlend mode="normal" in2="BackgroundImageFix" result="effect1_dropShadow_2_501"/>
<feBlend mode="normal" in="SourceGraphic" in2="effect1_dropShadow_2_501" result="shape"/>
</filter>
<linearGradient id="paint0_linear_2_501" x1="4.82576" y1="3.24414" x2="30.1742" y2="29.2441" gradientUnits="userSpaceOnUse">
<stop stop-color="#CBA6F7"/>
<stop offset="1" stop-color="#89B4FA"/>
</linearGradient>
</defs>
</svg>
