<svg width="33" height="33" viewBox="0 0 33 33" fill="none" xmlns="http://www.w3.org/2000/svg">
<path d="M28.0025 15.3171L17.4716 4.78737C16.8656 4.1809 15.8822 4.1809 15.2755 4.78737L13.0888 6.97422L15.8625 9.74791C16.5073 9.53019 17.2464 9.67617 17.7601 10.19C18.2765 10.7071 18.4215 11.4525 18.1982 12.0994L20.8717 14.7728C21.5184 14.5499 22.2646 14.6939 22.7811 15.2112C23.5031 15.933 23.5031 17.1027 22.7811 17.8246C22.0589 18.5469 20.8893 18.5469 20.1668 17.8246C19.6238 17.2813 19.4896 16.4837 19.7645 15.8147L17.2715 13.3216L17.2712 19.8824C17.4472 19.9695 17.6134 20.0858 17.76 20.2318C18.4819 20.9536 18.4819 22.123 17.76 22.8459C17.038 23.5677 15.8678 23.5677 15.1466 22.8459C14.4247 22.123 14.4247 20.9536 15.1466 20.2318C15.325 20.0537 15.5314 19.919 15.7517 19.8287V13.2069C15.5314 13.1169 15.3252 12.9831 15.1464 12.8036C14.5996 12.2572 14.4679 11.4546 14.7484 10.7831L12.0141 8.04842L4.79387 15.2684C4.1872 15.8754 4.1872 16.8589 4.79387 17.4654L15.3242 27.9951C15.9305 28.6016 16.9137 28.6016 17.5208 27.9951L28.0024 17.5151C28.6089 16.9084 28.6091 15.9238 28.0025 15.3171Z" fill="#F38BA8"/>
</svg>
