<svg width="33" height="33" viewBox="0 0 33 33" fill="none" xmlns="http://www.w3.org/2000/svg">
<path d="M15.425 5.46091C15.9814 4.47495 17.4035 4.47495 17.9601 5.46091L20.8765 10.6286C21.2373 11.2681 21.8587 11.7188 22.5786 11.8639L28.4006 13.0372C29.5121 13.2612 29.9501 14.6111 29.184 15.4435L25.1644 19.8107C24.9187 20.0776 24.7332 20.3943 24.6211 20.7393C24.5088 21.0845 24.4722 21.4496 24.5139 21.81L25.1958 27.7028C25.3257 28.8256 24.1767 29.6617 23.145 29.1901L17.7443 26.7214C17.4143 26.5705 17.0555 26.4924 16.6926 26.4924C16.3296 26.4924 15.971 26.5705 15.6408 26.7214L10.2402 29.1901C9.20856 29.6616 8.05952 28.8256 8.18935 27.7028L8.87125 21.81C8.95564 21.0807 8.71815 20.3509 8.22087 19.8107L4.20118 15.4435C3.43504 14.6112 3.87305 13.2612 4.98456 13.0372L10.8066 11.8639C11.5265 11.7188 12.1479 11.2681 12.5087 10.6286L15.425 5.46091Z" fill="#F38BA8"/>
<path d="M16.6935 4.20197C16.0133 4.20197 15.3332 4.53364 14.9588 5.19701L12.0425 10.3647C11.7582 10.8686 11.2691 11.2234 10.7016 11.3378L4.87954 12.511C3.38557 12.8121 2.77647 14.6867 3.80738 15.8067L7.82708 20.1738C8.02065 20.3839 8.16661 20.6334 8.25499 20.9051C8.34338 21.1767 8.37212 21.4643 8.33923 21.7481L7.65736 27.641C7.48241 29.1527 9.07742 30.3117 10.4642 29.6778L15.865 27.2091C16.125 27.0901 16.4076 27.0285 16.6935 27.0285C16.9796 27.0285 17.2622 27.0901 17.5222 27.2091L22.9229 29.6778C24.3096 30.3118 25.9047 29.1529 25.7297 27.641L25.048 21.7481C25.015 21.4643 25.0437 21.1767 25.1321 20.905C25.2205 20.6334 25.3664 20.3839 25.5601 20.1738L29.5796 15.8065C30.6105 14.6865 30.0015 12.8119 28.5075 12.5108L22.6855 11.3375C22.118 11.2232 21.6289 10.8683 21.3446 10.3645L18.4283 5.19668C18.0539 4.53333 17.3738 4.20197 16.6935 4.20197ZM16.6934 5.2402C17.0025 5.2402 17.3116 5.4015 17.4937 5.72411L20.41 10.8918C20.8474 11.6669 21.6012 12.2136 22.4734 12.3894L28.2954 13.5627C29.0245 13.7096 29.2914 14.535 28.79 15.0798L24.7705 19.4469C24.1677 20.1017 23.8796 20.9874 23.9818 21.8713L24.6637 27.7641C24.7486 28.4979 24.0455 29.0111 23.369 28.7017L17.9681 26.233C17.1589 25.863 16.2278 25.863 15.4185 26.233L10.0179 28.7017C9.34125 29.011 8.63821 28.4979 8.72305 27.7642L9.40496 21.8714C9.50726 20.9872 9.21904 20.1017 8.61635 19.4469L4.59667 15.0798C4.0953 14.5351 4.36226 13.7098 5.09126 13.5627L10.9133 12.3895C11.7856 12.2137 12.5394 11.6669 12.9768 10.8919L15.8931 5.7241C16.0752 5.40152 16.3844 5.2402 16.6934 5.2402Z" fill="#181825"/>
<path d="M15.0565 19.7826C15.0361 19.6789 15.0364 19.5723 15.0573 19.4687C15.0781 19.3651 15.1192 19.2667 15.1782 19.1789C15.237 19.0913 15.3127 19.016 15.4006 18.9576C15.4886 18.899 15.5872 18.8584 15.6909 18.838C15.7946 18.8177 15.9013 18.8179 16.0049 18.8388C16.1084 18.8597 16.2069 18.9007 16.2945 18.9597C16.3823 19.0187 16.4575 19.0942 16.516 19.1823C16.5744 19.2701 16.615 19.3688 16.6354 19.4725L15.0565 19.7826ZM15.0565 19.7826C15.0987 19.9974 15.1829 20.2017 15.304 20.3841L15.0565 19.7826ZM15.0565 19.7826L15.304 20.3841L15.0565 19.7826ZM15.304 20.3841C15.4252 20.5663 15.5812 20.7231 15.763 20.845L15.304 20.3841ZM16.3633 21.0953C16.1488 21.052 15.9446 20.9668 15.763 20.845L16.3633 21.0953ZM16.3633 21.0953C16.5775 21.1383 16.7987 21.1388 17.0135 21.0968L16.3633 21.0953ZM17.615 20.8493C17.4328 20.9706 17.2282 21.0546 17.0135 21.0968L17.615 20.8493ZM17.615 20.8493C17.7971 20.7282 17.9537 20.5722 18.0756 20.3905L17.615 20.8493ZM17.615 20.8493L17.6955 18.8426L17.615 20.8493ZM17.6955 18.8426C17.9047 18.8847 18.0887 19.0079 18.2069 19.1856C18.3252 19.3631 18.3681 19.5805 18.326 19.7896C18.283 20.0045 18.1979 20.2087 18.0756 20.3905M17.6955 18.8426C17.5919 18.8218 17.4853 18.8217 17.3817 18.8421L17.6955 18.8426ZM17.6955 18.8426L17.3817 18.8421L17.6955 18.8426ZM16.74 19.4934C16.7442 19.4873 16.7471 19.4804 16.7485 19.4731L16.74 19.4934ZM16.74 19.4934C16.7356 19.4999 16.73 19.5056 16.7241 19.5094L16.74 19.4934ZM16.7035 19.5179C16.6956 19.5194 16.6877 19.5194 16.6803 19.5179C16.6729 19.5164 16.6664 19.5135 16.6601 19.5093M16.7035 19.5179L16.6601 19.5093L16.7035 19.5179ZM16.6601 19.5093C16.6536 19.505 16.648 19.4994 16.644 19.4934L16.6601 19.5093ZM17.3817 18.8421C17.278 18.8626 17.1794 18.9032 17.0915 18.9618L17.3817 18.8421ZM17.3817 18.8421L17.0915 18.9618L17.3817 18.8421ZM17.0915 18.9618C17.0035 19.0204 16.928 19.0957 16.8691 19.1833L17.0915 18.9618ZM17.0915 18.9618L16.8691 19.1833L17.0915 18.9618ZM16.8691 19.1833C16.8103 19.2711 16.7693 19.3696 16.7485 19.4731L16.8691 19.1833ZM12.3802 19.0148C13.1103 19.0148 13.7021 18.423 13.7021 17.6929C13.7021 16.9629 13.1103 16.3711 12.3802 16.3711C11.6502 16.3711 11.0583 16.9629 11.0583 17.6929C11.0583 18.423 11.6502 19.0148 12.3802 19.0148ZM21.0027 19.0148C21.7328 19.0148 22.3246 18.423 22.3246 17.6929C22.3246 16.9629 21.7328 16.3711 21.0027 16.3711C20.2726 16.3711 19.6808 16.9629 19.6808 17.6929C19.6808 18.423 20.2726 19.0148 21.0027 19.0148ZM16.4159 20.8326C16.5959 20.8687 16.7817 20.8691 16.9618 20.8338L15.9124 20.6226C16.0648 20.725 16.236 20.7964 16.4159 20.8326Z" fill="#181825"/>
<path d="M15.0565 19.7826C15.0361 19.6789 15.0364 19.5723 15.0573 19.4687C15.0781 19.3651 15.1192 19.2667 15.1782 19.1789C15.237 19.0913 15.3127 19.016 15.4006 18.9576C15.4886 18.899 15.5872 18.8584 15.6909 18.838C15.7946 18.8177 15.9013 18.8179 16.0049 18.8388C16.1084 18.8597 16.2069 18.9007 16.2945 18.9597C16.3823 19.0187 16.4575 19.0942 16.516 19.1823C16.5744 19.2701 16.615 19.3688 16.6354 19.4725L15.0565 19.7826ZM15.0565 19.7826C15.0987 19.9974 15.1829 20.2017 15.304 20.3841M15.0565 19.7826L15.304 20.3841M15.304 20.3841C15.4252 20.5663 15.5812 20.7231 15.763 20.845M15.304 20.3841L15.763 20.845M15.763 20.845C15.9446 20.9668 16.1488 21.052 16.3633 21.0953M15.763 20.845L16.3633 21.0953M16.3633 21.0953C16.5775 21.1383 16.7987 21.1388 17.0135 21.0968M16.3633 21.0953L17.0135 21.0968M17.0135 21.0968C17.2282 21.0546 17.4328 20.9706 17.615 20.8493M17.0135 21.0968L17.615 20.8493M17.615 20.8493C17.7971 20.7282 17.9537 20.5722 18.0756 20.3905M17.615 20.8493L17.6955 18.8426M18.0756 20.3905C18.1979 20.2087 18.283 20.0045 18.326 19.7896C18.3681 19.5805 18.3252 19.3631 18.2069 19.1856C18.0887 19.0079 17.9047 18.8847 17.6955 18.8426M18.0756 20.3905L17.8532 20.2411M17.6955 18.8426C17.5919 18.8218 17.4853 18.8217 17.3817 18.8421M17.6955 18.8426L17.3817 18.8421M17.3817 18.8421C17.278 18.8626 17.1794 18.9032 17.0915 18.9618M17.3817 18.8421L17.0915 18.9618M16.74 19.4934C16.7442 19.4873 16.7471 19.4804 16.7485 19.4731M16.74 19.4934L16.7485 19.4731M16.74 19.4934C16.7356 19.4999 16.73 19.5056 16.7241 19.5094L16.74 19.4934ZM16.7485 19.4731C16.7693 19.3696 16.8103 19.2711 16.8691 19.1833M16.7485 19.4731L16.8691 19.1833M16.6803 19.5179C16.6877 19.5194 16.6956 19.5194 16.7035 19.5179L16.6601 19.5093M16.6803 19.5179L16.6278 19.7806M16.6803 19.5179C16.6729 19.5164 16.6664 19.5135 16.6601 19.5093M16.6601 19.5093C16.6536 19.505 16.648 19.4994 16.644 19.4934L16.6601 19.5093ZM17.0915 18.9618C17.0035 19.0204 16.928 19.0957 16.8691 19.1833M17.0915 18.9618L16.8691 19.1833M12.3802 19.0148C13.1103 19.0148 13.7021 18.423 13.7021 17.6929C13.7021 16.9629 13.1103 16.3711 12.3802 16.3711C11.6502 16.3711 11.0583 16.9629 11.0583 17.6929C11.0583 18.423 11.6502 19.0148 12.3802 19.0148ZM21.0027 19.0148C21.7328 19.0148 22.3246 18.423 22.3246 17.6929C22.3246 16.9629 21.7328 16.3711 21.0027 16.3711C20.2726 16.3711 19.6808 16.9629 19.6808 17.6929C19.6808 18.423 20.2726 19.0148 21.0027 19.0148ZM16.4159 20.8326C16.5959 20.8687 16.7817 20.8691 16.9618 20.8338L15.9124 20.6226C16.0648 20.725 16.236 20.7964 16.4159 20.8326Z" stroke="#11111B" stroke-width="0.91876"/>
</svg>
