<svg width="33" height="33" viewBox="0 0 33 33" fill="none" xmlns="http://www.w3.org/2000/svg">
<g clip-path="url(#clip0_2_522)">
<mask id="mask0_2_522" style="mask-type:luminance" maskUnits="userSpaceOnUse" x="0" y="10" width="33" height="13">
<path d="M32.8148 10.2261H0.658203V22.8699H32.8148V10.2261Z" fill="white"/>
</mask>
<g mask="url(#mask0_2_522)">
<path fill-rule="evenodd" clip-rule="evenodd" d="M3.17543 14.131C3.11329 14.131 3.09774 14.0987 3.12882 14.05L3.45504 13.6123C3.48612 13.5637 3.56379 13.5312 3.62593 13.5312H9.17178C9.23392 13.5312 9.24945 13.5799 9.21838 13.6285L8.95429 14.05C8.92322 14.0987 8.84555 14.1472 8.79895 14.1472L3.17543 14.131Z" fill="#F38BA8"/>
<path fill-rule="evenodd" clip-rule="evenodd" d="M0.82874 15.6228C0.766602 15.6228 0.751067 15.5904 0.782136 15.5417L1.10836 15.104C1.13943 15.0554 1.21711 15.0229 1.27924 15.0229H8.36301C8.42516 15.0229 8.45623 15.0716 8.44068 15.1202L8.31641 15.5093C8.30088 15.5742 8.23874 15.6066 8.1766 15.6066L0.82874 15.6228Z" fill="#F38BA8"/>
<path fill-rule="evenodd" clip-rule="evenodd" d="M4.58753 17.1146C4.52539 17.1146 4.50986 17.066 4.54093 17.0173L4.75841 16.6122C4.78947 16.5635 4.85161 16.5149 4.91376 16.5149H8.02067C8.08282 16.5149 8.11387 16.5635 8.11387 16.6284L8.08282 17.0173C8.08282 17.0822 8.02067 17.1308 7.97407 17.1308L4.58753 17.1146Z" fill="#F38BA8"/>
<path fill-rule="evenodd" clip-rule="evenodd" d="M20.7126 13.8402C19.7339 14.0995 19.0659 14.2941 18.1028 14.5535C17.8698 14.6183 17.8543 14.6345 17.6523 14.3914C17.4192 14.1157 17.2484 13.9375 16.9221 13.7754C15.9435 13.2729 14.9959 13.4188 14.1104 14.0186C13.0541 14.7318 12.5103 15.7855 12.5259 17.0984C12.5414 18.3953 13.3958 19.4651 14.6231 19.6435C15.6794 19.7892 16.5649 19.4003 17.2639 18.5736C17.4038 18.3953 17.528 18.2007 17.6833 17.9737C17.1242 17.9737 16.425 17.9737 14.6852 17.9737C14.359 17.9737 14.2813 17.7631 14.3901 17.4875C14.592 16.9849 14.9649 16.142 15.1823 15.7206C15.2289 15.6234 15.3376 15.4612 15.5706 15.4612H21.2252C21.1941 15.899 21.1941 16.3366 21.1321 16.7743C20.9611 17.9413 20.5417 19.0112 19.8581 19.9514C18.7398 21.4914 17.2795 22.4478 15.4309 22.7071C13.9085 22.9178 12.4948 22.6099 11.252 21.6373C10.1025 20.7294 9.45002 19.53 9.27915 18.0386C9.07719 16.2717 9.57431 14.6832 10.5996 13.2891C11.7025 11.7816 13.1628 10.8252 14.9493 10.4848C16.4095 10.2092 17.8076 10.3875 19.0659 11.2791C19.8892 11.8464 20.4796 12.6245 20.868 13.5647C20.9611 13.7106 20.899 13.7916 20.7126 13.8402Z" fill="#F38BA8"/>
<path d="M25.8549 22.8046C24.4412 22.7722 23.1519 22.3508 22.0645 21.3782C21.148 20.5515 20.5732 19.4978 20.3868 18.2496C20.1072 16.4179 20.5888 14.7969 21.6451 13.3542C22.7792 11.7981 24.1461 10.9876 25.9948 10.6471C27.5793 10.3554 29.0706 10.5175 30.4221 11.4739C31.6493 12.3492 32.4106 13.5325 32.6125 15.0886C32.8766 17.277 32.2707 19.0601 30.8261 20.5839C29.8007 21.67 28.5424 22.3508 27.0976 22.6587C26.6783 22.7398 26.2589 22.756 25.8549 22.8046ZM29.5521 16.2558C29.5366 16.045 29.5366 15.883 29.5055 15.7209C29.226 14.116 27.8123 13.2083 26.3365 13.5649C24.8918 13.9054 23.9597 14.8618 23.6179 16.3855C23.3383 17.6499 23.9286 18.9304 25.0471 19.4492C25.9016 19.8382 26.756 19.7895 27.5793 19.3519C28.8065 18.6874 29.4746 17.6499 29.5521 16.2558Z" fill="#F38BA8"/>
</g>
</g>
<defs>
<clipPath id="clip0_2_522">
<rect width="32.1566" height="32.1566" fill="white" transform="translate(0.656738 0.469727)"/>
</clipPath>
</defs>
</svg>
