<svg width="41" height="33" viewBox="0 0 41 33" fill="none" xmlns="http://www.w3.org/2000/svg">
<g clip-path="url(#clip0_2_522)" filter="url(#filter0_d_2_522)">
<mask id="mask0_2_522" style="mask-type:luminance" maskUnits="userSpaceOnUse" x="4" y="10" width="33" height="13">
<path d="M36.3146 10.2261H4.15796V22.8699H36.3146V10.2261Z" fill="white"/>
</mask>
<g mask="url(#mask0_2_522)">
<path fill-rule="evenodd" clip-rule="evenodd" d="M6.67543 14.131C6.61329 14.131 6.59774 14.0987 6.62882 14.05L6.95504 13.6123C6.98612 13.5637 7.06379 13.5312 7.12593 13.5312H12.6718C12.7339 13.5312 12.7494 13.5799 12.7184 13.6285L12.4543 14.05C12.4232 14.0987 12.3455 14.1472 12.2989 14.1472L6.67543 14.131Z" fill="#F38BA8"/>
<path fill-rule="evenodd" clip-rule="evenodd" d="M4.32862 15.6228C4.26648 15.6228 4.25094 15.5904 4.28201 15.5417L4.60824 15.104C4.63931 15.0554 4.71698 15.0229 4.77912 15.0229H11.8629C11.925 15.0229 11.9561 15.0716 11.9406 15.1202L11.8163 15.5093C11.8008 15.5742 11.7386 15.6066 11.6765 15.6066L4.32862 15.6228Z" fill="#F38BA8"/>
<path fill-rule="evenodd" clip-rule="evenodd" d="M8.08741 17.1146C8.02526 17.1146 8.00973 17.066 8.04081 17.0173L8.25829 16.6122C8.28935 16.5635 8.35149 16.5149 8.41363 16.5149H11.5206C11.5827 16.5149 11.6138 16.5635 11.6138 16.6284L11.5827 17.0173C11.5827 17.0822 11.5206 17.1308 11.474 17.1308L8.08741 17.1146Z" fill="#F38BA8"/>
<path fill-rule="evenodd" clip-rule="evenodd" d="M24.2126 13.8402C23.2339 14.0995 22.5659 14.2941 21.6028 14.5535C21.3698 14.6183 21.3543 14.6345 21.1523 14.3914C20.9192 14.1157 20.7484 13.9375 20.4221 13.7754C19.4435 13.2729 18.4959 13.4188 17.6104 14.0186C16.5541 14.7318 16.0103 15.7855 16.0259 17.0984C16.0414 18.3953 16.8958 19.4651 18.1231 19.6435C19.1794 19.7892 20.0649 19.4003 20.7639 18.5736V18.5736C20.9556 18.3293 20.7618 17.9737 20.4513 17.9737C19.9568 17.9737 19.2752 17.9737 18.1852 17.9737C17.859 17.9737 17.7813 17.7631 17.8901 17.4875C18.092 16.9849 18.4649 16.142 18.6823 15.7206C18.7289 15.6234 18.8376 15.4612 19.0706 15.4612H23.4084C24.1201 15.4612 24.7319 16.0697 24.6321 16.7743V16.7743C24.4611 17.9413 24.0417 19.0112 23.3581 19.9514C22.2398 21.4914 20.7795 22.4478 18.9309 22.7071C17.4085 22.9178 15.9948 22.6099 14.752 21.6373C13.6025 20.7294 12.95 19.53 12.7792 18.0386C12.5772 16.2717 13.0743 14.6832 14.0996 13.2891C15.2025 11.7816 16.6628 10.8252 18.4493 10.4848C19.9095 10.2092 21.3076 10.3875 22.5659 11.2791C23.2804 11.7714 23.8195 12.4225 24.2033 13.2005C24.321 13.439 24.4699 13.7731 24.2126 13.8402V13.8402Z" fill="#F38BA8"/>
<path d="M29.3547 22.8046C27.941 22.7722 26.6517 22.3508 25.5642 21.3782C24.6478 20.5515 24.073 19.4978 23.8866 18.2496C23.607 16.4179 24.0885 14.7969 25.1449 13.3542C26.2789 11.7981 27.6458 10.9876 29.4946 10.6471C31.0791 10.3554 32.5703 10.5175 33.9219 11.4739C35.149 12.3492 35.9103 13.5325 36.1123 15.0886C36.3763 17.277 35.7705 19.0601 34.3258 20.5839C33.3004 21.67 32.0422 22.3508 30.5974 22.6587C30.178 22.7398 29.7587 22.756 29.3547 22.8046ZM33.0519 16.2558C33.0363 16.045 33.0363 15.883 33.0053 15.7209C32.7258 14.116 31.3121 13.2083 29.8362 13.5649C28.3916 13.9054 27.4595 14.8618 27.1177 16.3855C26.838 17.6499 27.4284 18.9304 28.5469 19.4492C29.4013 19.8382 30.2557 19.7895 31.0791 19.3519C32.3063 18.6874 32.9743 17.6499 33.0519 16.2558Z" fill="#F38BA8"/>
</g>
</g>
<defs>
<filter id="filter0_d_2_522" x="0.156616" y="0.469727" width="40.1566" height="40.1565" filterUnits="userSpaceOnUse" color-interpolation-filters="sRGB">
<feFlood flood-opacity="0" result="BackgroundImageFix"/>
<feColorMatrix in="SourceAlpha" type="matrix" values="0 0 0 0 0 0 0 0 0 0 0 0 0 0 0 0 0 0 127 0" result="hardAlpha"/>
<feOffset dy="4"/>
<feGaussianBlur stdDeviation="2"/>
<feComposite in2="hardAlpha" operator="out"/>
<feColorMatrix type="matrix" values="0 0 0 0 0 0 0 0 0 0 0 0 0 0 0 0 0 0 0.25 0"/>
<feBlend mode="normal" in2="BackgroundImageFix" result="effect1_dropShadow_2_522"/>
<feBlend mode="normal" in="SourceGraphic" in2="effect1_dropShadow_2_522" result="shape"/>
</filter>
<clipPath id="clip0_2_522">
<rect width="32.1566" height="32.1566" fill="white" transform="translate(4.15662 0.469727)"/>
</clipPath>
</defs>
</svg>
