<svg width="41" height="33" viewBox="0 0 41 33" fill="none" xmlns="http://www.w3.org/2000/svg">
<g clip-path="url(#clip0_2_512)" filter="url(#filter0_d_2_512)">
<mask id="mask0_2_512" style="mask-type:luminance" maskUnits="userSpaceOnUse" x="4" y="10" width="33" height="13">
<path d="M36.1576 10.2261H4.00098V22.8699H36.1576V10.2261Z" fill="white"/>
</mask>
<g mask="url(#mask0_2_512)">
<path fill-rule="evenodd" clip-rule="evenodd" d="M6.51698 14.1311C6.45484 14.1311 6.4393 14.0987 6.47037 14.05L6.7966 13.6123C6.82767 13.5637 6.90534 13.5312 6.96748 13.5312H12.5133C12.5755 13.5312 12.591 13.5799 12.5599 13.6285L12.2958 14.05C12.2648 14.0987 12.1871 14.1473 12.1405 14.1473L6.51698 14.1311Z" fill="#89B4FA"/>
<path fill-rule="evenodd" clip-rule="evenodd" d="M4.17151 15.6227C4.10937 15.6227 4.09384 15.5902 4.12491 15.5416L4.45114 15.104C4.48221 15.0554 4.55988 15.0229 4.62202 15.0229H11.7058C11.7679 15.0229 11.799 15.0716 11.7835 15.1201L11.6592 15.5092C11.6437 15.574 11.5815 15.6065 11.5194 15.6065L4.17151 15.6227Z" fill="#89B4FA"/>
<path fill-rule="evenodd" clip-rule="evenodd" d="M7.9303 17.1146C7.86816 17.1146 7.85263 17.066 7.8837 17.0175L8.10119 16.6122C8.13225 16.5635 8.19439 16.5149 8.25653 16.5149H11.3634C11.4256 16.5149 11.4566 16.5635 11.4566 16.6284L11.4256 17.0175C11.4256 17.0822 11.3634 17.1308 11.3168 17.1308L7.9303 17.1146Z" fill="#89B4FA"/>
<path fill-rule="evenodd" clip-rule="evenodd" d="M24.0553 13.8402C23.0767 14.0996 22.4087 14.2941 21.4456 14.5535C21.2126 14.6183 21.197 14.6345 20.9951 14.3913C20.762 14.1159 20.5911 13.9375 20.2649 13.7754C19.2863 13.2729 18.3387 13.4188 17.4532 14.0186C16.3968 14.7318 15.8531 15.7855 15.8686 17.0984C15.8842 18.3952 16.7386 19.4651 17.9658 19.6434C19.0222 19.7893 19.9077 19.4003 20.6067 18.5736V18.5736C20.7983 18.3292 20.6046 17.9737 20.2941 17.9737C19.7995 17.9737 19.118 17.9737 18.028 17.9737C17.7017 17.9737 17.624 17.7631 17.7328 17.4875C17.9347 16.985 18.3076 16.142 18.5251 15.7206C18.5717 15.6233 18.6804 15.4612 18.9134 15.4612H23.2512C23.9628 15.4612 24.5747 16.0697 24.4749 16.7743V16.7743C24.3039 17.9414 23.8845 19.0112 23.2009 19.9513C22.0825 21.4914 20.6222 22.4478 18.7736 22.7072C17.2512 22.9178 15.8376 22.6099 14.5948 21.6373C13.4453 20.7295 12.7928 19.53 12.6219 18.0386C12.42 16.2717 12.9171 14.6831 13.9424 13.2891C15.0453 11.7816 16.5056 10.8252 18.2921 10.4848C19.7523 10.2092 21.1504 10.3875 22.4087 11.279C23.1232 11.7714 23.6622 12.4225 24.0461 13.2005C24.1638 13.439 24.3127 13.7731 24.0553 13.8402V13.8402Z" fill="#89B4FA"/>
<path d="M29.1968 22.8046C27.7832 22.7722 26.4938 22.3508 25.4064 21.3782C24.4899 20.5515 23.9151 19.4978 23.7288 18.2496C23.4491 16.4179 23.9307 14.7969 24.987 13.3542C26.1211 11.7981 27.488 10.9876 29.3367 10.6471C30.9212 10.3554 32.4125 10.5175 33.764 11.4739C34.9912 12.3492 35.7525 13.5325 35.9544 15.0888C36.2185 17.277 35.6126 19.0601 34.168 20.5839C33.1426 21.67 31.8843 22.3508 30.4396 22.6588C30.0202 22.7397 29.6008 22.756 29.1968 22.8046ZM32.8941 16.2558C32.8785 16.0451 32.8785 15.883 32.8474 15.7209C32.5679 14.1161 31.1542 13.2083 29.6784 13.5649C28.2338 13.9054 27.3016 14.8618 26.9598 16.3855C26.6802 17.6499 27.2705 18.9304 28.389 19.4492C29.2435 19.8383 30.0979 19.7896 30.9212 19.3519C32.1484 18.6873 32.8165 17.6499 32.8941 16.2558Z" fill="#89B4FA"/>
</g>
</g>
<defs>
<filter id="filter0_d_2_512" x="0" y="0.469727" width="40.1566" height="40.1565" filterUnits="userSpaceOnUse" color-interpolation-filters="sRGB">
<feFlood flood-opacity="0" result="BackgroundImageFix"/>
<feColorMatrix in="SourceAlpha" type="matrix" values="0 0 0 0 0 0 0 0 0 0 0 0 0 0 0 0 0 0 127 0" result="hardAlpha"/>
<feOffset dy="4"/>
<feGaussianBlur stdDeviation="2"/>
<feComposite in2="hardAlpha" operator="out"/>
<feColorMatrix type="matrix" values="0 0 0 0 0 0 0 0 0 0 0 0 0 0 0 0 0 0 0.25 0"/>
<feBlend mode="normal" in2="BackgroundImageFix" result="effect1_dropShadow_2_512"/>
<feBlend mode="normal" in="SourceGraphic" in2="effect1_dropShadow_2_512" result="shape"/>
</filter>
<clipPath id="clip0_2_512">
<rect width="32.1566" height="32.1566" fill="white" transform="translate(4 0.469727)"/>
</clipPath>
</defs>
</svg>
