<svg width="33" height="33" viewBox="0 0 33 33" fill="none" xmlns="http://www.w3.org/2000/svg">
<g clip-path="url(#clip0_2_512)">
<mask id="mask0_2_512" style="mask-type:luminance" maskUnits="userSpaceOnUse" x="0" y="10" width="33" height="13">
<path d="M32.6576 10.2261H0.500977V22.8699H32.6576V10.2261Z" fill="white"/>
</mask>
<g mask="url(#mask0_2_512)">
<path fill-rule="evenodd" clip-rule="evenodd" d="M3.01698 14.1311C2.95484 14.1311 2.9393 14.0987 2.97037 14.05L3.2966 13.6123C3.32767 13.5637 3.40534 13.5312 3.46748 13.5312H9.01333C9.07547 13.5312 9.091 13.5799 9.05993 13.6285L8.79584 14.05C8.76477 14.0987 8.6871 14.1473 8.6405 14.1473L3.01698 14.1311Z" fill="#89B4FA"/>
<path fill-rule="evenodd" clip-rule="evenodd" d="M0.671514 15.6227C0.609375 15.6227 0.59384 15.5902 0.62491 15.5416L0.951136 15.104C0.982206 15.0554 1.05988 15.0229 1.12202 15.0229H8.20579C8.26793 15.0229 8.299 15.0716 8.28346 15.1201L8.15919 15.5092C8.14366 15.574 8.08151 15.6065 8.01937 15.6065L0.671514 15.6227Z" fill="#89B4FA"/>
<path fill-rule="evenodd" clip-rule="evenodd" d="M4.4303 17.1146C4.36816 17.1146 4.35263 17.066 4.3837 17.0175L4.60119 16.6122C4.63225 16.5635 4.69439 16.5149 4.75653 16.5149H7.86345C7.92559 16.5149 7.95665 16.5635 7.95665 16.6284L7.92559 17.0175C7.92559 17.0822 7.86345 17.1308 7.81685 17.1308L4.4303 17.1146Z" fill="#89B4FA"/>
<path fill-rule="evenodd" clip-rule="evenodd" d="M20.5553 13.8402C19.5767 14.0996 18.9087 14.2941 17.9456 14.5535C17.7126 14.6183 17.697 14.6345 17.4951 14.3913C17.262 14.1159 17.0911 13.9375 16.7649 13.7754C15.7863 13.2729 14.8387 13.4188 13.9532 14.0186C12.8968 14.7318 12.3531 15.7855 12.3686 17.0984C12.3842 18.3952 13.2386 19.4651 14.4658 19.6434C15.5222 19.7893 16.4077 19.4003 17.1067 18.5736C17.2466 18.3952 17.3708 18.2007 17.5261 17.9737C16.9669 17.9737 16.2678 17.9737 14.528 17.9737C14.2017 17.9737 14.124 17.7631 14.2328 17.4875C14.4347 16.985 14.8076 16.142 15.0251 15.7206C15.0717 15.6233 15.1804 15.4612 15.4134 15.4612H21.068C21.0369 15.8989 21.0369 16.3365 20.9749 16.7743C20.8039 17.9414 20.3845 19.0112 19.7009 19.9513C18.5825 21.4914 17.1222 22.4478 15.2736 22.7072C13.7512 22.9178 12.3376 22.6099 11.0948 21.6373C9.94525 20.7295 9.2928 19.53 9.12192 18.0386C8.91997 16.2717 9.41708 14.6831 10.4424 13.2891C11.5453 11.7816 13.0056 10.8252 14.7921 10.4848C16.2523 10.2092 17.6504 10.3875 18.9087 11.279C19.732 11.8464 20.3223 12.6245 20.7108 13.5646C20.8039 13.7105 20.7417 13.7916 20.5553 13.8402Z" fill="#89B4FA"/>
<path d="M25.6967 22.8046C24.283 22.7722 22.9937 22.3508 21.9063 21.3782C20.9898 20.5515 20.415 19.4978 20.2286 18.2496C19.949 16.4179 20.4305 14.7969 21.4869 13.3542C22.6209 11.7981 23.9879 10.9876 25.8366 10.6471C27.4211 10.3554 28.9124 10.5175 30.2639 11.4739C31.4911 12.3492 32.2524 13.5325 32.4543 15.0888C32.7184 17.277 32.1125 19.0601 30.6679 20.5839C29.6425 21.67 28.3842 22.3508 26.9394 22.6588C26.5201 22.7397 26.1007 22.756 25.6967 22.8046ZM29.3939 16.2558C29.3784 16.0451 29.3784 15.883 29.3473 15.7209C29.0678 14.1161 27.6541 13.2083 26.1783 13.5649C24.7336 13.9054 23.8015 14.8618 23.4597 16.3855C23.1801 17.6499 23.7704 18.9304 24.8889 19.4492C25.7434 19.8383 26.5978 19.7896 27.4211 19.3519C28.6483 18.6873 29.3164 17.6499 29.3939 16.2558Z" fill="#89B4FA"/>
</g>
</g>
<defs>
<clipPath id="clip0_2_512">
<rect width="32.1566" height="32.1566" fill="white" transform="translate(0.5 0.469727)"/>
</clipPath>
</defs>
</svg>
