<svg width="33" height="34" viewBox="0 0 33 34" fill="none" xmlns="http://www.w3.org/2000/svg">
<g filter="url(#filter0_d_2_532)">
<path d="M27.1407 8.81639C26.4398 8.11511 25.4937 7.71352 24.5023 7.69637C23.511 7.67924 22.5516 8.04786 21.8268 8.72449C21.791 8.75825 21.7622 8.79877 21.7422 8.84371C21.7221 8.88863 21.7111 8.93708 21.7098 8.98628C21.7103 9.08522 21.7493 9.18009 21.8185 9.25086L22.2947 9.74381C22.3568 9.80567 22.4391 9.84309 22.5266 9.84923C22.6141 9.85537 22.7008 9.82982 22.771 9.77724C23.1487 9.49213 23.6095 9.33856 24.0827 9.33998C24.5169 9.33809 24.9418 9.46533 25.3034 9.70557C25.6652 9.94579 25.9472 10.2882 26.1138 10.6891C26.2803 11.09 26.324 11.5315 26.2391 11.9573C26.1541 12.3831 25.9444 12.774 25.6368 13.0803C22.6011 16.1159 18.5488 7.61046 9.35257 11.9858C9.19613 12.0589 9.05653 12.1636 8.94256 12.2934C8.82861 12.4232 8.74275 12.5751 8.69042 12.7397C8.63809 12.9043 8.62042 13.0779 8.63851 13.2496C8.65661 13.4214 8.71008 13.5875 8.79557 13.7376L10.3719 16.4642C10.5364 16.7478 10.8058 16.9556 11.122 17.0426C11.4382 17.1296 11.7759 17.089 12.0624 16.9292L12.1014 16.907L12.0708 16.9292L12.7698 16.5365C13.5489 16.0528 14.285 15.5031 14.9701 14.8933C15.0403 14.8332 15.1296 14.8001 15.2221 14.8001C15.3145 14.8001 15.4039 14.8332 15.4741 14.8933C15.5163 14.9266 15.5506 14.9688 15.5742 15.017C15.5979 15.0652 15.6102 15.1182 15.6106 15.1719C15.6116 15.2241 15.6014 15.276 15.5808 15.3241C15.5601 15.3721 15.5294 15.4152 15.4909 15.4504C14.7722 16.0883 13.9992 16.6621 13.1808 17.1654C13.1743 17.1694 13.1669 17.1715 13.1593 17.1715V17.1715C13.1523 17.1715 13.1454 17.1733 13.1393 17.1767L12.4495 17.5614C12.1541 17.7289 11.82 17.8162 11.4803 17.8149C11.1295 17.8149 10.7848 17.7231 10.4805 17.5488C10.1761 17.3743 9.92262 17.1233 9.74527 16.8206V16.8206C8.94511 15.4371 7.08762 15.0376 6.16505 16.3426C4.63348 18.5091 3.91322 21.5343 4.58735 25.1061C4.60394 25.1888 4.64841 25.2632 4.7133 25.3169C4.7782 25.3706 4.85959 25.4005 4.94384 25.4013H6.64272C6.73102 25.4013 6.81628 25.3691 6.88244 25.3106C6.94861 25.2522 6.99113 25.1715 7.00199 25.0839C7.0777 24.4828 7.37016 23.9301 7.82448 23.5294C8.27881 23.1288 8.86377 22.9076 9.46954 22.9076C10.0753 22.9076 10.6603 23.1288 11.1146 23.5294C11.5689 23.9301 11.8614 24.4828 11.9371 25.0839C11.9486 25.1718 11.9917 25.2524 12.0583 25.3109C12.1249 25.3693 12.2105 25.4014 12.2992 25.4013H13.9535C14.0418 25.4013 14.127 25.3691 14.1932 25.3106C14.2594 25.2522 14.3019 25.1715 14.3127 25.0839C14.391 24.4843 14.6845 23.9338 15.1389 23.5347C15.5931 23.1359 16.1771 22.9159 16.7817 22.9159C17.3864 22.9159 17.9703 23.1359 18.4246 23.5347C18.8788 23.9338 19.1725 24.4843 19.2506 25.0839C19.2615 25.1715 19.3041 25.2522 19.3701 25.3106C19.4363 25.3691 19.5215 25.4013 19.61 25.4013H21.2447C21.3399 25.4014 21.4311 25.3641 21.4988 25.2973C21.5666 25.2306 21.6053 25.1399 21.6068 25.0449C21.6458 22.7417 22.2669 20.0959 24.0381 18.7702C30.1736 14.1804 28.561 10.2451 27.1407 8.81639ZM20.8827 15.7602C20.8827 15.7598 20.8825 15.7594 20.8821 15.7592L20.0484 15.3404C19.8426 15.237 19.6937 15.0137 19.8053 14.8123V14.8123C19.8664 14.7023 19.9547 14.6098 20.0616 14.5436C20.1687 14.4776 20.2909 14.4401 20.4166 14.4346C20.5423 14.4292 20.6673 14.4561 20.7795 14.5128C20.8918 14.5695 20.9878 14.654 21.058 14.7584C21.1283 14.8626 21.1706 14.9832 21.181 15.1086C21.1913 15.2341 21.1693 15.36 21.1171 15.4744C21.0652 15.5882 20.9851 15.6869 20.8844 15.7611C20.8837 15.7616 20.8827 15.7611 20.8827 15.7602V15.7602Z" fill="#94E2D5"/>
</g>
<defs>
<filter id="filter0_d_2_532" x="-3.68677" y="0.469727" width="40.1566" height="40.1565" filterUnits="userSpaceOnUse" color-interpolation-filters="sRGB">
<feFlood flood-opacity="0" result="BackgroundImageFix"/>
<feColorMatrix in="SourceAlpha" type="matrix" values="0 0 0 0 0 0 0 0 0 0 0 0 0 0 0 0 0 0 127 0" result="hardAlpha"/>
<feOffset dy="4"/>
<feGaussianBlur stdDeviation="2"/>
<feComposite in2="hardAlpha" operator="out"/>
<feColorMatrix type="matrix" values="0 0 0 0 0 0 0 0 0 0 0 0 0 0 0 0 0 0 0.25 0"/>
<feBlend mode="normal" in2="BackgroundImageFix" result="effect1_dropShadow_2_532"/>
<feBlend mode="normal" in="SourceGraphic" in2="effect1_dropShadow_2_532" result="shape"/>
</filter>
</defs>
</svg>
