<svg width="33" height="33" viewBox="0 0 33 33" fill="none" xmlns="http://www.w3.org/2000/svg">
<path d="M27.6407 8.81639C26.9398 8.11511 25.9937 7.71352 25.0023 7.69637C24.011 7.67924 23.0516 8.04786 22.3268 8.72449C22.291 8.75825 22.2622 8.79877 22.2422 8.84371C22.2221 8.88863 22.2111 8.93708 22.2098 8.98628C22.2103 9.08522 22.2493 9.18009 22.3185 9.25086L22.7947 9.74381C22.8568 9.80567 22.9391 9.84309 23.0266 9.84923C23.1141 9.85537 23.2008 9.82982 23.271 9.77724C23.6487 9.49213 24.1095 9.33856 24.5827 9.33998C25.0169 9.33809 25.4418 9.46533 25.8034 9.70557C26.1652 9.94579 26.4472 10.2882 26.6138 10.6891C26.7803 11.09 26.824 11.5315 26.7391 11.9573C26.6541 12.3831 26.4444 12.774 26.1368 13.0803C23.1011 16.1159 19.0488 7.61046 9.85257 11.9858C9.69613 12.0589 9.55653 12.1636 9.44256 12.2934C9.32861 12.4232 9.24275 12.5751 9.19042 12.7397C9.13809 12.9043 9.12042 13.0779 9.13851 13.2496C9.15661 13.4214 9.21008 13.5875 9.29557 13.7376L10.8719 16.4642C11.0364 16.7478 11.3058 16.9556 11.622 17.0426C11.9382 17.1296 12.2759 17.089 12.5624 16.9292L12.6014 16.907L12.5708 16.9292L13.2698 16.5365C14.0489 16.0528 14.785 15.5031 15.47 14.8933C15.5403 14.8332 15.6296 14.8001 15.7221 14.8001C15.8145 14.8001 15.9039 14.8332 15.9741 14.8933C16.0163 14.9266 16.0506 14.9688 16.0742 15.017C16.0979 15.0652 16.1102 15.1182 16.1106 15.1719C16.1116 15.2241 16.1014 15.276 16.0808 15.3241C16.0601 15.3721 16.0294 15.4152 15.9909 15.4504C15.2693 16.0909 14.493 16.6668 13.6709 17.1715H13.6486L12.9495 17.5614C12.6541 17.7289 12.32 17.8162 11.9803 17.8149C11.6295 17.8149 11.2848 17.7231 10.9805 17.5488C10.6761 17.3743 10.4226 17.1233 10.2453 16.8206L8.75527 14.2444C5.89223 16.2664 4.15436 20.1627 5.08735 25.1061C5.10394 25.1888 5.14841 25.2632 5.2133 25.3169C5.2782 25.3706 5.35959 25.4005 5.44384 25.4013H7.14272C7.23102 25.4013 7.31628 25.3691 7.38244 25.3106C7.44861 25.2522 7.49113 25.1715 7.50199 25.0839C7.5777 24.4828 7.87016 23.9301 8.32448 23.5294C8.77881 23.1288 9.36377 22.9076 9.96954 22.9076C10.5753 22.9076 11.1603 23.1288 11.6146 23.5294C12.0689 23.9301 12.3614 24.4828 12.4371 25.0839C12.4486 25.1718 12.4917 25.2524 12.5583 25.3109C12.6249 25.3693 12.7105 25.4014 12.7992 25.4013H14.4535C14.5418 25.4013 14.627 25.3691 14.6932 25.3106C14.7594 25.2522 14.8019 25.1715 14.8127 25.0839C14.891 24.4843 15.1845 23.9338 15.6389 23.5347C16.0931 23.1359 16.6771 22.9159 17.2817 22.9159C17.8864 22.9159 18.4703 23.1359 18.9246 23.5347C19.3788 23.9338 19.6725 24.4843 19.7506 25.0839C19.7615 25.1715 19.8041 25.2522 19.8701 25.3106C19.9363 25.3691 20.0215 25.4013 20.11 25.4013H21.7447C21.8399 25.4014 21.9311 25.3641 21.9988 25.2973C22.0666 25.2306 22.1053 25.1399 22.1068 25.0449C22.1458 22.7417 22.7669 20.0959 24.5381 18.7702C30.6736 14.1804 29.061 10.2451 27.6407 8.81639ZM21.3827 15.7595L20.213 15.1719C20.2125 15.0461 20.2444 14.9223 20.3053 14.8123C20.3664 14.7023 20.4547 14.6098 20.5616 14.5436C20.6687 14.4776 20.7909 14.4401 20.9166 14.4346C21.0423 14.4292 21.1673 14.4561 21.2795 14.5128C21.3918 14.5695 21.4878 14.654 21.558 14.7584C21.6283 14.8626 21.6706 14.9832 21.681 15.1086C21.6913 15.2341 21.6693 15.36 21.6171 15.4744C21.5649 15.5888 21.4841 15.688 21.3827 15.7624V15.7595Z" fill="#94E2D5"/>
</svg>
