<svg width="33" height="33" viewBox="0 0 33 33" fill="none" xmlns="http://www.w3.org/2000/svg">
<path d="M11.5994 21.9638C11.3757 19.7393 11.1613 17.5138 10.9563 15.2873C10.9576 15.231 10.6535 15.1855 10.2783 15.1855C9.90239 15.1855 9.59766 14.8808 9.59766 14.5048V13.5955C9.59766 13.0433 10.0454 12.5955 10.5977 12.5955H13.9115C14.4638 12.5955 14.9115 12.1478 14.9115 11.5955V8.13665C14.9115 7.78572 15.0955 7.46047 15.3962 7.27964L17.4184 6.06374C18.9459 5.14593 20.0687 4.5564 20.2911 4.5564C20.827 4.5564 21.4514 5.23436 21.4514 5.81586C21.4514 6.0691 21.375 6.37994 21.2812 6.50857C21.1874 6.63586 20.3139 7.2187 19.3384 7.80153L18.0425 8.5795C17.7475 8.75657 17.5643 9.07282 17.5574 9.41677L17.531 10.7291L17.5134 11.5747C17.5017 12.135 17.9527 12.5955 18.5132 12.5955H21.814C22.3663 12.5955 22.814 13.0433 22.814 13.5955V14.4965C22.814 14.877 22.5056 15.1855 22.125 15.1855C21.7708 15.1855 21.4743 15.454 21.4394 15.8065L20.8391 21.862L20.2654 27.6374C20.2146 28.1489 19.7843 28.5385 19.2703 28.5385H13.1553C12.6411 28.5385 12.2107 28.1486 12.1601 27.6369L11.5994 21.9638Z" fill="#F38BA8"/>
</svg>
