<svg width="33" height="33" viewBox="0 0 33 33" fill="none" xmlns="http://www.w3.org/2000/svg">
<path d="M8.56113 4.11124C7.25889 4.07866 5.65063 4.75962 5.65063 4.75962L10.9686 15.5471L8.14867 27.6026C10.7225 29.779 13.5613 28.7381 13.5613 28.7381L14.8676 19.4095C15.0327 19.5657 15.2075 19.7089 15.384 19.8412C15.9509 20.2427 16.5651 20.5496 17.179 20.7858C17.7932 21.022 18.431 21.2109 19.0687 21.3527C19.494 21.4471 19.8953 21.518 20.3204 21.5653C20.1314 21.9904 20.0133 22.4392 20.037 22.9352C20.037 22.9823 20.0606 23.0295 20.1079 23.0531H20.1315C20.5802 23.2893 21.0525 23.4786 21.5721 23.5967C22.0681 23.6911 22.6116 23.7384 23.1312 23.6675C23.6744 23.5968 24.2177 23.384 24.6428 23.0298C25.0681 22.6755 25.375 22.2029 25.5641 21.7071L25.5877 21.6835V21.6599L25.6587 21.0223V20.9985C25.8948 20.8568 26.131 20.715 26.3672 20.5262C26.6506 20.29 26.9104 20.0301 27.0993 19.6994C27.2884 19.3687 27.4064 18.9672 27.3827 18.5656C27.3591 18.1878 27.2172 17.8101 27.0519 17.4794C26.8865 17.1487 26.674 16.8415 26.4379 16.558C25.9655 16.0148 25.3986 15.5662 24.7846 15.2118C24.194 14.834 23.5326 14.5266 22.8712 14.3141L22.6114 14.2431L22.3992 14.1724C22.2575 14.1252 22.1391 14.0543 22.0211 14.0072C21.7849 13.8654 21.6194 13.7236 21.5012 13.5346C21.2652 13.1804 21.2416 12.6373 21.3596 12.0704C21.3832 11.9287 21.4306 11.7869 21.4779 11.6452C21.5251 11.5035 21.5723 11.3617 21.6195 11.1963C21.6541 11.0397 21.6758 10.8805 21.6841 10.7204L24.841 7.95813C24.595 7.04982 21.8694 6.10345 21.8694 6.10345L13.7692 12.9924L9.09471 4.1732C8.92686 4.13536 8.7471 4.11585 8.56113 4.11124ZM20.2018 12.0178C20.1533 12.2702 20.1319 12.5362 20.1319 12.8024C20.1555 13.2039 20.2738 13.6531 20.5335 14.031C20.7933 14.4089 21.1474 14.6922 21.5018 14.8576C21.6761 14.9448 21.858 15.0159 22.0452 15.0702L22.3287 15.141L22.5648 15.1881C23.179 15.3535 23.7692 15.5897 24.3125 15.8968C24.8557 16.2039 25.3754 16.5817 25.8006 17.0068C26.2258 17.432 26.5565 17.9753 26.6038 18.5186C26.6274 18.8966 26.58 19.18 26.4618 19.416C26.3439 19.6758 26.1548 19.9121 25.9423 20.1246C25.8479 20.2192 25.7297 20.3135 25.6354 20.3844C25.6354 20.1717 25.6118 19.9594 25.5646 19.7467C25.541 19.6287 25.5172 19.5342 25.47 19.416C25.4229 19.3216 25.3757 19.2037 25.2575 19.1328C25.2339 19.1328 25.2101 19.1327 25.2101 19.1562C25.0683 19.5105 24.8323 19.8177 24.5726 20.0302C24.3127 20.2429 23.982 20.3372 23.6513 20.3609C23.3206 20.3845 22.9662 20.3137 22.612 20.2193C22.2576 20.1248 21.9036 20.0065 21.5493 19.8885L21.5018 19.8648C21.4309 19.8412 21.3368 19.865 21.2895 19.9122C21.1008 20.1485 20.9587 20.3608 20.7935 20.597C20.6823 20.7729 20.5798 20.9543 20.4866 21.1404C20.0613 20.975 19.6596 20.8332 19.2346 20.6679C18.644 20.4317 18.0534 20.1957 17.5102 19.9122C16.9433 19.6524 16.4004 19.3452 15.928 18.9909C15.5874 18.7354 15.2726 18.4672 15.0431 18.1605L15.3029 16.3042L20.2018 12.0178Z" fill="#FAB387"/>
</svg>
