<svg width="35" height="35" viewBox="0 0 35 35" fill="none" xmlns="http://www.w3.org/2000/svg">
<g filter="url(#filter0_d_2_542)">
<path d="M5.64495 26.0716C4.84612 26.0716 4.36976 25.1812 4.81307 24.5167L9.71077 17.1749C9.93492 16.8389 9.93492 16.4011 9.71078 16.0651L4.81302 8.72291C4.36972 8.05837 4.84609 7.16797 5.64491 7.16797H7.96967C8.30392 7.16797 8.61607 7.33497 8.80156 7.61303L14.4397 16.0651C14.6638 16.4011 14.6638 16.8389 14.4397 17.1749L8.80156 25.6266C8.61607 25.9046 8.30392 26.0716 7.96968 26.0716H5.64495Z" fill="#CBA6F7"/>
<path d="M11.9499 26.0714C11.1511 26.0714 10.6747 25.181 11.118 24.5164L16.0157 17.1747C16.2398 16.8387 16.2398 16.4008 16.0157 16.0648L11.1179 8.72266C10.6747 8.05812 11.151 7.16772 11.9498 7.16772H14.2745C14.6088 7.16772 14.9209 7.33473 15.1064 7.6128L26.3822 24.5165C26.8255 25.181 26.3492 26.0714 25.5504 26.0714H23.2261C22.8919 26.0714 22.5797 25.9044 22.3942 25.6263L19.5824 21.4112C19.1866 20.8178 18.3146 20.8178 17.9187 21.4111L15.1063 25.6264C14.9208 25.9044 14.6087 26.0714 14.2745 26.0714H11.9499Z" fill="#CBA6F7"/>
<path d="M25.8534 20.5595C25.5192 20.5595 25.2071 20.3925 25.0216 20.1144L24.2539 18.9636C23.8107 18.2991 24.287 17.4087 25.0859 17.4087H29.5729C30.1251 17.4087 30.5729 17.8564 30.5729 18.4087V19.5597C30.5729 20.112 30.1251 20.5597 29.5728 20.5597L25.8534 20.5595ZM22.7009 15.834C22.3667 15.834 22.0545 15.6669 21.869 15.3889L21.1014 14.238C20.6581 13.5735 21.1345 12.6831 21.9333 12.6831H29.5729C30.1251 12.6831 30.5729 13.1308 30.5729 13.6831V14.834C30.5729 15.3862 30.1251 15.834 29.5729 15.834H22.7009Z" fill="#CBA6F7"/>
</g>
<defs>
<filter id="filter0_d_2_542" x="-2.90381" y="0.469727" width="40.1566" height="40.1565" filterUnits="userSpaceOnUse" color-interpolation-filters="sRGB">
<feFlood flood-opacity="0" result="BackgroundImageFix"/>
<feColorMatrix in="SourceAlpha" type="matrix" values="0 0 0 0 0 0 0 0 0 0 0 0 0 0 0 0 0 0 127 0" result="hardAlpha"/>
<feOffset dy="4"/>
<feGaussianBlur stdDeviation="2"/>
<feComposite in2="hardAlpha" operator="out"/>
<feColorMatrix type="matrix" values="0 0 0 0 0 0 0 0 0 0 0 0 0 0 0 0 0 0 0.25 0"/>
<feBlend mode="normal" in2="BackgroundImageFix" result="effect1_dropShadow_2_542"/>
<feBlend mode="normal" in="SourceGraphic" in2="effect1_dropShadow_2_542" result="shape"/>
</filter>
</defs>
</svg>
