<svg width="33" height="37" viewBox="0 0 33 37" fill="none" xmlns="http://www.w3.org/2000/svg">
<g filter="url(#filter0_d_2_546)">
<path d="M16.3317 28.6057C22.9916 28.6057 28.3904 23.2069 28.3904 16.547C28.3904 9.88716 22.9916 4.48828 16.3317 4.48828C9.67183 4.48828 4.27295 9.88716 4.27295 16.547C4.27295 23.2069 9.67183 28.6057 16.3317 28.6057ZM16.3317 5.99562C17.3218 5.99562 18.4521 6.88533 19.3792 8.87184C19.5478 9.23306 19.705 9.622 19.8492 10.0356C20.0644 10.6529 19.5844 11.2713 18.9306 11.2713H13.7327C13.079 11.2713 12.599 10.6529 12.8142 10.0356C12.9584 9.62201 13.1156 9.23307 13.2842 8.87184C14.2112 6.88533 15.3415 5.99562 16.3317 5.99562ZM11.9182 8.2344C11.5986 8.91941 11.3195 9.68174 11.0873 10.5054C10.9615 10.9516 10.5616 11.2713 10.098 11.2713H8.9256C8.15543 11.2713 7.68972 10.4431 8.179 9.84835C9.00013 8.85014 10.001 8.00538 11.1321 7.36358C11.6469 7.07152 12.1685 7.69812 11.9182 8.2344V8.2344ZM9.42104 12.7787C10.036 12.7787 10.5041 13.3285 10.4389 13.94C10.3493 14.781 10.3023 15.6536 10.3023 16.547C10.3023 17.4404 10.3493 18.313 10.4389 19.154C10.5041 19.7655 10.036 20.3154 9.42104 20.3154H7.16126C6.74682 20.3154 6.37087 20.061 6.24855 19.665C5.94417 18.6796 5.78029 17.6324 5.78029 16.547C5.78029 15.4616 5.94417 14.4144 6.24855 13.429C6.37087 13.033 6.74682 12.7787 7.16126 12.7787H9.42104ZM10.098 21.8227C10.5617 21.8227 10.9615 22.1424 11.0873 22.5886C11.3195 23.4123 11.5986 24.1746 11.9182 24.8596V24.8596C12.1685 25.3959 11.6468 26.0225 11.1321 25.7305C10.001 25.0887 9.00009 24.2439 8.17897 23.2457C7.6897 22.6509 8.15541 21.8227 8.92558 21.8227H10.098ZM12.8142 23.0584C12.599 22.4411 13.079 21.8227 13.7327 21.8227H18.9306C19.5844 21.8227 20.0644 22.4411 19.8492 23.0584C19.705 23.472 19.5478 23.8609 19.3792 24.2221C18.4521 26.2087 17.3218 27.0984 16.3317 27.0984C15.3415 27.0984 14.2112 26.2087 13.2842 24.2221C13.1156 23.8609 12.9584 23.472 12.8142 23.0584ZM20.6682 19.4815C20.6056 19.9646 20.1869 20.3154 19.6997 20.3154H12.9637C12.4765 20.3154 12.0578 19.9647 11.9952 19.4816C11.8747 18.5517 11.8097 17.5677 11.8097 16.547C11.8097 15.5264 11.8747 14.5423 11.9952 13.6125C12.0578 13.1294 12.4765 12.7787 12.9637 12.7787H19.6997C20.1869 12.7787 20.6056 13.1294 20.6682 13.6125C20.7887 14.5423 20.8537 15.5264 20.8537 16.547C20.8537 17.5677 20.7887 18.5517 20.6682 19.4815ZM21.576 22.5886C21.7018 22.1424 22.1017 21.8227 22.5653 21.8227H23.7377C24.5079 21.8227 24.9736 22.6509 24.4844 23.2457C23.6632 24.2439 22.6624 25.0887 21.5313 25.7305C21.0165 26.0225 20.4948 25.3959 20.7452 24.8596V24.8596C21.0648 24.1746 21.3439 23.4123 21.576 22.5886ZM26.4148 19.665C26.2925 20.061 25.9165 20.3154 25.5021 20.3154H23.2424C22.6274 20.3154 22.1593 19.7655 22.2245 19.154C22.3141 18.313 22.361 17.4404 22.361 16.547C22.361 15.6536 22.3141 14.781 22.2245 13.94C22.1593 13.3285 22.6274 12.7787 23.2424 12.7787H25.5021C25.9165 12.7787 26.2925 13.033 26.4148 13.429C26.7192 14.4144 26.8831 15.4616 26.8831 16.547C26.8831 17.6324 26.7192 18.6796 26.4148 19.665ZM20.7452 8.2344C20.4948 7.69812 21.0165 7.07151 21.5312 7.36359C22.6623 8.00539 23.6632 8.85013 24.4843 9.84832C24.9736 10.4431 24.5079 11.2713 23.7377 11.2713H22.5654C22.1017 11.2713 21.7018 10.9516 21.576 10.5054C21.3439 9.68173 21.0648 8.9194 20.7452 8.2344V8.2344Z" fill="#89B4FA"/>
</g>
<defs>
<filter id="filter0_d_2_546" x="-3.74719" y="0.469727" width="40.1566" height="40.1565" filterUnits="userSpaceOnUse" color-interpolation-filters="sRGB">
<feFlood flood-opacity="0" result="BackgroundImageFix"/>
<feColorMatrix in="SourceAlpha" type="matrix" values="0 0 0 0 0 0 0 0 0 0 0 0 0 0 0 0 0 0 127 0" result="hardAlpha"/>
<feOffset dy="4"/>
<feGaussianBlur stdDeviation="2"/>
<feComposite in2="hardAlpha" operator="out"/>
<feColorMatrix type="matrix" values="0 0 0 0 0 0 0 0 0 0 0 0 0 0 0 0 0 0 0.25 0"/>
<feBlend mode="normal" in2="BackgroundImageFix" result="effect1_dropShadow_2_546"/>
<feBlend mode="normal" in="SourceGraphic" in2="effect1_dropShadow_2_546" result="shape"/>
</filter>
</defs>
</svg>
