<svg width="34" height="33" viewBox="0 0 34 33" fill="none" xmlns="http://www.w3.org/2000/svg">
<path fill-rule="evenodd" clip-rule="evenodd" d="M16.6138 3.00708H16.6325L16.6491 3.00729H16.744L16.7607 3.00799H16.7626L16.7792 3.00869H16.781L16.7979 3.0094L16.816 3.01009H16.8181L16.8342 3.01079H16.8362L16.8523 3.01149H16.8536L16.8704 3.0122H16.8725L16.8892 3.01359H16.8913L16.9073 3.01499H16.9088L16.9248 3.01639H16.9269L16.9436 3.01779H16.945L16.9611 3.01919H16.9632L16.9799 3.02059H16.9819L16.9988 3.02199H17.0007L17.0176 3.02339H17.0196L17.0357 3.02479H17.0378L17.0538 3.02619H17.0559L17.0726 3.02759H17.0747L17.0915 3.02968H17.0935L17.1103 3.03179L17.1278 3.03389H17.1297L17.1459 3.03599H17.1479L17.1647 3.03808H17.1668L17.1835 3.04019H17.1849L17.201 3.04229H17.2031L17.2198 3.04438H17.2218L17.2379 3.04718L17.24 3.04789L17.2568 3.05068H17.2587L17.275 3.05348H17.2762L17.2931 3.05628H17.295L17.3112 3.05908H17.3132L17.3294 3.06188H17.3307L17.3475 3.06468H17.3494L17.3656 3.06748L17.3677 3.06818L17.3838 3.07098L17.3858 3.07169L17.4019 3.07519H17.404L17.42 3.07799H17.4221L17.4382 3.08148H17.4402L17.457 3.08498H17.4584L17.4745 3.08848H17.4765L17.4926 3.09197H17.494L17.5107 3.09548L17.5128 3.09618L17.5295 3.09968H17.5309L17.547 3.10387L17.5491 3.10458L17.5651 3.10878H17.5672L17.584 3.11298L17.5853 3.11368L17.6014 3.11718L17.6035 3.11787L17.6195 3.12137L17.621 3.12208L17.637 3.12627H17.6391L17.6552 3.13047L17.6572 3.13118L17.6733 3.13537L17.6747 3.13607L17.6914 3.14028L17.6929 3.14097L17.7089 3.14517L17.711 3.14588L17.7271 3.15007H17.7285L17.7446 3.15497H17.7466L17.7634 3.15917L17.7654 3.15986L17.7815 3.16407H17.7835L17.7996 3.16896L17.8017 3.16967L17.8178 3.17456L17.8198 3.17527L17.8359 3.18016L17.838 3.18086L17.854 3.18576L17.8554 3.18646L17.8715 3.19136L17.8736 3.19206L17.8897 3.19696L17.8917 3.19766L17.9078 3.20257L17.9099 3.20326L17.9259 3.20886L17.9273 3.20956L17.9434 3.21516H17.9455L17.9616 3.22076H17.9636L17.9797 3.22636L17.9818 3.22706L17.9978 3.23266L17.9999 3.23336L18.016 3.23896L18.0174 3.23965L18.0335 3.24525L18.0355 3.24595L18.0516 3.25155L18.053 3.25226L18.0691 3.25785L18.0704 3.25856L18.0859 3.26416L18.0879 3.26486L18.1033 3.27046L18.1054 3.27115L18.1208 3.27745L18.1229 3.27815L18.1389 3.28444L18.141 3.28515L18.1564 3.29145L18.1577 3.29215L18.1739 3.29775L18.1752 3.29845L18.1914 3.30474L18.1933 3.30544L18.2096 3.31175L18.2115 3.31245L18.227 3.31874L18.229 3.31944L18.2444 3.32645L18.2458 3.32715L18.2619 3.33344L18.264 3.33414L18.2794 3.34113L18.2815 3.34184L18.2975 3.34884L18.2996 3.34953L18.3157 3.35654L18.317 3.35724L18.3332 3.36423L18.3345 3.36494L18.3499 3.37194L18.3513 3.37263L18.3667 3.37963L18.368 3.38034L18.3842 3.38733L18.3855 3.38803L18.401 3.39504L18.403 3.39573L18.4184 3.40273L18.4205 3.40344L18.4359 3.41043L18.4374 3.41113L18.4528 3.41883L18.4547 3.41953L18.4702 3.42723L18.4722 3.42793L18.4876 3.43562L18.4891 3.43633L18.5045 3.44402L18.5058 3.44472L18.5212 3.45242L18.5233 3.45312L18.5387 3.46082L18.5408 3.46152L18.5562 3.46922L18.5583 3.46992L18.5737 3.47762L18.575 3.47832L18.5904 3.48672L18.5918 3.48812L18.6073 3.49582L18.6087 3.49652L18.6233 3.50492L18.6254 3.50561L18.6408 3.51332L18.6423 3.51402L18.6577 3.52242L18.6597 3.52311L18.6744 3.53151L18.6765 3.53291L18.6919 3.54131L18.694 3.54201L18.7094 3.55041L18.7108 3.5511L18.7255 3.5595L18.7275 3.56091L18.743 3.5693L18.7444 3.57071L18.7592 3.5798L18.7605 3.5812L18.7753 3.59031L18.7773 3.591L18.7921 3.6001L18.7934 3.6008L18.8082 3.6099L18.8095 3.6113L18.8243 3.6204L18.8263 3.62179L18.8405 3.63089H18.8418L26.4544 8.29006L26.4671 8.29777L26.4684 8.29916L26.4813 8.30686L26.4832 8.30756L26.4953 8.31596L26.4967 8.31735L26.5088 8.32506L26.5101 8.32645L26.5222 8.33416L26.5236 8.33485L26.5357 8.34256L26.537 8.34325L26.549 8.35096L26.5505 8.35166L26.5626 8.35936L26.5645 8.36006L26.5766 8.36846L26.578 8.36915L26.5901 8.37755L26.5921 8.37825L26.6042 8.38596L26.6055 8.38665L26.6176 8.39505L26.6189 8.39645L26.6311 8.40485L26.6324 8.40624L26.6438 8.41394L26.6458 8.41464L26.6579 8.42304L26.6593 8.42374L26.6714 8.43214L26.6727 8.43284L26.6841 8.44124L26.6855 8.44193L26.6968 8.45034L26.6983 8.45103L26.7097 8.45943L26.711 8.46084L26.7224 8.46924L26.7237 8.46994L26.7352 8.47904L26.7372 8.48043L26.7487 8.48883L26.75 8.48954L26.7614 8.49793L26.7627 8.49864L26.7741 8.50703L26.7756 8.50843L26.7869 8.51683L26.7883 8.51753L26.7997 8.52593L26.801 8.52732L26.8125 8.53573L26.8138 8.53713L26.8252 8.54623L26.8273 8.54762L26.8379 8.55672L26.84 8.55813L26.8514 8.56722L26.8535 8.56792L26.8648 8.57702L26.8662 8.57841L26.8777 8.58752L26.879 8.58892L26.8898 8.59801L26.8917 8.59942L26.9032 8.60922L26.9052 8.61132L26.9267 8.62951L26.9294 8.63161L26.9509 8.65051L26.9536 8.6526L26.9757 8.67151L26.9784 8.67361L27.0005 8.6925L27.0032 8.6946L27.0248 8.7135L27.0274 8.7163L27.049 8.73519L27.0516 8.73729L27.0724 8.75689L27.0751 8.75899L27.096 8.77859L27.0987 8.78069L27.1195 8.80099L27.1222 8.80308L27.1424 8.82268L27.1451 8.82479L27.1658 8.84507L27.1685 8.84787L27.1887 8.86817L27.1914 8.87097L27.2116 8.89127L27.2143 8.89407L27.2337 8.91437L27.2364 8.91717L27.2558 8.93816L27.2585 8.94096L27.2781 8.96196L27.2802 8.96476L27.2996 8.98576L27.3023 8.98856L27.3211 9.00955L27.3238 9.01235L27.3425 9.03335L27.3452 9.03615L27.364 9.05714L27.3667 9.05994L27.3856 9.08164L27.3883 9.08444L27.4065 9.10684L27.4084 9.10964L27.4272 9.13133L27.4299 9.13413L27.448 9.15653L27.4507 9.15932L27.4689 9.18172L27.4709 9.18452L27.489 9.20693L27.4918 9.20971L27.5092 9.23212L27.5112 9.23492L27.5287 9.25732L27.5314 9.26011L27.5489 9.28321L27.5509 9.28601L27.5676 9.3091L27.5697 9.3119L27.5864 9.335L27.5885 9.3378L27.6053 9.36089L27.6073 9.3644L27.6241 9.3882L27.6262 9.391L27.6429 9.41408L27.6449 9.41759L27.661 9.44139L27.6631 9.44419L27.6792 9.46798L27.6812 9.47079L27.6973 9.49458L27.6994 9.49808L27.7148 9.52187L27.7168 9.52537L27.7323 9.54986L27.7343 9.55336L27.7491 9.57716L27.7511 9.57996L27.7659 9.60375L27.7679 9.60655L27.7833 9.63106L27.7854 9.63386L27.8002 9.65835L27.8021 9.66185L27.8163 9.68634L27.8183 9.68984L27.8331 9.71434L27.8351 9.71784L27.8492 9.74233L27.8513 9.74583L27.8653 9.77103L27.8673 9.77383L27.8807 9.79902L27.8828 9.80252L27.8963 9.82772L27.8982 9.83122L27.9117 9.85642L27.9136 9.85992L27.9271 9.88511L27.9284 9.88862L27.9419 9.91451L27.9432 9.918L27.956 9.9439L27.9574 9.9474L27.9701 9.9733L27.9722 9.9761L27.9843 10.0027L27.9855 10.0062L27.9984 10.0321L27.9997 10.0356L28.0118 10.0615L28.0138 10.065L28.0253 10.0916L28.0266 10.0951L28.038 10.1217L28.0393 10.1252L28.0508 10.1518L28.052 10.1553L28.0635 10.1819L28.0649 10.1854L28.0756 10.212L28.077 10.2155L28.0877 10.2421L28.0891 10.2456L28.0991 10.2729L28.1005 10.2763L28.1106 10.3029L28.1119 10.3065L28.122 10.3337L28.1233 10.3372L28.1333 10.3645L28.1348 10.368L28.1448 10.3953L28.1462 10.3988L28.1556 10.4261L28.1569 10.4296L28.1656 10.4569L28.167 10.4604L28.1758 10.4877L28.1771 10.4912L28.1858 10.5185L28.1871 10.522L28.1959 10.55L28.1966 10.5535L28.2046 10.5808L28.206 10.5843L28.214 10.6123L28.2148 10.6158L28.2227 10.6438L28.2241 10.6473L28.2321 10.6753L28.2335 10.6788L28.2409 10.7068L28.2423 10.7103L28.2496 10.7383L28.2503 10.7418L28.2571 10.7698L28.2584 10.774L28.2658 10.8027L28.2665 10.8062L28.2732 10.8349L28.2744 10.8384L28.2805 10.8671L28.2819 10.8706L28.2886 10.8993L28.2892 10.9035L28.2953 10.9322L28.2961 10.9357L28.3021 10.9643L28.3027 10.9678L28.3081 10.9965L28.3088 11L28.3142 11.0287L28.3148 11.0322L28.3202 11.0609L28.3209 11.0644L28.3255 11.0938L28.3263 11.0973L28.3309 11.126L28.3316 11.1302L28.3363 11.1596L28.337 11.1638L28.3411 11.1932L28.3417 11.1974L28.3457 11.2261V11.2289L28.3478 11.2443V11.2457L28.349 11.2604V11.2625L28.3511 11.2772V11.2786L28.3532 11.2933V11.2954L28.3551 11.3101L28.3559 11.3122L28.3578 11.3269V11.329L28.3592 11.3437L28.3598 11.3451L28.3611 11.3598L28.3619 11.3619L28.3632 11.3766V11.3787L28.3645 11.3934L28.3653 11.3955L28.3665 11.4102L28.3672 11.4123L28.3686 11.427V11.4291L28.3699 11.4438V11.4459L28.3713 11.4606V11.4627L28.3726 11.4774V11.4795L28.374 11.4942V11.4963L28.3746 11.511V11.5131L28.3753 11.5285V11.5305L28.3766 11.546V11.5474L28.3773 11.562V11.5642L28.378 11.5789V11.581L28.3786 11.5956V11.5977L28.3793 11.6124V11.6145L28.38 11.6299V11.632L28.3807 11.6467V11.6488L28.3813 11.6635V11.6649L28.382 11.6796V21.4502L28.3813 21.4662V21.4865L28.3807 21.5025V21.5047L28.38 21.5201L28.3793 21.5376V21.5397L28.3786 21.5551V21.5565L28.378 21.5719V21.574L28.3773 21.5894L28.3766 21.5915L28.3759 21.6069V21.6089L28.3753 21.6243V21.6258L28.3746 21.6419V21.644L28.3732 21.6601L28.3719 21.6775V21.6797L28.3705 21.6951V21.6972L28.3699 21.7125V21.7146L28.3686 21.73V21.7322L28.3672 21.7476V21.7496L28.3659 21.765V21.7672L28.3645 21.7826L28.3638 21.7839L28.3626 21.8L28.3619 21.8021L28.3605 21.8175V21.8197L28.3592 21.8351L28.3584 21.8371L28.3565 21.8525V21.8547L28.3544 21.8701L28.3524 21.8868V21.889L28.3505 21.9044L28.3498 21.9064L28.3478 21.9226L28.3471 21.9246L28.3451 21.94L28.3444 21.9421L28.3424 21.9576V21.9596L28.3403 21.975V21.9771L28.3384 21.9925L28.3376 21.9947L28.3357 22.0101L28.335 22.0121L28.3323 22.0275V22.029L28.3303 22.0442V22.0457L28.3276 22.0611L28.3269 22.0633L28.3249 22.0785L28.3242 22.0807L28.3222 22.0961L28.3195 22.1128V22.1143L28.3169 22.1297L28.3142 22.1465V22.1486L28.3115 22.1632L28.3108 22.1654L28.3081 22.1801L28.3074 22.1822L28.3048 22.1975L28.304 22.1997L28.3007 22.2151L28.2973 22.2318V22.2333L28.2946 22.248V22.25L28.2913 22.2655V22.2669L28.2886 22.2823L28.2879 22.2837L28.2846 22.2984L28.2813 22.3145V22.3165L28.2779 22.3312L28.2771 22.3334L28.2738 22.3481L28.2732 22.3501L28.2698 22.3649L28.2692 22.3662L28.2658 22.381L28.2651 22.3823L28.2617 22.397L28.2611 22.3992L28.2571 22.4139L28.2563 22.4159L28.253 22.4307L28.2523 22.4328L28.2483 22.4474V22.4496L28.2442 22.465L28.2436 22.4671L28.2396 22.4817V22.4839L28.2355 22.4986L28.2348 22.5006L28.2308 22.5153L28.2302 22.5175L28.2261 22.5329L28.2254 22.5342L28.2214 22.549L28.2208 22.5503L28.2167 22.565L28.216 22.5672L28.2113 22.5818L28.2106 22.5839L28.2067 22.5987L28.206 22.6L28.2019 22.6148L28.2013 22.6168L28.1973 22.6315L28.1966 22.633L28.1919 22.6476L28.1912 22.6497L28.1865 22.6645L28.1858 22.6665L28.1811 22.6812L28.1804 22.6834L28.1758 22.698L28.175 22.7001L28.1704 22.7148L28.1697 22.7162L28.165 22.7309L28.1643 22.7331L28.1596 22.7477L28.1589 22.7498L28.1542 22.7646L28.1535 22.7659L28.1489 22.7806L28.1481 22.7826L28.1435 22.7974L28.1429 22.7995L28.1375 22.8135L28.1368 22.8156L28.1321 22.8295L28.1314 22.8317L28.1266 22.8457L28.126 22.8478L28.1212 22.8625L28.1206 22.8646L28.1152 22.8792L28.1146 22.8814L28.1092 22.8953L28.1085 22.8975L28.1031 22.9115L28.1025 22.9135L28.0971 22.9276L28.0964 22.9296L28.091 22.9437L28.0904 22.9457L28.085 22.9598L28.0843 22.9619L28.0789 22.9758L28.0783 22.9773L28.0722 22.9913L28.0716 22.9934L28.0656 23.008L28.0649 23.0101L28.0595 23.0242L28.0589 23.0262L28.0528 23.0403L28.052 23.0423L28.046 23.0564L28.0454 23.0584L28.0393 23.0725L28.0387 23.0738L28.0326 23.0879L28.032 23.09L28.0259 23.1039L28.0253 23.1053L28.0191 23.1193L28.0185 23.1207L28.0124 23.1348L28.0118 23.1361L28.0057 23.1502L28.0051 23.1515L27.9984 23.1656L27.9976 23.1669L27.9909 23.1802L27.9903 23.1823L27.9843 23.1964L27.9836 23.1977L27.9768 23.211L27.9762 23.2131L27.9701 23.2271L27.9695 23.2285L27.9628 23.2425L27.962 23.2446L27.9553 23.2586L27.9547 23.26L27.948 23.2733L27.9473 23.2748L27.9405 23.2887L27.9399 23.2908L27.9332 23.3048L27.9326 23.3069L27.9257 23.3209L27.9244 23.323L27.9178 23.3363L27.917 23.3377L27.9103 23.3517L27.9097 23.3538L27.903 23.3678L27.9023 23.3699L27.8949 23.3832L27.8936 23.3846L27.8861 23.3979L27.8855 23.3992L27.8781 23.4126L27.8774 23.414L27.87 23.4272L27.8694 23.4287L27.8619 23.442L27.8613 23.4433L27.8538 23.4567L27.8532 23.4587L27.8459 23.4721L27.8452 23.4735L27.8378 23.4867L27.8371 23.4889L27.8297 23.5021L27.8284 23.5036L27.821 23.5169L27.8196 23.5182L27.8123 23.5316L27.8115 23.533L27.8042 23.5462L27.8035 23.5484L27.7954 23.5616L27.7948 23.5631L27.7873 23.5757L27.7867 23.5777L27.7794 23.5903L27.7779 23.5918L27.77 23.605L27.7692 23.6072L27.7612 23.6198L27.7598 23.6211L27.7517 23.6337L27.7511 23.6352L27.7431 23.6485L27.7417 23.6506L27.7336 23.6632L27.7323 23.6645L27.7242 23.6771L27.7235 23.6786L27.7154 23.6919L27.7148 23.6932L27.7067 23.7058L27.7054 23.7073L27.6967 23.7199L27.696 23.7212L27.6879 23.7338L27.6873 23.7353L27.6785 23.7479L27.6779 23.7492L27.6698 23.7618L27.6685 23.7633L27.6604 23.7759L27.6591 23.7772L27.6503 23.7898L27.6489 23.7913L27.641 23.8039L27.6402 23.8052L27.6314 23.8178L27.6302 23.82L27.622 23.8326L27.6208 23.8339L27.612 23.8465L27.6107 23.848L27.602 23.8606L27.6006 23.8619L27.5918 23.8745L27.5905 23.876L27.5818 23.8886L27.5811 23.8899L27.5724 23.9018L27.571 23.9032L27.5622 23.9151L27.5616 23.9166L27.5522 23.9284L27.5509 23.9298L27.5422 23.9418L27.5414 23.9431L27.5328 23.9557L27.5314 23.9572L27.522 23.9698L27.5207 23.9711L27.5112 23.983L27.5099 23.9844L27.5005 23.9963L27.4999 23.9978L27.4903 24.0095L27.489 24.011L27.4797 24.0229L27.4782 24.0243L27.4689 24.0362L27.4676 24.0375L27.4582 24.0495L27.4568 24.0509L27.4474 24.0627L27.4467 24.0642L27.4373 24.0761L27.4359 24.0775L27.4259 24.0894L27.4246 24.0907L27.4151 24.1027L27.4138 24.1041L27.4044 24.1159L27.403 24.1174L27.3936 24.1293L27.3923 24.1307L27.3829 24.1426L27.3815 24.1439L27.3721 24.1552L27.3708 24.1565L27.3607 24.1685L27.3594 24.1699L27.35 24.1817L27.3486 24.1832L27.3386 24.1951L27.3373 24.1965L27.3278 24.2084L27.3265 24.2097L27.3164 24.221L27.315 24.2223L27.305 24.2336L27.3036 24.2349L27.2935 24.2462L27.2923 24.2475L27.2821 24.2588L27.2808 24.2601L27.2706 24.2714L27.2694 24.2727L27.2593 24.284L27.2579 24.2853L27.2479 24.2965L27.2465 24.298L27.2364 24.3091L27.2351 24.3106L27.2243 24.3217L27.223 24.3232L27.2129 24.3343L27.2116 24.3358L27.2014 24.3463L27.2002 24.3476L27.1894 24.3589L27.1874 24.3602L27.1766 24.3714L27.1753 24.3728L27.1645 24.3834L27.1632 24.3847L27.1524 24.396L27.1511 24.3973L27.1403 24.4079L27.1391 24.4092L27.1283 24.4197L27.127 24.4212L27.1162 24.4316L27.1147 24.4331L27.1041 24.4435L27.1027 24.4449L27.092 24.4555L27.0906 24.4568L27.0799 24.4674L27.0785 24.4687L27.0672 24.4792L27.0657 24.48L27.0551 24.4904L27.0536 24.4918L27.0422 24.5023L27.0409 24.5037L27.0295 24.5143L27.0282 24.5149L27.0167 24.5254L27.0153 24.5269L27.004 24.5366L27.0019 24.538L26.9905 24.5478L26.9892 24.5492L26.9778 24.5597L26.9763 24.5612L26.965 24.5716L26.9636 24.573L26.9522 24.5835L26.9509 24.5849L26.9394 24.5947L26.9381 24.5961L26.9261 24.6059L26.9246 24.6066L26.9132 24.6164L26.9119 24.6178L26.9005 24.6276L26.8984 24.629L26.8871 24.6387L26.8857 24.6402L26.8742 24.65L26.8729 24.6513L26.8615 24.6613L26.8602 24.6626L26.8481 24.6724L26.8467 24.6739L26.8352 24.6828L26.834 24.6843L26.8219 24.6941L26.8206 24.6956L26.8085 24.7053L26.8071 24.7067L26.795 24.7165L26.7937 24.7179L26.7816 24.7277L26.7802 24.7284L26.7681 24.7375L26.7668 24.7382L26.7547 24.7473L26.7533 24.7479L26.7412 24.7571L26.7392 24.7577L26.7271 24.7668L26.7258 24.7683L26.7137 24.7774L26.7124 24.7788L26.7003 24.7879L26.6989 24.7892L26.6868 24.7983L26.6847 24.7998L26.6727 24.8089L26.6714 24.8096L26.6586 24.8187L26.6566 24.8194L26.6438 24.8285L26.6424 24.8298L26.6297 24.8389L26.6284 24.8404L26.6155 24.8487L26.6143 24.8502L26.6015 24.8593L26.6001 24.8606L26.588 24.8697L26.5861 24.8712L26.5732 24.8795L26.5719 24.8803L26.5592 24.8886L26.5571 24.8893L26.5444 24.8977L26.543 24.8992L26.5303 24.9075L26.529 24.909L26.5161 24.9173L26.5148 24.9181L26.5021 24.9264L26.5 24.9272L26.4873 24.9355L26.4859 24.937L26.4732 24.9453L26.4711 24.9461L26.4584 24.9544L26.4563 24.9559L26.4436 24.9642L26.4415 24.9657L26.4281 24.9741L26.4269 24.9755L26.414 24.9831L26.4121 24.9839L26.3992 24.9915L26.3979 24.993L26.3844 25.0013L26.3825 25.0028L26.369 25.0104L26.3677 25.0119L26.3549 25.0195L26.3529 25.0202L26.3394 25.028L26.3375 25.0286L26.324 25.0363L26.3227 25.0371L26.3099 25.0447L18.5199 29.5667L18.5072 29.5744L18.5051 29.5752L18.4924 29.5828L18.4903 29.5842L18.4776 29.5913L18.4756 29.5919L18.4628 29.5989L18.4615 29.5996L18.4487 29.6067L18.4467 29.6073L18.4339 29.6143L18.432 29.615L18.4191 29.6221L18.4172 29.6228L18.4044 29.6297L18.403 29.6304L18.3903 29.6374L18.3889 29.6382L18.3761 29.6445L18.3748 29.6451L18.3613 29.6521L18.36 29.6536L18.3473 29.6605L18.3459 29.6612L18.3332 29.6675L18.3317 29.6682L18.319 29.6745L18.3177 29.6753L18.3049 29.6822L18.3036 29.6829L18.2902 29.6892L18.2888 29.6899L18.2761 29.6962L18.2746 29.6968L18.2613 29.7031L18.2598 29.7039L18.2471 29.7102L18.2458 29.7109L18.2331 29.7172L18.231 29.7186L18.2175 29.7248L18.2162 29.7257L18.2027 29.7311L18.2015 29.7319L18.1881 29.7382L18.1867 29.7396L18.1733 29.7459L18.1712 29.7466L18.1585 29.7522L18.1571 29.7529L18.1437 29.7591L18.1423 29.76L18.1289 29.7654L18.1275 29.7662L18.1141 29.7717L18.1128 29.7725L18.0993 29.778L18.0973 29.7788L18.0839 29.7843L18.0818 29.7851L18.0685 29.7906L18.0664 29.7914L18.0537 29.7969L18.0522 29.7977L18.0389 29.8026L18.0375 29.8032L18.0241 29.8089L18.022 29.8095L18.0086 29.8152L18.0066 29.8158L17.9932 29.8215L17.9911 29.8221L17.9778 29.8271L17.9757 29.8277L17.9622 29.8334L17.9603 29.834L17.9468 29.839L17.9455 29.8397L17.932 29.8446L17.93 29.8453L17.9165 29.8501L17.9146 29.8509L17.9011 29.8558L17.8991 29.8564L17.8857 29.8614L17.8843 29.8621L17.8709 29.867L17.8575 29.8718L17.8554 29.8726L17.8413 29.8768L17.8394 29.8775L17.8259 29.8817L17.8246 29.8824L17.8111 29.8872L17.8098 29.888L17.7956 29.8922L17.7936 29.8929L17.7802 29.897L17.7781 29.8978L17.7648 29.902L17.7627 29.9026L17.7486 29.9076L17.7459 29.9083L17.719 29.9167L17.7156 29.9181L17.6881 29.9265L17.6848 29.9272L17.6572 29.9356L17.6539 29.9363L17.6264 29.9439L17.6229 29.9454L17.5954 29.953L17.592 29.9538L17.5645 29.9615L17.5605 29.9621L17.533 29.9691L17.5295 29.9699L17.502 29.9769L17.498 29.9775L17.4705 29.9845L17.4671 29.9853L17.4395 29.9916L17.4361 29.9923L17.408 29.9986L17.404 29.9993L17.3757 30.0055L17.3723 30.0062L17.3442 30.0118L17.3408 30.0125L17.3132 30.0175L17.3098 30.0181L17.2823 30.0238L17.2789 30.0244L17.2508 30.0294L17.2474 30.0301L17.2191 30.0349L17.2158 30.0357L17.1876 30.0399L17.1841 30.0405L17.156 30.0448L17.1526 30.0455L17.1245 30.0496L17.121 30.0503L17.0928 30.0546L17.0888 30.0553L17.0605 30.0587L17.0572 30.0594L17.029 30.0629L17.0257 30.0637L16.9974 30.0672L16.9692 30.07H16.9659L16.9376 30.072L16.9342 30.0728L16.9061 30.0748H16.9027L16.8744 30.077H16.8711L16.8429 30.0791L16.8389 30.0798L16.8106 30.0818H16.8073L16.7791 30.0833H16.7758L16.7475 30.0846H16.7435L16.7152 30.0854H16.7118L16.6837 30.0861H16.6803L16.652 30.0867H16.5526L16.5244 30.0861L16.4961 30.0854H16.4921L16.464 30.0846L16.4352 30.0833L16.4318 30.0826L16.4035 30.0811H16.4002L16.372 30.0798L16.3687 30.0791L16.3404 30.0776H16.337L16.3088 30.0755L16.3055 30.0748L16.2772 30.072L16.2732 30.0713L16.2449 30.0685L16.2409 30.0679L16.2128 30.065L16.2094 30.0644L16.1811 30.0616H16.1778L16.1496 30.0587L16.1463 30.0581L16.118 30.0546H16.114L16.0857 30.0511L16.0817 30.0503L16.0535 30.0461L16.0502 30.0455L16.0219 30.0412L16.0185 30.0405L15.9904 30.0364L15.987 30.0357L15.9587 30.0314L15.9554 30.0307L15.9279 30.0259H15.9258L15.8976 30.0203L15.894 30.0196L15.8664 30.014L15.863 30.0133L15.8355 30.0077L15.8322 30.007L15.8046 30.0014L15.8005 30.0007L15.7726 29.9951L15.7693 29.9944L15.7417 29.988L15.7377 29.9867L15.7101 29.9804L15.7067 29.9797L15.6792 29.9727L15.6755 29.9712L15.648 29.9643L15.6446 29.9628L15.617 29.9552L15.6136 29.9545L15.5861 29.9467L15.5827 29.9454L15.5552 29.9376L15.5519 29.9363L15.5244 29.9285L15.5209 29.9272L15.4934 29.9187L15.4894 29.9174L15.4618 29.9089L15.4585 29.9076L15.4308 29.8992L15.4275 29.8978L15.4 29.8894L15.3966 29.8887L15.3699 29.8796L15.3672 29.8789L15.3531 29.874H15.3512L15.3378 29.8698L15.3358 29.869L15.3224 29.8642L15.3203 29.8635L15.307 29.8586L15.3049 29.8579L15.2915 29.8529L15.2895 29.8523L15.276 29.8474L15.274 29.8466L15.2605 29.8418L15.2593 29.8411L15.2457 29.8362L15.2445 29.8355L15.231 29.8306L15.2297 29.8299L15.2163 29.8243L15.2142 29.8236L15.2007 29.818L15.1988 29.8173L15.1853 29.8117L15.184 29.811L15.1705 29.8054L15.1686 29.8047L15.1551 29.7991L15.1538 29.7984L15.1403 29.7928L15.1383 29.7921L15.1248 29.7865L15.1236 29.7858L15.11 29.7802L15.1088 29.7795L15.0953 29.7739L15.0933 29.7732L15.0798 29.7676L15.0778 29.7669L15.0644 29.7613L15.0623 29.7606L15.0489 29.755L15.0469 29.7543L15.0335 29.7487L15.0321 29.748L15.0187 29.7417L15.0167 29.7411L15.0039 29.7348L15.0025 29.734L14.9891 29.7277L14.9877 29.727L14.9743 29.7207L14.9731 29.72L14.9596 29.7144L14.9575 29.7137L14.9448 29.7074L14.9428 29.7068L14.9293 29.7005L14.9273 29.6997L14.9145 29.6934L14.9132 29.692L14.9004 29.6857L14.8991 29.6851L14.8864 29.6788L14.8849 29.678L14.8716 29.6717L14.8702 29.6703L14.8568 29.6633L14.8554 29.6619L14.8426 29.6556L14.8407 29.6549L14.8272 29.6486L14.8259 29.6473L14.813 29.6402L14.8111 29.6395L14.7976 29.6325L14.7963 29.6319L14.7836 29.6248L14.7815 29.6241L14.7688 29.6171L14.7674 29.6165L14.7547 29.6095L14.7526 29.608L14.7399 29.601L14.7386 29.6004L14.7257 29.5933L14.7244 29.5926L14.7117 29.5856L14.7096 29.5842L14.6969 29.5772L14.6955 29.5765L14.6827 29.5689L14.6807 29.5674L14.668 29.5604L14.6659 29.5598L14.6532 29.5527L14.6511 29.552L14.6384 29.545L14.6364 29.5444L14.6236 29.5366L14.6217 29.5359L14.6096 29.5283L14.6075 29.5275L14.5954 29.5199L7.55327 25.2379L7.53782 25.2281L7.53647 25.2273L7.52169 25.2184L7.51967 25.2176L7.50422 25.2085L7.5022 25.2078L7.48743 25.198L7.48608 25.1973L7.4713 25.1876L7.46996 25.1861L7.45517 25.1763L7.45383 25.175L7.43905 25.1652L7.43703 25.1644L7.42225 25.1553L7.42023 25.1539L7.40545 25.1441L7.40411 25.1427L7.38932 25.1329H7.39276L7.37798 25.1231L7.37596 25.1218L7.36118 25.112L7.35983 25.1105L7.34505 25.1007L7.34317 25.0994L7.32839 25.0888L7.32637 25.0875L7.31159 25.0769L7.31024 25.0755L7.29546 25.0658L7.29411 25.0643L7.27933 25.0538L7.278 25.0525L7.26322 25.0419L7.26187 25.0406L7.24776 25.03L7.24574 25.0286L7.23129 25.0182L7.22995 25.0167L7.21584 25.0063L7.21416 25.0048L7.20005 24.9943L7.19823 24.993L7.18413 24.9824L7.18279 24.9817L7.16868 24.9713L7.16734 24.9698L7.15342 24.9594L7.15208 24.9579L7.13824 24.9474L7.13622 24.9468L7.12211 24.9362L7.12078 24.9349L7.10667 24.9236L7.10532 24.9223L7.09121 24.9118L7.08946 24.9103L7.07535 24.8992L7.07361 24.8977L7.06017 24.8866L7.05882 24.8851L7.04539 24.874L7.04404 24.8732L7.0306 24.8621L7.02926 24.8606L7.01582 24.8495L7.01448 24.848L7.00104 24.8369L6.9997 24.8354L6.98626 24.8243L6.98491 24.8228L6.97148 24.8117L6.97013 24.8102L6.95669 24.7991L6.95535 24.7977L6.94191 24.7857L6.94057 24.7851L6.92713 24.7739L6.92579 24.7725L6.91275 24.7613L6.91141 24.7599L6.89797 24.7479L6.89663 24.7466L6.88319 24.7353L6.88184 24.734L6.86841 24.7221L6.86706 24.7214L6.85389 24.7102L6.85255 24.7088L6.83978 24.6976L6.83844 24.6962L6.82567 24.6843L6.82433 24.6828L6.81156 24.671L6.81022 24.6696L6.79746 24.6576L6.79611 24.6563L6.78335 24.6444L6.782 24.643L6.76924 24.6311L6.76789 24.6296L6.75513 24.617L6.75378 24.6164L6.74102 24.6044L6.739 24.6031L6.72658 24.5905L6.72522 24.5892L6.71246 24.5772L6.71111 24.5758L6.69862 24.5632L6.69727 24.5618L6.68518 24.5492L6.68383 24.5478L6.67174 24.5352L6.6704 24.5338L6.65763 24.5212L6.65629 24.5198L6.64352 24.5072L6.64218 24.5065L6.63009 24.4939L6.62874 24.4926L6.61665 24.48L6.6153 24.4785L6.60321 24.4659L6.60187 24.4646L6.58977 24.452L6.58843 24.4505L6.57634 24.4379L6.57499 24.4366L6.5629 24.424L6.56155 24.4225L6.55013 24.4099L6.54879 24.4086L6.5367 24.396L6.53535 24.3945L6.52326 24.3812L6.5219 24.3799L6.51048 24.3665L6.50914 24.3651L6.49772 24.3519L6.49638 24.3504L6.48428 24.3371L6.48294 24.3358L6.47152 24.3224L6.47017 24.3211L6.45875 24.3078L6.45741 24.3063L6.44599 24.2931L6.44464 24.2917L6.43322 24.2783L6.43188 24.277L6.42046 24.2637L6.41979 24.2622L6.40904 24.249L6.40768 24.2475L6.39626 24.2342L6.39492 24.2329L6.38283 24.2188L6.38148 24.2175L6.37006 24.2042L6.36872 24.2028L6.3573 24.1888L6.35595 24.1873L6.3452 24.1741L6.34453 24.1726L6.33378 24.1593L6.33244 24.158L6.32168 24.1439L6.32035 24.1426L6.30892 24.1285L6.30757 24.1272L6.29682 24.1139L6.29548 24.1124L6.28406 24.0992L6.28271 24.0978L6.27197 24.0844L6.27062 24.0831L6.25987 24.069L6.25853 24.0677L6.24778 24.0536L6.24644 24.0523L6.23569 24.0384L6.23433 24.0369L6.22359 24.0229L6.22224 24.0215L6.21149 24.0075L6.21082 24.0061L6.20075 23.9921L6.1994 23.9907L6.18933 23.9767L6.18865 23.9752L6.17858 23.9613L6.17722 23.96L6.16715 23.9452L6.1658 23.9438L6.15573 23.9298L6.15438 23.9284L6.14431 23.9144L6.14364 23.9131L6.13356 23.8983L6.13289 23.8969L6.1228 23.8823L6.12213 23.8808L6.11205 23.8669L6.11138 23.8654L6.10131 23.8514L6.09996 23.85L6.08989 23.8354L6.08854 23.8339L6.07847 23.8193L6.07711 23.8171L6.06771 23.8024L6.06636 23.8011L6.05696 23.7863L6.05562 23.785L6.04621 23.7703L6.04487 23.7688L6.03547 23.7542L6.03478 23.7527L6.02538 23.7381L6.02404 23.7359L6.01463 23.7212L6.01329 23.7199L6.00387 23.7051L6.00254 23.7038L5.99313 23.6891L5.99178 23.6877L5.98238 23.673L5.98103 23.6715L5.9723 23.6569L5.97163 23.6554L5.96289 23.6408L5.96156 23.6387L5.95214 23.6239L5.9508 23.6218L5.94139 23.6072L5.94072 23.6057L5.93132 23.5903L5.93065 23.5883L5.92191 23.5736L5.92056 23.5722L5.91183 23.5575L5.91049 23.556L5.90176 23.5407L5.90041 23.5386L5.89167 23.5238L5.89101 23.5225L5.88227 23.5071L5.88159 23.5056L5.87286 23.491L5.87152 23.4889L5.86278 23.4735L5.86143 23.4713L5.8527 23.4561L5.85136 23.4539L5.8433 23.4385L5.84196 23.437L5.83321 23.4218L5.83254 23.4203L5.82448 23.4049L5.82381 23.4035L5.81575 23.3881L5.81508 23.386L5.80701 23.3706L5.80567 23.3686L5.79761 23.3532L5.79694 23.351L5.78888 23.3349L5.78821 23.3335L5.78014 23.318L5.77947 23.316L5.77141 23.3006L5.77073 23.2985L5.76267 23.2831L5.76199 23.2811L5.75461 23.2649L5.75394 23.2635L5.74588 23.2474L5.74521 23.2453L5.73714 23.2292L5.73579 23.2279L5.72841 23.2117L5.72773 23.2103L5.72034 23.1949L5.71967 23.1928L5.71228 23.1767L5.70488 23.1613L5.70355 23.1593L5.69615 23.1432L5.69548 23.1411L5.68808 23.1256L5.68742 23.1235L5.68003 23.1074L5.67935 23.1061L5.67197 23.09L5.6713 23.0885L5.66457 23.0725L5.6639 23.0711L5.65651 23.0549L5.65584 23.0536L5.64845 23.0375L5.64777 23.036L5.64039 23.0199L5.63971 23.0179L5.63299 23.0017L5.63232 23.0004L5.62493 22.9843L5.62426 22.9821L5.61686 22.9661L5.61619 22.9647L5.60948 22.9485L5.60881 22.9472L5.60208 22.9311L5.60142 22.929L5.5947 22.9129L5.59402 22.9115L5.58797 22.8953L5.58731 22.894L5.58059 22.8779L5.57991 22.8758L5.57386 22.859L5.5732 22.8575L5.56648 22.8415L5.5658 22.8394L5.55975 22.824L5.55908 22.8219L5.55237 22.8051L5.5517 22.8037L5.54564 22.7869L5.54497 22.7848L5.53893 22.768L5.53826 22.7666L5.53221 22.7498L5.53153 22.7477L5.52549 22.7309L5.52482 22.7294L5.51877 22.7127L5.5181 22.7114L5.51273 22.6945L5.51206 22.6925L5.506 22.6756L5.50533 22.6742L5.49996 22.6574L5.49929 22.6554L5.49391 22.6385L5.49324 22.6365L5.4872 22.6196L5.48653 22.6176L5.48115 22.6007L5.48047 22.5993L5.4751 22.5825L5.47442 22.5811L5.46905 22.5644L5.46838 22.5622L5.463 22.5455L5.46233 22.5433L5.45696 22.5266L5.45629 22.5244L5.45091 22.5077L5.45024 22.5056L5.44486 22.4887L5.44426 22.4867L5.43955 22.4699L5.43888 22.4686L5.43351 22.451L5.43284 22.4489L5.42813 22.4315L5.42746 22.4293L5.42275 22.4126L5.42208 22.4104L5.41738 22.3937L5.41671 22.3915L5.41201 22.374L5.41133 22.372L5.40664 22.3544L5.40596 22.3531L5.40126 22.3355L5.39588 22.3173L5.39521 22.316L5.39118 22.2991L5.39051 22.2977L5.38648 22.281V22.2795L5.38177 22.2621V22.26L5.37775 22.2432L5.37707 22.2411L5.37304 22.2242L5.37237 22.2222L5.36833 22.2046L5.36497 22.1872L5.36431 22.1857L5.36027 22.1683L5.3596 22.1668L5.35557 22.1494L5.3549 22.1479L5.35086 22.1305L5.34751 22.1123L5.34684 22.1102L5.3428 22.0926L5.34213 22.0906L5.33877 22.073L5.3381 22.0709L5.33407 22.0535L5.3334 22.052L5.33004 22.0346L5.32937 22.0325L5.326 22.015L5.32533 22.0129L5.32198 21.9953L5.31862 21.9779V21.9758L5.31526 21.9576V21.9555L5.31189 21.938L5.31122 21.9358L5.3072 21.9191V21.917L5.30384 21.8981L5.30316 21.8961L5.2998 21.8778L5.29913 21.8757L5.29644 21.8583L5.29577 21.8561L5.29309 21.8386V21.8366L5.2904 21.819V21.8169L5.28771 21.7995L5.28704 21.7973L5.28435 21.7798L5.28166 21.763L5.27898 21.7441V21.742L5.27629 21.7246V21.7224L5.2736 21.705V21.7035L5.27158 21.6853V21.6833L5.26957 21.6657V21.6644L5.26688 21.6462L5.2662 21.644L5.2642 21.6265V21.6245L5.26218 21.6062L5.26151 21.6041L5.25949 21.586V21.5839L5.25747 21.5656L5.2568 21.5635L5.25478 21.5454V21.5433L5.25277 21.525L5.25209 21.5237L5.25009 21.5055L5.24874 21.4873V21.4851L5.24673 21.467L5.24605 21.4649L5.24404 21.4467V21.4445L5.24269 21.4264L5.24202 21.4243L5.24067 21.4061V21.4039L5.23933 21.3858V21.3837L5.23798 21.3655L5.23664 21.3472V21.3452L5.23531 21.327V21.3249L5.23396 21.3067V21.2841L5.23329 21.2659V21.2638L5.23262 21.2456V21.2435L5.23194 21.2253L5.23127 21.2232L5.2306 21.205V21.1854L5.22993 21.1672V21.1652L5.22925 21.1469V12.2863L5.22993 12.2688V12.2464L5.2306 12.2282V12.1638L5.23127 12.1456V12.1442L5.23194 12.126V12.1239L5.23262 12.1057V12.1036L5.23329 12.0854V12.084L5.23396 12.0658V12.0637L5.23462 12.0455V12.0434L5.23598 12.0245V12.0224L5.23731 12.0042V12.0028L5.23798 11.9846V11.9826L5.23933 11.9643V11.9623L5.24 11.9441V11.942L5.24067 11.9238V11.9217L5.24202 11.9035V11.9014L5.24336 11.8832V11.8811L5.24538 11.8629V11.8608L5.24673 11.8426L5.2474 11.8412L5.24874 11.823V11.8216L5.25075 11.8034V11.802L5.25277 11.7838L5.25344 11.7817L5.25546 11.7635V11.7614L5.25747 11.7432V11.7418L5.25949 11.7236V11.7222L5.26151 11.704L5.26218 11.7019L5.2642 11.6837V11.6816L5.2662 11.6641V11.662L5.26822 11.6438V11.6417L5.27024 11.6235L5.27091 11.6214L5.27293 11.6039V11.6018L5.27562 11.5836V11.5815L5.27762 11.5633L5.27831 11.5612L5.28031 11.5437L5.28099 11.5416L5.28368 11.5234L5.28435 11.522L5.28704 11.5038V11.5024L5.28973 11.4842V11.4828L5.29242 11.4653L5.29309 11.4632L5.29577 11.4457V11.4436L5.30047 11.4254L5.30115 11.4233L5.30384 11.4058V11.4037L5.3072 11.3862V11.3848L5.31055 11.3673V11.3659L5.31391 11.3477L5.31458 11.3463L5.31795 11.3288L5.31862 11.3275L5.32198 11.31L5.32264 11.3079L5.326 11.2904L5.32668 11.2882L5.33004 11.2708V11.2687L5.3334 11.2512V11.2498L5.33675 11.2323L5.33742 11.2309L5.34079 11.2134L5.34146 11.212L5.34549 11.1945V11.1924L5.34953 11.1749L5.3502 11.1728L5.35355 11.1553L5.35422 11.1532L5.35826 11.1357V11.1336L5.36229 11.1161L5.36296 11.114L5.36699 11.0965V11.0944L5.37102 11.0769L5.37169 11.0755L5.37573 11.058V11.0566L5.37975 11.0391L5.38044 11.037L5.38513 11.0195V11.0181L5.38984 11.0006V10.9992L5.39453 10.9817L5.39521 10.9796L5.39991 10.9621V10.96L5.40462 10.9425L5.40529 10.9404L5.40999 10.9236L5.41066 10.9222L5.41537 10.9047L5.41604 10.903L5.42075 10.8855L5.42142 10.8834L5.42612 10.8663L5.42679 10.8649L5.43217 10.8474L5.43284 10.846L5.43755 10.8292L5.43821 10.8278L5.44291 10.8108L5.44359 10.8094L5.44829 10.792L5.44897 10.7899L5.45433 10.7729L5.45501 10.7708L5.46039 10.754V10.7526L5.46577 10.7358V10.7337L5.47113 10.7169L5.47181 10.7155L5.47719 10.6987L5.47786 10.6966L5.48323 10.6798L5.4839 10.6777L5.48928 10.6609L5.48995 10.6588L5.49532 10.642L5.49599 10.6406L5.50204 10.6238L5.50271 10.6224L5.50808 10.6056L5.50877 10.6038L5.51413 10.587L5.51481 10.5856L5.52086 10.5688L5.52153 10.5674L5.52757 10.5506V10.5492L5.53362 10.5324L5.5343 10.531L5.54034 10.5142L5.54101 10.5122L5.54706 10.4953L5.54773 10.494L5.55377 10.4772L5.55445 10.475L5.56117 10.459L5.56184 10.4576L5.56856 10.4408L5.56923 10.4394L5.57595 10.4226L5.57662 10.4205L5.58334 10.4037L5.58401 10.4016L5.59073 10.3848L5.59141 10.3827L5.59812 10.3659L5.59879 10.3638L5.60552 10.347L5.60619 10.3449L5.6129 10.3281L5.61357 10.3263L5.6203 10.3102L5.62097 10.3081L5.62768 10.292L5.62836 10.2899L5.63508 10.2731L5.63575 10.2717L5.64314 10.2549L5.64381 10.2535L5.65121 10.2374L5.65188 10.236L5.65859 10.2199L5.65927 10.2178L5.66665 10.2017L5.66732 10.2004L5.67472 10.1842L5.67539 10.1829L5.68278 10.1667L5.68345 10.1654L5.69085 10.1492L5.69152 10.1472L5.6989 10.1311L5.69958 10.1297L5.70697 10.1136L5.70765 10.1115L5.71503 10.0954L5.7157 10.094L5.7231 10.0779L5.72377 10.0765L5.73116 10.0604L5.73183 10.059L5.73923 10.0429L5.73989 10.0415L5.74796 10.0261L5.74863 10.0247L5.75669 10.0086L5.75803 10.0065L5.7661 9.99038L5.76676 9.98898L5.77483 9.97288L5.7755 9.97078L5.78356 9.95539L5.78423 9.95398L5.7923 9.93858L5.79297 9.93719L5.80103 9.92179L5.80171 9.91969L5.80976 9.9043L5.81112 9.90289L5.81918 9.88749L5.81985 9.88539L5.82791 9.87L5.82925 9.8686L5.83732 9.85319L5.83799 9.8518L5.84605 9.83641L5.8474 9.8343L5.85613 9.81891L5.8568 9.8175L5.86487 9.80211L5.86554 9.80071L5.87427 9.7853L5.87494 9.78391L5.88367 9.76851L5.88436 9.76711L5.89309 9.75171L5.89443 9.75032L5.90316 9.73491L5.90383 9.73352L5.91258 9.71812L5.91391 9.71672L5.92265 9.70132L5.92332 9.69993L5.93205 9.68452L5.9334 9.68313L5.94213 9.66773L5.9428 9.66632L5.95221 9.65093L5.95356 9.64883L5.96296 9.63343L5.96363 9.63204L5.97237 9.61734L5.97371 9.61593L5.98311 9.60123L5.98447 9.59984L5.9932 9.58444L5.99387 9.58304L6.00327 9.56834L6.00395 9.56695L6.01335 9.55225L6.01469 9.55084L6.02411 9.53545L6.02545 9.53405L6.03486 9.51935L6.03553 9.51725L6.04493 9.50255L6.0456 9.50116L6.05502 9.48646L6.05569 9.48505L6.06576 9.47036L6.06711 9.46896L6.07651 9.45426L6.07786 9.45286L6.08793 9.43816L6.0886 9.43677L6.09869 9.42207L6.09935 9.42066L6.10944 9.40596L6.11011 9.40457L6.12018 9.38987L6.12153 9.38848L6.13161 9.37378L6.13228 9.37237L6.14235 9.35767L6.1437 9.35628L6.15378 9.34228L6.15446 9.34089L6.16453 9.32619L6.16588 9.32478L6.17595 9.31078L6.1773 9.30939L6.18737 9.29538L6.18872 9.29399L6.1988 9.27999L6.20015 9.27858L6.21022 9.26459L6.21089 9.26319L6.22097 9.2492L6.22231 9.24779L6.23306 9.23379L6.23441 9.2324L6.24515 9.2184L6.2465 9.217L6.25726 9.203L6.25859 9.20161L6.26935 9.18761L6.27068 9.1862L6.28144 9.17221L6.28279 9.17011L6.29353 9.15611L6.29421 9.15471L6.30495 9.14071L6.3063 9.13932L6.31705 9.12532L6.31839 9.12391L6.32915 9.11062L6.33048 9.10921L6.34124 9.09522L6.34259 9.09382L6.35333 9.07981L6.35468 9.07842L6.3661 9.06512L6.36744 9.06372L6.37819 9.04972L6.37954 9.04833L6.39028 9.03502L6.39163 9.03363L6.40239 9.01963L6.40372 9.01823L6.41514 9.00423L6.41581 9.00283L6.42724 8.98953L6.42859 8.98814L6.44001 8.97484L6.44135 8.97344L6.45277 8.96014L6.45412 8.95874L6.46554 8.94544L6.46621 8.94405L6.47763 8.93074L6.47898 8.92935L6.4904 8.91604L6.49174 8.91465L6.50316 8.90134L6.50383 8.89995L6.51525 8.88665L6.51661 8.88525L6.5287 8.87195L6.52936 8.87056L6.54147 8.85725L6.54281 8.85586L6.55558 8.84326L6.55692 8.84186L6.56901 8.82856L6.57036 8.82716L6.58245 8.81387L6.58379 8.81246L6.59589 8.79986L6.59723 8.79847L6.60932 8.78586L6.61067 8.78447L6.62276 8.77187L6.62411 8.77047L6.63687 8.75787L6.63822 8.75647L6.65031 8.74387L6.65165 8.74248L6.66375 8.72987L6.66509 8.72848L6.67718 8.71588L6.67853 8.71448L6.69062 8.70188L6.69196 8.70047L6.70407 8.68788L6.7054 8.68649L6.71749 8.67388L6.71884 8.67248L6.73094 8.65989L6.73229 8.65848L6.74505 8.64658L6.7464 8.64519L6.75916 8.63329L6.76051 8.63189L6.77327 8.61929L6.7746 8.6179L6.78738 8.60529L6.78871 8.60459L6.80149 8.5927L6.80282 8.592L6.8156 8.5801L6.81694 8.57869L6.82971 8.5668L6.83105 8.5654L6.84382 8.5535L6.84516 8.5521L6.85793 8.5402L6.85927 8.5395L6.87271 8.52761L6.87405 8.52621L6.88749 8.51431L6.88884 8.51291L6.90227 8.50101L6.90362 8.49962L6.91706 8.48841L6.9184 8.48701L6.93184 8.47582L6.93317 8.47441L6.94595 8.46321L6.94729 8.46182L6.96073 8.45062L6.96206 8.44922L6.97551 8.43802L6.97686 8.43733L6.99029 8.42612L6.99164 8.42472L7.00506 8.41353L7.00641 8.41212L7.01986 8.40092L7.02119 8.39953L7.0353 8.38833L7.03665 8.38693L7.05008 8.37573L7.05143 8.37433L7.06554 8.36314L7.06688 8.36173L7.08099 8.35053L7.08234 8.34914L7.09577 8.33793L7.09712 8.33724L7.11123 8.32604L7.11257 8.32464L7.12601 8.31344L7.12735 8.31204L7.14146 8.30154L7.14281 8.30014L7.15692 8.28895L7.15826 8.28754L7.17237 8.27705L7.17372 8.27634L7.18783 8.26585L7.18984 8.26444L7.20395 8.25395L7.2053 8.25326L7.21941 8.24275L7.22075 8.24136L7.23485 8.23016L7.23621 8.22946L7.25099 8.21896L7.25232 8.21756L7.26643 8.20706L7.26845 8.20636L7.28256 8.19586L7.28391 8.19516L7.29801 8.18466L7.29936 8.18396L7.31414 8.17347L7.31549 8.17206L7.3296 8.16157L7.33094 8.16086L7.34572 8.15106L7.34707 8.15037L7.36118 8.13986L7.36319 8.13847L7.37798 8.12868L7.37932 8.12727L7.39409 8.11678L7.39545 8.11537L7.41022 8.10558L7.41224 8.10488L7.42702 8.09507L7.42836 8.09368L7.44314 8.08387L7.44449 8.08317L7.45927 8.07338L7.46062 8.07268L7.4754 8.06288L7.47674 8.06218L7.49152 8.05238L7.49354 8.05169L7.50831 8.04258L14.2623 3.70326L14.2769 3.69346L14.2783 3.69277L14.2931 3.68297L14.2951 3.68156L14.3099 3.67247L14.3119 3.67107L14.3267 3.66198L14.3288 3.66057L14.3436 3.65147L14.3455 3.65077L14.3609 3.64168L14.3623 3.64027L14.3771 3.63117L14.3791 3.63048L14.3939 3.62138L14.3953 3.62068L14.4107 3.61228L14.412 3.61087L14.4276 3.60247L14.4288 3.60108L14.4436 3.59268L14.4457 3.59198L14.4611 3.58358L14.4624 3.58219L14.4772 3.57379L14.4793 3.57238L14.4941 3.56398L14.496 3.56259L14.5108 3.55418L14.5122 3.55279L14.5276 3.54439L14.5289 3.54369L14.5437 3.53529L14.5458 3.5346L14.5606 3.52619L14.5625 3.52548L14.578 3.5171L14.58 3.51639L14.5954 3.508L14.5968 3.50729L14.6123 3.4996L14.6143 3.4989L14.6298 3.4912L14.6317 3.4905L14.6465 3.4828L14.6485 3.4821L14.664 3.4744L14.6654 3.4737L14.6808 3.466L14.6827 3.4653L14.6983 3.45761L14.7002 3.4562L14.7157 3.44851L14.7177 3.4478L14.7332 3.44011L14.7352 3.4394L14.7507 3.4324L14.7527 3.43171L14.7682 3.4247L14.7694 3.42331L14.7849 3.41631L14.7863 3.4156L14.8017 3.40861L14.8038 3.40722L14.8192 3.40021L14.8213 3.39951L14.8367 3.39252L14.8386 3.39181L14.8542 3.38481L14.8561 3.38412L14.8716 3.37711L14.8736 3.37641L14.8891 3.36942L14.8911 3.36872L14.9066 3.36241L14.9086 3.36171L14.9241 3.35472L14.926 3.35402L14.9422 3.34702L14.9441 3.34632L14.9603 3.33932L14.9624 3.33792L14.9778 3.33162L14.9791 3.33092L14.9952 3.32463L14.9972 3.32392L15.0127 3.31762L15.0141 3.31692L15.0302 3.31062L15.0322 3.30993L15.0483 3.30433L15.0504 3.30363L15.0664 3.29733L15.0685 3.29662L15.0846 3.29033L15.0866 3.28963L15.1027 3.28403L15.1048 3.28333L15.1208 3.27773L15.1229 3.27703L15.1383 3.27143L15.1404 3.27074L15.1565 3.26514L15.1585 3.26443L15.174 3.25884L15.176 3.25813L15.1921 3.25253L15.1934 3.25183L15.2096 3.24623L15.2115 3.24553L15.2277 3.23993L15.2298 3.23924L15.2459 3.23364L15.2479 3.23294L15.264 3.22804L15.2653 3.22734L15.2815 3.22244L15.2834 3.22174L15.2996 3.21683H15.3016L15.3178 3.21194L15.3197 3.21123L15.3359 3.20634L15.3372 3.20565L15.3534 3.20074L15.3547 3.20005L15.3708 3.19514L15.3728 3.19445L15.389 3.18954L15.391 3.18885L15.4072 3.18394L15.4091 3.18324L15.4253 3.17905L15.4272 3.17834L15.4434 3.17415L15.4447 3.17345L15.4608 3.16855L15.4625 3.16785L15.4793 3.16364H15.4806L15.4967 3.15875H15.4988L15.5153 3.15455L15.5174 3.15385L15.5341 3.14965L15.5362 3.14894L15.5523 3.14475H15.5543L15.5712 3.14056H15.5731L15.5893 3.13635L15.5912 3.13565L15.6074 3.13216L15.6094 3.13146L15.6256 3.12725L15.6275 3.12656L15.6437 3.12306H15.6456L15.6619 3.11956L15.6638 3.11885L15.68 3.11535H15.6813L15.6975 3.11186L15.6994 3.11116L15.7163 3.10766H15.7175L15.7344 3.10415L15.7357 3.10346L15.7525 3.09996L15.7546 3.09926L15.7713 3.09575L15.7734 3.09506L15.7902 3.09225H15.7922L15.8084 3.08945L15.8103 3.08876L15.8271 3.08526L15.8291 3.08456L15.8459 3.08176H15.848L15.8641 3.07896L15.8661 3.07827L15.8828 3.07547L15.8849 3.07476L15.901 3.07196H15.9024L15.9185 3.06917H15.9205L15.9372 3.06637L15.9393 3.06566L15.9561 3.06286H15.9581L15.9749 3.06006H15.977L15.9937 3.05727H15.9958L16.0126 3.05517H16.0145L16.0308 3.05306H16.0327L16.0495 3.05096L16.0516 3.05026L16.0683 3.04816L16.0697 3.04746L16.0864 3.04607H16.0885L16.1046 3.04397H16.1066L16.1227 3.04186H16.1248L16.1415 3.03977H16.1436L16.1604 3.03767H16.1623L16.1785 3.03626H16.1805L16.1973 3.03417L16.1994 3.03346L16.2161 3.03207L16.2182 3.03137L16.235 3.02996H16.2369L16.2535 3.02857H16.2555L16.2723 3.02716H16.2744L16.2911 3.02647L16.2931 3.02577L16.31 3.02436L16.3113 3.02367L16.3281 3.02297H16.3301L16.3469 3.02156L16.3651 3.02087H16.3671L16.3838 3.02017H16.3859L16.4026 3.01947H16.4047L16.4215 3.01878L16.4234 3.01807L16.4403 3.01737H16.4424L16.4591 3.01667H16.4611L16.4779 3.01598H16.4799L16.4968 3.01527H16.4987L16.5155 3.01457H16.5168L16.5337 3.01387H16.5545L16.5712 3.01318H16.6102L16.6138 3.00708ZM16.5984 4.89679H16.5873L16.5764 4.89692H16.5655L16.554 4.8972L16.5426 4.89749L16.5311 4.89783L16.5197 4.89853L16.5083 4.89924L16.4969 4.89994L16.4861 4.90064L16.4746 4.90133L16.464 4.90204L16.4532 4.90274L16.4425 4.90344L16.431 4.90413L16.4202 4.90483L16.4088 4.90624L16.3975 4.90763L16.3867 4.90904L16.3752 4.91043L16.3638 4.91184L16.3524 4.91323L16.3416 4.91464L16.3302 4.91603L16.3195 4.91744L16.3087 4.91883L16.2973 4.92024L16.2866 4.92163L16.2758 4.92304L16.2651 4.92443L16.2543 4.92584L16.2429 4.92723L16.2322 4.92933L16.2214 4.93073L16.2099 4.93283L16.1993 4.93494L16.1884 4.93703L16.1776 4.93913L16.167 4.94123L16.1562 4.94332L16.1455 4.94543L16.1347 4.94683L16.1232 4.94892L16.1126 4.95103L16.1011 4.95313L16.0903 4.95522L16.0796 4.95732L16.0688 4.95943L16.0582 4.96223L16.0473 4.96503L16.0367 4.96783L16.0259 4.96992L16.0151 4.97202L16.0044 4.97482L15.9936 4.97762L15.9829 4.98042L15.9721 4.98322L15.9614 4.98602L15.9506 4.98882L15.9398 4.99162L15.9291 4.99443L15.9183 4.99723L15.9077 5.00003L15.8969 5.00352L15.886 5.00632L15.8754 5.00982L15.8653 5.01332L15.8545 5.01681L15.8437 5.02031L15.8331 5.02382L15.8222 5.02732L15.8116 5.03082L15.8014 5.03431L15.7907 5.03781L15.7799 5.04202L15.7693 5.04551L15.7584 5.04901L15.7476 5.05322L15.737 5.05672L15.7262 5.06021L15.7161 5.06371L15.7053 5.0679L15.6947 5.07211L15.6838 5.0763L15.6738 5.08051L15.663 5.0847L15.653 5.08891L15.6429 5.09311L15.6321 5.09801L15.6213 5.1022L15.6107 5.1064L15.5999 5.1106L15.5898 5.11551L15.5797 5.1197L15.569 5.12461L15.559 5.1295L15.5488 5.1344L15.5388 5.1393L15.528 5.14419L15.5179 5.1491L15.5071 5.154L15.4971 5.15889L15.487 5.1638L15.4769 5.16869L15.4662 5.17359L15.456 5.17849L15.446 5.18339L15.436 5.18899L15.4258 5.19459L15.4158 5.19949L15.4058 5.20509L15.3956 5.20998L15.3856 5.21558L15.3755 5.22118L15.3654 5.22678L15.3553 5.23238L15.3452 5.23798L15.3351 5.24428L15.3258 5.24988L15.3157 5.25548L15.3062 5.26108L15.2962 5.26738L15.2861 5.27368L15.276 5.27998L15.2666 5.28558L15.2565 5.29187L15.2472 5.29817L15.237 5.30447L15.227 5.31077L15.2163 5.31777L8.4704 9.64869L8.45898 9.6564L8.44824 9.66339L8.43815 9.67038L8.42807 9.67739L8.418 9.68439L8.40792 9.69138L8.39784 9.69839L8.38776 9.70538L8.37769 9.71238L8.3676 9.71938L8.35753 9.72638L8.34745 9.73338L8.33738 9.74108L8.32796 9.74807L8.31856 9.75508L8.30847 9.76207L8.29907 9.76908L8.28967 9.77607L8.28025 9.78307L8.27085 9.79007L8.26145 9.79707L8.25205 9.80406L8.24263 9.81177L8.23323 9.81876L8.22383 9.82646L8.21441 9.83417L8.20501 9.84186L8.1956 9.84956L8.18619 9.85725L8.17679 9.86496L8.16805 9.87266L8.15865 9.88035L8.14923 9.88806L8.1405 9.89575L8.1311 9.90345L8.1217 9.91116L8.11296 9.91885L8.10355 9.92655L8.09481 9.93424L8.08608 9.94195L8.07735 9.95035L8.06861 9.95875L8.05988 9.96644L8.05114 9.97414L8.04241 9.98254L8.03368 9.99093L8.02494 9.99933L8.01621 10.0077L8.00748 10.0161L7.99874 10.0245L7.98999 10.0329L7.98126 10.0413L7.97253 10.0497L7.96379 10.0581L7.95506 10.0665L7.947 10.0749L7.93826 10.0833L7.9302 10.0924L7.92146 10.1008L7.91341 10.1099L7.90535 10.1183L7.89728 10.1274L7.88922 10.1358L7.88115 10.1449L7.87309 10.154L7.86435 10.1631L7.85629 10.1715L7.84824 10.1806L7.84017 10.1897L7.83211 10.1988L7.82471 10.2079L7.81666 10.217L7.80859 10.2261L7.80053 10.2352L7.79246 10.245L7.7844 10.2541L7.77702 10.2632L7.76962 10.2723L7.76155 10.2821L7.75417 10.2912L7.74611 10.3003L7.73871 10.3101L7.73133 10.3192L7.72393 10.329L7.71654 10.3388L7.70915 10.3486L7.70176 10.3584L7.69437 10.3682L7.68698 10.378L7.68026 10.3878L7.67287 10.3976L7.66547 10.4074L7.65809 10.4172L7.65069 10.427L7.64398 10.4368L7.63725 10.4466L7.63054 10.4564L7.62382 10.4669L7.61709 10.4767L7.61038 10.4865L7.60367 10.497L7.59694 10.5068L7.59022 10.5166L7.58351 10.5264L7.57678 10.5361L7.57074 10.5467L7.56402 10.5571L7.5573 10.5669L7.55058 10.5774L7.54454 10.5879L7.53849 10.5977L7.53244 10.6082L7.5264 10.6187L7.52034 10.6292L7.5143 10.6397L7.50758 10.6502L7.50087 10.6607L7.49481 10.6712L7.48876 10.6817L7.48272 10.6922L7.47667 10.7027L7.47063 10.7132L7.46458 10.7237L7.45854 10.7342L7.45249 10.7447L7.44643 10.7552L7.44039 10.7657L7.43434 10.7769L7.4283 10.7874L7.42225 10.7979L7.41621 10.8091L7.41083 10.8196L7.40545 10.8308L7.40008 10.842L7.3947 10.8532L7.38932 10.8637L7.38395 10.8742L7.37858 10.8854L7.37321 10.8959L7.36783 10.9071L7.36312 10.9176L7.35774 10.9288L7.35237 10.94L7.34699 10.9512L7.34163 10.9624L7.33625 10.9736L7.33154 10.9848L7.32684 10.996L7.32214 11.0072L7.31743 11.0184L7.31273 11.0296L7.30803 11.0408L7.30332 11.052L7.29862 11.0632L7.29392 11.0744L7.28988 11.0856L7.28519 11.0968L7.28048 11.1087L7.27577 11.1199L7.27108 11.1311L7.26637 11.1423L7.26234 11.1535L7.25763 11.1654L7.25293 11.1765L7.2489 11.1877L7.24487 11.1996L7.24084 11.2108L7.23681 11.2227L7.23277 11.2339L7.22875 11.2458L7.22471 11.2577L7.22068 11.2696L7.21732 11.2815L7.21328 11.2927L7.20926 11.3046L7.2059 11.3165L7.20254 11.3277L7.19919 11.3396L7.19515 11.3515L7.19179 11.3627L7.18843 11.3739L7.18508 11.3858L7.18104 11.3977L7.17768 11.4096L7.17432 11.4208L7.17097 11.4327L7.1676 11.4446L7.16424 11.4565L7.16088 11.4684L7.15753 11.4803L7.15484 11.4922L7.15215 11.5041L7.14879 11.516L7.1461 11.5279L7.14275 11.5398L7.14006 11.5517L7.13737 11.5636L7.13468 11.5762L7.13199 11.5881L7.1293 11.6L7.12662 11.6119L7.12393 11.6238L7.12124 11.6357L7.11855 11.6476L7.11653 11.6595L7.11386 11.6714L7.11184 11.6833L7.10982 11.6959L7.1078 11.7085L7.10579 11.7211L7.10377 11.7337L7.10175 11.7456L7.09975 11.7575L7.09773 11.7701L7.09571 11.7827L7.09369 11.7946L7.09168 11.8065L7.08966 11.8184L7.08764 11.8309L7.0863 11.8435L7.08495 11.8561L7.08362 11.868L7.0816 11.8806L7.07958 11.8925L7.07824 11.9051L7.0769 11.9177L7.07555 11.9303L7.07421 11.9429L7.07286 11.9555L7.07153 11.9681L7.07017 11.98L7.06884 11.9926L7.06749 12.0052L7.06682 12.0178L7.06548 12.0304L7.06413 12.043L7.06346 12.0556L7.06279 12.0682L7.06211 12.0808L7.06144 12.0934L7.06077 12.106L7.0601 12.1186L7.05942 12.1312L7.05875 12.1438L7.05808 12.1564L7.05741 12.169V12.1816L7.05673 12.1942L7.05606 12.2068V12.2194L7.0554 12.232V21.1066L7.05606 21.1192V21.157L7.05673 21.1689L7.05741 21.1815L7.05808 21.1941L7.05875 21.2067L7.05942 21.2193L7.0601 21.2319L7.06077 21.2445L7.06144 21.2571L7.06211 21.2697L7.06346 21.2823L7.06413 21.2949L7.0648 21.3075L7.06548 21.3201L7.06682 21.332L7.06816 21.3446L7.06951 21.3565L7.07017 21.3691L7.07153 21.381L7.07286 21.3928L7.07421 21.4047L7.07555 21.4167L7.0769 21.4292L7.07824 21.4412L7.07958 21.4531L7.08093 21.4657L7.08227 21.4783L7.08362 21.4901L7.08495 21.5027L7.08697 21.5146L7.08899 21.5265L7.09101 21.5384L7.09302 21.5504L7.09504 21.563L7.09706 21.5748L7.09906 21.5867L7.10108 21.5986L7.1031 21.6105L7.10579 21.6225L7.1078 21.6342L7.10982 21.6462L7.11184 21.6581L7.11453 21.67L7.11721 21.6819L7.11922 21.6937L7.12191 21.7057L7.1246 21.7176L7.12729 21.7295L7.12997 21.7414L7.13266 21.7532L7.13535 21.7652L7.13804 21.7771L7.14073 21.7883L7.14408 21.7995L7.14677 21.8114L7.14946 21.8233L7.15215 21.8352L7.15551 21.847L7.15819 21.8583L7.16088 21.8702L7.16357 21.8813L7.16693 21.8932L7.16962 21.9045L7.17297 21.9164L7.17633 21.9282L7.1797 21.9395L7.18306 21.9514L7.18641 21.9633L7.18977 21.9744L7.19313 21.9864L7.19717 21.9976L7.20119 22.0087L7.20523 22.02L7.20926 22.0311L7.21262 22.0424L7.21665 22.0543L7.22068 22.0654L7.22471 22.0767L7.22875 22.0878L7.23277 22.099L7.23681 22.1103L7.24084 22.1214L7.24487 22.1327L7.2489 22.1438L7.25293 22.1551L7.25763 22.1662L7.26234 22.1774L7.26637 22.1887L7.27041 22.1998L7.27443 22.2111L7.27846 22.2222L7.2825 22.2334L7.28719 22.2446L7.2919 22.2558L7.29661 22.2671L7.3013 22.2782L7.30601 22.2894L7.31072 22.3006L7.31541 22.3118L7.32012 22.3231L7.32483 22.3342L7.32952 22.3454L7.33423 22.3566L7.33894 22.3672L7.34432 22.3783L7.34968 22.3889L7.35506 22.4L7.36043 22.4104L7.36581 22.421L7.37119 22.4315L7.37656 22.442L7.38194 22.4525L7.38732 22.4629L7.39336 22.4735L7.39874 22.484L7.40411 22.4944L7.40948 22.505L7.41554 22.5155L7.42158 22.5259L7.42696 22.5365L7.43232 22.547L7.4377 22.5574L7.44374 22.568L7.44912 22.5784L7.45517 22.5882L7.46122 22.5988L7.46727 22.6086L7.47332 22.619L7.47936 22.6295L7.48541 22.6394L7.49145 22.6492L7.4975 22.659L7.50354 22.6688L7.5096 22.6792L7.51565 22.6898L7.52236 22.6996L7.52841 22.7094L7.53445 22.7198L7.5405 22.7296L7.54656 22.7395L7.55327 22.7493L7.55998 22.7591L7.56671 22.7695L7.57343 22.7793L7.58014 22.7891L7.58687 22.799L7.59358 22.8088L7.6003 22.8185L7.60702 22.8283L7.61374 22.8381L7.62113 22.8479L7.62852 22.8577L7.63524 22.8675L7.64196 22.8774L7.64867 22.8871L7.6554 22.8969L7.66278 22.906L7.67018 22.9152L7.67757 22.9249L7.68496 22.934L7.69235 22.9438L7.69974 22.9529L7.70713 22.962L7.71453 22.9712L7.72191 22.9801L7.72931 22.9892L7.73669 22.9984L7.74409 23.0075L7.75148 23.0166L7.75887 23.0257L7.76626 23.0348L7.77365 23.0439L7.78171 23.053L7.78978 23.0621L7.79717 23.0712L7.80524 23.0796L7.81329 23.0887L7.82135 23.0971L7.82942 23.1062L7.83681 23.1153L7.84487 23.1244L7.85293 23.1327L7.861 23.1412L7.86906 23.1496L7.87713 23.1579L7.88519 23.167L7.89324 23.1755L7.90131 23.1839L7.90937 23.1922L7.91744 23.2007L7.9255 23.2091L7.93424 23.2174L7.9423 23.2259L7.95037 23.2343L7.9591 23.2426L7.96715 23.2511L7.97522 23.2595L7.98395 23.2678L7.99268 23.2756L8.00142 23.2832L8.01016 23.2917L8.0189 23.3001L8.02763 23.3077L8.03637 23.3155L8.0451 23.3238L8.05383 23.3322L8.06257 23.3399L8.07197 23.3477L8.08138 23.3553L8.09079 23.3631L8.09952 23.3707L8.10825 23.3785L8.11766 23.3861L8.12639 23.3939L8.13581 23.4009L8.14454 23.4085L8.15394 23.4163L8.16335 23.4239L8.17276 23.4317L8.18149 23.4386L8.1909 23.4463L8.2003 23.4534L8.20971 23.461L8.21912 23.4688L8.22852 23.4757L8.23794 23.4827L8.24801 23.4897L8.25741 23.4968L8.26682 23.5038L8.27623 23.5107L8.28563 23.5177L8.29505 23.5247L8.30445 23.5318L8.31453 23.5387L8.3246 23.545L8.33469 23.552L8.34409 23.559L8.35416 23.5661L8.36425 23.573L8.37365 23.5793L8.38373 23.5856L8.3938 23.5919L8.40389 23.5982L8.41396 23.6045L8.42404 23.6108L8.4348 23.6171L8.44487 23.6234L8.45495 23.6297L8.46638 23.6367L15.4998 27.9201L15.5085 27.9257L15.5159 27.9298L15.524 27.934L15.5321 27.9383L15.54 27.9424L15.5475 27.9473L15.5555 27.9515L15.5636 27.9557L15.5717 27.9599L15.5797 27.9648L15.5878 27.969L15.5959 27.9733L15.604 27.9774L15.6119 27.9816L15.62 27.9858L15.6282 27.99L15.6361 27.9942L15.6442 27.9984L15.6516 28.0026L15.6597 28.0067L15.6678 28.011L15.6757 28.0145L15.6838 28.0187L15.692 28.0222L15.7001 28.0258L15.708 28.0293L15.7161 28.0334L15.7242 28.0376L15.7322 28.041L15.7403 28.0453L15.7484 28.0488L15.7564 28.0523L15.7645 28.0558L15.7726 28.0593L15.7806 28.0628L15.7887 28.0662L15.7968 28.0699L15.8048 28.0733L15.8129 28.0768L15.821 28.0796L15.8297 28.0831L15.8377 28.0866L15.8458 28.0901L15.8539 28.0936L15.8619 28.0971L15.87 28.0999L15.8781 28.1034L15.886 28.1062L15.8942 28.109L15.9029 28.1118L15.911 28.1146L15.9183 28.1174L15.9358 28.123L15.9527 28.1285L15.9694 28.1335L15.9862 28.1385L16.003 28.1433L16.0198 28.1482L16.0367 28.1531L16.0534 28.158L16.0702 28.1628L16.087 28.1671L16.1038 28.1713L16.1205 28.1754L16.1374 28.1789L16.1542 28.1832L16.171 28.1867L16.1878 28.1902L16.2045 28.1937L16.2214 28.1965L16.2382 28.2L16.2549 28.2028L16.2718 28.2056L16.2893 28.2084L16.306 28.2112L16.3235 28.2132L16.341 28.2154L16.3585 28.2175L16.3759 28.2188L16.3927 28.2203L16.4102 28.2217L16.4269 28.2231L16.4444 28.2245L16.4619 28.2258L16.4788 28.2273L16.4955 28.228L16.5123 28.2286L16.5298 28.2294H16.6157L16.6332 28.2286H16.6507L16.6682 28.228L16.6857 28.2273L16.7031 28.2258L16.7206 28.2245L16.7381 28.2238L16.7556 28.2223L16.7731 28.221L16.7904 28.2195L16.8073 28.2182L16.8248 28.216L16.8423 28.214L16.859 28.2119L16.8765 28.2097L16.8933 28.2069L16.9107 28.2042L16.9275 28.2014L16.945 28.1986L16.9618 28.1958L16.9786 28.1923L16.9955 28.1895L17.0128 28.186L17.0297 28.1825L17.0465 28.1782L17.0632 28.1748L17.0801 28.1706L17.0968 28.1663L17.1137 28.1622L17.1305 28.158L17.1472 28.1531L17.1641 28.1482L17.1808 28.1433L17.1977 28.1385L17.2151 28.1328L17.2231 28.13L17.2312 28.1272L17.2393 28.1244L17.2481 28.1216L17.256 28.1188L17.2648 28.1159L17.2729 28.1131L17.281 28.1105L17.2897 28.1076L17.2977 28.1048L17.3058 28.102L17.3146 28.0985L17.3227 28.0957L17.3313 28.0929L17.3394 28.0894L17.3475 28.0866L17.3556 28.0838L17.3636 28.081L17.3723 28.0775L17.3804 28.0747L17.3884 28.0712L17.3965 28.0677L17.4046 28.0642L17.4127 28.0607L17.4207 28.0573L17.4288 28.0536L17.4369 28.0502L17.4449 28.0467L17.453 28.0432L17.4611 28.0397L17.4691 28.0356L17.4772 28.0313L17.4853 28.0278L17.4932 28.0236L17.5013 28.0195L17.5094 28.0159L17.5174 28.0117L17.5255 28.0076L17.5336 28.0033L17.541 27.9991L17.5491 27.995L17.5572 27.9907L17.5651 27.9865L17.5732 27.9824L17.5813 27.9781L17.5893 27.9739L17.5974 27.9698L17.6055 27.9655L17.6129 27.9613L17.621 27.9572L17.6291 27.9529L17.6377 27.9481L25.4297 23.4246L25.4391 23.4197L25.4479 23.4148L25.4559 23.41L25.464 23.405L25.4721 23.4002L25.48 23.3946L25.4888 23.3896L25.4969 23.3848L25.505 23.3798L25.513 23.375L25.5211 23.3694L25.5292 23.3637L25.5371 23.3588L25.5452 23.354L25.5534 23.349L25.5615 23.3435L25.5694 23.3379L25.5775 23.3329L25.5856 23.3273L25.5936 23.3225L25.6011 23.3168L25.6084 23.3112L25.6159 23.3056L25.6232 23.3001L25.6307 23.2945L25.6386 23.2888L25.6461 23.2832L25.6541 23.2777L25.6615 23.2721L25.6689 23.2665L25.6763 23.2608L25.6836 23.2552L25.6911 23.2497L25.6991 23.2441L25.7065 23.2378L25.7139 23.2322L25.7213 23.2259L25.7287 23.2202L25.7361 23.2139L25.7435 23.2076L25.7509 23.2013L25.7583 23.1957L25.7656 23.1902L25.773 23.1839L25.7797 23.1776L25.7872 23.1713L25.7945 23.165L25.8012 23.1594L25.8087 23.1531L25.816 23.146L25.8227 23.1397L25.8302 23.1334L25.8368 23.1271L25.8435 23.1208L25.8503 23.1139L25.8577 23.1076L25.8644 23.1006L25.8712 23.0943L25.8779 23.0873L25.8846 23.0802L25.8913 23.0739L25.8981 23.067L25.9048 23.0607L25.9114 23.0537L25.9181 23.0467L25.9248 23.0398L25.9316 23.0327L25.9377 23.0257L25.9444 23.0187L25.9504 23.0118L25.9571 23.0047L25.9638 22.9977L25.9706 22.9907L25.9767 22.9838L25.9827 22.9767L25.9888 22.9697L25.9948 22.9627L26.0015 22.9557L26.0075 22.9487L26.0136 22.9417L26.0196 22.9347L26.0257 22.9277L26.0317 22.9206L26.0378 22.9137L26.0438 22.9067L26.0498 22.8991L26.0559 22.8913L26.0619 22.8837L26.068 22.8766L26.074 22.8696L26.0801 22.8626L26.0861 22.8549L26.0922 22.8479L26.0982 22.8403L26.1036 22.8333L26.109 22.8255L26.1144 22.8179L26.1197 22.8108L26.1257 22.8031L26.1311 22.7954L26.1365 22.7877L26.1419 22.7801L26.1472 22.7723L26.1526 22.7647L26.158 22.7569L26.1634 22.7493L26.1688 22.7415L26.1741 22.7339L26.1795 22.7261L26.1849 22.7185L26.1903 22.7107L26.1949 22.7031L26.1997 22.6946L26.2051 22.6863L26.2105 22.6785L26.2151 22.6709L26.2199 22.6631L26.2252 22.6548L26.2306 22.647L26.2353 22.6394L26.24 22.631L26.2447 22.6225L26.2493 22.6142L26.2541 22.6058L26.2589 22.598L26.2635 22.5897L26.2683 22.5813L26.2729 22.5736L26.2776 22.5652L26.2823 22.5567L26.287 22.5484L26.291 22.54L26.2951 22.5316L26.2998 22.5231L26.3045 22.5148L26.3085 22.5064L26.3133 22.4979L26.3179 22.4896L26.322 22.4812L26.326 22.4727L26.33 22.4636L26.3341 22.4553L26.3387 22.4469L26.3435 22.4384L26.3475 22.4301L26.3515 22.4217L26.3556 22.4132L26.3596 22.4041L26.3636 22.3958L26.3677 22.3874L26.3717 22.3783L26.3758 22.3698L26.3798 22.3615L26.3838 22.3524L26.3879 22.3433L26.3919 22.3342L26.3959 22.3257L26.3992 22.3174L26.4025 22.3083L26.406 22.2992L26.4094 22.2901L26.4127 22.2817L26.416 22.2726L26.4194 22.2636L26.4227 22.2545L26.4261 22.246L26.4294 22.2369L26.4329 22.2278L26.4362 22.2187L26.4396 22.2096L26.4429 22.2005L26.4456 22.1914L26.4483 22.1824L26.451 22.1733L26.4536 22.1642L26.4571 22.1551L26.4604 22.1459L26.4638 22.1368L26.4671 22.1277L26.4698 22.1186L26.4732 22.1095L26.4759 22.1004L26.4786 22.0914L26.4819 22.0823L26.4846 22.0732L26.4873 22.0641L26.49 22.055L26.4926 22.0459L26.4946 22.0367L26.4973 22.0276L26.5 22.0185L26.5027 22.0094L26.5054 22.0003L26.5074 21.9913L26.5094 21.9814L26.5121 21.9723L26.5142 21.9633L26.5161 21.9534L26.5188 21.9444L26.5209 21.9353L26.5228 21.9262L26.5249 21.9171L26.5269 21.9073L26.529 21.8982L26.5309 21.8891L26.5323 21.8793L26.5343 21.8695L26.5363 21.8604L26.5376 21.8506L26.5397 21.8415L26.5417 21.8317L26.5436 21.8218L26.5457 21.8129L26.5478 21.8029L26.549 21.7932L26.5511 21.7834L26.5524 21.7743L26.5544 21.7652L26.5557 21.7554L26.5571 21.7456L26.5584 21.7358L26.5599 21.726L26.5611 21.7162L26.5626 21.7065L26.5638 21.6966L26.5645 21.6868L26.5659 21.6777L26.5665 21.6679L26.5678 21.6581L26.5692 21.649L26.5705 21.6392L26.5713 21.6294L26.5719 21.6196L26.5726 21.6099L26.5732 21.6001L26.5746 21.5902L26.5753 21.5804L26.5759 21.5706L26.5766 21.5608L26.5773 21.551L26.578 21.5413L26.5786 21.5315L26.5793 21.5216L26.58 21.5118L26.5807 21.502L26.5813 21.4922L26.582 21.4824V21.4629L26.5826 21.4531V11.7644L26.582 11.7558L26.5813 11.7467V11.7376L26.5807 11.7285V11.7194L26.58 11.7103V11.7012L26.5793 11.6921L26.5786 11.6837L26.578 11.6746L26.5773 11.6655L26.5766 11.6564L26.5759 11.648L26.5753 11.6389L26.5746 11.6305L26.5739 11.6214L26.5726 11.6123L26.5719 11.6039L26.5713 11.5955L26.5699 11.5871L26.5692 11.5787L26.5678 11.5696L26.5672 11.5612L26.5659 11.5528L26.5645 11.5437L26.5638 11.5346L26.5632 11.5262L26.5618 11.5185L26.5592 11.5001L26.5571 11.4823L26.5544 11.4641L26.5517 11.4466L26.5484 11.4291L26.5451 11.4116L26.5424 11.3941L26.539 11.3766L26.535 11.3591L26.5309 11.3416L26.5269 11.3241L26.5228 11.3066L26.5188 11.2891L26.5148 11.2716L26.5107 11.2541L26.5061 11.2366L26.5013 11.2191L26.4967 11.2016L26.4913 11.1841L26.4865 11.1673L26.4813 11.1505L26.4759 11.1337L26.4705 11.1169L26.4651 11.1001L26.459 11.0833L26.453 11.0665L26.4469 11.0504L26.4409 11.0336L26.4348 11.0168L26.4288 11L26.4221 10.9839L26.416 10.9671L26.4094 10.951L26.4025 10.935L26.3959 10.9189L26.3885 10.9028L26.3818 10.8867L26.3744 10.8706L26.367 10.8545L26.3596 10.8391L26.3515 10.823L26.3441 10.8069L26.336 10.7908L26.3281 10.7754L26.32 10.76L26.3119 10.7446L26.3039 10.7292L26.2958 10.7138L26.287 10.6984L26.2783 10.683L26.2695 10.6676L26.2602 10.6522L26.2514 10.6375L26.2427 10.6228L26.2333 10.6081L26.2239 10.5934L26.2145 10.5787L26.2051 10.564L26.1957 10.5493L26.1862 10.5346L26.1762 10.5206L26.1661 10.5066L26.156 10.4926L26.1459 10.4786L26.1359 10.4646L26.1251 10.4506L26.1144 10.4366L26.1036 10.4226L26.0928 10.4086L26.0821 10.3953L26.0707 10.382L26.0599 10.3687L26.0486 10.3554L26.0371 10.3421L26.0257 10.3288L26.0142 10.3156L26.0028 10.3022L25.9907 10.2897L25.9786 10.2771L25.9665 10.2645L25.9544 10.2519L25.9423 10.2393L25.9296 10.2267L25.9168 10.2141L25.9041 10.2022L25.8913 10.1903L25.8785 10.1784L25.8658 10.1665L25.8531 10.1546L25.8395 10.1427L25.8262 10.1315L25.8127 10.1203L25.7999 10.1091L25.7858 10.0972L25.7797 10.0923L25.773 10.0867L25.7664 10.0811L25.7595 10.0755L25.7528 10.0699L25.7462 10.065L25.7395 10.0594L25.7328 10.0538L25.7253 10.0482L25.718 10.0426L25.7112 10.037L25.7045 10.0314L25.6978 10.0258L25.6911 10.0209L25.6843 10.0153L25.677 10.0097L25.6703 10.0048L25.6635 9.9999L25.6561 9.99429L25.6488 9.9894L25.6413 9.9845L25.6346 9.9796L25.6272 9.97471L25.6198 9.9698L25.6125 9.9649L25.6051 9.96001L25.5977 9.9551L25.5903 9.9502L25.5829 9.94531L25.5755 9.94041L25.5681 9.9355L25.5607 9.93131L25.5534 9.92711L25.5446 9.92221L17.9415 5.2757L17.9307 5.26884L17.921 5.26325L17.9109 5.25694L17.9009 5.25065L17.8909 5.24484L17.8809 5.23924L17.8711 5.23364L17.8611 5.22804L17.8509 5.22244L17.8409 5.21684L17.831 5.21124L17.821 5.20565L17.8109 5.20005L17.8008 5.19445L17.7907 5.18885L17.7806 5.18325L17.7706 5.17765L17.7603 5.17275L17.7502 5.16716L17.7401 5.16226L17.73 5.15735L17.72 5.15175L17.7096 5.14686L17.6994 5.14196L17.6894 5.13705L17.679 5.13216L17.6688 5.12726L17.6588 5.12306L17.6484 5.11816L17.6382 5.11326L17.628 5.10837L17.6176 5.10416L17.6076 5.09997L17.5968 5.09576L17.5865 5.09087L17.5758 5.08666L17.5651 5.08177L17.5543 5.07756L17.5439 5.07337L17.5335 5.06918L17.5229 5.06497L17.5123 5.06077L17.5015 5.05657L17.4914 5.05237L17.4813 5.04888L17.4712 5.04537L17.4604 5.04117L17.4498 5.03768L17.4396 5.03418L17.4289 5.03068L17.4181 5.02717L17.4081 5.02367L17.3973 5.02018L17.3866 5.01668L17.3758 5.01318L17.3658 5.00967L17.355 5.00618L17.3443 5.00268L17.3335 4.99918L17.3228 4.99638L17.312 4.99288L17.3012 4.99008L17.2905 4.98659L17.2797 4.98379L17.269 4.98099L17.2582 4.97819L17.2476 4.97469L17.2368 4.97189L17.2259 4.96909L17.2153 4.96698L17.2045 4.96418L17.1938 4.96138L17.183 4.95858L17.1722 4.95648L17.1615 4.95369L17.1507 4.95159L17.14 4.94949L17.1292 4.94669L17.1185 4.94458L17.1077 4.94249L17.0969 4.94039L17.0863 4.93829L17.0755 4.9362L17.0648 4.93409L17.0533 4.93199L17.0425 4.93059L17.0319 4.92919L17.021 4.92779L17.0104 4.92639L16.9996 4.9243L16.9888 4.92219L16.9781 4.92079L16.9666 4.9187L16.9558 4.91729L16.9452 4.9152L16.9344 4.91379L16.9237 4.9124L16.9129 4.91099L16.9022 4.9096L16.8914 4.90819L16.8799 4.9068L16.8693 4.90609L16.8585 4.90469L16.8477 4.9033L16.837 4.90259L16.8262 4.90189L16.8155 4.9012L16.8047 4.9005L16.794 4.89979L16.7826 4.89909L16.7711 4.8984L16.7603 4.8977L16.7496 4.89699H16.7388L16.7282 4.89629L16.7174 4.8956H16.7059L16.6952 4.8949L16.6844 4.89419L16.6744 4.89349L16.6636 4.8928H16.6415L16.6307 4.8921H16.6092L16.5984 4.89679Z" fill="#F38BA8"/>
<path fill-rule="evenodd" clip-rule="evenodd" d="M27.4893 11.8216V20.3781L27.4879 20.378V21.3816C27.4879 22.5672 26.8718 23.6598 25.8774 24.2372C24.991 24.7514 23.8289 25.4256 22.6274 26.1227C20.9871 27.0743 19.2734 28.0685 18.0875 28.7566C17.1408 29.3058 15.9857 29.2935 15.0505 28.7238L8.01442 24.4396C6.85808 23.7355 6.14722 22.445 6.14722 21.0496V12.2889C6.14722 10.8821 6.84733 9.57613 7.99694 8.83775C9.82456 7.66361 12.6145 5.87163 14.5096 4.65441L14.7489 4.50074C15.8635 3.78475 17.2665 3.76921 18.3958 4.46015L26.0028 9.11582C26.9236 9.67951 27.4893 10.7089 27.4893 11.8216ZM11.4855 9.23831V23.7414H14.3985V17.4H19.2305V23.7414H22.1518V9.23831H19.2305V14.521H14.3985V9.23831H11.4855Z" fill="#EBA0AC"/>
</svg>
