<svg width="33" height="33" viewBox="0 0 33 33" fill="none" xmlns="http://www.w3.org/2000/svg">
<path d="M16.8731 20.5198C17.0105 20.1511 16.9189 19.736 16.639 19.4594L14.3475 17.195C14.3292 17.1769 14.3292 17.1475 14.3473 17.1294V17.1294C16.0818 15.1955 17.3631 12.9988 18.1829 10.6711C18.3285 10.2575 18.7133 9.97092 19.1518 9.97092H20.6264C21.1787 9.97092 21.6264 9.5232 21.6264 8.97092V8.77843C21.6264 8.22614 21.1787 7.77843 20.6264 7.77843H14.9526C14.4003 7.77843 13.9526 7.33071 13.9526 6.77843V6.58594C13.9526 6.03365 13.5049 5.58594 12.9526 5.58594H12.7602C12.2079 5.58594 11.7602 6.03365 11.7602 6.58594V6.77843C11.7602 7.33071 11.3124 7.77843 10.7602 7.77843H5.08642C4.53414 7.77843 4.08643 8.22614 4.08643 8.77843V8.97092C4.08643 9.5232 4.53414 9.97092 5.08643 9.97092H14.9234C15.6119 9.97092 16.0929 10.6506 15.8135 11.2798C15.2356 12.5813 14.4874 13.8304 13.5718 14.9882C13.2038 15.4534 12.5083 15.454 12.1403 14.9888C11.5642 14.2608 11.0549 13.4952 10.6124 12.7022C10.4296 12.3746 10.0881 12.1634 9.71295 12.1634H9.67512C8.95024 12.1634 8.47021 12.9095 8.82003 13.5444C9.37537 14.5523 10.0291 15.5209 10.777 16.4372C11.1149 16.8512 11.0989 17.4576 10.7185 17.8329L6.53543 21.9584C6.14029 22.3481 6.13809 22.985 6.53053 23.3775L6.66807 23.515C7.05859 23.9055 7.69175 23.9055 8.08228 23.515L12.1493 19.448C12.5398 19.0575 13.173 19.0575 13.5635 19.448L15.165 21.0495C15.6799 21.5645 16.555 21.3739 16.8092 20.6915L16.8731 20.5198ZM23.5141 15.0048C23.3677 14.6145 22.9946 14.3559 22.5778 14.3559H21.7712C21.3544 14.3559 20.9813 14.6145 20.8349 15.0048L16.6518 26.1598C16.4067 26.8136 16.8899 27.5109 17.5881 27.5109H17.6436C18.061 27.5109 18.4345 27.2517 18.5804 26.8607L19.3227 24.8724C19.4686 24.4813 19.8421 24.2221 20.2595 24.2221H24.0807C24.497 24.2221 24.8698 24.48 25.0165 24.8696L25.7674 26.8634C25.9142 27.253 26.2869 27.5109 26.7033 27.5109H26.7609C27.4591 27.5109 27.9424 26.8136 27.6972 26.1598L23.5141 15.0048ZM21.8404 22.0297C21.1425 22.0297 20.6592 21.3329 20.9038 20.6793L21.2379 19.7862C21.562 18.9201 22.7871 18.9201 23.1111 19.7862L23.4453 20.6793C23.6898 21.3329 23.2065 22.0297 22.5087 22.0297H21.8404Z" fill="#CBA6F7"/>
</svg>
