<svg width="33" height="33" viewBox="0 0 33 33" fill="none" xmlns="http://www.w3.org/2000/svg">
<path d="M23.1579 5.82861H9.75932C7.53937 5.82861 5.73975 7.62824 5.73975 9.84819V23.2468C5.73975 25.4667 7.53937 27.2663 9.75932 27.2663H23.1579C25.3779 27.2663 27.1775 25.4667 27.1775 23.2468V9.84819C27.1775 7.62824 25.3779 5.82861 23.1579 5.82861Z" stroke="#CBA6F7" stroke-width="3" stroke-linejoin="round"/>
<path d="M20.4776 15.2078C21.9575 15.2078 23.1573 14.0081 23.1573 12.5281C23.1573 11.0481 21.9575 9.84839 20.4776 9.84839C18.9976 9.84839 17.7979 11.0481 17.7979 12.5281C17.7979 14.0081 18.9976 15.2078 20.4776 15.2078Z" fill="#CBA6F7"/>
<path d="M7.07812 25.9272L14.5623 18.443C15.6087 17.3966 17.3055 17.3966 18.352 18.443L25.8361 25.9272" stroke="#CBA6F7" stroke-width="3" stroke-linejoin="round"/>
</svg>
