<svg width="34" height="36" viewBox="0 0 34 36" fill="none" xmlns="http://www.w3.org/2000/svg">
<g filter="url(#filter0_d_2_556)">
<path d="M18.8517 18.443C17.8053 17.3966 16.1085 17.3966 15.0621 18.443L8 26.7441L10 27.2441H16L25.5 26.7441L26.3359 25.9272L18.8517 18.443Z" fill="#F2CDCD"/>
<path d="M23.6579 5.82861H10.2593C8.03937 5.82861 6.23975 7.62824 6.23975 9.84819V23.2468C6.23975 25.4667 8.03937 27.2663 10.2593 27.2663H23.6579C25.8779 27.2663 27.6775 25.4667 27.6775 23.2468V9.84819C27.6775 7.62824 25.8779 5.82861 23.6579 5.82861Z" stroke="#6C7086" stroke-linejoin="round"/>
<path d="M20.9776 15.2078C22.4575 15.2078 23.6573 14.0081 23.6573 12.5281C23.6573 11.0481 22.4575 9.84839 20.9776 9.84839C19.4976 9.84839 18.2979 11.0481 18.2979 12.5281C18.2979 14.0081 19.4976 15.2078 20.9776 15.2078Z" fill="#F9E2AF"/>
</g>
<defs>
<filter id="filter0_d_2_556" x="-3.12073" y="0.469727" width="40.1566" height="40.1565" filterUnits="userSpaceOnUse" color-interpolation-filters="sRGB">
<feFlood flood-opacity="0" result="BackgroundImageFix"/>
<feColorMatrix in="SourceAlpha" type="matrix" values="0 0 0 0 0 0 0 0 0 0 0 0 0 0 0 0 0 0 127 0" result="hardAlpha"/>
<feOffset dy="4"/>
<feGaussianBlur stdDeviation="2"/>
<feComposite in2="hardAlpha" operator="out"/>
<feColorMatrix type="matrix" values="0 0 0 0 0 0 0 0 0 0 0 0 0 0 0 0 0 0 0.25 0"/>
<feBlend mode="normal" in2="BackgroundImageFix" result="effect1_dropShadow_2_556"/>
<feBlend mode="normal" in="SourceGraphic" in2="effect1_dropShadow_2_556" result="shape"/>
</filter>
</defs>
</svg>
