<svg width="33" height="33" viewBox="0 0 33 33" fill="none" xmlns="http://www.w3.org/2000/svg">
<path fill-rule="evenodd" clip-rule="evenodd" d="M16.6144 6.36457C10.9905 6.36457 6.43147 10.9236 6.43147 16.5475C6.43147 22.1714 10.9905 26.7304 16.6144 26.7304C22.2383 26.7304 26.7973 22.1714 26.7973 16.5475C26.7973 16.2548 26.785 15.9649 26.7609 15.6786C26.7488 15.537 26.7341 15.3962 26.7164 15.2563C26.6478 14.713 26.5363 14.1833 26.3857 13.6708L26.4133 13.6693C26.5513 13.6612 26.6875 13.6458 26.8212 13.6234C27.8194 13.4564 28.6868 12.9029 29.2644 12.1221C29.3855 12.4682 29.4927 12.8206 29.5856 13.1788C29.8647 14.2561 30.013 15.3852 30.013 16.5475C30.013 23.9473 24.0142 29.9461 16.6144 29.9461C9.21457 29.9461 3.21582 23.9473 3.21582 16.5475C3.21582 9.14767 9.21457 3.14893 16.6144 3.14893C19.6001 3.14893 22.3592 4.12683 24.5863 5.7777C24.8468 5.70185 25.1222 5.66117 25.4072 5.66117C27.0259 5.66117 28.3382 6.9734 28.3382 8.59211C28.3382 10.2108 27.0259 11.5231 25.4072 11.5231C23.7885 11.5231 22.4763 10.2108 22.4763 8.59211C22.4763 8.47122 22.4837 8.35204 22.4979 8.23499C20.8359 7.05615 18.8067 6.36457 16.6144 6.36457ZM16.6144 22.4094C19.8443 22.4094 22.4763 19.7823 22.4763 16.5475C22.4763 13.3177 19.8492 10.6857 16.6144 10.6857C13.3796 10.6857 10.7526 13.3177 10.7526 16.5475C10.7526 19.7774 13.3846 22.4094 16.6144 22.4094Z" fill="#89B4FA"/>
</svg>
