<svg width="33" height="33" viewBox="0 0 33 33" fill="none" xmlns="http://www.w3.org/2000/svg">
<mask id="mask0_2_570" style="mask-type:luminance" maskUnits="userSpaceOnUse" x="2" y="2" width="29" height="29">
<path d="M2.69971 2.56714H30.2829V30.1502H2.69971V2.56714Z" fill="#CDD6F4"/>
</mask>
<g mask="url(#mask0_2_570)">
<path fill-rule="evenodd" clip-rule="evenodd" d="M23.1482 24.2949L20.7596 24.6532L17.5351 25.0115L15.4451 25.0711L13.415 25.0115L11.8622 24.5337L10.4889 23.0411L9.41404 19.9956L9.17531 19.3386L7.7421 18.8611L6.90612 17.4877L6.30908 15.5172L6.96609 13.7855L8.51848 13.2481L9.77235 13.8453L10.3696 15.1589L11.0862 15.0394L11.3249 14.7409L11.0862 13.3676L11.0264 11.6357L11.3847 9.24734L11.3706 7.88308L12.4594 6.14238L14.3704 4.76914L17.7142 3.33594L21.4161 3.87339L24.6408 6.20216L26.1336 8.59051L27.0891 10.3223L27.3279 14.6215L26.6112 18.3237L25.2977 21.6078L24.0437 23.3393" fill="#F0D6B7"/>
<path fill-rule="evenodd" clip-rule="evenodd" d="M21.1174 34.6242L12.5783 34.9825V36.4155L13.2949 41.4314L12.9366 41.8495L6.96539 39.8194L6.54712 39.1027L5.95008 32.3554L4.57684 28.2949L4.27832 27.3396L9.05504 24.0554L10.5482 23.4583L11.8617 25.0704L12.9962 26.0854L14.3101 26.5033L14.907 26.6825L15.6236 29.7875L16.1611 30.4445L17.5344 29.9666L16.5791 31.8179L21.774 34.2661L21.1174 34.6242Z" fill="#335061"/>
<path fill-rule="evenodd" clip-rule="evenodd" d="M6.96623 13.7851L8.51862 13.2477L9.77267 13.8449L10.3699 15.1586L11.0863 15.0389L11.2655 14.3225L10.9072 12.9493L11.2655 9.66484L10.9669 7.87353L12.0417 6.61966L14.3704 4.76856L13.7134 3.8728L10.4295 5.48516L9.05606 6.55988L8.27987 8.23182L7.0856 9.84418L6.72729 11.7551L6.96623 13.7851Z" fill="#6D6B6D"/>
<path fill-rule="evenodd" clip-rule="evenodd" d="M9.41437 8.17278C9.41437 8.17278 10.3101 5.96357 13.8928 4.88867C17.4756 3.81376 14.0719 4.11228 14.0719 4.11228L10.1907 5.60528L8.69776 7.09807L8.04113 8.29234L9.41437 8.17278ZM7.62304 13.3668C7.62304 13.3668 6.36899 9.18676 11.1461 8.58972L10.9669 7.87311L7.68283 8.6495L6.72729 11.7545L6.96622 13.7847L7.62304 13.3668Z" fill="#DCD9D8"/>
<path fill-rule="evenodd" clip-rule="evenodd" d="M9.53418 18.9198L10.3161 18.1624C10.3161 18.1624 10.6689 18.2033 10.7286 18.6212C10.7882 19.0393 10.9674 22.8011 13.5349 24.8314C13.7692 25.0167 11.6242 24.5328 11.6242 24.5328L9.71352 21.5473M20.5215 17.7854C20.5215 17.7854 20.6609 15.9754 21.148 16.1146C21.6356 16.2538 21.6356 16.741 21.6356 16.741C21.6356 16.741 20.4519 17.5068 20.5215 17.7854Z" fill="#F7E4CD"/>
<path d="M25.4771 11.1575C25.4771 11.1575 24.493 11.3653 24.4023 12.2324C24.3117 13.0995 25.4771 12.4115 25.6562 12.3518M18.2514 11.2173C18.2514 11.2173 16.9375 11.3964 16.9375 12.2322C16.9375 13.0684 18.4305 13.0086 18.8484 12.6505" fill="#F7E4CD"/>
<path fill-rule="evenodd" clip-rule="evenodd" d="M10.1307 15.0977C10.1307 15.0977 7.86148 13.7242 7.62275 15.038C7.384 16.3515 6.84635 17.3071 7.98104 18.6803L7.20484 18.4416L6.48825 16.5907L6.24951 14.7992L7.62275 13.3659L9.17532 13.4855L10.0711 14.2018L10.1307 15.0977ZM11.2056 11.3359C11.2056 11.3359 12.2207 6.08128 17.3561 5.06615C21.5839 4.23056 23.805 5.24531 24.6409 6.20065C24.6409 6.20065 20.8791 1.72245 17.2964 3.09569C13.7135 4.46911 11.0864 6.97703 11.146 8.589C11.2476 11.3349 11.2056 11.3359 11.2056 11.3359ZM25.0592 6.79673C25.0592 6.79673 23.3276 6.73714 23.2677 8.28972C23.2677 8.28972 23.2677 8.52845 23.3871 8.7672C23.3871 8.7672 24.7607 7.21463 25.5965 8.0508" fill="#F7E4CD"/>
<path fill-rule="evenodd" clip-rule="evenodd" d="M17.4769 8.92998C17.4769 8.92998 17.1789 6.54697 15.1469 7.93243C13.8333 8.82818 13.9529 10.082 14.1916 10.3208C14.4303 10.5595 14.3654 11.0408 14.5472 10.7104C14.729 10.3804 14.6691 9.30547 15.326 9.00715C15.983 8.70843 17.06 8.37496 17.4769 8.92998Z" fill="#F7E4CD"/>
<path fill-rule="evenodd" clip-rule="evenodd" d="M11.8619 25.0693L6.24898 27.5772C6.24898 27.5772 8.57775 36.8327 7.38347 39.6989L6.5475 39.4004L6.48772 35.8774L4.93533 29.1898L4.27832 27.3386L10.1301 23.3979L11.8619 25.0693ZM12.439 30.1885L13.2355 31.16V34.7431H12.2799C12.2799 34.7431 12.1606 32.235 12.1606 31.9362C12.1606 31.6377 12.2798 30.563 12.2798 30.563M12.4589 35.2803L9.77183 35.3997L10.5482 35.9369L12.4589 36.2357" fill="#49728B"/>
<path fill-rule="evenodd" clip-rule="evenodd" d="M22.2515 34.6844L25.5954 34.5053C25.5954 34.5053 26.9686 31.042 26.9686 30.8631C26.9686 30.6837 28.1629 25.8471 28.1629 25.8471L25.4758 23.0406L24.9386 22.563L23.5053 23.996V29.5493L22.2515 34.6844Z" fill="#335061"/>
<path fill-rule="evenodd" clip-rule="evenodd" d="M23.7457 34.2659L21.6558 34.6838L21.9543 36.356C22.7305 36.7142 24.0443 35.7587 24.0443 35.7587M23.8048 23.8164L27.9847 26.9214L28.1042 25.4882L24.9395 22.5623L23.8048 23.8164Z" fill="#49728B"/>
<path d="M22.117 34.2064L20.8034 30.8625L19.4302 28.8921C19.4302 28.8921 19.7284 28.0562 20.1463 28.0562H21.52L22.8335 28.5338L22.7142 30.7431L22.117 34.2064Z" fill="#CDD6F4"/>
<path fill-rule="evenodd" clip-rule="evenodd" d="M22.3719 33.0722C22.3719 33.0722 20.6997 29.8479 20.6997 29.3703C20.6997 29.3703 20.9983 28.6536 21.4163 28.8327C21.8346 29.0119 22.7302 29.4897 22.7302 29.4897V28.3551L20.6999 27.9368L19.3267 28.1162L21.6555 33.6097L22.133 33.6695" fill="#DCD9D8"/>
<path d="M15.0692 25.1906L13.4151 25.0106L11.8623 24.533V25.0704L12.6209 25.907L15.0095 26.9817" fill="#CDD6F4"/>
<path fill-rule="evenodd" clip-rule="evenodd" d="M12.4008 25.3694C12.4008 25.3694 14.2521 26.1458 14.8491 25.9667L14.9086 26.6824L13.237 26.325L12.2217 25.6083L12.4008 25.3694Z" fill="#DCD9D8"/>
<path fill-rule="evenodd" clip-rule="evenodd" d="M24.4974 28.2597C23.4842 28.2299 22.5687 28.1096 21.7673 27.8835C21.8217 27.5549 21.7198 27.2325 21.8018 26.9959C22.0252 26.8349 22.3995 26.8374 22.7372 26.7998C22.4452 26.6561 22.0349 26.5995 21.6982 26.6823C21.6901 26.4542 21.5878 26.3129 21.5259 26.1345C22.0955 25.9313 23.4404 24.5983 24.1968 25.0397C24.5572 25.2497 24.7103 26.4487 24.7382 27.0318C24.7615 27.5157 24.6942 28.0034 24.4974 28.2597Z" fill="#D33833"/>
<path d="M24.4974 28.2597C23.4842 28.2299 22.5687 28.1096 21.7673 27.8835C21.8217 27.5549 21.7198 27.2325 21.8018 26.9959C22.0252 26.8349 22.3995 26.8374 22.7372 26.7998C22.4452 26.6561 22.0349 26.5995 21.6982 26.6823C21.6901 26.4542 21.5878 26.3129 21.5259 26.1345C22.0955 25.9313 23.4404 24.5983 24.1968 25.0397C24.5572 25.2497 24.7103 26.4487 24.7382 27.0318C24.7615 27.5157 24.6942 28.0034 24.4974 28.2597Z" stroke="#D33833" stroke-width="0.65483"/>
<path fill-rule="evenodd" clip-rule="evenodd" d="M19.6528 26.6039C19.6501 26.6804 19.6471 26.7577 19.6438 26.8349C19.3275 27.0429 18.8167 27.0404 18.4696 27.215C18.9814 27.2374 19.3844 27.3608 19.7328 27.5343L19.7103 28.1136C19.1304 28.5105 18.6006 29.1016 17.918 29.4738C17.5952 29.6499 16.4622 30.103 16.1188 30.0229C15.9247 29.9779 15.907 29.7366 15.8293 29.5094C15.6639 29.0227 15.2829 28.2479 15.2496 27.5154C15.2072 26.5898 15.114 25.0388 16.111 25.2294C16.9156 25.383 17.8515 25.7537 18.4745 26.0941C18.8552 26.3023 19.0752 26.5593 19.6528 26.6039Z" fill="#D33833"/>
<path d="M19.6528 26.6039C19.6501 26.6804 19.6471 26.7577 19.6438 26.8349C19.3275 27.0429 18.8167 27.0404 18.4696 27.215C18.9814 27.2374 19.3844 27.3608 19.7328 27.5343L19.7103 28.1136C19.1304 28.5105 18.6006 29.1016 17.918 29.4738C17.5952 29.6499 16.4622 30.103 16.1188 30.0229C15.9247 29.9779 15.907 29.7366 15.8293 29.5094C15.6639 29.0227 15.2829 28.2479 15.2496 27.5154C15.2072 26.5898 15.114 25.0388 16.111 25.2294C16.9156 25.383 17.8515 25.7537 18.4745 26.0941C18.8552 26.3023 19.0752 26.5593 19.6528 26.6039Z" stroke="#D33833" stroke-width="0.65483"/>
<path fill-rule="evenodd" clip-rule="evenodd" d="M20.2281 27.7074C20.1397 27.2032 20.0373 27.0595 20.0769 26.6197C21.4215 25.7235 21.6738 28.1594 20.2281 27.7074Z" fill="#D33833"/>
<path d="M20.2281 27.7074C20.1397 27.2032 20.0373 27.0595 20.0769 26.6197C21.4215 25.7235 21.6738 28.1594 20.2281 27.7074Z" stroke="#D33833" stroke-width="0.65483"/>
<path fill-rule="evenodd" clip-rule="evenodd" d="M22.1748 28.1163C22.1748 28.1163 21.7565 27.5192 22.0552 27.34C22.354 27.1609 22.6525 27.34 22.8316 27.0415C23.0108 26.743 22.8316 26.5638 22.8914 26.2054C22.9511 25.8472 23.2499 25.7874 23.5485 25.7278C23.8467 25.668 24.6829 25.5486 24.8023 25.8472L24.444 24.7725L23.7273 24.5337L21.4584 25.8472L21.3388 26.5042V27.8177M15.9047 30.087C15.8329 29.155 15.757 28.2245 15.6726 27.2935C15.5462 25.9033 16.0065 26.1459 17.2115 26.1459C17.3956 26.1459 18.3446 26.3655 18.4126 26.5042C18.7382 27.1695 17.8681 27.0217 18.7877 27.5232C19.5641 27.9464 20.9356 27.2661 20.6218 26.3251C20.4463 26.1159 19.7072 26.26 19.4423 26.1226L18.0428 25.3968C17.4493 25.0889 16.0775 24.6401 15.4449 25.0704C13.8414 26.1609 15.546 28.8853 16.1179 30.0228" fill="#EF3D3A"/>
<path fill-rule="evenodd" clip-rule="evenodd" d="M17.4762 8.93091C15.8486 8.55178 15.04 9.61199 14.5467 10.7115C14.1063 10.6048 14.2814 10.0058 14.3927 9.70042C14.684 8.8994 15.858 7.83289 16.8172 7.97767C17.2299 8.03973 17.7886 8.41733 17.4762 8.93091ZM25.4065 10.7835L25.4837 10.7866C25.8515 11.5506 26.17 12.36 26.6338 13.0344C26.3228 13.7582 24.2804 14.3988 24.312 13.0989C24.7537 12.906 25.5161 13.0596 25.9079 12.813C25.6813 12.1915 25.3545 11.6625 25.4065 10.7835ZM18.3093 10.8045C18.6582 11.4444 18.7718 12.1163 19.2678 12.5999C19.4913 12.8176 19.9256 13.0829 19.7101 13.6881C19.66 13.8308 19.2921 14.1492 19.0798 14.2116C18.3045 14.4409 16.4975 14.259 17.1094 13.2922C17.7508 13.3222 18.6128 13.7086 19.0919 13.2431C18.7238 12.6547 18.0676 11.4904 18.3093 10.8045ZM25.1143 17.3053C23.9467 18.0554 22.6448 18.871 20.7316 18.6818C20.3228 18.3266 20.167 17.5355 20.5641 17.0131C20.7707 17.3686 20.6409 18.0223 21.217 18.1206C22.3027 18.3064 23.5661 17.4566 24.3468 17.1596C24.831 16.3432 24.305 16.0429 23.8689 15.5177C22.9759 14.4413 21.778 13.107 21.8215 11.4954C22.1824 11.2337 22.2135 11.8949 22.2655 12.0152C22.7315 13.1066 23.9051 14.5021 24.7618 15.4362C24.9719 15.6664 25.3182 15.887 25.3567 16.0393C25.4679 16.4815 25.0678 17.0112 25.1143 17.3053ZM9.72183 16.5158C9.35589 16.3069 9.2688 15.3871 8.83907 15.3607C8.22502 15.3234 8.33696 16.5544 8.33943 17.274C7.91676 16.8903 7.84247 15.709 8.15302 15.1025C7.79911 14.9287 7.64117 15.2939 7.44482 15.4227C7.69693 13.5902 10.1256 14.5728 9.72183 16.5158ZM25.8572 18.0685C25.3137 19.1032 24.545 20.2424 22.95 20.2754C22.9175 19.9412 22.8927 19.433 22.9516 19.2319C24.171 19.1146 24.9239 18.4941 25.8572 18.0685ZM18.2174 18.7393C19.2346 19.2741 21.104 19.3317 22.4866 19.2913C22.5608 19.5942 22.559 19.9683 22.5619 20.338C20.7847 20.4264 18.6834 19.9865 18.2174 18.7393ZM18.0239 19.7367C18.7273 21.5027 21.145 21.2993 23.1837 21.2507C23.0939 21.4798 22.8994 21.7511 22.6575 21.8488C22.0043 22.1148 20.2024 22.3164 19.2953 21.8347C18.7202 21.529 18.3507 20.8379 18.0355 20.4328C17.8833 20.2372 17.1252 19.7376 18.0239 19.7367Z" fill="#231F20"/>
<path fill-rule="evenodd" clip-rule="evenodd" d="M25.0312 29.4792C24.2057 30.893 23.416 32.345 22.4365 33.592C22.8472 32.3849 23.0228 30.3643 23.0847 28.8238C23.9439 28.4219 24.6793 28.9147 25.0312 29.4792Z" fill="#81B0C4"/>
<path fill-rule="evenodd" clip-rule="evenodd" d="M22.0715 24.9958C21.6464 25.2733 21.2845 25.6198 20.8761 25.9161C19.9708 25.9609 19.4768 25.8534 18.8115 25.3335C18.8224 25.2917 18.8892 25.3104 18.8918 25.259C19.861 25.6911 21.0929 25.0833 22.0715 24.9958Z" fill="#F0D6B7"/>
<path fill-rule="evenodd" clip-rule="evenodd" d="M16.9844 31.6019C17.2506 30.4483 18.2941 29.8504 19.2414 29.2151C20.2192 30.4562 20.814 32.0522 21.4689 33.5927C19.9215 33.126 18.3407 32.3691 16.9844 31.6019Z" fill="#81B0C4"/>
<path fill-rule="evenodd" clip-rule="evenodd" d="M22.4252 40.8202C22.3857 41.7637 22.5181 43.2763 22.5624 44.2659C23.1895 44.2666 23.4584 44.1287 23.9264 43.9708C23.9792 42.8066 23.5578 41.7292 23.4364 40.6659C23.1884 40.5998 22.7337 40.8405 22.4252 40.8202ZM12.6598 35.4552C13.0733 39.2571 13.6723 42.453 14.771 45.8196C17.2093 46.5599 20.1488 46.6245 22.304 45.9563C21.9083 44.0564 22.0812 41.7431 21.8498 39.7152C21.6756 38.1911 21.7644 36.6577 21.5255 35.1028C18.9141 34.5596 15.2226 34.9758 12.6598 35.4552ZM22.1428 35.1268C22.1208 36.7595 22.2159 38.3702 22.3407 40.005C22.9675 39.9109 23.393 39.848 23.9756 39.7205C23.7865 38.1465 23.8096 36.3754 23.4244 34.9831C22.979 34.9874 22.5868 34.9779 22.1428 35.1268ZM25.3233 34.8635C25.0258 34.7953 24.6794 34.8608 24.3952 34.8664C24.5288 36.1974 24.8529 37.6662 24.9672 39.0633C25.4145 39.0772 25.6535 38.8662 26.0214 38.7953C26.041 37.5689 25.9141 35.8792 25.3233 34.8635ZM30.1393 39.2636C31.0717 39.0371 31.6581 37.8952 31.3972 36.7224C31.2222 35.9342 30.9106 34.45 30.5768 33.9458C30.3304 33.5728 29.6619 33.0844 29.1284 33.4263C28.2603 33.9821 26.731 34.1434 26.0979 34.8163C26.4153 35.8733 26.5138 37.3251 26.6448 38.6641C27.7293 38.7316 29.0638 38.3657 29.9657 38.754C29.3359 38.9579 28.5189 38.9597 27.9749 39.2569C28.4196 39.4718 29.4604 39.4282 30.1393 39.2636ZM21.4684 33.593C20.8132 32.0531 20.2187 30.457 19.2409 29.2158C18.2935 29.8513 17.2502 30.4489 16.9839 31.6027C18.34 32.3699 19.921 33.1266 21.4684 33.593ZM23.0828 28.8238C23.0208 30.3641 22.845 32.3846 22.4345 33.592C23.4139 32.3447 24.2036 30.8928 25.0291 29.4791C24.6773 28.9142 23.9418 28.4217 23.0828 28.8238ZM21.2527 28.1734C20.8817 28.1334 20.5667 28.5999 20.0845 28.3983C19.9737 28.5205 19.8735 28.6528 19.7608 28.7722C20.8262 30.0562 21.3105 31.8781 22.1334 33.3871C22.575 31.9375 22.524 30.3496 22.6214 28.7674C22.0147 28.8058 21.6779 28.2187 21.2527 28.1734ZM20.0761 26.6203C20.0364 27.0601 20.1388 27.2039 20.2272 27.708C21.6729 28.16 21.4205 25.7239 20.0761 26.6203ZM18.4729 26.0941C17.85 25.7538 16.9141 25.383 16.1095 25.2295C15.1121 25.0387 15.2058 26.59 15.2481 27.5153C15.2812 28.2479 15.6623 29.0228 15.8278 29.5094C15.9053 29.7368 15.9229 29.978 16.1172 30.0232C16.4606 30.1031 17.5936 29.65 17.9163 29.474C18.5991 29.1017 19.1288 28.5105 19.7085 28.1137C19.7163 27.9206 19.7235 27.7277 19.7313 27.5346C19.3825 27.3608 18.9798 27.2375 18.468 27.215C18.8151 27.0404 19.3259 27.043 19.6421 26.8352C19.6452 26.7579 19.6484 26.6804 19.6511 26.6041C19.0736 26.5593 18.8537 26.3023 18.4729 26.0941ZM12.5231 25.0132C12.0061 25.5381 13.9731 26.2535 14.5994 26.2921C14.5959 25.96 14.7886 25.647 14.7498 25.4086C14.0059 25.278 13.0286 25.3643 12.5231 25.0132ZM18.8918 25.2596C18.8892 25.3112 18.8223 25.2925 18.8115 25.3341C19.4766 25.854 19.9709 25.9616 20.8761 25.9167C21.2843 25.6205 21.6464 25.274 22.0715 24.9965C21.0929 25.084 19.8609 25.6915 18.8918 25.2596ZM24.7373 27.0324C24.7093 26.4493 24.5561 25.2501 24.1957 25.0402C23.4392 24.5987 22.0944 25.9317 21.525 26.135C21.5869 26.3133 21.6892 26.4547 21.697 26.6827C22.034 26.5999 22.4441 26.6566 22.7361 26.8002C22.3986 26.838 22.0242 26.8356 21.8007 26.9964C21.7189 27.233 21.8208 27.5554 21.7663 27.8839C22.5678 28.1101 23.4832 28.2304 24.4964 28.2601C24.6935 28.0041 24.7606 27.5162 24.7373 27.0324ZM11.6527 25.5208C11.4904 25.405 10.3922 23.9762 10.2417 24.0354C8.2544 24.8191 6.39623 26.1744 4.73575 27.4561C6.31907 30.8533 6.95794 35.0154 7.07101 39.0268C8.88467 39.8749 10.4775 41.0978 12.9387 41.2255C12.6539 39.2105 12.394 37.4128 12.2322 35.5157C11.614 35.2551 10.7268 35.5276 10.1479 35.4349C10.1431 34.7377 11.0318 35.1294 11.1057 34.6606C11.1615 34.3058 10.6168 34.279 10.7942 33.7204C11.2465 33.8848 11.4841 34.2481 11.9665 34.3845C12.4075 33.42 11.9604 31.7135 12.0238 30.9075C12.036 30.7563 12.0996 30.0691 12.4387 30.1895C12.7385 30.2963 12.4215 32.0172 12.4543 32.78C12.4843 33.4829 12.3695 34.1631 12.6541 34.6043C15.0973 34.2697 17.5567 34.0681 20.0218 34.0007C19.4557 33.7578 18.7832 33.528 18.046 33.1125C17.6462 32.8872 16.3862 32.4182 16.2711 32.0388C16.087 31.4338 16.754 31.1115 16.868 30.5929C15.6675 31.2476 15.4334 29.9654 15.1494 29.0569C14.8921 28.2341 14.7457 27.6195 14.6825 27.1451C13.6484 26.6522 12.5428 26.1529 11.6527 25.5208ZM23.687 24.2083C25.3429 23.4053 25.6412 27.2089 24.9923 28.4343C25.0925 28.7999 25.4374 28.9397 25.5783 29.2682C24.6544 30.9235 23.6282 32.4685 22.6852 34.1042C23.3866 33.6675 24.3883 34.0261 25.2136 33.6993C25.5153 33.58 25.7335 32.8895 25.9619 32.3369C26.5902 30.817 27.2498 28.901 27.5434 27.4502C27.6094 27.1198 27.79 26.3997 27.7496 26.1056C27.6773 25.5788 26.9627 25.1882 26.5994 24.8626C25.9298 24.2609 25.5081 23.7317 24.8096 23.1692C24.5264 23.5874 23.9185 23.8683 23.687 24.2083ZM7.86592 9.52513C7.07712 10.3932 7.24214 12.0199 7.33764 13.1771C8.76378 12.28 10.6565 13.2481 10.6387 14.7738C11.3196 14.7558 10.8931 13.9235 10.77 13.3874C10.3675 11.6362 11.448 9.7337 10.8189 8.13204C9.59746 8.22467 8.5938 8.72355 7.86592 9.52513ZM13.5113 4.48676C11.7251 4.99289 9.43608 6.29088 8.70209 7.8954C9.27048 7.81289 9.66489 7.52621 10.2256 7.49069C10.4376 7.47693 10.7151 7.57969 10.9587 7.51895C11.4438 7.39863 11.8535 6.31055 12.2196 5.90564C12.5764 5.51029 13.0053 5.34145 13.2989 4.98105C13.4876 4.88995 13.7664 4.89625 13.7771 4.613C13.6954 4.52572 13.6093 4.45888 13.5113 4.48676ZM22.809 4.9629C20.955 3.91684 17.8172 3.13014 15.845 4.11318C14.2538 4.90675 12.1029 6.21925 11.3695 7.88279C12.0546 9.48809 11.1667 10.9589 11.1097 12.5888C11.0797 13.456 11.5183 14.213 11.5519 15.157C11.3173 15.5437 10.6011 15.5915 10.1053 15.5648C9.93858 14.7298 9.64635 13.7911 8.78631 13.697C7.56951 13.5639 6.67967 14.5709 6.62448 15.6231C6.55916 16.8607 7.57523 18.9121 9.01512 18.7698C9.57148 18.715 9.70824 18.1572 10.3143 18.1629C10.6428 18.8184 9.80755 19.0243 9.7216 19.493C9.69927 19.6141 9.79094 20.0874 9.84423 20.3093C10.1059 21.39 10.6888 22.7888 11.2627 23.6116C11.9912 24.6552 13.4223 24.8125 14.9622 24.9148C15.2373 24.3224 16.2501 24.3712 16.9104 24.5261C16.1191 24.2128 15.3837 23.4532 14.7741 22.7809C14.0741 22.0095 13.365 21.1822 13.3291 20.1739C14.652 22.0094 15.7451 23.6123 18.1508 24.4197C19.971 25.0301 22.0971 24.1399 23.4959 23.1575C24.0763 22.7494 24.4228 22.1016 24.8354 21.5086C26.379 19.2882 27.0995 16.119 26.941 13.047C26.8756 11.7802 26.8785 10.5175 26.4535 9.66532C26.0092 8.77416 24.5067 7.97696 23.6268 8.78295C23.4639 7.91641 24.3582 7.38029 25.409 7.69237C24.6598 6.72538 23.8737 5.56358 22.809 4.9629ZM26.2629 33.5468C27.7115 32.8268 30.4183 31.6084 31.3264 33.5495C31.6617 34.265 32.0549 35.4744 32.2286 36.2131C32.4738 37.2551 31.9626 39.4453 30.8915 39.795C29.9456 40.1038 28.8417 40.0849 27.702 39.8561C27.5679 39.7443 27.4186 39.5499 27.3142 39.347C26.5005 39.3156 25.7386 39.3909 25.096 39.7253C25.1568 40.3269 24.7499 40.4235 24.3683 40.5474C24.0856 41.669 24.9341 43.1336 24.7311 44.1565C24.586 44.8851 23.6897 44.9978 23.0308 45.1339C23.0093 45.5388 23.0595 45.8768 23.1047 46.2193C22.9539 46.7746 22.2782 47.0905 21.6381 47.1681C19.5315 47.4213 16.3332 47.5351 14.3069 46.8064C13.7416 45.4197 13.2962 43.7328 12.8252 42.1494C10.8492 42.3604 9.25081 41.2967 7.74426 40.5998C7.22266 40.358 6.5009 40.2247 6.30609 39.8094C6.11701 39.4075 6.19454 38.6368 6.14757 37.9091C6.0282 36.0502 5.92601 34.2573 5.43517 32.3539C5.21476 31.4998 4.83068 30.7461 4.56272 29.9231C4.31499 29.1602 3.8822 28.2175 3.76913 27.4574C3.60164 26.3299 4.66317 26.2671 5.34197 25.7786C6.39128 25.0234 7.21483 24.6055 8.35123 23.9238C8.68777 23.722 9.70288 23.2109 9.81825 22.9754C10.0478 22.5088 9.42442 21.8508 9.25769 21.4851C8.99411 20.9063 8.8566 20.4151 8.81879 19.8445C7.86535 19.6937 7.14283 19.1263 6.70641 18.4867C5.98427 17.428 5.48348 15.4694 6.10822 13.9795C6.15731 13.8622 6.40158 13.6315 6.43769 13.4514C6.50873 13.0965 6.30398 12.6246 6.291 12.2472C6.22549 10.3105 6.61874 8.64218 7.92227 8.05831C8.45151 5.95014 10.3456 5.24882 12.1302 4.20122C12.7974 3.80969 13.5327 3.5595 14.2923 3.27988C17.0164 2.27717 21.1966 2.46606 23.4575 4.17602C24.4161 4.90122 25.9487 6.43221 26.4968 7.54072C27.9445 10.4673 27.8419 15.3582 26.8292 18.9184C26.6932 19.3964 26.4957 20.0989 26.2198 20.673C26.0277 21.0741 25.4304 21.8762 25.5029 22.2301C25.5776 22.5961 26.8651 23.5736 27.1411 23.8398C27.6382 24.3192 28.5827 24.9558 28.6591 25.5611C28.7412 26.205 28.3754 27.0859 28.19 27.7074C27.5703 29.7813 26.9655 31.6978 26.2629 33.5468Z" fill="#231F20"/>
<path fill-rule="evenodd" clip-rule="evenodd" d="M16.5991 19.1912C16.6776 19.0866 17.1099 18.9277 17.7146 19.2187C17.7146 19.2187 16.9979 19.3382 17.0575 20.533L16.7588 20.4731C16.7588 20.4731 16.4504 19.3898 16.5991 19.1912Z" fill="#F7E4CD"/>
<path fill-rule="evenodd" clip-rule="evenodd" d="M21.8347 29.4594C21.8347 29.5465 21.8001 29.6301 21.7385 29.6917C21.6768 29.7532 21.5932 29.7878 21.5061 29.7878C21.419 29.7878 21.3354 29.7531 21.2738 29.6916C21.2123 29.63 21.1777 29.5463 21.1777 29.4593C21.1777 29.372 21.2123 29.2886 21.2739 29.2269C21.3356 29.1654 21.4192 29.1307 21.5063 29.1309C21.5935 29.1309 21.677 29.1654 21.7386 29.2271C21.8001 29.2887 21.8348 29.3723 21.8347 29.4594ZM22.1632 30.982C22.1632 31.0252 22.1548 31.0679 22.1383 31.1077C22.1217 31.1476 22.0975 31.1838 22.067 31.2143C22.0364 31.2448 22.0003 31.269 21.9605 31.2855C21.9206 31.302 21.8778 31.3105 21.8347 31.3105C21.7915 31.3105 21.7489 31.302 21.709 31.2855C21.6692 31.269 21.6329 31.2448 21.6025 31.2143C21.5719 31.1838 21.5477 31.1476 21.5312 31.1077C21.5147 31.0679 21.5063 31.0252 21.5063 30.982C21.5063 30.8949 21.5408 30.8113 21.6025 30.7497C21.664 30.688 21.7476 30.6535 21.8347 30.6535C21.9219 30.6535 22.0054 30.688 22.067 30.7497C22.1286 30.8113 22.1632 30.8949 22.1632 30.982Z" fill="#1D1919"/>
<path d="M15.7123 29.7495H5.2542C5.17125 29.7495 5.104 29.8168 5.104 29.8997V30.2289C5.104 30.3118 5.17125 30.3791 5.2542 30.3791H15.7123C15.7953 30.3791 15.8625 30.3118 15.8625 30.2289V29.8997C15.8625 29.8168 15.7953 29.7495 15.7123 29.7495Z" fill="#11111B"/>
<path d="M26.9278 29.7498H17.6714C17.5885 29.7498 17.5212 29.8169 17.5212 29.8998V30.2292C17.5212 30.3121 17.5885 30.3792 17.6714 30.3792H26.9278C27.0108 30.3792 27.078 30.3121 27.078 30.2292V29.8998C27.078 29.8169 27.0108 29.7498 26.9278 29.7498Z" fill="#11111B"/>
<path d="M15.4262 29.4434H5.25412C5.17122 29.4434 5.104 29.5106 5.104 29.5934V29.9228C5.104 30.0057 5.17122 30.0728 5.25412 30.0728H15.4262C15.5091 30.0728 15.5764 30.0057 15.5764 29.9228V29.5934C15.5764 29.5106 15.5091 29.4434 15.4262 29.4434Z" fill="#11111B"/>
<path d="M26.928 29.4434H18.5871C18.5043 29.4434 18.437 29.5106 18.437 29.5934V29.9228C18.437 30.0057 18.5043 30.0728 18.5871 30.0728H26.928C27.0109 30.0728 27.078 30.0057 27.078 29.9228V29.5934C27.078 29.5106 27.0109 29.4434 26.928 29.4434Z" fill="#11111B"/>
</g>
</svg>
