<svg width="33" height="33" viewBox="0 0 33 33" fill="none" xmlns="http://www.w3.org/2000/svg">
<path d="M20.1672 10.4548L18.5337 13.7536C19.0703 14.2508 19.4491 14.9059 19.5991 15.6476H20.8302C20.9722 14.9453 21.3195 14.3139 21.8167 13.8246L20.1672 10.4548Z" fill="#F38BA8"/>
<path d="M17.1601 12.957L20.1669 6.88025L23.1658 12.9964C23.2842 12.957 23.4025 12.9254 23.521 12.8938L26.3699 4.48901H13.9561L16.7972 12.8701C16.9155 12.8938 17.0418 12.9254 17.1601 12.957ZM16.1263 18.3314C17.2233 18.3314 18.1151 17.4395 18.1151 16.3426C18.1151 15.9401 17.9968 15.5691 17.7915 15.2534C17.7284 15.1509 17.6495 15.0562 17.5705 14.9694L17.5626 14.9615C17.4837 14.8747 17.389 14.7957 17.2943 14.7326L17.2865 14.7247C17.2628 14.7089 17.2312 14.6852 17.1997 14.6695C17.1918 14.6695 17.1918 14.6616 17.1839 14.6616C17.1522 14.6458 17.1208 14.6221 17.0891 14.6063H17.0812C17.0497 14.5906 17.0102 14.5669 16.9786 14.5511H16.9708C16.9392 14.5353 16.9076 14.5196 16.8761 14.5117C16.8682 14.5117 16.8603 14.5038 16.8524 14.5038C16.8287 14.4959 16.7972 14.4801 16.7735 14.4722C16.7656 14.4722 16.7577 14.4643 16.7418 14.4643C16.7104 14.4564 16.6787 14.4407 16.6472 14.4328H16.6393C16.5998 14.4249 16.5683 14.417 16.5288 14.4091C16.5209 14.4091 16.513 14.4091 16.4973 14.4012C16.4657 14.3932 16.442 14.3932 16.4105 14.3853C16.3947 14.3853 16.3868 14.3853 16.371 14.3774C16.3473 14.3774 16.3158 14.3695 16.2921 14.3695H15.9843C15.9527 14.3695 15.9291 14.3774 15.8975 14.3774H15.8658C15.8344 14.3853 15.8027 14.3853 15.7712 14.3932H15.7475C15.708 14.4012 15.6765 14.4091 15.637 14.417C14.7689 14.63 14.1217 15.4192 14.1217 16.3504C14.1376 17.4316 15.0294 18.3314 16.1263 18.3314ZM24.4917 14.3539H24.4759C24.4443 14.3539 24.4207 14.346 24.3891 14.346H24.2864C24.2471 14.346 24.2075 14.346 24.1602 14.3539H24.1207C24.0892 14.3539 24.0576 14.3618 24.0261 14.3618C24.0182 14.3618 24.0024 14.3618 23.9945 14.3695L23.8761 14.3932H23.8683C23.8288 14.4012 23.7971 14.4091 23.7577 14.417C23.7498 14.417 23.734 14.4249 23.7261 14.4249C23.6946 14.4328 23.663 14.4407 23.6315 14.4564C23.6236 14.4564 23.6157 14.4643 23.6078 14.4643C23.5683 14.4801 23.5289 14.4959 23.4973 14.5117C23.4579 14.5274 23.4263 14.5432 23.3869 14.559C23.379 14.559 23.3711 14.5669 23.3632 14.5669C23.3315 14.5827 23.3 14.5985 23.2684 14.6221C23.2684 14.6221 23.2605 14.6221 23.2605 14.63C23.1895 14.6695 23.1185 14.7168 23.0554 14.772L23.0475 14.7799C22.9448 14.8588 22.858 14.9457 22.7712 15.0404C22.6845 15.1351 22.6134 15.2455 22.5503 15.3561C22.3845 15.648 22.2898 15.9874 22.2898 16.3426C22.2898 17.4395 23.1816 18.3314 24.2785 18.3314C25.3756 18.3314 26.2673 17.4395 26.2673 16.3426C26.2673 15.3798 25.5728 14.5669 24.6654 14.3853C24.6179 14.3695 24.5548 14.3618 24.4917 14.3539ZM7.87936 18.3314C8.97633 18.3314 9.86812 17.4395 9.86812 16.3426C9.86812 15.2455 8.97633 14.3539 7.87936 14.3539C6.78241 14.3539 5.89062 15.2455 5.89062 16.3426C5.89062 17.4395 6.78241 18.3314 7.87936 18.3314Z" fill="#F38BA8"/>
<path d="M24.2951 19.8696C22.6536 19.8696 21.2725 18.7411 20.8779 17.2258H19.5521C19.1575 18.7411 17.7764 19.8696 16.1349 19.8696C15.9456 19.8696 15.7641 19.8538 15.5904 19.8301C15.1327 20.5326 14.5882 21.1796 13.949 21.7795C12.8204 22.8448 11.5419 23.6341 10.1609 24.1312L9.83728 24.2496L9.53739 24.0918C7.88011 23.2395 7.02779 21.5111 7.32768 19.838C7.13828 19.8065 6.95677 19.7591 6.78314 19.696C6.75157 19.7512 6.72789 19.8144 6.69633 19.8775C6.19125 20.9193 5.66251 21.9925 5.4731 23.1448C5.2679 24.3759 5.18109 26.6251 6.91731 27.8246C7.67492 28.3454 8.472 28.6059 9.36377 28.6059C11.0763 28.6059 12.923 27.6904 14.8802 26.7198C16.4112 25.9621 17.9896 25.1729 19.631 24.7704C20.2545 24.6205 20.8858 24.5258 21.4936 24.439C22.6063 24.2811 23.6637 24.1233 24.5239 23.6262C25.4395 23.0974 26.0629 22.2135 26.2365 21.2033C26.3469 20.5878 26.2838 19.9644 26.0787 19.3882C25.5578 19.6881 24.9501 19.8696 24.2951 19.8696Z" fill="#F38BA8"/>
</svg>
