<svg width="33" height="33" viewBox="0 0 33 33" fill="none" xmlns="http://www.w3.org/2000/svg">
<path d="M15.8449 22.1436C15.8449 25.2345 13.3393 27.7402 10.2484 27.7402C7.15746 27.7402 4.65186 25.2345 4.65186 22.1436C4.65186 19.0528 7.15746 16.5471 10.2484 16.5471C13.3393 16.5471 15.8449 19.0528 15.8449 22.1436Z" fill="#89B4FA"/>
<path d="M22.3072 10.9515C22.3072 14.0423 19.8017 16.548 16.7108 16.548C13.6199 16.548 11.1143 14.0423 11.1143 10.9515C11.1143 7.86058 13.6199 5.35498 16.7108 5.35498C19.8017 5.35498 22.3072 7.86058 22.3072 10.9515Z" fill="#89B4FA"/>
<path d="M28.7697 22.1436C28.7697 25.2345 26.264 27.7402 23.1732 27.7402C20.0823 27.7402 17.5767 25.2345 17.5767 22.1436C17.5767 19.0528 20.0823 16.5471 23.1732 16.5471C26.264 16.5471 28.7697 19.0528 28.7697 22.1436Z" fill="#89B4FA"/>
</svg>
