<svg width="34" height="40" viewBox="0 0 34 40" fill="none" xmlns="http://www.w3.org/2000/svg">
<g filter="url(#filter0_d_2_624)">
<path d="M17.0786 5.12877C14.4797 5.13169 11.9572 6.00894 9.91728 7.61935C7.87734 9.22976 6.43854 11.4797 5.83241 14.007C6.77228 12.7652 8.33934 11.7064 10.3388 10.9622C12.3383 10.218 14.682 9.8211 17.0786 9.82095C19.4805 9.82249 21.8283 10.2224 23.8291 10.9708C25.8299 11.7192 27.395 12.783 28.3292 14.0293C27.7272 11.4971 26.2896 9.24158 24.2484 7.62671C22.2072 6.01184 19.6814 5.13182 17.0786 5.12866V5.12877ZM5.82812 19.3859C6.43009 21.9181 7.86768 24.1736 9.90889 25.7885C11.9501 27.4034 14.4759 28.2834 17.0786 28.2866C19.6776 28.2836 22.2001 27.4064 24.24 25.796C26.28 24.1856 27.7188 21.9357 28.3249 19.4083C27.385 20.6501 25.8179 21.7089 23.8185 22.4531C21.819 23.1974 19.4753 23.5942 17.0786 23.5944C14.6768 23.5928 12.329 23.1929 10.3282 22.4445C8.32739 21.6961 6.76225 20.6323 5.82812 19.386V19.3859Z" fill="#FAB387"/>
<path d="M5.16602 29.2237C5.16602 29.8669 5.42154 30.4838 5.87639 30.9387C6.33123 31.3935 6.94813 31.6491 7.59137 31.6491C8.23462 31.6491 8.85152 31.3935 9.30636 30.9387C9.7612 30.4838 10.0167 29.8669 10.0167 29.2237C10.0167 28.9052 9.954 28.5898 9.83211 28.2956C9.71023 28.0013 9.53158 27.7339 9.30636 27.5087C9.08115 27.2835 8.81378 27.1048 8.51952 26.983C8.22526 26.8611 7.90988 26.7983 7.59137 26.7983C7.27287 26.7983 6.95749 26.8611 6.66323 26.983C6.36897 27.1048 6.1016 27.2835 5.87639 27.5087C5.65117 27.7339 5.47252 28.0013 5.35063 28.2956C5.22875 28.5898 5.16602 28.9052 5.16602 29.2237Z" fill="#9399B2"/>
<path d="M4.18164 5.83633C4.18164 6.30872 4.3693 6.76176 4.70333 7.0958C5.03736 7.42983 5.4904 7.61748 5.9628 7.61748C6.43519 7.61748 6.88823 7.42983 7.22226 7.0958C7.55629 6.76176 7.74395 6.30872 7.74395 5.83633C7.74395 5.36394 7.55629 4.91089 7.22226 4.57686C6.88823 4.24283 6.43519 4.05518 5.9628 4.05518C5.4904 4.05518 5.03736 4.24283 4.70333 4.57686C4.3693 4.91089 4.18164 5.36394 4.18164 5.83633Z" fill="#6C7086"/>
<path d="M24.6436 4.20665C24.6436 4.8097 24.8831 5.38805 25.3095 5.81447C25.736 6.24089 26.3143 6.48045 26.9173 6.48045C27.5204 6.48045 28.0987 6.24089 28.5252 5.81447C28.9516 5.38805 29.1911 4.8097 29.1911 4.20665C29.1911 3.60361 28.9516 3.02526 28.5252 2.59884C28.0987 2.17242 27.5204 1.93286 26.9173 1.93286C26.3143 1.93286 25.736 2.17242 25.3095 2.59884C24.8831 3.02526 24.6436 3.60361 24.6436 4.20665Z" fill="#7F849C"/>
</g>
<defs>
<filter id="filter0_d_2_624" x="-3" y="0.626465" width="40.1566" height="40.1565" filterUnits="userSpaceOnUse" color-interpolation-filters="sRGB">
<feFlood flood-opacity="0" result="BackgroundImageFix"/>
<feColorMatrix in="SourceAlpha" type="matrix" values="0 0 0 0 0 0 0 0 0 0 0 0 0 0 0 0 0 0 127 0" result="hardAlpha"/>
<feOffset dy="4"/>
<feGaussianBlur stdDeviation="2"/>
<feComposite in2="hardAlpha" operator="out"/>
<feColorMatrix type="matrix" values="0 0 0 0 0 0 0 0 0 0 0 0 0 0 0 0 0 0 0.25 0"/>
<feBlend mode="normal" in2="BackgroundImageFix" result="effect1_dropShadow_2_624"/>
<feBlend mode="normal" in="SourceGraphic" in2="effect1_dropShadow_2_624" result="shape"/>
</filter>
</defs>
</svg>
