<svg width="33" height="33" viewBox="0 0 33 33" fill="none" xmlns="http://www.w3.org/2000/svg">
<path d="M16.5786 5.12877C13.9797 5.13169 11.4572 6.00894 9.41728 7.61935C7.37734 9.22976 5.93854 11.4797 5.33241 14.007C6.27228 12.7652 7.83934 11.7064 9.83882 10.9622C11.8383 10.218 14.182 9.8211 16.5786 9.82095C18.9805 9.82249 21.3283 10.2224 23.3291 10.9708C25.3299 11.7192 26.895 12.783 27.8292 14.0293C27.2272 11.4971 25.7896 9.24158 23.7484 7.62671C21.7072 6.01184 19.1814 5.13182 16.5786 5.12866V5.12877ZM5.32812 19.3859C5.93009 21.9181 7.36768 24.1736 9.40889 25.7885C11.4501 27.4034 13.9759 28.2834 16.5786 28.2866C19.1776 28.2836 21.7001 27.4064 23.74 25.796C25.78 24.1856 27.2188 21.9357 27.8249 19.4083C26.885 20.6501 25.3179 21.7089 23.3185 22.4531C21.319 23.1974 18.9753 23.5942 16.5786 23.5944C14.1768 23.5928 11.829 23.1929 9.82819 22.4445C7.82739 21.6961 6.26225 20.6323 5.32812 19.386V19.3859Z" fill="#FAB387"/>
<path d="M4.66602 29.2237C4.66602 29.8669 4.92154 30.4838 5.37639 30.9387C5.83123 31.3935 6.44813 31.6491 7.09137 31.6491C7.73462 31.6491 8.35152 31.3935 8.80636 30.9387C9.2612 30.4838 9.51673 29.8669 9.51673 29.2237C9.51673 28.9052 9.454 28.5898 9.33211 28.2956C9.21023 28.0013 9.03158 27.7339 8.80636 27.5087C8.58115 27.2835 8.31378 27.1048 8.01952 26.983C7.72526 26.8611 7.40988 26.7983 7.09137 26.7983C6.77287 26.7983 6.45749 26.8611 6.16323 26.983C5.86897 27.1048 5.6016 27.2835 5.37639 27.5087C5.15117 27.7339 4.97252 28.0013 4.85063 28.2956C4.72875 28.5898 4.66602 28.9052 4.66602 29.2237Z" fill="#9399B2"/>
<path d="M3.68164 5.83633C3.68164 6.30872 3.8693 6.76176 4.20333 7.0958C4.53736 7.42983 4.9904 7.61748 5.4628 7.61748C5.93519 7.61748 6.38823 7.42983 6.72226 7.0958C7.05629 6.76176 7.24395 6.30872 7.24395 5.83633C7.24395 5.36394 7.05629 4.91089 6.72226 4.57686C6.38823 4.24283 5.93519 4.05518 5.4628 4.05518C4.9904 4.05518 4.53736 4.24283 4.20333 4.57686C3.8693 4.91089 3.68164 5.36394 3.68164 5.83633Z" fill="#6C7086"/>
<path d="M24.1436 4.20665C24.1436 4.8097 24.3831 5.38805 24.8095 5.81447C25.236 6.24089 25.8143 6.48045 26.4173 6.48045C27.0204 6.48045 27.5987 6.24089 28.0252 5.81447C28.4516 5.38805 28.6911 4.8097 28.6911 4.20665C28.6911 3.60361 28.4516 3.02526 28.0252 2.59884C27.5987 2.17242 27.0204 1.93286 26.4173 1.93286C25.8143 1.93286 25.236 2.17242 24.8095 2.59884C24.3831 3.02526 24.1436 3.60361 24.1436 4.20665Z" fill="#7F849C"/>
</svg>
