<svg width="33" height="33" viewBox="0 0 33 33" fill="none" xmlns="http://www.w3.org/2000/svg">
<g clip-path="url(#clip0_2_629)">
<path d="M3.23827 19.3348C2.62777 19.0295 2.49573 18.2159 2.97837 17.7333L17.5325 3.1791C18.2497 2.46193 19.4558 3.1448 19.2098 4.12874L18.2702 7.88715C18.1565 8.34185 18.3739 8.8145 18.7931 9.02411L28.8934 14.0743C29.5039 14.3795 29.6359 15.1932 29.1533 15.6758L14.5991 30.2299C13.882 30.9471 12.6759 30.2642 12.9219 29.2803L13.8615 25.5219C13.9752 25.0672 13.7578 24.5945 13.3386 24.3849L3.23827 19.3348Z" fill="#6C7086"/>
<path d="M17.4747 11.069C17.6929 10.1962 16.7375 9.50161 15.9745 9.97845L3.50934 17.7692C2.84711 18.1831 2.89364 19.1624 3.59213 19.5116L12.941 24.1861C13.5132 24.4722 14.2032 24.1548 14.3584 23.5342L17.4747 11.069Z" fill="url(#paint0_linear_2_629)"/>
</g>
<defs>
<linearGradient id="paint0_linear_2_629" x1="1.99731" y1="18.7142" x2="20.0854" y2="14.6946" gradientUnits="userSpaceOnUse">
<stop stop-color="#9399B2"/>
<stop offset="1" stop-color="#7F849C"/>
</linearGradient>
<clipPath id="clip0_2_629">
<rect width="32.1566" height="32.1566" fill="white" transform="translate(0.656738 0.626465)"/>
</clipPath>
</defs>
</svg>
