<svg width="35" height="39" viewBox="0 0 35 39" fill="none" xmlns="http://www.w3.org/2000/svg">
<g clip-path="url(#clip0_2_629)" filter="url(#filter0_d_2_629)">
<path d="M4.73802 19.3348C4.12752 19.0295 3.99549 18.2159 4.47813 17.7333L19.0323 3.1791C19.7494 2.46193 20.9555 3.1448 20.7095 4.12874L19.7699 7.88715C19.6562 8.34185 19.8736 8.8145 20.2929 9.02411L30.3931 14.0743C31.0036 14.3795 31.1357 15.1932 30.653 15.6758L16.0989 30.2299C15.3817 30.9471 14.1757 30.2642 14.4216 29.2803L15.3612 25.5219C15.4749 25.0672 15.2575 24.5945 14.8383 24.3849L4.73802 19.3348Z" fill="#6C7086"/>
<path d="M18.9744 11.069C19.1927 10.1962 18.2372 9.50161 17.4743 9.97845L5.0091 17.7692C4.34687 18.1831 4.3934 19.1624 5.09188 19.5116L14.4408 24.1861C15.013 24.4722 15.703 24.1548 15.8581 23.5342L18.9744 11.069Z" fill="url(#paint0_linear_2_629)"/>
</g>
<defs>
<filter id="filter0_d_2_629" x="-1.84338" y="0.626465" width="40.1566" height="40.1565" filterUnits="userSpaceOnUse" color-interpolation-filters="sRGB">
<feFlood flood-opacity="0" result="BackgroundImageFix"/>
<feColorMatrix in="SourceAlpha" type="matrix" values="0 0 0 0 0 0 0 0 0 0 0 0 0 0 0 0 0 0 127 0" result="hardAlpha"/>
<feOffset dy="4"/>
<feGaussianBlur stdDeviation="2"/>
<feComposite in2="hardAlpha" operator="out"/>
<feColorMatrix type="matrix" values="0 0 0 0 0 0 0 0 0 0 0 0 0 0 0 0 0 0 0.25 0"/>
<feBlend mode="normal" in2="BackgroundImageFix" result="effect1_dropShadow_2_629"/>
<feBlend mode="normal" in="SourceGraphic" in2="effect1_dropShadow_2_629" result="shape"/>
</filter>
<linearGradient id="paint0_linear_2_629" x1="3.49707" y1="18.7142" x2="21.5852" y2="14.6946" gradientUnits="userSpaceOnUse">
<stop stop-color="#9399B2"/>
<stop offset="1" stop-color="#7F849C"/>
</linearGradient>
<clipPath id="clip0_2_629">
<rect width="32.1566" height="32.1566" fill="white" transform="translate(2.15662 0.626465)"/>
</clipPath>
</defs>
</svg>
