<svg width="33" height="37" viewBox="0 0 33 37" fill="none" xmlns="http://www.w3.org/2000/svg">
<g filter="url(#filter0_d_2_632)">
<path fill-rule="evenodd" clip-rule="evenodd" d="M8.87362 4.64624H23.9116C26.4187 4.64624 28.4513 6.67875 28.4513 9.186V24.224C28.4513 26.7311 26.4187 28.7637 23.9116 28.7637H8.87362C6.36637 28.7637 4.33386 26.7311 4.33386 24.224V9.186C4.33386 6.67875 6.36637 4.64624 8.87362 4.64624ZM21.3566 8.59887C21.7238 7.95843 21.2682 7.18732 20.5944 7.48896C19.87 7.8132 19.1962 8.41735 18.5795 9.31114L13.4115 18.4094C13.3959 18.4367 13.3588 18.4423 13.336 18.4207C13.3111 18.3971 13.2703 18.4061 13.2576 18.4379L12.3277 20.7686C12.3044 20.8269 12.2756 20.8828 12.2422 20.936C11.8804 21.514 11.5727 22.1241 11.3229 22.7588C10.9704 23.7444 10.9617 24.7493 11.5041 25.6805C11.857 26.2866 12.4285 26.6696 13.2619 26.7816C14.548 26.8007 15.6672 26.276 16.4716 24.7623C17.2023 23.4781 17.1676 22.3626 16.6464 21.3512C16.4678 21.0654 16.2372 20.8156 15.9666 20.6149C15.7349 20.4502 15.4752 20.3297 15.2005 20.2592C15.1247 20.2397 15.0461 20.2353 14.9678 20.2338C14.6608 20.2282 14.4278 20.1535 14.2983 19.9841C14.1057 19.732 14.1932 19.4742 14.2808 19.2157C14.2937 19.1777 14.3067 19.1395 14.3188 19.1014L14.3981 18.8483C14.4147 18.7955 14.4347 18.7437 14.4634 18.6964C14.5968 18.4771 14.8042 18.3113 15.0495 18.2299C15.1528 18.1929 15.2402 18.1713 15.3224 18.1509C15.4813 18.1117 15.6216 18.077 15.8225 17.945C16.1265 17.7309 16.3621 17.4345 16.5024 17.0914C16.5249 17.0365 16.5492 16.9821 16.5788 16.9306L21.3566 8.59887ZM25.5765 15.8439C26.3147 15.8404 26.7607 16.6171 26.1658 17.0544C25.5264 17.5245 24.6684 17.8124 23.5867 17.9079L18.3979 17.9117C17.6251 17.9123 17.1437 17.0734 17.5342 16.4064L17.5541 16.3724C17.7327 16.0675 18.0589 15.8794 18.4123 15.8777L25.5765 15.8439ZM13.2999 16.8562C13.3081 16.858 13.3165 16.8591 13.3249 16.8594C13.4614 16.8638 13.5817 17.0208 13.5152 17.14L13.0851 17.9103C13.083 17.9141 13.0789 17.9163 13.0746 17.916C13.0672 17.9156 13.0615 17.9223 13.063 17.9295L13.0645 17.9368C13.0653 17.9408 13.0647 17.945 13.0627 17.9485L13.0474 17.9755C13.0274 18.0108 12.9879 18.0303 12.9477 18.0248L10.537 17.6932C10.4744 17.6846 10.4111 17.6821 10.3479 17.6849C9.66688 17.7149 8.98446 17.6815 8.30948 17.5851C7.27896 17.4066 6.39686 16.912 5.85826 15.9873C5.50752 15.3851 5.45329 14.6938 5.77264 13.9174C6.3906 12.7893 7.40296 12.0812 9.10776 12.1194C10.5847 12.1162 11.5384 12.6981 12.1611 13.6504C12.3196 13.945 12.4218 14.2664 12.4624 14.5984C12.4936 14.8815 12.4724 15.1675 12.4003 15.4423C12.3796 15.5213 12.3431 15.5949 12.3041 15.6666C12.159 15.9336 12.1101 16.1715 12.1936 16.3679C12.318 16.6597 12.5854 16.7109 12.8535 16.7622C12.893 16.7697 12.9326 16.7773 12.9717 16.7856L13.2999 16.8562ZM10.7956 13.7822C11.2932 14.2061 11.567 14.7954 11.2521 15.423C11.2519 15.4234 11.2519 15.4239 11.2522 15.4243C11.2524 15.4247 11.2524 15.4253 11.2522 15.4257C11.0394 15.8142 10.6929 16.1124 10.2769 16.265C9.90472 16.4127 9.51069 16.498 9.11071 16.5175C8.5933 16.5558 8.07638 16.4367 7.62797 16.1757C6.65558 15.5978 6.28882 14.5016 7.32818 13.7621C7.88293 13.3967 8.53725 13.2121 9.20118 13.2338C9.8604 13.2591 10.3968 13.4414 10.7956 13.7822ZM15.9333 16.994C15.9398 16.8876 15.9147 16.7816 15.8611 16.6894C15.8257 16.6282 15.7785 16.5747 15.7224 16.5317C15.6661 16.4888 15.6021 16.4574 15.5337 16.4393C15.4654 16.4212 15.3943 16.4166 15.3242 16.426C15.2541 16.4355 15.1866 16.4587 15.1255 16.4942C15.0332 16.5477 14.9589 16.6273 14.9118 16.7229C14.8647 16.8187 14.8472 16.9262 14.8613 17.0319C14.8755 17.1376 14.9206 17.2368 14.9911 17.3167C15.0616 17.3967 15.1542 17.4541 15.2572 17.4814C15.3604 17.5087 15.4692 17.5049 15.57 17.4704C15.6709 17.4359 15.7592 17.3721 15.824 17.2873C15.8885 17.2026 15.9266 17.1005 15.9333 16.994ZM15.8573 22.4727C15.7341 21.8308 15.3575 21.3034 14.6568 21.2673C14.6559 21.2672 14.6551 21.2667 14.6546 21.2659C14.6541 21.2651 14.6533 21.2646 14.6524 21.2646C14.2095 21.2576 13.7792 21.4114 13.4411 21.6974C13.1285 21.9478 12.8598 22.2486 12.646 22.5873C12.3567 23.0176 12.205 23.5258 12.211 24.0443C12.2339 25.1753 13.0065 26.0351 14.1632 25.4972C14.7549 25.1971 15.2395 24.722 15.5514 24.1365C15.8509 23.5441 15.9577 22.9889 15.8573 22.4727Z" fill="#FAB387"/>
</g>
<defs>
<filter id="filter0_d_2_632" x="-3.68677" y="0.626465" width="40.1566" height="40.1565" filterUnits="userSpaceOnUse" color-interpolation-filters="sRGB">
<feFlood flood-opacity="0" result="BackgroundImageFix"/>
<feColorMatrix in="SourceAlpha" type="matrix" values="0 0 0 0 0 0 0 0 0 0 0 0 0 0 0 0 0 0 127 0" result="hardAlpha"/>
<feOffset dy="4"/>
<feGaussianBlur stdDeviation="2"/>
<feComposite in2="hardAlpha" operator="out"/>
<feColorMatrix type="matrix" values="0 0 0 0 0 0 0 0 0 0 0 0 0 0 0 0 0 0 0.25 0"/>
<feBlend mode="normal" in2="BackgroundImageFix" result="effect1_dropShadow_2_632"/>
<feBlend mode="normal" in="SourceGraphic" in2="effect1_dropShadow_2_632" result="shape"/>
</filter>
</defs>
</svg>
