<svg width="33" height="33" viewBox="0 0 33 33" fill="none" xmlns="http://www.w3.org/2000/svg">
<path fill-rule="evenodd" clip-rule="evenodd" d="M9.3735 4.64624H24.4115C26.9186 4.64624 28.9512 6.67875 28.9512 9.186V24.224C28.9512 26.7311 26.9186 28.7637 24.4115 28.7637H9.3735C6.86625 28.7637 4.83374 26.7311 4.83374 24.224V9.186C4.83374 6.67875 6.86625 4.64624 9.3735 4.64624ZM21.8564 8.59887C22.2237 7.95843 21.7681 7.18732 21.0942 7.48896C20.3699 7.8132 19.6961 8.41735 19.0794 9.31114L13.9113 18.4094C13.8958 18.4367 13.8587 18.4423 13.8358 18.4207C13.8109 18.3971 13.7702 18.4061 13.7575 18.4379L12.8275 20.7686C12.8043 20.8269 12.7754 20.8828 12.7421 20.936C12.3803 21.514 12.0725 22.1241 11.8227 22.7588C11.4702 23.7444 11.4616 24.7493 12.0039 25.6805C12.3569 26.2866 12.9283 26.6696 13.7617 26.7816C15.0479 26.8007 16.1671 26.276 16.9715 24.7623C17.7021 23.4781 17.6674 22.3626 17.1462 21.3512C16.9676 21.0654 16.737 20.8156 16.4665 20.6149C16.2348 20.4502 15.9751 20.3297 15.7004 20.2592C15.6246 20.2397 15.546 20.2353 15.4677 20.2338C15.1607 20.2282 14.9277 20.1535 14.7981 19.9841C14.6056 19.732 14.6931 19.4742 14.7807 19.2157C14.7936 19.1777 14.8066 19.1395 14.8186 19.1014L14.898 18.8483C14.9146 18.7955 14.9346 18.7437 14.9633 18.6964C15.0966 18.4771 15.3041 18.3113 15.5494 18.2299C15.6527 18.1929 15.7401 18.1713 15.8223 18.1509C15.9812 18.1117 16.1215 18.077 16.3224 17.945C16.6264 17.7309 16.862 17.4345 17.0023 17.0914C17.0248 17.0365 17.0491 16.9821 17.0786 16.9306L21.8564 8.59887ZM26.0763 15.8439C26.8146 15.8404 27.2605 16.6171 26.6657 17.0544C26.0262 17.5245 25.1683 17.8124 24.0866 17.9079L18.8978 17.9117C18.1249 17.9123 17.6436 17.0734 18.0341 16.4064L18.054 16.3724C18.2325 16.0675 18.5588 15.8794 18.9122 15.8777L26.0763 15.8439ZM13.7997 16.8562C13.808 16.858 13.8164 16.8591 13.8248 16.8594C13.9613 16.8638 14.0816 17.0208 14.015 17.14L13.5849 17.9103C13.5828 17.9141 13.5788 17.9163 13.5745 17.916C13.5671 17.9156 13.5613 17.9223 13.5628 17.9295L13.5644 17.9368C13.5652 17.9408 13.5646 17.945 13.5625 17.9485L13.5473 17.9755C13.5273 18.0108 13.4878 18.0303 13.4476 18.0248L11.0369 17.6932C10.9742 17.6846 10.9109 17.6821 10.8478 17.6849C10.1668 17.7149 9.48434 17.6815 8.80935 17.5851C7.77884 17.4066 6.89673 16.912 6.35814 15.9873C6.0074 15.3851 5.95317 14.6938 6.27252 13.9174C6.89048 12.7893 7.90283 12.0812 9.60764 12.1194C11.0845 12.1162 12.0383 12.6981 12.661 13.6504C12.8195 13.945 12.9217 14.2664 12.9623 14.5984C12.9934 14.8815 12.9723 15.1675 12.9002 15.4423C12.8795 15.5213 12.843 15.5949 12.804 15.6666C12.6588 15.9336 12.61 16.1715 12.6935 16.3679C12.8179 16.6597 13.0853 16.7109 13.3533 16.7622C13.3929 16.7697 13.4324 16.7773 13.4715 16.7856L13.7997 16.8562ZM11.2955 13.7822C11.7931 14.2061 12.0668 14.7954 11.752 15.423C11.7518 15.4234 11.7518 15.4239 11.752 15.4243C11.7523 15.4247 11.7523 15.4253 11.7521 15.4257C11.5393 15.8142 11.1928 16.1124 10.7768 16.265C10.4046 16.4127 10.0106 16.498 9.61059 16.5175C9.09318 16.5558 8.57626 16.4367 8.12785 16.1757C7.15546 15.5978 6.7887 14.5016 7.82806 13.7621C8.38281 13.3967 9.03713 13.2121 9.70106 13.2338C10.3603 13.2591 10.8966 13.4414 11.2955 13.7822ZM16.4332 16.994C16.4397 16.8876 16.4145 16.7816 16.3609 16.6894C16.3256 16.6282 16.2784 16.5747 16.2223 16.5317C16.166 16.4888 16.1019 16.4574 16.0336 16.4393C15.9653 16.4212 15.8941 16.4166 15.8241 16.426C15.754 16.4355 15.6865 16.4587 15.6254 16.4942C15.533 16.5477 15.4588 16.6273 15.4117 16.7229C15.3646 16.8187 15.3471 16.9262 15.3611 17.0319C15.3753 17.1376 15.4205 17.2368 15.491 17.3167C15.5615 17.3967 15.654 17.4541 15.7571 17.4814C15.8602 17.5087 15.969 17.5049 16.0699 17.4704C16.1708 17.4359 16.2591 17.3721 16.3238 17.2873C16.3884 17.2026 16.4265 17.1005 16.4332 16.994ZM16.3572 22.4727C16.234 21.8308 15.8574 21.3034 15.1567 21.2673C15.1558 21.2672 15.1549 21.2667 15.1545 21.2659C15.154 21.2651 15.1532 21.2646 15.1522 21.2646C14.7094 21.2576 14.2791 21.4114 13.9409 21.6974C13.6283 21.9478 13.3596 22.2486 13.1459 22.5873C12.8566 23.0176 12.7049 23.5258 12.7108 24.0443C12.7338 25.1753 13.5064 26.0351 14.6631 25.4972C15.2548 25.1971 15.7394 24.722 16.0513 24.1365C16.3508 23.5441 16.4575 22.9889 16.3572 22.4727Z" fill="#FAB387"/>
</svg>
