<svg width="33" height="33" viewBox="0 0 33 33" fill="none" xmlns="http://www.w3.org/2000/svg">
<path d="M18.7304 14.3366L21.0992 11.968C18.483 9.35149 14.241 9.35149 11.6247 11.968C9.00823 14.5842 9.00823 18.8261 11.6247 21.4424C14.241 24.0589 18.4828 24.0589 21.0992 21.4424L18.7304 19.0737C17.4225 20.3817 15.3015 20.3817 13.9934 19.0737C12.6855 17.7657 12.6855 15.6447 13.9934 14.3366C15.3013 13.0282 17.4225 13.0282 18.7304 14.3366Z" fill="#6C7086"/>
<path d="M16.3612 3.30591C8.96135 3.30591 2.96265 9.30453 2.96265 16.7045C2.96265 24.1044 8.96127 30.1031 16.3612 30.1031C23.7611 30.1031 29.7598 24.1044 29.7598 16.7045C29.7598 9.30462 23.7611 3.30591 16.3612 3.30591ZM16.3612 26.7533C10.811 26.7533 6.31247 22.2545 6.31247 16.7045C6.31247 11.1546 10.8113 6.65573 16.3612 6.65573C21.9112 6.65573 26.41 11.1546 26.41 16.7045C26.41 22.2545 21.9112 26.7533 16.3612 26.7533Z" fill="#6C7086"/>
</svg>
