<svg width="33" height="33" viewBox="0 0 33 33" fill="none" xmlns="http://www.w3.org/2000/svg">
<path fill-rule="evenodd" clip-rule="evenodd" d="M9.97661 14.0247H23.3752C25.5952 14.0247 27.3948 15.8243 27.3948 18.0443V24.7436C27.3948 26.9635 25.5952 28.7632 23.3752 28.7632H9.97661C7.75665 28.7632 5.95703 26.9635 5.95703 24.7436V18.0443C5.95703 15.8243 7.75666 14.0247 9.97661 14.0247ZM9.97661 16.7044C9.23663 16.7044 8.63675 17.3043 8.63675 18.0443V24.7436C8.63675 25.4834 9.23663 26.0834 9.97661 26.0834H23.3752C24.1152 26.0834 24.715 25.4834 24.715 24.7436V18.0443C24.715 17.3043 24.1152 16.7044 23.3752 16.7044H9.97661Z" fill="#6C7086"/>
<path fill-rule="evenodd" clip-rule="evenodd" d="M22.3951 7.23401C21.1698 5.4658 18.9271 4.74657 17.1485 4.65651C15.2717 4.56149 12.8601 5.10642 11.296 7.11276C10.633 7.96335 10.354 8.99827 10.2102 9.77467C10.0537 10.6196 9.99223 11.5438 9.97892 12.4377C9.96472 13.3921 10.0048 14.3965 10.0722 15.3644H12.7588C12.5621 12.6983 12.5817 9.82217 13.4094 8.76031C15.1052 6.58506 19.0619 7.12887 20.1925 8.76031C20.7584 9.57703 20.7578 12.5744 20.6159 15.3644H23.2989C23.3515 14.294 23.3839 13.1845 23.3724 12.1625C23.3627 11.3127 23.3224 10.4596 23.2228 9.71186C23.143 9.11234 22.9717 8.06629 22.3951 7.23401Z" fill="#6C7086"/>
</svg>
