<svg width="33" height="33" viewBox="0 0 33 33" fill="none" xmlns="http://www.w3.org/2000/svg">
<path fill-rule="evenodd" clip-rule="evenodd" d="M15.2912 7.72778C21.0968 7.72778 25.8098 12.4409 25.8098 18.2464C25.8098 24.052 21.0968 28.7651 15.2912 28.7651C9.48553 28.7651 4.77246 24.052 4.77246 18.2464C4.77246 12.4409 9.48553 7.72778 15.2912 7.72778ZM19.6497 10.8078C21.3496 10.8078 22.7298 12.188 22.7298 13.8878C22.7298 15.5876 21.3496 16.9679 19.6497 16.9679C17.95 16.9679 16.5696 15.5876 16.5696 13.8878C16.5696 12.188 17.95 10.8078 19.6497 10.8078Z" fill="#89B4FA"/>
<path d="M28.8891 7.72484C28.8891 6.02499 27.509 4.64478 25.8091 4.64478C24.1093 4.64478 22.729 6.02499 22.729 7.72484C22.729 9.42468 24.1093 10.8049 25.8091 10.8049C27.509 10.8049 28.8891 9.42759 28.8891 7.72484Z" fill="#89B4FA"/>
</svg>
