<svg width="34" height="33" viewBox="0 0 34 33" fill="none" xmlns="http://www.w3.org/2000/svg">
<mask id="mask0_2_649" style="mask-type:luminance" maskUnits="userSpaceOnUse" x="4" y="4" width="26" height="25">
<path d="M29.0469 4.64673H4.92944V28.7642H29.0469V4.64673Z" fill="#CDD6F4"/>
</mask>
<g mask="url(#mask0_2_649)">
<path d="M16.9976 28.7645C23.6524 28.7645 29.0472 23.3697 29.0472 16.7149C29.0472 10.0601 23.6524 4.66528 16.9976 4.66528C10.3428 4.66528 4.948 10.0601 4.948 16.7149C4.948 23.3697 10.3428 28.7645 16.9976 28.7645Z" fill="#C992FB"/>
<path d="M22.3246 5.90371C20.9949 5.38633 19.5486 5.10245 18.0359 5.10245C11.5018 5.10245 6.20488 10.3994 6.20488 16.9335C6.20488 23.2944 11.2248 28.4829 17.5191 28.7534C17.3462 28.7607 17.1723 28.7645 16.9976 28.7645C10.3428 28.7645 4.948 23.3697 4.948 16.7149C4.948 10.0601 10.3428 4.66528 16.9976 4.66528C18.91 4.66528 20.7184 5.1108 22.3246 5.90371Z" fill="#E0BEFF"/>
<path d="M14.1833 26.906C21.1852 26.906 26.8614 21.2298 26.8614 14.228C26.8614 11.8887 26.2279 9.69749 25.1231 7.81641C27.5345 10.0198 29.0472 13.1904 29.0472 16.7144C29.0472 23.3692 23.6524 28.764 16.9976 28.764C14.0104 28.764 11.2771 27.6769 9.17163 25.877C10.7089 26.5391 12.4032 26.906 14.1833 26.906Z" fill="#6A2F9E"/>
<path d="M14.1833 26.906C21.1852 26.906 26.8614 21.2298 26.8614 14.228C26.8614 11.8887 26.2279 9.69749 25.1231 7.81641C27.5345 10.0198 29.0472 13.1904 29.0472 16.7144C29.0472 23.3692 23.6524 28.764 16.9976 28.764C14.0104 28.764 11.2771 27.6769 9.17163 25.877C10.7089 26.5391 12.4032 26.906 14.1833 26.906Z" fill="#6A2F9E"/>
<path d="M14.1833 26.906C21.1852 26.906 26.8614 21.2298 26.8614 14.228C26.8614 11.8887 26.2279 9.69749 25.1231 7.81641C27.5345 10.0198 29.0472 13.1904 29.0472 16.7144C29.0472 23.3692 23.6524 28.764 16.9976 28.764C14.0104 28.764 11.2771 27.6769 9.17163 25.877C10.7089 26.5391 12.4032 26.906 14.1833 26.906Z" fill="#A551F2"/>
<path d="M17.1411 19.8753C17.7745 20.9356 19.2739 20.9766 20.0248 20.0273C20.1418 19.8792 20.2598 19.5792 20.4407 19.4749C20.85 19.2377 21.2215 19.706 21.0817 20.0874C20.3587 22.0542 17.4335 22.2493 16.4034 20.4524C16.2286 20.1475 16.1411 19.6142 16.6022 19.5175C16.8859 19.4578 16.9963 19.6334 17.1411 19.8753Z" fill="#20103F"/>
<path d="M25.4962 15.1026C25.4962 16.6418 24.2484 17.8897 22.7092 17.8897C21.1699 17.8897 19.9221 16.6418 19.9221 15.1026C19.9221 13.5634 21.1699 12.3157 22.7092 12.3157C24.2484 12.3157 25.4962 13.5634 25.4962 15.1026Z" fill="#20103F"/>
<path d="M23.6573 15.9193C24.2309 16.1326 24.8665 15.8468 25.077 15.2809C25.2875 14.715 24.9931 14.0833 24.4196 13.87C23.846 13.6567 23.2103 13.9425 22.9998 14.5084C22.7895 15.0744 23.0838 15.706 23.6573 15.9193Z" fill="#FCFCFE"/>
<path d="M15.9868 15.6488C15.9868 17.1881 14.739 18.4357 13.1998 18.4357C11.6606 18.4357 10.4128 17.1881 10.4128 15.6488C10.4128 14.1096 11.6606 12.8618 13.1998 12.8618C14.739 12.8618 15.9868 14.1096 15.9868 15.6488Z" fill="#20103F"/>
<path d="M14.1493 16.4664C14.7229 16.6797 15.3584 16.3939 15.5689 15.828C15.7794 15.2622 15.4851 14.6304 14.9115 14.4171C14.3379 14.2038 13.7023 14.4896 13.4918 15.0556C13.2814 15.6215 13.5757 16.2531 14.1493 16.4664Z" fill="#FCFCFE"/>
<path d="M26.1506 22.5888C26.4826 22.5888 26.7518 22.3198 26.7518 21.9878C26.7518 21.6558 26.4826 21.3867 26.1506 21.3867C25.8186 21.3867 25.5496 21.6558 25.5496 21.9878C25.5496 22.3198 25.8186 22.5888 26.1506 22.5888Z" fill="#C992FB"/>
<path d="M22.8724 25.1582C23.5664 25.1582 24.1292 24.5955 24.1292 23.9013C24.1292 23.2073 23.5664 22.6445 22.8724 22.6445C22.1782 22.6445 21.6155 23.2073 21.6155 23.9013C21.6155 24.5955 22.1782 25.1582 22.8724 25.1582Z" fill="#20103F"/>
<path d="M20.003 26.5785C20.2294 26.5785 20.4129 26.3951 20.4129 26.1687C20.4129 25.9424 20.2294 25.7588 20.003 25.7588C19.7767 25.7588 19.5933 25.9424 19.5933 26.1687C19.5933 26.3951 19.7767 26.5785 20.003 26.5785Z" fill="#20103F"/>
<path d="M15.0029 25.3215C15.3651 25.3215 15.6586 25.0279 15.6586 24.6657C15.6586 24.3036 15.3651 24.01 15.0029 24.01C14.6407 24.01 14.3472 24.3036 14.3472 24.6657C14.3472 25.0279 14.6407 25.3215 15.0029 25.3215Z" fill="#20103F"/>
<path d="M11.8335 23.0258C12.7389 23.0258 13.4729 22.2919 13.4729 21.3865C13.4729 20.481 12.7389 19.7471 11.8335 19.7471C10.9281 19.7471 10.1941 20.481 10.1941 21.3865C10.1941 22.2919 10.9281 23.0258 11.8335 23.0258Z" fill="#20103F"/>
<path d="M8.17232 19.6386C8.38359 19.6386 8.55485 19.4672 8.55485 19.2561C8.55485 19.0448 8.38359 18.8735 8.17232 18.8735C7.96106 18.8735 7.78979 19.0448 7.78979 19.2561C7.78979 19.4672 7.96106 19.6386 8.17232 19.6386Z" fill="#20103F"/>
<path d="M8.82809 14.884C9.03936 14.884 9.21062 14.7127 9.21062 14.5014C9.21062 14.2901 9.03936 14.1189 8.82809 14.1189C8.61682 14.1189 8.44556 14.2901 8.44556 14.5014C8.44556 14.7127 8.61682 14.884 8.82809 14.884Z" fill="#20103F"/>
<path d="M15.3041 10.5666C15.953 10.5666 16.479 10.0406 16.479 9.39171C16.479 8.74283 15.953 8.2168 15.3041 8.2168C14.6552 8.2168 14.1292 8.74283 14.1292 9.39171C14.1292 10.0406 14.6552 10.5666 15.3041 10.5666Z" fill="#20103F"/>
<path d="M19.3747 11.7695C19.7369 11.7695 20.0304 11.4759 20.0304 11.1138C20.0304 10.7516 19.7369 10.458 19.3747 10.458C19.0126 10.458 18.719 10.7516 18.719 11.1138C18.719 11.4759 19.0126 11.7695 19.3747 11.7695Z" fill="#20103F"/>
<path d="M19.3756 8.76327C19.5265 8.76327 19.6488 8.64094 19.6488 8.49003C19.6488 8.33913 19.5265 8.2168 19.3756 8.2168C19.2246 8.2168 19.1023 8.33913 19.1023 8.49003C19.1023 8.64094 19.2246 8.76327 19.3756 8.76327Z" fill="#20103F"/>
</g>
</svg>
