<svg width="33" height="33" viewBox="0 0 33 33" fill="none" xmlns="http://www.w3.org/2000/svg">
<path d="M5.24267 21.681C4.69039 21.681 4.24268 21.2333 4.24268 20.681V12.345C4.24268 11.7927 4.69039 11.345 5.24268 11.345H6.881C7.18078 11.345 7.46474 11.4795 7.65467 11.7114L9.69286 14.2002C10.093 14.6888 10.8401 14.6888 11.2402 14.2002L13.2784 11.7114C13.4683 11.4795 13.7523 11.345 14.0521 11.345H15.6904C16.2426 11.345 16.6904 11.7927 16.6904 12.345V20.681C16.6904 21.2333 16.2426 21.681 15.6904 21.681H14.5785C14.0262 21.681 13.5785 21.2333 13.5785 20.681V18.5525C13.5785 17.6129 12.4001 17.192 11.8048 17.9189L11.2402 18.6083C10.8401 19.0969 10.0929 19.0969 9.69285 18.6083L9.12829 17.9189C8.533 17.192 7.3546 17.6129 7.3546 18.5525V20.681C7.3546 21.2333 6.90689 21.681 6.3546 21.681H5.24267ZM24.4243 20.8944C24.0287 21.3194 23.3556 21.3194 22.9601 20.8944L20.5012 18.252C19.9394 17.6483 20.3676 16.665 21.1923 16.665C21.7136 16.665 22.1362 16.2424 22.1362 15.7211V12.345C22.1362 11.7927 22.5839 11.345 23.1362 11.345H24.2482C24.8005 11.345 25.2482 11.7927 25.2482 12.345V15.721C25.2482 16.2424 25.6708 16.665 26.1922 16.665C27.0169 16.665 27.445 17.6483 26.8832 18.2521L24.4243 20.8944Z" fill="#89B4FA"/>
</svg>
