<svg width="33" height="35" viewBox="0 0 33 35" fill="none" xmlns="http://www.w3.org/2000/svg">
<g filter="url(#filter0_d_2_674)">
<path fill-rule="evenodd" clip-rule="evenodd" d="M10.382 6.9187C9.03073 6.9187 7.9353 8.01412 7.9353 9.36539V24.0456C7.9353 25.3968 9.03073 26.4923 10.382 26.4923H24.2466C25.5979 26.4923 26.6933 25.3968 26.6933 24.0456V9.3654C26.6933 8.01413 25.5979 6.9187 24.2466 6.9187H10.382ZM18.6701 15.8674L17.9112 19.6172C17.8099 20.118 17.3697 20.478 16.8588 20.478C16.3479 20.478 15.9078 20.118 15.8064 19.6172L15.0474 15.8674C14.8865 15.1343 14.6733 13.8248 14.5611 12.9971C14.5566 12.9642 14.5286 12.9399 14.4953 12.9399C14.4573 12.9399 14.4271 12.9714 14.429 13.0093C14.4818 14.0696 14.5168 15.6151 14.5168 16.6174V22.637C14.5168 23.1927 14.0663 23.6432 13.5105 23.6432C12.9548 23.6432 12.5043 23.1927 12.5043 22.637V12.2172C12.5043 11.3532 13.2046 10.6528 14.0686 10.6528C14.8094 10.6528 15.4486 11.1724 15.6 11.8975L16.566 16.5259C16.6534 17.0499 16.7574 17.724 16.7985 18.1184C16.8018 18.1493 16.8277 18.1727 16.8588 18.1727C16.8899 18.1727 16.9159 18.1493 16.9191 18.1184C16.9602 17.724 17.0642 17.0499 17.1515 16.5259L18.1175 11.8976C18.2689 11.1724 18.9081 10.6528 19.6489 10.6528C20.5129 10.6528 21.2133 11.3532 21.2133 12.2172V22.6369C21.2133 23.1927 20.7628 23.6432 20.207 23.6432C19.6512 23.6432 19.2007 23.1927 19.2007 22.6369V16.6174C19.2007 15.6149 19.2357 14.069 19.2887 13.0087C19.2906 12.9711 19.2606 12.9399 19.223 12.9399C19.1895 12.9399 19.1614 12.9648 19.1575 12.998C19.0616 13.8258 18.831 15.1346 18.6701 15.8674Z" fill="#F9E2AF"/>
</g>
<defs>
<filter id="filter0_d_2_674" x="-3.43396" y="0.626465" width="40.1566" height="40.1565" filterUnits="userSpaceOnUse" color-interpolation-filters="sRGB">
<feFlood flood-opacity="0" result="BackgroundImageFix"/>
<feColorMatrix in="SourceAlpha" type="matrix" values="0 0 0 0 0 0 0 0 0 0 0 0 0 0 0 0 0 0 127 0" result="hardAlpha"/>
<feOffset dy="4"/>
<feGaussianBlur stdDeviation="2"/>
<feComposite in2="hardAlpha" operator="out"/>
<feColorMatrix type="matrix" values="0 0 0 0 0 0 0 0 0 0 0 0 0 0 0 0 0 0 0.25 0"/>
<feBlend mode="normal" in2="BackgroundImageFix" result="effect1_dropShadow_2_674"/>
<feBlend mode="normal" in="SourceGraphic" in2="effect1_dropShadow_2_674" result="shape"/>
</filter>
</defs>
</svg>
