<svg width="33" height="33" viewBox="0 0 33 33" fill="none" xmlns="http://www.w3.org/2000/svg">
<path d="M8.04075 5.98682H25.1909C25.7594 5.98682 26.3048 6.21268 26.7068 6.61471C27.1088 7.01675 27.3347 7.56203 27.3347 8.13059V25.2808C27.3347 25.8493 27.1088 26.3946 26.7068 26.7967C26.3048 27.1987 25.7594 27.4245 25.1909 27.4245H8.04075C7.47219 27.4245 6.92691 27.1987 6.52487 26.7967C6.12283 26.3946 5.89697 25.8493 5.89697 25.2808V8.13059C5.89697 7.56203 6.12283 7.01675 6.52487 6.61471C6.92691 6.21268 7.47219 5.98682 8.04075 5.98682ZM11.1845 10.2744C10.6322 10.2744 10.1845 10.7221 10.1845 11.2744V13.5619C10.1845 14.1142 10.6322 14.5619 11.1845 14.5619H14.4721V15.7057C14.4721 16.258 14.0244 16.7057 13.4721 16.7057H13.3283C12.776 16.7057 12.3283 17.1534 12.3283 17.7057V22.137C12.3283 22.6893 12.776 23.137 13.3283 23.137H13.4721C14.0244 23.137 14.4721 22.6893 14.4721 22.137V21.9932C14.4721 21.4409 14.9198 20.9932 15.4721 20.9932H17.7596C18.3119 20.9932 18.7596 21.4409 18.7596 21.9932V22.137C18.7596 22.6893 19.2073 23.137 19.7596 23.137H19.9034C20.4557 23.137 20.9034 22.6893 20.9034 22.137V17.7057C20.9034 17.1534 20.4557 16.7057 19.9034 16.7057H19.7596C19.2073 16.7057 18.7596 16.258 18.7596 15.7057V14.5619H22.0472C22.5994 14.5619 23.0472 14.1142 23.0472 13.5619V11.2744C23.0472 10.7221 22.5994 10.2744 22.0472 10.2744H19.7596C19.2073 10.2744 18.7596 10.7221 18.7596 11.2744V14.5619H14.4721V11.2744C14.4721 10.7221 14.0244 10.2744 13.4721 10.2744H11.1845Z" fill="#A6E3A1"/>
</svg>
