<svg width="33" height="33" viewBox="0 0 33 33" fill="none" xmlns="http://www.w3.org/2000/svg">
<path fill-rule="evenodd" clip-rule="evenodd" d="M18.2258 4.64648C18.0513 4.64648 17.8895 4.68385 17.7399 4.73368C18.0576 4.94545 18.2321 5.22572 18.3192 5.54337C18.3255 5.58697 18.3379 5.61811 18.3441 5.66171C18.3504 5.69908 18.3565 5.73645 18.3565 5.77381C18.3815 6.32191 18.2133 6.39043 18.095 6.7143C17.9144 7.1316 17.9642 7.58005 18.1822 7.94129C18.2008 7.98489 18.2258 8.03472 18.257 8.07832C18.0202 6.50254 19.3344 6.26586 19.5773 5.77381C19.596 5.34407 19.241 5.05755 18.9607 4.85825C18.6928 4.69631 18.4501 4.64648 18.2258 4.64648ZM20.2063 5.00151C20.1814 5.14475 20.2002 5.10738 20.1939 5.18212C20.1877 5.23195 20.1877 5.29424 20.1816 5.34407C20.1691 5.39388 20.1566 5.44371 20.1379 5.49354C20.1254 5.54337 20.1068 5.5932 20.088 5.64302C20.0631 5.69285 20.0445 5.73645 20.0196 5.78628C20.0009 5.8112 19.9885 5.8361 19.9697 5.86101C19.9573 5.8797 19.9448 5.89838 19.9323 5.91707C19.9013 5.96067 19.87 6.00427 19.839 6.04164C19.8016 6.07901 19.7705 6.12261 19.7268 6.15376V6.15999C19.6894 6.19113 19.652 6.2285 19.6085 6.25965C19.4777 6.35929 19.3282 6.43403 19.1911 6.52746C19.1476 6.5586 19.104 6.58352 19.0667 6.62089C19.023 6.65202 18.9856 6.68316 18.9484 6.72054C18.9047 6.75791 18.8736 6.79528 18.8362 6.83888C18.805 6.87625 18.7676 6.91985 18.7427 6.96345C18.7116 7.00705 18.6805 7.05065 18.6556 7.09424C18.6307 7.14406 18.6119 7.18767 18.587 7.23749C18.5684 7.28732 18.5496 7.33092 18.5372 7.38075C18.5185 7.43681 18.5061 7.48662 18.4936 7.53645C18.4874 7.56139 18.4874 7.59251 18.4811 7.61742C18.475 7.64235 18.475 7.66725 18.4687 7.69217C18.4687 7.74199 18.4625 7.79805 18.4625 7.84787C18.4625 7.88524 18.4625 7.92261 18.4687 7.95998C18.4687 8.00981 18.475 8.05964 18.4874 8.1157C18.4936 8.16552 18.5061 8.21534 18.5185 8.26517C18.5373 8.315 18.5497 8.36483 18.5684 8.41465C18.5808 8.4458 18.5995 8.47694 18.6119 8.50185L17.1795 7.94753C16.9366 7.87901 16.6998 7.81674 16.457 7.76068C16.3261 7.72954 16.1953 7.69839 16.0646 7.66725C15.6909 7.59251 15.3109 7.53645 14.9311 7.49908C14.9186 7.49908 14.9123 7.49285 14.8998 7.49285C14.5262 7.45548 14.1586 7.43679 13.7849 7.43679C13.5109 7.43679 13.2369 7.44924 12.9691 7.46793C12.5891 7.49287 12.2092 7.54268 11.8293 7.60496C11.7359 7.61741 11.6424 7.63611 11.549 7.65479C11.3559 7.69216 11.1691 7.73576 10.9885 7.77935C10.895 7.80428 10.8016 7.82918 10.7082 7.85409C10.6148 7.89146 10.5276 7.93506 10.4403 7.97243C10.3718 8.00358 10.3033 8.03472 10.2348 8.06586C10.2224 8.0721 10.2099 8.0721 10.2037 8.0783C10.1414 8.10946 10.0853 8.13436 10.0293 8.1655C10.0106 8.17175 9.99814 8.17795 9.98568 8.18419C9.91717 8.21533 9.84867 8.2527 9.79261 8.28384C9.74901 8.30253 9.70541 8.32744 9.66804 8.34613C9.64935 8.35858 9.62444 8.37105 9.61198 8.37727C9.55593 8.4084 9.49987 8.43956 9.45005 8.47069C9.39399 8.50183 9.34417 8.53297 9.30056 8.56412C9.25697 8.59526 9.21337 8.62017 9.17599 8.65132C9.16976 8.65755 9.16354 8.65755 9.15731 8.66377C9.11994 8.68869 9.07635 8.71982 9.03898 8.75097C9.03898 8.75097 9.03273 8.7572 9.02653 8.76341C8.99539 8.78833 8.96424 8.81323 8.9331 8.83815C8.92065 8.84438 8.90818 8.85683 8.89573 8.86307C8.86459 8.88799 8.83344 8.91913 8.8023 8.94404C8.79607 8.95649 8.78363 8.96273 8.77738 8.96896C8.74001 9.00633 8.70265 9.03748 8.66528 9.07485C8.65903 9.07485 8.65903 9.08108 8.65283 9.0873C8.61545 9.11844 8.57808 9.15581 8.54071 9.19317C8.53448 9.19942 8.53448 9.20562 8.52826 9.20562C8.49712 9.23676 8.46599 9.26791 8.43483 9.30528C8.42239 9.31773 8.4037 9.3302 8.39125 9.34265C8.3601 9.38002 8.32273 9.41739 8.28536 9.45475C8.27912 9.4672 8.26668 9.47344 8.26044 9.48589C8.21061 9.53572 8.16701 9.58555 8.11718 9.63538C8.11095 9.64162 8.10473 9.64783 8.0985 9.65407C7.99884 9.75995 7.89296 9.86584 7.78085 9.95925C7.66874 10.0589 7.55041 10.1523 7.43206 10.2333C7.30749 10.3205 7.18916 10.3952 7.05836 10.47C6.93379 10.5385 6.80299 10.6008 6.66598 10.6568C6.53518 10.7129 6.39816 10.7627 6.26113 10.8063C5.99953 10.8624 5.73172 10.9682 5.50127 10.9869C5.45144 10.9869 5.39539 10.9994 5.34556 11.0056C5.2895 11.0181 5.23967 11.0305 5.18986 11.043C5.14003 11.0617 5.0902 11.0804 5.04037 11.099C4.99054 11.1177 4.94071 11.1426 4.8909 11.1676C4.8473 11.1987 4.79747 11.2236 4.75387 11.2548C4.71027 11.2859 4.66667 11.3233 4.6293 11.3606C4.5857 11.3918 4.5421 11.4354 4.50474 11.4727C4.46735 11.5164 4.42998 11.5537 4.39885 11.5973C4.36771 11.6471 4.33034 11.6907 4.30542 11.7406C4.27428 11.7842 4.24314 11.834 4.21822 11.8838C4.1933 11.9399 4.1684 11.9897 4.14971 12.0458C4.13102 12.0956 4.11234 12.1516 4.09365 12.2077C4.08121 12.2575 4.06873 12.3074 4.06252 12.3572C4.06252 12.3634 4.05628 12.3696 4.05628 12.3759C4.04384 12.4319 4.04384 12.5067 4.03759 12.544C4.03135 12.5876 4.02515 12.625 4.02515 12.6686C4.02515 12.6935 4.02515 12.7247 4.03139 12.7496C4.03762 12.7932 4.04384 12.8305 4.05631 12.8679C4.06876 12.9053 4.08123 12.9426 4.09991 12.98V12.9863C4.11859 13.0236 4.14351 13.061 4.16842 13.0984C4.19334 13.1357 4.21825 13.1731 4.24939 13.2105C4.28052 13.2416 4.31789 13.279 4.35527 13.3101C4.39264 13.3475 4.43001 13.3786 4.47361 13.4098C4.62308 13.5406 4.66045 13.5842 4.85354 13.6838C4.88468 13.7025 4.91582 13.715 4.9532 13.7337C4.95943 13.7337 4.96565 13.7399 4.97188 13.7399C4.97188 13.7523 4.97188 13.7586 4.97812 13.771C4.98435 13.8209 4.9968 13.8707 5.00926 13.9205C5.02171 13.9766 5.0404 14.0264 5.05909 14.07C5.07778 14.1074 5.09023 14.1447 5.10892 14.1821C5.11515 14.1946 5.12136 14.207 5.1276 14.2132C5.15252 14.263 5.17742 14.3067 5.20233 14.3503C5.23348 14.3938 5.26462 14.4375 5.29576 14.481C5.3269 14.5184 5.36428 14.5621 5.40165 14.5994C5.43902 14.6367 5.47639 14.668 5.51999 14.7053C5.51999 14.7053 5.52623 14.7115 5.53243 14.7115C5.5698 14.7427 5.60717 14.7738 5.64454 14.7987C5.68814 14.8298 5.73174 14.8547 5.78157 14.8797C5.82517 14.9046 5.87499 14.9295 5.92482 14.9483C5.96219 14.9669 6.00579 14.9793 6.04939 14.9918C6.05562 14.9981 6.06184 14.9981 6.07431 15.0043C6.09923 15.0106 6.13036 15.0167 6.15528 15.0229C6.13659 15.3593 6.13036 15.6769 6.1802 15.789C6.23626 15.9136 6.5103 15.5336 6.78436 15.0976C6.74699 15.5275 6.72207 16.0319 6.78436 16.1815C6.85286 16.3372 7.22656 15.8513 7.55045 15.3156C11.9664 14.2943 15.9961 17.3461 16.4196 21.6561C16.3387 20.9835 15.5103 20.6098 15.1304 20.7032C14.9435 21.1641 14.6258 21.7558 14.1151 22.1233C14.1588 21.7123 14.14 21.2887 14.0529 20.8777C13.9158 21.4506 13.648 21.9863 13.2805 22.4472C12.6888 22.4907 12.0971 22.2043 11.7857 21.7746C11.7608 21.7558 11.7546 21.7184 11.7359 21.6935C11.7172 21.65 11.6985 21.6063 11.6861 21.5627C11.6674 21.5192 11.6549 21.4755 11.6487 21.432C11.6425 21.3883 11.6425 21.3447 11.6425 21.2949C11.6425 21.2638 11.6425 21.2326 11.6425 21.2015C11.6487 21.1578 11.6612 21.1143 11.6736 21.0707C11.6861 21.0271 11.6985 20.9835 11.7172 20.9398C11.7421 20.8963 11.7608 20.8527 11.792 20.8091C11.8978 20.5101 11.8978 20.2672 11.7048 20.124C11.6674 20.0991 11.63 20.0804 11.5864 20.0617C11.5615 20.0555 11.5304 20.0431 11.5054 20.0368C11.4868 20.0305 11.4743 20.0243 11.4556 20.0181C11.412 20.0057 11.3684 19.9932 11.3248 19.9869C11.2812 19.9745 11.2376 19.9683 11.194 19.9683C11.1504 19.962 11.1006 19.9558 11.057 19.9558C11.0259 19.9558 10.9947 19.962 10.9636 19.962C10.9137 19.962 10.8701 19.9683 10.8265 19.9808C10.7829 19.9869 10.7394 19.9932 10.6958 20.0057C10.6522 20.0181 10.6086 20.0306 10.565 20.0492C10.5214 20.068 10.484 20.0866 10.4404 20.1054C10.403 20.124 10.3657 20.1489 10.3221 20.1675C8.87084 21.1143 9.73659 23.3316 10.7269 23.9731C10.3532 24.0416 9.97327 24.1227 9.86738 24.2036C9.86114 24.2098 9.85494 24.2161 9.85494 24.2161C10.1228 24.3779 10.403 24.515 10.6958 24.6333C11.0944 24.7641 11.5179 24.8825 11.7048 24.9323V24.9385C12.2217 25.0444 12.7449 25.0817 13.2743 25.0507C16.0335 24.8576 18.2944 22.7586 18.7054 19.9932C18.7179 20.0492 18.7304 20.0991 18.7428 20.1551C18.7614 20.2672 18.7864 20.3855 18.7988 20.504V20.5101C18.8113 20.5663 18.8176 20.6223 18.8237 20.6721V20.6971C18.83 20.7531 18.8362 20.8092 18.8362 20.8589C18.8425 20.9275 18.8487 20.996 18.8487 21.0646V21.1641C18.8487 21.1953 18.855 21.2327 18.855 21.2638C18.855 21.3012 18.8487 21.3386 18.8487 21.376V21.4632C18.8487 21.5067 18.8425 21.5441 18.8425 21.5877C18.8425 21.6126 18.8425 21.6375 18.8362 21.6687C18.8362 21.7123 18.8299 21.7558 18.8299 21.8056C18.8237 21.8244 18.8237 21.843 18.8237 21.8618C18.8174 21.9115 18.8113 21.9552 18.805 22.005C18.805 22.0236 18.805 22.0424 18.7988 22.061C18.7925 22.1233 18.7801 22.1793 18.7739 22.2416V22.2479V22.2541C18.7614 22.3102 18.749 22.3725 18.7365 22.4286V22.4472C18.7241 22.5033 18.7116 22.5593 18.6991 22.6153C18.6991 22.6216 18.6928 22.6341 18.6928 22.6402C18.6805 22.6964 18.6679 22.7524 18.6493 22.8085V22.8272C18.6307 22.8895 18.6119 22.9455 18.5995 23.0016C18.5933 23.0078 18.5933 23.0141 18.5933 23.0141C18.5745 23.0762 18.5559 23.1385 18.5372 23.2008C18.5122 23.2631 18.4936 23.3192 18.4687 23.3815C18.4438 23.4438 18.4251 23.5061 18.4002 23.5621C18.3753 23.6244 18.3504 23.6805 18.3255 23.7427H18.3192C18.2942 23.7988 18.2693 23.8611 18.2382 23.9171C18.2319 23.9358 18.2258 23.9482 18.2195 23.9607C18.2133 23.967 18.2133 23.9731 18.2071 23.9794C17.8022 24.7953 17.2043 25.5116 16.4569 26.0722C16.407 26.1032 16.3572 26.1406 16.3075 26.178C16.295 26.1905 16.2763 26.1968 16.2638 26.2091C16.2203 26.2403 16.1766 26.2714 16.1267 26.3026L16.1455 26.34H16.1517C16.2389 26.3275 16.3261 26.3151 16.4133 26.3026H16.4195C16.5815 26.2777 16.7435 26.2465 16.9053 26.2154C16.949 26.2091 16.9989 26.1968 17.0424 26.1843C17.0735 26.178 17.0984 26.1718 17.1296 26.1655C17.1732 26.1593 17.2167 26.1469 17.2604 26.1406C17.2978 26.1282 17.3352 26.122 17.3725 26.1095C17.9953 25.96 18.5995 25.7545 19.1787 25.5116C18.1884 26.8631 16.8618 27.9531 15.3109 28.6693C16.0272 28.6195 16.7435 28.5012 17.4347 28.3018C19.9448 27.5607 22.0563 25.8728 23.3206 23.5995C23.0652 25.0382 22.4923 26.4085 21.6452 27.6043C22.2494 27.2057 22.8037 26.7448 23.3081 26.2216C24.7033 24.7642 25.6188 22.9144 25.9302 20.9275C26.1421 21.9116 26.2044 22.9268 26.1108 23.9296C30.6078 17.6576 26.4847 11.1552 24.7593 9.44239C24.7532 9.42994 24.7469 9.4237 24.7469 9.41124C24.7407 9.41748 24.7407 9.41748 24.7407 9.42368C24.7407 9.41745 24.7407 9.41745 24.7344 9.41124C24.7344 9.48599 24.7282 9.56072 24.7219 9.63546C24.7033 9.77872 24.6846 9.91573 24.6596 10.0528C24.6285 10.1898 24.5912 10.3268 24.5538 10.4638C24.5102 10.5946 24.4604 10.7317 24.4043 10.8624C24.3483 10.987 24.2859 11.1178 24.2175 11.2424C24.149 11.3607 24.0742 11.4853 23.9932 11.5974C23.9123 11.7157 23.825 11.8278 23.7379 11.9337C23.6444 12.0458 23.5447 12.1455 23.4452 12.2451C23.3829 12.3012 23.3267 12.351 23.2646 12.4008C23.2147 12.4445 23.1711 12.4818 23.1212 12.5254C23.0092 12.6126 22.8971 12.6936 22.7724 12.7683C22.6541 12.8431 22.5295 12.9178 22.4051 12.9801C22.2742 13.0424 22.1434 13.0984 22.0126 13.1545C21.8818 13.2043 21.7448 13.2479 21.6078 13.2853C21.4708 13.3227 21.3275 13.3538 21.1905 13.3787C21.0472 13.4036 20.904 13.4161 20.7669 13.4285C20.6673 13.4348 20.5677 13.441 20.468 13.441C20.3248 13.441 20.1814 13.4285 20.0445 13.4161C19.9013 13.4036 19.7579 13.3849 19.621 13.3538C19.4777 13.3288 19.3407 13.2915 19.2036 13.2479H19.1974C19.3344 13.2354 19.4714 13.223 19.6085 13.1981C19.7517 13.1731 19.8888 13.142 20.0257 13.1046C20.1628 13.0673 20.2999 13.0237 20.4306 12.9739C20.5676 12.924 20.6985 12.8617 20.823 12.7995C20.9539 12.7372 21.0722 12.6687 21.1966 12.5939C21.3151 12.5129 21.4334 12.432 21.5455 12.3448C21.6575 12.2576 21.7635 12.1642 21.8631 12.0645C21.9691 11.9711 22.0625 11.8652 22.1558 11.7593C22.2492 11.6472 22.3365 11.5351 22.4175 11.423C22.4298 11.4043 22.4424 11.3794 22.4549 11.3607C22.5171 11.261 22.5794 11.1614 22.6355 11.0617C22.704 10.9372 22.7663 10.8126 22.8223 10.6818C22.8783 10.551 22.9281 10.4202 22.9718 10.2832C23.0154 10.1524 23.0466 10.0154 23.0777 9.87835C23.1026 9.73509 23.1275 9.59806 23.14 9.46105C23.1524 9.31779 23.1649 9.17454 23.1649 9.03752C23.1649 8.93786 23.1586 8.8382 23.1524 8.73856C23.14 8.5953 23.1213 8.45827 23.1026 8.32126C23.0777 8.178 23.0466 8.04098 23.0092 7.90395C22.9655 7.77316 22.922 7.63614 22.8721 7.50534C22.8223 7.37454 22.76 7.24375 22.6978 7.11918C22.6292 6.99461 22.5607 6.87005 22.486 6.75171C22.4051 6.63337 22.324 6.52125 22.2369 6.40915C22.1434 6.30326 22.05 6.19738 21.9503 6.09149C21.9005 6.04168 21.8445 5.98562 21.7885 5.93579C21.5082 5.7178 21.2154 5.51226 20.9226 5.32542C20.8791 5.30048 20.8417 5.28182 20.7982 5.26313C20.5926 5.13233 20.3994 5.06378 20.2063 5.00151Z" fill="#F9E2AF"/>
</svg>
