<svg width="33" height="37" viewBox="0 0 33 37" fill="none" xmlns="http://www.w3.org/2000/svg">
<g filter="url(#filter0_d_2_687)">
<path fill-rule="evenodd" clip-rule="evenodd" d="M18.7256 4.64648V4.64648C18.5239 4.64648 18.4789 4.90993 18.5976 5.07308C18.7017 5.21615 18.7727 5.37448 18.819 5.54337C18.8253 5.58697 18.8378 5.61811 18.844 5.66171C18.8503 5.69908 18.8564 5.73645 18.8564 5.77381C18.8813 6.32191 18.7132 6.39043 18.5949 6.7143C18.4143 7.1316 18.4641 7.58005 18.6821 7.94129V7.94129C18.6976 7.97765 18.7416 7.96212 18.738 7.92275C18.6185 6.60358 19.6498 6.29593 20.0009 5.88634C20.0595 5.81796 20.0834 5.72666 20.0704 5.63753C20.0189 5.28228 19.7101 5.0357 19.4606 4.85825C19.1927 4.69631 18.9499 4.64648 18.7256 4.64648ZM20.8782 5.05997C20.7881 5.02707 20.7018 5.08651 20.6938 5.18212V5.18212C20.6876 5.23195 20.6876 5.29424 20.6814 5.34407C20.669 5.39388 20.6565 5.44371 20.6378 5.49354C20.6253 5.54337 20.6067 5.5932 20.5879 5.64302C20.5771 5.66456 20.5675 5.68494 20.5581 5.70516C20.5328 5.75934 20.5056 5.81325 20.4696 5.86101V5.86101C20.4571 5.8797 20.4447 5.89838 20.4322 5.91707C20.4011 5.96067 20.3699 6.00427 20.3388 6.04164C20.3022 6.07825 20.2716 6.12084 20.2293 6.15185C20.2277 6.15306 20.2267 6.15497 20.2267 6.15702V6.15702C20.2267 6.1589 20.2259 6.16068 20.2244 6.16189C20.1878 6.19264 20.151 6.22913 20.1084 6.25965C19.9776 6.35929 19.8281 6.43403 19.691 6.52746V6.52746C19.6072 6.58741 19.521 6.64753 19.4482 6.72054V6.72054C19.4046 6.75791 19.3735 6.79528 19.3361 6.83888C19.3049 6.87625 19.2675 6.91985 19.2426 6.96345C19.2115 7.00705 19.1804 7.05065 19.1555 7.09424C19.1306 7.14406 19.1118 7.18767 19.0869 7.23749C19.0682 7.28732 19.0495 7.33092 19.037 7.38075C19.0184 7.43681 19.0059 7.48662 18.9935 7.53645C18.9873 7.56139 18.9873 7.59251 18.981 7.61742V7.61742C18.9689 7.66631 18.9685 7.71766 18.9656 7.76793C18.964 7.7951 18.9624 7.82231 18.9624 7.84787V7.84787C18.9624 7.92269 18.9659 7.99807 18.9786 8.0718C18.9811 8.08606 18.984 8.10066 18.9873 8.1157C18.9935 8.16552 19.0059 8.21534 19.0184 8.26517C19.0372 8.315 19.0496 8.36483 19.0682 8.41465V8.41465C19.081 8.44664 19.053 8.47909 19.0209 8.46665L17.6794 7.94753C17.4364 7.87901 17.1997 7.81674 16.9569 7.76068C16.826 7.72954 16.6952 7.69839 16.5645 7.66725C16.1908 7.59251 15.8108 7.53645 15.4309 7.49908C15.4185 7.49908 15.4122 7.49285 15.3997 7.49285C15.026 7.45548 14.6585 7.43679 14.2848 7.43679C14.0108 7.43679 13.7368 7.44924 13.469 7.46793C13.089 7.49287 12.7091 7.54268 12.3292 7.60496C12.2357 7.61741 12.1423 7.63611 12.0489 7.65479C11.8558 7.69216 11.6689 7.73576 11.4883 7.77935C11.3949 7.80428 11.3015 7.82918 11.2081 7.85409C11.1146 7.89146 11.0274 7.93506 10.9402 7.97243C10.8717 8.00358 10.8032 8.03472 10.7347 8.06586V8.06586C10.7147 8.07588 10.6934 8.08344 10.6733 8.09324C10.6378 8.11051 10.6042 8.12633 10.5711 8.14323C10.543 8.15759 10.5138 8.17004 10.4856 8.18419V8.18419C10.4171 8.21533 10.3485 8.2527 10.2925 8.28384C10.2489 8.30253 10.2053 8.32744 10.1679 8.34613C10.1492 8.35858 10.1243 8.37105 10.1119 8.37727C10.0558 8.4084 9.99975 8.43956 9.94992 8.47069C9.89386 8.50183 9.84405 8.53297 9.80044 8.56412C9.75685 8.59526 9.71325 8.62017 9.67587 8.65132V8.65132C9.66526 8.66193 9.65088 8.66792 9.6385 8.6764C9.61046 8.69563 9.58025 8.71753 9.55248 8.73982C9.54333 8.74717 9.53469 8.75511 9.52641 8.76341V8.76341C9.50113 8.78364 9.47585 8.80385 9.45057 8.82407C9.43888 8.83343 9.42624 8.84165 9.41426 8.85064V8.85064C9.40232 8.85959 9.38968 8.8677 9.37836 8.87743C9.36201 8.8915 9.34566 8.90665 9.32931 8.92107C9.31175 8.93657 9.29384 8.95242 9.27726 8.96896V8.96896C9.24425 9.00197 9.21124 9.03013 9.17824 9.062C9.16979 9.07016 9.161 9.07899 9.15271 9.0873V9.0873C9.11533 9.11844 9.07796 9.1558 9.04059 9.19317V9.19317C9.0323 9.20148 9.02347 9.21027 9.01519 9.21859C8.98837 9.24552 8.96155 9.27309 8.93471 9.30528C8.92227 9.31773 8.90357 9.3302 8.89113 9.34265C8.86391 9.37529 8.83196 9.40794 8.7994 9.44058C8.79003 9.44998 8.78216 9.46094 8.77278 9.47032V9.47032C8.7634 9.47971 8.75551 9.49065 8.74623 9.50014C8.70212 9.54522 8.66214 9.5903 8.61706 9.63538C8.61083 9.64162 8.60461 9.64783 8.59838 9.65407C8.49872 9.75995 8.39283 9.86584 8.28073 9.95925C8.16862 10.0589 8.05029 10.1523 7.93194 10.2333C7.80737 10.3205 7.68903 10.3952 7.55824 10.47C7.43367 10.5385 7.30287 10.6008 7.16586 10.6568C7.03506 10.7129 6.89803 10.7627 6.76101 10.8063C6.49941 10.8624 6.2316 10.9682 6.00115 10.9869C5.95132 10.9869 5.89527 10.9994 5.84544 11.0056C5.78938 11.0181 5.73955 11.0305 5.68974 11.043C5.63991 11.0617 5.59008 11.0804 5.54025 11.099C5.5378 11.1 5.53535 11.1009 5.5329 11.1018C5.43566 11.1395 5.34402 11.1917 5.2585 11.2514C5.25691 11.2525 5.25532 11.2536 5.25375 11.2548V11.2548C5.16511 11.3181 5.08455 11.3928 5.00752 11.4698C5.00655 11.4708 5.00558 11.4718 5.00461 11.4727C4.96723 11.5164 4.92986 11.5537 4.89872 11.5973C4.89617 11.6014 4.89358 11.6054 4.89095 11.6094C4.83377 11.6967 4.77101 11.7812 4.72314 11.8739C4.72143 11.8772 4.71975 11.8805 4.7181 11.8838C4.69318 11.9399 4.66828 11.9897 4.64959 12.0458C4.6309 12.0956 4.61222 12.1516 4.59353 12.2077C4.58108 12.2575 4.56861 12.3074 4.56239 12.3572V12.3572C4.56239 12.3704 4.55458 12.3823 4.55241 12.3954C4.54364 12.4482 4.54301 12.5109 4.53747 12.544C4.53123 12.5876 4.52502 12.625 4.52502 12.6686C4.52502 12.6935 4.52502 12.7247 4.53127 12.7496C4.5375 12.7932 4.54372 12.8305 4.55619 12.8679C4.56833 12.9043 4.58049 12.9408 4.5984 12.9772C4.59931 12.9791 4.59979 12.9811 4.59979 12.9831V12.9831C4.59979 12.9852 4.60026 12.9872 4.60119 12.989C4.6197 13.0255 4.64401 13.0619 4.6683 13.0984C4.69322 13.1357 4.71812 13.1731 4.74926 13.2105C4.7804 13.2416 4.81777 13.279 4.85515 13.3101C4.89252 13.3475 4.92989 13.3786 4.97349 13.4098C5.12296 13.5406 5.16033 13.5842 5.35342 13.6838C5.38361 13.702 5.4138 13.7142 5.44968 13.732C5.45192 13.7331 5.45426 13.7335 5.45665 13.7343V13.7343C5.46513 13.7369 5.47106 13.7472 5.47261 13.7559C5.47322 13.7593 5.47425 13.7627 5.476 13.7668C5.47724 13.7696 5.47819 13.7726 5.4786 13.7757C5.48501 13.824 5.49707 13.8722 5.50914 13.9205C5.52158 13.9766 5.54028 14.0264 5.55897 14.07C5.57766 14.1074 5.5901 14.1447 5.6088 14.1821V14.1821C5.61957 14.2037 5.63287 14.2243 5.64409 14.2456C5.66346 14.2825 5.68284 14.3164 5.70221 14.3503C5.73336 14.3938 5.7645 14.4375 5.79564 14.481C5.82678 14.5184 5.86416 14.5621 5.90153 14.5994C5.93862 14.6365 5.97572 14.6675 6.01891 14.7045C6.01954 14.7051 6.0194 14.7049 6.02001 14.7055V14.7055C6.02609 14.7112 6.03582 14.7144 6.04224 14.7198C6.0763 14.7482 6.11036 14.776 6.14442 14.7987C6.18802 14.8298 6.23162 14.8547 6.28144 14.8797C6.32504 14.9046 6.37487 14.9295 6.4247 14.9483C6.45658 14.9641 6.493 14.9755 6.53008 14.9863C6.54265 14.9899 6.55261 14.9954 6.56481 15.0002V15.0002C6.56982 15.0021 6.57681 15.0049 6.58204 15.0062C6.58247 15.0063 6.58291 15.0064 6.58335 15.0065C6.6249 15.0164 6.6534 15.0538 6.65127 15.0965C6.63585 15.4048 6.63389 15.6851 6.68008 15.789V15.789C6.78104 16.0134 7.22809 15.8218 7.2583 16.066C7.26432 16.1147 7.27281 16.154 7.28423 16.1815C7.31834 16.259 7.42808 16.1775 7.56965 16.01C7.9185 15.5974 8.34608 15.2338 8.88265 15.17C12.9615 14.6853 16.5228 17.6186 16.9195 21.6561C16.8576 21.1413 16.3577 20.8016 15.9562 20.7124C15.7545 20.6676 15.5872 20.8179 15.4967 21.0036C15.358 21.2878 15.1729 21.5906 14.9298 21.8466C14.8181 21.9643 14.6372 21.869 14.6376 21.7067V21.7067C14.6382 21.5065 14.3608 21.4801 14.2743 21.6606C14.1632 21.8926 14.0298 22.1139 13.8767 22.3216C13.8168 22.4028 13.7231 22.4534 13.6223 22.4511C13.1051 22.4389 12.6072 22.1856 12.3178 21.8172C12.2959 21.7894 12.2708 21.7634 12.256 21.7312V21.7312C12.2442 21.7056 12.23 21.6805 12.2192 21.6544C12.2065 21.6238 12.1947 21.5933 12.186 21.5627C12.1673 21.5192 12.1548 21.4755 12.1486 21.432C12.1423 21.3883 12.1423 21.3447 12.1423 21.2949V21.2949C12.1423 21.2327 12.146 21.1703 12.1623 21.1103C12.1659 21.0971 12.1697 21.0839 12.1735 21.0707C12.1859 21.0271 12.1984 20.9835 12.2171 20.9398V20.9398C12.2668 20.853 12.3117 20.7619 12.3355 20.6648C12.3924 20.4321 12.3656 20.2434 12.2046 20.124C12.1907 20.1147 12.1768 20.1063 12.1626 20.0985C12.1132 20.0712 12.06 20.0506 12.0053 20.0368V20.0368C11.9866 20.0305 11.9742 20.0243 11.9555 20.0181C11.9119 20.0057 11.8683 19.9932 11.8247 19.9869V19.9869C11.7399 19.9627 11.6503 19.9568 11.562 19.9559C11.5603 19.9558 11.5586 19.9558 11.5569 19.9558C11.5257 19.9558 11.4946 19.962 11.4635 19.962C11.4136 19.962 11.37 19.9683 11.3264 19.9808C11.2828 19.9869 11.2392 19.9932 11.1956 20.0057C11.152 20.0181 11.1084 20.0306 11.0648 20.0492C11.0212 20.068 10.9839 20.0866 10.9403 20.1054V20.1054C10.8606 20.1451 10.7831 20.191 10.7122 20.2448C9.71392 21.0036 9.98683 22.4352 10.6057 23.3383C10.7873 23.6033 10.6225 24.0085 10.3673 24.2036V24.2036V24.2036C10.3609 24.2099 10.3622 24.2205 10.3699 24.2251C10.6332 24.383 10.9084 24.5172 11.1956 24.6333C11.5923 24.7634 12.0136 24.8813 12.2018 24.9316C12.2035 24.9321 12.2046 24.9336 12.2046 24.9353V24.9353C12.2046 24.9372 12.2059 24.9388 12.2077 24.9391C12.7237 25.0445 13.2458 25.0817 13.7742 25.0507C16.4785 24.8614 18.7041 22.8413 19.1786 20.1574C19.1845 20.1238 19.2353 20.1218 19.2427 20.1551V20.1551C19.2613 20.2672 19.2862 20.3855 19.2987 20.504V20.504C19.2987 20.5081 19.2992 20.5122 19.3 20.5162C19.3116 20.5703 19.3177 20.6241 19.3236 20.6721V20.697C19.3299 20.7531 19.3361 20.8092 19.3361 20.8589C19.3424 20.9275 19.3485 20.996 19.3485 21.0646V21.1641C19.3485 21.1953 19.3548 21.2327 19.3548 21.2638C19.3548 21.3012 19.3485 21.3386 19.3485 21.376V21.4632C19.3485 21.5067 19.3424 21.5441 19.3424 21.5877C19.3424 21.5971 19.3424 21.6066 19.342 21.6164C19.3408 21.6514 19.3362 21.6864 19.3339 21.7213C19.3333 21.7304 19.3326 21.7396 19.332 21.749C19.3295 21.7865 19.3236 21.8242 19.3236 21.8618V21.8618C19.3173 21.9115 19.3112 21.9552 19.3049 22.005V22.005C19.3049 22.0426 19.2971 22.08 19.2915 22.1172C19.2853 22.1584 19.278 22.1985 19.2738 22.2416V22.2479V22.2479C19.2738 22.252 19.2733 22.2561 19.2725 22.2601C19.2611 22.3116 19.2498 22.3679 19.2384 22.4195C19.2371 22.4255 19.2364 22.4317 19.2364 22.4379V22.4379C19.2364 22.4441 19.2357 22.4502 19.2344 22.4563C19.2235 22.5051 19.2127 22.5539 19.2018 22.6027C19.2 22.6111 19.1986 22.6197 19.1958 22.6279V22.6279C19.1931 22.636 19.1918 22.6444 19.19 22.6528C19.1792 22.7016 19.1679 22.7504 19.1522 22.7992C19.1502 22.8054 19.1492 22.8118 19.1492 22.8183V22.8183C19.1492 22.8242 19.1483 22.83 19.1466 22.8356C19.1299 22.8912 19.1132 22.9419 19.1014 22.9924C19.1 22.9984 19.0946 23.0061 19.0934 23.0122V23.0122C19.0928 23.0153 19.0927 23.0156 19.0918 23.0186C19.0735 23.0793 19.0553 23.1401 19.037 23.2008C19.0121 23.2631 18.9935 23.3192 18.9686 23.3815C18.9436 23.4438 18.925 23.5061 18.9001 23.5621C18.8756 23.6234 18.8511 23.6787 18.8265 23.7397C18.8258 23.7415 18.8241 23.7427 18.8221 23.7427V23.7427C18.8202 23.7427 18.8185 23.7438 18.8178 23.7455C18.7955 23.7958 18.7732 23.8508 18.7464 23.9017C18.741 23.912 18.7364 23.9228 18.732 23.9336C18.7294 23.9398 18.7269 23.9454 18.7243 23.9507C18.7211 23.9573 18.7165 23.9633 18.7132 23.9699V23.9699C18.7099 23.9767 18.7053 23.9829 18.7019 23.9897C18.2971 24.8013 17.701 25.5139 16.9568 26.0722C16.9069 26.1032 16.8571 26.1406 16.8074 26.178C16.798 26.1874 16.7851 26.1932 16.774 26.2008C16.7667 26.2058 16.7601 26.2117 16.7529 26.2168C16.7191 26.241 16.685 26.2651 16.6476 26.2892C16.6358 26.2969 16.6315 26.3123 16.6378 26.3249L16.6429 26.3351C16.6444 26.3381 16.6475 26.34 16.6509 26.34V26.34C16.6513 26.34 16.6518 26.34 16.6522 26.3399C16.7382 26.3276 16.8242 26.3153 16.9103 26.303C16.9122 26.3028 16.9142 26.3026 16.9162 26.3026V26.3026C16.9183 26.3026 16.9204 26.3025 16.9225 26.3021C17.0835 26.2773 17.2444 26.2463 17.4052 26.2154C17.4489 26.2091 17.4987 26.1968 17.5423 26.1843C17.5734 26.178 17.5983 26.1718 17.6295 26.1655C17.635 26.1648 17.6405 26.1639 17.646 26.1629C17.7223 26.1495 17.799 26.134 17.8724 26.1095V26.1095V26.1095C18.3934 25.9845 18.8058 26.5668 18.4125 26.9306C18.1724 27.1527 17.921 27.3632 17.6593 27.5612C17.3081 27.827 17.5114 28.4239 17.9346 28.3018V28.3018C19.6941 27.7823 21.2578 26.7976 22.4711 25.4721C22.7663 25.1495 23.3295 25.4067 23.1557 25.8079V25.8079C22.9854 26.2012 23.4347 26.6015 23.7354 26.2961C23.7597 26.2714 23.7839 26.2465 23.808 26.2216C24.7871 25.1988 25.53 23.9827 25.9937 22.6617C26.1158 22.3136 26.6361 22.3336 26.6479 22.7023V22.7023C26.6588 23.0416 27.1075 23.1894 27.2757 22.8945C30.6608 16.9592 26.892 11.0646 25.2606 9.44382C25.2596 9.44281 25.2589 9.44172 25.2582 9.44045C25.2551 9.43455 25.2521 9.43003 25.2499 9.42534C25.2477 9.42048 25.2406 9.41833 25.2406 9.42368V9.42368V9.42368C25.2406 9.41824 25.2343 9.42047 25.2342 9.42591C25.2335 9.49577 25.2277 9.56561 25.2218 9.63546C25.2032 9.77872 25.1844 9.91573 25.1595 10.0528C25.1284 10.1898 25.091 10.3268 25.0537 10.4638C25.0101 10.5946 24.9603 10.7317 24.9041 10.8624C24.8481 10.987 24.7858 11.1178 24.7174 11.2424C24.6489 11.3607 24.5741 11.4853 24.4931 11.5974C24.4121 11.7157 24.3249 11.8278 24.2378 11.9337C24.1443 12.0458 24.0446 12.1455 23.9451 12.2451C23.8828 12.3012 23.8266 12.351 23.7645 12.4008C23.7146 12.4445 23.6709 12.4818 23.6211 12.5254C23.5091 12.6126 23.3969 12.6936 23.2723 12.7683C23.154 12.8431 23.0294 12.9178 22.9049 12.9801C22.774 13.0424 22.6433 13.0984 22.5125 13.1545C22.3817 13.2043 22.2447 13.2479 22.1077 13.2853C21.9707 13.3227 21.8274 13.3538 21.6904 13.3787C21.5471 13.4036 21.4039 13.4161 21.2668 13.4285C21.1671 13.4348 21.0676 13.441 20.9679 13.441C20.8247 13.441 20.6813 13.4285 20.5444 13.4161C20.4011 13.4036 20.2578 13.3849 20.1208 13.3538C19.9797 13.3292 19.8445 13.2926 19.7093 13.2498C19.7055 13.2485 19.7014 13.2479 19.6973 13.2479V13.2479C19.8342 13.2354 19.9713 13.223 20.1084 13.1981C20.2516 13.1731 20.3887 13.142 20.5256 13.1046C20.6627 13.0673 20.7997 13.0237 20.9305 12.9739C21.0675 12.924 21.1984 12.8617 21.3228 12.7995C21.4537 12.7372 21.572 12.6687 21.6965 12.5939C21.815 12.5129 21.9333 12.432 22.0454 12.3448C22.1574 12.2576 22.2634 12.1642 22.363 12.0645C22.4689 11.9711 22.5623 11.8652 22.6557 11.7593C22.7491 11.6472 22.8363 11.5351 22.9174 11.423C22.9297 11.4043 22.9423 11.3794 22.9548 11.3607C23.0169 11.261 23.0792 11.1614 23.1354 11.0617C23.2039 10.9372 23.2662 10.8126 23.3222 10.6818C23.3782 10.551 23.428 10.4202 23.4717 10.2832C23.5152 10.1524 23.5465 10.0154 23.5775 9.87835C23.6025 9.73509 23.6274 9.59807 23.6398 9.46105C23.6523 9.31779 23.6648 9.17454 23.6648 9.03752C23.6648 8.93786 23.6585 8.8382 23.6523 8.73856C23.6398 8.5953 23.6212 8.45827 23.6025 8.32126C23.5775 8.178 23.5465 8.04098 23.5091 7.90395C23.4654 7.77316 23.4219 7.63614 23.372 7.50534C23.3222 7.37454 23.2599 7.24375 23.1977 7.11918C23.1291 6.99461 23.0606 6.87005 22.9859 6.75171C22.9049 6.63337 22.8239 6.52125 22.7368 6.40915C22.6433 6.30326 22.5499 6.19738 22.4502 6.09149C22.4003 6.04168 22.3443 5.98562 22.2883 5.93579C22.008 5.71779 21.7153 5.51226 21.4225 5.32542C21.3924 5.30817 21.3652 5.29392 21.3369 5.28058C21.3112 5.2685 21.2861 5.25534 21.2618 5.24065C21.1302 5.16092 21.0034 5.10569 20.8782 5.05997Z" fill="#F9E2AF"/>
</g>
<defs>
<filter id="filter0_d_2_687" x="-3.49426" y="0.626465" width="40.1566" height="40.1565" filterUnits="userSpaceOnUse" color-interpolation-filters="sRGB">
<feFlood flood-opacity="0" result="BackgroundImageFix"/>
<feColorMatrix in="SourceAlpha" type="matrix" values="0 0 0 0 0 0 0 0 0 0 0 0 0 0 0 0 0 0 127 0" result="hardAlpha"/>
<feOffset dy="4"/>
<feGaussianBlur stdDeviation="2"/>
<feComposite in2="hardAlpha" operator="out"/>
<feColorMatrix type="matrix" values="0 0 0 0 0 0 0 0 0 0 0 0 0 0 0 0 0 0 0.25 0"/>
<feBlend mode="normal" in2="BackgroundImageFix" result="effect1_dropShadow_2_687"/>
<feBlend mode="normal" in="SourceGraphic" in2="effect1_dropShadow_2_687" result="shape"/>
</filter>
</defs>
</svg>
