<svg width="33" height="33" viewBox="0 0 33 33" fill="none" xmlns="http://www.w3.org/2000/svg">
<path fill-rule="evenodd" clip-rule="evenodd" d="M19.0688 4.64648C18.8943 4.64648 18.7325 4.68385 18.583 4.73368C18.9006 4.94545 19.0751 5.22572 19.1622 5.54337C19.1685 5.58697 19.1809 5.61811 19.1871 5.66171C19.1934 5.69908 19.1996 5.73645 19.1996 5.77381C19.2245 6.32191 19.0563 6.39043 18.938 6.7143C18.7574 7.1316 18.8072 7.58005 19.0252 7.94129C19.0439 7.98489 19.0688 8.03472 19.1 8.07832C18.8633 6.50254 20.1774 6.26586 20.4203 5.77381C20.4391 5.34407 20.084 5.05755 19.8037 4.85825C19.5359 4.69631 19.2931 4.64648 19.0688 4.64648ZM21.0494 5.00151C21.0244 5.14475 21.0432 5.10738 21.0369 5.18212C21.0307 5.23195 21.0307 5.29424 21.0246 5.34407C21.0121 5.39388 20.9997 5.44371 20.9809 5.49354C20.9684 5.54337 20.9498 5.5932 20.9311 5.64302C20.9061 5.69285 20.8875 5.73645 20.8626 5.78628C20.844 5.8112 20.8315 5.8361 20.8127 5.86101C20.8003 5.8797 20.7878 5.89838 20.7754 5.91707C20.7443 5.96067 20.7131 6.00427 20.682 6.04164C20.6446 6.07901 20.6135 6.12261 20.5698 6.15376V6.15999C20.5324 6.19113 20.4951 6.2285 20.4515 6.25965C20.3207 6.35929 20.1712 6.43403 20.0342 6.52746C19.9906 6.5586 19.9471 6.58352 19.9097 6.62089C19.866 6.65202 19.8286 6.68316 19.7914 6.72054C19.7477 6.75791 19.7166 6.79528 19.6792 6.83888C19.648 6.87625 19.6106 6.91985 19.5857 6.96345C19.5546 7.00705 19.5235 7.05065 19.4986 7.09424C19.4737 7.14406 19.4549 7.18767 19.43 7.23749C19.4114 7.28732 19.3926 7.33092 19.3802 7.38075C19.3615 7.43681 19.3491 7.48662 19.3366 7.53645C19.3305 7.56139 19.3305 7.59251 19.3242 7.61742C19.318 7.64235 19.318 7.66725 19.3117 7.69217C19.3117 7.74199 19.3055 7.79805 19.3055 7.84787C19.3055 7.88524 19.3055 7.92261 19.3117 7.95998C19.3117 8.00981 19.318 8.05964 19.3305 8.1157C19.3366 8.16552 19.3491 8.21534 19.3615 8.26517C19.3803 8.315 19.3928 8.36483 19.4114 8.41465C19.4238 8.4458 19.4425 8.47694 19.4549 8.50185L18.0225 7.94753C17.7796 7.87901 17.5428 7.81674 17.3 7.76068C17.1691 7.72954 17.0384 7.69839 16.9076 7.66725C16.5339 7.59251 16.1539 7.53645 15.7741 7.49908C15.7616 7.49908 15.7553 7.49285 15.7429 7.49285C15.3692 7.45548 15.0016 7.43679 14.628 7.43679C14.354 7.43679 14.0799 7.44924 13.8121 7.46793C13.4322 7.49287 13.0522 7.54268 12.6723 7.60496C12.5789 7.61741 12.4854 7.63611 12.392 7.65479C12.1989 7.69216 12.0121 7.73576 11.8315 7.77935C11.738 7.80428 11.6446 7.82918 11.5512 7.85409C11.4578 7.89146 11.3706 7.93506 11.2834 7.97243C11.2149 8.00358 11.1464 8.03472 11.0778 8.06586C11.0654 8.0721 11.0529 8.0721 11.0467 8.0783C10.9844 8.10946 10.9284 8.13436 10.8723 8.1655C10.8536 8.17175 10.8412 8.17795 10.8287 8.18419C10.7602 8.21533 10.6917 8.2527 10.6356 8.28384C10.592 8.30253 10.5484 8.32744 10.5111 8.34613C10.4924 8.35858 10.4675 8.37105 10.455 8.37727C10.399 8.4084 10.3429 8.43956 10.2931 8.47069C10.237 8.50183 10.1872 8.53297 10.1436 8.56412C10.1 8.59526 10.0564 8.62017 10.019 8.65132C10.0128 8.65755 10.0066 8.65755 10.0003 8.66377C9.96296 8.68869 9.91936 8.71982 9.88199 8.75097C9.88199 8.75097 9.87575 8.7572 9.86955 8.76341C9.83841 8.78833 9.80726 8.81323 9.77612 8.83815C9.76367 8.84438 9.7512 8.85683 9.73875 8.86307C9.70761 8.88799 9.67646 8.91913 9.64532 8.94404C9.63909 8.95649 9.62664 8.96273 9.6204 8.96896C9.58303 9.00633 9.54566 9.03748 9.50829 9.07485C9.50205 9.07485 9.50205 9.08108 9.49585 9.0873C9.45846 9.11844 9.4211 9.15581 9.38373 9.19317C9.3775 9.19942 9.3775 9.20562 9.37128 9.20562C9.34014 9.23676 9.309 9.26791 9.27785 9.30528C9.26541 9.31773 9.24671 9.3302 9.23427 9.34265C9.20311 9.38002 9.16575 9.41739 9.12838 9.45475C9.12213 9.4672 9.1097 9.47344 9.10346 9.48589C9.05363 9.53572 9.01003 9.58555 8.9602 9.63538C8.95397 9.64162 8.94775 9.64783 8.94152 9.65407C8.84186 9.75995 8.73597 9.86584 8.62387 9.95925C8.51176 10.0589 8.39342 10.1523 8.27508 10.2333C8.15051 10.3205 8.03217 10.3952 7.90138 10.47C7.77681 10.5385 7.64601 10.6008 7.509 10.6568C7.3782 10.7129 7.24117 10.7627 7.10415 10.8063C6.84255 10.8624 6.57474 10.9682 6.34429 10.9869C6.29446 10.9869 6.23841 10.9994 6.18858 11.0056C6.13252 11.0181 6.08269 11.0305 6.03288 11.043C5.98305 11.0617 5.93322 11.0804 5.88339 11.099C5.83356 11.1177 5.78373 11.1426 5.73391 11.1676C5.69031 11.1987 5.64049 11.2236 5.59689 11.2548C5.55329 11.2859 5.50969 11.3233 5.47232 11.3606C5.42872 11.3918 5.38512 11.4354 5.34775 11.4727C5.31037 11.5164 5.273 11.5537 5.24186 11.5973C5.21073 11.6471 5.17336 11.6907 5.14844 11.7406C5.1173 11.7842 5.08616 11.834 5.06124 11.8838C5.03632 11.9399 5.01142 11.9897 4.99273 12.0458C4.97404 12.0956 4.95536 12.1516 4.93667 12.2077C4.92422 12.2575 4.91175 12.3074 4.90553 12.3572C4.90553 12.3634 4.8993 12.3696 4.8993 12.3759C4.88686 12.4319 4.88686 12.5067 4.88061 12.544C4.87437 12.5876 4.86816 12.625 4.86816 12.6686C4.86816 12.6935 4.86816 12.7247 4.87441 12.7496C4.88064 12.7932 4.88686 12.8305 4.89933 12.8679C4.91178 12.9053 4.92425 12.9426 4.94293 12.98V12.9863C4.96161 13.0236 4.98653 13.061 5.01144 13.0984C5.03636 13.1357 5.06126 13.1731 5.0924 13.2105C5.12354 13.2416 5.16091 13.279 5.19829 13.3101C5.23566 13.3475 5.27303 13.3786 5.31663 13.4098C5.4661 13.5406 5.50347 13.5842 5.69656 13.6838C5.7277 13.7025 5.75883 13.715 5.79622 13.7337C5.80245 13.7337 5.80866 13.7399 5.81489 13.7399C5.81489 13.7523 5.81489 13.7586 5.82114 13.771C5.82737 13.8209 5.83982 13.8707 5.85228 13.9205C5.86472 13.9766 5.88342 14.0264 5.90211 14.07C5.9208 14.1074 5.93324 14.1447 5.95194 14.1821C5.95817 14.1946 5.96438 14.207 5.97061 14.2132C5.99553 14.263 6.02044 14.3067 6.04535 14.3503C6.0765 14.3938 6.10764 14.4375 6.13878 14.481C6.16992 14.5184 6.2073 14.5621 6.24467 14.5994C6.28204 14.6367 6.31941 14.668 6.363 14.7053C6.363 14.7053 6.36925 14.7115 6.37545 14.7115C6.41282 14.7427 6.45019 14.7738 6.48756 14.7987C6.53116 14.8298 6.57476 14.8547 6.62458 14.8797C6.66818 14.9046 6.71801 14.9295 6.76784 14.9483C6.80521 14.9669 6.84881 14.9793 6.89241 14.9918C6.89864 14.9981 6.90486 14.9981 6.91733 15.0043C6.94225 15.0106 6.97338 15.0167 6.9983 15.0229C6.97961 15.3593 6.97338 15.6769 7.02322 15.789C7.07928 15.9136 7.35332 15.5336 7.62737 15.0976C7.59001 15.5275 7.56508 16.0319 7.62737 16.1815C7.69588 16.3372 8.06958 15.8513 8.39347 15.3156C12.8094 14.2943 16.8391 17.3461 17.2627 21.6561C17.1817 20.9835 16.3533 20.6098 15.9734 20.7032C15.7865 21.1641 15.4689 21.7558 14.9581 22.1233C15.0018 21.7123 14.983 21.2887 14.8959 20.8777C14.7589 21.4506 14.491 21.9863 14.1236 22.4472C13.5319 22.4907 12.9402 22.2043 12.6287 21.7746C12.6038 21.7558 12.5976 21.7184 12.5789 21.6935C12.5602 21.65 12.5415 21.6063 12.5291 21.5627C12.5104 21.5192 12.498 21.4755 12.4917 21.432C12.4855 21.3883 12.4855 21.3447 12.4855 21.2949C12.4855 21.2638 12.4855 21.2326 12.4855 21.2015C12.4917 21.1578 12.5042 21.1143 12.5166 21.0707C12.5291 21.0271 12.5415 20.9835 12.5602 20.9398C12.5851 20.8963 12.6038 20.8527 12.635 20.8091C12.7408 20.5101 12.7408 20.2672 12.5478 20.124C12.5104 20.0991 12.473 20.0804 12.4294 20.0617C12.4045 20.0555 12.3734 20.0431 12.3485 20.0368C12.3298 20.0305 12.3173 20.0243 12.2986 20.0181C12.255 20.0057 12.2114 19.9932 12.1678 19.9869C12.1242 19.9745 12.0806 19.9683 12.037 19.9683C11.9935 19.962 11.9436 19.9558 11.9 19.9558C11.8689 19.9558 11.8377 19.962 11.8066 19.962C11.7568 19.962 11.7132 19.9683 11.6696 19.9808C11.626 19.9869 11.5824 19.9932 11.5388 20.0057C11.4952 20.0181 11.4516 20.0306 11.408 20.0492C11.3644 20.068 11.327 20.0866 11.2834 20.1054C11.246 20.124 11.2087 20.1489 11.1651 20.1675C9.71386 21.1143 10.5796 23.3316 11.5699 23.9731C11.1962 24.0416 10.8163 24.1227 10.7104 24.2036C10.7042 24.2098 10.698 24.2161 10.698 24.2161C10.9658 24.3779 11.2461 24.515 11.5388 24.6333C11.9374 24.7641 12.3609 24.8825 12.5478 24.9323V24.9385C13.0647 25.0444 13.5879 25.0817 14.1173 25.0507C16.8765 24.8576 19.1374 22.7586 19.5485 19.9932C19.5609 20.0492 19.5734 20.0991 19.5858 20.1551C19.6045 20.2672 19.6294 20.3855 19.6418 20.504V20.5101C19.6543 20.5663 19.6606 20.6223 19.6668 20.6721V20.6971C19.6731 20.7531 19.6792 20.8092 19.6792 20.8589C19.6855 20.9275 19.6917 20.996 19.6917 21.0646V21.1641C19.6917 21.1953 19.698 21.2327 19.698 21.2638C19.698 21.3012 19.6917 21.3386 19.6917 21.376V21.4632C19.6917 21.5067 19.6855 21.5441 19.6855 21.5877C19.6855 21.6126 19.6855 21.6375 19.6792 21.6687C19.6792 21.7123 19.6729 21.7558 19.6729 21.8056C19.6668 21.8244 19.6668 21.843 19.6668 21.8618C19.6605 21.9115 19.6543 21.9552 19.648 22.005C19.648 22.0236 19.648 22.0424 19.6418 22.061C19.6355 22.1233 19.6231 22.1793 19.6169 22.2416V22.2479V22.2541C19.6045 22.3102 19.592 22.3725 19.5795 22.4286V22.4472C19.5671 22.5033 19.5546 22.5593 19.5422 22.6153C19.5422 22.6216 19.5359 22.6341 19.5359 22.6402C19.5235 22.6964 19.5109 22.7524 19.4923 22.8085V22.8272C19.4737 22.8895 19.4549 22.9455 19.4425 23.0016C19.4363 23.0078 19.4363 23.0141 19.4363 23.0141C19.4176 23.0762 19.3989 23.1385 19.3802 23.2008C19.3552 23.2631 19.3366 23.3192 19.3117 23.3815C19.2868 23.4438 19.2682 23.5061 19.2432 23.5621C19.2183 23.6244 19.1934 23.6805 19.1685 23.7427H19.1622C19.1373 23.7988 19.1123 23.8611 19.0812 23.9171C19.0749 23.9358 19.0688 23.9482 19.0625 23.9607C19.0563 23.967 19.0563 23.9731 19.0502 23.9794C18.6453 24.7953 18.0473 25.5116 17.2999 26.0722C17.2501 26.1032 17.2002 26.1406 17.1505 26.178C17.1381 26.1905 17.1193 26.1968 17.1068 26.2091C17.0633 26.2403 17.0196 26.2714 16.9698 26.3026L16.9885 26.34H16.9947C17.0819 26.3275 17.1691 26.3151 17.2564 26.3026H17.2625C17.4245 26.2777 17.5865 26.2465 17.7484 26.2154C17.792 26.2091 17.8419 26.1968 17.8854 26.1843C17.9165 26.178 17.9414 26.1718 17.9726 26.1655C18.0162 26.1593 18.0597 26.1469 18.1034 26.1406C18.1408 26.1282 18.1782 26.122 18.2156 26.1095C18.8383 25.96 19.4425 25.7545 20.0217 25.5116C19.0314 26.8631 17.7048 27.9531 16.1539 28.6693C16.8702 28.6195 17.5865 28.5012 18.2777 28.3018C20.7878 27.5607 22.8993 25.8728 24.1636 23.5995C23.9082 25.0382 23.3353 26.4085 22.4882 27.6043C23.0924 27.2057 23.6467 26.7448 24.1511 26.2216C25.5463 24.7642 26.4619 22.9144 26.7732 20.9275C26.9851 21.9116 27.0474 22.9268 26.9539 23.9296C31.4508 17.6576 27.3277 11.1552 25.6023 9.44239C25.5962 9.42994 25.5899 9.4237 25.5899 9.41124C25.5837 9.41748 25.5837 9.41748 25.5837 9.42368C25.5837 9.41745 25.5837 9.41745 25.5774 9.41124C25.5774 9.48599 25.5713 9.56072 25.565 9.63546C25.5463 9.77872 25.5276 9.91573 25.5027 10.0528C25.4716 10.1898 25.4342 10.3268 25.3968 10.4638C25.3533 10.5946 25.3034 10.7317 25.2473 10.8624C25.1913 10.987 25.129 11.1178 25.0605 11.2424C24.992 11.3607 24.9173 11.4853 24.8362 11.5974C24.7553 11.7157 24.6681 11.8278 24.581 11.9337C24.4874 12.0458 24.3878 12.1455 24.2882 12.2451C24.2259 12.3012 24.1698 12.351 24.1076 12.4008C24.0577 12.4445 24.0141 12.4818 23.9642 12.5254C23.8522 12.6126 23.7401 12.6936 23.6155 12.7683C23.4972 12.8431 23.3725 12.9178 23.2481 12.9801C23.1172 13.0424 22.9864 13.0984 22.8556 13.1545C22.7249 13.2043 22.5878 13.2479 22.4509 13.2853C22.3138 13.3227 22.1706 13.3538 22.0335 13.3787C21.8903 13.4036 21.747 13.4161 21.61 13.4285C21.5103 13.4348 21.4107 13.441 21.311 13.441C21.1678 13.441 21.0244 13.4285 20.8875 13.4161C20.7443 13.4036 20.6009 13.3849 20.464 13.3538C20.3208 13.3288 20.1837 13.2915 20.0466 13.2479H20.0405C20.1774 13.2354 20.3145 13.223 20.4515 13.1981C20.5948 13.1731 20.7318 13.142 20.8688 13.1046C21.0058 13.0673 21.1429 13.0237 21.2737 12.9739C21.4106 12.924 21.5415 12.8617 21.666 12.7995C21.7969 12.7372 21.9152 12.6687 22.0397 12.5939C22.1581 12.5129 22.2764 12.432 22.3886 12.3448C22.5006 12.2576 22.6065 12.1642 22.7061 12.0645C22.8121 11.9711 22.9055 11.8652 22.9989 11.7593C23.0922 11.6472 23.1795 11.5351 23.2605 11.423C23.2729 11.4043 23.2855 11.3794 23.2979 11.3607C23.3601 11.261 23.4224 11.1614 23.4785 11.0617C23.547 10.9372 23.6093 10.8126 23.6653 10.6818C23.7213 10.551 23.7712 10.4202 23.8148 10.2832C23.8584 10.1524 23.8896 10.0154 23.9207 9.87835C23.9456 9.73509 23.9705 9.59806 23.983 9.46105C23.9954 9.31779 24.0079 9.17454 24.0079 9.03752C24.0079 8.93786 24.0016 8.8382 23.9954 8.73856C23.983 8.5953 23.9644 8.45827 23.9456 8.32126C23.9207 8.178 23.8896 8.04098 23.8522 7.90395C23.8085 7.77316 23.765 7.63614 23.7151 7.50534C23.6653 7.37454 23.603 7.24375 23.5408 7.11918C23.4722 6.99461 23.4038 6.87005 23.329 6.75171C23.2481 6.63337 23.167 6.52125 23.0799 6.40915C22.9864 6.30326 22.893 6.19738 22.7933 6.09149C22.7435 6.04168 22.6875 5.98562 22.6315 5.93579C22.3512 5.7178 22.0584 5.51226 21.7657 5.32542C21.7221 5.30048 21.6847 5.28182 21.6412 5.26313C21.4356 5.13233 21.2424 5.06378 21.0494 5.00151Z" fill="#89B4FA"/>
</svg>
