<svg width="33" height="33" viewBox="0 0 33 33" fill="none" xmlns="http://www.w3.org/2000/svg">
<path fill-rule="evenodd" clip-rule="evenodd" d="M15.6868 29.828C16.0014 30.0091 16.3578 30.1033 16.7166 30.1033L16.7156 30.0981C17.0787 30.099 17.4357 30.004 17.7504 29.8229L27.5674 24.1525C28.2016 23.7837 28.5972 23.098 28.5972 22.3631V11.032C28.5971 10.6698 28.5018 10.3139 28.3211 9.99989C28.1405 9.68591 27.8805 9.42483 27.5674 9.24266L17.7504 3.56977C17.1335 3.21828 16.3077 3.21828 15.6858 3.56977L5.85654 9.24019C5.21994 9.60397 4.82666 10.2922 4.82666 11.0296V22.3605C4.82691 22.7232 4.92213 23.0794 5.1028 23.3937C5.2835 23.7082 5.54336 23.9697 5.85654 24.1525L8.43245 25.637C9.68107 26.2515 10.1284 26.2515 10.6962 26.2515C12.5421 26.2515 13.6039 25.1331 13.6039 23.1864V11.998C13.6039 11.8382 13.4761 11.7153 13.3213 11.7153H12.0775C11.9178 11.7153 11.7924 11.8382 11.7924 11.998V23.1816C11.7924 24.0468 10.9002 24.9071 9.44019 24.177L6.75122 22.6236C6.65782 22.572 6.59884 22.4688 6.59884 22.3605V11.0296C6.59884 10.9214 6.65929 10.8157 6.75442 10.7617L16.568 5.0986C16.6588 5.04452 16.7793 5.04452 16.8703 5.0986L26.6858 10.7617C26.7786 10.8182 26.8376 10.919 26.8376 11.032V22.3631C26.8376 22.4712 26.7786 22.5769 26.6877 22.6285L16.8682 28.2965C16.784 28.3457 16.6549 28.3457 16.564 28.2965L14.0456 26.802C13.9706 26.7578 13.8748 26.7431 13.8015 26.7849C13.1047 27.1806 12.9722 27.2323 12.3194 27.4608C12.1579 27.5166 11.919 27.6135 12.4086 27.8872L15.6868 29.828ZM14.5524 18.6691C14.5524 20.3233 15.4532 22.2954 19.7497 22.2954L19.7354 22.3071C22.8471 22.3071 24.6317 21.0806 24.6317 18.9422C24.6317 16.8209 23.1987 16.2556 20.1804 15.855C17.1325 15.4518 16.8228 15.2429 16.8228 14.5277C16.8228 13.9378 17.0858 13.1512 19.3446 13.1512C21.3625 13.1512 22.1048 13.5863 22.412 14.9455C22.4391 15.0733 22.5546 15.1667 22.6874 15.1667H23.9631C24.0026 15.1667 24.0417 15.1585 24.078 15.1426C24.1142 15.1268 24.1468 15.1035 24.1736 15.0744C24.2004 15.0453 24.2209 15.011 24.2336 14.9735C24.2464 14.9361 24.2514 14.8965 24.2482 14.8571C24.0515 12.5122 22.4932 11.4209 19.3495 11.4209C16.5499 11.4209 14.8786 12.6007 14.8786 14.5817C14.8786 16.7325 16.5401 17.3248 19.2291 17.5902C22.4441 17.9048 22.6948 18.3743 22.6948 19.0061C22.6948 20.1036 21.8149 20.571 19.7452 20.571C17.1472 20.571 16.577 19.9192 16.3852 18.6268C16.3631 18.4884 16.2452 18.3864 16.1051 18.3864H14.8368C14.6792 18.3864 14.5524 18.5118 14.5524 18.6691Z" fill="#94E2D5"/>
</svg>
