<svg width="33" height="39" viewBox="0 0 33 39" fill="none" xmlns="http://www.w3.org/2000/svg">
<g filter="url(#filter0_d_2_701)">
<path d="M25.6149 6.14186C25.6149 5.40188 25.0151 4.802 24.2751 4.802H10.8765C8.65656 4.802 6.85693 6.60163 6.85693 8.82158V24.8999C6.85693 27.1199 8.65656 28.9195 10.8765 28.9195H24.2751C25.0151 28.9195 25.6149 28.3196 25.6149 27.5796V6.14186Z" stroke="#89B4FA" stroke-width="3" stroke-linejoin="round"/>
<path d="M24.2751 22.2205H8.19679C7.45681 22.2205 6.85693 22.8203 6.85693 23.5603C6.85693 24.3003 7.45681 24.9002 8.19679 24.9002H24.2751C25.0151 24.9002 25.615 24.3003 25.615 23.5603C25.615 22.8203 25.0151 22.2205 24.2751 22.2205Z" fill="#89B4FA"/>
</g>
<defs>
<filter id="filter0_d_2_701" x="-3.84338" y="0.782959" width="40.1566" height="40.1565" filterUnits="userSpaceOnUse" color-interpolation-filters="sRGB">
<feFlood flood-opacity="0" result="BackgroundImageFix"/>
<feColorMatrix in="SourceAlpha" type="matrix" values="0 0 0 0 0 0 0 0 0 0 0 0 0 0 0 0 0 0 127 0" result="hardAlpha"/>
<feOffset dy="4"/>
<feGaussianBlur stdDeviation="2"/>
<feComposite in2="hardAlpha" operator="out"/>
<feColorMatrix type="matrix" values="0 0 0 0 0 0 0 0 0 0 0 0 0 0 0 0 0 0 0.25 0"/>
<feBlend mode="normal" in2="BackgroundImageFix" result="effect1_dropShadow_2_701"/>
<feBlend mode="normal" in="SourceGraphic" in2="effect1_dropShadow_2_701" result="shape"/>
</filter>
</defs>
</svg>
