<svg width="33" height="33" viewBox="0 0 33 33" fill="none" xmlns="http://www.w3.org/2000/svg">
<path fill-rule="evenodd" clip-rule="evenodd" d="M28.9502 6.14186C28.9502 5.40188 28.3504 4.802 27.6104 4.802H6.17262C5.43265 4.802 4.83276 5.40188 4.83276 6.14186V27.7136C4.83276 28.4536 5.43265 29.0534 6.17262 29.0534H27.6104C28.3504 29.0534 28.9502 28.4536 28.9502 27.7136V6.14186ZM16.8915 23.56C16.8915 24.3 16.2916 24.8999 15.5516 24.8999H10.1922C9.45222 24.8999 8.85235 24.3 8.85235 23.56V10.1615C8.85235 9.4215 9.45222 8.82163 10.1922 8.82163H23.5908C24.3308 8.82163 24.9306 9.4215 24.9306 10.1615V23.56C24.9306 24.3 24.3308 24.8999 23.5908 24.8999H22.2509C21.5109 24.8999 20.9111 24.3 20.9111 23.56V14.181C20.9111 13.4411 20.3112 12.8412 19.5712 12.8412H18.2313C17.4913 12.8412 16.8915 13.4411 16.8915 14.181V23.56Z" fill="#F38BA8"/>
</svg>
