<svg width="34" height="35" viewBox="0 0 34 35" fill="none" xmlns="http://www.w3.org/2000/svg">
<g filter="url(#filter0_d_2_714)">
<path fill-rule="evenodd" clip-rule="evenodd" d="M10.7557 7.07446C9.40439 7.07446 8.30896 8.16988 8.30896 9.52115V24.2014C8.30896 25.5526 9.40439 26.6481 10.7557 26.6481H24.6203C25.9715 26.6481 27.067 25.5526 27.067 24.2014V9.52116C27.067 8.16989 25.9715 7.07446 24.6203 7.07446H10.7557ZM17.5138 10.2183C18.7901 10.1017 20.0426 10.1507 21.2706 10.5109C22.0534 10.7405 22.7746 11.0961 23.3983 11.639C24.2976 12.4217 24.82 13.4197 24.9878 14.6085C25.1502 15.7605 25.0437 16.8766 24.4966 17.9202C24.1589 18.5647 23.6692 19.0638 23.064 19.4486L23.0044 19.4867C22.1135 20.0329 21.2552 20.38 20.38 20.5904C19.4674 20.8099 18.5664 20.2505 18.2934 19.3524V19.3524C18.2155 19.0954 18.1546 18.8328 18.0939 18.5702C18.0688 18.4611 18.0434 18.3522 18.017 18.2435C18.0109 18.2184 18.0095 18.1918 18.0079 18.1614L18.0077 18.1573V18.1573C18.0063 18.1335 18.0266 18.1137 18.0503 18.1162C18.0851 18.12 18.1195 18.1238 18.1536 18.1275L18.1667 18.129C18.2802 18.1419 18.3903 18.1542 18.5007 18.1605C19.1216 18.1964 19.7002 18.0887 20.1635 17.6204C20.4218 17.3592 20.5652 17.0329 20.6365 16.6752C20.729 16.2106 20.7292 15.7448 20.6067 15.2839C20.4474 14.6839 20.0729 14.2832 19.4984 14.0935C18.8549 13.8809 18.1986 13.8797 17.5514 14.0722C16.8467 14.2819 16.4215 14.7835 16.2235 15.494C16.0501 16.1157 16.0422 16.7499 16.0992 17.3879C16.2282 18.8336 16.6509 20.1996 17.2032 21.5261C17.3852 21.9635 17.5864 22.3926 17.7877 22.8216L17.7914 22.8295C17.8831 23.0247 17.9746 23.2198 18.0642 23.4158C18.0764 23.4423 18.0872 23.4693 18.0996 23.5003L18.0999 23.5013C18.1099 23.5258 18.0927 23.5528 18.0662 23.5542V23.5542C18.0334 23.5561 18.0048 23.5577 17.9764 23.5577H16.8598C15.6025 23.5577 14.3453 23.5577 13.088 23.5605C12.9872 23.5608 12.9402 23.5289 12.9024 23.4347C12.5049 22.4428 12.2266 21.4153 12.0176 20.3672C11.787 19.2108 11.6419 18.0446 11.6602 16.862C11.6775 15.7428 11.8435 14.6522 12.3031 13.6255C12.944 12.1933 14.0189 11.2422 15.4505 10.693C16.1128 10.4389 16.7995 10.2941 17.5138 10.2183Z" fill="#F9E2AF"/>
</g>
<defs>
<filter id="filter0_d_2_714" x="-3.06042" y="0.782959" width="40.1566" height="40.1565" filterUnits="userSpaceOnUse" color-interpolation-filters="sRGB">
<feFlood flood-opacity="0" result="BackgroundImageFix"/>
<feColorMatrix in="SourceAlpha" type="matrix" values="0 0 0 0 0 0 0 0 0 0 0 0 0 0 0 0 0 0 127 0" result="hardAlpha"/>
<feOffset dy="4"/>
<feGaussianBlur stdDeviation="2"/>
<feComposite in2="hardAlpha" operator="out"/>
<feColorMatrix type="matrix" values="0 0 0 0 0 0 0 0 0 0 0 0 0 0 0 0 0 0 0.25 0"/>
<feBlend mode="normal" in2="BackgroundImageFix" result="effect1_dropShadow_2_714"/>
<feBlend mode="normal" in="SourceGraphic" in2="effect1_dropShadow_2_714" result="shape"/>
</filter>
</defs>
</svg>
