<svg width="33" height="36" viewBox="0 0 33 36" fill="none" xmlns="http://www.w3.org/2000/svg">
<g filter="url(#filter0_d_2_716)">
<path d="M6.506 19.2907L8.15534 17.6413L15.3942 24.8801L13.7449 26.5295C12.3445 27.9299 10.074 27.9299 8.67355 26.5295L6.506 24.362C5.10558 22.9616 5.10558 20.6911 6.506 19.2907ZM25.8428 14.4315L24.1936 16.0809L16.9546 8.84197L18.604 7.19267C20.0044 5.79225 22.2749 5.79225 23.6754 7.19267L25.8428 9.36022C27.2433 10.7606 27.2433 13.0311 25.8428 14.4315ZM18.604 26.5292C20.0044 27.9297 22.2749 27.9297 23.6754 26.5292L25.8428 24.3618C27.2433 22.9613 27.2433 20.6908 25.8428 19.2904L13.7449 7.19239C12.3445 5.79199 10.074 5.79199 8.67355 7.19241L6.506 9.35995C5.10558 10.7604 5.10558 13.0309 6.506 14.4313L18.604 26.5292ZM12.8642 16.0335C13.3212 16.0335 13.6917 16.4039 13.6917 16.861C13.6917 17.318 13.3212 17.6885 12.8642 17.6885C12.4071 17.6885 12.0366 17.318 12.0366 16.861C12.0366 16.4039 12.4071 16.0335 12.8642 16.0335ZM17.0018 20.1711C17.0018 20.6281 16.6313 20.9986 16.1743 20.9986C15.7173 20.9986 15.3468 20.6281 15.3468 20.1711C15.3468 19.7141 15.7173 19.3436 16.1743 19.3436C16.6313 19.3436 17.0018 19.7141 17.0018 20.1711ZM17.0018 16.861C17.0018 17.318 16.6313 17.6885 16.1743 17.6885C15.7173 17.6885 15.3468 17.318 15.3468 16.861C15.3468 16.4039 15.7173 16.0335 16.1743 16.0335C16.6313 16.0335 17.0018 16.4039 17.0018 16.861ZM16.1743 12.7233C16.6313 12.7233 17.0018 13.0938 17.0018 13.5508C17.0018 14.0078 16.6313 14.3783 16.1743 14.3783C15.7173 14.3783 15.3468 14.0078 15.3468 13.5508C15.3468 13.0938 15.7173 12.7233 16.1743 12.7233ZM20.3119 16.861C20.3119 17.318 19.9414 17.6885 19.4844 17.6885C19.0274 17.6885 18.6569 17.318 18.6569 16.861C18.6569 16.4039 19.0274 16.0335 19.4844 16.0335C19.9414 16.0335 20.3119 16.4039 20.3119 16.861Z" fill="#F38BA8"/>
</g>
<defs>
<filter id="filter0_d_2_716" x="-3.90381" y="0.782959" width="40.1566" height="40.1565" filterUnits="userSpaceOnUse" color-interpolation-filters="sRGB">
<feFlood flood-opacity="0" result="BackgroundImageFix"/>
<feColorMatrix in="SourceAlpha" type="matrix" values="0 0 0 0 0 0 0 0 0 0 0 0 0 0 0 0 0 0 127 0" result="hardAlpha"/>
<feOffset dy="4"/>
<feGaussianBlur stdDeviation="2"/>
<feComposite in2="hardAlpha" operator="out"/>
<feColorMatrix type="matrix" values="0 0 0 0 0 0 0 0 0 0 0 0 0 0 0 0 0 0 0.25 0"/>
<feBlend mode="normal" in2="BackgroundImageFix" result="effect1_dropShadow_2_716"/>
<feBlend mode="normal" in="SourceGraphic" in2="effect1_dropShadow_2_716" result="shape"/>
</filter>
</defs>
</svg>
