<svg width="33" height="33" viewBox="0 0 33 33" fill="none" xmlns="http://www.w3.org/2000/svg">
<path d="M7.00588 19.2907L8.65522 17.6413L15.8941 24.8801L14.2447 26.5295C12.8444 27.9299 10.5738 27.9299 9.17342 26.5295L7.00588 24.362C5.60546 22.9616 5.60546 20.6911 7.00588 19.2907ZM26.3427 14.4315L24.6935 16.0809L17.4545 8.84197L19.1039 7.19267C20.5043 5.79225 22.7748 5.79225 24.1752 7.19267L26.3427 9.36022C27.7431 10.7606 27.7431 13.0311 26.3427 14.4315ZM19.1039 26.5292C20.5043 27.9297 22.7748 27.9297 24.1752 26.5292L26.3427 24.3618C27.7431 22.9613 27.7431 20.6908 26.3427 19.2904L14.2447 7.19239C12.8444 5.79199 10.5738 5.79199 9.17342 7.19241L7.00588 9.35995C5.60546 10.7604 5.60546 13.0309 7.00588 14.4313L19.1039 26.5292ZM13.364 16.0335C13.8211 16.0335 14.1915 16.4039 14.1915 16.861C14.1915 17.318 13.8211 17.6885 13.364 17.6885C12.907 17.6885 12.5365 17.318 12.5365 16.861C12.5365 16.4039 12.907 16.0335 13.364 16.0335ZM17.5017 20.1711C17.5017 20.6281 17.1312 20.9986 16.6742 20.9986C16.2171 20.9986 15.8467 20.6281 15.8467 20.1711C15.8467 19.7141 16.2171 19.3436 16.6742 19.3436C17.1312 19.3436 17.5017 19.7141 17.5017 20.1711ZM17.5017 16.861C17.5017 17.318 17.1312 17.6885 16.6742 17.6885C16.2171 17.6885 15.8467 17.318 15.8467 16.861C15.8467 16.4039 16.2171 16.0335 16.6742 16.0335C17.1312 16.0335 17.5017 16.4039 17.5017 16.861ZM16.6742 12.7233C17.1312 12.7233 17.5017 13.0938 17.5017 13.5508C17.5017 14.0078 17.1312 14.3783 16.6742 14.3783C16.2171 14.3783 15.8467 14.0078 15.8467 13.5508C15.8467 13.0938 16.2171 12.7233 16.6742 12.7233ZM20.8118 16.861C20.8118 17.318 20.4413 17.6885 19.9843 17.6885C19.5273 17.6885 19.1568 17.318 19.1568 16.861C19.1568 16.4039 19.5273 16.0335 19.9843 16.0335C20.4413 16.0335 20.8118 16.4039 20.8118 16.861Z" fill="#F38BA8"/>
</svg>
