<svg width="34" height="38" viewBox="0 0 34 38" fill="none" xmlns="http://www.w3.org/2000/svg">
<g filter="url(#filter0_d_2_718)">
<path d="M29.4568 20.5755C27.5683 18.5562 22.4116 19.3788 21.1769 19.5286C19.3614 17.7333 18.1267 15.5641 17.6909 14.8161C18.3447 12.7968 18.7802 10.7771 18.8529 8.60828C18.8529 6.7381 18.1267 4.71875 16.0931 4.71875C15.3669 4.71875 14.7131 5.16749 14.35 5.76571C13.4784 7.33663 13.8415 10.4782 15.2216 13.6946C14.4227 16.0132 13.6961 18.2569 11.6626 22.2213C9.55648 23.1185 5.12611 25.2131 4.76291 27.4571C4.6177 28.1302 4.8355 28.8037 5.34391 29.327C5.85232 29.7757 6.50594 30.0001 7.15968 30.0001C9.8469 30.0001 12.4615 26.1858 14.2773 22.969C15.8024 22.4457 18.1994 21.6977 20.5961 21.2486C23.4285 23.7919 25.8979 24.1658 27.2052 24.1658C28.9484 24.1658 29.6019 23.4178 29.82 22.7447C30.1827 21.9967 29.965 21.1741 29.4568 20.5755ZM27.641 21.8472C27.5683 22.3708 26.9148 22.8941 25.7525 22.5952C24.3728 22.2213 23.1381 21.5479 22.0488 20.6504C22.9927 20.5006 25.099 20.2763 26.6241 20.5755C27.2052 20.725 27.7864 21.0992 27.641 21.8472ZM15.512 6.43883C15.6573 6.21446 15.8754 6.06498 16.0931 6.06498C16.7467 6.06498 16.892 6.88757 16.892 7.561C16.8193 9.13192 16.5286 10.7025 16.0204 12.1986C14.9308 9.20651 15.1489 7.11195 15.512 6.43883ZM15.3669 20.9497C15.9478 19.7529 16.747 17.6584 17.0374 16.7609C17.6909 17.8827 18.7802 19.2293 19.3614 19.8275C19.3614 19.9024 17.1098 20.3512 15.3669 20.9497ZM11.0817 23.9417C9.41127 26.7837 7.66809 28.579 6.72389 28.579C6.57868 28.579 6.43331 28.5041 6.2881 28.4295C6.07011 28.2797 5.99753 28.0553 6.07012 27.7561C6.28811 26.7091 8.1765 25.288 11.0817 23.9417Z" fill="#F38BA8"/>
</g>
<defs>
<filter id="filter0_d_2_718" x="-2.74719" y="0.782959" width="40.1566" height="40.1565" filterUnits="userSpaceOnUse" color-interpolation-filters="sRGB">
<feFlood flood-opacity="0" result="BackgroundImageFix"/>
<feColorMatrix in="SourceAlpha" type="matrix" values="0 0 0 0 0 0 0 0 0 0 0 0 0 0 0 0 0 0 127 0" result="hardAlpha"/>
<feOffset dy="4"/>
<feGaussianBlur stdDeviation="2"/>
<feComposite in2="hardAlpha" operator="out"/>
<feColorMatrix type="matrix" values="0 0 0 0 0 0 0 0 0 0 0 0 0 0 0 0 0 0 0.25 0"/>
<feBlend mode="normal" in2="BackgroundImageFix" result="effect1_dropShadow_2_718"/>
<feBlend mode="normal" in="SourceGraphic" in2="effect1_dropShadow_2_718" result="shape"/>
</filter>
</defs>
</svg>
