<svg width="33" height="33" viewBox="0 0 33 33" fill="none" xmlns="http://www.w3.org/2000/svg">
<path d="M8.79201 4.80176C8.05203 4.80176 7.45215 5.40164 7.45215 6.14162V27.5793C7.45215 28.3194 8.05203 28.9192 8.79201 28.9192H24.8703C25.6103 28.9192 26.2102 28.3194 26.2102 27.5793V11.501C26.2102 11.094 26.0251 10.7091 25.7073 10.4548L19.008 5.09536C18.7705 4.9053 18.4753 4.80176 18.171 4.80176H8.79201Z" stroke="#F38BA8" stroke-width="3" stroke-linejoin="round"/>
<path d="M16.8315 6.14209V12.8414H24.8707" stroke="#F38BA8" stroke-width="3" stroke-linejoin="round"/>
<path d="M21.9592 22.2435C21.1585 21.3873 18.9722 21.7361 18.4487 21.7996C17.6789 21.0384 17.1554 20.1188 16.9707 19.8016C17.2479 18.9455 17.4325 18.0891 17.4633 17.1696C17.4633 16.3767 17.1554 15.5205 16.2932 15.5205C15.9853 15.5205 15.7081 15.7108 15.5542 15.9644C15.1846 16.6304 15.3386 17.9624 15.9237 19.3261C15.585 20.3092 15.277 21.2605 14.4148 22.9413C13.5218 23.3217 11.6434 24.2098 11.4894 25.1612C11.4279 25.4466 11.5202 25.7321 11.7358 25.954C11.9513 26.1442 12.2284 26.2394 12.5056 26.2394C13.645 26.2394 14.7535 24.6222 15.5234 23.2583C16.17 23.0364 17.1863 22.7193 18.2024 22.5289C19.4033 23.6072 20.4503 23.7657 21.0046 23.7657C21.7437 23.7657 22.0207 23.4486 22.1132 23.1632C22.267 22.846 22.1747 22.4973 21.9592 22.2435ZM21.1894 22.7827C21.1585 23.0047 20.8815 23.2266 20.3887 23.0998C19.8037 22.9413 19.2802 22.6558 18.8183 22.2753C19.2186 22.2118 20.1116 22.1166 20.7582 22.2435C21.0046 22.3069 21.251 22.4655 21.1894 22.7827ZM16.0468 16.2498C16.1085 16.1547 16.2009 16.0913 16.2932 16.0913C16.5703 16.0913 16.632 16.4401 16.632 16.7256C16.6011 17.3916 16.4779 18.0575 16.2624 18.6918C15.8004 17.4232 15.8929 16.5352 16.0468 16.2498ZM15.9853 22.4022C16.2316 21.8948 16.5705 21.0067 16.6936 20.6262C16.9707 21.1018 17.4325 21.6727 17.6789 21.9264C17.6789 21.9581 16.7243 22.1484 15.9853 22.4022ZM14.1685 23.6707C13.4603 24.8757 12.7212 25.6368 12.3208 25.6368C12.2593 25.6368 12.1976 25.6051 12.1361 25.5735C12.0437 25.51 12.0129 25.4148 12.0437 25.2879C12.1361 24.844 12.9367 24.2415 14.1685 23.6707Z" fill="#F38BA8"/>
<path fill-rule="evenodd" clip-rule="evenodd" d="M15.3255 15.8257C15.5181 15.5086 15.8744 15.2529 16.2937 15.2529C16.8333 15.2529 17.2074 15.5295 17.4329 15.9119C17.6505 16.2806 17.7318 16.7455 17.7318 17.17V17.179C17.7014 18.0882 17.5252 18.9341 17.2627 19.77C17.4745 20.1324 17.9217 20.8726 18.5466 21.5174C18.8642 21.4762 19.4715 21.3986 20.105 21.4092C20.4733 21.4153 20.8616 21.4511 21.216 21.5454C21.5685 21.6394 21.9083 21.7965 22.1555 22.0609L22.1642 22.0703C22.426 22.3786 22.5631 22.8322 22.3626 23.2637C22.2987 23.4504 22.1736 23.6467 21.9501 23.7952C21.7218 23.9466 21.4121 24.0341 21.0051 24.0341C20.4082 24.0341 19.3383 23.8651 18.1245 22.8174C17.2178 22.9965 16.3205 23.2718 15.7066 23.4795C15.3278 24.1432 14.8653 24.8687 14.3529 25.4396C13.8284 26.0242 13.1978 26.5077 12.5061 26.5077C12.1687 26.5077 11.8271 26.392 11.5589 26.1552L11.5512 26.1484L11.544 26.141C11.2749 25.8639 11.1469 25.4923 11.2265 25.1119C11.2789 24.801 11.4646 24.5219 11.692 24.2824C11.9238 24.0382 12.2201 23.813 12.5299 23.6126C13.1102 23.237 13.7691 22.929 14.2207 22.7336C14.9891 21.2247 15.2994 20.3209 15.6087 19.4199C15.6183 19.392 15.6278 19.3642 15.6375 19.3361C15.3596 18.667 15.1808 18.0029 15.1151 17.4137C15.0473 16.8053 15.0959 16.2393 15.3203 15.8348L15.3255 15.8257ZM15.7863 16.0995C15.6432 16.3614 15.5851 16.7927 15.6478 17.3544C15.7097 17.9096 15.8857 18.5566 16.1691 19.2178L16.0112 18.7839C15.7714 18.1257 15.6728 17.559 15.6564 17.1124C15.6403 16.6772 15.7012 16.3274 15.8115 16.1229L15.8166 16.1135L15.8224 16.1045C15.9139 15.9632 16.0798 15.8237 16.2937 15.8237C16.4245 15.8237 16.5411 15.8667 16.6347 15.9446C16.7237 16.0184 16.7794 16.113 16.8152 16.2007C16.8847 16.3717 16.9004 16.5716 16.9004 16.726V16.7383C16.8684 17.4289 16.7404 18.1197 16.5167 18.7784L16.2716 19.4993L16.2081 19.3249L16.1776 19.4137C16.1568 19.4739 16.1362 19.5339 16.1155 19.5941C15.7977 20.5198 15.4719 21.4691 14.6537 23.064L14.6095 23.1502L14.5203 23.1882C14.0781 23.3766 13.402 23.6867 12.821 24.0625C12.5304 24.2506 12.2723 24.4495 12.0807 24.6514C11.8864 24.856 11.7807 25.0423 11.7544 25.2045L11.7522 25.2181C11.7123 25.4033 11.7664 25.5966 11.9214 25.7602C12.0832 25.8996 12.2926 25.9718 12.5061 25.9718C12.9537 25.9718 13.447 25.6467 13.9541 25.0817C14.4502 24.5288 14.9084 23.8036 15.2904 23.127L15.3406 23.0383L15.4369 23.0052C16.0889 22.7815 17.1189 22.4596 18.1536 22.2659L18.2836 22.2416L18.3819 22.3299C19.5285 23.3595 20.5097 23.4982 21.0051 23.4982C21.3371 23.4982 21.5355 23.427 21.6537 23.3486C21.7695 23.2717 21.8284 23.1746 21.8587 23.0811L21.8645 23.0632L21.8725 23.0465C21.9676 22.8506 21.9219 22.6165 21.7595 22.4222C21.6064 22.2609 21.3742 22.1422 21.0781 22.0634C21.0532 22.0567 21.0278 22.0504 21.0023 22.0444C21.101 22.087 21.1999 22.1472 21.282 22.2317C21.4253 22.3792 21.4993 22.5841 21.4542 22.8273C21.3881 23.2666 20.8975 23.5077 20.3224 23.3597L20.3191 23.3588C19.6936 23.1894 19.1365 22.8848 18.6484 22.4824L18.1892 22.1042L18.35 22.0787L18.2608 21.9905C17.4908 21.2291 16.9618 20.3191 16.7604 19.9726C16.753 19.96 16.7462 19.9481 16.7396 19.9369L16.6793 19.8335L16.7163 19.7195C16.9874 18.8817 17.1657 18.0522 17.1959 17.1656C17.1953 16.7987 17.1227 16.4408 16.9713 16.1843C16.8274 15.9404 16.6164 15.7889 16.2937 15.7889C16.0988 15.7889 15.9022 15.9117 15.7863 16.0995ZM16.278 16.3874C16.2348 16.4768 16.1778 16.7106 16.1919 17.0926C16.1981 17.2591 16.2176 17.4488 16.2557 17.6599C16.3133 17.3491 16.3496 17.0347 16.3643 16.7199C16.3639 16.5912 16.3488 16.4764 16.3188 16.4028C16.3109 16.3834 16.3038 16.3714 16.299 16.3646C16.2929 16.3697 16.2857 16.3771 16.278 16.3874ZM16.6236 19.9735L16.9256 20.4916C17.1901 20.9457 17.638 21.4995 17.8717 21.7401L17.9474 21.8181V21.9268C17.9474 22.0124 17.908 22.0709 17.8875 22.0964C17.8656 22.1236 17.8433 22.1406 17.8319 22.1486C17.8086 22.1653 17.7869 22.1752 17.7778 22.1793C17.7563 22.1888 17.7341 22.1962 17.718 22.2013C17.6832 22.2124 17.6369 22.225 17.5862 22.2381C17.5233 22.2545 17.4437 22.2743 17.3541 22.2966C17.2978 22.3106 17.2377 22.3255 17.1751 22.3413C16.8447 22.4244 16.4308 22.533 16.0728 22.6559L15.4633 22.8653L15.7448 22.2854C15.9845 21.7917 16.3188 20.9157 16.4391 20.544L16.6236 19.9735ZM16.7655 21.2264C16.6779 21.4604 16.5742 21.7244 16.4703 21.9731C16.6746 21.9156 16.8731 21.8646 17.0444 21.8216C17.0976 21.8082 17.1479 21.7956 17.1948 21.7839C17.0576 21.619 16.9067 21.4253 16.7655 21.2264ZM19.557 22.4645C19.8385 22.6272 20.1386 22.7545 20.4576 22.8411C20.8633 22.9449 20.9243 22.7464 20.9243 22.7464L20.9263 22.7319C20.9343 22.6906 20.9308 22.6658 20.9266 22.6515C20.9221 22.637 20.9138 22.6219 20.8975 22.605C20.8613 22.5679 20.7935 22.5306 20.6992 22.5053C20.3566 22.4394 19.9314 22.4401 19.557 22.4645ZM14.8346 23.0673L14.4 23.8069C14.0387 24.4214 13.6652 24.9309 13.3241 25.2905C13.1539 25.4699 12.9862 25.6179 12.8269 25.7231C12.6736 25.8243 12.499 25.9052 12.3213 25.9052C12.1917 25.9052 12.0764 25.8448 12.0244 25.8176C12.0205 25.8154 12.017 25.8137 12.0139 25.8121L11.9988 25.8043L11.9848 25.7947C11.8961 25.7337 11.825 25.648 11.7892 25.5374C11.755 25.432 11.76 25.3254 11.7827 25.2295C11.8191 25.0599 11.9156 24.9006 12.0367 24.7564C12.1608 24.6085 12.3243 24.4603 12.5173 24.3139C12.9034 24.0208 13.4298 23.7183 14.0563 23.4279L14.8346 23.0673ZM12.4472 25.1009C12.3547 25.2112 12.3171 25.2922 12.3065 25.343L12.3047 25.3517L12.3032 25.3576C12.3127 25.3622 12.3198 25.3652 12.3254 25.3674L12.3292 25.3687C12.3575 25.3659 12.4234 25.3473 12.5317 25.2757C12.6457 25.2006 12.7821 25.0831 12.9352 24.9216C13.0763 24.7729 13.2268 24.592 13.3821 24.3822C13.1752 24.5045 12.9941 24.6248 12.8413 24.7407C12.6686 24.8718 12.5377 24.993 12.4472 25.1009Z" fill="#F38BA8"/>
</svg>
