<svg width="33" height="37" viewBox="0 0 33 37" fill="none" xmlns="http://www.w3.org/2000/svg">
<g filter="url(#filter0_d_2_725)">
<path d="M16.6304 6.26085C14.5601 6.8928 13.2348 8.49156 13.249 10.3403C13.2631 11.6042 13.664 12.7266 14.6733 14.3112C15.3194 15.3299 16.6162 17.2823 16.654 17.2965C16.6729 17.3059 16.852 17.2211 17.0454 17.1126C18.4178 16.3486 19.2903 15.1413 19.479 13.7547C19.5072 13.5519 19.5308 12.9483 19.5308 12.4201C19.5308 11.359 19.5497 11.2693 19.8138 11.0807C20.1204 10.859 20.4928 10.9298 20.7382 11.2505V11.2505C20.8269 11.3637 20.8761 11.5028 20.8782 11.6467L20.889 12.3965C20.8985 12.9624 20.8843 13.5519 20.8514 13.8019C20.7382 14.7121 20.4316 15.5468 19.9317 16.3155C19.6298 16.7778 18.8612 17.5371 18.3282 17.9002C17.8518 18.2256 16.9181 18.7396 16.6257 18.8387C16.3804 18.9188 16.1446 18.867 15.9466 18.683C15.824 18.5651 13.7725 15.4572 13.2254 14.5517C12.6406 13.5897 12.1926 12.5144 11.9992 11.5995C11.853 10.9062 11.8341 9.88752 11.9568 9.31688C12.0747 8.78868 12.2822 8.2369 12.5274 7.82659C12.6406 7.63324 12.7255 7.46817 12.716 7.45873C12.7066 7.4493 12.4897 7.47288 12.235 7.52004C8.58004 8.13785 5.59946 10.9864 4.80244 14.6225C4.59964 15.5279 4.56664 15.9335 4.59494 17.0276C4.62322 18.0982 4.67982 18.4708 4.93449 19.315C5.22217 20.263 5.61361 21.0977 6.24556 22.1022C6.69832 22.8237 6.94827 23.3189 7.09917 23.7953C7.35857 24.5923 7.37744 24.7715 7.40572 26.5023C7.42459 27.6011 7.45288 28.1577 7.49061 28.2238C7.51891 28.2756 7.60852 28.3793 7.69341 28.4596V28.4596C7.78719 28.5503 7.91252 28.6009 8.04296 28.6009H11.1419C11.2534 28.6009 11.3608 28.5589 11.4427 28.4832V28.4832C11.7068 28.2378 11.7021 28.2614 11.7021 26.2429V25.7977C11.7021 25.0148 12.3368 24.3801 13.1197 24.3801V24.3801C13.8986 24.3801 14.5316 25.0085 14.5373 25.7873L14.5536 27.9973C14.5547 28.1573 14.6199 28.3102 14.7345 28.4218V28.4218V28.4218C14.8461 28.5363 14.9992 28.6009 15.159 28.6009H18.2161C18.3276 28.6009 18.435 28.5589 18.5168 28.4832V28.4832C18.7479 28.2661 18.7715 28.1671 18.8234 27.1296C18.913 25.2998 19.1582 23.965 19.6959 22.4088C19.9836 21.5694 20.1769 21.1213 20.79 19.8857C21.3135 18.8292 21.3277 18.8103 21.455 18.8339C21.5257 18.8481 21.837 18.9046 22.1482 18.9566C22.9028 19.0792 23.1387 19.1547 23.4829 19.3763C23.8413 19.6121 24.1525 20.0177 24.3035 20.4516C24.3979 20.7393 24.4119 20.8572 24.4119 21.5976C24.4119 22.3946 24.4072 22.4277 24.2988 22.5832C24.1525 22.7861 23.8225 22.937 23.6103 22.8993C23.5253 22.8804 23.365 22.8002 23.2519 22.72C22.9783 22.522 22.5869 22.4795 22.3511 22.6257C22.0775 22.7955 20.1533 24.7668 20.0779 24.9554C19.9317 25.3045 20.0118 25.5686 20.3656 25.9034C21.5965 27.073 23.5631 27.5068 25.1901 26.9693C26.1663 26.6485 27.1521 25.8515 27.817 24.8375C28.1755 24.2999 28.3594 23.9085 28.5715 23.2199V23.2199C28.6591 22.9417 28.7036 22.6517 28.7036 22.3601V17.9662C28.7036 13.5189 28.6989 13.0992 28.6187 12.7455C28.1755 10.6893 26.8549 8.99146 24.9685 8.04353C24.0724 7.59551 22.9122 7.35497 21.653 7.35497V7.35497C21.3203 7.35497 20.9942 7.26118 20.7123 7.08436L20.625 7.02956C19.5686 6.37875 18.9224 6.17595 17.8095 6.14765C17.0974 6.13351 17.0313 6.13822 16.6304 6.26085ZM24.1007 13.1935C24.4214 13.4293 24.4969 13.7925 24.3035 14.1132C23.9498 14.6743 23.0679 14.4149 23.0679 13.7453C23.0679 13.2265 23.6998 12.8917 24.1007 13.1935Z" fill="#CBA6F7"/>
</g>
<defs>
<filter id="filter0_d_2_725" x="-3.43396" y="0.782959" width="40.1566" height="40.1565" filterUnits="userSpaceOnUse" color-interpolation-filters="sRGB">
<feFlood flood-opacity="0" result="BackgroundImageFix"/>
<feColorMatrix in="SourceAlpha" type="matrix" values="0 0 0 0 0 0 0 0 0 0 0 0 0 0 0 0 0 0 127 0" result="hardAlpha"/>
<feOffset dy="4"/>
<feGaussianBlur stdDeviation="2"/>
<feComposite in2="hardAlpha" operator="out"/>
<feColorMatrix type="matrix" values="0 0 0 0 0 0 0 0 0 0 0 0 0 0 0 0 0 0 0.25 0"/>
<feBlend mode="normal" in2="BackgroundImageFix" result="effect1_dropShadow_2_725"/>
<feBlend mode="normal" in="SourceGraphic" in2="effect1_dropShadow_2_725" result="shape"/>
</filter>
</defs>
</svg>
