<svg width="33" height="33" viewBox="0 0 33 33" fill="none" xmlns="http://www.w3.org/2000/svg">
<path d="M16.1302 6.26085C14.0598 6.8928 12.7346 8.49156 12.7487 10.3403C12.7629 11.6042 13.1637 12.7266 14.1731 14.3112C14.8191 15.3299 16.116 17.2823 16.1538 17.2965C16.1727 17.3059 16.3518 17.2211 16.5451 17.1126C17.9176 16.3486 18.7901 15.1413 18.9787 13.7547C19.007 13.5519 19.0306 12.9483 19.0306 12.4201C19.0306 11.359 19.0495 11.2693 19.3136 11.0807C19.6201 10.859 19.9926 10.9298 20.2379 11.2505L20.3747 11.425L20.3888 12.3965C20.3983 12.9624 20.3841 13.5519 20.3511 13.8019C20.2379 14.7121 19.9314 15.5468 19.4315 16.3155C19.1296 16.7778 18.3609 17.5371 17.8279 17.9002C17.3516 18.2256 16.4179 18.7396 16.1255 18.8387C15.8802 18.9188 15.6444 18.867 15.4463 18.683C15.3237 18.5651 13.2722 15.4572 12.7252 14.5517C12.1404 13.5897 11.6923 12.5144 11.499 11.5995C11.3528 10.9062 11.3339 9.88752 11.4565 9.31688C11.5744 8.78868 11.7819 8.2369 12.0272 7.82659C12.1404 7.63324 12.2252 7.46817 12.2158 7.45873C12.2064 7.4493 11.9894 7.47288 11.7348 7.52004C8.07979 8.13785 5.09921 10.9864 4.3022 14.6225C4.0994 15.5279 4.0664 15.9335 4.0947 17.0276C4.12298 18.0982 4.17958 18.4708 4.43424 19.315C4.72192 20.263 5.11336 21.0977 5.74532 22.1022C6.19807 22.8237 6.44802 23.3189 6.59893 23.7953C6.85833 24.5923 6.87719 24.7715 6.90548 26.5023C6.92434 27.6011 6.95264 28.1577 6.99037 28.2238C7.01867 28.2756 7.10828 28.3793 7.19317 28.4596L7.33936 28.6009H10.8151L10.9425 28.4832C11.2066 28.2378 11.2019 28.2614 11.2019 26.2429V24.3801H14.0267L14.0551 28.2473L14.2343 28.4218L14.4087 28.6009H17.8893L18.0166 28.4832C18.2477 28.2661 18.2713 28.1671 18.3231 27.1296C18.4128 25.2998 18.658 23.965 19.1956 22.4088C19.4833 21.5694 19.6767 21.1213 20.2898 19.8857C20.8133 18.8292 20.8275 18.8103 20.9547 18.8339C21.0255 18.8481 21.3367 18.9046 21.648 18.9566C22.4026 19.0792 22.6384 19.1547 22.9826 19.3763C23.341 19.6121 23.6523 20.0177 23.8033 20.4516C23.8976 20.7393 23.9117 20.8572 23.9117 21.5976C23.9117 22.3946 23.907 22.4277 23.7986 22.5832C23.6523 22.7861 23.3223 22.937 23.11 22.8993C23.0251 22.8804 22.8647 22.8002 22.7516 22.72C22.478 22.522 22.0867 22.4795 21.8508 22.6257C21.5772 22.7955 19.6531 24.7668 19.5776 24.9554C19.4315 25.3045 19.5116 25.5686 19.8653 25.9034C21.0962 27.073 23.0629 27.5068 24.6899 26.9693C25.6661 26.6485 26.6518 25.8515 27.3168 24.8375C27.6752 24.2999 27.8592 23.9085 28.0713 23.2199L28.2034 22.8001V17.9662C28.2034 13.5189 28.1987 13.0992 28.1184 12.7455C27.6752 10.6893 26.3546 8.99146 24.4683 8.04353C23.5722 7.59551 22.412 7.35497 21.1528 7.35497H20.6435L20.1247 7.02956C19.0684 6.37875 18.4221 6.17595 17.3093 6.14765C16.5971 6.13351 16.5311 6.13822 16.1302 6.26085ZM23.6004 13.1935C23.9212 13.4293 23.9966 13.7925 23.8033 14.1132C23.4496 14.6743 22.5677 14.4149 22.5677 13.7453C22.5677 13.2265 23.1995 12.8917 23.6004 13.1935Z" fill="#CBA6F7"/>
</svg>
