<svg width="33" height="33" viewBox="0 0 33 33" fill="none" xmlns="http://www.w3.org/2000/svg">
<path d="M22.4264 9.44534L23.0149 6.2363C22.1212 5.6405 21.1501 5.1658 20.1304 4.82432L17.958 7.25834C16.8996 7.06458 15.8146 7.05732 14.7537 7.23897L12.608 4.77588C11.5835 5.10283 10.6075 5.56542 9.7041 6.15153L10.2515 9.36783C9.44011 10.075 8.75713 10.9179 8.23642 11.8624L4.97652 12.0029C4.59385 13.008 4.34682 14.0591 4.24268 15.1296L7.10054 16.7062C7.14655 17.7816 7.38148 18.8399 7.79321 19.8353L5.8702 22.4728C6.41756 23.398 7.086 24.2481 7.85618 24.9964L10.8715 23.7467C11.7409 24.3813 12.717 24.8584 13.7511 25.1563L14.6133 28.3048C15.6789 28.455 16.7591 28.4598 17.8248 28.3242L18.7257 25.1878C19.7648 24.9044 20.7456 24.4395 21.6224 23.8145L24.6207 25.1031C25.4005 24.3643 26.0812 23.5239 26.6381 22.6036L24.7491 19.9419C25.1729 18.9538 25.4224 17.8954 25.4829 16.8225L28.3601 15.2822C28.2681 14.2116 28.0356 13.1557 27.665 12.1458L24.4075 11.9641C23.8989 11.0147 23.2281 10.1622 22.424 9.44534H22.4264Z" fill="#94E2D5"/>
<path d="M16.4872 23.8379C20.6993 23.8379 24.1138 20.4234 24.1138 16.2113C24.1138 11.9993 20.6993 8.58472 16.4872 8.58472C12.2751 8.58472 8.8606 11.9993 8.8606 16.2113C8.8606 20.4234 12.2751 23.8379 16.4872 23.8379Z" fill="#CCFBF1"/>
<path d="M11.0962 19.8015C13.087 23.2455 17.1074 24.3959 16.1459 17.2659C16.0707 16.7112 15.7681 16.2123 15.3102 15.8902C9.33785 11.6857 8.9237 16.0453 11.0962 19.8015ZM14.8307 17.8035C15.0003 17.7623 15.1311 17.835 15.1917 18.0045C15.9837 20.2231 14.5619 21.0295 13.5665 20.533C12.6535 20.0777 12.6535 18.3509 14.8307 17.8035ZM14.3125 16.4835C14.4288 16.6217 14.4263 16.7717 14.3052 16.8953C12.7455 18.5107 11.2487 17.6461 11.3093 16.6313C11.3747 15.522 12.7842 14.6913 14.3125 16.4835Z" fill="#94E2D5"/>
<path d="M15.1763 20.9208C16.0613 20.41 16.0181 18.6782 15.0797 17.0529C14.1414 15.4277 12.6633 14.5245 11.7783 15.0354C10.8933 15.5464 10.9365 17.278 11.8749 18.9033C12.8132 20.5285 14.2913 21.4319 15.1763 20.9208Z" fill="#94E2D5"/>
<path d="M16.0738 9.74754C12.097 9.74996 9.08897 12.6563 15.7444 15.3881C16.2627 15.6013 16.8439 15.5867 17.3525 15.3518C23.9813 12.2833 20.4114 9.74269 16.0713 9.74512L16.0738 9.74754ZM15.9382 13.9811C15.8897 14.1482 15.7613 14.2257 15.5846 14.1942C13.2668 13.7703 13.2789 12.1355 14.2065 11.5228C15.0565 10.9609 16.5533 11.8231 15.9382 13.9835V13.9811ZM17.3405 14.1918C17.1636 14.2233 17.0328 14.1482 16.9869 13.9786C16.3668 11.8207 17.8635 10.9561 18.7137 11.5155C19.6413 12.1283 19.6583 13.7631 17.3405 14.1894V14.1918Z" fill="#94E2D5"/>
<path d="M16.4616 14.5721C18.3384 14.5721 19.8596 13.7436 19.8596 12.7217C19.8596 11.6998 18.3384 10.8713 16.4616 10.8713C14.585 10.8713 13.0637 11.6998 13.0637 12.7217C13.0637 13.7436 14.585 14.5721 16.4616 14.5721Z" fill="#94E2D5"/>
<path d="M22.293 19.0874C24.2789 15.641 23.2667 11.5843 17.5703 15.9825C17.127 16.3241 16.8461 16.8351 16.7977 17.3945C16.1413 24.6699 20.1254 22.8486 22.293 19.0898V19.0874ZM18.694 16.852C18.573 16.726 18.5705 16.5758 18.6868 16.4402C20.2126 14.6456 21.6221 15.4739 21.6899 16.5832C21.7529 17.6004 20.2561 18.465 18.694 16.852ZM17.8101 17.9612C17.8707 17.7917 18.0014 17.719 18.1709 17.7602C20.3482 18.3028 20.3506 20.032 19.44 20.4873C18.4471 20.9838 17.0229 20.182 17.8101 17.9612Z" fill="#94E2D5"/>
<path d="M21.123 18.8609C22.0613 17.2356 22.1045 15.5038 21.2195 14.993C20.3345 14.4819 18.8564 15.3853 17.9181 17.0105C16.9798 18.6356 16.9365 20.3674 17.8216 20.8783C18.7066 21.3893 20.1846 20.486 21.123 18.8609Z" fill="#94E2D5"/>
</svg>
