<svg width="33" height="33" viewBox="0 0 33 33" fill="none" xmlns="http://www.w3.org/2000/svg">
<path d="M30 17C30 20.4477 28.5777 23.7544 26.0459 26.1923C23.5142 28.6303 20.0804 30 16.5 30C12.9195 30 9.48578 28.6303 6.95405 26.1923C4.42231 23.7544 3 20.4477 3 17C3 13.5522 4.42231 10.2456 6.95405 7.8076C9.48578 5.36964 12.9195 4 16.5 4C20.0804 4 23.5142 5.36964 26.0459 7.8076C28.5777 10.2456 30 13.5522 30 17Z" stroke="#F38BA8" stroke-width="3" stroke-linecap="round"/>
<path d="M26.4702 23.0735C27.1663 24.4051 26.2003 26 24.6977 26H8.30218C6.79964 26 5.83368 24.4051 6.52972 23.0735L14.7273 7.39079C15.4755 5.95946 17.524 5.95944 18.2722 7.39076L26.4702 23.0735Z" stroke="#F38BA8" stroke-width="3" stroke-linecap="square" stroke-linejoin="round"/>
<path d="M11 5L14.5 4H16.5L5.5 25.5L3.5 21.5L3 13L6 8.5L11 5Z" fill="#F38BA8"/>
<path d="M17.5 5.5L19.5 5L25.5 7L30 17L28 24L17.5 5.5Z" fill="#F38BA8"/>
<path d="M14 29.5C12.3333 28.5 9 26.4 9 26L23.5 27L22.5 29L14 29.5Z" fill="#F38BA8"/>
</svg>
