<svg width="33" height="33" viewBox="0 0 33 33" fill="none" xmlns="http://www.w3.org/2000/svg">
<path d="M28.4041 16.8609C28.4041 19.9874 27.1621 22.986 24.9512 25.1968C22.7404 27.4077 19.7418 28.6497 16.6153 28.6497C13.4887 28.6497 10.4901 27.4077 8.27928 25.1968C6.06845 22.986 4.82642 19.9874 4.82642 16.8609C4.82642 13.7343 6.06845 10.7357 8.27928 8.52489C10.4901 6.31406 13.4887 5.07202 16.6153 5.07202C19.7418 5.07202 22.7404 6.31406 24.9512 8.52489C27.1621 10.7357 28.4041 13.7343 28.4041 16.8609Z" stroke="#F38BA8" stroke-width="3" stroke-linecap="round"/>
<path d="M27.0282 22.0837H6.20142L16.6146 7.05127L27.0282 22.0837Z" stroke="#F38BA8" stroke-width="3" stroke-linecap="square" stroke-linejoin="round"/>
<path d="M12.4407 13.0728H20.7884V21.4204H12.4407V13.0728Z" stroke="#F38BA8" stroke-width="3" stroke-linecap="square" stroke-linejoin="round"/>
</svg>
