<svg width="33" height="33" viewBox="0 0 33 33" fill="none" xmlns="http://www.w3.org/2000/svg">
<path d="M13.4344 29.4351H5.50411C5.13914 29.4351 4.84326 29.731 4.84326 30.096C4.84326 30.4609 5.13914 30.7569 5.50411 30.7569H13.4344C13.7993 30.7569 14.0952 30.4609 14.0952 30.096C14.0952 29.731 13.7993 29.4351 13.4344 29.4351Z" fill="#F38BA8"/>
<path d="M13.4334 26.7908H10.79C10.425 26.7908 10.1292 27.0867 10.1292 27.4517C10.1292 27.8167 10.425 28.1124 10.79 28.1124H13.4334C13.7984 28.1124 14.0943 27.8167 14.0943 27.4517C14.0943 27.0867 13.7984 26.7908 13.4334 26.7908Z" fill="#F9E2AF"/>
<path d="M8.14753 26.7908H5.50411C5.13914 26.7908 4.84326 27.0867 4.84326 27.4517C4.84326 27.8167 5.13914 28.1124 5.50411 28.1124H8.14753C8.5125 28.1124 8.80838 27.8167 8.80838 27.4517C8.80838 27.0867 8.5125 26.7908 8.14753 26.7908Z" fill="#94E2D5"/>
<path d="M13.4344 24.1479H5.50411C5.13914 24.1479 4.84326 24.4439 4.84326 24.8088C4.84326 25.1738 5.13914 25.4697 5.50411 25.4697H13.4344C13.7993 25.4697 14.0952 25.1738 14.0952 24.8088C14.0952 24.4439 13.7993 24.1479 13.4344 24.1479Z" fill="#CBA6F7"/>
<path d="M21.3646 21.5034H9.4692C9.10423 21.5034 8.80835 21.7993 8.80835 22.1643C8.80835 22.5293 9.10423 22.8251 9.4692 22.8251H21.3646C21.7296 22.8251 22.0255 22.5293 22.0255 22.1643C22.0255 21.7993 21.7296 21.5034 21.3646 21.5034Z" fill="#F9E2AF"/>
<path d="M6.82581 21.5034H5.50411C5.13914 21.5034 4.84326 21.7993 4.84326 22.1643C4.84326 22.5293 5.13914 22.8251 5.50411 22.8251H6.82581C7.1908 22.8251 7.48668 22.5293 7.48668 22.1643C7.48668 21.7993 7.1908 21.5034 6.82581 21.5034Z" fill="#CBA6F7"/>
<path d="M25.3289 18.8606H21.3638C20.9988 18.8606 20.7029 19.1563 20.7029 19.5213C20.7029 19.8863 20.9988 20.1822 21.3638 20.1822H25.3289C25.6938 20.1822 25.9897 19.8863 25.9897 19.5213C25.9897 19.1563 25.6938 18.8606 25.3289 18.8606Z" fill="#CBA6F7"/>
<path d="M18.7211 18.8606H13.4343C13.0693 18.8606 12.7734 19.1563 12.7734 19.5213C12.7734 19.8863 13.0693 20.1822 13.4343 20.1822H18.7211C19.0861 20.1822 19.382 19.8863 19.382 19.5213C19.382 19.1563 19.0861 18.8606 18.7211 18.8606Z" fill="#F38BA8"/>
<path d="M10.7909 18.8606H5.50411C5.13914 18.8606 4.84326 19.1563 4.84326 19.5213C4.84326 19.8863 5.13914 20.1822 5.50411 20.1822H10.7909C11.1559 20.1822 11.4518 19.8863 11.4518 19.5213C11.4518 19.1563 11.1559 18.8606 10.7909 18.8606Z" fill="#94E2D5"/>
<path d="M26.6509 16.2168H16.0772C15.7122 16.2168 15.4163 16.5127 15.4163 16.8777C15.4163 17.2427 15.7122 17.5386 16.0772 17.5386H26.6509C27.0159 17.5386 27.3116 17.2427 27.3116 16.8777C27.3116 16.5127 27.0159 16.2168 26.6509 16.2168Z" fill="#94E2D5"/>
<path d="M13.4343 16.2168H9.4692C9.10423 16.2168 8.80835 16.5127 8.80835 16.8777C8.80835 17.2427 9.10423 17.5386 9.4692 17.5386H13.4343C13.7993 17.5386 14.0952 17.2427 14.0952 16.8777C14.0952 16.5127 13.7993 16.2168 13.4343 16.2168Z" fill="#F9E2AF"/>
<path d="M6.82581 16.2168H5.50411C5.13914 16.2168 4.84326 16.5127 4.84326 16.8777C4.84326 17.2427 5.13914 17.5386 5.50411 17.5386H6.82581C7.1908 17.5386 7.48668 17.2427 7.48668 16.8777C7.48668 16.5127 7.1908 16.2168 6.82581 16.2168Z" fill="#F38BA8"/>
<path d="M27.9723 13.574H21.3638C20.9988 13.574 20.7029 13.8699 20.7029 14.2347C20.7029 14.5997 20.9988 14.8956 21.3638 14.8956H27.9723C28.3373 14.8956 28.6332 14.5997 28.6332 14.2347C28.6332 13.8699 28.3373 13.574 27.9723 13.574Z" fill="#F9E2AF"/>
<path d="M10.7909 13.574H5.50411C5.13914 13.574 4.84326 13.8699 4.84326 14.2347C4.84326 14.5997 5.13914 14.8956 5.50411 14.8956H10.7909C11.1559 14.8956 11.4518 14.5997 11.4518 14.2347C11.4518 13.8699 11.1559 13.574 10.7909 13.574Z" fill="#CBA6F7"/>
<path d="M27.9723 10.9299H21.3638C20.9988 10.9299 20.7029 11.2258 20.7029 11.5908C20.7029 11.9558 20.9988 12.2516 21.3638 12.2516H27.9723C28.3373 12.2516 28.6332 11.9558 28.6332 11.5908C28.6332 11.2258 28.3373 10.9299 27.9723 10.9299Z" fill="#F38BA8"/>
<path d="M10.7909 10.9299H5.50411C5.13914 10.9299 4.84326 11.2258 4.84326 11.5908C4.84326 11.9558 5.13914 12.2516 5.50411 12.2516H10.7909C11.1559 12.2516 11.4518 11.9558 11.4518 11.5908C11.4518 11.2258 11.1559 10.9299 10.7909 10.9299Z" fill="#F9E2AF"/>
<path d="M26.6507 8.28711H25.3289C24.9639 8.28711 24.668 8.58299 24.668 8.94796C24.668 9.31293 24.9639 9.60881 25.3289 9.60881H26.6507C27.0157 9.60881 27.3114 9.31293 27.3114 8.94796C27.3114 8.58299 27.0157 8.28711 26.6507 8.28711Z" fill="#94E2D5"/>
<path d="M22.6859 8.28711H17.3992C17.0342 8.28711 16.7383 8.58299 16.7383 8.94796C16.7383 9.31293 17.0342 9.60881 17.3992 9.60881H22.6859C23.0509 9.60881 23.3468 9.31293 23.3468 8.94796C23.3468 8.58299 23.0509 8.28711 22.6859 8.28711Z" fill="#CBA6F7"/>
<path d="M14.7561 8.28711H5.50411C5.13914 8.28711 4.84326 8.58299 4.84326 8.94796C4.84326 9.31293 5.13914 9.60881 5.50411 9.60881H14.7561C15.1211 9.60881 15.4168 9.31293 15.4168 8.94796C15.4168 8.58299 15.1211 8.28711 14.7561 8.28711Z" fill="#94E2D5"/>
<path d="M25.3291 5.64355H12.112C11.747 5.64355 11.4512 5.93942 11.4512 6.30441C11.4512 6.66938 11.747 6.96526 12.112 6.96526H25.3291C25.6941 6.96526 25.99 6.66938 25.99 6.30441C25.99 5.93942 25.6941 5.64355 25.3291 5.64355Z" fill="#F9E2AF"/>
<path d="M9.46923 5.64355H5.50411C5.13914 5.64355 4.84326 5.93942 4.84326 6.30441C4.84326 6.66938 5.13914 6.96526 5.50411 6.96526H9.46923C9.83421 6.96526 10.1301 6.66938 10.1301 6.30441C10.1301 5.93942 9.83421 5.64355 9.46923 5.64355Z" fill="#F38BA8"/>
<path d="M21.3646 3H5.50411C5.13914 3 4.84326 3.29588 4.84326 3.66085C4.84326 4.02582 5.13914 4.3217 5.50411 4.3217H21.3646C21.7296 4.3217 22.0255 4.02582 22.0255 3.66085C22.0255 3.29588 21.7296 3 21.3646 3Z" fill="#94E2D5"/>
</svg>
