<svg width="37" height="33" viewBox="0 0 37 33" fill="none" xmlns="http://www.w3.org/2000/svg">
<g filter="url(#filter0_d_2_774)">
<path fill-rule="evenodd" clip-rule="evenodd" d="M16.4464 11.1634C17.0014 12.1247 16.6721 13.3539 15.7108 13.9088L7.58838 18.5984C6.62711 19.1533 5.39795 18.824 4.84297 17.8628C4.28797 16.9014 4.61732 15.6722 5.57859 15.1173L13.7011 10.4278C14.6623 9.87281 15.8915 10.2022 16.4464 11.1634Z" fill="#F38BA8"/>
<path fill-rule="evenodd" clip-rule="evenodd" d="M4.84284 15.8583C5.39782 14.897 6.62699 14.5676 7.58826 15.1226L15.7107 19.8121C16.672 20.3671 17.0013 21.5963 16.4463 22.5576C15.8914 23.5188 14.6622 23.8482 13.7009 23.2932L5.57847 18.6037C4.6172 18.0487 4.28785 16.8195 4.84284 15.8583Z" fill="#89B4FA"/>
<path fill-rule="evenodd" clip-rule="evenodd" d="M32.3242 15.8583C31.7692 14.897 30.54 14.5676 29.5788 15.1226L21.4563 19.8121C20.4951 20.3671 20.1658 21.5963 20.7208 22.5576C21.2757 23.5188 22.5049 23.8482 23.4661 23.2932L31.5886 18.6037C32.5498 18.0487 32.8793 16.8195 32.3242 15.8583Z" fill="#F9E2AF"/>
<path fill-rule="evenodd" clip-rule="evenodd" d="M20.7208 11.1634C20.1658 12.1247 20.4951 13.3539 21.4563 13.9088L29.5788 18.5984C30.54 19.1533 31.7692 18.824 32.3242 17.8628C32.8792 16.9014 32.5498 15.6722 31.5886 15.1173L23.4661 10.4278C22.5049 9.87281 21.2757 10.2022 20.7208 11.1634Z" fill="#94E2D5"/>
</g>
<defs>
<filter id="filter0_d_2_774" x="-1.49426" y="0.782959" width="40.1566" height="40.1565" filterUnits="userSpaceOnUse" color-interpolation-filters="sRGB">
<feFlood flood-opacity="0" result="BackgroundImageFix"/>
<feColorMatrix in="SourceAlpha" type="matrix" values="0 0 0 0 0 0 0 0 0 0 0 0 0 0 0 0 0 0 127 0" result="hardAlpha"/>
<feOffset dy="4"/>
<feGaussianBlur stdDeviation="2"/>
<feComposite in2="hardAlpha" operator="out"/>
<feColorMatrix type="matrix" values="0 0 0 0 0 0 0 0 0 0 0 0 0 0 0 0 0 0 0.25 0"/>
<feBlend mode="normal" in2="BackgroundImageFix" result="effect1_dropShadow_2_774"/>
<feBlend mode="normal" in="SourceGraphic" in2="effect1_dropShadow_2_774" result="shape"/>
</filter>
</defs>
</svg>
