<svg width="36" height="34" viewBox="0 0 36 34" fill="none" xmlns="http://www.w3.org/2000/svg">
<g filter="url(#filter0_d_2_779)">
<path fill-rule="evenodd" clip-rule="evenodd" d="M26.7538 13.1317C26.7543 13.336 26.7549 13.5464 26.7648 13.7625C26.7799 14.0293 26.834 14.3042 26.8897 14.5867C26.9865 15.0792 27.0878 15.5941 26.9948 16.1259C26.9146 16.6473 26.8584 17.1686 26.8032 17.6807C26.7433 18.237 26.6845 18.7823 26.5974 19.305C26.5349 19.712 26.243 20.0825 25.9535 20.4503C25.6627 20.8198 25.374 21.1866 25.3216 21.5848C25.0496 23.7181 22.9163 24.7011 17.8968 24.7011V24.8684H17.8759V24.7011C12.8562 24.7011 10.6392 23.7181 10.3464 21.5848C10.2945 21.2004 9.98959 20.8365 9.68051 20.4677C9.36745 20.0942 9.05009 19.7155 8.98695 19.305C8.89983 18.7823 8.84106 18.237 8.78112 17.6807C8.72594 17.1686 8.66976 16.6473 8.58956 16.1259C8.49668 15.5952 8.59738 15.0898 8.69413 14.6042C8.74989 14.3243 8.80432 14.0511 8.81963 13.7834C8.83103 13.6162 8.83897 13.4531 8.84673 13.2939C8.88167 12.5771 8.91276 11.9392 9.23793 11.3573C10.2418 9.62136 12.8771 8.61743 17.8968 8.61743C22.9163 8.61743 25.4261 9.62136 26.4301 11.3364C26.7502 11.8645 26.7518 12.4661 26.7538 13.1317ZM18.3324 16.2838C18.4219 16.2607 18.4594 16.106 18.4161 15.9382C18.3728 15.7705 18.2653 15.6531 18.1757 15.6761C18.0862 15.6993 18.0487 15.8539 18.092 16.0217C18.1353 16.1896 18.2429 16.3068 18.3324 16.2838ZM18.1812 16.6624C18.0152 16.6955 17.8968 16.7192 17.8968 16.7534C17.9084 16.8004 17.9137 16.8737 17.9196 16.9586C17.9243 17.025 17.9293 17.0984 17.9386 17.1717C17.9386 17.2616 17.9398 17.3828 17.9413 17.5212C17.9464 18.0238 17.9537 18.7512 17.9126 19.0129C18.8335 19.0449 20.2184 20.2667 20.2184 21.7939V21.8777C20.1975 20.3927 18.4406 19.1796 17.8759 19.1796C17.3111 19.1796 15.5543 20.3927 15.5334 21.8777V21.7939C15.5334 20.2929 16.908 19.0547 17.8289 19.0133C17.7712 18.6983 17.7712 17.6334 17.7712 17.1717C17.7712 17.0832 17.7789 16.9718 17.7849 16.8837C17.7889 16.8261 17.7921 16.7782 17.7921 16.7534C17.7921 16.7 16.9443 16.48 16.6913 16.4156C16.9027 16.468 17.5247 16.6135 17.6457 16.5442C17.7712 16.4606 17.834 16.2097 17.834 16.2097C17.834 16.2097 17.8758 16.4606 18.0431 16.5442C18.2105 16.6489 18.9844 16.3979 18.9844 16.3979C18.7615 16.5464 18.4216 16.6143 18.1812 16.6624ZM16.621 16.3979C16.621 16.3979 16.6471 16.4047 16.6913 16.4156L16.621 16.3979ZM17.5101 16.0305C17.4588 16.196 17.3456 16.308 17.2573 16.2807C17.1691 16.2532 17.1391 16.0968 17.1906 15.9314C17.2419 15.7659 17.355 15.654 17.4432 15.6814C17.5315 15.7087 17.5614 15.865 17.5101 16.0305ZM15.868 17.8618C15.868 17.9543 15.7931 18.0292 15.7006 18.0292C15.6083 18.0292 15.5333 17.9543 15.5333 17.8618C15.5333 17.7694 15.6083 17.6945 15.7006 17.6945C15.7931 17.6945 15.868 17.7694 15.868 17.8618ZM14.9059 18.8658C14.9059 18.9582 14.831 19.0331 14.7386 19.0331C14.6462 19.0331 14.5713 18.9582 14.5713 18.8658C14.5713 18.7735 14.6462 18.6984 14.7386 18.6984C14.831 18.6984 14.9059 18.7735 14.9059 18.8658ZM14.4248 18.0292C14.5173 18.0292 14.5922 17.9543 14.5922 17.862C14.5922 17.7695 14.5173 17.6946 14.4248 17.6946C14.3324 17.6946 14.2575 17.7695 14.2575 17.862C14.2575 17.9543 14.3324 18.0292 14.4248 18.0292ZM19.9464 17.862C19.9464 17.9543 19.8715 18.0292 19.779 18.0292C19.6867 18.0292 19.6118 17.9543 19.6118 17.862C19.6118 17.7695 19.6867 17.6946 19.779 17.6946C19.8715 17.6946 19.9464 17.7695 19.9464 17.862ZM20.7412 19.0331C20.8336 19.0331 20.9085 18.9582 20.9085 18.8658C20.9085 18.7735 20.8336 18.6984 20.7412 18.6984C20.6487 18.6984 20.5738 18.7735 20.5738 18.8658C20.5738 18.9582 20.6487 19.0331 20.7412 19.0331ZM21.2222 17.8618C21.2222 17.9543 21.1473 18.0292 21.055 18.0292C20.9625 18.0292 20.8876 17.9543 20.8876 17.8618C20.8876 17.7694 20.9625 17.6945 21.055 17.6945C21.1473 17.6945 21.2222 17.7694 21.2222 17.8618Z" fill="#FED7AA"/>
<path fill-rule="evenodd" clip-rule="evenodd" d="M25.4476 15.2692C25.4476 16.2858 24.6235 17.1098 23.607 17.1098C22.5905 17.1098 21.7665 16.2858 21.7665 15.2692C21.7665 14.2527 22.5905 13.4287 23.607 13.4287C24.6235 13.4287 25.4476 14.2527 25.4476 15.2692ZM23.607 14.4535C23.607 14.7192 23.3916 14.9345 23.126 14.9345C22.8603 14.9345 22.6449 14.7192 22.6449 14.4535C22.6449 14.1878 22.8603 13.9725 23.126 13.9725C23.3916 13.9725 23.607 14.1878 23.607 14.4535Z" fill="#18181B"/>
<path d="M20.8038 15.1851C20.8038 15.1851 22.4562 16.3144 23.3555 17.4229C24.2549 18.5314 24.234 18.7405 24.234 18.7405L23.5857 19.0334C23.5857 19.0334 22.6653 17.2973 21.5359 16.649C20.3855 16.0006 20.2601 15.4569 20.2601 15.4569L20.8038 15.1851Z" fill="#FED7AA"/>
<path fill-rule="evenodd" clip-rule="evenodd" d="M13.9226 15.2692C13.9226 16.2858 13.0986 17.1098 12.0821 17.1098C11.0656 17.1098 10.2416 16.2858 10.2416 15.2692C10.2416 14.2527 11.0656 13.4287 12.0821 13.4287C13.0986 13.4287 13.9226 14.2527 13.9226 15.2692ZM13.0442 14.4535C13.0442 14.7192 12.8288 14.9345 12.5632 14.9345C12.2975 14.9345 12.0821 14.7192 12.0821 14.4535C12.0821 14.1878 12.2975 13.9725 12.5632 13.9725C12.8288 13.9725 13.0442 14.1878 13.0442 14.4535Z" fill="#18181B"/>
<path d="M14.7596 15.1851C14.7596 15.1851 13.1073 16.3144 12.2079 17.4229C11.3086 18.5314 11.3295 18.7405 11.3295 18.7405L11.9779 19.0334C11.9779 19.0334 12.8981 17.2973 14.0275 16.649C15.157 16.0006 15.3034 15.4569 15.3034 15.4569L14.7596 15.1851Z" fill="#FED7AA"/>
<path d="M23.0006 9.16209C23.0006 9.16209 25.4268 11.1909 26.1378 13.5333C26.8489 15.8759 26.5561 18.7202 27.0999 19.0758C27.8738 19.5777 28.7522 16.5869 29.0451 16.2733C29.5052 15.7712 31.0319 14.4954 31.1366 14.2653C31.2411 14.0353 28.0411 10.5425 26.6398 9.85229C24.9456 9.05751 22.8541 8.99477 23.0006 9.16209Z" fill="#713F12"/>
<path d="M12.4794 9.16209C12.4794 9.16209 10.0533 11.1909 9.34213 13.5333C8.63102 15.8759 8.92383 18.7202 8.38005 19.0758C7.60619 19.5777 6.72775 16.5869 6.43495 16.2733C5.97482 15.7712 4.44802 14.4954 4.34345 14.2653C4.23887 14.0353 7.43887 10.5425 8.84017 9.85229C10.5343 9.05751 12.6258 8.99477 12.4794 9.16209Z" fill="#713F12"/>
<path fill-rule="evenodd" clip-rule="evenodd" d="M22.7285 18.0507C22.0112 17.169 20.9843 16.3301 19.64 15.9229C19.4991 15.4747 18.8337 14.9971 17.8971 14.9971C16.9836 15.0131 16.328 15.4712 16.1655 15.9009C14.7849 16.2994 13.7334 17.1529 13.003 18.0507C12.032 19.2353 12.0347 19.7528 12.0401 20.7916C12.0405 20.8717 12.0409 20.9548 12.0409 21.0416C12.0409 24.3715 12.9305 24.4555 13.8074 24.5383C14.0871 24.5647 14.3656 24.5911 14.6134 24.7226C15.4542 25.143 16.3221 25.1173 17.206 25.091C17.4216 25.0846 17.638 25.0782 17.8553 25.0782H17.8762C18.0807 25.0782 18.2832 25.083 18.4839 25.0877C19.3912 25.1092 20.2616 25.1299 21.118 24.7017C21.3666 24.5749 21.6459 24.5551 21.9264 24.5353C22.8026 24.4732 23.6906 24.4102 23.6906 21.0834L23.6936 20.9183C23.7149 19.8181 23.7255 19.2672 22.7285 18.0507ZM18.3327 16.2844C18.4222 16.2614 18.4597 16.1066 18.4165 15.9389C18.3732 15.7711 18.2656 15.6537 18.1761 15.6768C18.0866 15.7 18.0491 15.8546 18.0924 16.0223C18.1356 16.1902 18.2432 16.3075 18.3327 16.2844ZM18.1816 16.663C18.0156 16.6961 17.8971 16.7199 17.8971 16.754C17.9088 16.8011 17.914 16.8743 17.9199 16.9593C17.9246 17.0256 17.9297 17.099 17.9389 17.1723C17.9389 17.2622 17.9402 17.3835 17.9416 17.5219C17.9467 18.0245 17.9541 18.7519 17.913 19.0136C18.8338 19.0456 20.2187 20.2674 20.2187 21.7946V21.8783C20.1978 20.3934 18.441 19.1802 17.8762 19.1802C17.3115 19.1802 15.5547 20.3934 15.5338 21.8783V21.7946C15.5338 20.2935 16.9083 19.0554 17.8292 19.014C17.7716 18.699 17.7716 17.634 17.7716 17.1723C17.7716 17.0839 17.7792 16.9724 17.7853 16.8844C17.7893 16.8268 17.7925 16.7788 17.7925 16.754C17.7925 16.7007 16.9446 16.4807 16.6917 16.4162C16.9031 16.4686 17.5251 16.6141 17.6461 16.5449C17.7716 16.4613 17.8343 16.2103 17.8343 16.2103C17.8343 16.2103 17.8761 16.4613 18.0435 16.5449C18.2108 16.6495 18.9847 16.3986 18.9847 16.3986C18.7619 16.547 18.422 16.6149 18.1816 16.663ZM16.6213 16.3986C16.6213 16.3986 16.6475 16.4054 16.6917 16.4162L16.6213 16.3986ZM17.5105 16.0312C17.4591 16.1966 17.3459 16.3087 17.2576 16.2813C17.1695 16.2539 17.1395 16.0975 17.1909 15.932C17.2422 15.7666 17.3553 15.6547 17.4436 15.682C17.5319 15.7093 17.5618 15.8657 17.5105 16.0312ZM15.8683 17.8625C15.8683 17.9549 15.7934 18.0298 15.701 18.0298C15.6087 18.0298 15.5336 17.9549 15.5336 17.8625C15.5336 17.77 15.6087 17.6951 15.701 17.6951C15.7934 17.6951 15.8683 17.77 15.8683 17.8625ZM14.9063 18.8664C14.9063 18.9589 14.8313 19.0338 14.7389 19.0338C14.6465 19.0338 14.5716 18.9589 14.5716 18.8664C14.5716 18.7741 14.6465 18.6991 14.7389 18.6991C14.8313 18.6991 14.9063 18.7741 14.9063 18.8664ZM14.4252 18.0298C14.5176 18.0298 14.5925 17.9549 14.5925 17.8626C14.5925 17.7702 14.5176 17.6953 14.4252 17.6953C14.3328 17.6953 14.2579 17.7702 14.2579 17.8626C14.2579 17.9549 14.3328 18.0298 14.4252 18.0298ZM19.9467 17.8626C19.9467 17.9549 19.8718 18.0298 19.7794 18.0298C19.6871 18.0298 19.6122 17.9549 19.6122 17.8626C19.6122 17.7702 19.6871 17.6953 19.7794 17.6953C19.8718 17.6953 19.9467 17.7702 19.9467 17.8626ZM20.7415 19.0338C20.834 19.0338 20.9089 18.9589 20.9089 18.8664C20.9089 18.7741 20.834 18.6991 20.7415 18.6991C20.6491 18.6991 20.5742 18.7741 20.5742 18.8664C20.5742 18.9589 20.6491 19.0338 20.7415 19.0338ZM21.2225 17.8625C21.2225 17.9549 21.1476 18.0298 21.0553 18.0298C20.9629 18.0298 20.888 17.9549 20.888 17.8625C20.888 17.77 20.9629 17.6951 21.0553 17.6951C21.1476 17.6951 21.2225 17.77 21.2225 17.8625Z" fill="#713F12"/>
<path d="M23.126 14.9335C23.3916 14.9335 23.607 14.7182 23.607 14.4525C23.607 14.1868 23.3916 13.9714 23.126 13.9714C22.8603 13.9714 22.6449 14.1868 22.6449 14.4525C22.6449 14.7182 22.8603 14.9335 23.126 14.9335Z" fill="#CDD6F4"/>
<path d="M12.5639 14.9335C12.8296 14.9335 13.045 14.7182 13.045 14.4525C13.045 14.1868 12.8296 13.9714 12.5639 13.9714C12.2983 13.9714 12.0829 14.1868 12.0829 14.4525C12.0829 14.7182 12.2983 14.9335 12.5639 14.9335Z" fill="#CDD6F4"/>
</g>
<defs>
<filter id="filter0_d_2_779" x="-2.33765" y="0.782959" width="40.1566" height="40.1565" filterUnits="userSpaceOnUse" color-interpolation-filters="sRGB">
<feFlood flood-opacity="0" result="BackgroundImageFix"/>
<feColorMatrix in="SourceAlpha" type="matrix" values="0 0 0 0 0 0 0 0 0 0 0 0 0 0 0 0 0 0 127 0" result="hardAlpha"/>
<feOffset dy="4"/>
<feGaussianBlur stdDeviation="2"/>
<feComposite in2="hardAlpha" operator="out"/>
<feColorMatrix type="matrix" values="0 0 0 0 0 0 0 0 0 0 0 0 0 0 0 0 0 0 0.25 0"/>
<feBlend mode="normal" in2="BackgroundImageFix" result="effect1_dropShadow_2_779"/>
<feBlend mode="normal" in="SourceGraphic" in2="effect1_dropShadow_2_779" result="shape"/>
</filter>
</defs>
</svg>
