<svg width="33" height="37" viewBox="0 0 33 37" fill="none" xmlns="http://www.w3.org/2000/svg">
<g filter="url(#filter0_d_2_790)">
<path fill-rule="evenodd" clip-rule="evenodd" d="M8.95606 17.6607C9.89935 17.1161 9.90092 15.3528 8.95956 13.7224C8.0182 12.092 6.4904 11.2118 5.54711 11.7564C4.60383 12.301 4.60226 14.0643 5.54362 15.6946C6.48496 17.3251 8.01278 18.2053 8.95606 17.6607ZM8.9617 21.1519C9.90306 22.7822 9.90149 24.5455 8.95821 25.0901C8.01491 25.6348 6.48711 24.7545 5.54576 23.1242C4.6044 21.4937 4.60597 19.7304 5.54926 19.1858C6.49255 18.6413 8.02035 19.5214 8.9617 21.1519ZM15.3899 24.8682C16.3313 26.4987 16.3297 28.2618 15.3864 28.8066C14.4431 29.3513 12.9153 28.471 11.974 26.8405C11.0326 25.2102 11.0342 23.4469 11.9775 22.9023C12.9208 22.3576 14.4486 23.2379 15.3899 24.8682ZM15.3879 17.439C16.3291 19.0693 16.3276 20.8326 15.3844 21.3772C14.441 21.9219 12.9132 21.0416 11.9719 19.4113C11.0305 17.7808 11.0321 16.0175 11.9754 15.4729C12.9187 14.9284 14.4465 15.8085 15.3879 17.439Z" fill="#F38BA8"/>
<path fill-rule="evenodd" clip-rule="evenodd" d="M28.2467 15.6984C29.188 14.0679 29.1865 12.3047 28.2431 11.7601C27.2998 11.2154 25.7721 12.0957 24.8308 13.7261C23.8894 15.3565 23.891 17.1197 24.8342 17.6644C25.7775 18.209 27.3053 17.3287 28.2467 15.6984ZM28.2469 19.1878C29.1901 19.7323 29.1917 21.4956 28.2503 23.126C27.309 24.7564 25.7812 25.6367 24.8379 25.092C23.8946 24.5474 23.8931 22.7841 24.8344 21.1538C25.7758 19.5233 27.3036 18.6431 28.2469 19.1878ZM21.82 22.8981C22.7632 23.4426 22.7648 25.2059 21.8234 26.8364C20.8821 28.4667 19.3542 29.347 18.411 28.8023C17.4677 28.2578 17.4661 26.4946 18.4075 24.8641C19.3489 23.2336 20.8767 22.3535 21.82 22.8981ZM21.8163 15.4704C22.7596 16.015 22.7612 17.7783 21.8198 19.4086C20.8784 21.0391 19.3506 21.9194 18.4073 21.3747C17.4641 20.8301 17.4625 19.0668 18.4039 17.4365C19.3452 15.806 20.8729 14.9257 21.8163 15.4704Z" fill="#CBA6F7"/>
<path fill-rule="evenodd" clip-rule="evenodd" d="M20.3036 5.43368C20.3036 6.52292 18.7774 7.40594 16.8946 7.40594C15.012 7.40594 13.4857 6.52292 13.4857 5.43368C13.4857 4.34443 15.012 3.46143 16.8946 3.46143C18.7774 3.46143 20.3036 4.34443 20.3036 5.43368ZM13.8767 9.14023C13.8767 10.2295 12.3505 11.1125 10.4678 11.1125C8.58507 11.1125 7.05884 10.2295 7.05884 9.14023C7.05884 8.05099 8.58507 7.16797 10.4678 7.16797C12.3505 7.16797 13.8767 8.05099 13.8767 9.14023ZM23.3299 11.1125C25.2127 11.1125 26.7388 10.2295 26.7388 9.14023C26.7388 8.05099 25.2127 7.16797 23.3299 7.16797C21.4472 7.16797 19.9209 8.05099 19.9209 9.14023C19.9209 10.2295 21.4472 11.1125 23.3299 11.1125ZM20.3036 12.8551C20.3036 13.9443 18.7774 14.8273 16.8946 14.8273C15.012 14.8273 13.4857 13.9443 13.4857 12.8551C13.4857 11.7659 15.012 10.8828 16.8946 10.8828C18.7774 10.8828 20.3036 11.7659 20.3036 12.8551Z" fill="#F9E2AF"/>
</g>
<defs>
<filter id="filter0_d_2_790" x="-3.18103" y="0.782959" width="40.1566" height="40.1565" filterUnits="userSpaceOnUse" color-interpolation-filters="sRGB">
<feFlood flood-opacity="0" result="BackgroundImageFix"/>
<feColorMatrix in="SourceAlpha" type="matrix" values="0 0 0 0 0 0 0 0 0 0 0 0 0 0 0 0 0 0 127 0" result="hardAlpha"/>
<feOffset dy="4"/>
<feGaussianBlur stdDeviation="2"/>
<feComposite in2="hardAlpha" operator="out"/>
<feColorMatrix type="matrix" values="0 0 0 0 0 0 0 0 0 0 0 0 0 0 0 0 0 0 0.25 0"/>
<feBlend mode="normal" in2="BackgroundImageFix" result="effect1_dropShadow_2_790"/>
<feBlend mode="normal" in="SourceGraphic" in2="effect1_dropShadow_2_790" result="shape"/>
</filter>
</defs>
</svg>
