<svg width="33" height="33" viewBox="0 0 33 33" fill="none" xmlns="http://www.w3.org/2000/svg">
<path d="M18.464 4.13232C20.2002 4.13232 21.6076 5.53975 21.6076 7.27591L21.6068 7.95092H26.1012C26.8042 7.95092 27.3741 8.5208 27.3741 9.22379L27.3729 13.6775L25.4262 13.6788C23.7595 13.6788 22.3958 14.9758 22.2893 16.6157L22.2826 16.8224V16.8996C22.2826 18.5662 23.5797 19.9299 25.2194 20.0364L25.4262 20.0431L27.3729 20.0418L27.3741 24.5019C27.3741 25.2048 26.8042 25.7748 26.1012 25.7748L21.6068 25.7736L21.6076 26.4461C21.6076 28.1822 20.2002 29.5896 18.464 29.5896C16.7278 29.5896 15.3204 28.1822 15.3204 26.4461L15.32 25.7736L10.8268 25.7748C10.1238 25.7748 9.55395 25.2048 9.55395 24.5019L9.55268 20.0062L8.87895 20.0064C7.14279 20.0064 5.73535 18.5989 5.73535 16.8629C5.73535 15.1267 7.14279 13.7193 8.87895 13.7193L9.55268 13.7183L9.55395 9.22379C9.55395 8.5208 10.1238 7.95092 10.8268 7.95092H15.32L15.3204 7.27591C15.3204 5.53975 16.7278 4.13232 18.464 4.13232Z" stroke="#89B4FA" stroke-width="3" stroke-linejoin="round"/>
</svg>
