<svg width="33" height="33" viewBox="0 0 33 33" fill="none" xmlns="http://www.w3.org/2000/svg">
<path fill-rule="evenodd" clip-rule="evenodd" d="M18.4003 27.8838C17.5957 28.0326 16.6808 28.1178 15.7227 28.1225C14.7643 28.127 13.7657 28.0518 12.8029 27.8846C11.2813 27.6185 10 26.429 10 24.8442V19.2765C10 19.2762 10 19.2759 10.0001 19.2756V19.2756C10.3087 17.8706 11.3534 16.7426 12.7306 16.3272L12.8023 16.3056C12.8027 16.3055 12.8031 16.3054 12.8035 16.3054H18.4004H18.5557C20.5189 16.3054 22.0631 14.6283 21.9015 12.6718V12.6718V11C21.9015 10.4477 22.3492 10 22.9015 10H23.8285C25.457 10 26.4085 11.2327 26.807 12.9641C27.3442 15.289 27.3215 16.6806 26.807 18.9074C26.3617 20.8498 24.9345 21.8715 23.3059 21.8715H21.2031H15.9709C15.7657 21.8715 15.5994 22.0378 15.5994 22.2429V22.2429C15.5994 22.448 15.7657 22.6143 15.9709 22.6143H20.2031C20.7554 22.6143 21.2031 23.062 21.2031 23.6143V24.8434C21.2031 26.5315 20.7726 27.4465 18.4003 27.8838ZM18.1649 24.0822C17.4519 24.0822 16.8739 24.6853 16.8739 25.4293C16.8739 26.1732 17.4519 26.7764 18.1649 26.7764C18.8778 26.7764 19.4558 26.1732 19.4558 25.4293C19.4558 24.6853 18.8778 24.0822 18.1649 24.0822Z" fill="#F9E2AF"/>
<path fill-rule="evenodd" clip-rule="evenodd" d="M13.1977 4.37137C14.0022 4.22267 14.9171 4.1374 15.8752 4.13277C16.8336 4.12818 17.8322 4.20327 18.795 4.3705C20.3167 4.63658 21.5979 5.82613 21.5979 7.41089V12.9791V12.9791C21.5409 14.447 20.4605 15.6728 19.0114 15.9137L18.7953 15.9497C18.7951 15.9497 18.795 15.9497 18.7948 15.9497H13.2011C13.1987 15.9497 13.1963 15.9499 13.1939 15.9503L13.0534 15.9745C11.2498 16.2849 9.87576 17.7621 9.69647 19.5834V19.5834V21.2551C9.69647 21.8074 9.24875 22.2551 8.69647 22.2551H7.76952C6.14086 22.2551 5.18941 21.0224 4.79103 19.2911C4.25364 16.9661 4.27642 15.5746 4.79103 13.3477C5.23624 11.4053 6.6634 10.3837 8.29207 10.3837H10.3948H15.6272C15.8323 10.3837 15.9986 10.2174 15.9986 10.0122V10.0122C15.9986 9.8071 15.8323 9.6408 15.6272 9.6408H11.3948C10.8425 9.6408 10.3948 9.19309 10.3948 8.6408V7.41176C10.3948 5.72362 10.8254 4.80867 13.1977 4.37137ZM13.433 8.17379C14.146 8.17379 14.724 7.57068 14.724 6.82671C14.724 6.08274 14.146 5.47965 13.433 5.47965C12.7201 5.47965 12.1421 6.08274 12.1421 6.82671C12.1421 7.57068 12.7201 8.17379 13.433 8.17379Z" fill="#89B4FA"/>
</svg>
