<svg width="34" height="37" viewBox="0 0 34 37" fill="none" xmlns="http://www.w3.org/2000/svg">
<g filter="url(#filter0_d_2_796)">
<path fill-rule="evenodd" clip-rule="evenodd" d="M18.9002 27.8838C18.0956 28.0326 17.1807 28.1178 16.2226 28.1225C15.2642 28.127 14.2656 28.0518 13.3028 27.8846C11.7812 27.6185 10.4999 26.429 10.4999 24.8442V19.2765C10.4999 19.2762 10.4999 19.2759 10.5 19.2756C10.8086 17.8706 11.8533 16.7426 13.2305 16.3272L13.3022 16.3056C13.3026 16.3055 13.303 16.3054 13.3034 16.3054H18.9003H19.0556C21.0187 16.3054 22.563 14.6283 22.4013 12.6718V11C22.4013 10.4477 22.8491 10 23.4013 10H24.3283C25.9569 10 26.9084 11.2327 27.3068 12.9641C27.8441 15.289 27.8213 16.6806 27.3068 18.9074C26.8616 20.8498 25.4344 21.8715 23.8058 21.8715H21.703H16.4707C16.2656 21.8715 16.0993 22.0378 16.0993 22.2429C16.0993 22.448 16.2656 22.6143 16.4707 22.6143H20.703C21.2553 22.6143 21.703 23.062 21.703 23.6143V24.8434C21.703 26.5315 21.2725 27.4465 18.9002 27.8838ZM18.6647 24.0822C17.9518 24.0822 17.3738 24.6853 17.3738 25.4293C17.3738 26.1732 17.9518 26.7764 18.6647 26.7764C19.3777 26.7764 19.9557 26.1732 19.9557 25.4293C19.9557 24.6853 19.3777 24.0822 18.6647 24.0822Z" fill="#F9E2AF"/>
<path fill-rule="evenodd" clip-rule="evenodd" d="M13.6976 4.37137C14.5021 4.22267 15.417 4.1374 16.3751 4.13277C17.3335 4.12818 18.3321 4.20327 19.2949 4.3705C20.8166 4.63658 22.0978 5.82613 22.0978 7.41089V12.9791C22.0408 14.447 20.9603 15.6728 19.5113 15.9137L19.2952 15.9497C19.295 15.9497 19.2948 15.9497 19.2946 15.9497H13.701C13.6986 15.9497 13.6962 15.9499 13.6938 15.9503L13.5533 15.9745C11.7497 16.2849 10.3756 17.7621 10.1963 19.5834V21.2551C10.1963 21.8074 9.74863 22.2551 9.19635 22.2551H8.2694C6.64074 22.2551 5.68929 21.0224 5.29091 19.2911C4.75352 16.9661 4.7763 15.5746 5.29091 13.3477C5.73612 11.4053 7.16328 10.3837 8.79195 10.3837H10.8947H16.1271C16.3322 10.3837 16.4985 10.2174 16.4985 10.0122C16.4985 9.8071 16.3322 9.6408 16.1271 9.6408H11.8947C11.3424 9.6408 10.8947 9.19309 10.8947 8.6408V7.41176C10.8947 5.72362 11.3252 4.80867 13.6976 4.37137ZM13.9329 8.17379C14.6459 8.17379 15.2239 7.57068 15.2239 6.82671C15.2239 6.08274 14.6459 5.47965 13.9329 5.47965C13.22 5.47965 12.642 6.08274 12.642 6.82671C12.642 7.57068 13.22 8.17379 13.9329 8.17379Z" fill="#89B4FA"/>
</g>
<defs>
<filter id="filter0_d_2_796" x="-2.8678" y="0.782959" width="40.1566" height="40.1565" filterUnits="userSpaceOnUse" color-interpolation-filters="sRGB">
<feFlood flood-opacity="0" result="BackgroundImageFix"/>
<feColorMatrix in="SourceAlpha" type="matrix" values="0 0 0 0 0 0 0 0 0 0 0 0 0 0 0 0 0 0 127 0" result="hardAlpha"/>
<feOffset dy="4"/>
<feGaussianBlur stdDeviation="2"/>
<feComposite in2="hardAlpha" operator="out"/>
<feColorMatrix type="matrix" values="0 0 0 0 0 0 0 0 0 0 0 0 0 0 0 0 0 0 0.25 0"/>
<feBlend mode="normal" in2="BackgroundImageFix" result="effect1_dropShadow_2_796"/>
<feBlend mode="normal" in="SourceGraphic" in2="effect1_dropShadow_2_796" result="shape"/>
</filter>
</defs>
</svg>
