<svg width="33" height="33" viewBox="0 0 33 33" fill="none" xmlns="http://www.w3.org/2000/svg">
<path fill-rule="evenodd" clip-rule="evenodd" d="M20.224 29.3506C19.4194 29.4993 18.5046 29.5846 17.5464 29.5893C16.588 29.5938 15.5894 29.5186 14.6266 29.3514C13.105 29.0853 11.8237 27.8958 11.8237 26.311V20.7428C11.8237 19.111 13.0684 17.7722 14.6266 17.7722H20.2241C22.1247 17.7722 23.7252 16.0689 23.7252 14.1386V11.4668H25.6522C27.2808 11.4668 28.2322 12.6995 28.6307 14.4309C29.168 16.7558 29.1452 18.1474 28.6307 20.3742C28.1854 22.3166 26.7582 23.3383 25.1296 23.3383H23.0269H17.4232V24.0811H23.0269V26.3102C23.0269 27.9983 22.5964 28.9133 20.224 29.3506ZM19.9886 25.549C19.2757 25.549 18.6976 26.1521 18.6976 26.8961C18.6976 27.64 19.2757 28.2432 19.9886 28.2432C20.7015 28.2432 21.2796 27.64 21.2796 26.8961C21.2796 26.1521 20.7015 25.549 19.9886 25.549Z" fill="#F9E2AF"/>
<path fill-rule="evenodd" clip-rule="evenodd" d="M13.1977 4.37137C14.0022 4.22267 14.9171 4.1374 15.8752 4.13277C16.8336 4.12818 17.8322 4.20327 18.795 4.3705C20.3167 4.63658 21.5979 5.82613 21.5979 7.41089V12.9791C21.5979 14.6109 20.3533 15.9497 18.795 15.9497H13.1975C11.2969 15.9497 9.69647 17.6531 9.69647 19.5834V22.2551H7.76952C6.14086 22.2551 5.18941 21.0224 4.79103 19.2911C4.25364 16.9661 4.27642 15.5746 4.79103 13.3477C5.23624 11.4053 6.6634 10.3837 8.29207 10.3837H10.3948H15.9986V9.6408H10.3948V7.41176C10.3948 5.72362 10.8254 4.80867 13.1977 4.37137ZM13.433 8.17379C14.146 8.17379 14.724 7.57068 14.724 6.82671C14.724 6.08274 14.146 5.47965 13.433 5.47965C12.7201 5.47965 12.1421 6.08274 12.1421 6.82671C12.1421 7.57068 12.7201 8.17379 13.433 8.17379Z" fill="#89B4FA"/>
</svg>
