<svg width="33" height="34" viewBox="0 0 33 34" fill="none" xmlns="http://www.w3.org/2000/svg">
<path d="M16.7345 20.6353C17.7113 20.6353 18.5433 20.2736 19.2789 19.5621C19.9904 18.8265 20.3521 17.9945 20.3521 17.0177C20.3521 16.041 19.9904 15.2089 19.2789 14.4733C18.5433 13.7619 17.7113 13.4001 16.7345 13.4001C15.7577 13.4001 14.9257 13.7619 14.1901 14.4733C13.4787 15.2089 13.1169 16.041 13.1169 17.0177C13.1169 17.9945 13.4787 18.8265 14.1901 19.5621C14.9257 20.2736 15.7577 20.6353 16.7345 20.6353ZM16.7345 4.95898C20.0507 4.95898 22.8845 6.16486 25.2359 8.51631C27.5874 10.8678 28.7932 13.7016 28.7932 17.0177V18.7662C28.7932 19.9721 28.3712 20.9971 27.5874 21.8412C26.7432 22.6491 25.7785 23.0471 24.5727 23.0471C23.1256 23.0471 21.9318 22.4441 21.0274 21.2383C19.8215 22.4441 18.3986 23.0471 16.7345 23.0471C15.0825 23.0471 13.6595 22.4441 12.4657 21.2865C11.3081 20.0927 10.7051 18.6818 10.7051 17.0177C10.7051 15.3657 11.3081 13.9427 12.4657 12.7489C13.6595 11.5913 15.0825 10.9883 16.7345 10.9883C18.3986 10.9883 19.8095 11.5913 21.0033 12.7489C22.1609 13.9427 22.7639 15.3657 22.7639 17.0177V18.7662C22.7639 19.2606 22.9568 19.6947 23.3186 20.0686C23.6803 20.4424 24.1024 20.6353 24.5727 20.6353C25.0791 20.6353 25.5012 20.4424 25.863 20.0686C26.2247 19.6947 26.3815 19.2606 26.3815 18.7662V17.0177C26.3815 14.3768 25.453 12.1098 23.5477 10.2045C21.6424 8.29925 19.3754 7.37073 16.7345 7.37073C14.0936 7.37073 11.8266 8.29925 9.92133 10.2045C8.01605 12.1098 7.08753 14.3768 7.08753 17.0177C7.08753 19.6586 8.01605 21.9256 9.92133 23.8309C11.8266 25.7362 14.0936 26.6647 16.7345 26.6647H22.7639V29.0764H16.7345C13.4184 29.0764 10.5846 27.8706 8.23311 25.5191C5.88165 23.1677 4.67578 20.3339 4.67578 17.0177C4.67578 13.7016 5.88165 10.8678 8.23311 8.51631C10.5846 6.16486 13.4184 4.95898 16.7345 4.95898Z" fill="#94E2D5"/>
</svg>
