<svg width="33" height="34" viewBox="0 0 33 34" fill="none" xmlns="http://www.w3.org/2000/svg">
<path d="M21.1708 20.9493C22.0607 20.8572 22.736 20.09 22.7052 19.1691C22.6747 18.2485 21.9073 17.5119 20.9866 17.5119H20.9253C19.9738 17.5425 19.2373 18.3406 19.2679 19.2919C19.2986 19.7524 19.4827 20.1512 19.759 20.4275C18.7155 22.4839 17.1196 23.9878 14.7258 25.246C13.0992 26.1054 11.4113 26.4124 9.72332 26.1976C8.34222 26.0134 7.26804 25.3996 6.59275 24.3867C5.61073 22.8828 5.51868 21.2562 6.34734 19.6295C6.93049 18.4633 7.8511 17.6039 8.43425 17.1742C8.31149 16.7752 8.12732 16.1 8.03528 15.609C3.58514 18.8316 4.04553 23.1898 5.39592 25.246C6.40867 26.7807 8.46496 27.7322 10.7361 27.7322C11.3498 27.7322 11.9636 27.6708 12.5775 27.5174C16.5058 26.75 19.4829 24.4175 21.1708 20.9493ZM26.5723 17.1435C24.2399 14.412 20.8025 12.9081 16.8742 12.9081H16.3831C16.1069 12.3557 15.5237 11.9873 14.8792 11.9873H14.8179C13.8666 12.018 13.13 12.816 13.1606 13.7675C13.1913 14.6882 13.9586 15.4249 14.8792 15.4249H14.9406C15.6158 15.3941 16.199 14.9644 16.4445 14.3813H16.9969C19.3294 14.3813 21.5391 15.0564 23.5341 16.3762C25.0685 17.3891 26.1734 18.7089 26.7871 20.3048C27.3088 21.5939 27.2782 22.8521 26.7257 23.9264C25.8665 25.553 24.424 26.4431 22.5213 26.4431C21.2935 26.4431 20.1273 26.0748 19.5135 25.7985C19.1759 26.1054 18.5621 26.5965 18.1324 26.9035C19.4522 27.5172 20.8025 27.8549 22.0916 27.8549C25.0378 27.8549 27.2168 26.2282 28.0455 24.6016C28.9356 22.8214 28.8741 19.7524 26.5723 17.1435ZM10.9816 21.471C11.0123 22.3918 11.7795 23.1283 12.7002 23.1283H12.7616C13.7131 23.0977 14.4495 22.2996 14.4189 21.3483C14.3883 20.4274 13.6209 19.6909 12.7002 19.6909H12.6389C12.5775 19.6909 12.4853 19.6909 12.4241 19.7215C11.1657 17.6344 10.644 15.3634 10.8282 12.908C10.9509 11.0665 11.5647 9.47054 12.6389 8.15078C13.5289 7.01519 15.2476 6.46275 16.4138 6.43213C19.667 6.3707 21.0479 10.422 21.1401 12.0487C21.5391 12.1407 22.2143 12.3556 22.6747 12.5091C22.3063 7.5371 19.2373 4.95898 16.291 4.95898C13.5289 4.95898 10.9816 6.95395 9.96872 9.90033C8.55701 13.8288 9.47771 17.6039 11.1964 20.5809C11.043 20.7957 10.9509 21.1334 10.9816 21.471Z" fill="#A6E3A1"/>
</svg>
