<svg width="33" height="34" viewBox="0 0 33 34" fill="none" xmlns="http://www.w3.org/2000/svg">
<path d="M21.4845 20.9493C22.3745 20.8572 23.0498 20.09 23.0189 19.1691C22.9884 18.2485 22.2211 17.5119 21.3003 17.5119H21.2391C20.2875 17.5425 19.551 18.3406 19.5817 19.2919C19.6123 19.7524 19.7964 20.1512 20.0727 20.4275C19.0292 22.4839 17.4333 23.9878 15.0395 25.246C13.4129 26.1054 11.725 26.4124 10.037 26.1976C8.65594 26.0134 7.58176 25.3996 6.90647 24.3867C5.92445 22.8828 5.8324 21.2562 6.66106 19.6295C7.24421 18.4633 8.16483 17.6039 8.74797 17.1742C8.62521 16.7752 8.44104 16.1 8.349 15.609C3.89886 18.8316 4.35925 23.1898 5.70964 25.246C6.72239 26.7807 8.77868 27.7322 11.0498 27.7322C11.6635 27.7322 12.2773 27.6708 12.8912 27.5174C16.8195 26.75 19.7966 24.4175 21.4845 20.9493ZM26.886 17.1435C24.5536 14.412 21.1162 12.9081 17.1879 12.9081H16.6968C16.4207 12.3557 15.8374 11.9873 15.193 11.9873H15.1316C14.1803 12.018 13.4437 12.816 13.4743 13.7675C13.505 14.6882 14.2723 15.4249 15.193 15.4249H15.2543C15.9295 15.3941 16.5127 14.9644 16.7582 14.3813H17.3106C19.6432 14.3813 21.8529 15.0564 23.8478 16.3762C25.3822 17.3891 26.4872 18.7089 27.1008 20.3048C27.6226 21.5939 27.5919 22.8521 27.0394 23.9264C26.1802 25.553 24.7377 26.4431 22.835 26.4431C21.6073 26.4431 20.441 26.0748 19.8273 25.7985C19.4896 26.1054 18.8758 26.5965 18.4461 26.9035C19.7659 27.5172 21.1162 27.8549 22.4053 27.8549C25.3515 27.8549 27.5305 26.2282 28.3592 24.6016C29.2493 22.8214 29.1878 19.7524 26.886 17.1435ZM11.2953 21.471C11.326 22.3918 12.0932 23.1283 13.0139 23.1283H13.0754C14.0268 23.0977 14.7633 22.2996 14.7326 21.3483C14.702 20.4274 13.9346 19.6909 13.0139 19.6909H12.9526C12.8912 19.6909 12.799 19.6909 12.7378 19.7215C11.4795 17.6344 10.9577 15.3634 11.1419 12.908C11.2646 11.0665 11.8784 9.47054 12.9526 8.15078C13.8426 7.01519 15.5613 6.46275 16.7275 6.43213C19.9807 6.3707 21.3617 10.422 21.4538 12.0487C21.8529 12.1407 22.528 12.3556 22.9884 12.5091C22.6201 7.5371 19.551 4.95898 16.6048 4.95898C13.8426 4.95898 11.2953 6.95395 10.2824 9.90033C8.87073 13.8288 9.79143 17.6039 11.5101 20.5809C11.3567 20.7957 11.2646 21.1334 11.2953 21.471Z" fill="#FAB387"/>
</svg>
