<svg width="34" height="34" viewBox="0 0 34 34" fill="none" xmlns="http://www.w3.org/2000/svg">
<path d="M21.6403 20.9493C22.5302 20.8572 23.2055 20.09 23.1747 19.1691C23.1441 18.2485 22.3768 17.5119 21.4561 17.5119H21.3948C20.4433 17.5425 19.7067 18.3406 19.7374 19.2919C19.7681 19.7524 19.9522 20.1512 20.2285 20.4275C19.185 22.4839 17.5891 23.9878 15.1953 25.246C13.5687 26.1054 11.8807 26.4124 10.1928 26.1976C8.8117 26.0134 7.73752 25.3996 7.06223 24.3867C6.08021 22.8828 5.98816 21.2562 6.81682 19.6295C7.39997 18.4633 8.32059 17.6039 8.90373 17.1742C8.78098 16.7752 8.5968 16.1 8.50476 15.609C4.05463 18.8316 4.51501 23.1898 5.8654 25.246C6.87815 26.7807 8.93444 27.7322 11.2055 27.7322C11.8193 27.7322 12.4331 27.6708 13.047 27.5174C16.9753 26.75 19.9523 24.4175 21.6403 20.9493ZM27.0418 17.1435C24.7094 14.412 21.272 12.9081 17.3436 12.9081H16.8526C16.5764 12.3557 15.9932 11.9873 15.3487 11.9873H15.2874C14.3361 12.018 13.5995 12.816 13.6301 13.7675C13.6608 14.6882 14.4281 15.4249 15.3487 15.4249H15.4101C16.0852 15.3941 16.6685 14.9644 16.9139 14.3813H17.4664C19.7989 14.3813 22.0086 15.0564 24.0035 16.3762C25.5379 17.3891 26.6429 18.7089 27.2566 20.3048C27.7783 21.5939 27.7476 22.8521 27.1952 23.9264C26.336 25.553 24.8935 26.4431 22.9907 26.4431C21.763 26.4431 20.5968 26.0748 19.983 25.7985C19.6454 26.1054 19.0316 26.5965 18.6019 26.9035C19.9217 27.5172 21.272 27.8549 22.561 27.8549C25.5073 27.8549 27.6863 26.2282 28.515 24.6016C29.405 22.8214 29.3435 19.7524 27.0418 17.1435ZM11.451 21.471C11.4818 22.3918 12.249 23.1283 13.1697 23.1283H13.2311C14.1825 23.0977 14.919 22.2996 14.8883 21.3483C14.8578 20.4274 14.0904 19.6909 13.1697 19.6909H13.1084C13.047 19.6909 12.9548 19.6909 12.8936 19.7215C11.6352 17.6344 11.1135 15.3634 11.2977 12.908C11.4203 11.0665 12.0342 9.47054 13.1084 8.15078C13.9984 7.01519 15.717 6.46275 16.8833 6.43213C20.1364 6.3707 21.5174 10.422 21.6096 12.0487C22.0086 12.1407 22.6838 12.3556 23.1441 12.5091C22.7758 7.5371 19.7067 4.95898 16.7605 4.95898C13.9984 4.95898 11.451 6.95395 10.4382 9.90033C9.02649 13.8288 9.94719 17.6039 11.6658 20.5809C11.5125 20.7957 11.4203 21.1334 11.451 21.471Z" fill="#F38BA8"/>
</svg>
