<svg width="33" height="34" viewBox="0 0 33 34" fill="none" xmlns="http://www.w3.org/2000/svg">
<path d="M27.9927 6.168C27.7121 5.78494 27.3737 5.44797 26.9894 5.16921C25.8015 4.3042 24.105 4.3042 20.7111 4.3042H11.5713C8.17809 4.3042 6.4815 4.3042 5.293 5.16921C4.90923 5.44699 4.57218 5.78415 4.29453 6.168C3.4292 7.35618 3.4292 9.05278 3.4292 12.4508V21.5858C3.4292 24.979 3.4292 26.6746 4.29421 27.864C4.57296 28.2484 4.90993 28.5869 5.293 28.8673C6.48118 29.7327 8.17776 29.7327 11.5713 29.7327H20.7111C24.1043 29.7327 25.7999 29.7327 26.9894 28.8673C27.3728 28.5858 27.7111 28.2475 27.9927 27.864C28.8583 26.6762 28.8583 24.9793 28.8583 21.5858V12.4508C28.8571 9.05278 28.8571 7.35618 27.9927 6.168ZM15.2056 21.5999C15.2056 22.3952 15.2056 22.7975 15.0763 23.1113C14.9027 23.53 14.5701 23.8625 14.1514 24.0362C13.8374 24.1655 13.4399 24.1655 12.6398 24.1655C11.8446 24.1655 11.4423 24.1655 11.1285 24.0362C10.7099 23.8627 10.3772 23.5301 10.2036 23.1117C10.074 22.7975 10.074 22.3952 10.074 21.5999V13.2138C10.074 12.2523 10.074 11.7716 10.2593 11.4066C10.4241 11.0845 10.6861 10.8224 11.0082 10.6574C11.3725 10.4725 11.8542 10.4725 12.8112 10.4725H15.2059L15.2056 21.5999ZM20.6613 16.6108C20.0642 16.6108 19.4806 16.4338 18.984 16.1021C18.4876 15.7703 18.1007 15.299 17.8722 14.7472C17.6438 14.1956 17.5839 13.5887 17.7005 13.003C17.8169 12.4174 18.1044 11.8795 18.5266 11.4573C18.9488 11.0351 19.4868 10.7476 20.0723 10.6311C20.6579 10.5147 21.2649 10.5744 21.8165 10.8029C22.3681 11.0314 22.8396 11.4184 23.1714 11.9148C23.5031 12.4113 23.6801 12.9949 23.6801 13.592C23.6804 13.9882 23.6027 14.3805 23.4514 14.7467C23.3 15.1127 23.078 15.4455 22.7981 15.7258C22.5182 16.0061 22.1858 16.2286 21.8199 16.3805C21.4538 16.5323 21.0616 16.6105 20.6654 16.6108H20.6613Z" fill="#F38BA8"/>
</svg>
