<svg width="33" height="34" viewBox="0 0 33 34" fill="none" xmlns="http://www.w3.org/2000/svg">
<path d="M13.8349 8.55106C13.9972 8.89126 13.8558 9.2995 13.5156 9.46175C13.4947 9.47221 13.4737 9.48269 13.4528 9.49315C10.0089 10.7231 7.55429 13.9053 7.55429 17.6369C7.55429 18.0185 7.24498 18.3279 6.86343 18.3279H4.36166C3.98299 18.3279 3.67603 18.0209 3.67603 17.6422C3.67603 12.3508 7.11465 7.83926 11.9664 6.04406C12.2909 5.92369 12.6573 6.07023 12.809 6.39473L13.8349 8.55106ZM3.67603 20.9709C3.67603 20.2309 4.27591 19.631 5.01588 19.631H6.21443C6.95442 19.631 7.55429 20.2309 7.55429 20.9709V28.7275C7.55429 29.4675 6.95442 30.0673 6.21443 30.0673H5.01588C4.27591 30.0673 3.67603 29.4675 3.67603 28.7275V20.9709ZM29.552 17.6422C29.552 18.0209 29.245 18.3279 28.8664 18.3279H26.3594C25.9807 18.3279 25.6738 18.0209 25.6738 17.6422C25.6738 13.9053 23.2191 10.7231 19.7753 9.49315C19.6078 9.43034 19.4665 9.30473 19.3879 9.14248C19.3208 8.99375 19.3063 8.82302 19.3528 8.66256C19.3613 8.63351 19.3681 8.60333 19.3795 8.57527C19.3858 8.55935 19.3917 8.54326 19.3991 8.52777L20.4137 6.38949C20.5655 6.07023 20.932 5.92369 21.2564 6.04406C26.1134 7.83926 29.552 12.3508 29.552 17.6422ZM25.6738 20.9709C25.6738 20.2309 26.2736 19.631 27.0136 19.631H28.2122C28.9521 19.631 29.552 20.2309 29.552 20.9709V28.7275C29.552 29.4675 28.9521 30.0673 28.2122 30.0673H27.0136C26.2736 30.0673 25.6738 29.4675 25.6738 28.7275V20.9709Z" fill="#7F849C"/>
<path d="M19.0784 4.14462C19.293 4.17601 19.4814 4.30163 19.5808 4.49528C19.6856 4.68894 19.6908 4.91922 19.6019 5.11811L19.4134 5.50541L17.9741 8.5515C17.8538 8.80272 17.5921 8.9545 17.3146 8.9388C17.0844 8.92833 16.8489 8.92309 16.6133 8.92309C16.3778 8.92309 16.1422 8.92833 15.912 8.9388C15.6346 8.9545 15.3729 8.80272 15.2526 8.5515L13.8132 5.50541L13.6248 5.11811C13.4678 4.77268 13.6091 4.36444 13.9545 4.20218C14.0121 4.17601 14.0802 4.15509 14.1483 4.14462C15.7864 3.91957 17.4403 3.91957 19.0784 4.14462ZM24.3751 17.6426V30.0625H20.4968V17.6426C20.4968 15.5805 18.754 13.9109 16.6133 13.9109C14.4726 13.9109 12.7298 15.5805 12.7298 17.6426V30.0625H8.85156V17.6426C8.85156 13.5236 12.3268 10.1844 16.6133 10.1844C20.8998 10.1844 24.3751 13.5236 24.3751 17.6426Z" fill="#F9E2AF"/>
</svg>
