<svg width="35" height="39" viewBox="0 0 35 39" fill="none" xmlns="http://www.w3.org/2000/svg">
<g filter="url(#filter0_d_2_848)">
<path fill-rule="evenodd" clip-rule="evenodd" d="M17.5327 3.80177C17.4654 3.68852 17.3465 3.61963 17.2187 3.61963C17.0908 3.61963 16.9721 3.68852 16.9048 3.80177L16.3045 4.81156C16.2565 4.89231 16.1723 4.94482 16.0789 4.95434C15.9846 4.96394 15.8912 4.92872 15.8279 4.85818L15.0513 3.99291C14.9641 3.89568 14.8347 3.85234 14.7094 3.87834C14.5842 3.90435 14.4806 3.99598 14.4358 4.12063L14.0354 5.23394C14.0039 5.32142 13.9327 5.38862 13.8441 5.41667C13.7524 5.44568 13.6523 5.42959 13.5753 5.37197L12.6535 4.68177C12.5497 4.60405 12.4147 4.58778 12.2966 4.63877C12.1785 4.68976 12.0941 4.80074 12.0736 4.93217L11.8884 6.11396C11.8742 6.20462 11.8184 6.28328 11.7383 6.32804C11.6539 6.37522 11.5519 6.37951 11.4645 6.33803L10.4297 5.84677C10.3133 5.7915 10.1777 5.80293 10.0714 5.877C9.965 5.95106 9.90303 6.0772 9.90756 6.21038L9.94849 7.41453C9.95155 7.50473 9.91271 7.59112 9.84414 7.6498C9.77146 7.712 9.67343 7.73624 9.58053 7.71344L8.46817 7.44046C8.34366 7.4099 8.21284 7.44865 8.12239 7.54287C8.03194 7.6371 7.99474 7.77336 8.02407 7.90306L8.28921 9.07537C8.30934 9.16434 8.28744 9.25745 8.2309 9.32902C8.17119 9.4046 8.07933 9.44801 7.98307 9.44446L6.8432 9.40242C6.71534 9.3977 6.59426 9.46226 6.52315 9.57305C6.45205 9.68384 6.44106 9.82508 6.49412 9.94635L6.9694 11.0326C7.0073 11.1192 7.00336 11.2182 6.96002 11.3023C6.91477 11.39 6.83138 11.4521 6.73408 11.4687L5.6161 11.6587C5.48993 11.6801 5.38339 11.768 5.33445 11.891C5.28551 12.014 5.30112 12.1547 5.37573 12.2628L6.03976 13.2251C6.09469 13.3047 6.11003 13.4048 6.08291 13.4977C6.05497 13.5933 5.98481 13.6714 5.89197 13.7076L4.83703 14.1193C4.71738 14.166 4.6294 14.2739 4.60444 14.4044C4.57948 14.5349 4.62108 14.6696 4.71442 14.7606L5.5419 15.5663C5.61214 15.6347 5.64685 15.7313 5.63767 15.8289C5.62837 15.9278 5.57493 16.0177 5.49143 16.0716L4.53092 16.6912C4.42222 16.7614 4.35608 16.885 4.35608 17.0182C4.35608 17.1514 4.42222 17.2751 4.53092 17.3453L5.49146 17.9649C5.57496 18.0187 5.6284 18.1086 5.63771 18.2075C5.64689 18.3051 5.61217 18.4018 5.54193 18.4702L4.71442 19.2759C4.62108 19.3669 4.57948 19.5015 4.60444 19.632C4.6294 19.7625 4.71738 19.8704 4.83703 19.9171L5.89244 20.329C5.98514 20.3652 6.05519 20.4432 6.08311 20.5387C6.11022 20.6314 6.0949 20.7314 6.04004 20.8109L5.37573 21.7736C5.30112 21.8818 5.28551 22.0225 5.33445 22.1454C5.38339 22.2684 5.48993 22.3563 5.6161 22.3778L6.73497 22.5679C6.83208 22.5844 6.91531 22.6464 6.96047 22.734C7.0037 22.8178 7.00762 22.9165 6.96982 23.0029L6.49412 24.0901C6.44106 24.2114 6.45205 24.3526 6.52315 24.4634C6.59426 24.5742 6.71534 24.6387 6.8432 24.634L7.98444 24.5919C8.08037 24.5884 8.17193 24.6316 8.23146 24.707C8.28779 24.7782 8.30958 24.871 8.28954 24.9596L8.02407 26.1334C7.99474 26.2631 8.03194 26.3994 8.12239 26.4936C8.21284 26.5877 8.34366 26.6265 8.46817 26.5959L9.58204 26.3226C9.67457 26.2999 9.7722 26.324 9.84458 26.386C9.91289 26.4445 9.95159 26.5306 9.94853 26.6204L9.90756 27.826C9.90303 27.9592 9.965 28.0853 10.0714 28.1594C10.1777 28.2335 10.3133 28.2449 10.4297 28.1897L11.4656 27.6978C11.5527 27.6565 11.6545 27.6608 11.7387 27.7078C11.8185 27.7524 11.8741 27.8308 11.8882 27.9211L12.0736 29.1043C12.0941 29.2357 12.1785 29.3467 12.2966 29.3977C12.4147 29.4486 12.5497 29.4324 12.6535 29.3547L13.576 28.664C13.6528 28.6065 13.7527 28.5904 13.8441 28.6194C13.9326 28.6474 14.0037 28.7144 14.0351 28.8018L14.4358 29.9158C14.4806 30.0404 14.5842 30.1321 14.7094 30.1581C14.8347 30.1841 14.9641 30.1408 15.0513 30.0435L15.8281 29.178C15.8913 29.1075 15.9847 29.0723 16.079 29.0819C16.1723 29.0914 16.2563 29.1439 16.3042 29.2245L16.9048 30.2347C16.9721 30.3479 17.0908 30.4168 17.2187 30.4168C17.3465 30.4168 17.4654 30.3479 17.5327 30.2347L18.1331 29.2246C18.1811 29.1439 18.2651 29.0914 18.3585 29.0819C18.4528 29.0723 18.5462 29.1075 18.6095 29.178L19.386 30.0435C19.4734 30.1408 19.6026 30.1841 19.7279 30.1581C19.8533 30.1321 19.9568 30.0404 20.0016 29.9158L20.4023 28.8019C20.4337 28.7145 20.5047 28.6474 20.5932 28.6194C20.6848 28.5904 20.7847 28.6065 20.8616 28.6641L21.7839 29.3547C21.8877 29.4324 22.0227 29.4486 22.1408 29.3977C22.2589 29.3467 22.3433 29.2357 22.3639 29.1043L22.5491 27.9212C22.5633 27.8308 22.6189 27.7524 22.6988 27.7078C22.783 27.6608 22.8847 27.6565 22.9719 27.6979L24.0077 28.1897C24.1241 28.2449 24.2597 28.2335 24.3661 28.1594C24.4724 28.0853 24.5344 27.9592 24.5299 27.826L24.4889 26.6204C24.4858 26.5306 24.5245 26.4445 24.5928 26.386C24.6653 26.3241 24.763 26.2999 24.8556 26.3227L25.9693 26.5959C26.0938 26.6265 26.2246 26.5877 26.315 26.4936C26.4054 26.3994 26.4427 26.2631 26.4134 26.1334L26.1479 24.9596C26.1279 24.871 26.1497 24.7783 26.206 24.707C26.2655 24.6317 26.357 24.5884 26.4529 24.5919L27.5942 24.634C27.7221 24.6387 27.8432 24.5742 27.9142 24.4634C27.9854 24.3526 27.9964 24.2114 27.9433 24.0901L27.4676 23.0029C27.4298 22.9165 27.4337 22.8178 27.477 22.734C27.5222 22.6465 27.6054 22.5844 27.7026 22.5679L28.8213 22.3778C28.9475 22.3563 29.054 22.2684 29.103 22.1454C29.1519 22.0225 29.1363 21.8818 29.0617 21.7736L28.3974 20.811C28.3425 20.7315 28.3273 20.6314 28.3544 20.5387C28.3823 20.4431 28.4523 20.3652 28.5451 20.329L29.6004 19.9171C29.72 19.8704 29.808 19.7625 29.8329 19.632C29.8579 19.5015 29.8163 19.3669 29.723 19.2759L28.8956 18.4702C28.8253 18.4018 28.7906 18.3051 28.7998 18.2075C28.8091 18.1085 28.8626 18.0186 28.9461 17.9647L29.9065 17.3453C30.0152 17.2751 30.0813 17.1514 30.0813 17.0182C30.0813 16.885 30.0152 16.7614 29.9065 16.6912L28.9461 16.0717C28.8626 16.0178 28.8091 15.9279 28.7998 15.8289C28.7906 15.7313 28.8253 15.6346 28.8956 15.5662L29.723 14.7606C29.8163 14.6696 29.8579 14.5349 29.8329 14.4044C29.808 14.2739 29.72 14.166 29.6004 14.1193L28.5452 13.7075C28.4525 13.6713 28.3823 13.5933 28.3544 13.4977C28.3273 13.405 28.3426 13.3049 28.3975 13.2254L29.0617 12.2628C29.1363 12.1547 29.1519 12.014 29.103 11.891C29.054 11.768 28.9475 11.6801 28.8213 11.6587L27.7025 11.4685C27.6054 11.452 27.5222 11.39 27.4771 11.3025C27.4338 11.2186 27.4299 11.1198 27.4677 11.0333L27.9433 9.94635C27.9964 9.82508 27.9854 9.68384 27.9142 9.57305C27.8432 9.46226 27.7221 9.3977 27.5942 9.40242L26.4531 9.4445C26.3572 9.44804 26.2656 9.40478 26.2061 9.32943C26.1497 9.25806 26.1279 9.16523 26.1479 9.07652L26.4134 7.90306C26.4427 7.77336 26.4054 7.6371 26.315 7.54287C26.2246 7.44865 26.0938 7.4099 25.9693 7.44046L24.8557 7.71375C24.7631 7.73647 24.6654 7.71234 24.5929 7.65035C24.5245 7.59182 24.4858 7.50566 24.4889 7.41569L24.5299 6.21038C24.5344 6.0772 24.4724 5.95106 24.3661 5.877C24.2597 5.80293 24.1241 5.7915 24.0077 5.84677L22.972 6.33846C22.8849 6.37984 22.7831 6.37556 22.6989 6.32849C22.6189 6.28383 22.5633 6.20536 22.5491 6.11491L22.3639 4.93217C22.3433 4.80074 22.2589 4.68975 22.1408 4.63877C22.0227 4.58778 21.8877 4.60405 21.7839 4.68177L20.8618 5.37227C20.7849 5.42983 20.6848 5.4459 20.5933 5.41691C20.5047 5.38889 20.4337 5.32176 20.4023 5.23438L20.0016 4.12063C19.9568 3.99598 19.8533 3.90435 19.7279 3.87834C19.6026 3.85234 19.4734 3.89568 19.386 3.99291L18.6096 4.8582C18.5463 4.92876 18.4529 4.96398 18.3586 4.95437C18.2651 4.94485 18.181 4.89234 18.133 4.81159L17.5327 3.80177ZM17.2014 5.97361C17.4004 5.97897 17.5895 6.06537 17.7284 6.21434C17.8673 6.36332 17.945 6.56312 17.9449 6.77111C17.9449 6.98262 17.8643 7.18547 17.7207 7.33503C17.5772 7.4846 17.3824 7.56862 17.1793 7.56862C16.9763 7.56862 16.7816 7.4846 16.6379 7.33503C16.4944 7.18547 16.4137 6.98262 16.4137 6.77111C16.4137 6.66442 16.4342 6.55878 16.4741 6.46049C16.5139 6.3622 16.5723 6.27325 16.6458 6.19887C16.7192 6.12451 16.8063 6.06625 16.9017 6.02756C16.9972 5.98887 17.0991 5.97052 17.2014 5.97361ZM17.6348 8.59691C18.4601 7.77732 19.6576 7.37682 20.7306 7.82567C21.4201 8.11409 22.0764 8.48731 22.6852 8.93893C23.2845 9.3836 23.83 9.89853 24.3116 10.4722C25.0994 11.4104 25.1242 12.7294 24.6445 13.8567L24.5006 14.1948C24.3455 14.5616 24.5055 14.9923 24.8551 15.1565L26.0022 15.6862C26.3681 15.8551 26.6215 16.2057 26.6341 16.6085C26.635 16.6373 26.6358 16.6661 26.6365 16.6949C26.6489 17.24 26.1905 17.6617 25.6453 17.6617C25.5493 17.6617 25.5099 17.7285 25.5099 17.8259V18.2875C25.5099 19.3748 24.9216 19.6133 24.4045 19.6722C23.9123 19.7312 23.3682 19.4568 23.2992 19.144C23.0156 17.4837 22.5488 17.0999 21.8164 16.4978C21.79 16.476 21.792 16.4349 21.8205 16.4158C22.7502 15.7909 23.6957 14.8777 23.6957 13.6666C23.6957 12.3306 22.8168 11.4895 22.2185 11.0766C21.3767 10.4996 20.446 10.3842 20.195 10.3842H15.1516C13.2079 10.3842 12.4077 8.25513 14.2442 7.61832C14.9934 7.3585 15.7978 7.64339 16.3334 8.2282L16.65 8.57384C16.9159 8.86361 17.3566 8.87642 17.6348 8.59691ZM8.07334 13.1896C8.27252 13.1956 8.46161 13.2823 8.60044 13.4312C8.73925 13.5801 8.81687 13.7795 8.81679 13.9871C8.81679 14.1986 8.73613 14.4015 8.59254 14.551C8.44897 14.7007 8.25423 14.7847 8.05118 14.7847C7.84813 14.7847 7.6534 14.7007 7.50982 14.551C7.36625 14.4015 7.28558 14.1986 7.28558 13.9871C7.28553 13.8804 7.30605 13.7748 7.34591 13.6765C7.38576 13.5782 7.44414 13.4892 7.5176 13.4149C7.59106 13.3405 7.67809 13.2823 7.77355 13.2436C7.86901 13.2049 7.97096 13.1865 8.07334 13.1896ZM26.3272 13.2255C26.5263 13.2315 26.7154 13.3182 26.8543 13.4671C26.9931 13.616 27.0707 13.8154 27.0707 14.023C27.0707 14.2345 26.99 14.4374 26.8464 14.5869C26.7028 14.7364 26.5081 14.8206 26.3051 14.8206C26.102 14.8206 25.9073 14.7364 25.7637 14.5869C25.6202 14.4374 25.5394 14.2345 25.5394 14.023C25.5394 13.9163 25.56 13.8107 25.5997 13.7124C25.6396 13.6141 25.698 13.5251 25.7714 13.4508C25.8449 13.3764 25.932 13.3182 26.0274 13.2795C26.1228 13.2408 26.2248 13.2224 26.3272 13.2255ZM9.83074 14.0928C9.68155 13.7425 9.93855 13.3537 10.3192 13.3537C10.6125 13.3537 10.8502 13.5914 10.8502 13.8847V18.0936C10.8502 18.9371 10.1664 19.6209 9.32286 19.6209C8.63446 19.6209 8.0191 19.1616 7.91475 18.4812C7.86414 18.1511 7.82976 17.8187 7.81172 17.4852C7.7577 16.4865 8.40767 15.6169 9.31518 15.1964L9.50116 15.1103C9.85319 14.9461 10.0132 14.5179 9.85564 14.1512L9.83074 14.0928ZM15.0832 14.3436C15.0838 13.8335 15.4975 13.4204 16.0076 13.4204H18.2625C18.4275 13.4204 19.4221 13.6179 19.4221 14.3949C19.4221 15.0384 18.6589 15.2693 18.0311 15.2693H16.0076C15.4966 15.2693 15.0825 14.8547 15.0832 14.3436ZM15.0832 18.8209C15.0838 18.325 15.4861 17.9233 15.982 17.9233H17.519C17.7406 17.9233 18.708 17.99 19.0158 19.2773C19.0497 19.4167 19.0983 19.6674 19.1535 19.9514C19.2544 20.4721 19.3773 21.1053 19.4712 21.3724C19.6165 21.8339 20.2049 22.7571 20.8326 22.7571H23.7463C24.1893 22.7571 24.4383 23.2537 24.1426 23.5835C24.0154 23.7255 23.8207 23.783 23.6346 23.7414L22.317 23.4469C21.9404 23.3623 21.5687 23.6135 21.4874 24.006C21.2456 25.1812 20.4754 26.2253 19.3079 26.5022C18.6091 26.668 17.8924 26.7506 17.1716 26.7471C16.4506 26.7436 15.7345 26.6539 15.0371 26.4812C13.871 26.1924 13.106 25.1442 12.8639 23.9675C12.7827 23.5751 12.4134 23.3239 12.0368 23.4084L10.7432 23.6976C10.564 23.7376 10.3765 23.6808 10.2556 23.5426C9.9792 23.2268 10.2168 22.7571 10.6365 22.7571H17.3344C17.4206 22.7571 17.4797 22.7417 17.4797 22.6571V19.8209C17.4797 19.7389 17.4206 19.721 17.3344 19.721H15.982C15.4851 19.721 15.0825 19.3178 15.0832 18.8209ZM11.5321 24.4188C11.7313 24.4248 11.9204 24.5115 12.0592 24.6604C12.198 24.8092 12.2756 25.0087 12.2755 25.2163C12.2755 25.4278 12.1949 25.6307 12.0513 25.7802C11.9077 25.9297 11.713 26.0138 11.5099 26.0138C11.3069 26.0138 11.1122 25.9297 10.9686 25.7802C10.825 25.6307 10.7443 25.4278 10.7443 25.2163C10.7443 25.1096 10.7648 25.0039 10.8047 24.9057C10.8445 24.8073 10.9029 24.7184 10.9764 24.644C11.0498 24.5697 11.1369 24.5114 11.2323 24.4728C11.3278 24.4341 11.4297 24.4157 11.5321 24.4188ZM22.8685 24.4547C23.0676 24.4607 23.2568 24.5474 23.3956 24.6963C23.5344 24.8451 23.6119 25.0446 23.6119 25.2522C23.6119 25.4637 23.5313 25.6666 23.3876 25.8161C23.2441 25.9657 23.0493 26.0497 22.8463 26.0497C22.6432 26.0497 22.4485 25.9657 22.305 25.8161C22.1614 25.6666 22.0808 25.4637 22.0808 25.2522C22.0806 25.1455 22.1012 25.0398 22.141 24.9416C22.1808 24.8433 22.2392 24.7543 22.3127 24.6799C22.3861 24.6056 22.4732 24.5473 22.5686 24.5087C22.6641 24.47 22.7661 24.4516 22.8685 24.4547Z" fill="#FAB387"/>
</g>
<defs>
<filter id="filter0_d_2_848" x="-2.65088" y="0.939697" width="40.1566" height="40.1565" filterUnits="userSpaceOnUse" color-interpolation-filters="sRGB">
<feFlood flood-opacity="0" result="BackgroundImageFix"/>
<feColorMatrix in="SourceAlpha" type="matrix" values="0 0 0 0 0 0 0 0 0 0 0 0 0 0 0 0 0 0 127 0" result="hardAlpha"/>
<feOffset dy="4"/>
<feGaussianBlur stdDeviation="2"/>
<feComposite in2="hardAlpha" operator="out"/>
<feColorMatrix type="matrix" values="0 0 0 0 0 0 0 0 0 0 0 0 0 0 0 0 0 0 0.25 0"/>
<feBlend mode="normal" in2="BackgroundImageFix" result="effect1_dropShadow_2_848"/>
<feBlend mode="normal" in="SourceGraphic" in2="effect1_dropShadow_2_848" result="shape"/>
</filter>
</defs>
</svg>
