<svg width="33" height="34" viewBox="0 0 33 34" fill="none" xmlns="http://www.w3.org/2000/svg">
<path d="M9.55724 9.47119C9.55724 12.3618 11.3742 14.0818 15.0117 14.9887L18.8663 15.8668C22.309 16.6436 24.4055 18.573 24.4055 21.7167C24.4322 23.0862 23.979 24.4231 23.1219 25.5034C23.1219 22.3671 21.4704 20.6724 17.4871 19.6535L13.7024 18.808C10.6717 18.1286 8.33246 16.5424 8.33246 13.1279C8.31651 11.8092 8.74739 10.5228 9.55724 9.47119Z" fill="#F38BA8"/>
<path d="M20.7542 20.9472C22.3983 21.9806 23.1191 23.4259 23.1191 25.5C21.7583 27.2126 19.3675 28.1738 16.5575 28.1738C11.8276 28.1738 8.51735 25.8866 7.78174 21.912H12.3241C12.9089 23.7368 14.4573 24.5822 16.5244 24.5822C19.0475 24.5822 20.7248 23.2596 20.7579 20.9399" fill="#F38BA8"/>
<path d="M11.9193 13.7565C11.1686 13.3182 10.5527 12.6883 10.1369 11.9338C9.72116 11.1793 9.52112 10.3283 9.55803 9.47112C10.8711 7.77286 13.1552 6.73584 15.9394 6.73584C20.7576 6.73584 23.5456 9.23624 24.2334 12.7556H19.8638C19.3821 11.3681 18.1756 10.2877 15.9762 10.2877C13.626 10.2877 12.0223 11.6319 11.9304 13.7565" fill="#F38BA8"/>
</svg>
