<svg width="33" height="34" viewBox="0 0 33 34" fill="none" xmlns="http://www.w3.org/2000/svg">
<path d="M25.9092 18.0376C24.9722 18.0429 24.1609 18.2719 23.4804 18.6128C23.2292 18.1068 22.978 17.6647 22.936 17.3345C22.889 16.9511 22.8314 16.7166 22.889 16.2586C22.9465 15.8005 23.2083 15.1507 23.2083 15.0975C23.2031 15.0495 23.1507 14.8152 22.6115 14.8098C22.0723 14.8045 21.6065 14.9164 21.5542 15.0601C21.5018 15.204 21.3972 15.5342 21.3291 15.875C21.2349 16.3757 20.2508 18.1494 19.6908 19.0816C19.5076 18.7193 19.3506 18.3997 19.3192 18.1441C19.272 17.7606 19.2144 17.5263 19.272 17.0682C19.3297 16.6101 19.5913 15.9602 19.5913 15.9071C19.5861 15.8591 19.5337 15.6247 18.9947 15.6194C18.4555 15.6142 17.9897 15.7259 17.9373 15.8698C17.885 16.0136 17.8274 16.3544 17.7122 16.6847C17.6023 17.015 16.2938 19.9763 15.9535 20.7486C15.7808 21.1428 15.629 21.457 15.5191 21.6702C15.4091 21.8832 15.5139 21.6861 15.5034 21.7074C15.4091 21.8885 15.3568 21.9897 15.3568 21.9897V21.995C15.2836 22.1281 15.205 22.256 15.1683 22.256C15.1422 22.256 15.0898 21.8992 15.1788 21.4092C15.3725 20.3811 15.8436 18.778 15.8384 18.7193C15.8384 18.6928 15.9274 18.4104 15.5348 18.2665C15.1527 18.1228 15.0165 18.3625 14.9852 18.3625C14.9538 18.3625 14.9276 18.4477 14.9276 18.4477C14.9276 18.4477 15.3516 16.6421 14.1163 16.6421C13.3416 16.6421 12.2738 17.4996 11.7451 18.2826C11.4102 18.469 10.6983 18.8632 9.94457 19.2839C9.65667 19.4437 9.35833 19.6142 9.07567 19.7687L9.0181 19.7047C7.52109 18.0802 4.75216 16.9298 4.86731 14.7459C4.90919 13.9523 5.18137 11.859 10.1853 9.32373C14.2838 7.24647 17.5657 7.81637 18.1362 9.08404C18.9475 10.895 16.3828 14.2612 12.122 14.7459C10.4994 14.9323 9.64621 14.2932 9.4316 14.0535C9.20653 13.8032 9.17513 13.7925 9.09137 13.8404C8.95528 13.915 9.03904 14.1387 9.09137 14.2719C9.217 14.6074 9.74043 15.204 10.6303 15.5023C11.4102 15.7633 13.3154 15.9071 15.6185 15.0016C18.1991 13.9843 20.2142 11.1613 19.6227 8.80175C19.0208 6.39958 15.1056 5.61128 11.4049 6.94819C9.20129 7.74713 6.81446 8.99349 5.09762 10.6287C3.05625 12.5674 2.73172 14.2612 2.86781 14.9643C3.34413 17.4729 6.74118 19.1081 8.1021 20.3172C8.03405 20.3546 7.97124 20.3918 7.91366 20.4237C7.2332 20.7647 4.64224 22.1442 3.99318 23.6036C3.26039 25.2547 4.10835 26.4425 4.67365 26.6023C6.42189 27.0977 8.21201 26.2082 9.18035 24.7434C10.1435 23.2787 10.0283 21.3772 9.5834 20.5089L9.56769 20.477L10.1016 20.1575C10.4471 19.9497 10.7873 19.7579 11.0856 19.5929C10.9181 20.0562 10.7977 20.6049 10.7349 21.4038C10.6617 22.3412 11.0385 23.5556 11.5358 24.035C11.7556 24.2427 12.0173 24.2481 12.1796 24.2481C12.7554 24.2481 13.0171 23.7633 13.305 23.1828C13.6609 22.4744 13.9749 21.6541 13.9749 21.6541C13.9749 21.6541 13.5823 23.8752 14.6554 23.8752C15.048 23.8752 15.4406 23.3585 15.6185 23.0923V23.0975C15.6185 23.0975 15.629 23.0816 15.6499 23.0443C15.6918 22.9804 15.7127 22.9431 15.7127 22.9431V22.9325C15.8697 22.6555 16.2205 22.0216 16.7439 20.9724C17.4192 19.6195 18.0682 17.9257 18.0682 17.9257C18.0682 17.9257 18.131 18.3412 18.3246 19.0229C18.4399 19.4278 18.6911 19.8698 18.8847 20.3013C18.7277 20.525 18.6335 20.6528 18.6335 20.6528L18.6387 20.6581C18.513 20.8286 18.3718 21.0096 18.2252 21.1908C17.6913 21.8406 17.0527 22.5809 16.969 22.7939C16.8695 23.0443 16.8904 23.2307 17.0841 23.3798C17.2254 23.4864 17.4766 23.5077 17.7437 23.4864C18.2252 23.4545 18.5602 23.3319 18.7277 23.2574C18.9893 23.1614 19.2877 23.0177 19.5757 22.8046C20.099 22.4105 20.4183 21.8512 20.3869 21.1056C20.3713 20.6954 20.2404 20.2907 20.0781 19.9071C20.1253 19.8379 20.1723 19.7687 20.2195 19.694C21.0464 18.4636 21.685 17.1108 21.685 17.1108C21.685 17.1108 21.7478 17.5263 21.9416 18.208C22.041 18.5542 22.2398 18.9325 22.4179 19.3052C21.6432 19.9497 21.1564 20.6954 20.9889 21.1854C20.6801 22.0909 20.9209 22.501 21.3763 22.597C21.5804 22.6396 21.8735 22.5436 22.0934 22.4477C22.3655 22.3573 22.6952 22.2028 22.9989 21.9737C23.5223 21.5796 24.0248 21.0309 23.9987 20.2907C23.9829 19.9497 23.8939 19.6142 23.7736 19.2946C24.433 19.0177 25.2863 18.8578 26.3697 18.991C28.699 19.268 29.1597 20.7486 29.0706 21.3666C28.9816 21.9844 28.4948 22.3252 28.3326 22.4318C28.1703 22.5329 28.1179 22.5703 28.1337 22.6448C28.1546 22.7567 28.2279 22.7513 28.3693 22.73C28.5629 22.6981 29.594 22.2241 29.636 21.0843C29.6987 19.6195 28.3326 18.0216 25.9092 18.0376ZM7.94507 24.2001C7.17563 25.0576 6.09214 25.3825 5.63152 25.1056C5.13426 24.8127 5.32793 23.5503 6.27534 22.6396C6.8511 22.0855 7.5996 21.5743 8.09162 21.2601C8.20155 21.1908 8.36904 21.0895 8.56794 20.967C8.59935 20.9457 8.62029 20.9351 8.62029 20.9351C8.65692 20.9138 8.69881 20.8872 8.74068 20.8605C9.09137 22.1602 8.75638 23.3 7.94507 24.2001ZM13.5719 20.3066C13.305 20.9724 12.7397 22.6822 12.3994 22.5862C12.1063 22.5064 11.9283 21.2121 12.3419 19.9337C12.5512 19.2893 12.9961 18.5223 13.2579 18.2239C13.6819 17.7447 14.1424 17.5848 14.2576 17.7819C14.3938 18.0376 13.7394 19.8911 13.5719 20.3066ZM18.2148 22.5649C18.0995 22.6235 17.9949 22.6661 17.9477 22.6342C17.9111 22.6129 17.9949 22.5329 17.9949 22.5329C17.9949 22.5329 18.5759 21.8992 18.8062 21.6063C18.9371 21.4357 19.0941 21.2388 19.2616 21.015V21.0789C19.2616 21.8458 18.5393 22.3573 18.2148 22.5649ZM21.795 21.7341C21.7113 21.6702 21.7217 21.4731 22.0043 20.8552C22.1143 20.6102 22.3655 20.2001 22.7999 19.8113C22.8523 19.971 22.8838 20.1255 22.8784 20.2694C22.8732 21.228 22.2033 21.5848 21.795 21.7341Z" fill="#F38BA8"/>
</svg>
