<svg width="36" height="35" viewBox="0 0 36 35" fill="none" xmlns="http://www.w3.org/2000/svg">
<g filter="url(#filter0_d_2_854)">
<path d="M27.409 18.0376C26.4721 18.0429 25.6608 18.2719 24.9803 18.6128C24.7291 18.1068 24.4778 17.6647 24.4359 17.3345C24.3889 16.9511 24.3313 16.7166 24.3889 16.2586C24.4464 15.8005 24.7082 15.1507 24.7082 15.0975C24.7029 15.0495 24.6505 14.8152 24.1114 14.8098C23.5722 14.8045 23.1064 14.9164 23.0541 15.0601C23.0017 15.204 22.8971 15.5342 22.829 15.875C22.7348 16.3757 21.7507 18.1494 21.1906 19.0816C21.0075 18.7193 20.8504 18.3997 20.8191 18.1441C20.7719 17.7606 20.7143 17.5263 20.7719 17.0682C20.8295 16.6101 21.0912 15.9602 21.0912 15.9071C21.086 15.8591 21.0336 15.6247 20.4946 15.6194C19.9554 15.6142 19.4895 15.7259 19.4372 15.8698C19.3849 16.0136 19.3273 16.3544 19.2121 16.6847C19.1022 17.015 17.7937 19.9763 17.4534 20.7486C17.2807 21.1428 17.1288 21.457 17.019 21.6702C16.909 21.8832 17.0138 21.6861 17.0033 21.7074C16.909 21.8885 16.8567 21.9897 16.8567 21.9897V21.995C16.7834 22.1281 16.7049 22.256 16.6682 22.256C16.6421 22.256 16.5897 21.8992 16.6787 21.4092C16.8724 20.3811 17.3435 18.778 17.3383 18.7193C17.3383 18.6928 17.4272 18.4104 17.0347 18.2665C16.6525 18.1228 16.5164 18.3625 16.485 18.3625C16.4537 18.3625 16.4274 18.4477 16.4274 18.4477C16.4274 18.4477 16.8515 16.6421 15.6161 16.6421C14.8415 16.6421 13.7737 17.4996 13.245 18.2826C12.91 18.469 12.1982 18.8632 11.4444 19.2839C11.1565 19.4437 10.8582 19.6142 10.5755 19.7687L10.518 19.7047C9.02096 18.0802 6.25204 16.9298 6.36719 14.7459C6.40907 13.9523 6.68125 11.859 11.6852 9.32373C15.7836 7.24647 19.0656 7.81637 19.6361 9.08404C20.4474 10.895 17.8827 14.2612 13.6219 14.7459C11.9993 14.9323 11.1461 14.2932 10.9315 14.0535C10.7064 13.8032 10.675 13.7925 10.5913 13.8404C10.4552 13.915 10.5389 14.1387 10.5913 14.2719C10.7169 14.6074 11.2403 15.204 12.1301 15.5023C12.91 15.7633 14.8153 15.9071 17.1184 15.0016C19.699 13.9843 21.7141 11.1613 21.1226 8.80175C20.5207 6.39958 16.6055 5.61128 12.9048 6.94819C10.7012 7.74713 8.31434 8.99349 6.59749 10.6287C4.55613 12.5674 4.2316 14.2612 4.36769 14.9643C4.84401 17.4729 8.24106 19.1081 9.60198 20.3172C9.53393 20.3546 9.47112 20.3918 9.41354 20.4237C8.73308 20.7647 6.14212 22.1442 5.49306 23.6036C4.76027 25.2547 5.60822 26.4425 6.17352 26.6023C7.92177 27.0977 9.71189 26.2082 10.6802 24.7434C11.6433 23.2787 11.5282 21.3772 11.0833 20.5089L11.0676 20.477L11.6015 20.1575C11.9469 19.9497 12.2872 19.7579 12.5855 19.5929C12.418 20.0562 12.2976 20.6049 12.2348 21.4038C12.1615 22.3412 12.5384 23.5556 13.0357 24.035C13.2555 24.2427 13.5172 24.2481 13.6795 24.2481C14.2553 24.2481 14.517 23.7633 14.8048 23.1828C15.1607 22.4744 15.4748 21.6541 15.4748 21.6541C15.4748 21.6541 15.0822 23.8752 16.1553 23.8752C16.5479 23.8752 16.9405 23.3585 17.1184 23.0923V23.0975C17.1184 23.0975 17.1288 23.0816 17.1498 23.0443C17.1917 22.9804 17.2126 22.9431 17.2126 22.9431V22.9325C17.3696 22.6555 17.7204 22.0216 18.2437 20.9724C18.919 19.6195 19.5681 17.9257 19.5681 17.9257C19.5681 17.9257 19.6309 18.3412 19.8245 19.0229C19.9397 19.4278 20.191 19.8698 20.3846 20.3013C20.2275 20.525 20.1333 20.6528 20.1333 20.6528L20.1386 20.6581C20.0129 20.8286 19.8717 21.0096 19.7251 21.1908C19.1912 21.8406 18.5526 22.5809 18.4688 22.7939C18.3694 23.0443 18.3903 23.2307 18.5839 23.3798C18.7253 23.4864 18.9765 23.5077 19.2435 23.4864C19.7251 23.4545 20.0601 23.3319 20.2275 23.2574C20.4892 23.1614 20.7876 23.0177 21.0755 22.8046C21.5989 22.4105 21.9182 21.8512 21.8868 21.1056C21.8711 20.6954 21.7402 20.2907 21.578 19.9071C21.6251 19.8379 21.6722 19.7687 21.7193 19.694C22.5463 18.4636 23.1849 17.1108 23.1849 17.1108C23.1849 17.1108 23.2477 17.5263 23.4415 18.208C23.5409 18.5542 23.7397 18.9325 23.9178 19.3052C23.1431 19.9497 22.6563 20.6954 22.4888 21.1854C22.18 22.0909 22.4208 22.501 22.8762 22.597C23.0802 22.6396 23.3734 22.5436 23.5933 22.4477C23.8654 22.3573 24.1951 22.2028 24.4987 21.9737C25.0222 21.5796 25.5247 21.0309 25.4985 20.2907C25.4827 19.9497 25.3938 19.6142 25.2734 19.2946C25.9329 19.0177 26.7861 18.8578 27.8696 18.991C30.1989 19.268 30.6595 20.7486 30.5704 21.3666C30.4815 21.9844 29.9947 22.3252 29.8324 22.4318C29.6702 22.5329 29.6178 22.5703 29.6336 22.6448C29.6545 22.7567 29.7278 22.7513 29.8692 22.73C30.0628 22.6981 31.0939 22.2241 31.1359 21.0843C31.1986 19.6195 29.8324 18.0216 27.409 18.0376ZM9.44495 24.2001C8.67551 25.0576 7.59202 25.3825 7.1314 25.1056C6.63414 24.8127 6.8278 23.5503 7.77522 22.6396C8.35098 22.0855 9.09948 21.5743 9.5915 21.2601C9.70142 21.1908 9.86892 21.0895 10.0678 20.967C10.0992 20.9457 10.1202 20.9351 10.1202 20.9351C10.1568 20.9138 10.1987 20.8872 10.2406 20.8605C10.5912 22.1602 10.2563 23.3 9.44495 24.2001ZM15.0718 20.3066C14.8049 20.9724 14.2396 22.6822 13.8993 22.5862C13.6062 22.5064 13.4282 21.2121 13.8417 19.9337C14.0511 19.2893 14.496 18.5223 14.7577 18.2239C15.1818 17.7447 15.6423 17.5848 15.7575 17.7819C15.8936 18.0376 15.2392 19.8911 15.0718 20.3066ZM19.7146 22.5649C19.5994 22.6235 19.4948 22.6661 19.4476 22.6342C19.411 22.6129 19.4948 22.5329 19.4948 22.5329C19.4948 22.5329 20.0757 21.8992 20.3061 21.6063C20.437 21.4357 20.594 21.2388 20.7615 21.015V21.0789C20.7615 21.8458 20.0392 22.3573 19.7146 22.5649ZM23.2949 21.7341C23.2111 21.6702 23.2216 21.4731 23.5042 20.8552C23.6142 20.6102 23.8654 20.2001 24.2998 19.8113C24.3522 19.971 24.3836 20.1255 24.3783 20.2694C24.3731 21.228 23.7031 21.5848 23.2949 21.7341Z" fill="#F38BA8"/>
</g>
<defs>
<filter id="filter0_d_2_854" x="-2.33765" y="0.939697" width="40.1566" height="40.1565" filterUnits="userSpaceOnUse" color-interpolation-filters="sRGB">
<feFlood flood-opacity="0" result="BackgroundImageFix"/>
<feColorMatrix in="SourceAlpha" type="matrix" values="0 0 0 0 0 0 0 0 0 0 0 0 0 0 0 0 0 0 127 0" result="hardAlpha"/>
<feOffset dy="4"/>
<feGaussianBlur stdDeviation="2"/>
<feComposite in2="hardAlpha" operator="out"/>
<feColorMatrix type="matrix" values="0 0 0 0 0 0 0 0 0 0 0 0 0 0 0 0 0 0 0.25 0"/>
<feBlend mode="normal" in2="BackgroundImageFix" result="effect1_dropShadow_2_854"/>
<feBlend mode="normal" in="SourceGraphic" in2="effect1_dropShadow_2_854" result="shape"/>
</filter>
</defs>
</svg>
