<svg width="33" height="34" viewBox="0 0 33 34" fill="none" xmlns="http://www.w3.org/2000/svg">
<path fill-rule="evenodd" clip-rule="evenodd" d="M27.7692 21.0385C28.0708 20.1853 28.279 19.288 28.3818 18.3588H15.0568C14.3168 18.3588 13.7169 17.7589 13.7169 17.0189C13.7169 16.2789 14.3168 15.6791 15.0568 15.6791H28.3818C28.279 14.7499 28.0708 13.8526 27.7692 12.9994H17.7365C16.9965 12.9994 16.3966 12.3995 16.3966 11.6595C16.3966 10.9195 16.9965 10.3196 17.7365 10.3196H26.4248C24.2615 7.08794 20.5775 4.96021 16.3966 4.96021C9.73677 4.96021 4.33789 10.3591 4.33789 17.0189C4.33789 23.6788 9.73677 29.0777 16.3966 29.0777C20.5775 29.0777 24.2615 26.95 26.4248 23.7182H12.377C11.6371 23.7182 11.0372 23.1184 11.0372 22.3784C11.0372 21.6384 11.6371 21.0385 12.377 21.0385H27.7692Z" fill="#89B4FA"/>
</svg>
