<svg width="33" height="37" viewBox="0 0 33 37" fill="none" xmlns="http://www.w3.org/2000/svg">
<g filter="url(#filter0_d_2_869)">
<path fill-rule="evenodd" clip-rule="evenodd" d="M19.6246 4.11646L15.8154 10.7141H23.4337L19.6246 4.11646Z" fill="#CBA6F7"/>
<path fill-rule="evenodd" clip-rule="evenodd" d="M15.8145 10.7144L19.6235 4.1167H12.0052L15.8145 10.7144Z" fill="#7F849C"/>
<path fill-rule="evenodd" clip-rule="evenodd" d="M12.0069 4.11646L8.19775 10.7141H15.8161L12.0069 4.11646Z" fill="#7F849C"/>
<path fill-rule="evenodd" clip-rule="evenodd" d="M12.0069 17.2659L8.19775 10.6682H15.8161L12.0069 17.2659Z" fill="#CBA6F7"/>
<path fill-rule="evenodd" clip-rule="evenodd" d="M12.0069 28.2342L15.8161 21.6365H8.19775L12.0069 28.2342Z" fill="#CBA6F7"/>
<path fill-rule="evenodd" clip-rule="evenodd" d="M15.8144 21.6365L12.0052 28.2342H19.6235L15.8144 21.6365Z" fill="#7F849C"/>
<path fill-rule="evenodd" clip-rule="evenodd" d="M19.6246 28.2342L23.4337 21.6365H15.8154L19.6246 28.2342Z" fill="#7F849C"/>
<path fill-rule="evenodd" clip-rule="evenodd" d="M19.6246 15.0857L23.4337 21.6834H15.8154L19.6246 15.0857Z" fill="#CBA6F7"/>
</g>
<defs>
<filter id="filter0_d_2_869" x="-3.84338" y="0.0961914" width="40.1566" height="40.1565" filterUnits="userSpaceOnUse" color-interpolation-filters="sRGB">
<feFlood flood-opacity="0" result="BackgroundImageFix"/>
<feColorMatrix in="SourceAlpha" type="matrix" values="0 0 0 0 0 0 0 0 0 0 0 0 0 0 0 0 0 0 127 0" result="hardAlpha"/>
<feOffset dy="4"/>
<feGaussianBlur stdDeviation="2"/>
<feComposite in2="hardAlpha" operator="out"/>
<feColorMatrix type="matrix" values="0 0 0 0 0 0 0 0 0 0 0 0 0 0 0 0 0 0 0.25 0"/>
<feBlend mode="normal" in2="BackgroundImageFix" result="effect1_dropShadow_2_869"/>
<feBlend mode="normal" in="SourceGraphic" in2="effect1_dropShadow_2_869" result="shape"/>
</filter>
</defs>
</svg>
