<svg width="33" height="37" viewBox="0 0 33 37" fill="none" xmlns="http://www.w3.org/2000/svg">
<g filter="url(#filter0_d_2_878)">
<mask id="mask0_2_878" style="mask-type:alpha" maskUnits="userSpaceOnUse" x="6" y="4" width="21" height="25">
<path d="M7.45978 26.3418L6.71266 6.43476C6.68799 5.7773 7.1921 5.22012 7.84874 5.17908L24.7811 4.12081C25.4495 4.07905 26.0251 4.587 26.0669 5.25537C26.0685 5.28056 26.0693 5.30578 26.0693 5.33101V27.0233C26.0693 27.6929 25.5264 28.2359 24.8568 28.2359C24.8385 28.2359 24.8205 28.2355 24.8024 28.2347L8.61708 27.5076C7.98673 27.4794 7.48344 26.9724 7.45978 26.3418Z" fill="#F38BA8"/>
</mask>
<g mask="url(#mask0_2_878)">
<path fill-rule="evenodd" clip-rule="evenodd" d="M6.71266 6.43476L7.45978 26.3418C7.48344 26.9724 7.98673 27.4794 8.61708 27.5076L24.8024 28.2347C24.8205 28.2355 24.8385 28.2359 24.8568 28.2359C25.5264 28.2359 26.0693 27.6929 26.0693 27.0233V5.33101C26.0693 5.30578 26.0685 5.28056 26.0669 5.25537C26.0251 4.587 25.4495 4.07905 24.7811 4.12081L23.4498 4.20401L23.5471 6.9871C23.5505 7.08693 23.4724 7.17069 23.3726 7.17419C23.3299 7.17567 23.2879 7.16197 23.2543 7.1355L22.3575 6.42909L21.296 7.23445C21.2164 7.29483 21.1029 7.27924 21.0425 7.19966C21.017 7.16616 21.0041 7.12485 21.0059 7.08283L21.1195 4.34967L7.84874 5.17908C7.1921 5.22012 6.68799 5.7773 6.71266 6.43476ZM18.0321 13.2086C18.0321 13.6803 21.2097 13.4543 21.6363 13.1229C21.6363 9.91032 19.9126 8.22218 16.756 8.22218C13.5994 8.22218 11.8309 9.93658 11.8309 12.5082C11.8309 15.0845 13.8307 16.2071 15.5297 17.1611C16.7845 17.8656 17.8753 18.4781 17.8753 19.5159C17.8753 20.2017 17.5395 20.6088 16.8007 20.6088C15.838 20.6088 15.4575 20.1173 15.5023 18.4456C15.5023 18.0831 11.8309 17.97 11.7189 18.4456C11.4339 22.4964 13.9576 23.6648 16.8455 23.6648C19.6439 23.6648 21.8378 22.1733 21.8378 19.4731C21.8378 16.6559 19.7251 15.5363 17.9795 14.6112C16.7506 13.9599 15.7038 13.4052 15.7038 12.4225C15.7038 11.4581 16.4202 11.3296 16.8455 11.3296C17.2933 11.3296 18.0992 11.4085 18.0321 13.2086Z" fill="#F38BA8"/>
</g>
</g>
<defs>
<filter id="filter0_d_2_878" x="-3.68677" y="0.0961914" width="40.1566" height="40.1565" filterUnits="userSpaceOnUse" color-interpolation-filters="sRGB">
<feFlood flood-opacity="0" result="BackgroundImageFix"/>
<feColorMatrix in="SourceAlpha" type="matrix" values="0 0 0 0 0 0 0 0 0 0 0 0 0 0 0 0 0 0 127 0" result="hardAlpha"/>
<feOffset dy="4"/>
<feGaussianBlur stdDeviation="2"/>
<feComposite in2="hardAlpha" operator="out"/>
<feColorMatrix type="matrix" values="0 0 0 0 0 0 0 0 0 0 0 0 0 0 0 0 0 0 0.25 0"/>
<feBlend mode="normal" in2="BackgroundImageFix" result="effect1_dropShadow_2_878"/>
<feBlend mode="normal" in="SourceGraphic" in2="effect1_dropShadow_2_878" result="shape"/>
</filter>
</defs>
</svg>
