<svg width="33" height="33" viewBox="0 0 33 33" fill="none" xmlns="http://www.w3.org/2000/svg">
<path d="M19.6923 24.4451C21.8577 21.855 22.1125 19.1801 20.4353 14.2124C19.3739 11.0705 17.6117 8.65027 18.9068 6.69716C20.2868 4.61669 23.2163 6.63355 20.7749 9.41455L21.2632 9.75418C24.1929 10.0939 25.6366 6.08137 23.4498 4.93502C17.6755 1.92044 12.6228 7.71616 14.8518 14.4247C15.8073 17.2694 17.1447 20.2841 16.062 22.6831C15.1278 24.7424 13.3233 25.9525 12.1133 25.995C9.58702 26.1224 11.2643 20.3267 14.1727 18.883C14.4274 18.7559 14.7883 18.5859 14.4487 18.1613C10.8609 17.758 8.75914 19.4138 7.54902 21.728C4.02487 28.4578 14.2363 30.9415 19.6923 24.4451Z" fill="#94E2D5"/>
</svg>
