<svg width="34" height="33" viewBox="0 0 34 33" fill="none" xmlns="http://www.w3.org/2000/svg">
<path fill-rule="evenodd" clip-rule="evenodd" d="M17.7152 28.1708C20.4622 18.2871 20.3827 18.2429 22.3673 11.197L22.8443 11.4743C23.104 11.6245 23.3161 11.5008 23.3161 11.2005V7.84142C23.8425 5.98476 24.2558 4.55032 24.3759 4.11841H26.5268L30.0996 7.45013L27.7535 9.49049L29.529 11.4213L17.8327 28.1708C17.7752 28.2654 17.6958 28.2443 17.7135 28.1708H17.7152Z" fill="#CBA6F7"/>
<path fill-rule="evenodd" clip-rule="evenodd" d="M18.9925 6.87052C19.0984 6.87052 19.1842 6.92882 19.1842 7.00302V8.72541C19.1842 8.79607 19.1047 8.85612 18.9986 8.85612H16.1104C16.0044 8.85612 15.916 8.79696 15.916 8.72364V7.00125C15.916 6.92882 16.0044 6.87052 16.1104 6.87052H18.9986H18.9925ZM22.5574 4.96264L19.3794 6.8087C19.4165 6.86611 19.4385 6.93236 19.4385 7.00302V8.72541C19.4385 8.81373 19.4033 8.89322 19.3414 8.95947L22.5476 10.8232C22.7596 10.9513 22.9452 10.847 22.9452 10.5935V5.19495C22.9452 4.94056 22.7596 4.83633 22.5476 4.96353L22.5574 4.96264ZM15.6563 8.72541V7.00302C15.6563 6.93236 15.6784 6.86611 15.7146 6.8087L12.5366 4.96264C12.3185 4.83633 12.1392 4.94056 12.1392 5.19406V10.5909C12.1392 10.847 12.3176 10.9442 12.5366 10.8205L15.7473 8.95683C15.69 8.88616 15.6555 8.80667 15.6555 8.71833L15.6563 8.72541Z" fill="#CBA6F7"/>
<path fill-rule="evenodd" clip-rule="evenodd" d="M17.2549 28.1709H17.3733C14.6263 18.287 14.7057 18.243 12.7219 11.197L12.245 11.4744C11.9853 11.6245 11.7724 11.5009 11.7724 11.2006V7.84148C11.2433 5.98394 10.8282 4.5495 10.7045 4.1167H8.55818L4.98975 7.4493L7.33485 9.48967L5.55945 11.4205L17.254 28.1674L17.2549 28.1709Z" fill="#CBA6F7"/>
<path d="M17.457 12.4507C17.936 12.4507 18.3243 12.06 18.3243 11.578C18.3243 11.096 17.936 10.7053 17.457 10.7053C16.978 10.7053 16.5896 11.096 16.5896 11.578C16.5896 12.06 16.978 12.4507 17.457 12.4507Z" fill="#CBA6F7"/>
<path d="M17.4568 17.642C17.9358 17.642 18.3241 17.2513 18.3241 16.7694C18.3241 16.2874 17.9358 15.8967 17.4568 15.8967C16.9778 15.8967 16.5894 16.2874 16.5894 16.7694C16.5894 17.2513 16.9778 17.642 17.4568 17.642Z" fill="#CBA6F7"/>
<path d="M17.4568 22.8316C17.9358 22.8316 18.3241 22.4408 18.3241 21.9588C18.3241 21.4769 17.9358 21.0862 17.4568 21.0862C16.9778 21.0862 16.5894 21.4769 16.5894 21.9588C16.5894 22.4408 16.9778 22.8316 17.4568 22.8316Z" fill="#CBA6F7"/>
</svg>
