<svg width="41" height="40" viewBox="0 0 41 40" fill="none" xmlns="http://www.w3.org/2000/svg">
<g clip-path="url(#clip0_2_893)" filter="url(#filter0_d_2_893)">
<path d="M23.5794 31.4797C22.7357 32.5047 21.0224 31.946 21.0018 30.6369L20.7059 11.4971H34.0458C36.4627 11.4971 37.8094 14.1929 36.307 16.0124L23.5794 31.4797Z" fill="url(#paint0_linear_2_893)"/>
<path d="M23.5794 31.4797C22.7357 32.5047 21.0224 31.946 21.0018 30.6369L20.7059 11.4971H34.0458C36.4627 11.4971 37.8094 14.1929 36.307 16.0124L23.5794 31.4797Z" fill="url(#paint1_linear_2_893)"/>
<path d="M18.1543 0.688458C18.998 -0.336534 20.7062 0.223527 20.7268 1.53257L20.8567 20.6711H7.68278C5.26589 20.6711 3.91917 17.9767 5.42153 16.1558L18.1543 0.688458Z" fill="#A6E3A1"/>
</g>
<defs>
<filter id="filter0_d_2_893" x="0.782959" y="0.0961914" width="40.1566" height="40.1565" filterUnits="userSpaceOnUse" color-interpolation-filters="sRGB">
<feFlood flood-opacity="0" result="BackgroundImageFix"/>
<feColorMatrix in="SourceAlpha" type="matrix" values="0 0 0 0 0 0 0 0 0 0 0 0 0 0 0 0 0 0 127 0" result="hardAlpha"/>
<feOffset dy="4"/>
<feGaussianBlur stdDeviation="2"/>
<feComposite in2="hardAlpha" operator="out"/>
<feColorMatrix type="matrix" values="0 0 0 0 0 0 0 0 0 0 0 0 0 0 0 0 0 0 0.25 0"/>
<feBlend mode="normal" in2="BackgroundImageFix" result="effect1_dropShadow_2_893"/>
<feBlend mode="normal" in="SourceGraphic" in2="effect1_dropShadow_2_893" result="shape"/>
</filter>
<linearGradient id="paint0_linear_2_893" x1="20.7065" y1="15.7416" x2="32.4319" y2="20.8397" gradientUnits="userSpaceOnUse">
<stop stop-color="#94E2D5"/>
<stop offset="1" stop-color="#A6E3A1"/>
</linearGradient>
<linearGradient id="paint1_linear_2_893" x1="15.4499" y1="8.79921" x2="20.5591" y2="18.7705" gradientUnits="userSpaceOnUse">
<stop stop-opacity="0.2"/>
<stop offset="1" stop-opacity="0"/>
</linearGradient>
<clipPath id="clip0_2_893">
<rect width="32.1566" height="32.1566" fill="white" transform="translate(4.78296 0.0961914)"/>
</clipPath>
</defs>
</svg>
