<svg width="33" height="33" viewBox="0 0 33 33" fill="none" xmlns="http://www.w3.org/2000/svg">
<mask id="mask0_2_897" style="mask-type:luminance" maskUnits="userSpaceOnUse" x="5" y="2" width="23" height="28">
<path d="M27.6326 2.7749H5.76611V29.5721H27.6326V2.7749Z" fill="#CDD6F4"/>
<path d="M14.4798 26.7261C13.5031 26.9906 12.4722 26.9365 11.526 26.5711C10.5798 26.2059 9.76411 25.5468 9.18893 24.6833C8.83591 24.1684 8.58513 23.5854 8.45128 22.9682C8.31743 22.3511 8.30322 21.7124 8.40946 21.0895C8.44542 20.885 8.49495 20.6834 8.55769 20.486L8.67451 20.1142L8.99263 20.3574C9.72662 20.9195 10.5474 21.347 11.4195 21.6213L11.6501 21.6942L11.6289 21.9341C11.6009 22.275 11.6896 22.6152 11.8794 22.8946C12.0526 23.1549 12.2984 23.3536 12.5835 23.4637C12.8686 23.5739 13.1793 23.5902 13.4735 23.5103C13.6082 23.4731 13.7366 23.4145 13.8543 23.337L20.06 19.2162C20.2119 19.1167 20.3421 18.9852 20.4425 18.8302C20.543 18.6753 20.6113 18.5003 20.6432 18.3164C20.675 18.1285 20.6706 17.936 20.6302 17.75C20.5898 17.5641 20.5143 17.3883 20.4081 17.233C20.2348 16.9726 19.9891 16.7739 19.704 16.6638C19.4189 16.5535 19.1083 16.5371 18.8139 16.6166C18.6793 16.6539 18.5509 16.7124 18.4333 16.7902L16.0651 18.3626C15.6754 18.6205 15.2501 18.8149 14.8041 18.9392C13.8274 19.2036 12.7964 19.1495 11.8503 18.7843C10.9041 18.4189 10.0884 17.7598 9.51322 16.8961C9.16011 16.3814 8.90925 15.7984 8.77535 15.1813C8.64147 14.5641 8.62724 13.9254 8.73353 13.3025C8.83899 12.6917 9.06565 12.1106 9.39903 11.5964C9.7324 11.0821 10.1651 10.646 10.6696 10.3159L16.876 6.196C17.2656 5.93773 17.6908 5.74308 18.137 5.61878C19.1137 5.35434 20.1446 5.40845 21.0908 5.7738C22.037 6.13914 22.8527 6.79812 23.4278 7.66175C23.7809 8.17657 24.0317 8.75962 24.1656 9.37672C24.2995 9.99383 24.3138 10.6326 24.2076 11.2555C24.1713 11.4599 24.1218 11.6616 24.0591 11.859L23.9423 12.2308L23.6244 11.9881C22.8904 11.4259 22.0697 10.9984 21.1976 10.7241L20.9667 10.6513L20.9882 10.4113C21.0161 10.0702 20.9275 9.72984 20.7379 9.4502C20.5646 9.18988 20.3188 8.99122 20.0338 8.88107C19.7487 8.77092 19.438 8.7546 19.1437 8.8343C19.0091 8.87161 18.8806 8.9301 18.7631 9.0078L12.5556 13.1287C12.4038 13.2282 12.2735 13.3596 12.1732 13.5145C12.0729 13.6695 12.0047 13.8445 11.9729 14.0284C11.941 14.2162 11.9452 14.4087 11.9855 14.5948C12.0258 14.7808 12.1013 14.9567 12.2075 15.112C12.3808 15.3723 12.6265 15.5709 12.9116 15.6812C13.1967 15.7914 13.5074 15.8079 13.8017 15.7283C13.9363 15.6909 14.0646 15.6325 14.1824 15.5548L16.5503 13.983C16.9398 13.7247 17.3651 13.53 17.8112 13.406C18.7879 13.1416 19.8188 13.1957 20.765 13.5611C21.711 13.9263 22.5268 14.5854 23.1019 15.449C23.455 15.9637 23.7059 16.5468 23.8398 17.164C23.9737 17.7811 23.9879 18.4198 23.8816 19.0427C23.7764 19.6534 23.5499 20.2347 23.2169 20.749C22.8839 21.2634 22.4514 21.6998 21.9472 22.0303L15.7408 26.1489C15.3512 26.4073 14.926 26.6019 14.4798 26.7261Z" fill="#11111B"/>
</mask>
<g mask="url(#mask0_2_897)">
<path d="M9.18797 24.6845L11.3016 23.1569C11.2949 23.1469 11.2882 23.1368 11.2813 23.1269L9.18797 24.6845ZM8.4085 21.0907L5.87804 20.6079L5.87564 20.6219L8.4085 21.0907ZM8.55673 20.4873L10.9988 21.3296L11.0016 21.3208L8.55673 20.4873ZM8.67355 20.1155L10.1954 17.9549C9.53055 17.4467 8.67213 17.3015 7.88701 17.5641C7.10188 17.8267 6.4852 18.4654 6.22867 19.2818L8.67355 20.1155ZM8.99167 20.3586L10.5156 18.1996L10.5135 18.1981L8.99167 20.3586ZM11.4186 21.6225L12.1654 19.0583L12.1623 19.0572L11.4186 21.6225ZM11.6491 21.6954L14.2108 21.9407C14.3227 20.6743 13.5644 19.5005 12.396 19.1312L11.6491 21.6954ZM11.6279 21.9354L9.06616 21.6901L9.06478 21.7069L11.6279 21.9354ZM11.8785 22.8958L13.993 21.3696C13.988 21.3621 13.9831 21.3547 13.9781 21.3475L11.8785 22.8958ZM13.4726 23.5116L14.1203 26.105L14.1337 26.1014L13.4726 23.5116ZM13.8533 23.3382L15.2305 25.6015L15.2361 25.5978L13.8533 23.3382ZM20.059 19.2175L18.6885 16.9496L18.6762 16.9578L20.059 19.2175ZM20.6422 18.3176L23.1738 18.7936L23.1755 18.7835L20.6422 18.3176ZM20.4071 17.2342L18.2927 18.7607C18.2993 18.7705 18.3059 18.7802 18.3124 18.7899L20.4071 17.2342ZM18.8129 16.6179L18.1669 14.0239L18.1514 14.0282L18.8129 16.6179ZM18.4323 16.7914L17.0555 14.5277L17.0494 14.5317L18.4323 16.7914ZM16.0642 18.3639L17.4437 20.6258L17.447 20.6235L16.0642 18.3639ZM14.8031 18.9404L15.4503 21.534L15.4673 21.5293L14.8031 18.9404ZM9.51226 16.8974L11.626 15.3701C11.6192 15.3598 11.6123 15.3496 11.6054 15.3395L9.51226 16.8974ZM8.73256 13.3037L6.20066 12.8293L6.19972 12.8348L8.73256 13.3037ZM10.6686 10.3172L12.0371 12.5863L12.0511 12.577L10.6686 10.3172ZM16.875 6.19725L15.4938 3.93648L15.4925 3.93741L16.875 6.19725ZM18.1361 5.62003L17.4888 3.02644L17.4713 3.0313L18.1361 5.62003ZM23.4269 7.663L21.3133 9.19047C21.32 9.2006 21.3268 9.21066 21.3336 9.22068L23.4269 7.663ZM24.2066 11.2567L26.7364 11.7436L26.7395 11.7253L24.2066 11.2567ZM24.0582 11.8602L21.6154 11.0198L21.6132 11.0266L24.0582 11.8602ZM23.9414 12.232L22.4207 14.3935C23.0856 14.901 23.9438 15.046 24.7286 14.7831C25.5134 14.5203 26.1297 13.8818 26.3862 13.0657L23.9414 12.232ZM23.6234 11.9894L22.0993 14.1481L22.1029 14.1508L23.6234 11.9894ZM21.1966 10.7254L20.4503 13.2899L20.453 13.2907L21.1966 10.7254ZM20.9657 10.6525L18.4043 10.4044C18.2912 11.6721 19.0498 12.8477 20.2196 13.217L20.9657 10.6525ZM20.9872 10.4126L23.5487 10.6607C23.5493 10.6539 23.5498 10.6471 23.5503 10.6404L20.9872 10.4126ZM20.7369 9.45145L18.6225 10.9779C18.6268 10.9844 18.6311 10.9909 18.6355 10.9973L20.7369 9.45145ZM19.1427 8.83555L18.4953 6.24204L18.4816 6.24585L19.1427 8.83555ZM18.7621 9.00905L17.3849 6.74567L17.3795 6.74926L18.7621 9.00905ZM12.5547 13.13L13.9246 15.3982L13.9373 15.3898L12.5547 13.13ZM11.972 14.0297L9.43998 13.5558L9.43902 13.5615L11.972 14.0297ZM12.2066 15.1132L14.3207 13.5865C14.3143 13.577 14.308 13.5674 14.3015 13.5579L12.2066 15.1132ZM13.8007 15.7296L14.4465 18.3235L14.4635 18.3188L13.8007 15.7296ZM14.1814 15.5561L15.5571 17.8204L15.5639 17.816L14.1814 15.5561ZM17.8103 13.4073L17.163 10.8137L17.1471 10.8182L17.8103 13.4073ZM23.1009 15.4502L20.9872 16.9776C20.994 16.9878 21.0008 16.998 21.0078 17.0082L23.1009 15.4502ZM23.8806 19.044L26.4127 19.5175L26.4134 19.5129L23.8806 19.044ZM21.9462 22.0316L20.5761 19.7635L20.564 19.7715L21.9462 22.0316ZM13.8316 24.134C13.3647 24.2603 12.8716 24.2345 12.4192 24.0597L10.6309 29.085C12.0708 29.641 13.6398 29.7234 15.126 29.321L13.8316 24.134ZM12.4192 24.0597C11.9668 23.885 11.5767 23.57 11.3016 23.1569L7.07427 26.2119C7.94959 27.5262 9.19101 28.5291 10.6309 29.085L12.4192 24.0597ZM11.2813 23.1269C11.1274 22.9024 11.018 22.6481 10.9596 22.3789L5.94104 23.56C6.15035 24.5251 6.54253 25.4368 7.09458 26.242L11.2813 23.1269ZM10.9596 22.3789C10.9012 22.1097 10.895 21.8311 10.9414 21.5594L5.87564 20.6219C5.7095 21.5961 5.73172 22.595 5.94104 23.56L10.9596 22.3789ZM10.9389 21.5735C10.9535 21.4908 10.9735 21.4094 10.9988 21.3296L6.11463 19.6448C6.01449 19.9598 5.93542 20.2816 5.87804 20.6079L10.9389 21.5735ZM11.0016 21.3208L11.1184 20.9491L6.22867 19.2818L6.11185 19.6536L11.0016 21.3208ZM7.15172 22.276L7.46983 22.5192L10.5135 18.1981L10.1954 17.9549L7.15172 22.276ZM7.46777 22.5176C8.43771 23.2604 9.52232 23.8253 10.6748 24.1878L12.1623 19.0572C11.5705 18.8711 11.0136 18.5811 10.5156 18.1996L7.46777 22.5176ZM10.6717 24.1869L10.9022 24.2598L12.396 19.1312L12.1654 19.0583L10.6717 24.1869ZM9.08739 21.4501L9.06616 21.6901L14.1897 22.1807L14.2108 21.9407L9.08739 21.4501ZM9.06478 21.7069C8.98495 22.6785 9.23792 23.6483 9.77885 24.4441L13.9781 21.3475C14.1395 21.5847 14.2149 21.874 14.1911 22.1638L9.06478 21.7069ZM9.76398 24.422C10.2372 25.1335 10.9088 25.6764 11.6879 25.9775L13.4771 20.9525C13.686 21.0331 13.8661 21.1788 13.993 21.3696L9.76398 24.422ZM11.6879 25.9775C12.467 26.2784 13.3162 26.323 14.1203 26.105L12.8249 20.9183C13.0406 20.8599 13.2682 20.8718 13.4771 20.9525L11.6879 25.9775ZM14.1337 26.1014C14.5217 25.994 14.8915 25.8254 15.2305 25.6015L12.4761 21.0748C12.5798 21.0063 12.6929 20.9547 12.8115 20.9219L14.1337 26.1014ZM15.2361 25.5978L21.4418 21.4772L18.6762 16.9578L12.4705 21.0785L15.2361 25.5978ZM21.4294 21.4853C21.8837 21.1875 22.2735 20.7942 22.5738 20.3308L18.3093 17.3323C18.4089 17.1786 18.538 17.0484 18.6885 16.9496L21.4294 21.4853ZM22.5738 20.3308C22.8741 19.8673 23.0784 19.3438 23.1738 18.7936L18.1106 17.8417C18.1421 17.6594 18.2099 17.4859 18.3093 17.3323L22.5738 20.3308ZM23.1755 18.7835C23.2667 18.2453 23.2541 17.6935 23.1385 17.1605L18.12 18.3422C18.085 18.181 18.0813 18.0143 18.1088 17.8516L23.1755 18.7835ZM23.1385 17.1605C23.0228 16.6274 22.8064 16.1236 22.5018 15.6787L18.3124 18.7899C18.2203 18.6554 18.155 18.5032 18.12 18.3422L23.1385 17.1605ZM22.5215 15.7077C22.0482 14.9967 21.3769 14.4539 20.5982 14.1528L18.8079 19.1772C18.5992 19.0966 18.4194 18.9513 18.2927 18.7607L22.5215 15.7077ZM20.5982 14.1528C19.8195 13.8516 18.9709 13.8066 18.1669 14.0239L19.459 19.2117C19.2437 19.2699 19.0164 19.2578 18.8079 19.1772L20.5982 14.1528ZM18.1514 14.0282C17.7638 14.1357 17.3943 14.3041 17.0555 14.5277L19.8091 19.055C19.7057 19.1233 19.5929 19.1746 19.4746 19.2074L18.1514 14.0282ZM17.0494 14.5317L14.6813 16.1043L17.447 20.6235L19.8152 19.0509L17.0494 14.5317ZM14.6846 16.102C14.516 16.2137 14.3319 16.2978 14.139 16.3515L15.4673 21.5293C16.1664 21.3347 16.8328 21.03 17.4437 20.6258L14.6846 16.102ZM14.1559 16.347C13.6889 16.4733 13.1959 16.4475 12.7435 16.2727L10.9552 21.2982C12.3951 21.8541 13.9641 21.9365 15.4503 21.534L14.1559 16.347ZM12.7435 16.2727C12.2911 16.0982 11.901 15.783 11.626 15.3701L7.39853 18.4248C8.27382 19.7392 9.51525 20.7421 10.9552 21.2982L12.7435 16.2727ZM11.6054 15.3395C11.4514 15.1151 11.342 14.8608 11.2836 14.5918L6.26515 15.7732C6.47455 16.7383 6.86689 17.6503 7.41916 18.4554L11.6054 15.3395ZM11.2836 14.5918C11.2253 14.3227 11.2191 14.0442 11.2654 13.7726L6.19972 12.8348C6.03351 13.809 6.05574 14.808 6.26515 15.7732L11.2836 14.5918ZM11.2645 13.7781C11.3065 13.5343 11.397 13.3025 11.53 13.0973L7.26609 10.098C6.73238 10.9213 6.36949 11.8516 6.20066 12.8293L11.2645 13.7781ZM11.53 13.0973C11.6631 12.8921 11.8358 12.7181 12.0371 12.5863L9.30015 8.04805C8.49258 8.57651 7.7998 9.27471 7.26609 10.098L11.53 13.0973ZM12.0511 12.577L18.2575 8.45711L15.4925 3.93741L9.28608 8.05732L12.0511 12.577ZM18.2562 8.45803C18.4244 8.34649 18.608 8.26243 18.8007 8.20875L17.4713 3.0313C16.7717 3.22621 16.1049 3.53147 15.4938 3.93648L18.2562 8.45803ZM18.7832 8.21356C19.2502 8.08711 19.7433 8.11298 20.1956 8.28769L21.9839 3.2624C20.5441 2.70641 18.9751 2.62401 17.4888 3.02644L18.7832 8.21356ZM20.1956 8.28769C20.6481 8.46239 21.0381 8.7775 21.3133 9.19047L25.5406 6.13555C24.6653 4.82124 23.4239 3.81839 21.9839 3.2624L20.1956 8.28769ZM21.3336 9.22068C21.4877 9.44522 21.597 9.69953 21.6554 9.9687L26.6739 8.78725C26.4645 7.82221 26.0723 6.9104 25.5201 6.10534L21.3336 9.22068ZM21.6554 9.9687C21.7138 10.2379 21.72 10.5165 21.6737 10.7881L26.7395 11.7253C26.9056 10.7512 26.8833 9.75231 26.6739 8.78725L21.6554 9.9687ZM21.6769 10.7699C21.6618 10.8545 21.6414 10.938 21.6154 11.0198L26.5009 12.7007C26.6002 12.3876 26.6789 12.0679 26.7364 11.7436L21.6769 10.7699ZM21.6132 11.0266L21.4964 11.3984L26.3862 13.0657L26.503 12.6939L21.6132 11.0266ZM25.4619 10.0705L25.144 9.82788L22.1029 14.1508L22.4207 14.3935L25.4619 10.0705ZM25.1475 9.83057C24.1775 9.0875 23.0927 8.52252 21.9401 8.16001L20.453 13.2907C21.0447 13.4768 21.6015 13.7668 22.0993 14.1481L25.1475 9.83057ZM21.9428 8.16085L21.7119 8.08799L20.2196 13.217L20.4503 13.2899L21.9428 8.16085ZM23.5272 10.9006L23.5487 10.6607L18.4257 10.1645L18.4043 10.4044L23.5272 10.9006ZM23.5503 10.6404C23.6298 9.66984 23.3776 8.70123 22.8381 7.90557L18.6355 10.9973C18.4753 10.7609 18.4004 10.4732 18.4239 10.1848L23.5503 10.6404ZM22.8513 7.92497C22.3779 7.21364 21.7063 6.67081 20.9274 6.36985L19.1382 11.3948C18.9294 11.3141 18.7494 11.1686 18.6225 10.9779L22.8513 7.92497ZM20.9274 6.36985C20.1484 6.06888 19.2995 6.02425 18.4953 6.24204L19.7901 11.429C19.5746 11.4874 19.347 11.4755 19.1382 11.3948L20.9274 6.36985ZM18.4816 6.24585C18.0937 6.35329 17.7238 6.52185 17.3849 6.74567L20.1393 11.2724C20.0356 11.3409 19.9224 11.3924 19.8038 11.4253L18.4816 6.24585ZM17.3795 6.74926L11.1721 10.8702L13.9373 15.3898L20.1447 11.2688L17.3795 6.74926ZM11.1849 10.8617C10.7301 11.1597 10.3401 11.5532 10.0397 12.0171L14.3048 15.0145C14.205 15.1686 14.0756 15.2992 13.9246 15.3982L11.1849 10.8617ZM10.0397 12.0171C9.73922 12.481 9.53497 13.005 9.43998 13.5558L14.5039 14.5035C14.4724 14.6864 14.4046 14.8604 14.3048 15.0145L10.0397 12.0171ZM9.43902 13.5615C9.34729 14.1 9.35955 14.6521 9.47505 15.1856L14.494 14.0065C14.529 14.1678 14.5327 14.3349 14.5049 14.4977L9.43902 13.5615ZM9.47505 15.1856C9.59055 15.719 9.80698 16.2232 10.1117 16.6685L14.3015 13.5579C14.3937 13.6926 14.4592 13.8451 14.494 14.0065L9.47505 15.1856ZM10.0924 16.64C10.5656 17.3509 11.2368 17.8936 12.0154 18.1946L13.8059 13.1702C14.0144 13.2508 14.1941 13.3961 14.3207 13.5865L10.0924 16.64ZM12.0154 18.1946C12.794 18.4957 13.6426 18.5407 14.4465 18.3235L13.1549 13.1357C13.3702 13.0775 13.5974 13.0896 13.8059 13.1702L12.0154 18.1946ZM14.4635 18.3188C14.8502 18.2114 15.2189 18.0434 15.5571 17.8204L12.8057 13.2918C12.9084 13.224 13.0205 13.173 13.138 13.1403L14.4635 18.3188ZM15.5639 17.816L17.9318 16.2441L15.1676 11.7239L12.7989 13.2962L15.5639 17.816ZM17.9318 16.2441C18.0995 16.1329 18.2815 16.0498 18.4736 15.9965L17.1471 10.8182C16.4467 11.0128 15.7791 11.3183 15.1676 11.7239L17.9318 16.2441ZM18.4576 16.0008C18.9245 15.8744 19.4174 15.9003 19.8698 16.0748L21.6582 11.0497C20.2183 10.4937 18.6493 10.4113 17.163 10.8137L18.4576 16.0008ZM19.8698 16.0748C20.3222 16.2496 20.7122 16.5647 20.9872 16.9776L25.2148 13.9229C24.3395 12.6086 23.0981 11.6057 21.6582 11.0497L19.8698 16.0748ZM21.0078 17.0082C21.1617 17.2326 21.2712 17.4869 21.3296 17.756L26.3481 16.5745C26.1387 15.6094 25.7462 14.6975 25.1941 13.8924L21.0078 17.0082ZM21.3296 17.756C21.388 18.025 21.3942 18.3036 21.3477 18.5752L26.4134 19.5129C26.5797 18.5387 26.5575 17.5397 26.3481 16.5745L21.3296 17.756ZM21.3486 18.5705C21.3066 18.8143 21.2162 19.0464 21.0832 19.2519L25.3487 22.2486C25.8818 21.4253 26.2442 20.495 26.4127 19.5175L21.3486 18.5705ZM21.0832 19.2519C20.9502 19.4573 20.7774 19.6315 20.5761 19.7635L23.3164 24.2996C24.1234 23.7706 24.8155 23.0721 25.3487 22.2486L21.0832 19.2519ZM20.564 19.7715L14.3577 23.8901L17.1212 28.4108L23.3285 24.2915L20.564 19.7715ZM14.3577 23.8901C14.1897 24.0016 14.0069 24.0851 13.8145 24.1386L15.1432 29.3163C15.843 29.1213 16.5101 28.816 17.1212 28.4108L14.3577 23.8901Z" fill="#FAB387"/>
</g>
</svg>
