<svg width="33" height="33" viewBox="0 0 33 33" fill="none" xmlns="http://www.w3.org/2000/svg">
<path d="M5.28421 11.5985C5.2822 11.6012 5.22124 11.6079 5.14955 11.6166C5.07988 11.6233 4.99882 11.6346 4.96934 11.6413C4.94255 11.648 4.89565 11.6574 4.86417 11.6614C4.78779 11.6728 4.61696 11.7204 4.56069 11.7452C4.5359 11.7539 4.45283 11.7874 4.37378 11.8189C3.97852 11.9763 3.57388 12.2952 3.29318 12.675C3.23021 12.7608 3.16924 12.8419 3.16054 12.8553C3.05938 12.9879 2.84567 13.5091 2.80547 13.7201C2.73312 14.096 2.72441 14.5113 2.7827 14.788C2.87984 15.2509 3.01851 15.5611 3.28648 15.9182C3.35347 16.0079 3.83716 16.5117 4.36306 17.0356C5.0484 17.721 5.32709 18.0177 5.35857 18.0847C5.46844 18.3272 5.35388 18.622 5.10199 18.7346C5.02361 18.7681 4.94255 18.7748 4.50642 18.7768C4.23041 18.7768 3.95574 18.7882 3.90014 18.7995C3.40975 18.9054 3.05 19.3341 3.03459 19.8353C3.02119 20.2265 3.19872 20.5728 3.529 20.802C3.75342 20.9547 3.91555 20.9842 4.58279 20.9842C5.07988 20.9842 5.25942 20.9708 5.47045 20.9232C5.50194 20.9165 5.5562 20.9051 5.59238 20.8984C5.79671 20.8629 6.38557 20.5883 6.48204 20.4851C6.48874 20.4784 6.53162 20.4449 6.57851 20.4107C6.72724 20.2988 6.95434 20.065 7.09101 19.8781C7.3429 19.5345 7.54522 19.0199 7.59681 18.5972C7.61489 18.4398 7.6169 18.0378 7.59882 17.9454C7.59212 17.9139 7.57671 17.8261 7.56063 17.7478C7.49565 17.3833 7.28864 16.9365 7.05081 16.635C6.98114 16.5452 6.49544 16.0461 5.97424 15.5229C4.93585 14.4825 4.93384 14.4825 4.96063 14.2594C5.00083 13.9137 5.33848 13.7161 5.64597 13.8555C5.71766 13.887 6.53832 14.6956 8.94068 17.0959C10.6986 18.8558 12.1724 20.323 12.2153 20.3591C12.2582 20.3953 12.3727 20.4764 12.4712 20.5414C13.4178 21.1617 14.6378 21.1255 15.5616 20.4556C15.7056 20.3504 15.9883 20.0691 16.1009 19.921L16.1799 19.8152L16.4379 20.0717C16.665 20.2942 16.7259 20.3504 16.8318 20.4355C16.8452 20.4449 16.9189 20.4965 16.9979 20.5481C17.8923 21.1416 19.1511 21.1302 20.0474 20.5166C20.2049 20.4087 20.2565 20.3658 20.4253 20.2044C20.7984 19.8426 21.0858 19.2939 21.187 18.7433C21.2205 18.5724 21.2252 17.9769 21.1957 17.8328C21.189 17.8013 21.1783 17.7411 21.1709 17.6982C21.1126 17.3994 20.913 16.9659 20.6946 16.6732C20.6296 16.5834 20.1533 16.087 19.6361 15.5698C19.1196 15.0533 18.6721 14.5944 18.6426 14.5542C18.5729 14.4577 18.5555 14.2393 18.6044 14.1228C18.6493 14.0149 18.7371 13.9111 18.8268 13.8622C18.8898 13.826 18.9756 13.8213 19.5691 13.8146L20.2384 13.8079L20.2203 13.9271C20.1982 14.0685 20.2002 14.5991 20.2203 14.709C20.2297 14.7518 20.241 14.8168 20.2477 14.855C20.2766 15.0084 20.3576 15.2489 20.4407 15.4264C20.6477 15.8686 20.6209 15.8371 22.9087 18.1323C24.0771 19.3053 25.1155 20.3277 25.2146 20.404C25.5985 20.7028 25.9495 20.8602 26.4278 20.946C26.6349 20.9815 26.9966 20.9929 27.1695 20.9681C27.408 20.9326 27.5339 20.9051 27.6933 20.8535C28.6909 20.532 29.4191 19.6376 29.5296 18.6019C29.5852 18.076 29.4506 17.7096 29.1049 17.4396C28.7565 17.1703 28.2842 17.1408 27.889 17.3632C27.5654 17.5434 27.3564 17.8985 27.3356 18.2937C27.3182 18.6307 27.0596 18.831 26.74 18.7526C26.6349 18.7279 26.5538 18.6488 24.5782 16.6779C23.45 15.5517 22.4994 14.5857 22.4679 14.5341C22.362 14.3566 22.4029 14.0913 22.5577 13.9426C22.6789 13.826 22.7533 13.8106 23.2363 13.8106C23.7783 13.8106 23.9357 13.7791 24.1695 13.619C24.8749 13.1407 24.812 12.1069 24.0523 11.7157C23.8252 11.5985 23.8546 11.6012 21.3263 11.5985C18.8181 11.5985 18.6922 11.6032 18.4048 11.6795C18.3552 11.6909 18.2989 11.707 18.2808 11.709C18.2138 11.7244 17.9506 11.8283 17.8541 11.8772C17.5553 12.0279 17.1527 12.3562 16.9396 12.6215C16.7909 12.8077 16.5933 13.1788 16.5075 13.426C16.2288 14.2393 16.3441 15.0935 16.8244 15.813C16.9396 15.9858 17.1393 16.1995 17.9506 17.0128C18.4925 17.5568 18.9528 18.0311 18.9735 18.0693C19.0539 18.2268 19.0137 18.4713 18.8791 18.6153C18.7665 18.7366 18.6969 18.7634 18.4945 18.7634C18.3485 18.7634 18.2989 18.7547 18.236 18.7138C18.1931 18.687 16.6228 17.1294 14.7416 15.2509C12.1677 12.6777 11.2915 11.8149 11.193 11.7559C10.9498 11.6099 10.6463 11.565 10.3656 11.63C9.97238 11.7224 9.622 12.0889 9.54563 12.4841C9.49137 12.7655 9.55903 13.0891 9.72048 13.3269C9.75465 13.3765 10.8172 14.453 12.0847 15.7205C14.1842 17.8221 14.3906 18.0331 14.4153 18.1256C14.4649 18.3031 14.4381 18.4398 14.3236 18.6019C14.211 18.7567 13.9162 18.815 13.73 18.7185C13.6871 18.6937 12.1925 17.2172 10.4085 15.4372C7.8353 12.864 7.13188 12.1739 6.99253 12.0822C6.52023 11.7673 6.0486 11.6146 5.50931 11.6012C5.38738 11.5985 5.28622 11.5965 5.28421 11.5985Z" fill="url(#paint0_linear_2_918)"/>
<defs>
<linearGradient id="paint0_linear_2_918" x1="2.74451" y1="16.2913" x2="29.5417" y2="16.2913" gradientUnits="userSpaceOnUse">
<stop stop-color="#FAB387"/>
<stop offset="1" stop-color="#F9E2AF"/>
</linearGradient>
</defs>
</svg>
