<svg width="33" height="33" viewBox="0 0 33 33" fill="none" xmlns="http://www.w3.org/2000/svg">
<path d="M22.0221 25.1616C22.0803 25.1318 22.1356 25.098 22.1878 25.0608C22.6607 24.8806 23.1678 24.7449 23.6211 24.7733C24.0288 24.7986 24.4704 24.9482 24.856 25.71L24.8617 25.7209C24.9291 25.8512 25.133 26.2096 25.5818 26.4016C26.1753 26.6556 26.7184 26.4396 27.0183 26.194C27.2631 25.9935 27.3864 25.7574 27.4398 25.6434C27.5048 25.5054 27.5475 25.3696 27.5768 25.2552C27.689 24.8172 27.7166 24.2467 27.6608 23.6375C27.5569 22.5076 27.1449 21.012 26.1115 19.5224C27.2525 14.5022 24.1101 8.93926 19.2905 6.02623C18.7341 5.68998 18.0167 5.80159 17.5888 6.29096C17.1608 6.78033 17.146 7.50625 17.5534 8.01276C18.4196 9.08947 19.0332 10.3468 19.3491 11.6921C19.5789 12.6711 19.6467 13.6786 19.5523 14.6747C16.6794 12.6798 13.999 10.4191 11.5469 7.92188C11.0658 7.43193 10.2921 7.385 9.75534 7.81319C9.38672 8.10722 9.21172 8.55994 9.2583 9.00191C9.1602 8.92973 9.06087 8.85688 8.96027 8.78338C8.44723 8.40851 7.74142 8.44555 7.27043 8.87206C6.79944 9.29858 6.6928 9.99726 7.01512 10.5449C7.36556 11.1403 7.76945 11.7025 8.22175 12.2246C10.2727 14.9611 12.5976 17.4787 15.1591 19.7386C13.4368 20.1431 11.3301 19.9437 9.12741 18.9175L9.11561 18.9122C8.3898 18.5826 7.70639 18.1666 7.08022 17.6732C6.56778 17.2695 5.83907 17.2935 5.35434 17.7302C4.86962 18.1667 4.76977 18.889 5.11789 19.4406C6.75469 22.0347 9.13727 24.0733 11.9528 25.2891C13.522 26.0451 15.2448 26.4283 16.9869 26.4086C18.7393 26.3889 20.463 25.962 22.0221 25.1616Z" stroke="#FAB387" stroke-width="3" stroke-linejoin="round"/>
</svg>
