<svg width="33" height="33" viewBox="0 0 33 33" fill="none" xmlns="http://www.w3.org/2000/svg">
<g filter="url(#filter0_d_2_933)">
<path d="M6.02827 12.2784C5.37158 12.2784 4.83923 11.7461 4.83923 11.0894C4.83923 10.4327 5.37158 9.90038 6.02826 9.90038H14.8544C15.5111 9.90038 16.0435 10.4327 16.0435 11.0894C16.0435 11.7461 15.5111 12.2784 14.8544 12.2784H13.8668C12.7623 12.2784 11.8668 13.1739 11.8668 14.2784V22.1171C11.8668 22.9044 11.2286 23.5426 10.4413 23.5426C9.65405 23.5426 9.01583 22.9044 9.01583 22.1171V14.2784C9.01583 13.1739 8.1204 12.2784 7.01583 12.2784H6.02827ZM26.5918 13.8238C25.8525 13.8238 25.287 13.1719 24.7358 12.6791C24.6939 12.6417 24.6497 12.6058 24.6031 12.5715C24.199 12.274 23.6505 12.1252 22.9578 12.1252C22.4871 12.1252 22.0896 12.1918 21.7655 12.3251C21.4412 12.4539 21.1925 12.6337 21.0194 12.8646C20.8506 13.0955 20.7662 13.3576 20.7662 13.6507C20.7573 13.8949 20.8084 14.1081 20.9195 14.2902C21.035 14.4723 21.1925 14.6298 21.3924 14.763C21.5922 14.8919 21.8232 15.0051 22.0851 15.1028C22.3472 15.1961 22.627 15.276 22.9244 15.3426L24.1501 15.6357C24.7452 15.769 25.2914 15.9465 25.7888 16.1685C26.2861 16.3907 26.7169 16.6637 27.0811 16.988C27.4452 17.3121 27.7273 17.694 27.9271 18.1337C28.1314 18.5733 28.2356 19.0774 28.2402 19.6457C28.2356 20.4806 28.0226 21.2045 27.6007 21.8174C27.1832 22.4257 26.5793 22.8986 25.7888 23.2361C25.0028 23.5692 24.0546 23.7358 22.9444 23.7358C21.8432 23.7358 20.884 23.567 20.0668 23.2294C19.2542 22.8919 18.6191 22.3924 18.1616 21.7307C17.9506 21.4203 17.7863 21.0757 17.6688 20.6968C17.4317 19.9325 18.1074 19.2594 18.9077 19.2594H19.0114C19.703 19.2594 20.2168 19.8528 20.633 20.4052C20.8684 20.7072 21.1814 20.9359 21.5722 21.0913C21.9675 21.2422 22.4138 21.3177 22.9112 21.3177C23.3997 21.3177 23.8237 21.2467 24.1835 21.1046C24.5475 20.9624 24.8296 20.7648 25.0295 20.5117C25.2293 20.2586 25.3292 19.9677 25.3292 19.639C25.3292 19.3327 25.2381 19.0751 25.056 18.8663C24.8785 18.6577 24.6164 18.4801 24.27 18.3335C23.9281 18.1869 23.5085 18.0537 23.0111 17.9338L21.5256 17.5608C20.3755 17.281 19.4673 16.8435 18.8011 16.2485C18.1351 15.6535 17.8042 14.8518 17.8087 13.8439C17.8042 13.0178 18.024 12.2962 18.4681 11.6789C18.9166 11.0617 19.5316 10.5798 20.3133 10.2334C21.0949 9.88706 21.983 9.71387 22.9778 9.71387C23.9903 9.71387 24.8741 9.88706 25.6289 10.2334C26.3884 10.5798 26.979 11.0617 27.4008 11.6789C27.5551 11.9047 27.6821 12.1436 27.7817 12.3955C28.0773 13.1426 27.3952 13.8238 26.5918 13.8238Z" fill="#89B4FA"/>
</g>
<defs>
<filter id="filter0_d_2_933" x="-3.49426" y="0.0961914" width="40.1566" height="40.1565" filterUnits="userSpaceOnUse" color-interpolation-filters="sRGB">
<feFlood flood-opacity="0" result="BackgroundImageFix"/>
<feColorMatrix in="SourceAlpha" type="matrix" values="0 0 0 0 0 0 0 0 0 0 0 0 0 0 0 0 0 0 127 0" result="hardAlpha"/>
<feOffset dy="4"/>
<feGaussianBlur stdDeviation="2"/>
<feComposite in2="hardAlpha" operator="out"/>
<feColorMatrix type="matrix" values="0 0 0 0 0 0 0 0 0 0 0 0 0 0 0 0 0 0 0.25 0"/>
<feBlend mode="normal" in2="BackgroundImageFix" result="effect1_dropShadow_2_933"/>
<feBlend mode="normal" in="SourceGraphic" in2="effect1_dropShadow_2_933" result="shape"/>
</filter>
</defs>
</svg>
