<svg width="33" height="33" viewBox="0 0 33 33" fill="none" xmlns="http://www.w3.org/2000/svg">
<path d="M16.5543 8.13452C12.1215 8.13452 8.51514 11.7409 8.51514 16.1737C8.51514 20.6065 12.1215 24.2128 16.5543 24.2128C20.9871 24.2128 24.5934 20.6065 24.5934 16.1737C24.5934 11.7409 20.9871 8.13452 16.5543 8.13452ZM16.5543 20.3339C14.2563 20.3339 12.394 18.4717 12.394 16.1737C12.394 13.8757 14.2563 12.0134 16.5543 12.0134C18.8523 12.0134 20.7145 13.8757 20.7145 16.1737C20.7145 18.4717 18.8523 20.3339 16.5543 20.3339Z" fill="#F5E0DC"/>
<path fill-rule="evenodd" clip-rule="evenodd" d="M17.2725 6.02438V2.77344C24.3386 3.15124 29.952 9.0013 29.952 16.1614C29.952 23.3216 24.3386 29.1701 17.2725 29.5496V26.2985C22.5388 25.9224 26.7091 21.5219 26.7091 16.1614C26.7091 10.8011 22.5388 6.40055 17.2725 6.02438ZM8.8638 22.8093C7.46776 21.1975 6.56787 19.1449 6.40734 16.8911H3.15479C3.32341 20.0447 4.58487 22.9065 6.56139 25.1101L8.86218 22.8093H8.8638ZM15.8132 29.5496V26.2985C13.5579 26.138 11.5051 25.2398 9.89346 23.8422L7.59266 26.143C9.79779 28.121 12.6596 29.3809 15.8116 29.5496H15.8132Z" fill="url(#paint0_linear_2_940)"/>
<defs>
<linearGradient id="paint0_linear_2_940" x1="17.798" y1="4.6561" x2="4.61905" y2="17.835" gradientUnits="userSpaceOnUse">
<stop stop-color="#74C7EC"/>
<stop offset="1" stop-color="#F38BA8"/>
</linearGradient>
</defs>
</svg>
