<svg width="33" height="33" viewBox="0 0 33 33" fill="none" xmlns="http://www.w3.org/2000/svg">
<path d="M25.4619 3.0489C22.1661 3.00232 19.6375 16.0458 19.7073 21.3906C20.7992 17.7935 22.4625 15.5728 24.2173 15.1876C21.3067 18.2265 20.4572 23.5966 20.7536 28.7146C18.8864 29.1547 17.4755 29.3345 17.0157 28.9714L17.0308 27.0896C17.0884 27.3214 17.1735 27.4721 17.3017 27.4961C17.6329 23.2955 16.6295 19.639 13.041 18.7336C15.3144 18.6132 16.7007 19.6228 17.8135 22.076C17.8879 11.9789 21.2183 2.60041 25.4619 2.77737C26.1227 2.80495 26.7535 3.2437 27.3667 4.06835C26.8274 3.49241 26.0008 3.05649 25.4619 3.0489ZM10.0807 22.9079C9.18879 20.8919 7.38422 19.2498 6.00244 19.1347C8.07519 21.0155 9.69521 24.7113 9.71662 28.6279C9.30869 27.6632 9.3638 27.569 9.15932 27.0415C9.12703 27.9242 9.33811 28.1745 9.33141 29.4839C10.5031 29.6423 11.6074 29.6202 12.5416 29.1416C12.3339 26.1195 12.3598 23.3255 14.9386 23.0207C13.5948 22.9067 12.9701 23.182 12.031 23.8499C11.7286 18.5821 10.7439 13.0475 9.71662 8.25361C9.92942 14.0115 10.0921 19.2913 10.0807 22.9079Z" fill="#A6E3A1"/>
</svg>
