<svg width="33" height="33" viewBox="0 0 33 33" fill="none" xmlns="http://www.w3.org/2000/svg">
<path d="M26.4578 17.3758C26.411 17.3981 26.3642 17.4265 26.3175 17.4551C26.3155 17.158 26.1588 17.0136 26.049 16.857C25.5201 16.1004 24.499 16.3871 24.1979 17.0827C24.1572 17.1784 24.8204 18.0429 24.7919 18.1364C24.3526 18.3338 23.9294 18.7873 23.844 19.184C23.9314 18.7751 23.6264 18.5839 23.1646 18.7365C22.7029 18.889 22.2656 19.3285 22.2025 19.7353C22.2676 19.3285 21.9381 19.1067 21.4662 19.2206C20.9942 19.3345 20.5732 19.7393 20.5305 20.1441C20.5732 19.7393 20.2192 19.4851 19.7433 19.5563C19.2673 19.6274 18.8605 19.9976 18.8401 20.4004C18.8585 19.9956 18.4843 19.7089 18.0042 19.7353C17.5241 19.7617 17.1356 20.0953 17.1397 20.5001C17.1356 20.0973 16.741 19.7718 16.2609 19.7556C15.781 19.7393 15.4108 20.0343 15.4371 20.4391C15.4108 20.0343 14.9958 19.6742 14.5197 19.6132C14.0418 19.5522 13.6939 19.8126 13.7428 20.2173C13.6939 19.8126 13.2627 19.4158 12.7908 19.3121C12.3189 19.2084 11.9935 19.4362 12.0646 19.843C11.9935 19.4382 11.548 19.007 11.0822 18.8626C10.6164 18.7202 10.3153 18.9175 10.4109 19.3243C10.3174 18.9175 9.29016 17.1988 9.17828 16.9445C8.87724 16.2488 8.29753 16.0292 7.8012 16.4807C7.5978 16.6658 7.47169 17.0014 7.57542 17.4957C7.25201 17.4062 7.09132 17.5628 7.20929 17.9066C7.85409 19.7902 8.49076 21.7063 9.01962 23.6325C9.24541 24.4564 9.47932 25.5243 10.1424 26.1386C10.6184 26.5779 11.2124 26.883 11.7839 27.1291C13.4905 27.8614 15.3842 28.0851 17.1479 28.0973C19.0355 28.1095 21.4357 27.654 23.1057 26.704C23.7382 26.346 24.3404 25.929 24.6231 25.2272C25.0888 24.0638 25.4266 22.8433 25.7825 21.6758C26.1872 20.3496 26.4925 18.9419 27.0171 17.7032C27.1474 17.2963 26.8992 17.156 26.4578 17.3758Z" fill="#7F849C"/>
<path d="M17.0849 22.7226C22.1413 22.7226 26.2403 21.0752 26.2403 19.0429C26.2403 17.0108 22.1413 15.3633 17.0849 15.3633C12.0285 15.3633 7.92944 17.0108 7.92944 19.0429C7.92944 21.0752 12.0285 22.7226 17.0849 22.7226Z" fill="#854D0E"/>
<path d="M24.8588 13.7883C24.688 13.6154 24.4784 13.4527 24.2282 13.3103C24.2282 13.3103 18.3945 15.2081 14.3345 15.0026C10.2744 14.7972 10.8724 14.3538 8.80987 15.6678C8.80987 15.6678 8.24643 16.4732 8.93395 16.9635C9.83301 17.6042 10.968 18.133 12.2129 18.5358C12.3634 18.4261 12.5139 18.3568 12.6421 18.3568C16.5129 17.0124 24.0431 18.7168 24.8588 13.7883Z" fill="#F38BA8"/>
<path d="M24.858 13.7883C24.0423 18.7169 16.5121 17.0123 12.6433 18.3568C12.5152 18.3568 12.3646 18.424 12.2141 18.5359C15.3364 19.5448 19.1565 19.7502 21.7072 18.902C24.9109 17.8402 26.3572 15.3079 24.858 13.7883Z" fill="#DB2777"/>
<path opacity="0.5" d="M24.858 13.7883C24.0423 18.7169 16.5121 17.0123 12.6433 18.3568C12.5152 18.3568 12.3646 18.424 12.2141 18.5359C15.3364 19.5448 19.1565 19.7502 21.7072 18.902C24.9109 17.8402 26.3572 15.3079 24.858 13.7883Z" fill="#F38BA8"/>
<path d="M23.2048 10.158C23.2048 10.158 24.3093 10.8129 24.3093 12.5073C24.3093 14.2017 22.8997 16.3986 16.645 15.77C10.445 15.1455 8.84419 15.6744 8.84419 15.6744C8.84419 15.6744 6.94436 13.0952 10.9149 13.1094C14.4685 13.1216 19.753 13.5406 20.9979 12.7514C22.8509 11.5716 22.92 11.5391 23.2048 10.158Z" fill="#F9A8D4"/>
<path d="M15.9836 8.89996C17.9077 7.69781 17.804 5.95054 16.8866 4.46362C16.787 4.52058 16.728 4.64059 16.7788 4.76468C16.9802 5.24878 17.1592 5.93223 16.8337 6.39193C16.2825 7.16896 15.2614 7.36627 13.5914 8.29787C11.9987 9.18473 11.3865 10.0309 11.2746 11.0927C11.2644 11.1924 11.3214 11.288 11.415 11.3348C11.594 11.4243 11.9357 11.5707 12.4523 11.705C13.0138 10.3157 14.704 9.53866 15.9836 8.89996Z" fill="#F38BA8"/>
<path d="M20.182 6.66441C19.3216 5.73686 18.3045 4.98019 17.1267 4.45132C17.0414 4.41268 16.9539 4.42489 16.8848 4.46353C17.8022 5.94841 17.9059 7.69568 15.9816 8.89985C14.7041 9.53856 13.0139 10.3156 12.4504 11.7048C13.0118 11.8513 13.7807 11.9835 14.7814 12.014C17.2346 12.0873 20.54 11.953 21.1014 10.9909C21.6648 10.0308 21.1949 7.7567 20.182 6.66441Z" fill="#F9A8D4"/>
<path d="M23.0314 9.82591C23.0781 9.70793 23.1127 9.58589 23.1371 9.46384C22.4781 8.45494 20.9362 8.14575 20.9362 8.14575C22.6082 11.7054 13.9065 10.9304 11.4411 11.0769C10.3916 11.1399 9.78948 11.6017 9.44165 12.1143C9.95628 11.8457 10.5584 11.6973 11.1625 11.4959C15.0557 10.5683 21.3614 14.4636 23.0314 9.82591Z" fill="#F38BA8"/>
<path d="M23.3818 10.0232C23.3337 9.82449 23.2512 9.63583 23.1377 9.46582C23.1133 9.58989 23.0787 9.7099 23.0319 9.82789C21.3619 14.4655 15.0563 10.5703 11.161 11.4979C10.5589 11.6992 9.95479 11.8457 9.44017 12.1162C8.9703 12.8058 8.96826 13.5828 8.96826 13.5828C11.5048 12.8139 13.3761 13.5869 18.2519 13.658C23.1275 13.7251 23.7316 11.4796 23.3818 10.0232Z" fill="#DB2777"/>
<path opacity="0.5" d="M23.3818 10.0232C23.3337 9.82449 23.2512 9.63583 23.1377 9.46582C23.1133 9.58989 23.0787 9.7099 23.0319 9.82789C21.3619 14.4655 15.0563 10.5703 11.161 11.4979C10.5589 11.6992 9.95479 11.8457 9.44017 12.1162C8.9703 12.8058 8.96826 13.5828 8.96826 13.5828C11.5048 12.8139 13.3761 13.5869 18.2519 13.658C23.1275 13.7251 23.7316 11.4796 23.3818 10.0232Z" fill="#F38BA8"/>
<path d="M26.4612 18.7847C26.0157 18.9922 25.5499 19.4682 25.434 19.8649C25.552 19.4682 25.2773 19.2993 24.8218 19.4682C24.3641 19.637 23.9084 20.0743 23.8129 20.4629C23.9084 20.0743 23.6073 19.8811 23.1416 20.0113C22.6757 20.1414 22.2304 20.5422 22.1591 20.9246C22.2324 20.5422 21.9069 20.3225 21.435 20.414C20.9631 20.5056 20.5318 20.8717 20.4831 21.25C20.5338 20.8717 20.184 20.6235 19.7081 20.6764C19.23 20.7294 18.8171 21.0629 18.7907 21.4372C18.8171 21.0629 18.4489 20.7842 17.9689 20.7985C17.4889 20.8127 17.0943 21.1138 17.0901 21.488C17.0943 21.1138 16.7057 20.8045 16.2257 20.7801C15.7477 20.7558 15.3714 21.0263 15.3917 21.4026C15.3734 21.0263 14.9666 20.6866 14.4885 20.6235C14.0126 20.5605 13.6587 20.8025 13.7014 21.1809C13.6587 20.8025 13.2376 20.4263 12.7657 20.3266C12.2938 20.2269 11.9663 20.4385 12.0294 20.8229C11.9643 20.4385 11.529 20.0296 11.0652 19.8893C10.6014 19.7489 10.2984 19.938 10.3858 20.3286C10.2984 19.938 9.85087 19.4905 9.39726 19.3135C8.94367 19.1367 8.66703 19.2993 8.77687 19.6981C8.66703 19.2993 8.2114 18.8132 7.77001 18.5977C7.3286 18.3819 7.08045 18.5224 7.21063 18.9311C7.73542 20.1638 8.04257 21.5449 8.44736 22.8224C8.80535 23.9472 9.14301 25.1127 9.61085 26.1969C9.89359 26.8519 10.4916 27.1977 11.1303 27.4865C12.9589 28.3103 15.0947 28.5239 17.0759 28.5422C18.866 28.5606 20.721 28.4039 22.4276 27.8364C23.0012 27.6452 23.5951 27.4072 24.0712 27.0268C24.7363 26.496 24.9702 25.4809 25.198 24.6958C25.7412 22.8163 26.3819 20.9835 27.0124 19.1325C27.1507 18.7217 26.9066 18.5773 26.4612 18.7847Z" fill="#74C7EC"/>
</svg>
