<svg width="33" height="33" viewBox="0 0 33 33" fill="none" xmlns="http://www.w3.org/2000/svg">
<path d="M23.1173 11.0447L16.9673 20.514C16.9022 20.6144 16.8078 20.6895 16.6987 20.7281C16.5897 20.7667 16.4718 20.7665 16.3629 20.7276C16.2541 20.6887 16.1602 20.613 16.0956 20.5125C16.0309 20.4118 15.999 20.2913 16.0048 20.1698L16.251 14.9418L12.2774 14.0444C12.1925 14.0252 12.1133 13.9841 12.047 13.9247C11.9807 13.8655 11.9292 13.7897 11.8972 13.7042C11.8651 13.6186 11.8535 13.526 11.8632 13.4345C11.873 13.343 11.9039 13.2555 11.9532 13.1796L18.1033 3.71024C18.1684 3.60978 18.2628 3.5346 18.3719 3.49605C18.481 3.4575 18.5988 3.45769 18.7078 3.49664C18.8166 3.53558 18.9105 3.61111 18.975 3.7118C19.0397 3.81247 19.0716 3.93279 19.0659 4.05451L18.8197 9.28261L22.7932 10.1799C22.8781 10.1991 22.9572 10.2402 23.0236 10.2995C23.0899 10.3589 23.1414 10.4347 23.1733 10.5202C23.2056 10.6057 23.2171 10.6983 23.2074 10.7898C23.1977 10.8813 23.1667 10.9688 23.1173 11.0447Z" fill="#F9E2AF"/>
<path d="M16.6721 29.1926C16.8357 29.1929 16.9976 29.1593 17.1488 29.0935C17.3 29.0277 17.4371 28.9312 17.5527 28.8097L23.3637 22.7076C23.5963 22.4622 23.7266 22.13 23.7261 21.7839C23.7257 21.4377 23.5945 21.1056 23.3614 20.861C23.1284 20.6162 22.8122 20.4783 22.4826 20.4778C22.1528 20.4775 21.8366 20.6142 21.6028 20.8583L16.6721 26.0357L5.93055 14.7561C5.69637 14.5141 5.38066 14.3792 5.05217 14.3806C4.72367 14.382 4.409 14.5196 4.17673 14.7636C3.94444 15.0075 3.81336 15.3378 3.81202 15.683C3.81068 16.0278 3.93921 16.3593 4.16959 16.6053L15.7918 28.8097C15.9073 28.9314 16.0445 29.0277 16.1955 29.0935C16.3467 29.1593 16.5086 29.1929 16.6721 29.1926Z" fill="#94E2D5"/>
<path d="M16.6775 29.1926C16.5139 29.1929 16.352 29.1593 16.2008 29.0935C16.0497 29.0277 15.9125 28.9312 15.797 28.8097L9.98588 22.7076C9.75341 22.4622 9.6231 22.13 9.62354 21.7839C9.62397 21.4377 9.75511 21.1056 9.98823 20.861C10.2213 20.6162 10.5374 20.4783 10.867 20.4778C11.1967 20.4775 11.5131 20.6142 11.7469 20.8583L16.6775 26.0357L27.4191 14.7561C27.6534 14.5141 27.969 14.3792 28.2975 14.3806C28.626 14.382 28.9406 14.5196 29.1728 14.7636C29.4052 15.0075 29.5364 15.3378 29.5377 15.683C29.5389 16.0278 29.4104 16.3593 29.18 16.6053L17.5579 28.8097C17.4425 28.9314 17.3051 29.0277 17.1541 29.0935C17.0031 29.1593 16.841 29.1929 16.6775 29.1926Z" fill="#94E2D5"/>
</svg>
