<svg width="35" height="38" viewBox="0 0 35 38" fill="none" xmlns="http://www.w3.org/2000/svg">
<g filter="url(#filter0_d_2_988)">
<path d="M23.6173 11.0447L17.4673 20.514C17.4022 20.6144 17.3078 20.6895 17.1987 20.7281C17.0897 20.7667 16.9718 20.7665 16.8629 20.7276C16.7541 20.6887 16.6602 20.613 16.5956 20.5125C16.5309 20.4118 16.499 20.2913 16.5048 20.1698L16.751 14.9418L12.7774 14.0444C12.6925 14.0252 12.6133 13.9841 12.547 13.9247C12.4807 13.8655 12.4292 13.7897 12.3972 13.7042C12.3651 13.6186 12.3535 13.526 12.3632 13.4345C12.373 13.343 12.4039 13.2555 12.4532 13.1796L18.6033 3.71024C18.6684 3.60978 18.7628 3.5346 18.8719 3.49605C18.981 3.4575 19.0988 3.45769 19.2078 3.49664C19.3166 3.53558 19.4105 3.61111 19.475 3.7118C19.5397 3.81247 19.5716 3.93279 19.5659 4.05451L19.3197 9.28261L23.2932 10.1799C23.3781 10.1991 23.4572 10.2402 23.5236 10.2995C23.5899 10.3589 23.6414 10.4347 23.6733 10.5202C23.7056 10.6057 23.7171 10.6983 23.7074 10.7898C23.6977 10.8813 23.6667 10.9688 23.6173 11.0447Z" fill="#F9E2AF"/>
<path d="M17.1722 29.1926C17.3358 29.1929 17.4978 29.1593 17.6489 29.0935C17.8002 29.0277 17.9373 28.9312 18.0528 28.8097L23.8639 22.7076C24.0964 22.4622 24.2267 22.13 24.2262 21.7839C24.2258 21.4377 24.0946 21.1056 23.8615 20.861C23.6285 20.6162 23.3123 20.4783 22.9828 20.4778C22.653 20.4775 22.3367 20.6142 22.103 20.8583L17.1722 26.0357L6.43067 14.7561C6.1965 14.5141 5.88078 14.3792 5.5523 14.3806C5.2238 14.382 4.90913 14.5196 4.67685 14.7636C4.44457 15.0075 4.31348 15.3378 4.31214 15.683C4.31081 16.0278 4.43933 16.3593 4.66971 16.6053L16.2919 28.8097C16.4074 28.9314 16.5446 29.0277 16.6956 29.0935C16.8468 29.1593 17.0087 29.1929 17.1722 29.1926Z" fill="#94E2D5"/>
<path d="M17.1777 29.1926C17.014 29.1929 16.8521 29.1593 16.701 29.0935C16.5498 29.0277 16.4126 28.9312 16.2971 28.8097L10.486 22.7076C10.2535 22.4622 10.1232 22.13 10.1237 21.7839C10.1241 21.4377 10.2552 21.1056 10.4884 20.861C10.7214 20.6162 11.0375 20.4783 11.3672 20.4778C11.6968 20.4775 12.0132 20.6142 12.247 20.8583L17.1777 26.0357L27.9192 14.7561C28.1535 14.5141 28.4691 14.3792 28.7976 14.3806C29.1262 14.382 29.4408 14.5196 29.6729 14.7636C29.9054 15.0075 30.0366 15.3378 30.0379 15.683C30.039 16.0278 29.9105 16.3593 29.6801 16.6053L18.058 28.8097C17.9426 28.9314 17.8052 29.0277 17.6542 29.0935C17.5032 29.1593 17.3411 29.1929 17.1777 29.1926Z" fill="#94E2D5"/>
</g>
<defs>
<filter id="filter0_d_2_988" x="-2.90381" y="0.25293" width="40.1566" height="40.1565" filterUnits="userSpaceOnUse" color-interpolation-filters="sRGB">
<feFlood flood-opacity="0" result="BackgroundImageFix"/>
<feColorMatrix in="SourceAlpha" type="matrix" values="0 0 0 0 0 0 0 0 0 0 0 0 0 0 0 0 0 0 127 0" result="hardAlpha"/>
<feOffset dy="4"/>
<feGaussianBlur stdDeviation="2"/>
<feComposite in2="hardAlpha" operator="out"/>
<feColorMatrix type="matrix" values="0 0 0 0 0 0 0 0 0 0 0 0 0 0 0 0 0 0 0.25 0"/>
<feBlend mode="normal" in2="BackgroundImageFix" result="effect1_dropShadow_2_988"/>
<feBlend mode="normal" in="SourceGraphic" in2="effect1_dropShadow_2_988" result="shape"/>
</filter>
</defs>
</svg>
