<svg width="33" height="33" viewBox="0 0 33 33" fill="none" xmlns="http://www.w3.org/2000/svg">
<path d="M8.88205 9.1873C8.13804 7.86861 9.09083 6.23706 10.6049 6.23706C11.3376 6.23706 12.0103 6.64205 12.3532 7.28957L16.1602 14.4797C16.1874 14.531 16.2407 14.5631 16.2988 14.5631C16.3568 14.5631 16.4101 14.531 16.4373 14.4797L20.2443 7.2896C20.5871 6.64206 21.2598 6.23706 21.9925 6.23706C23.5066 6.23706 24.4594 7.86861 23.7154 9.18731L18.9736 17.5918C18.5506 18.3416 18.3284 19.1879 18.3284 20.0487V23.5404C18.3284 24.6613 17.4197 25.57 16.2988 25.57C15.1778 25.57 14.2692 24.6613 14.2692 23.5404V20.0488C14.2692 19.1879 14.0469 18.3416 13.6239 17.5918L8.88205 9.1873Z" fill="#CBA6F7"/>
</svg>
